M48
METRIC,TZ
T1C0.400
T2C0.500
T3C0.800
T4C0.900
T5C1.000
T6C1.016
T7C1.100
T8C1.500
T9C3.200
T10C3.500
%
G90
G05
T1
X80128Y-90087
X83847Y-85364
X85296Y-92289
X90853Y-59018
X91055Y-91213
X91243Y-82886
X92157Y-55649
X93507Y-93530
X95561Y-61466
X96076Y-118453
X97209Y-117578
X97848Y-103340
X98812Y-106108
X99077Y-90307
X99264Y-119420
X101212Y-70994
X101560Y-118238
X101804Y-107986
X102238Y-105587
X102918Y-111975
X103687Y-100030
X103792Y-65169
X104597Y-106342
X104904Y-37965
X104982Y-50372
X105869Y-111975
X106443Y-79419
X107598Y-98652
X107919Y-106882
X108373Y-97877
X108443Y-112591
X109687Y-99009
X112375Y-80212
X112645Y-105719
X113614Y-80284
X113748Y-48516
X113792Y-73569
X114117Y-82142
X115136Y-108352
X115431Y-61892
X115475Y-92153
X118164Y-108585
X118527Y-115760
X118566Y-111482
X119179Y-79437
X119490Y-101378
X119569Y-65538
X120270Y-30938
X120314Y-66296
X120328Y-117522
X120573Y-43968
X121158Y-29775
X121471Y-89743
X121493Y-63245
X121836Y-92207
X122295Y-102538
X123679Y-81950
X123711Y-118354
X123728Y-116972
X123791Y-71011
X124562Y-81295
X124628Y-98703
X124711Y-49391
X125434Y-56787
X125990Y-92974
X126006Y-70707
X128212Y-77243
X129748Y-93650
X130119Y-76307
X131037Y-73871
X131119Y-91745
X131563Y-93497
X131985Y-105053
X132668Y-109465
X133032Y-90444
X136865Y-104134
X137108Y-109599
X137118Y-73756
X138461Y-113901
X138881Y-77635
X139633Y-43738
X140211Y-81946
X140268Y-118848
X142202Y-103826
X142684Y-81045
X144722Y-111549
X145927Y-111725
X147820Y-110771
X149473Y-51675
X149495Y-81490
X149688Y-90444
X150014Y-103372
X151291Y-97949
X151482Y-101936
X152448Y-97806
X153048Y-110128
X153513Y-91680
X154846Y-118294
X155778Y-89999
X155824Y-27651
X155969Y-62559
X156236Y-103731
X157009Y-106857
X159274Y-71489
X160875Y-46643
T2
X98375Y-44500
X99144Y-42644
X99144Y-46356
X101000Y-41875
X101000Y-47125
X102856Y-42644
X102856Y-46356
X103625Y-44500
X64875Y-93500
X65644Y-91644
X65644Y-95356
X67500Y-90875
X67500Y-96125
X69356Y-91644
X69356Y-95356
X70125Y-93500
X155375Y-112500
X156144Y-110644
X156144Y-114356
X158000Y-109875
X158000Y-115125
X159856Y-110644
X159856Y-114356
X160625Y-112500
T3
X135970Y-35052
X140970Y-35052
X102188Y-73152
X107188Y-73152
X126238Y-49784
X126238Y-65024
X128778Y-49784
X128778Y-65024
X131318Y-49784
X131318Y-65024
X133858Y-49784
X133858Y-65024
X136398Y-49784
X136398Y-65024
X138938Y-49784
X138938Y-65024
X141478Y-49784
X141478Y-65024
X144018Y-49784
X144018Y-65024
X146558Y-49784
X146558Y-65024
X149098Y-49784
X149098Y-65024
X151638Y-49784
X151638Y-65024
X154178Y-49784
X154178Y-65024
X156718Y-49784
X156718Y-65024
X159258Y-49784
X159258Y-65024
X82550Y-49784
X82550Y-57404
X134112Y-114808
X141732Y-114808
X113792Y-114808
X121412Y-114808
X137414Y-88138
X137414Y-95758
X139954Y-88138
X139954Y-95758
X142494Y-88138
X142494Y-95758
X145034Y-88138
X145034Y-95758
X147574Y-88138
X147574Y-95758
X150114Y-88138
X150114Y-95758
X152654Y-88138
X152654Y-95758
X133604Y-87710
X133604Y-92710
X114300Y-87884
X114300Y-95504
X116840Y-87884
X116840Y-95504
X119380Y-87884
X119380Y-95504
X121920Y-87884
X121920Y-95504
X124460Y-87884
X124460Y-95504
X127000Y-87884
X127000Y-95504
X129540Y-87884
X129540Y-95504
X79328Y-35306
X84328Y-35306
X66548Y-83566
X74168Y-83566
X102616Y-76454
X102616Y-84074
X105156Y-76454
X105156Y-84074
X107696Y-76454
X107696Y-84074
X110236Y-76454
X110236Y-84074
X112776Y-76454
X112776Y-84074
X115316Y-76454
X115316Y-84074
X117856Y-76454
X117856Y-84074
X120396Y-76454
X120396Y-84074
X91694Y-50292
X99314Y-50292
X110744Y-87456
X110744Y-92456
X77724Y-83566
X85344Y-83566
X111760Y-110236
X119380Y-110236
X79248Y-49784
X79248Y-57404
X122682Y-56722
X122682Y-61722
X101854Y-50292
X109474Y-50292
X106252Y-35560
X111252Y-35560
X80010Y-38862
X80010Y-46482
X82550Y-38862
X82550Y-46482
X85090Y-38862
X85090Y-46482
X87630Y-38862
X87630Y-46482
X90170Y-38862
X90170Y-46482
X92710Y-38862
X92710Y-46482
X95250Y-38862
X95250Y-46482
X111760Y-106934
X119380Y-106934
X136398Y-38608
X136398Y-46228
X138938Y-38608
X138938Y-46228
X141478Y-38608
X141478Y-46228
X144018Y-38608
X144018Y-46228
X146558Y-38608
X146558Y-46228
X149098Y-38608
X149098Y-46228
X151638Y-38608
X151638Y-46228
X154178Y-38608
X154178Y-46228
X156718Y-38608
X156718Y-46228
X159258Y-38608
X159258Y-46228
X122682Y-49356
X122682Y-54356
X106680Y-38862
X106680Y-46482
X109220Y-38862
X109220Y-46482
X111760Y-38862
X111760Y-46482
X114300Y-38862
X114300Y-46482
X116840Y-38862
X116840Y-46482
X119380Y-38862
X119380Y-46482
X121920Y-38862
X121920Y-46482
X145796Y-35052
X153416Y-35052
X126238Y-68834
X126238Y-84074
X128778Y-68834
X128778Y-84074
X131318Y-68834
X131318Y-84074
X133858Y-68834
X133858Y-84074
X136398Y-68834
X136398Y-84074
X138938Y-68834
X138938Y-84074
X141478Y-68834
X141478Y-84074
X144018Y-68834
X144018Y-84074
X146558Y-68834
X146558Y-84074
X149098Y-68834
X149098Y-84074
X151638Y-68834
X151638Y-84074
X154178Y-68834
X154178Y-84074
X156718Y-68834
X156718Y-84074
X159258Y-68834
X159258Y-84074
X88900Y-83566
X96520Y-83566
X80772Y-63246
X80772Y-68146
X66374Y-87630
X71374Y-87630
X74676Y-87630
X74676Y-95250
X77216Y-87630
X77216Y-95250
X79756Y-87630
X79756Y-95250
X82296Y-87630
X82296Y-95250
X84836Y-87630
X84836Y-95250
X87376Y-87630
X87376Y-95250
X89916Y-87630
X89916Y-95250
X92456Y-87630
X92456Y-95250
X94996Y-87630
X94996Y-95250
X97536Y-87630
X97536Y-95250
X100076Y-87630
X100076Y-95250
X102616Y-87630
X102616Y-95250
X122174Y-99648
X122174Y-104648
X125730Y-100076
X125730Y-107696
X128270Y-100076
X128270Y-107696
X130810Y-100076
X130810Y-107696
X133350Y-100076
X133350Y-107696
X135890Y-100076
X135890Y-107696
X138430Y-100076
X138430Y-107696
X140970Y-100076
X140970Y-107696
X143510Y-100076
X143510Y-107696
X146050Y-100076
X146050Y-107696
X148590Y-100076
X148590Y-107696
X151130Y-100076
X151130Y-107696
X153670Y-100076
X153670Y-107696
X85852Y-53848
X85852Y-69088
X88392Y-53848
X88392Y-69088
X90932Y-53848
X90932Y-69088
X93472Y-53848
X93472Y-69088
X96012Y-53848
X96012Y-69088
X98552Y-53848
X98552Y-69088
X101092Y-53848
X101092Y-69088
X103632Y-53848
X103632Y-69088
X106172Y-53848
X106172Y-69088
X108712Y-53848
X108712Y-69088
X111252Y-53848
X111252Y-69088
X113792Y-53848
X113792Y-69088
X116332Y-53848
X116332Y-69088
X118872Y-53848
X118872Y-69088
X113284Y-103378
X118284Y-103378
X122682Y-68406
X122682Y-73406
X87884Y-35306
X95504Y-35306
X113284Y-99822
X118284Y-99822
X66040Y-71882
X66040Y-74422
X66040Y-76962
X73660Y-71882
X73660Y-74422
X73660Y-76962
X112014Y-50292
X119634Y-50292
X123778Y-111506
X128778Y-111506
X123952Y-114808
X131572Y-114808
X106172Y-90678
X106172Y-95678
T4
X157480Y-29290
X157480Y-31790
X157480Y-34290
X160780Y-29290
X160780Y-31790
X160780Y-34290
X99500Y-37000
X102040Y-37000
X130000Y-37000
X132540Y-37000
T5
X116078Y-35052
X118618Y-35052
X121158Y-35052
X123698Y-35052
X91694Y-116078
X94234Y-116078
X96774Y-116078
X69000Y-28460
X69000Y-31000
X71540Y-28460
X71540Y-31000
X74080Y-28460
X74080Y-31000
X76620Y-28460
X76620Y-31000
X79160Y-28460
X79160Y-31000
X81700Y-28460
X81700Y-31000
X84240Y-28460
X84240Y-31000
X86780Y-28460
X86780Y-31000
X89320Y-28460
X89320Y-31000
X91860Y-28460
X91860Y-31000
X94400Y-28460
X94400Y-31000
X96940Y-28460
X96940Y-31000
X99480Y-28460
X99480Y-31000
X102020Y-28460
X102020Y-31000
X104560Y-28460
X104560Y-31000
X107100Y-28460
X107100Y-31000
X109640Y-28460
X109640Y-31000
X159004Y-89996
X159004Y-93046
X159004Y-96096
X122682Y-28460
X122682Y-31000
X125222Y-28460
X125222Y-31000
X127762Y-28460
X127762Y-31000
X130302Y-28460
X130302Y-31000
X132842Y-28460
X132842Y-31000
X135382Y-28460
X135382Y-31000
X137922Y-28460
X137922Y-31000
X140462Y-28460
X140462Y-31000
X143002Y-28460
X143002Y-31000
X145542Y-28460
X145542Y-31000
X148082Y-28460
X148082Y-31000
X150622Y-28460
X150622Y-31000
X153162Y-28460
X153162Y-31000
X71410Y-45385
X71410Y-48155
X71410Y-50925
X71410Y-53695
X74250Y-44000
X74250Y-46770
X74250Y-49540
X74250Y-52310
X74250Y-55080
T6
X85090Y-103124
X85090Y-105664
X85090Y-108204
T7
X78000Y-73500
X78000Y-80000
X82500Y-73500
X82500Y-80000
X93500Y-73500
X93500Y-80000
X98000Y-73500
X98000Y-80000
T8
X158954Y-87046
X159004Y-99096
T9
X73950Y-37040
X73950Y-62040
T10
X101000Y-44500
X67500Y-93500
X158000Y-112500
T0
M30
