G04 #@! TF.GenerationSoftware,KiCad,Pcbnew,(5.1.6)-1*
G04 #@! TF.CreationDate,2020-07-28T06:48:23+03:00*
G04 #@! TF.ProjectId,PlusD_Clone_1_3,506c7573-445f-4436-9c6f-6e655f315f33,rev?*
G04 #@! TF.SameCoordinates,Original*
G04 #@! TF.FileFunction,Legend,Top*
G04 #@! TF.FilePolarity,Positive*
%FSLAX46Y46*%
G04 Gerber Fmt 4.6, Leading zero omitted, Abs format (unit mm)*
G04 Created by KiCad (PCBNEW (5.1.6)-1) date 2020-07-28 06:48:23*
%MOMM*%
%LPD*%
G01*
G04 APERTURE LIST*
%ADD10C,0.150000*%
%ADD11C,0.200000*%
%ADD12C,0.120000*%
G04 APERTURE END LIST*
D10*
X151701476Y-46267714D02*
X151701476Y-46934380D01*
X151463380Y-45886761D02*
X151225285Y-46601047D01*
X151844333Y-46601047D01*
X151177666Y-43267380D02*
X151796714Y-43267380D01*
X151463380Y-43648333D01*
X151606238Y-43648333D01*
X151701476Y-43695952D01*
X151749095Y-43743571D01*
X151796714Y-43838809D01*
X151796714Y-44076904D01*
X151749095Y-44172142D01*
X151701476Y-44219761D01*
X151606238Y-44267380D01*
X151320523Y-44267380D01*
X151225285Y-44219761D01*
X151177666Y-44172142D01*
X151225285Y-40822619D02*
X151272904Y-40775000D01*
X151368142Y-40727380D01*
X151606238Y-40727380D01*
X151701476Y-40775000D01*
X151749095Y-40822619D01*
X151796714Y-40917857D01*
X151796714Y-41013095D01*
X151749095Y-41155952D01*
X151177666Y-41727380D01*
X151796714Y-41727380D01*
X151796714Y-38933380D02*
X151225285Y-38933380D01*
X151511000Y-38933380D02*
X151511000Y-37933380D01*
X151415761Y-38076238D01*
X151320523Y-38171476D01*
X151225285Y-38219095D01*
X154686000Y-99060000D02*
X155321000Y-98933000D01*
X155194000Y-99568000D02*
X154686000Y-99060000D01*
X155321000Y-98933000D02*
X155194000Y-99568000D01*
X153924000Y-100330000D02*
X155321000Y-98933000D01*
X154051000Y-109728000D02*
X153924000Y-100330000D01*
X64613404Y-77224380D02*
X64041976Y-77224380D01*
X64327690Y-77224380D02*
X64327690Y-76224380D01*
X64232452Y-76367238D01*
X64137214Y-76462476D01*
X64041976Y-76510095D01*
X65041976Y-76843428D02*
X65803880Y-76843428D01*
X66232452Y-76319619D02*
X66280071Y-76272000D01*
X66375309Y-76224380D01*
X66613404Y-76224380D01*
X66708642Y-76272000D01*
X66756261Y-76319619D01*
X66803880Y-76414857D01*
X66803880Y-76510095D01*
X66756261Y-76652952D01*
X66184833Y-77224380D01*
X66803880Y-77224380D01*
X68708642Y-76176761D02*
X67851500Y-77462476D01*
X70375309Y-77224380D02*
X70041976Y-76748190D01*
X69803880Y-77224380D02*
X69803880Y-76224380D01*
X70184833Y-76224380D01*
X70280071Y-76272000D01*
X70327690Y-76319619D01*
X70375309Y-76414857D01*
X70375309Y-76557714D01*
X70327690Y-76652952D01*
X70280071Y-76700571D01*
X70184833Y-76748190D01*
X69803880Y-76748190D01*
X70994357Y-76224380D02*
X71184833Y-76224380D01*
X71280071Y-76272000D01*
X71375309Y-76367238D01*
X71422928Y-76557714D01*
X71422928Y-76891047D01*
X71375309Y-77081523D01*
X71280071Y-77176761D01*
X71184833Y-77224380D01*
X70994357Y-77224380D01*
X70899119Y-77176761D01*
X70803880Y-77081523D01*
X70756261Y-76891047D01*
X70756261Y-76557714D01*
X70803880Y-76367238D01*
X70899119Y-76272000D01*
X70994357Y-76224380D01*
X71851500Y-77224380D02*
X71851500Y-76224380D01*
X72184833Y-76938666D01*
X72518166Y-76224380D01*
X72518166Y-77224380D01*
X73708642Y-77176761D02*
X73851500Y-77224380D01*
X74089595Y-77224380D01*
X74184833Y-77176761D01*
X74232452Y-77129142D01*
X74280071Y-77033904D01*
X74280071Y-76938666D01*
X74232452Y-76843428D01*
X74184833Y-76795809D01*
X74089595Y-76748190D01*
X73899119Y-76700571D01*
X73803880Y-76652952D01*
X73756261Y-76605333D01*
X73708642Y-76510095D01*
X73708642Y-76414857D01*
X73756261Y-76319619D01*
X73803880Y-76272000D01*
X73899119Y-76224380D01*
X74137214Y-76224380D01*
X74280071Y-76272000D01*
X74708642Y-76700571D02*
X75041976Y-76700571D01*
X75184833Y-77224380D02*
X74708642Y-77224380D01*
X74708642Y-76224380D01*
X75184833Y-76224380D01*
X76089595Y-77224380D02*
X75613404Y-77224380D01*
X75613404Y-76224380D01*
X63994357Y-77874380D02*
X64613404Y-77874380D01*
X64280071Y-78255333D01*
X64422928Y-78255333D01*
X64518166Y-78302952D01*
X64565785Y-78350571D01*
X64613404Y-78445809D01*
X64613404Y-78683904D01*
X64565785Y-78779142D01*
X64518166Y-78826761D01*
X64422928Y-78874380D01*
X64137214Y-78874380D01*
X64041976Y-78826761D01*
X63994357Y-78779142D01*
X66518166Y-77826761D02*
X65661023Y-79112476D01*
X67899119Y-77874380D02*
X67899119Y-78588666D01*
X67851500Y-78731523D01*
X67756261Y-78826761D01*
X67613404Y-78874380D01*
X67518166Y-78874380D01*
X68565785Y-77874380D02*
X68756261Y-77874380D01*
X68851500Y-77922000D01*
X68946738Y-78017238D01*
X68994357Y-78207714D01*
X68994357Y-78541047D01*
X68946738Y-78731523D01*
X68851500Y-78826761D01*
X68756261Y-78874380D01*
X68565785Y-78874380D01*
X68470547Y-78826761D01*
X68375309Y-78731523D01*
X68327690Y-78541047D01*
X68327690Y-78207714D01*
X68375309Y-78017238D01*
X68470547Y-77922000D01*
X68565785Y-77874380D01*
X69613404Y-78398190D02*
X69613404Y-78874380D01*
X69280071Y-77874380D02*
X69613404Y-78398190D01*
X69946738Y-77874380D01*
X71232452Y-77874380D02*
X71422928Y-77874380D01*
X71518166Y-77922000D01*
X71613404Y-78017238D01*
X71661023Y-78207714D01*
X71661023Y-78541047D01*
X71613404Y-78731523D01*
X71518166Y-78826761D01*
X71422928Y-78874380D01*
X71232452Y-78874380D01*
X71137214Y-78826761D01*
X71041976Y-78731523D01*
X70994357Y-78541047D01*
X70994357Y-78207714D01*
X71041976Y-78017238D01*
X71137214Y-77922000D01*
X71232452Y-77874380D01*
X72089595Y-78874380D02*
X72089595Y-77874380D01*
X72661023Y-78874380D01*
X72661023Y-77874380D01*
X73137214Y-78493428D02*
X73899119Y-78493428D01*
X74565785Y-77874380D02*
X74756261Y-77874380D01*
X74851500Y-77922000D01*
X74946738Y-78017238D01*
X74994357Y-78207714D01*
X74994357Y-78541047D01*
X74946738Y-78731523D01*
X74851500Y-78826761D01*
X74756261Y-78874380D01*
X74565785Y-78874380D01*
X74470547Y-78826761D01*
X74375309Y-78731523D01*
X74327690Y-78541047D01*
X74327690Y-78207714D01*
X74375309Y-78017238D01*
X74470547Y-77922000D01*
X74565785Y-77874380D01*
X75756261Y-78350571D02*
X75422928Y-78350571D01*
X75422928Y-78874380D02*
X75422928Y-77874380D01*
X75899119Y-77874380D01*
X76613404Y-78350571D02*
X76280071Y-78350571D01*
X76280071Y-78874380D02*
X76280071Y-77874380D01*
X76756261Y-77874380D01*
X75485666Y-73112380D02*
X76104714Y-73112380D01*
X75771380Y-73493333D01*
X75914238Y-73493333D01*
X76009476Y-73540952D01*
X76057095Y-73588571D01*
X76104714Y-73683809D01*
X76104714Y-73921904D01*
X76057095Y-74017142D01*
X76009476Y-74064761D01*
X75914238Y-74112380D01*
X75628523Y-74112380D01*
X75533285Y-74064761D01*
X75485666Y-74017142D01*
X75533285Y-70667619D02*
X75580904Y-70620000D01*
X75676142Y-70572380D01*
X75914238Y-70572380D01*
X76009476Y-70620000D01*
X76057095Y-70667619D01*
X76104714Y-70762857D01*
X76104714Y-70858095D01*
X76057095Y-71000952D01*
X75485666Y-71572380D01*
X76104714Y-71572380D01*
X76104714Y-69032380D02*
X75533285Y-69032380D01*
X75819000Y-69032380D02*
X75819000Y-68032380D01*
X75723761Y-68175238D01*
X75628523Y-68270476D01*
X75533285Y-68318095D01*
X149307785Y-45499214D02*
X149307785Y-45927785D01*
X149307785Y-45713500D02*
X148557785Y-45713500D01*
X148664928Y-45784928D01*
X148736357Y-45856357D01*
X148772071Y-45927785D01*
X149022071Y-45177785D02*
X149022071Y-44606357D01*
X148629214Y-44284928D02*
X148593500Y-44249214D01*
X148557785Y-44177785D01*
X148557785Y-43999214D01*
X148593500Y-43927785D01*
X148629214Y-43892071D01*
X148700642Y-43856357D01*
X148772071Y-43856357D01*
X148879214Y-43892071D01*
X149307785Y-44320642D01*
X149307785Y-43856357D01*
X149272071Y-43499214D02*
X149307785Y-43499214D01*
X149379214Y-43534928D01*
X149414928Y-43570642D01*
X148557785Y-43249214D02*
X148557785Y-42784928D01*
X148843500Y-43034928D01*
X148843500Y-42927785D01*
X148879214Y-42856357D01*
X148914928Y-42820642D01*
X148986357Y-42784928D01*
X149164928Y-42784928D01*
X149236357Y-42820642D01*
X149272071Y-42856357D01*
X149307785Y-42927785D01*
X149307785Y-43142071D01*
X149272071Y-43213500D01*
X149236357Y-43249214D01*
X149022071Y-42463500D02*
X149022071Y-41892071D01*
X148807785Y-41213500D02*
X149307785Y-41213500D01*
X148522071Y-41392071D02*
X149057785Y-41570642D01*
X149057785Y-41106357D01*
X149093500Y-40284928D02*
X149093500Y-39927785D01*
X149307785Y-40356357D02*
X148557785Y-40106357D01*
X149307785Y-39856357D01*
X148557785Y-39713500D02*
X148557785Y-39284928D01*
X149307785Y-39499214D02*
X148557785Y-39499214D01*
X149904214Y-43499214D02*
X149868500Y-43463500D01*
X149832785Y-43392071D01*
X149832785Y-43213500D01*
X149868500Y-43142071D01*
X149904214Y-43106357D01*
X149975642Y-43070642D01*
X150047071Y-43070642D01*
X150154214Y-43106357D01*
X150582785Y-43534928D01*
X150582785Y-43070642D01*
X150297071Y-42749214D02*
X150297071Y-42177785D01*
X149832785Y-41892071D02*
X149832785Y-41427785D01*
X150118500Y-41677785D01*
X150118500Y-41570642D01*
X150154214Y-41499214D01*
X150189928Y-41463500D01*
X150261357Y-41427785D01*
X150439928Y-41427785D01*
X150511357Y-41463500D01*
X150547071Y-41499214D01*
X150582785Y-41570642D01*
X150582785Y-41784928D01*
X150547071Y-41856357D01*
X150511357Y-41892071D01*
X150547071Y-40570642D02*
X150582785Y-40463500D01*
X150582785Y-40284928D01*
X150547071Y-40213500D01*
X150511357Y-40177785D01*
X150439928Y-40142071D01*
X150368500Y-40142071D01*
X150297071Y-40177785D01*
X150261357Y-40213500D01*
X150225642Y-40284928D01*
X150189928Y-40427785D01*
X150154214Y-40499214D01*
X150118500Y-40534928D01*
X150047071Y-40570642D01*
X149975642Y-40570642D01*
X149904214Y-40534928D01*
X149868500Y-40499214D01*
X149832785Y-40427785D01*
X149832785Y-40249214D01*
X149868500Y-40142071D01*
X150582785Y-39820642D02*
X149832785Y-39820642D01*
X150189928Y-39820642D02*
X150189928Y-39392071D01*
X150582785Y-39392071D02*
X149832785Y-39392071D01*
X146131595Y-110879428D02*
X146893500Y-110879428D01*
X146512547Y-111260380D02*
X146512547Y-110498476D01*
X147322071Y-110355619D02*
X147369690Y-110308000D01*
X147464928Y-110260380D01*
X147703023Y-110260380D01*
X147798261Y-110308000D01*
X147845880Y-110355619D01*
X147893500Y-110450857D01*
X147893500Y-110546095D01*
X147845880Y-110688952D01*
X147274452Y-111260380D01*
X147893500Y-111260380D01*
X148274452Y-110974666D02*
X148750642Y-110974666D01*
X148179214Y-111260380D02*
X148512547Y-110260380D01*
X148845880Y-111260380D01*
X149893500Y-110212761D02*
X149036357Y-111498476D01*
X150226833Y-110879428D02*
X150988738Y-110879428D01*
X150607785Y-111260380D02*
X150607785Y-110498476D01*
X151369690Y-110260380D02*
X151988738Y-110260380D01*
X151655404Y-110641333D01*
X151798261Y-110641333D01*
X151893500Y-110688952D01*
X151941119Y-110736571D01*
X151988738Y-110831809D01*
X151988738Y-111069904D01*
X151941119Y-111165142D01*
X151893500Y-111212761D01*
X151798261Y-111260380D01*
X151512547Y-111260380D01*
X151417309Y-111212761D01*
X151369690Y-111165142D01*
X153464928Y-111641333D02*
X153417309Y-111593714D01*
X153322071Y-111450857D01*
X153274452Y-111355619D01*
X153226833Y-111212761D01*
X153179214Y-110974666D01*
X153179214Y-110784190D01*
X153226833Y-110546095D01*
X153274452Y-110403238D01*
X153322071Y-110308000D01*
X153417309Y-110165142D01*
X153464928Y-110117523D01*
X154369690Y-111260380D02*
X153798261Y-111260380D01*
X154083976Y-111260380D02*
X154083976Y-110260380D01*
X153988738Y-110403238D01*
X153893500Y-110498476D01*
X153798261Y-110546095D01*
X154798261Y-110879428D02*
X155560166Y-110879428D01*
X155988738Y-110355619D02*
X156036357Y-110308000D01*
X156131595Y-110260380D01*
X156369690Y-110260380D01*
X156464928Y-110308000D01*
X156512547Y-110355619D01*
X156560166Y-110450857D01*
X156560166Y-110546095D01*
X156512547Y-110688952D01*
X155941119Y-111260380D01*
X156560166Y-111260380D01*
X156893500Y-111641333D02*
X156941119Y-111593714D01*
X157036357Y-111450857D01*
X157083976Y-111355619D01*
X157131595Y-111212761D01*
X157179214Y-110974666D01*
X157179214Y-110784190D01*
X157131595Y-110546095D01*
X157083976Y-110403238D01*
X157036357Y-110308000D01*
X156941119Y-110165142D01*
X156893500Y-110117523D01*
X146560166Y-112243714D02*
X146560166Y-112910380D01*
X146322071Y-111862761D02*
X146083976Y-112577047D01*
X146703023Y-112577047D01*
X147226833Y-112338952D02*
X147131595Y-112291333D01*
X147083976Y-112243714D01*
X147036357Y-112148476D01*
X147036357Y-112100857D01*
X147083976Y-112005619D01*
X147131595Y-111958000D01*
X147226833Y-111910380D01*
X147417309Y-111910380D01*
X147512547Y-111958000D01*
X147560166Y-112005619D01*
X147607785Y-112100857D01*
X147607785Y-112148476D01*
X147560166Y-112243714D01*
X147512547Y-112291333D01*
X147417309Y-112338952D01*
X147226833Y-112338952D01*
X147131595Y-112386571D01*
X147083976Y-112434190D01*
X147036357Y-112529428D01*
X147036357Y-112719904D01*
X147083976Y-112815142D01*
X147131595Y-112862761D01*
X147226833Y-112910380D01*
X147417309Y-112910380D01*
X147512547Y-112862761D01*
X147560166Y-112815142D01*
X147607785Y-112719904D01*
X147607785Y-112529428D01*
X147560166Y-112434190D01*
X147512547Y-112386571D01*
X147417309Y-112338952D01*
X148036357Y-112910380D02*
X148036357Y-111910380D01*
X148607785Y-112910380D02*
X148179214Y-112338952D01*
X148607785Y-111910380D02*
X148036357Y-112481809D01*
X149750642Y-111862761D02*
X148893500Y-113148476D01*
X150607785Y-112910380D02*
X150036357Y-112910380D01*
X150322071Y-112910380D02*
X150322071Y-111910380D01*
X150226833Y-112053238D01*
X150131595Y-112148476D01*
X150036357Y-112196095D01*
X150988738Y-112005619D02*
X151036357Y-111958000D01*
X151131595Y-111910380D01*
X151369690Y-111910380D01*
X151464928Y-111958000D01*
X151512547Y-112005619D01*
X151560166Y-112100857D01*
X151560166Y-112196095D01*
X151512547Y-112338952D01*
X150941119Y-112910380D01*
X151560166Y-112910380D01*
X152131595Y-112338952D02*
X152036357Y-112291333D01*
X151988738Y-112243714D01*
X151941119Y-112148476D01*
X151941119Y-112100857D01*
X151988738Y-112005619D01*
X152036357Y-111958000D01*
X152131595Y-111910380D01*
X152322071Y-111910380D01*
X152417309Y-111958000D01*
X152464928Y-112005619D01*
X152512547Y-112100857D01*
X152512547Y-112148476D01*
X152464928Y-112243714D01*
X152417309Y-112291333D01*
X152322071Y-112338952D01*
X152131595Y-112338952D01*
X152036357Y-112386571D01*
X151988738Y-112434190D01*
X151941119Y-112529428D01*
X151941119Y-112719904D01*
X151988738Y-112815142D01*
X152036357Y-112862761D01*
X152131595Y-112910380D01*
X152322071Y-112910380D01*
X152417309Y-112862761D01*
X152464928Y-112815142D01*
X152512547Y-112719904D01*
X152512547Y-112529428D01*
X152464928Y-112434190D01*
X152417309Y-112386571D01*
X152322071Y-112338952D01*
X152941119Y-112910380D02*
X152941119Y-111910380D01*
X153512547Y-112910380D02*
X153083976Y-112338952D01*
X153512547Y-111910380D02*
X152941119Y-112481809D01*
X154988738Y-113291333D02*
X154941119Y-113243714D01*
X154845880Y-113100857D01*
X154798261Y-113005619D01*
X154750642Y-112862761D01*
X154703023Y-112624666D01*
X154703023Y-112434190D01*
X154750642Y-112196095D01*
X154798261Y-112053238D01*
X154845880Y-111958000D01*
X154941119Y-111815142D01*
X154988738Y-111767523D01*
X155322071Y-112005619D02*
X155369690Y-111958000D01*
X155464928Y-111910380D01*
X155703023Y-111910380D01*
X155798261Y-111958000D01*
X155845880Y-112005619D01*
X155893500Y-112100857D01*
X155893500Y-112196095D01*
X155845880Y-112338952D01*
X155274452Y-112910380D01*
X155893500Y-112910380D01*
X156322071Y-112529428D02*
X157083976Y-112529428D01*
X157464928Y-111910380D02*
X158083976Y-111910380D01*
X157750642Y-112291333D01*
X157893500Y-112291333D01*
X157988738Y-112338952D01*
X158036357Y-112386571D01*
X158083976Y-112481809D01*
X158083976Y-112719904D01*
X158036357Y-112815142D01*
X157988738Y-112862761D01*
X157893500Y-112910380D01*
X157607785Y-112910380D01*
X157512547Y-112862761D01*
X157464928Y-112815142D01*
X158417309Y-113291333D02*
X158464928Y-113243714D01*
X158560166Y-113100857D01*
X158607785Y-113005619D01*
X158655404Y-112862761D01*
X158703023Y-112624666D01*
X158703023Y-112434190D01*
X158655404Y-112196095D01*
X158607785Y-112053238D01*
X158560166Y-111958000D01*
X158464928Y-111815142D01*
X158417309Y-111767523D01*
D11*
X155622666Y-89114380D02*
X156241714Y-89114380D01*
X155908380Y-89495333D01*
X156051238Y-89495333D01*
X156146476Y-89542952D01*
X156194095Y-89590571D01*
X156241714Y-89685809D01*
X156241714Y-89923904D01*
X156194095Y-90019142D01*
X156146476Y-90066761D01*
X156051238Y-90114380D01*
X155765523Y-90114380D01*
X155670285Y-90066761D01*
X155622666Y-90019142D01*
X155670285Y-91241619D02*
X155717904Y-91194000D01*
X155813142Y-91146380D01*
X156051238Y-91146380D01*
X156146476Y-91194000D01*
X156194095Y-91241619D01*
X156241714Y-91336857D01*
X156241714Y-91432095D01*
X156194095Y-91574952D01*
X155622666Y-92146380D01*
X156241714Y-92146380D01*
X156241714Y-94178380D02*
X155670285Y-94178380D01*
X155956000Y-94178380D02*
X155956000Y-93178380D01*
X155860761Y-93321238D01*
X155765523Y-93416476D01*
X155670285Y-93464095D01*
D12*
X151892000Y-37338000D02*
X153162000Y-37338000D01*
X151892000Y-38608000D02*
X151892000Y-37338000D01*
X154204929Y-46608000D02*
X154602000Y-46608000D01*
X154204929Y-45848000D02*
X154602000Y-45848000D01*
X163262000Y-46608000D02*
X157262000Y-46608000D01*
X163262000Y-45848000D02*
X163262000Y-46608000D01*
X157262000Y-45848000D02*
X163262000Y-45848000D01*
X154602000Y-44958000D02*
X157262000Y-44958000D01*
X154204929Y-44068000D02*
X154602000Y-44068000D01*
X154204929Y-43308000D02*
X154602000Y-43308000D01*
X163262000Y-44068000D02*
X157262000Y-44068000D01*
X163262000Y-43308000D02*
X163262000Y-44068000D01*
X157262000Y-43308000D02*
X163262000Y-43308000D01*
X154602000Y-42418000D02*
X157262000Y-42418000D01*
X154204929Y-41528000D02*
X154602000Y-41528000D01*
X154204929Y-40768000D02*
X154602000Y-40768000D01*
X163262000Y-41528000D02*
X157262000Y-41528000D01*
X163262000Y-40768000D02*
X163262000Y-41528000D01*
X157262000Y-40768000D02*
X163262000Y-40768000D01*
X154602000Y-39878000D02*
X157262000Y-39878000D01*
X154272000Y-38988000D02*
X154602000Y-38988000D01*
X154272000Y-38228000D02*
X154602000Y-38228000D01*
X157262000Y-38888000D02*
X163262000Y-38888000D01*
X157262000Y-38768000D02*
X163262000Y-38768000D01*
X157262000Y-38648000D02*
X163262000Y-38648000D01*
X157262000Y-38528000D02*
X163262000Y-38528000D01*
X157262000Y-38408000D02*
X163262000Y-38408000D01*
X157262000Y-38288000D02*
X163262000Y-38288000D01*
X163262000Y-38988000D02*
X157262000Y-38988000D01*
X163262000Y-38228000D02*
X163262000Y-38988000D01*
X157262000Y-38228000D02*
X163262000Y-38228000D01*
X157262000Y-37278000D02*
X154602000Y-37278000D01*
X157262000Y-47558000D02*
X157262000Y-37278000D01*
X154602000Y-47558000D02*
X157262000Y-47558000D01*
X154602000Y-37278000D02*
X154602000Y-47558000D01*
X95845563Y-106910000D02*
X96910000Y-105845563D01*
X91154437Y-106910000D02*
X90090000Y-105845563D01*
X91154437Y-106910000D02*
X92440000Y-106910000D01*
X95845563Y-106910000D02*
X94560000Y-106910000D01*
X96910000Y-105845563D02*
X96910000Y-100090000D01*
X90090000Y-105845563D02*
X90090000Y-100090000D01*
X90090000Y-100090000D02*
X92440000Y-100090000D01*
X96910000Y-100090000D02*
X94560000Y-100090000D01*
X81654437Y-100090000D02*
X80590000Y-101154437D01*
X86345563Y-100090000D02*
X87410000Y-101154437D01*
X86345563Y-100090000D02*
X85060000Y-100090000D01*
X81654437Y-100090000D02*
X82940000Y-100090000D01*
X80590000Y-101154437D02*
X80590000Y-106910000D01*
X87410000Y-101154437D02*
X87410000Y-106910000D01*
X87410000Y-106910000D02*
X85060000Y-106910000D01*
X80590000Y-106910000D02*
X82940000Y-106910000D01*
X156857000Y-36817000D02*
X158057000Y-36817000D01*
X156857000Y-35617000D02*
X156857000Y-36817000D01*
X161357000Y-27317000D02*
X161357000Y-28517000D01*
X157157000Y-27317000D02*
X161357000Y-27317000D01*
X157157000Y-28517000D02*
X157157000Y-27317000D01*
X161357000Y-36517000D02*
X161357000Y-35317000D01*
X157157000Y-36517000D02*
X161357000Y-36517000D01*
X157157000Y-35317000D02*
X157157000Y-36517000D01*
X125170000Y-58380000D02*
X125170000Y-63440000D01*
X125170000Y-63440000D02*
X160850000Y-63440000D01*
X160850000Y-63440000D02*
X160850000Y-51320000D01*
X160850000Y-51320000D02*
X125170000Y-51320000D01*
X125170000Y-51320000D02*
X125170000Y-56380000D01*
X125110000Y-66440000D02*
X160910000Y-66440000D01*
X160910000Y-66440000D02*
X160910000Y-48320000D01*
X160910000Y-48320000D02*
X125110000Y-48320000D01*
X125110000Y-48320000D02*
X125110000Y-66440000D01*
X125170000Y-56380000D02*
G75*
G02*
X125170000Y-58380000I0J-1000000D01*
G01*
D10*
X161558000Y-89726000D02*
X161558000Y-87426000D01*
X161558000Y-96026000D02*
X161558000Y-93826000D01*
X156958000Y-96026000D02*
X156958000Y-87426000D01*
D12*
X115800000Y-68294000D02*
X115470000Y-68294000D01*
X115470000Y-68294000D02*
X115470000Y-61754000D01*
X115470000Y-61754000D02*
X115800000Y-61754000D01*
X117880000Y-68294000D02*
X118210000Y-68294000D01*
X118210000Y-68294000D02*
X118210000Y-61754000D01*
X118210000Y-61754000D02*
X117880000Y-61754000D01*
X66530000Y-34055000D02*
X77010000Y-34055000D01*
X77010000Y-34055000D02*
X77010000Y-65025000D01*
X77010000Y-65025000D02*
X66530000Y-65025000D01*
X77904338Y-43750000D02*
X77904338Y-44250000D01*
X77904338Y-44250000D02*
X77471325Y-44000000D01*
X77471325Y-44000000D02*
X77904338Y-43750000D01*
X64136000Y-66390000D02*
X75056000Y-66390000D01*
X64136000Y-75690000D02*
X75056000Y-75690000D01*
X64136000Y-66390000D02*
X64136000Y-75690000D01*
X75056000Y-66390000D02*
X75056000Y-75690000D01*
X63896000Y-66150000D02*
X65279000Y-66150000D01*
X63896000Y-66150000D02*
X63896000Y-67533000D01*
X62276000Y-67690000D02*
X64136000Y-67690000D01*
X62276000Y-69310000D02*
X64136000Y-69310000D01*
X62276000Y-67690000D02*
X62276000Y-69310000D01*
X64136000Y-67690000D02*
X64136000Y-69310000D01*
X62276000Y-70230000D02*
X64136000Y-70230000D01*
X62276000Y-71850000D02*
X64136000Y-71850000D01*
X62276000Y-70230000D02*
X62276000Y-71850000D01*
X64136000Y-70230000D02*
X64136000Y-71850000D01*
X62276000Y-72770000D02*
X64136000Y-72770000D01*
X62276000Y-74390000D02*
X64136000Y-74390000D01*
X62276000Y-72770000D02*
X62276000Y-74390000D01*
X64136000Y-72770000D02*
X64136000Y-74390000D01*
X102394000Y-49252000D02*
X102394000Y-48922000D01*
X102394000Y-48922000D02*
X108934000Y-48922000D01*
X108934000Y-48922000D02*
X108934000Y-49252000D01*
X102394000Y-51332000D02*
X102394000Y-51662000D01*
X102394000Y-51662000D02*
X108934000Y-51662000D01*
X108934000Y-51662000D02*
X108934000Y-51332000D01*
X114432000Y-92690000D02*
X114432000Y-93940000D01*
X114432000Y-93940000D02*
X132332000Y-93940000D01*
X132332000Y-93940000D02*
X132332000Y-89440000D01*
X132332000Y-89440000D02*
X114432000Y-89440000D01*
X114432000Y-89440000D02*
X114432000Y-90690000D01*
X114372000Y-96940000D02*
X132392000Y-96940000D01*
X132392000Y-96940000D02*
X132392000Y-86440000D01*
X132392000Y-86440000D02*
X114372000Y-86440000D01*
X114372000Y-86440000D02*
X114372000Y-96940000D01*
X114432000Y-90690000D02*
G75*
G02*
X114432000Y-92690000I0J-1000000D01*
G01*
X106830000Y-91310000D02*
X106830000Y-90060000D01*
X106830000Y-90060000D02*
X76230000Y-90060000D01*
X76230000Y-90060000D02*
X76230000Y-94560000D01*
X76230000Y-94560000D02*
X106830000Y-94560000D01*
X106830000Y-94560000D02*
X106830000Y-93310000D01*
X106890000Y-87060000D02*
X76170000Y-87060000D01*
X76170000Y-87060000D02*
X76170000Y-97560000D01*
X76170000Y-97560000D02*
X106890000Y-97560000D01*
X106890000Y-97560000D02*
X106890000Y-87060000D01*
X106830000Y-93310000D02*
G75*
G02*
X106830000Y-91310000I0J1000000D01*
G01*
X92670000Y-43190000D02*
X92670000Y-44440000D01*
X92670000Y-44440000D02*
X110570000Y-44440000D01*
X110570000Y-44440000D02*
X110570000Y-39940000D01*
X110570000Y-39940000D02*
X92670000Y-39940000D01*
X92670000Y-39940000D02*
X92670000Y-41190000D01*
X92610000Y-47440000D02*
X110630000Y-47440000D01*
X110630000Y-47440000D02*
X110630000Y-36940000D01*
X110630000Y-36940000D02*
X92610000Y-36940000D01*
X92610000Y-36940000D02*
X92610000Y-47440000D01*
X92670000Y-41190000D02*
G75*
G02*
X92670000Y-43190000I0J-1000000D01*
G01*
X68850000Y-82871000D02*
X67600000Y-82871000D01*
X67600000Y-82871000D02*
X67600000Y-100771000D01*
X67600000Y-100771000D02*
X72100000Y-100771000D01*
X72100000Y-100771000D02*
X72100000Y-82871000D01*
X72100000Y-82871000D02*
X70850000Y-82871000D01*
X64600000Y-82811000D02*
X64600000Y-100831000D01*
X64600000Y-100831000D02*
X75100000Y-100831000D01*
X75100000Y-100831000D02*
X75100000Y-82811000D01*
X75100000Y-82811000D02*
X64600000Y-82811000D01*
X70850000Y-82871000D02*
G75*
G02*
X68850000Y-82871000I-1000000J0D01*
G01*
X146336000Y-34012000D02*
X146336000Y-33682000D01*
X146336000Y-33682000D02*
X152876000Y-33682000D01*
X152876000Y-33682000D02*
X152876000Y-34012000D01*
X146336000Y-36092000D02*
X146336000Y-36422000D01*
X146336000Y-36422000D02*
X152876000Y-36422000D01*
X152876000Y-36422000D02*
X152876000Y-36092000D01*
X136670000Y-92690000D02*
X136670000Y-93940000D01*
X136670000Y-93940000D02*
X154570000Y-93940000D01*
X154570000Y-93940000D02*
X154570000Y-89440000D01*
X154570000Y-89440000D02*
X136670000Y-89440000D01*
X136670000Y-89440000D02*
X136670000Y-90690000D01*
X136610000Y-96940000D02*
X154630000Y-96940000D01*
X154630000Y-96940000D02*
X154630000Y-86440000D01*
X154630000Y-86440000D02*
X136610000Y-86440000D01*
X136610000Y-86440000D02*
X136610000Y-96940000D01*
X136670000Y-90690000D02*
G75*
G02*
X136670000Y-92690000I0J-1000000D01*
G01*
X101500000Y-79000000D02*
X101500000Y-74500000D01*
X97500000Y-80250000D02*
X99000000Y-80250000D01*
X95000000Y-74500000D02*
X95000000Y-79000000D01*
X99000000Y-73250000D02*
X97500000Y-73250000D01*
X83500000Y-79000000D02*
X83500000Y-74500000D01*
X79500000Y-80250000D02*
X81000000Y-80250000D01*
X77000000Y-74500000D02*
X77000000Y-79000000D01*
X81000000Y-73250000D02*
X79500000Y-73250000D01*
X122368000Y-43164000D02*
X122368000Y-44414000D01*
X122368000Y-44414000D02*
X147888000Y-44414000D01*
X147888000Y-44414000D02*
X147888000Y-39914000D01*
X147888000Y-39914000D02*
X122368000Y-39914000D01*
X122368000Y-39914000D02*
X122368000Y-41164000D01*
X122308000Y-47414000D02*
X147948000Y-47414000D01*
X147948000Y-47414000D02*
X147948000Y-36914000D01*
X147948000Y-36914000D02*
X122308000Y-36914000D01*
X122308000Y-36914000D02*
X122308000Y-47414000D01*
X122368000Y-41164000D02*
G75*
G02*
X122368000Y-43164000I0J-1000000D01*
G01*
X103170000Y-81190000D02*
X103170000Y-82440000D01*
X103170000Y-82440000D02*
X123610000Y-82440000D01*
X123610000Y-82440000D02*
X123610000Y-77940000D01*
X123610000Y-77940000D02*
X103170000Y-77940000D01*
X103170000Y-77940000D02*
X103170000Y-79190000D01*
X103110000Y-85440000D02*
X123670000Y-85440000D01*
X123670000Y-85440000D02*
X123670000Y-74940000D01*
X123670000Y-74940000D02*
X103110000Y-74940000D01*
X103110000Y-74940000D02*
X103110000Y-85440000D01*
X103170000Y-79190000D02*
G75*
G02*
X103170000Y-81190000I0J-1000000D01*
G01*
X122670000Y-105190000D02*
X122670000Y-106440000D01*
X122670000Y-106440000D02*
X153270000Y-106440000D01*
X153270000Y-106440000D02*
X153270000Y-101940000D01*
X153270000Y-101940000D02*
X122670000Y-101940000D01*
X122670000Y-101940000D02*
X122670000Y-103190000D01*
X122610000Y-109440000D02*
X153330000Y-109440000D01*
X153330000Y-109440000D02*
X153330000Y-98940000D01*
X153330000Y-98940000D02*
X122610000Y-98940000D01*
X122610000Y-98940000D02*
X122610000Y-109440000D01*
X122670000Y-103190000D02*
G75*
G02*
X122670000Y-105190000I0J-1000000D01*
G01*
X125170000Y-77380000D02*
X125170000Y-82440000D01*
X125170000Y-82440000D02*
X160850000Y-82440000D01*
X160850000Y-82440000D02*
X160850000Y-70320000D01*
X160850000Y-70320000D02*
X125170000Y-70320000D01*
X125170000Y-70320000D02*
X125170000Y-75380000D01*
X125110000Y-85440000D02*
X160910000Y-85440000D01*
X160910000Y-85440000D02*
X160910000Y-67320000D01*
X160910000Y-67320000D02*
X125110000Y-67320000D01*
X125110000Y-67320000D02*
X125110000Y-85440000D01*
X125170000Y-75380000D02*
G75*
G02*
X125170000Y-77380000I0J-1000000D01*
G01*
X78934000Y-62468000D02*
X78934000Y-67528000D01*
X78934000Y-67528000D02*
X114614000Y-67528000D01*
X114614000Y-67528000D02*
X114614000Y-55408000D01*
X114614000Y-55408000D02*
X78934000Y-55408000D01*
X78934000Y-55408000D02*
X78934000Y-60468000D01*
X78874000Y-70528000D02*
X114674000Y-70528000D01*
X114674000Y-70528000D02*
X114674000Y-52408000D01*
X114674000Y-52408000D02*
X78874000Y-52408000D01*
X78874000Y-52408000D02*
X78874000Y-70528000D01*
X78934000Y-60468000D02*
G75*
G02*
X78934000Y-62468000I0J-1000000D01*
G01*
X118975000Y-68294000D02*
X118645000Y-68294000D01*
X118645000Y-68294000D02*
X118645000Y-61754000D01*
X118645000Y-61754000D02*
X118975000Y-61754000D01*
X121055000Y-68294000D02*
X121385000Y-68294000D01*
X121385000Y-68294000D02*
X121385000Y-61754000D01*
X121385000Y-61754000D02*
X121055000Y-61754000D01*
X80296000Y-42775000D02*
X80296000Y-42445000D01*
X80296000Y-42445000D02*
X86836000Y-42445000D01*
X86836000Y-42445000D02*
X86836000Y-42775000D01*
X80296000Y-44855000D02*
X80296000Y-45185000D01*
X80296000Y-45185000D02*
X86836000Y-45185000D01*
X86836000Y-45185000D02*
X86836000Y-44855000D01*
X106712000Y-105640000D02*
X106712000Y-105310000D01*
X106712000Y-105310000D02*
X113252000Y-105310000D01*
X113252000Y-105310000D02*
X113252000Y-105640000D01*
X106712000Y-107720000D02*
X106712000Y-108050000D01*
X106712000Y-108050000D02*
X113252000Y-108050000D01*
X113252000Y-108050000D02*
X113252000Y-107720000D01*
X106712000Y-108942000D02*
X106712000Y-108612000D01*
X106712000Y-108612000D02*
X113252000Y-108612000D01*
X113252000Y-108612000D02*
X113252000Y-108942000D01*
X106712000Y-111022000D02*
X106712000Y-111352000D01*
X106712000Y-111352000D02*
X113252000Y-111352000D01*
X113252000Y-111352000D02*
X113252000Y-111022000D01*
X113252000Y-114324000D02*
X113252000Y-114654000D01*
X113252000Y-114654000D02*
X106712000Y-114654000D01*
X106712000Y-114654000D02*
X106712000Y-114324000D01*
X113252000Y-112244000D02*
X113252000Y-111914000D01*
X113252000Y-111914000D02*
X106712000Y-111914000D01*
X106712000Y-111914000D02*
X106712000Y-112244000D01*
X80296000Y-45950000D02*
X80296000Y-45620000D01*
X80296000Y-45620000D02*
X86836000Y-45620000D01*
X86836000Y-45620000D02*
X86836000Y-45950000D01*
X80296000Y-48030000D02*
X80296000Y-48360000D01*
X80296000Y-48360000D02*
X86836000Y-48360000D01*
X86836000Y-48360000D02*
X86836000Y-48030000D01*
X112554000Y-49252000D02*
X112554000Y-48922000D01*
X112554000Y-48922000D02*
X119094000Y-48922000D01*
X119094000Y-48922000D02*
X119094000Y-49252000D01*
X112554000Y-51332000D02*
X112554000Y-51662000D01*
X112554000Y-51662000D02*
X119094000Y-51662000D01*
X119094000Y-51662000D02*
X119094000Y-51332000D01*
X92234000Y-49252000D02*
X92234000Y-48922000D01*
X92234000Y-48922000D02*
X98774000Y-48922000D01*
X98774000Y-48922000D02*
X98774000Y-49252000D01*
X92234000Y-51332000D02*
X92234000Y-51662000D01*
X92234000Y-51662000D02*
X98774000Y-51662000D01*
X98774000Y-51662000D02*
X98774000Y-51332000D01*
X80296000Y-49252000D02*
X80296000Y-48922000D01*
X80296000Y-48922000D02*
X86836000Y-48922000D01*
X86836000Y-48922000D02*
X86836000Y-49252000D01*
X80296000Y-51332000D02*
X80296000Y-51662000D01*
X80296000Y-51662000D02*
X86836000Y-51662000D01*
X86836000Y-51662000D02*
X86836000Y-51332000D01*
X154492000Y-32330000D02*
X154492000Y-27130000D01*
X123952000Y-32330000D02*
X154492000Y-32330000D01*
X121352000Y-27130000D02*
X154492000Y-27130000D01*
X123952000Y-32330000D02*
X123952000Y-29730000D01*
X123952000Y-29730000D02*
X121352000Y-29730000D01*
X121352000Y-29730000D02*
X121352000Y-27130000D01*
X122682000Y-32330000D02*
X121352000Y-32330000D01*
X121352000Y-32330000D02*
X121352000Y-31000000D01*
X121566000Y-54857000D02*
X121566000Y-49617000D01*
X124306000Y-54857000D02*
X124306000Y-49617000D01*
X121566000Y-54857000D02*
X121881000Y-54857000D01*
X123991000Y-54857000D02*
X124306000Y-54857000D01*
X121566000Y-49617000D02*
X121881000Y-49617000D01*
X123991000Y-49617000D02*
X124306000Y-49617000D01*
X110336000Y-91447000D02*
X110336000Y-96687000D01*
X107596000Y-91447000D02*
X107596000Y-96687000D01*
X110336000Y-91447000D02*
X110021000Y-91447000D01*
X107911000Y-91447000D02*
X107596000Y-91447000D01*
X110336000Y-96687000D02*
X110021000Y-96687000D01*
X107911000Y-96687000D02*
X107596000Y-96687000D01*
X133123000Y-92957000D02*
X133123000Y-87717000D01*
X135863000Y-92957000D02*
X135863000Y-87717000D01*
X133123000Y-92957000D02*
X133438000Y-92957000D01*
X135548000Y-92957000D02*
X135863000Y-92957000D01*
X133123000Y-87717000D02*
X133438000Y-87717000D01*
X135548000Y-87717000D02*
X135863000Y-87717000D01*
X110898000Y-92957000D02*
X110898000Y-87717000D01*
X113638000Y-92957000D02*
X113638000Y-87717000D01*
X110898000Y-92957000D02*
X111213000Y-92957000D01*
X113323000Y-92957000D02*
X113638000Y-92957000D01*
X110898000Y-87717000D02*
X111213000Y-87717000D01*
X113323000Y-87717000D02*
X113638000Y-87717000D01*
X109594000Y-74268000D02*
X104354000Y-74268000D01*
X109594000Y-71528000D02*
X104354000Y-71528000D01*
X109594000Y-74268000D02*
X109594000Y-73953000D01*
X109594000Y-71843000D02*
X109594000Y-71528000D01*
X104354000Y-74268000D02*
X104354000Y-73953000D01*
X104354000Y-71843000D02*
X104354000Y-71528000D01*
X128898000Y-36295000D02*
X123658000Y-36295000D01*
X128898000Y-33555000D02*
X123658000Y-33555000D01*
X128898000Y-36295000D02*
X128898000Y-35980000D01*
X128898000Y-33870000D02*
X128898000Y-33555000D01*
X123658000Y-36295000D02*
X123658000Y-35980000D01*
X123658000Y-33870000D02*
X123658000Y-33555000D01*
X68968000Y-79275000D02*
X74208000Y-79275000D01*
X68968000Y-82015000D02*
X74208000Y-82015000D01*
X68968000Y-79275000D02*
X68968000Y-79590000D01*
X68968000Y-81700000D02*
X68968000Y-82015000D01*
X74208000Y-79275000D02*
X74208000Y-79590000D01*
X74208000Y-81700000D02*
X74208000Y-82015000D01*
X99053000Y-36168000D02*
X93813000Y-36168000D01*
X99053000Y-33428000D02*
X93813000Y-33428000D01*
X99053000Y-36168000D02*
X99053000Y-35853000D01*
X99053000Y-33743000D02*
X99053000Y-33428000D01*
X93813000Y-36168000D02*
X93813000Y-35853000D01*
X93813000Y-33743000D02*
X93813000Y-33428000D01*
X119153000Y-105530000D02*
X119153000Y-100290000D01*
X121893000Y-105530000D02*
X121893000Y-100290000D01*
X119153000Y-105530000D02*
X119468000Y-105530000D01*
X121578000Y-105530000D02*
X121893000Y-105530000D01*
X119153000Y-100290000D02*
X119468000Y-100290000D01*
X121578000Y-100290000D02*
X121893000Y-100290000D01*
X121820000Y-72764000D02*
X121820000Y-67524000D01*
X124560000Y-72764000D02*
X124560000Y-67524000D01*
X121820000Y-72764000D02*
X122135000Y-72764000D01*
X124245000Y-72764000D02*
X124560000Y-72764000D01*
X121820000Y-67524000D02*
X122135000Y-67524000D01*
X124245000Y-67524000D02*
X124560000Y-67524000D01*
X115470000Y-58921000D02*
X115470000Y-53681000D01*
X118210000Y-58921000D02*
X118210000Y-53681000D01*
X115470000Y-58921000D02*
X115785000Y-58921000D01*
X117895000Y-58921000D02*
X118210000Y-58921000D01*
X115470000Y-53681000D02*
X115785000Y-53681000D01*
X117895000Y-53681000D02*
X118210000Y-53681000D01*
X107576000Y-98198000D02*
X112816000Y-98198000D01*
X107576000Y-100938000D02*
X112816000Y-100938000D01*
X107576000Y-98198000D02*
X107576000Y-98513000D01*
X107576000Y-100623000D02*
X107576000Y-100938000D01*
X112816000Y-98198000D02*
X112816000Y-98513000D01*
X112816000Y-100623000D02*
X112816000Y-100938000D01*
X67670000Y-32330000D02*
X67670000Y-31000000D01*
X69000000Y-32330000D02*
X67670000Y-32330000D01*
X67670000Y-29730000D02*
X67670000Y-27130000D01*
X70270000Y-29730000D02*
X67670000Y-29730000D01*
X70270000Y-32330000D02*
X70270000Y-29730000D01*
X67670000Y-27130000D02*
X110970000Y-27130000D01*
X70270000Y-32330000D02*
X110970000Y-32330000D01*
X110970000Y-32330000D02*
X110970000Y-27130000D01*
X120270000Y-37000000D02*
G75*
G03*
X120270000Y-37000000I-2500000J0D01*
G01*
X115210000Y-35455000D02*
X115210000Y-38545000D01*
X120760000Y-36999538D02*
G75*
G02*
X115210000Y-38544830I-2990000J-462D01*
G01*
X120760000Y-37000462D02*
G75*
G03*
X115210000Y-35455170I-2990000J462D01*
G01*
X120750000Y-113940000D02*
X120750000Y-116060000D01*
X120750000Y-116060000D02*
X124870000Y-116060000D01*
X124870000Y-116060000D02*
X124870000Y-113940000D01*
X124870000Y-113940000D02*
X120750000Y-113940000D01*
X119980000Y-115000000D02*
X120750000Y-115000000D01*
X125640000Y-115000000D02*
X124870000Y-115000000D01*
X121410000Y-113940000D02*
X121410000Y-116060000D01*
X137750000Y-116060000D02*
X137750000Y-113940000D01*
X137750000Y-113940000D02*
X133630000Y-113940000D01*
X133630000Y-113940000D02*
X133630000Y-116060000D01*
X133630000Y-116060000D02*
X137750000Y-116060000D01*
X138520000Y-115000000D02*
X137750000Y-115000000D01*
X132860000Y-115000000D02*
X133630000Y-115000000D01*
X137090000Y-116060000D02*
X137090000Y-113940000D01*
X149590000Y-116060000D02*
X149590000Y-113940000D01*
X145360000Y-115000000D02*
X146130000Y-115000000D01*
X151020000Y-115000000D02*
X150250000Y-115000000D01*
X146130000Y-116060000D02*
X150250000Y-116060000D01*
X146130000Y-113940000D02*
X146130000Y-116060000D01*
X150250000Y-113940000D02*
X146130000Y-113940000D01*
X150250000Y-116060000D02*
X150250000Y-113940000D01*
X85270000Y-37000000D02*
G75*
G03*
X85270000Y-37000000I-2500000J0D01*
G01*
X80210000Y-35455000D02*
X80210000Y-38545000D01*
X85760000Y-36999538D02*
G75*
G02*
X80210000Y-38544830I-2990000J-462D01*
G01*
X85760000Y-37000462D02*
G75*
G03*
X80210000Y-35455170I-2990000J462D01*
G01*
X107636000Y-101814000D02*
X112756000Y-101814000D01*
X107636000Y-104434000D02*
X112756000Y-104434000D01*
X107636000Y-101814000D02*
X107636000Y-102128000D01*
X107636000Y-104120000D02*
X107636000Y-104434000D01*
X112756000Y-101814000D02*
X112756000Y-102128000D01*
X112756000Y-104120000D02*
X112756000Y-104434000D01*
X97349000Y-111847000D02*
X102469000Y-111847000D01*
X97349000Y-114467000D02*
X102469000Y-114467000D01*
X97349000Y-111847000D02*
X97349000Y-112161000D01*
X97349000Y-114153000D02*
X97349000Y-114467000D01*
X102469000Y-111847000D02*
X102469000Y-112161000D01*
X102469000Y-114153000D02*
X102469000Y-114467000D01*
X97975000Y-101325000D02*
X97975000Y-107575000D01*
X103025000Y-101325000D02*
X103025000Y-107575000D01*
X97975000Y-101325000D02*
G75*
G02*
X103025000Y-101325000I2525000J0D01*
G01*
X97975000Y-107575000D02*
G75*
G03*
X103025000Y-107575000I2525000J0D01*
G01*
D10*
X158034666Y-44358380D02*
X158034666Y-45072666D01*
X157987047Y-45215523D01*
X157891809Y-45310761D01*
X157748952Y-45358380D01*
X157653714Y-45358380D01*
X158510857Y-45358380D02*
X158510857Y-44358380D01*
X158891809Y-44358380D01*
X158987047Y-44406000D01*
X159034666Y-44453619D01*
X159082285Y-44548857D01*
X159082285Y-44691714D01*
X159034666Y-44786952D01*
X158987047Y-44834571D01*
X158891809Y-44882190D01*
X158510857Y-44882190D01*
X159939428Y-44691714D02*
X159939428Y-45358380D01*
X159701333Y-44310761D02*
X159463238Y-45025047D01*
X160082285Y-45025047D01*
X90695333Y-108188142D02*
X90647714Y-108235761D01*
X90504857Y-108283380D01*
X90409619Y-108283380D01*
X90266761Y-108235761D01*
X90171523Y-108140523D01*
X90123904Y-108045285D01*
X90076285Y-107854809D01*
X90076285Y-107711952D01*
X90123904Y-107521476D01*
X90171523Y-107426238D01*
X90266761Y-107331000D01*
X90409619Y-107283380D01*
X90504857Y-107283380D01*
X90647714Y-107331000D01*
X90695333Y-107378619D01*
X91647714Y-108283380D02*
X91076285Y-108283380D01*
X91362000Y-108283380D02*
X91362000Y-107283380D01*
X91266761Y-107426238D01*
X91171523Y-107521476D01*
X91076285Y-107569095D01*
X89536380Y-106476190D02*
X89536380Y-107047619D01*
X89536380Y-106761904D02*
X88536380Y-106761904D01*
X88679238Y-106857142D01*
X88774476Y-106952380D01*
X88822095Y-107047619D01*
X88536380Y-105857142D02*
X88536380Y-105761904D01*
X88584000Y-105666666D01*
X88631619Y-105619047D01*
X88726857Y-105571428D01*
X88917333Y-105523809D01*
X89155428Y-105523809D01*
X89345904Y-105571428D01*
X89441142Y-105619047D01*
X89488761Y-105666666D01*
X89536380Y-105761904D01*
X89536380Y-105857142D01*
X89488761Y-105952380D01*
X89441142Y-106000000D01*
X89345904Y-106047619D01*
X89155428Y-106095238D01*
X88917333Y-106095238D01*
X88726857Y-106047619D01*
X88631619Y-106000000D01*
X88584000Y-105952380D01*
X88536380Y-105857142D01*
X88536380Y-104904761D02*
X88536380Y-104809523D01*
X88584000Y-104714285D01*
X88631619Y-104666666D01*
X88726857Y-104619047D01*
X88917333Y-104571428D01*
X89155428Y-104571428D01*
X89345904Y-104619047D01*
X89441142Y-104666666D01*
X89488761Y-104714285D01*
X89536380Y-104809523D01*
X89536380Y-104904761D01*
X89488761Y-105000000D01*
X89441142Y-105047619D01*
X89345904Y-105095238D01*
X89155428Y-105142857D01*
X88917333Y-105142857D01*
X88726857Y-105095238D01*
X88631619Y-105047619D01*
X88584000Y-105000000D01*
X88536380Y-104904761D01*
X88869714Y-103714285D02*
X89536380Y-103714285D01*
X88869714Y-104142857D02*
X89393523Y-104142857D01*
X89488761Y-104095238D01*
X89536380Y-104000000D01*
X89536380Y-103857142D01*
X89488761Y-103761904D01*
X89441142Y-103714285D01*
X88488761Y-102523809D02*
X89774476Y-103380952D01*
X89536380Y-101666666D02*
X89536380Y-102238095D01*
X89536380Y-101952380D02*
X88536380Y-101952380D01*
X88679238Y-102047619D01*
X88774476Y-102142857D01*
X88822095Y-102238095D01*
X88536380Y-100809523D02*
X88536380Y-101000000D01*
X88584000Y-101095238D01*
X88631619Y-101142857D01*
X88774476Y-101238095D01*
X88964952Y-101285714D01*
X89345904Y-101285714D01*
X89441142Y-101238095D01*
X89488761Y-101190476D01*
X89536380Y-101095238D01*
X89536380Y-100904761D01*
X89488761Y-100809523D01*
X89441142Y-100761904D01*
X89345904Y-100714285D01*
X89107809Y-100714285D01*
X89012571Y-100761904D01*
X88964952Y-100809523D01*
X88917333Y-100904761D01*
X88917333Y-101095238D01*
X88964952Y-101190476D01*
X89012571Y-101238095D01*
X89107809Y-101285714D01*
X88869714Y-100380952D02*
X89536380Y-100142857D01*
X88869714Y-99904761D01*
X80817142Y-108175142D02*
X80769523Y-108222761D01*
X80626666Y-108270380D01*
X80531428Y-108270380D01*
X80388571Y-108222761D01*
X80293333Y-108127523D01*
X80245714Y-108032285D01*
X80198095Y-107841809D01*
X80198095Y-107698952D01*
X80245714Y-107508476D01*
X80293333Y-107413238D01*
X80388571Y-107318000D01*
X80531428Y-107270380D01*
X80626666Y-107270380D01*
X80769523Y-107318000D01*
X80817142Y-107365619D01*
X81769523Y-108270380D02*
X81198095Y-108270380D01*
X81483809Y-108270380D02*
X81483809Y-107270380D01*
X81388571Y-107413238D01*
X81293333Y-107508476D01*
X81198095Y-107556095D01*
X82674285Y-107270380D02*
X82198095Y-107270380D01*
X82150476Y-107746571D01*
X82198095Y-107698952D01*
X82293333Y-107651333D01*
X82531428Y-107651333D01*
X82626666Y-107698952D01*
X82674285Y-107746571D01*
X82721904Y-107841809D01*
X82721904Y-108079904D01*
X82674285Y-108175142D01*
X82626666Y-108222761D01*
X82531428Y-108270380D01*
X82293333Y-108270380D01*
X82198095Y-108222761D01*
X82150476Y-108175142D01*
X80102380Y-106476190D02*
X80102380Y-107047619D01*
X80102380Y-106761904D02*
X79102380Y-106761904D01*
X79245238Y-106857142D01*
X79340476Y-106952380D01*
X79388095Y-107047619D01*
X79102380Y-105857142D02*
X79102380Y-105761904D01*
X79150000Y-105666666D01*
X79197619Y-105619047D01*
X79292857Y-105571428D01*
X79483333Y-105523809D01*
X79721428Y-105523809D01*
X79911904Y-105571428D01*
X80007142Y-105619047D01*
X80054761Y-105666666D01*
X80102380Y-105761904D01*
X80102380Y-105857142D01*
X80054761Y-105952380D01*
X80007142Y-106000000D01*
X79911904Y-106047619D01*
X79721428Y-106095238D01*
X79483333Y-106095238D01*
X79292857Y-106047619D01*
X79197619Y-106000000D01*
X79150000Y-105952380D01*
X79102380Y-105857142D01*
X79102380Y-104904761D02*
X79102380Y-104809523D01*
X79150000Y-104714285D01*
X79197619Y-104666666D01*
X79292857Y-104619047D01*
X79483333Y-104571428D01*
X79721428Y-104571428D01*
X79911904Y-104619047D01*
X80007142Y-104666666D01*
X80054761Y-104714285D01*
X80102380Y-104809523D01*
X80102380Y-104904761D01*
X80054761Y-105000000D01*
X80007142Y-105047619D01*
X79911904Y-105095238D01*
X79721428Y-105142857D01*
X79483333Y-105142857D01*
X79292857Y-105095238D01*
X79197619Y-105047619D01*
X79150000Y-105000000D01*
X79102380Y-104904761D01*
X79435714Y-103714285D02*
X80102380Y-103714285D01*
X79435714Y-104142857D02*
X79959523Y-104142857D01*
X80054761Y-104095238D01*
X80102380Y-104000000D01*
X80102380Y-103857142D01*
X80054761Y-103761904D01*
X80007142Y-103714285D01*
X79054761Y-102523809D02*
X80340476Y-103380952D01*
X80102380Y-101666666D02*
X80102380Y-102238095D01*
X80102380Y-101952380D02*
X79102380Y-101952380D01*
X79245238Y-102047619D01*
X79340476Y-102142857D01*
X79388095Y-102238095D01*
X79102380Y-100809523D02*
X79102380Y-101000000D01*
X79150000Y-101095238D01*
X79197619Y-101142857D01*
X79340476Y-101238095D01*
X79530952Y-101285714D01*
X79911904Y-101285714D01*
X80007142Y-101238095D01*
X80054761Y-101190476D01*
X80102380Y-101095238D01*
X80102380Y-100904761D01*
X80054761Y-100809523D01*
X80007142Y-100761904D01*
X79911904Y-100714285D01*
X79673809Y-100714285D01*
X79578571Y-100761904D01*
X79530952Y-100809523D01*
X79483333Y-100904761D01*
X79483333Y-101095238D01*
X79530952Y-101190476D01*
X79578571Y-101238095D01*
X79673809Y-101285714D01*
X79435714Y-100380952D02*
X80102380Y-100142857D01*
X79435714Y-99904761D01*
X157924666Y-26947761D02*
X158067523Y-26995380D01*
X158305619Y-26995380D01*
X158400857Y-26947761D01*
X158448476Y-26900142D01*
X158496095Y-26804904D01*
X158496095Y-26709666D01*
X158448476Y-26614428D01*
X158400857Y-26566809D01*
X158305619Y-26519190D01*
X158115142Y-26471571D01*
X158019904Y-26423952D01*
X157972285Y-26376333D01*
X157924666Y-26281095D01*
X157924666Y-26185857D01*
X157972285Y-26090619D01*
X158019904Y-26043000D01*
X158115142Y-25995380D01*
X158353238Y-25995380D01*
X158496095Y-26043000D01*
X158829428Y-25995380D02*
X159067523Y-26995380D01*
X159258000Y-26281095D01*
X159448476Y-26995380D01*
X159686571Y-25995380D01*
X160543714Y-25995380D02*
X160067523Y-25995380D01*
X160019904Y-26471571D01*
X160067523Y-26423952D01*
X160162761Y-26376333D01*
X160400857Y-26376333D01*
X160496095Y-26423952D01*
X160543714Y-26471571D01*
X160591333Y-26566809D01*
X160591333Y-26804904D01*
X160543714Y-26900142D01*
X160496095Y-26947761D01*
X160400857Y-26995380D01*
X160162761Y-26995380D01*
X160067523Y-26947761D01*
X160019904Y-26900142D01*
X156122666Y-36464666D02*
X156122666Y-35988476D01*
X156408380Y-36559904D02*
X155408380Y-36226571D01*
X156408380Y-35893238D01*
X155884571Y-35226571D02*
X155932190Y-35083714D01*
X155979809Y-35036095D01*
X156075047Y-34988476D01*
X156217904Y-34988476D01*
X156313142Y-35036095D01*
X156360761Y-35083714D01*
X156408380Y-35178952D01*
X156408380Y-35559904D01*
X155408380Y-35559904D01*
X155408380Y-35226571D01*
X155456000Y-35131333D01*
X155503619Y-35083714D01*
X155598857Y-35036095D01*
X155694095Y-35036095D01*
X155789333Y-35083714D01*
X155836952Y-35131333D01*
X155884571Y-35226571D01*
X155884571Y-35559904D01*
X155884571Y-34226571D02*
X155932190Y-34083714D01*
X155979809Y-34036095D01*
X156075047Y-33988476D01*
X156217904Y-33988476D01*
X156313142Y-34036095D01*
X156360761Y-34083714D01*
X156408380Y-34178952D01*
X156408380Y-34559904D01*
X155408380Y-34559904D01*
X155408380Y-34226571D01*
X155456000Y-34131333D01*
X155503619Y-34083714D01*
X155598857Y-34036095D01*
X155694095Y-34036095D01*
X155789333Y-34083714D01*
X155836952Y-34131333D01*
X155884571Y-34226571D01*
X155884571Y-34559904D01*
X156122666Y-33607523D02*
X156122666Y-33131333D01*
X156408380Y-33702761D02*
X155408380Y-33369428D01*
X156408380Y-33036095D01*
X130262380Y-57911904D02*
X131071904Y-57911904D01*
X131167142Y-57864285D01*
X131214761Y-57816666D01*
X131262380Y-57721428D01*
X131262380Y-57530952D01*
X131214761Y-57435714D01*
X131167142Y-57388095D01*
X131071904Y-57340476D01*
X130262380Y-57340476D01*
X130357619Y-56911904D02*
X130310000Y-56864285D01*
X130262380Y-56769047D01*
X130262380Y-56530952D01*
X130310000Y-56435714D01*
X130357619Y-56388095D01*
X130452857Y-56340476D01*
X130548095Y-56340476D01*
X130690952Y-56388095D01*
X131262380Y-56959523D01*
X131262380Y-56340476D01*
X149773095Y-56856380D02*
X150011190Y-57856380D01*
X150201666Y-57142095D01*
X150392142Y-57856380D01*
X150630238Y-56856380D01*
X150963571Y-56951619D02*
X151011190Y-56904000D01*
X151106428Y-56856380D01*
X151344523Y-56856380D01*
X151439761Y-56904000D01*
X151487380Y-56951619D01*
X151535000Y-57046857D01*
X151535000Y-57142095D01*
X151487380Y-57284952D01*
X150915952Y-57856380D01*
X151535000Y-57856380D01*
X151868333Y-56856380D02*
X152535000Y-56856380D01*
X152106428Y-57856380D01*
X152915952Y-57332571D02*
X153249285Y-57332571D01*
X153392142Y-57856380D02*
X152915952Y-57856380D01*
X152915952Y-56856380D01*
X153392142Y-56856380D01*
X153773095Y-56951619D02*
X153820714Y-56904000D01*
X153915952Y-56856380D01*
X154154047Y-56856380D01*
X154249285Y-56904000D01*
X154296904Y-56951619D01*
X154344523Y-57046857D01*
X154344523Y-57142095D01*
X154296904Y-57284952D01*
X153725476Y-57856380D01*
X154344523Y-57856380D01*
X155249285Y-56856380D02*
X154773095Y-56856380D01*
X154725476Y-57332571D01*
X154773095Y-57284952D01*
X154868333Y-57237333D01*
X155106428Y-57237333D01*
X155201666Y-57284952D01*
X155249285Y-57332571D01*
X155296904Y-57427809D01*
X155296904Y-57665904D01*
X155249285Y-57761142D01*
X155201666Y-57808761D01*
X155106428Y-57856380D01*
X154868333Y-57856380D01*
X154773095Y-57808761D01*
X154725476Y-57761142D01*
X155630238Y-56856380D02*
X156296904Y-56856380D01*
X155868333Y-57856380D01*
X156734190Y-97750380D02*
X157400857Y-97750380D01*
X156734190Y-98750380D01*
X157400857Y-98750380D01*
X157686571Y-97750380D02*
X158353238Y-98750380D01*
X158353238Y-97750380D02*
X157686571Y-98750380D01*
X158496095Y-98845619D02*
X159258000Y-98845619D01*
X159448476Y-98702761D02*
X159591333Y-98750380D01*
X159829428Y-98750380D01*
X159924666Y-98702761D01*
X159972285Y-98655142D01*
X160019904Y-98559904D01*
X160019904Y-98464666D01*
X159972285Y-98369428D01*
X159924666Y-98321809D01*
X159829428Y-98274190D01*
X159638952Y-98226571D01*
X159543714Y-98178952D01*
X159496095Y-98131333D01*
X159448476Y-98036095D01*
X159448476Y-97940857D01*
X159496095Y-97845619D01*
X159543714Y-97798000D01*
X159638952Y-97750380D01*
X159877047Y-97750380D01*
X160019904Y-97798000D01*
X160448476Y-98226571D02*
X160781809Y-98226571D01*
X160924666Y-98750380D02*
X160448476Y-98750380D01*
X160448476Y-97750380D01*
X160924666Y-97750380D01*
X161829428Y-98750380D02*
X161353238Y-98750380D01*
X161353238Y-97750380D01*
X116197142Y-71064380D02*
X115863809Y-70588190D01*
X115625714Y-71064380D02*
X115625714Y-70064380D01*
X116006666Y-70064380D01*
X116101904Y-70112000D01*
X116149523Y-70159619D01*
X116197142Y-70254857D01*
X116197142Y-70397714D01*
X116149523Y-70492952D01*
X116101904Y-70540571D01*
X116006666Y-70588190D01*
X115625714Y-70588190D01*
X117149523Y-71064380D02*
X116578095Y-71064380D01*
X116863809Y-71064380D02*
X116863809Y-70064380D01*
X116768571Y-70207238D01*
X116673333Y-70302476D01*
X116578095Y-70350095D01*
X118101904Y-71064380D02*
X117530476Y-71064380D01*
X117816190Y-71064380D02*
X117816190Y-70064380D01*
X117720952Y-70207238D01*
X117625714Y-70302476D01*
X117530476Y-70350095D01*
X117292380Y-65460476D02*
X117292380Y-66031904D01*
X117292380Y-65746190D02*
X116292380Y-65746190D01*
X116435238Y-65841428D01*
X116530476Y-65936666D01*
X116578095Y-66031904D01*
X116292380Y-64841428D02*
X116292380Y-64746190D01*
X116340000Y-64650952D01*
X116387619Y-64603333D01*
X116482857Y-64555714D01*
X116673333Y-64508095D01*
X116911428Y-64508095D01*
X117101904Y-64555714D01*
X117197142Y-64603333D01*
X117244761Y-64650952D01*
X117292380Y-64746190D01*
X117292380Y-64841428D01*
X117244761Y-64936666D01*
X117197142Y-64984285D01*
X117101904Y-65031904D01*
X116911428Y-65079523D01*
X116673333Y-65079523D01*
X116482857Y-65031904D01*
X116387619Y-64984285D01*
X116340000Y-64936666D01*
X116292380Y-64841428D01*
X117292380Y-64079523D02*
X116292380Y-64079523D01*
X117292380Y-63508095D02*
X116720952Y-63936666D01*
X116292380Y-63508095D02*
X116863809Y-64079523D01*
X67512380Y-50117333D02*
X68226666Y-50117333D01*
X68369523Y-50164952D01*
X68464761Y-50260190D01*
X68512380Y-50403047D01*
X68512380Y-50498285D01*
X67845714Y-49212571D02*
X68512380Y-49212571D01*
X67464761Y-49450666D02*
X68179047Y-49688761D01*
X68179047Y-49069714D01*
X78811380Y-41536476D02*
X77811380Y-41536476D01*
X78811380Y-40965047D02*
X78239952Y-41393619D01*
X77811380Y-40965047D02*
X78382809Y-41536476D01*
X78287571Y-40536476D02*
X78287571Y-40203142D01*
X78811380Y-40060285D02*
X78811380Y-40536476D01*
X77811380Y-40536476D01*
X77811380Y-40060285D01*
X78811380Y-39631714D02*
X77811380Y-39631714D01*
X78525666Y-39298380D01*
X77811380Y-38965047D01*
X78811380Y-38965047D01*
X78811380Y-38488857D02*
X77811380Y-38488857D01*
X77811380Y-38107904D01*
X77859000Y-38012666D01*
X77906619Y-37965047D01*
X78001857Y-37917428D01*
X78144714Y-37917428D01*
X78239952Y-37965047D01*
X78287571Y-38012666D01*
X78335190Y-38107904D01*
X78335190Y-38488857D01*
X78763761Y-37536476D02*
X78811380Y-37393619D01*
X78811380Y-37155523D01*
X78763761Y-37060285D01*
X78716142Y-37012666D01*
X78620904Y-36965047D01*
X78525666Y-36965047D01*
X78430428Y-37012666D01*
X78382809Y-37060285D01*
X78335190Y-37155523D01*
X78287571Y-37346000D01*
X78239952Y-37441238D01*
X78192333Y-37488857D01*
X78097095Y-37536476D01*
X78001857Y-37536476D01*
X77906619Y-37488857D01*
X77859000Y-37441238D01*
X77811380Y-37346000D01*
X77811380Y-37107904D01*
X77859000Y-36965047D01*
X77811380Y-36679333D02*
X77811380Y-36107904D01*
X78811380Y-36393619D02*
X77811380Y-36393619D01*
X77811380Y-35584095D02*
X77811380Y-35393619D01*
X77859000Y-35298380D01*
X77954238Y-35203142D01*
X78144714Y-35155523D01*
X78478047Y-35155523D01*
X78668523Y-35203142D01*
X78763761Y-35298380D01*
X78811380Y-35393619D01*
X78811380Y-35584095D01*
X78763761Y-35679333D01*
X78668523Y-35774571D01*
X78478047Y-35822190D01*
X78144714Y-35822190D01*
X77954238Y-35774571D01*
X77859000Y-35679333D01*
X77811380Y-35584095D01*
X78811380Y-34726952D02*
X77811380Y-34726952D01*
X78811380Y-34155523D01*
X77811380Y-34155523D01*
X68262666Y-69412761D02*
X68405523Y-69460380D01*
X68643619Y-69460380D01*
X68738857Y-69412761D01*
X68786476Y-69365142D01*
X68834095Y-69269904D01*
X68834095Y-69174666D01*
X68786476Y-69079428D01*
X68738857Y-69031809D01*
X68643619Y-68984190D01*
X68453142Y-68936571D01*
X68357904Y-68888952D01*
X68310285Y-68841333D01*
X68262666Y-68746095D01*
X68262666Y-68650857D01*
X68310285Y-68555619D01*
X68357904Y-68508000D01*
X68453142Y-68460380D01*
X68691238Y-68460380D01*
X68834095Y-68508000D01*
X69167428Y-68460380D02*
X69405523Y-69460380D01*
X69596000Y-68746095D01*
X69786476Y-69460380D01*
X70024571Y-68460380D01*
X70310285Y-68460380D02*
X70929333Y-68460380D01*
X70596000Y-68841333D01*
X70738857Y-68841333D01*
X70834095Y-68888952D01*
X70881714Y-68936571D01*
X70929333Y-69031809D01*
X70929333Y-69269904D01*
X70881714Y-69365142D01*
X70834095Y-69412761D01*
X70738857Y-69460380D01*
X70453142Y-69460380D01*
X70357904Y-69412761D01*
X70310285Y-69365142D01*
X104084380Y-50458666D02*
X103608190Y-50792000D01*
X104084380Y-51030095D02*
X103084380Y-51030095D01*
X103084380Y-50649142D01*
X103132000Y-50553904D01*
X103179619Y-50506285D01*
X103274857Y-50458666D01*
X103417714Y-50458666D01*
X103512952Y-50506285D01*
X103560571Y-50553904D01*
X103608190Y-50649142D01*
X103608190Y-51030095D01*
X103084380Y-50125333D02*
X103084380Y-49506285D01*
X103465333Y-49839619D01*
X103465333Y-49696761D01*
X103512952Y-49601523D01*
X103560571Y-49553904D01*
X103655809Y-49506285D01*
X103893904Y-49506285D01*
X103989142Y-49553904D01*
X104036761Y-49601523D01*
X104084380Y-49696761D01*
X104084380Y-49982476D01*
X104036761Y-50077714D01*
X103989142Y-50125333D01*
X105418095Y-50077714D02*
X105418095Y-50744380D01*
X105180000Y-49696761D02*
X104941904Y-50411047D01*
X105560952Y-50411047D01*
X105846666Y-49744380D02*
X106513333Y-49744380D01*
X106084761Y-50744380D01*
X107084761Y-49744380D02*
X107180000Y-49744380D01*
X107275238Y-49792000D01*
X107322857Y-49839619D01*
X107370476Y-49934857D01*
X107418095Y-50125333D01*
X107418095Y-50363428D01*
X107370476Y-50553904D01*
X107322857Y-50649142D01*
X107275238Y-50696761D01*
X107180000Y-50744380D01*
X107084761Y-50744380D01*
X106989523Y-50696761D01*
X106941904Y-50649142D01*
X106894285Y-50553904D01*
X106846666Y-50363428D01*
X106846666Y-50125333D01*
X106894285Y-49934857D01*
X106941904Y-49839619D01*
X106989523Y-49792000D01*
X107084761Y-49744380D01*
X108418095Y-50744380D02*
X108084761Y-50268190D01*
X107846666Y-50744380D02*
X107846666Y-49744380D01*
X108227619Y-49744380D01*
X108322857Y-49792000D01*
X108370476Y-49839619D01*
X108418095Y-49934857D01*
X108418095Y-50077714D01*
X108370476Y-50172952D01*
X108322857Y-50220571D01*
X108227619Y-50268190D01*
X107846666Y-50268190D01*
X117579809Y-92142380D02*
X117579809Y-91142380D01*
X118627428Y-92047142D02*
X118579809Y-92094761D01*
X118436952Y-92142380D01*
X118341714Y-92142380D01*
X118198857Y-92094761D01*
X118103619Y-91999523D01*
X118056000Y-91904285D01*
X118008380Y-91713809D01*
X118008380Y-91570952D01*
X118056000Y-91380476D01*
X118103619Y-91285238D01*
X118198857Y-91190000D01*
X118341714Y-91142380D01*
X118436952Y-91142380D01*
X118579809Y-91190000D01*
X118627428Y-91237619D01*
X119103619Y-92142380D02*
X119294095Y-92142380D01*
X119389333Y-92094761D01*
X119436952Y-92047142D01*
X119532190Y-91904285D01*
X119579809Y-91713809D01*
X119579809Y-91332857D01*
X119532190Y-91237619D01*
X119484571Y-91190000D01*
X119389333Y-91142380D01*
X119198857Y-91142380D01*
X119103619Y-91190000D01*
X119056000Y-91237619D01*
X119008380Y-91332857D01*
X119008380Y-91570952D01*
X119056000Y-91666190D01*
X119103619Y-91713809D01*
X119198857Y-91761428D01*
X119389333Y-91761428D01*
X119484571Y-91713809D01*
X119532190Y-91666190D01*
X119579809Y-91570952D01*
X123533142Y-91142380D02*
X124199809Y-91142380D01*
X123771238Y-92142380D01*
X125009333Y-91475714D02*
X125009333Y-92142380D01*
X124771238Y-91094761D02*
X124533142Y-91809047D01*
X125152190Y-91809047D01*
X126009333Y-92142380D02*
X125533142Y-92142380D01*
X125533142Y-91142380D01*
X126295047Y-92094761D02*
X126437904Y-92142380D01*
X126676000Y-92142380D01*
X126771238Y-92094761D01*
X126818857Y-92047142D01*
X126866476Y-91951904D01*
X126866476Y-91856666D01*
X126818857Y-91761428D01*
X126771238Y-91713809D01*
X126676000Y-91666190D01*
X126485523Y-91618571D01*
X126390285Y-91570952D01*
X126342666Y-91523333D01*
X126295047Y-91428095D01*
X126295047Y-91332857D01*
X126342666Y-91237619D01*
X126390285Y-91190000D01*
X126485523Y-91142380D01*
X126723619Y-91142380D01*
X126866476Y-91190000D01*
X127485523Y-91142380D02*
X127580761Y-91142380D01*
X127676000Y-91190000D01*
X127723619Y-91237619D01*
X127771238Y-91332857D01*
X127818857Y-91523333D01*
X127818857Y-91761428D01*
X127771238Y-91951904D01*
X127723619Y-92047142D01*
X127676000Y-92094761D01*
X127580761Y-92142380D01*
X127485523Y-92142380D01*
X127390285Y-92094761D01*
X127342666Y-92047142D01*
X127295047Y-91951904D01*
X127247428Y-91761428D01*
X127247428Y-91523333D01*
X127295047Y-91332857D01*
X127342666Y-91237619D01*
X127390285Y-91190000D01*
X127485523Y-91142380D01*
X128437904Y-91142380D02*
X128533142Y-91142380D01*
X128628380Y-91190000D01*
X128676000Y-91237619D01*
X128723619Y-91332857D01*
X128771238Y-91523333D01*
X128771238Y-91761428D01*
X128723619Y-91951904D01*
X128676000Y-92047142D01*
X128628380Y-92094761D01*
X128533142Y-92142380D01*
X128437904Y-92142380D01*
X128342666Y-92094761D01*
X128295047Y-92047142D01*
X128247428Y-91951904D01*
X128199809Y-91761428D01*
X128199809Y-91523333D01*
X128247428Y-91332857D01*
X128295047Y-91237619D01*
X128342666Y-91190000D01*
X128437904Y-91142380D01*
X79877904Y-91762380D02*
X79877904Y-92571904D01*
X79925523Y-92667142D01*
X79973142Y-92714761D01*
X80068380Y-92762380D01*
X80258857Y-92762380D01*
X80354095Y-92714761D01*
X80401714Y-92667142D01*
X80449333Y-92571904D01*
X80449333Y-91762380D01*
X81449333Y-92762380D02*
X80877904Y-92762380D01*
X81163619Y-92762380D02*
X81163619Y-91762380D01*
X81068380Y-91905238D01*
X80973142Y-92000476D01*
X80877904Y-92048095D01*
X82401714Y-92762380D02*
X81830285Y-92762380D01*
X82116000Y-92762380D02*
X82116000Y-91762380D01*
X82020761Y-91905238D01*
X81925523Y-92000476D01*
X81830285Y-92048095D01*
X95229238Y-91810000D02*
X95134000Y-91762380D01*
X94991142Y-91762380D01*
X94848285Y-91810000D01*
X94753047Y-91905238D01*
X94705428Y-92000476D01*
X94657809Y-92190952D01*
X94657809Y-92333809D01*
X94705428Y-92524285D01*
X94753047Y-92619523D01*
X94848285Y-92714761D01*
X94991142Y-92762380D01*
X95086380Y-92762380D01*
X95229238Y-92714761D01*
X95276857Y-92667142D01*
X95276857Y-92333809D01*
X95086380Y-92333809D01*
X95657809Y-92476666D02*
X96134000Y-92476666D01*
X95562571Y-92762380D02*
X95895904Y-91762380D01*
X96229238Y-92762380D01*
X97038761Y-92762380D02*
X96562571Y-92762380D01*
X96562571Y-91762380D01*
X97324476Y-91857619D02*
X97372095Y-91810000D01*
X97467333Y-91762380D01*
X97705428Y-91762380D01*
X97800666Y-91810000D01*
X97848285Y-91857619D01*
X97895904Y-91952857D01*
X97895904Y-92048095D01*
X97848285Y-92190952D01*
X97276857Y-92762380D01*
X97895904Y-92762380D01*
X98276857Y-91857619D02*
X98324476Y-91810000D01*
X98419714Y-91762380D01*
X98657809Y-91762380D01*
X98753047Y-91810000D01*
X98800666Y-91857619D01*
X98848285Y-91952857D01*
X98848285Y-92048095D01*
X98800666Y-92190952D01*
X98229238Y-92762380D01*
X98848285Y-92762380D01*
X99134000Y-91762380D02*
X99467333Y-92762380D01*
X99800666Y-91762380D01*
X100657809Y-92762380D02*
X100086380Y-92762380D01*
X100372095Y-92762380D02*
X100372095Y-91762380D01*
X100276857Y-91905238D01*
X100181619Y-92000476D01*
X100086380Y-92048095D01*
X101276857Y-91762380D02*
X101372095Y-91762380D01*
X101467333Y-91810000D01*
X101514952Y-91857619D01*
X101562571Y-91952857D01*
X101610190Y-92143333D01*
X101610190Y-92381428D01*
X101562571Y-92571904D01*
X101514952Y-92667142D01*
X101467333Y-92714761D01*
X101372095Y-92762380D01*
X101276857Y-92762380D01*
X101181619Y-92714761D01*
X101134000Y-92667142D01*
X101086380Y-92571904D01*
X101038761Y-92381428D01*
X101038761Y-92143333D01*
X101086380Y-91952857D01*
X101134000Y-91857619D01*
X101181619Y-91810000D01*
X101276857Y-91762380D01*
X95309809Y-42642380D02*
X95309809Y-41642380D01*
X96357428Y-42547142D02*
X96309809Y-42594761D01*
X96166952Y-42642380D01*
X96071714Y-42642380D01*
X95928857Y-42594761D01*
X95833619Y-42499523D01*
X95786000Y-42404285D01*
X95738380Y-42213809D01*
X95738380Y-42070952D01*
X95786000Y-41880476D01*
X95833619Y-41785238D01*
X95928857Y-41690000D01*
X96071714Y-41642380D01*
X96166952Y-41642380D01*
X96309809Y-41690000D01*
X96357428Y-41737619D01*
X97262190Y-41642380D02*
X96786000Y-41642380D01*
X96738380Y-42118571D01*
X96786000Y-42070952D01*
X96881238Y-42023333D01*
X97119333Y-42023333D01*
X97214571Y-42070952D01*
X97262190Y-42118571D01*
X97309809Y-42213809D01*
X97309809Y-42451904D01*
X97262190Y-42547142D01*
X97214571Y-42594761D01*
X97119333Y-42642380D01*
X96881238Y-42642380D01*
X96786000Y-42594761D01*
X96738380Y-42547142D01*
X101009142Y-41388380D02*
X101675809Y-41388380D01*
X101247238Y-42388380D01*
X102485333Y-41721714D02*
X102485333Y-42388380D01*
X102247238Y-41340761D02*
X102009142Y-42055047D01*
X102628190Y-42055047D01*
X103485333Y-42388380D02*
X103009142Y-42388380D01*
X103009142Y-41388380D01*
X103771047Y-42340761D02*
X103913904Y-42388380D01*
X104152000Y-42388380D01*
X104247238Y-42340761D01*
X104294857Y-42293142D01*
X104342476Y-42197904D01*
X104342476Y-42102666D01*
X104294857Y-42007428D01*
X104247238Y-41959809D01*
X104152000Y-41912190D01*
X103961523Y-41864571D01*
X103866285Y-41816952D01*
X103818666Y-41769333D01*
X103771047Y-41674095D01*
X103771047Y-41578857D01*
X103818666Y-41483619D01*
X103866285Y-41436000D01*
X103961523Y-41388380D01*
X104199619Y-41388380D01*
X104342476Y-41436000D01*
X104961523Y-41388380D02*
X105056761Y-41388380D01*
X105152000Y-41436000D01*
X105199619Y-41483619D01*
X105247238Y-41578857D01*
X105294857Y-41769333D01*
X105294857Y-42007428D01*
X105247238Y-42197904D01*
X105199619Y-42293142D01*
X105152000Y-42340761D01*
X105056761Y-42388380D01*
X104961523Y-42388380D01*
X104866285Y-42340761D01*
X104818666Y-42293142D01*
X104771047Y-42197904D01*
X104723428Y-42007428D01*
X104723428Y-41769333D01*
X104771047Y-41578857D01*
X104818666Y-41483619D01*
X104866285Y-41436000D01*
X104961523Y-41388380D01*
X106152000Y-41388380D02*
X105961523Y-41388380D01*
X105866285Y-41436000D01*
X105818666Y-41483619D01*
X105723428Y-41626476D01*
X105675809Y-41816952D01*
X105675809Y-42197904D01*
X105723428Y-42293142D01*
X105771047Y-42340761D01*
X105866285Y-42388380D01*
X106056761Y-42388380D01*
X106152000Y-42340761D01*
X106199619Y-42293142D01*
X106247238Y-42197904D01*
X106247238Y-41959809D01*
X106199619Y-41864571D01*
X106152000Y-41816952D01*
X106056761Y-41769333D01*
X105866285Y-41769333D01*
X105771047Y-41816952D01*
X105723428Y-41864571D01*
X105675809Y-41959809D01*
X70556380Y-87463190D02*
X69556380Y-87463190D01*
X70461142Y-86415571D02*
X70508761Y-86463190D01*
X70556380Y-86606047D01*
X70556380Y-86701285D01*
X70508761Y-86844142D01*
X70413523Y-86939380D01*
X70318285Y-86987000D01*
X70127809Y-87034619D01*
X69984952Y-87034619D01*
X69794476Y-86987000D01*
X69699238Y-86939380D01*
X69604000Y-86844142D01*
X69556380Y-86701285D01*
X69556380Y-86606047D01*
X69604000Y-86463190D01*
X69651619Y-86415571D01*
X69556380Y-85558428D02*
X69556380Y-85748904D01*
X69604000Y-85844142D01*
X69651619Y-85891761D01*
X69794476Y-85987000D01*
X69984952Y-86034619D01*
X70365904Y-86034619D01*
X70461142Y-85987000D01*
X70508761Y-85939380D01*
X70556380Y-85844142D01*
X70556380Y-85653666D01*
X70508761Y-85558428D01*
X70461142Y-85510809D01*
X70365904Y-85463190D01*
X70127809Y-85463190D01*
X70032571Y-85510809D01*
X69984952Y-85558428D01*
X69937333Y-85653666D01*
X69937333Y-85844142D01*
X69984952Y-85939380D01*
X70032571Y-85987000D01*
X70127809Y-86034619D01*
X70651619Y-89844952D02*
X70651619Y-90511619D01*
X69651619Y-90083047D01*
X70318285Y-91321142D02*
X69651619Y-91321142D01*
X70699238Y-91083047D02*
X69984952Y-90844952D01*
X69984952Y-91464000D01*
X69651619Y-92321142D02*
X69651619Y-91844952D01*
X70651619Y-91844952D01*
X69699238Y-92606857D02*
X69651619Y-92749714D01*
X69651619Y-92987809D01*
X69699238Y-93083047D01*
X69746857Y-93130666D01*
X69842095Y-93178285D01*
X69937333Y-93178285D01*
X70032571Y-93130666D01*
X70080190Y-93083047D01*
X70127809Y-92987809D01*
X70175428Y-92797333D01*
X70223047Y-92702095D01*
X70270666Y-92654476D01*
X70365904Y-92606857D01*
X70461142Y-92606857D01*
X70556380Y-92654476D01*
X70604000Y-92702095D01*
X70651619Y-92797333D01*
X70651619Y-93035428D01*
X70604000Y-93178285D01*
X69651619Y-94130666D02*
X69651619Y-93559238D01*
X69651619Y-93844952D02*
X70651619Y-93844952D01*
X70508761Y-93749714D01*
X70413523Y-93654476D01*
X70365904Y-93559238D01*
X70556380Y-94511619D02*
X70604000Y-94559238D01*
X70651619Y-94654476D01*
X70651619Y-94892571D01*
X70604000Y-94987809D01*
X70556380Y-95035428D01*
X70461142Y-95083047D01*
X70365904Y-95083047D01*
X70223047Y-95035428D01*
X69651619Y-94464000D01*
X69651619Y-95083047D01*
X70651619Y-95940190D02*
X70651619Y-95749714D01*
X70604000Y-95654476D01*
X70556380Y-95606857D01*
X70413523Y-95511619D01*
X70223047Y-95464000D01*
X69842095Y-95464000D01*
X69746857Y-95511619D01*
X69699238Y-95559238D01*
X69651619Y-95654476D01*
X69651619Y-95844952D01*
X69699238Y-95940190D01*
X69746857Y-95987809D01*
X69842095Y-96035428D01*
X70080190Y-96035428D01*
X70175428Y-95987809D01*
X70223047Y-95940190D01*
X70270666Y-95844952D01*
X70270666Y-95654476D01*
X70223047Y-95559238D01*
X70175428Y-95511619D01*
X70080190Y-95464000D01*
X144470380Y-35726666D02*
X143994190Y-36060000D01*
X144470380Y-36298095D02*
X143470380Y-36298095D01*
X143470380Y-35917142D01*
X143518000Y-35821904D01*
X143565619Y-35774285D01*
X143660857Y-35726666D01*
X143803714Y-35726666D01*
X143898952Y-35774285D01*
X143946571Y-35821904D01*
X143994190Y-35917142D01*
X143994190Y-36298095D01*
X143470380Y-34821904D02*
X143470380Y-35298095D01*
X143946571Y-35345714D01*
X143898952Y-35298095D01*
X143851333Y-35202857D01*
X143851333Y-34964761D01*
X143898952Y-34869523D01*
X143946571Y-34821904D01*
X144041809Y-34774285D01*
X144279904Y-34774285D01*
X144375142Y-34821904D01*
X144422761Y-34869523D01*
X144470380Y-34964761D01*
X144470380Y-35202857D01*
X144422761Y-35298095D01*
X144375142Y-35345714D01*
X148344095Y-34599619D02*
X148391714Y-34552000D01*
X148486952Y-34504380D01*
X148725047Y-34504380D01*
X148820285Y-34552000D01*
X148867904Y-34599619D01*
X148915523Y-34694857D01*
X148915523Y-34790095D01*
X148867904Y-34932952D01*
X148296476Y-35504380D01*
X148915523Y-35504380D01*
X149344095Y-35504380D02*
X149344095Y-34504380D01*
X149915523Y-35504380D02*
X149486952Y-34932952D01*
X149915523Y-34504380D02*
X149344095Y-35075809D01*
X150296476Y-34599619D02*
X150344095Y-34552000D01*
X150439333Y-34504380D01*
X150677428Y-34504380D01*
X150772666Y-34552000D01*
X150820285Y-34599619D01*
X150867904Y-34694857D01*
X150867904Y-34790095D01*
X150820285Y-34932952D01*
X150248857Y-35504380D01*
X150867904Y-35504380D01*
X138833619Y-91888380D02*
X138833619Y-90888380D01*
X139881238Y-91793142D02*
X139833619Y-91840761D01*
X139690761Y-91888380D01*
X139595523Y-91888380D01*
X139452666Y-91840761D01*
X139357428Y-91745523D01*
X139309809Y-91650285D01*
X139262190Y-91459809D01*
X139262190Y-91316952D01*
X139309809Y-91126476D01*
X139357428Y-91031238D01*
X139452666Y-90936000D01*
X139595523Y-90888380D01*
X139690761Y-90888380D01*
X139833619Y-90936000D01*
X139881238Y-90983619D01*
X140833619Y-91888380D02*
X140262190Y-91888380D01*
X140547904Y-91888380D02*
X140547904Y-90888380D01*
X140452666Y-91031238D01*
X140357428Y-91126476D01*
X140262190Y-91174095D01*
X141452666Y-90888380D02*
X141547904Y-90888380D01*
X141643142Y-90936000D01*
X141690761Y-90983619D01*
X141738380Y-91078857D01*
X141786000Y-91269333D01*
X141786000Y-91507428D01*
X141738380Y-91697904D01*
X141690761Y-91793142D01*
X141643142Y-91840761D01*
X141547904Y-91888380D01*
X141452666Y-91888380D01*
X141357428Y-91840761D01*
X141309809Y-91793142D01*
X141262190Y-91697904D01*
X141214571Y-91507428D01*
X141214571Y-91269333D01*
X141262190Y-91078857D01*
X141309809Y-90983619D01*
X141357428Y-90936000D01*
X141452666Y-90888380D01*
X145517142Y-91142380D02*
X146183809Y-91142380D01*
X145755238Y-92142380D01*
X146993333Y-91475714D02*
X146993333Y-92142380D01*
X146755238Y-91094761D02*
X146517142Y-91809047D01*
X147136190Y-91809047D01*
X147993333Y-92142380D02*
X147517142Y-92142380D01*
X147517142Y-91142380D01*
X148279047Y-92094761D02*
X148421904Y-92142380D01*
X148660000Y-92142380D01*
X148755238Y-92094761D01*
X148802857Y-92047142D01*
X148850476Y-91951904D01*
X148850476Y-91856666D01*
X148802857Y-91761428D01*
X148755238Y-91713809D01*
X148660000Y-91666190D01*
X148469523Y-91618571D01*
X148374285Y-91570952D01*
X148326666Y-91523333D01*
X148279047Y-91428095D01*
X148279047Y-91332857D01*
X148326666Y-91237619D01*
X148374285Y-91190000D01*
X148469523Y-91142380D01*
X148707619Y-91142380D01*
X148850476Y-91190000D01*
X149231428Y-91237619D02*
X149279047Y-91190000D01*
X149374285Y-91142380D01*
X149612380Y-91142380D01*
X149707619Y-91190000D01*
X149755238Y-91237619D01*
X149802857Y-91332857D01*
X149802857Y-91428095D01*
X149755238Y-91570952D01*
X149183809Y-92142380D01*
X149802857Y-92142380D01*
X150136190Y-91142380D02*
X150802857Y-91142380D01*
X150374285Y-92142380D01*
X98690761Y-78083333D02*
X98738380Y-77940476D01*
X98738380Y-77702380D01*
X98690761Y-77607142D01*
X98643142Y-77559523D01*
X98547904Y-77511904D01*
X98452666Y-77511904D01*
X98357428Y-77559523D01*
X98309809Y-77607142D01*
X98262190Y-77702380D01*
X98214571Y-77892857D01*
X98166952Y-77988095D01*
X98119333Y-78035714D01*
X98024095Y-78083333D01*
X97928857Y-78083333D01*
X97833619Y-78035714D01*
X97786000Y-77988095D01*
X97738380Y-77892857D01*
X97738380Y-77654761D01*
X97786000Y-77511904D01*
X97738380Y-77178571D02*
X98738380Y-76940476D01*
X98024095Y-76750000D01*
X98738380Y-76559523D01*
X97738380Y-76321428D01*
X97833619Y-75988095D02*
X97786000Y-75940476D01*
X97738380Y-75845238D01*
X97738380Y-75607142D01*
X97786000Y-75511904D01*
X97833619Y-75464285D01*
X97928857Y-75416666D01*
X98024095Y-75416666D01*
X98166952Y-75464285D01*
X98738380Y-76035714D01*
X98738380Y-75416666D01*
X94275380Y-77676238D02*
X93275380Y-77676238D01*
X94275380Y-77104809D01*
X93275380Y-77104809D01*
X94275380Y-76628619D02*
X93275380Y-76628619D01*
X93989666Y-76295285D01*
X93275380Y-75961952D01*
X94275380Y-75961952D01*
X94275380Y-75485761D02*
X93275380Y-75485761D01*
X80690761Y-78031333D02*
X80738380Y-77888476D01*
X80738380Y-77650380D01*
X80690761Y-77555142D01*
X80643142Y-77507523D01*
X80547904Y-77459904D01*
X80452666Y-77459904D01*
X80357428Y-77507523D01*
X80309809Y-77555142D01*
X80262190Y-77650380D01*
X80214571Y-77840857D01*
X80166952Y-77936095D01*
X80119333Y-77983714D01*
X80024095Y-78031333D01*
X79928857Y-78031333D01*
X79833619Y-77983714D01*
X79786000Y-77936095D01*
X79738380Y-77840857D01*
X79738380Y-77602761D01*
X79786000Y-77459904D01*
X79738380Y-77126571D02*
X80738380Y-76888476D01*
X80024095Y-76698000D01*
X80738380Y-76507523D01*
X79738380Y-76269428D01*
X80738380Y-75364666D02*
X80738380Y-75936095D01*
X80738380Y-75650380D02*
X79738380Y-75650380D01*
X79881238Y-75745619D01*
X79976476Y-75840857D01*
X80024095Y-75936095D01*
X85288380Y-78033380D02*
X84812190Y-78366714D01*
X85288380Y-78604809D02*
X84288380Y-78604809D01*
X84288380Y-78223857D01*
X84336000Y-78128619D01*
X84383619Y-78081000D01*
X84478857Y-78033380D01*
X84621714Y-78033380D01*
X84716952Y-78081000D01*
X84764571Y-78128619D01*
X84812190Y-78223857D01*
X84812190Y-78604809D01*
X84764571Y-77604809D02*
X84764571Y-77271476D01*
X85288380Y-77128619D02*
X85288380Y-77604809D01*
X84288380Y-77604809D01*
X84288380Y-77128619D01*
X85240761Y-76747666D02*
X85288380Y-76604809D01*
X85288380Y-76366714D01*
X85240761Y-76271476D01*
X85193142Y-76223857D01*
X85097904Y-76176238D01*
X85002666Y-76176238D01*
X84907428Y-76223857D01*
X84859809Y-76271476D01*
X84812190Y-76366714D01*
X84764571Y-76557190D01*
X84716952Y-76652428D01*
X84669333Y-76700047D01*
X84574095Y-76747666D01*
X84478857Y-76747666D01*
X84383619Y-76700047D01*
X84336000Y-76652428D01*
X84288380Y-76557190D01*
X84288380Y-76319095D01*
X84336000Y-76176238D01*
X84764571Y-75747666D02*
X84764571Y-75414333D01*
X85288380Y-75271476D02*
X85288380Y-75747666D01*
X84288380Y-75747666D01*
X84288380Y-75271476D01*
X84288380Y-74985761D02*
X84288380Y-74414333D01*
X85288380Y-74700047D02*
X84288380Y-74700047D01*
X125984095Y-41362380D02*
X125984095Y-42171904D01*
X126031714Y-42267142D01*
X126079333Y-42314761D01*
X126174571Y-42362380D01*
X126365047Y-42362380D01*
X126460285Y-42314761D01*
X126507904Y-42267142D01*
X126555523Y-42171904D01*
X126555523Y-41362380D01*
X126936476Y-41362380D02*
X127603142Y-41362380D01*
X127174571Y-42362380D01*
X137850952Y-41616380D02*
X138517619Y-41616380D01*
X138089047Y-42616380D01*
X139327142Y-41949714D02*
X139327142Y-42616380D01*
X139089047Y-41568761D02*
X138850952Y-42283047D01*
X139470000Y-42283047D01*
X140327142Y-42616380D02*
X139850952Y-42616380D01*
X139850952Y-41616380D01*
X140612857Y-42568761D02*
X140755714Y-42616380D01*
X140993809Y-42616380D01*
X141089047Y-42568761D01*
X141136666Y-42521142D01*
X141184285Y-42425904D01*
X141184285Y-42330666D01*
X141136666Y-42235428D01*
X141089047Y-42187809D01*
X140993809Y-42140190D01*
X140803333Y-42092571D01*
X140708095Y-42044952D01*
X140660476Y-41997333D01*
X140612857Y-41902095D01*
X140612857Y-41806857D01*
X140660476Y-41711619D01*
X140708095Y-41664000D01*
X140803333Y-41616380D01*
X141041428Y-41616380D01*
X141184285Y-41664000D01*
X141517619Y-41616380D02*
X142136666Y-41616380D01*
X141803333Y-41997333D01*
X141946190Y-41997333D01*
X142041428Y-42044952D01*
X142089047Y-42092571D01*
X142136666Y-42187809D01*
X142136666Y-42425904D01*
X142089047Y-42521142D01*
X142041428Y-42568761D01*
X141946190Y-42616380D01*
X141660476Y-42616380D01*
X141565238Y-42568761D01*
X141517619Y-42521142D01*
X142470000Y-41616380D02*
X143136666Y-41616380D01*
X142708095Y-42616380D01*
X143946190Y-41949714D02*
X143946190Y-42616380D01*
X143708095Y-41568761D02*
X143470000Y-42283047D01*
X144089047Y-42283047D01*
X105516095Y-79642380D02*
X105516095Y-80451904D01*
X105563714Y-80547142D01*
X105611333Y-80594761D01*
X105706571Y-80642380D01*
X105897047Y-80642380D01*
X105992285Y-80594761D01*
X106039904Y-80547142D01*
X106087523Y-80451904D01*
X106087523Y-79642380D01*
X106706571Y-80070952D02*
X106611333Y-80023333D01*
X106563714Y-79975714D01*
X106516095Y-79880476D01*
X106516095Y-79832857D01*
X106563714Y-79737619D01*
X106611333Y-79690000D01*
X106706571Y-79642380D01*
X106897047Y-79642380D01*
X106992285Y-79690000D01*
X107039904Y-79737619D01*
X107087523Y-79832857D01*
X107087523Y-79880476D01*
X107039904Y-79975714D01*
X106992285Y-80023333D01*
X106897047Y-80070952D01*
X106706571Y-80070952D01*
X106611333Y-80118571D01*
X106563714Y-80166190D01*
X106516095Y-80261428D01*
X106516095Y-80451904D01*
X106563714Y-80547142D01*
X106611333Y-80594761D01*
X106706571Y-80642380D01*
X106897047Y-80642380D01*
X106992285Y-80594761D01*
X107039904Y-80547142D01*
X107087523Y-80451904D01*
X107087523Y-80261428D01*
X107039904Y-80166190D01*
X106992285Y-80118571D01*
X106897047Y-80070952D01*
X113826952Y-79642380D02*
X114493619Y-79642380D01*
X114065047Y-80642380D01*
X115303142Y-79975714D02*
X115303142Y-80642380D01*
X115065047Y-79594761D02*
X114826952Y-80309047D01*
X115446000Y-80309047D01*
X116303142Y-80642380D02*
X115826952Y-80642380D01*
X115826952Y-79642380D01*
X116588857Y-80594761D02*
X116731714Y-80642380D01*
X116969809Y-80642380D01*
X117065047Y-80594761D01*
X117112666Y-80547142D01*
X117160285Y-80451904D01*
X117160285Y-80356666D01*
X117112666Y-80261428D01*
X117065047Y-80213809D01*
X116969809Y-80166190D01*
X116779333Y-80118571D01*
X116684095Y-80070952D01*
X116636476Y-80023333D01*
X116588857Y-79928095D01*
X116588857Y-79832857D01*
X116636476Y-79737619D01*
X116684095Y-79690000D01*
X116779333Y-79642380D01*
X117017428Y-79642380D01*
X117160285Y-79690000D01*
X118112666Y-80642380D02*
X117541238Y-80642380D01*
X117826952Y-80642380D02*
X117826952Y-79642380D01*
X117731714Y-79785238D01*
X117636476Y-79880476D01*
X117541238Y-79928095D01*
X118446000Y-79642380D02*
X119112666Y-79642380D01*
X118684095Y-80642380D01*
X119969809Y-79642380D02*
X119493619Y-79642380D01*
X119446000Y-80118571D01*
X119493619Y-80070952D01*
X119588857Y-80023333D01*
X119826952Y-80023333D01*
X119922190Y-80070952D01*
X119969809Y-80118571D01*
X120017428Y-80213809D01*
X120017428Y-80451904D01*
X119969809Y-80547142D01*
X119922190Y-80594761D01*
X119826952Y-80642380D01*
X119588857Y-80642380D01*
X119493619Y-80594761D01*
X119446000Y-80547142D01*
X125778095Y-103642380D02*
X125778095Y-104451904D01*
X125825714Y-104547142D01*
X125873333Y-104594761D01*
X125968571Y-104642380D01*
X126159047Y-104642380D01*
X126254285Y-104594761D01*
X126301904Y-104547142D01*
X126349523Y-104451904D01*
X126349523Y-103642380D01*
X127254285Y-103975714D02*
X127254285Y-104642380D01*
X127016190Y-103594761D02*
X126778095Y-104309047D01*
X127397142Y-104309047D01*
X143423428Y-103690000D02*
X143328190Y-103642380D01*
X143185333Y-103642380D01*
X143042476Y-103690000D01*
X142947238Y-103785238D01*
X142899619Y-103880476D01*
X142852000Y-104070952D01*
X142852000Y-104213809D01*
X142899619Y-104404285D01*
X142947238Y-104499523D01*
X143042476Y-104594761D01*
X143185333Y-104642380D01*
X143280571Y-104642380D01*
X143423428Y-104594761D01*
X143471047Y-104547142D01*
X143471047Y-104213809D01*
X143280571Y-104213809D01*
X143852000Y-104356666D02*
X144328190Y-104356666D01*
X143756761Y-104642380D02*
X144090095Y-103642380D01*
X144423428Y-104642380D01*
X145232952Y-104642380D02*
X144756761Y-104642380D01*
X144756761Y-103642380D01*
X145518666Y-103737619D02*
X145566285Y-103690000D01*
X145661523Y-103642380D01*
X145899619Y-103642380D01*
X145994857Y-103690000D01*
X146042476Y-103737619D01*
X146090095Y-103832857D01*
X146090095Y-103928095D01*
X146042476Y-104070952D01*
X145471047Y-104642380D01*
X146090095Y-104642380D01*
X146709142Y-103642380D02*
X146804380Y-103642380D01*
X146899619Y-103690000D01*
X146947238Y-103737619D01*
X146994857Y-103832857D01*
X147042476Y-104023333D01*
X147042476Y-104261428D01*
X146994857Y-104451904D01*
X146947238Y-104547142D01*
X146899619Y-104594761D01*
X146804380Y-104642380D01*
X146709142Y-104642380D01*
X146613904Y-104594761D01*
X146566285Y-104547142D01*
X146518666Y-104451904D01*
X146471047Y-104261428D01*
X146471047Y-104023333D01*
X146518666Y-103832857D01*
X146566285Y-103737619D01*
X146613904Y-103690000D01*
X146709142Y-103642380D01*
X147328190Y-103642380D02*
X147661523Y-104642380D01*
X147994857Y-103642380D01*
X148471047Y-104070952D02*
X148375809Y-104023333D01*
X148328190Y-103975714D01*
X148280571Y-103880476D01*
X148280571Y-103832857D01*
X148328190Y-103737619D01*
X148375809Y-103690000D01*
X148471047Y-103642380D01*
X148661523Y-103642380D01*
X148756761Y-103690000D01*
X148804380Y-103737619D01*
X148852000Y-103832857D01*
X148852000Y-103880476D01*
X148804380Y-103975714D01*
X148756761Y-104023333D01*
X148661523Y-104070952D01*
X148471047Y-104070952D01*
X148375809Y-104118571D01*
X148328190Y-104166190D01*
X148280571Y-104261428D01*
X148280571Y-104451904D01*
X148328190Y-104547142D01*
X148375809Y-104594761D01*
X148471047Y-104642380D01*
X148661523Y-104642380D01*
X148756761Y-104594761D01*
X148804380Y-104547142D01*
X148852000Y-104451904D01*
X148852000Y-104261428D01*
X148804380Y-104166190D01*
X148756761Y-104118571D01*
X148661523Y-104070952D01*
X149613904Y-104118571D02*
X149756761Y-104166190D01*
X149804380Y-104213809D01*
X149852000Y-104309047D01*
X149852000Y-104451904D01*
X149804380Y-104547142D01*
X149756761Y-104594761D01*
X149661523Y-104642380D01*
X149280571Y-104642380D01*
X149280571Y-103642380D01*
X149613904Y-103642380D01*
X149709142Y-103690000D01*
X149756761Y-103737619D01*
X149804380Y-103832857D01*
X149804380Y-103928095D01*
X149756761Y-104023333D01*
X149709142Y-104070952D01*
X149613904Y-104118571D01*
X149280571Y-104118571D01*
X140216095Y-75578380D02*
X140216095Y-76387904D01*
X140263714Y-76483142D01*
X140311333Y-76530761D01*
X140406571Y-76578380D01*
X140597047Y-76578380D01*
X140692285Y-76530761D01*
X140739904Y-76483142D01*
X140787523Y-76387904D01*
X140787523Y-75578380D01*
X141168476Y-75578380D02*
X141787523Y-75578380D01*
X141454190Y-75959333D01*
X141597047Y-75959333D01*
X141692285Y-76006952D01*
X141739904Y-76054571D01*
X141787523Y-76149809D01*
X141787523Y-76387904D01*
X141739904Y-76483142D01*
X141692285Y-76530761D01*
X141597047Y-76578380D01*
X141311333Y-76578380D01*
X141216095Y-76530761D01*
X141168476Y-76483142D01*
X151677904Y-75578380D02*
X151487428Y-75578380D01*
X151392190Y-75626000D01*
X151344571Y-75673619D01*
X151249333Y-75816476D01*
X151201714Y-76006952D01*
X151201714Y-76387904D01*
X151249333Y-76483142D01*
X151296952Y-76530761D01*
X151392190Y-76578380D01*
X151582666Y-76578380D01*
X151677904Y-76530761D01*
X151725523Y-76483142D01*
X151773142Y-76387904D01*
X151773142Y-76149809D01*
X151725523Y-76054571D01*
X151677904Y-76006952D01*
X151582666Y-75959333D01*
X151392190Y-75959333D01*
X151296952Y-76006952D01*
X151249333Y-76054571D01*
X151201714Y-76149809D01*
X152154095Y-75673619D02*
X152201714Y-75626000D01*
X152296952Y-75578380D01*
X152535047Y-75578380D01*
X152630285Y-75626000D01*
X152677904Y-75673619D01*
X152725523Y-75768857D01*
X152725523Y-75864095D01*
X152677904Y-76006952D01*
X152106476Y-76578380D01*
X152725523Y-76578380D01*
X153582666Y-75578380D02*
X153392190Y-75578380D01*
X153296952Y-75626000D01*
X153249333Y-75673619D01*
X153154095Y-75816476D01*
X153106476Y-76006952D01*
X153106476Y-76387904D01*
X153154095Y-76483142D01*
X153201714Y-76530761D01*
X153296952Y-76578380D01*
X153487428Y-76578380D01*
X153582666Y-76530761D01*
X153630285Y-76483142D01*
X153677904Y-76387904D01*
X153677904Y-76149809D01*
X153630285Y-76054571D01*
X153582666Y-76006952D01*
X153487428Y-75959333D01*
X153296952Y-75959333D01*
X153201714Y-76006952D01*
X153154095Y-76054571D01*
X153106476Y-76149809D01*
X154535047Y-75911714D02*
X154535047Y-76578380D01*
X154296952Y-75530761D02*
X154058857Y-76245047D01*
X154677904Y-76245047D01*
X84074095Y-60412380D02*
X84074095Y-61221904D01*
X84121714Y-61317142D01*
X84169333Y-61364761D01*
X84264571Y-61412380D01*
X84455047Y-61412380D01*
X84550285Y-61364761D01*
X84597904Y-61317142D01*
X84645523Y-61221904D01*
X84645523Y-60412380D01*
X85645523Y-61412380D02*
X85074095Y-61412380D01*
X85359809Y-61412380D02*
X85359809Y-60412380D01*
X85264571Y-60555238D01*
X85169333Y-60650476D01*
X85074095Y-60698095D01*
X104100666Y-60412380D02*
X104338761Y-61412380D01*
X104529238Y-60698095D01*
X104719714Y-61412380D01*
X104957809Y-60412380D01*
X105338761Y-61412380D02*
X105338761Y-60412380D01*
X105576857Y-60412380D01*
X105719714Y-60460000D01*
X105814952Y-60555238D01*
X105862571Y-60650476D01*
X105910190Y-60840952D01*
X105910190Y-60983809D01*
X105862571Y-61174285D01*
X105814952Y-61269523D01*
X105719714Y-61364761D01*
X105576857Y-61412380D01*
X105338761Y-61412380D01*
X106862571Y-61412380D02*
X106291142Y-61412380D01*
X106576857Y-61412380D02*
X106576857Y-60412380D01*
X106481619Y-60555238D01*
X106386380Y-60650476D01*
X106291142Y-60698095D01*
X107195904Y-60412380D02*
X107862571Y-60412380D01*
X107434000Y-61412380D01*
X108148285Y-60412380D02*
X108814952Y-60412380D01*
X108386380Y-61412380D01*
X109148285Y-60507619D02*
X109195904Y-60460000D01*
X109291142Y-60412380D01*
X109529238Y-60412380D01*
X109624476Y-60460000D01*
X109672095Y-60507619D01*
X109719714Y-60602857D01*
X109719714Y-60698095D01*
X109672095Y-60840952D01*
X109100666Y-61412380D01*
X109719714Y-61412380D01*
X119245142Y-71064380D02*
X118911809Y-70588190D01*
X118673714Y-71064380D02*
X118673714Y-70064380D01*
X119054666Y-70064380D01*
X119149904Y-70112000D01*
X119197523Y-70159619D01*
X119245142Y-70254857D01*
X119245142Y-70397714D01*
X119197523Y-70492952D01*
X119149904Y-70540571D01*
X119054666Y-70588190D01*
X118673714Y-70588190D01*
X120197523Y-71064380D02*
X119626095Y-71064380D01*
X119911809Y-71064380D02*
X119911809Y-70064380D01*
X119816571Y-70207238D01*
X119721333Y-70302476D01*
X119626095Y-70350095D01*
X120578476Y-70159619D02*
X120626095Y-70112000D01*
X120721333Y-70064380D01*
X120959428Y-70064380D01*
X121054666Y-70112000D01*
X121102285Y-70159619D01*
X121149904Y-70254857D01*
X121149904Y-70350095D01*
X121102285Y-70492952D01*
X120530857Y-71064380D01*
X121149904Y-71064380D01*
X120467380Y-65460476D02*
X120467380Y-66031904D01*
X120467380Y-65746190D02*
X119467380Y-65746190D01*
X119610238Y-65841428D01*
X119705476Y-65936666D01*
X119753095Y-66031904D01*
X119467380Y-64841428D02*
X119467380Y-64746190D01*
X119515000Y-64650952D01*
X119562619Y-64603333D01*
X119657857Y-64555714D01*
X119848333Y-64508095D01*
X120086428Y-64508095D01*
X120276904Y-64555714D01*
X120372142Y-64603333D01*
X120419761Y-64650952D01*
X120467380Y-64746190D01*
X120467380Y-64841428D01*
X120419761Y-64936666D01*
X120372142Y-64984285D01*
X120276904Y-65031904D01*
X120086428Y-65079523D01*
X119848333Y-65079523D01*
X119657857Y-65031904D01*
X119562619Y-64984285D01*
X119515000Y-64936666D01*
X119467380Y-64841428D01*
X120467380Y-64079523D02*
X119467380Y-64079523D01*
X120467380Y-63508095D02*
X119895952Y-63936666D01*
X119467380Y-63508095D02*
X120038809Y-64079523D01*
X89606380Y-44457857D02*
X89130190Y-44791190D01*
X89606380Y-45029285D02*
X88606380Y-45029285D01*
X88606380Y-44648333D01*
X88654000Y-44553095D01*
X88701619Y-44505476D01*
X88796857Y-44457857D01*
X88939714Y-44457857D01*
X89034952Y-44505476D01*
X89082571Y-44553095D01*
X89130190Y-44648333D01*
X89130190Y-45029285D01*
X89606380Y-43505476D02*
X89606380Y-44076904D01*
X89606380Y-43791190D02*
X88606380Y-43791190D01*
X88749238Y-43886428D01*
X88844476Y-43981666D01*
X88892095Y-44076904D01*
X88606380Y-42886428D02*
X88606380Y-42791190D01*
X88654000Y-42695952D01*
X88701619Y-42648333D01*
X88796857Y-42600714D01*
X88987333Y-42553095D01*
X89225428Y-42553095D01*
X89415904Y-42600714D01*
X89511142Y-42648333D01*
X89558761Y-42695952D01*
X89606380Y-42791190D01*
X89606380Y-42886428D01*
X89558761Y-42981666D01*
X89511142Y-43029285D01*
X89415904Y-43076904D01*
X89225428Y-43124523D01*
X88987333Y-43124523D01*
X88796857Y-43076904D01*
X88701619Y-43029285D01*
X88654000Y-42981666D01*
X88606380Y-42886428D01*
X83058095Y-43267380D02*
X82867619Y-43267380D01*
X82772380Y-43315000D01*
X82724761Y-43362619D01*
X82629523Y-43505476D01*
X82581904Y-43695952D01*
X82581904Y-44076904D01*
X82629523Y-44172142D01*
X82677142Y-44219761D01*
X82772380Y-44267380D01*
X82962857Y-44267380D01*
X83058095Y-44219761D01*
X83105714Y-44172142D01*
X83153333Y-44076904D01*
X83153333Y-43838809D01*
X83105714Y-43743571D01*
X83058095Y-43695952D01*
X82962857Y-43648333D01*
X82772380Y-43648333D01*
X82677142Y-43695952D01*
X82629523Y-43743571D01*
X82581904Y-43838809D01*
X83724761Y-43695952D02*
X83629523Y-43648333D01*
X83581904Y-43600714D01*
X83534285Y-43505476D01*
X83534285Y-43457857D01*
X83581904Y-43362619D01*
X83629523Y-43315000D01*
X83724761Y-43267380D01*
X83915238Y-43267380D01*
X84010476Y-43315000D01*
X84058095Y-43362619D01*
X84105714Y-43457857D01*
X84105714Y-43505476D01*
X84058095Y-43600714D01*
X84010476Y-43648333D01*
X83915238Y-43695952D01*
X83724761Y-43695952D01*
X83629523Y-43743571D01*
X83581904Y-43791190D01*
X83534285Y-43886428D01*
X83534285Y-44076904D01*
X83581904Y-44172142D01*
X83629523Y-44219761D01*
X83724761Y-44267380D01*
X83915238Y-44267380D01*
X84010476Y-44219761D01*
X84058095Y-44172142D01*
X84105714Y-44076904D01*
X84105714Y-43886428D01*
X84058095Y-43791190D01*
X84010476Y-43743571D01*
X83915238Y-43695952D01*
X84724761Y-43267380D02*
X84820000Y-43267380D01*
X84915238Y-43315000D01*
X84962857Y-43362619D01*
X85010476Y-43457857D01*
X85058095Y-43648333D01*
X85058095Y-43886428D01*
X85010476Y-44076904D01*
X84962857Y-44172142D01*
X84915238Y-44219761D01*
X84820000Y-44267380D01*
X84724761Y-44267380D01*
X84629523Y-44219761D01*
X84581904Y-44172142D01*
X84534285Y-44076904D01*
X84486666Y-43886428D01*
X84486666Y-43648333D01*
X84534285Y-43457857D01*
X84581904Y-43362619D01*
X84629523Y-43315000D01*
X84724761Y-43267380D01*
X104846380Y-106846666D02*
X104370190Y-107180000D01*
X104846380Y-107418095D02*
X103846380Y-107418095D01*
X103846380Y-107037142D01*
X103894000Y-106941904D01*
X103941619Y-106894285D01*
X104036857Y-106846666D01*
X104179714Y-106846666D01*
X104274952Y-106894285D01*
X104322571Y-106941904D01*
X104370190Y-107037142D01*
X104370190Y-107418095D01*
X104846380Y-106370476D02*
X104846380Y-106180000D01*
X104798761Y-106084761D01*
X104751142Y-106037142D01*
X104608285Y-105941904D01*
X104417809Y-105894285D01*
X104036857Y-105894285D01*
X103941619Y-105941904D01*
X103894000Y-105989523D01*
X103846380Y-106084761D01*
X103846380Y-106275238D01*
X103894000Y-106370476D01*
X103941619Y-106418095D01*
X104036857Y-106465714D01*
X104274952Y-106465714D01*
X104370190Y-106418095D01*
X104417809Y-106370476D01*
X104465428Y-106275238D01*
X104465428Y-106084761D01*
X104417809Y-105989523D01*
X104370190Y-105941904D01*
X104274952Y-105894285D01*
X108997904Y-106481619D02*
X109045523Y-106434000D01*
X109140761Y-106386380D01*
X109378857Y-106386380D01*
X109474095Y-106434000D01*
X109521714Y-106481619D01*
X109569333Y-106576857D01*
X109569333Y-106672095D01*
X109521714Y-106814952D01*
X108950285Y-107386380D01*
X109569333Y-107386380D01*
X109902666Y-106386380D02*
X110569333Y-106386380D01*
X110140761Y-107386380D01*
X111140761Y-106386380D02*
X111236000Y-106386380D01*
X111331238Y-106434000D01*
X111378857Y-106481619D01*
X111426476Y-106576857D01*
X111474095Y-106767333D01*
X111474095Y-107005428D01*
X111426476Y-107195904D01*
X111378857Y-107291142D01*
X111331238Y-107338761D01*
X111236000Y-107386380D01*
X111140761Y-107386380D01*
X111045523Y-107338761D01*
X110997904Y-107291142D01*
X110950285Y-107195904D01*
X110902666Y-107005428D01*
X110902666Y-106767333D01*
X110950285Y-106576857D01*
X110997904Y-106481619D01*
X111045523Y-106434000D01*
X111140761Y-106386380D01*
X104846380Y-110148666D02*
X104370190Y-110482000D01*
X104846380Y-110720095D02*
X103846380Y-110720095D01*
X103846380Y-110339142D01*
X103894000Y-110243904D01*
X103941619Y-110196285D01*
X104036857Y-110148666D01*
X104179714Y-110148666D01*
X104274952Y-110196285D01*
X104322571Y-110243904D01*
X104370190Y-110339142D01*
X104370190Y-110720095D01*
X104274952Y-109577238D02*
X104227333Y-109672476D01*
X104179714Y-109720095D01*
X104084476Y-109767714D01*
X104036857Y-109767714D01*
X103941619Y-109720095D01*
X103894000Y-109672476D01*
X103846380Y-109577238D01*
X103846380Y-109386761D01*
X103894000Y-109291523D01*
X103941619Y-109243904D01*
X104036857Y-109196285D01*
X104084476Y-109196285D01*
X104179714Y-109243904D01*
X104227333Y-109291523D01*
X104274952Y-109386761D01*
X104274952Y-109577238D01*
X104322571Y-109672476D01*
X104370190Y-109720095D01*
X104465428Y-109767714D01*
X104655904Y-109767714D01*
X104751142Y-109720095D01*
X104798761Y-109672476D01*
X104846380Y-109577238D01*
X104846380Y-109386761D01*
X104798761Y-109291523D01*
X104751142Y-109243904D01*
X104655904Y-109196285D01*
X104465428Y-109196285D01*
X104370190Y-109243904D01*
X104322571Y-109291523D01*
X104274952Y-109386761D01*
X108720095Y-109529619D02*
X108767714Y-109482000D01*
X108862952Y-109434380D01*
X109101047Y-109434380D01*
X109196285Y-109482000D01*
X109243904Y-109529619D01*
X109291523Y-109624857D01*
X109291523Y-109720095D01*
X109243904Y-109862952D01*
X108672476Y-110434380D01*
X109291523Y-110434380D01*
X109720095Y-110434380D02*
X109720095Y-109434380D01*
X110291523Y-110434380D02*
X109862952Y-109862952D01*
X110291523Y-109434380D02*
X109720095Y-110005809D01*
X110672476Y-109529619D02*
X110720095Y-109482000D01*
X110815333Y-109434380D01*
X111053428Y-109434380D01*
X111148666Y-109482000D01*
X111196285Y-109529619D01*
X111243904Y-109624857D01*
X111243904Y-109720095D01*
X111196285Y-109862952D01*
X110624857Y-110434380D01*
X111243904Y-110434380D01*
X104846380Y-113450666D02*
X104370190Y-113784000D01*
X104846380Y-114022095D02*
X103846380Y-114022095D01*
X103846380Y-113641142D01*
X103894000Y-113545904D01*
X103941619Y-113498285D01*
X104036857Y-113450666D01*
X104179714Y-113450666D01*
X104274952Y-113498285D01*
X104322571Y-113545904D01*
X104370190Y-113641142D01*
X104370190Y-114022095D01*
X103846380Y-113117333D02*
X103846380Y-112450666D01*
X104846380Y-112879238D01*
X108720095Y-112831619D02*
X108767714Y-112784000D01*
X108862952Y-112736380D01*
X109101047Y-112736380D01*
X109196285Y-112784000D01*
X109243904Y-112831619D01*
X109291523Y-112926857D01*
X109291523Y-113022095D01*
X109243904Y-113164952D01*
X108672476Y-113736380D01*
X109291523Y-113736380D01*
X109720095Y-113736380D02*
X109720095Y-112736380D01*
X110291523Y-113736380D02*
X109862952Y-113164952D01*
X110291523Y-112736380D02*
X109720095Y-113307809D01*
X110672476Y-112831619D02*
X110720095Y-112784000D01*
X110815333Y-112736380D01*
X111053428Y-112736380D01*
X111148666Y-112784000D01*
X111196285Y-112831619D01*
X111243904Y-112926857D01*
X111243904Y-113022095D01*
X111196285Y-113164952D01*
X110624857Y-113736380D01*
X111243904Y-113736380D01*
X89606380Y-47156666D02*
X89130190Y-47490000D01*
X89606380Y-47728095D02*
X88606380Y-47728095D01*
X88606380Y-47347142D01*
X88654000Y-47251904D01*
X88701619Y-47204285D01*
X88796857Y-47156666D01*
X88939714Y-47156666D01*
X89034952Y-47204285D01*
X89082571Y-47251904D01*
X89130190Y-47347142D01*
X89130190Y-47728095D01*
X88606380Y-46299523D02*
X88606380Y-46490000D01*
X88654000Y-46585238D01*
X88701619Y-46632857D01*
X88844476Y-46728095D01*
X89034952Y-46775714D01*
X89415904Y-46775714D01*
X89511142Y-46728095D01*
X89558761Y-46680476D01*
X89606380Y-46585238D01*
X89606380Y-46394761D01*
X89558761Y-46299523D01*
X89511142Y-46251904D01*
X89415904Y-46204285D01*
X89177809Y-46204285D01*
X89082571Y-46251904D01*
X89034952Y-46299523D01*
X88987333Y-46394761D01*
X88987333Y-46585238D01*
X89034952Y-46680476D01*
X89082571Y-46728095D01*
X89177809Y-46775714D01*
X82804095Y-46442380D02*
X82613619Y-46442380D01*
X82518380Y-46490000D01*
X82470761Y-46537619D01*
X82375523Y-46680476D01*
X82327904Y-46870952D01*
X82327904Y-47251904D01*
X82375523Y-47347142D01*
X82423142Y-47394761D01*
X82518380Y-47442380D01*
X82708857Y-47442380D01*
X82804095Y-47394761D01*
X82851714Y-47347142D01*
X82899333Y-47251904D01*
X82899333Y-47013809D01*
X82851714Y-46918571D01*
X82804095Y-46870952D01*
X82708857Y-46823333D01*
X82518380Y-46823333D01*
X82423142Y-46870952D01*
X82375523Y-46918571D01*
X82327904Y-47013809D01*
X83470761Y-46870952D02*
X83375523Y-46823333D01*
X83327904Y-46775714D01*
X83280285Y-46680476D01*
X83280285Y-46632857D01*
X83327904Y-46537619D01*
X83375523Y-46490000D01*
X83470761Y-46442380D01*
X83661238Y-46442380D01*
X83756476Y-46490000D01*
X83804095Y-46537619D01*
X83851714Y-46632857D01*
X83851714Y-46680476D01*
X83804095Y-46775714D01*
X83756476Y-46823333D01*
X83661238Y-46870952D01*
X83470761Y-46870952D01*
X83375523Y-46918571D01*
X83327904Y-46966190D01*
X83280285Y-47061428D01*
X83280285Y-47251904D01*
X83327904Y-47347142D01*
X83375523Y-47394761D01*
X83470761Y-47442380D01*
X83661238Y-47442380D01*
X83756476Y-47394761D01*
X83804095Y-47347142D01*
X83851714Y-47251904D01*
X83851714Y-47061428D01*
X83804095Y-46966190D01*
X83756476Y-46918571D01*
X83661238Y-46870952D01*
X84470761Y-46442380D02*
X84566000Y-46442380D01*
X84661238Y-46490000D01*
X84708857Y-46537619D01*
X84756476Y-46632857D01*
X84804095Y-46823333D01*
X84804095Y-47061428D01*
X84756476Y-47251904D01*
X84708857Y-47347142D01*
X84661238Y-47394761D01*
X84566000Y-47442380D01*
X84470761Y-47442380D01*
X84375523Y-47394761D01*
X84327904Y-47347142D01*
X84280285Y-47251904D01*
X84232666Y-47061428D01*
X84232666Y-46823333D01*
X84280285Y-46632857D01*
X84327904Y-46537619D01*
X84375523Y-46490000D01*
X84470761Y-46442380D01*
X114244380Y-50458666D02*
X113768190Y-50792000D01*
X114244380Y-51030095D02*
X113244380Y-51030095D01*
X113244380Y-50649142D01*
X113292000Y-50553904D01*
X113339619Y-50506285D01*
X113434857Y-50458666D01*
X113577714Y-50458666D01*
X113672952Y-50506285D01*
X113720571Y-50553904D01*
X113768190Y-50649142D01*
X113768190Y-51030095D01*
X113577714Y-49601523D02*
X114244380Y-49601523D01*
X113196761Y-49839619D02*
X113911047Y-50077714D01*
X113911047Y-49458666D01*
X115578095Y-50077714D02*
X115578095Y-50744380D01*
X115340000Y-49696761D02*
X115101904Y-50411047D01*
X115720952Y-50411047D01*
X116006666Y-49744380D02*
X116673333Y-49744380D01*
X116244761Y-50744380D01*
X117244761Y-49744380D02*
X117340000Y-49744380D01*
X117435238Y-49792000D01*
X117482857Y-49839619D01*
X117530476Y-49934857D01*
X117578095Y-50125333D01*
X117578095Y-50363428D01*
X117530476Y-50553904D01*
X117482857Y-50649142D01*
X117435238Y-50696761D01*
X117340000Y-50744380D01*
X117244761Y-50744380D01*
X117149523Y-50696761D01*
X117101904Y-50649142D01*
X117054285Y-50553904D01*
X117006666Y-50363428D01*
X117006666Y-50125333D01*
X117054285Y-49934857D01*
X117101904Y-49839619D01*
X117149523Y-49792000D01*
X117244761Y-49744380D01*
X118578095Y-50744380D02*
X118244761Y-50268190D01*
X118006666Y-50744380D02*
X118006666Y-49744380D01*
X118387619Y-49744380D01*
X118482857Y-49792000D01*
X118530476Y-49839619D01*
X118578095Y-49934857D01*
X118578095Y-50077714D01*
X118530476Y-50172952D01*
X118482857Y-50220571D01*
X118387619Y-50268190D01*
X118006666Y-50268190D01*
X93924380Y-50458666D02*
X93448190Y-50792000D01*
X93924380Y-51030095D02*
X92924380Y-51030095D01*
X92924380Y-50649142D01*
X92972000Y-50553904D01*
X93019619Y-50506285D01*
X93114857Y-50458666D01*
X93257714Y-50458666D01*
X93352952Y-50506285D01*
X93400571Y-50553904D01*
X93448190Y-50649142D01*
X93448190Y-51030095D01*
X93019619Y-50077714D02*
X92972000Y-50030095D01*
X92924380Y-49934857D01*
X92924380Y-49696761D01*
X92972000Y-49601523D01*
X93019619Y-49553904D01*
X93114857Y-49506285D01*
X93210095Y-49506285D01*
X93352952Y-49553904D01*
X93924380Y-50125333D01*
X93924380Y-49506285D01*
X95258095Y-50077714D02*
X95258095Y-50744380D01*
X95020000Y-49696761D02*
X94781904Y-50411047D01*
X95400952Y-50411047D01*
X95686666Y-49744380D02*
X96353333Y-49744380D01*
X95924761Y-50744380D01*
X96924761Y-49744380D02*
X97020000Y-49744380D01*
X97115238Y-49792000D01*
X97162857Y-49839619D01*
X97210476Y-49934857D01*
X97258095Y-50125333D01*
X97258095Y-50363428D01*
X97210476Y-50553904D01*
X97162857Y-50649142D01*
X97115238Y-50696761D01*
X97020000Y-50744380D01*
X96924761Y-50744380D01*
X96829523Y-50696761D01*
X96781904Y-50649142D01*
X96734285Y-50553904D01*
X96686666Y-50363428D01*
X96686666Y-50125333D01*
X96734285Y-49934857D01*
X96781904Y-49839619D01*
X96829523Y-49792000D01*
X96924761Y-49744380D01*
X98258095Y-50744380D02*
X97924761Y-50268190D01*
X97686666Y-50744380D02*
X97686666Y-49744380D01*
X98067619Y-49744380D01*
X98162857Y-49792000D01*
X98210476Y-49839619D01*
X98258095Y-49934857D01*
X98258095Y-50077714D01*
X98210476Y-50172952D01*
X98162857Y-50220571D01*
X98067619Y-50268190D01*
X97686666Y-50268190D01*
X89606380Y-50331666D02*
X89130190Y-50665000D01*
X89606380Y-50903095D02*
X88606380Y-50903095D01*
X88606380Y-50522142D01*
X88654000Y-50426904D01*
X88701619Y-50379285D01*
X88796857Y-50331666D01*
X88939714Y-50331666D01*
X89034952Y-50379285D01*
X89082571Y-50426904D01*
X89130190Y-50522142D01*
X89130190Y-50903095D01*
X89606380Y-49379285D02*
X89606380Y-49950714D01*
X89606380Y-49665000D02*
X88606380Y-49665000D01*
X88749238Y-49760238D01*
X88844476Y-49855476D01*
X88892095Y-49950714D01*
X83320095Y-50077714D02*
X83320095Y-50744380D01*
X83082000Y-49696761D02*
X82843904Y-50411047D01*
X83462952Y-50411047D01*
X83748666Y-49744380D02*
X84415333Y-49744380D01*
X83986761Y-50744380D01*
X84986761Y-49744380D02*
X85082000Y-49744380D01*
X85177238Y-49792000D01*
X85224857Y-49839619D01*
X85272476Y-49934857D01*
X85320095Y-50125333D01*
X85320095Y-50363428D01*
X85272476Y-50553904D01*
X85224857Y-50649142D01*
X85177238Y-50696761D01*
X85082000Y-50744380D01*
X84986761Y-50744380D01*
X84891523Y-50696761D01*
X84843904Y-50649142D01*
X84796285Y-50553904D01*
X84748666Y-50363428D01*
X84748666Y-50125333D01*
X84796285Y-49934857D01*
X84843904Y-49839619D01*
X84891523Y-49792000D01*
X84986761Y-49744380D01*
X86320095Y-50744380D02*
X85986761Y-50268190D01*
X85748666Y-50744380D02*
X85748666Y-49744380D01*
X86129619Y-49744380D01*
X86224857Y-49792000D01*
X86272476Y-49839619D01*
X86320095Y-49934857D01*
X86320095Y-50077714D01*
X86272476Y-50172952D01*
X86224857Y-50220571D01*
X86129619Y-50268190D01*
X85748666Y-50268190D01*
X124884666Y-117812380D02*
X124884666Y-118526666D01*
X124837047Y-118669523D01*
X124741809Y-118764761D01*
X124598952Y-118812380D01*
X124503714Y-118812380D01*
X125884666Y-118812380D02*
X125313238Y-118812380D01*
X125598952Y-118812380D02*
X125598952Y-117812380D01*
X125503714Y-117955238D01*
X125408476Y-118050476D01*
X125313238Y-118098095D01*
X119594380Y-28273333D02*
X120308666Y-28273333D01*
X120451523Y-28320952D01*
X120546761Y-28416190D01*
X120594380Y-28559047D01*
X120594380Y-28654285D01*
X119594380Y-27892380D02*
X119594380Y-27273333D01*
X119975333Y-27606666D01*
X119975333Y-27463809D01*
X120022952Y-27368571D01*
X120070571Y-27320952D01*
X120165809Y-27273333D01*
X120403904Y-27273333D01*
X120499142Y-27320952D01*
X120546761Y-27368571D01*
X120594380Y-27463809D01*
X120594380Y-27749523D01*
X120546761Y-27844761D01*
X120499142Y-27892380D01*
X130238761Y-26614380D02*
X130238761Y-25614380D01*
X130619714Y-25614380D01*
X130714952Y-25662000D01*
X130762571Y-25709619D01*
X130810190Y-25804857D01*
X130810190Y-25947714D01*
X130762571Y-26042952D01*
X130714952Y-26090571D01*
X130619714Y-26138190D01*
X130238761Y-26138190D01*
X131191142Y-26328666D02*
X131667333Y-26328666D01*
X131095904Y-26614380D02*
X131429238Y-25614380D01*
X131762571Y-26614380D01*
X132667333Y-26614380D02*
X132334000Y-26138190D01*
X132095904Y-26614380D02*
X132095904Y-25614380D01*
X132476857Y-25614380D01*
X132572095Y-25662000D01*
X132619714Y-25709619D01*
X132667333Y-25804857D01*
X132667333Y-25947714D01*
X132619714Y-26042952D01*
X132572095Y-26090571D01*
X132476857Y-26138190D01*
X132095904Y-26138190D01*
X133048285Y-26328666D02*
X133524476Y-26328666D01*
X132953047Y-26614380D02*
X133286380Y-25614380D01*
X133619714Y-26614380D01*
X134429238Y-26614380D02*
X133953047Y-26614380D01*
X133953047Y-25614380D01*
X135238761Y-26614380D02*
X134762571Y-26614380D01*
X134762571Y-25614380D01*
X135572095Y-26090571D02*
X135905428Y-26090571D01*
X136048285Y-26614380D02*
X135572095Y-26614380D01*
X135572095Y-25614380D01*
X136048285Y-25614380D01*
X136953047Y-26614380D02*
X136476857Y-26614380D01*
X136476857Y-25614380D01*
X137048285Y-26709619D02*
X137810190Y-26709619D01*
X138619714Y-26519142D02*
X138572095Y-26566761D01*
X138429238Y-26614380D01*
X138334000Y-26614380D01*
X138191142Y-26566761D01*
X138095904Y-26471523D01*
X138048285Y-26376285D01*
X138000666Y-26185809D01*
X138000666Y-26042952D01*
X138048285Y-25852476D01*
X138095904Y-25757238D01*
X138191142Y-25662000D01*
X138334000Y-25614380D01*
X138429238Y-25614380D01*
X138572095Y-25662000D01*
X138619714Y-25709619D01*
X139238761Y-25614380D02*
X139429238Y-25614380D01*
X139524476Y-25662000D01*
X139619714Y-25757238D01*
X139667333Y-25947714D01*
X139667333Y-26281047D01*
X139619714Y-26471523D01*
X139524476Y-26566761D01*
X139429238Y-26614380D01*
X139238761Y-26614380D01*
X139143523Y-26566761D01*
X139048285Y-26471523D01*
X139000666Y-26281047D01*
X139000666Y-25947714D01*
X139048285Y-25757238D01*
X139143523Y-25662000D01*
X139238761Y-25614380D01*
X140095904Y-26614380D02*
X140095904Y-25614380D01*
X140667333Y-26614380D01*
X140667333Y-25614380D01*
X141143523Y-26614380D02*
X141143523Y-25614380D01*
X141714952Y-26614380D01*
X141714952Y-25614380D01*
X142191142Y-26090571D02*
X142524476Y-26090571D01*
X142667333Y-26614380D02*
X142191142Y-26614380D01*
X142191142Y-25614380D01*
X142667333Y-25614380D01*
X143667333Y-26519142D02*
X143619714Y-26566761D01*
X143476857Y-26614380D01*
X143381619Y-26614380D01*
X143238761Y-26566761D01*
X143143523Y-26471523D01*
X143095904Y-26376285D01*
X143048285Y-26185809D01*
X143048285Y-26042952D01*
X143095904Y-25852476D01*
X143143523Y-25757238D01*
X143238761Y-25662000D01*
X143381619Y-25614380D01*
X143476857Y-25614380D01*
X143619714Y-25662000D01*
X143667333Y-25709619D01*
X143953047Y-25614380D02*
X144524476Y-25614380D01*
X144238761Y-26614380D02*
X144238761Y-25614380D01*
X145048285Y-25614380D02*
X145238761Y-25614380D01*
X145334000Y-25662000D01*
X145429238Y-25757238D01*
X145476857Y-25947714D01*
X145476857Y-26281047D01*
X145429238Y-26471523D01*
X145334000Y-26566761D01*
X145238761Y-26614380D01*
X145048285Y-26614380D01*
X144953047Y-26566761D01*
X144857809Y-26471523D01*
X144810190Y-26281047D01*
X144810190Y-25947714D01*
X144857809Y-25757238D01*
X144953047Y-25662000D01*
X145048285Y-25614380D01*
X146476857Y-26614380D02*
X146143523Y-26138190D01*
X145905428Y-26614380D02*
X145905428Y-25614380D01*
X146286380Y-25614380D01*
X146381619Y-25662000D01*
X146429238Y-25709619D01*
X146476857Y-25804857D01*
X146476857Y-25947714D01*
X146429238Y-26042952D01*
X146381619Y-26090571D01*
X146286380Y-26138190D01*
X145905428Y-26138190D01*
X122166142Y-56872142D02*
X122118523Y-56919761D01*
X121975666Y-56967380D01*
X121880428Y-56967380D01*
X121737571Y-56919761D01*
X121642333Y-56824523D01*
X121594714Y-56729285D01*
X121547095Y-56538809D01*
X121547095Y-56395952D01*
X121594714Y-56205476D01*
X121642333Y-56110238D01*
X121737571Y-56015000D01*
X121880428Y-55967380D01*
X121975666Y-55967380D01*
X122118523Y-56015000D01*
X122166142Y-56062619D01*
X123118523Y-56967380D02*
X122547095Y-56967380D01*
X122832809Y-56967380D02*
X122832809Y-55967380D01*
X122737571Y-56110238D01*
X122642333Y-56205476D01*
X122547095Y-56253095D01*
X123499476Y-56062619D02*
X123547095Y-56015000D01*
X123642333Y-55967380D01*
X123880428Y-55967380D01*
X123975666Y-56015000D01*
X124023285Y-56062619D01*
X124070904Y-56157857D01*
X124070904Y-56253095D01*
X124023285Y-56395952D01*
X123451857Y-56967380D01*
X124070904Y-56967380D01*
X122880380Y-53316047D02*
X122880380Y-53887476D01*
X122880380Y-53601761D02*
X121880380Y-53601761D01*
X122023238Y-53697000D01*
X122118476Y-53792238D01*
X122166095Y-53887476D01*
X121880380Y-52697000D02*
X121880380Y-52601761D01*
X121928000Y-52506523D01*
X121975619Y-52458904D01*
X122070857Y-52411285D01*
X122261333Y-52363666D01*
X122499428Y-52363666D01*
X122689904Y-52411285D01*
X122785142Y-52458904D01*
X122832761Y-52506523D01*
X122880380Y-52601761D01*
X122880380Y-52697000D01*
X122832761Y-52792238D01*
X122785142Y-52839857D01*
X122689904Y-52887476D01*
X122499428Y-52935095D01*
X122261333Y-52935095D01*
X122070857Y-52887476D01*
X121975619Y-52839857D01*
X121928000Y-52792238D01*
X121880380Y-52697000D01*
X121880380Y-51744619D02*
X121880380Y-51649380D01*
X121928000Y-51554142D01*
X121975619Y-51506523D01*
X122070857Y-51458904D01*
X122261333Y-51411285D01*
X122499428Y-51411285D01*
X122689904Y-51458904D01*
X122785142Y-51506523D01*
X122832761Y-51554142D01*
X122880380Y-51649380D01*
X122880380Y-51744619D01*
X122832761Y-51839857D01*
X122785142Y-51887476D01*
X122689904Y-51935095D01*
X122499428Y-51982714D01*
X122261333Y-51982714D01*
X122070857Y-51935095D01*
X121975619Y-51887476D01*
X121928000Y-51839857D01*
X121880380Y-51744619D01*
X122213714Y-50982714D02*
X122880380Y-50982714D01*
X122308952Y-50982714D02*
X122261333Y-50935095D01*
X122213714Y-50839857D01*
X122213714Y-50697000D01*
X122261333Y-50601761D01*
X122356571Y-50554142D01*
X122880380Y-50554142D01*
X108577142Y-90146142D02*
X108529523Y-90193761D01*
X108386666Y-90241380D01*
X108291428Y-90241380D01*
X108148571Y-90193761D01*
X108053333Y-90098523D01*
X108005714Y-90003285D01*
X107958095Y-89812809D01*
X107958095Y-89669952D01*
X108005714Y-89479476D01*
X108053333Y-89384238D01*
X108148571Y-89289000D01*
X108291428Y-89241380D01*
X108386666Y-89241380D01*
X108529523Y-89289000D01*
X108577142Y-89336619D01*
X109529523Y-90241380D02*
X108958095Y-90241380D01*
X109243809Y-90241380D02*
X109243809Y-89241380D01*
X109148571Y-89384238D01*
X109053333Y-89479476D01*
X108958095Y-89527095D01*
X110481904Y-90241380D02*
X109910476Y-90241380D01*
X110196190Y-90241380D02*
X110196190Y-89241380D01*
X110100952Y-89384238D01*
X110005714Y-89479476D01*
X109910476Y-89527095D01*
X110180380Y-95400619D02*
X110180380Y-95972047D01*
X110180380Y-95686333D02*
X109180380Y-95686333D01*
X109323238Y-95781571D01*
X109418476Y-95876809D01*
X109466095Y-95972047D01*
X109180380Y-94781571D02*
X109180380Y-94686333D01*
X109228000Y-94591095D01*
X109275619Y-94543476D01*
X109370857Y-94495857D01*
X109561333Y-94448238D01*
X109799428Y-94448238D01*
X109989904Y-94495857D01*
X110085142Y-94543476D01*
X110132761Y-94591095D01*
X110180380Y-94686333D01*
X110180380Y-94781571D01*
X110132761Y-94876809D01*
X110085142Y-94924428D01*
X109989904Y-94972047D01*
X109799428Y-95019666D01*
X109561333Y-95019666D01*
X109370857Y-94972047D01*
X109275619Y-94924428D01*
X109228000Y-94876809D01*
X109180380Y-94781571D01*
X109180380Y-93829190D02*
X109180380Y-93733952D01*
X109228000Y-93638714D01*
X109275619Y-93591095D01*
X109370857Y-93543476D01*
X109561333Y-93495857D01*
X109799428Y-93495857D01*
X109989904Y-93543476D01*
X110085142Y-93591095D01*
X110132761Y-93638714D01*
X110180380Y-93733952D01*
X110180380Y-93829190D01*
X110132761Y-93924428D01*
X110085142Y-93972047D01*
X109989904Y-94019666D01*
X109799428Y-94067285D01*
X109561333Y-94067285D01*
X109370857Y-94019666D01*
X109275619Y-93972047D01*
X109228000Y-93924428D01*
X109180380Y-93829190D01*
X109513714Y-93067285D02*
X110180380Y-93067285D01*
X109608952Y-93067285D02*
X109561333Y-93019666D01*
X109513714Y-92924428D01*
X109513714Y-92781571D01*
X109561333Y-92686333D01*
X109656571Y-92638714D01*
X110180380Y-92638714D01*
X109656571Y-91829190D02*
X109656571Y-92162523D01*
X110180380Y-92162523D02*
X109180380Y-92162523D01*
X109180380Y-91686333D01*
X133850142Y-94972142D02*
X133802523Y-95019761D01*
X133659666Y-95067380D01*
X133564428Y-95067380D01*
X133421571Y-95019761D01*
X133326333Y-94924523D01*
X133278714Y-94829285D01*
X133231095Y-94638809D01*
X133231095Y-94495952D01*
X133278714Y-94305476D01*
X133326333Y-94210238D01*
X133421571Y-94115000D01*
X133564428Y-94067380D01*
X133659666Y-94067380D01*
X133802523Y-94115000D01*
X133850142Y-94162619D01*
X134802523Y-95067380D02*
X134231095Y-95067380D01*
X134516809Y-95067380D02*
X134516809Y-94067380D01*
X134421571Y-94210238D01*
X134326333Y-94305476D01*
X134231095Y-94353095D01*
X135421571Y-94067380D02*
X135516809Y-94067380D01*
X135612047Y-94115000D01*
X135659666Y-94162619D01*
X135707285Y-94257857D01*
X135754904Y-94448333D01*
X135754904Y-94686428D01*
X135707285Y-94876904D01*
X135659666Y-94972142D01*
X135612047Y-95019761D01*
X135516809Y-95067380D01*
X135421571Y-95067380D01*
X135326333Y-95019761D01*
X135278714Y-94972142D01*
X135231095Y-94876904D01*
X135183476Y-94686428D01*
X135183476Y-94448333D01*
X135231095Y-94257857D01*
X135278714Y-94162619D01*
X135326333Y-94115000D01*
X135421571Y-94067380D01*
X135453380Y-91456047D02*
X135453380Y-92027476D01*
X135453380Y-91741761D02*
X134453380Y-91741761D01*
X134596238Y-91837000D01*
X134691476Y-91932238D01*
X134739095Y-92027476D01*
X134453380Y-90837000D02*
X134453380Y-90741761D01*
X134501000Y-90646523D01*
X134548619Y-90598904D01*
X134643857Y-90551285D01*
X134834333Y-90503666D01*
X135072428Y-90503666D01*
X135262904Y-90551285D01*
X135358142Y-90598904D01*
X135405761Y-90646523D01*
X135453380Y-90741761D01*
X135453380Y-90837000D01*
X135405761Y-90932238D01*
X135358142Y-90979857D01*
X135262904Y-91027476D01*
X135072428Y-91075095D01*
X134834333Y-91075095D01*
X134643857Y-91027476D01*
X134548619Y-90979857D01*
X134501000Y-90932238D01*
X134453380Y-90837000D01*
X134453380Y-89884619D02*
X134453380Y-89789380D01*
X134501000Y-89694142D01*
X134548619Y-89646523D01*
X134643857Y-89598904D01*
X134834333Y-89551285D01*
X135072428Y-89551285D01*
X135262904Y-89598904D01*
X135358142Y-89646523D01*
X135405761Y-89694142D01*
X135453380Y-89789380D01*
X135453380Y-89884619D01*
X135405761Y-89979857D01*
X135358142Y-90027476D01*
X135262904Y-90075095D01*
X135072428Y-90122714D01*
X134834333Y-90122714D01*
X134643857Y-90075095D01*
X134548619Y-90027476D01*
X134501000Y-89979857D01*
X134453380Y-89884619D01*
X134786714Y-89122714D02*
X135453380Y-89122714D01*
X134881952Y-89122714D02*
X134834333Y-89075095D01*
X134786714Y-88979857D01*
X134786714Y-88837000D01*
X134834333Y-88741761D01*
X134929571Y-88694142D01*
X135453380Y-88694142D01*
X112101333Y-94972142D02*
X112053714Y-95019761D01*
X111910857Y-95067380D01*
X111815619Y-95067380D01*
X111672761Y-95019761D01*
X111577523Y-94924523D01*
X111529904Y-94829285D01*
X111482285Y-94638809D01*
X111482285Y-94495952D01*
X111529904Y-94305476D01*
X111577523Y-94210238D01*
X111672761Y-94115000D01*
X111815619Y-94067380D01*
X111910857Y-94067380D01*
X112053714Y-94115000D01*
X112101333Y-94162619D01*
X112577523Y-95067380D02*
X112768000Y-95067380D01*
X112863238Y-95019761D01*
X112910857Y-94972142D01*
X113006095Y-94829285D01*
X113053714Y-94638809D01*
X113053714Y-94257857D01*
X113006095Y-94162619D01*
X112958476Y-94115000D01*
X112863238Y-94067380D01*
X112672761Y-94067380D01*
X112577523Y-94115000D01*
X112529904Y-94162619D01*
X112482285Y-94257857D01*
X112482285Y-94495952D01*
X112529904Y-94591190D01*
X112577523Y-94638809D01*
X112672761Y-94686428D01*
X112863238Y-94686428D01*
X112958476Y-94638809D01*
X113006095Y-94591190D01*
X113053714Y-94495952D01*
X113228380Y-91456047D02*
X113228380Y-92027476D01*
X113228380Y-91741761D02*
X112228380Y-91741761D01*
X112371238Y-91837000D01*
X112466476Y-91932238D01*
X112514095Y-92027476D01*
X112228380Y-90837000D02*
X112228380Y-90741761D01*
X112276000Y-90646523D01*
X112323619Y-90598904D01*
X112418857Y-90551285D01*
X112609333Y-90503666D01*
X112847428Y-90503666D01*
X113037904Y-90551285D01*
X113133142Y-90598904D01*
X113180761Y-90646523D01*
X113228380Y-90741761D01*
X113228380Y-90837000D01*
X113180761Y-90932238D01*
X113133142Y-90979857D01*
X113037904Y-91027476D01*
X112847428Y-91075095D01*
X112609333Y-91075095D01*
X112418857Y-91027476D01*
X112323619Y-90979857D01*
X112276000Y-90932238D01*
X112228380Y-90837000D01*
X112228380Y-89884619D02*
X112228380Y-89789380D01*
X112276000Y-89694142D01*
X112323619Y-89646523D01*
X112418857Y-89598904D01*
X112609333Y-89551285D01*
X112847428Y-89551285D01*
X113037904Y-89598904D01*
X113133142Y-89646523D01*
X113180761Y-89694142D01*
X113228380Y-89789380D01*
X113228380Y-89884619D01*
X113180761Y-89979857D01*
X113133142Y-90027476D01*
X113037904Y-90075095D01*
X112847428Y-90122714D01*
X112609333Y-90122714D01*
X112418857Y-90075095D01*
X112323619Y-90027476D01*
X112276000Y-89979857D01*
X112228380Y-89884619D01*
X112561714Y-89122714D02*
X113228380Y-89122714D01*
X112656952Y-89122714D02*
X112609333Y-89075095D01*
X112561714Y-88979857D01*
X112561714Y-88837000D01*
X112609333Y-88741761D01*
X112704571Y-88694142D01*
X113228380Y-88694142D01*
X111609142Y-73064666D02*
X111656761Y-73112285D01*
X111704380Y-73255142D01*
X111704380Y-73350380D01*
X111656761Y-73493238D01*
X111561523Y-73588476D01*
X111466285Y-73636095D01*
X111275809Y-73683714D01*
X111132952Y-73683714D01*
X110942476Y-73636095D01*
X110847238Y-73588476D01*
X110752000Y-73493238D01*
X110704380Y-73350380D01*
X110704380Y-73255142D01*
X110752000Y-73112285D01*
X110799619Y-73064666D01*
X111132952Y-72493238D02*
X111085333Y-72588476D01*
X111037714Y-72636095D01*
X110942476Y-72683714D01*
X110894857Y-72683714D01*
X110799619Y-72636095D01*
X110752000Y-72588476D01*
X110704380Y-72493238D01*
X110704380Y-72302761D01*
X110752000Y-72207523D01*
X110799619Y-72159904D01*
X110894857Y-72112285D01*
X110942476Y-72112285D01*
X111037714Y-72159904D01*
X111085333Y-72207523D01*
X111132952Y-72302761D01*
X111132952Y-72493238D01*
X111180571Y-72588476D01*
X111228190Y-72636095D01*
X111323428Y-72683714D01*
X111513904Y-72683714D01*
X111609142Y-72636095D01*
X111656761Y-72588476D01*
X111704380Y-72493238D01*
X111704380Y-72302761D01*
X111656761Y-72207523D01*
X111609142Y-72159904D01*
X111513904Y-72112285D01*
X111323428Y-72112285D01*
X111228190Y-72159904D01*
X111180571Y-72207523D01*
X111132952Y-72302761D01*
X105814952Y-72842380D02*
X105243523Y-72842380D01*
X105529238Y-72842380D02*
X105529238Y-71842380D01*
X105434000Y-71985238D01*
X105338761Y-72080476D01*
X105243523Y-72128095D01*
X106434000Y-71842380D02*
X106529238Y-71842380D01*
X106624476Y-71890000D01*
X106672095Y-71937619D01*
X106719714Y-72032857D01*
X106767333Y-72223333D01*
X106767333Y-72461428D01*
X106719714Y-72651904D01*
X106672095Y-72747142D01*
X106624476Y-72794761D01*
X106529238Y-72842380D01*
X106434000Y-72842380D01*
X106338761Y-72794761D01*
X106291142Y-72747142D01*
X106243523Y-72651904D01*
X106195904Y-72461428D01*
X106195904Y-72223333D01*
X106243523Y-72032857D01*
X106291142Y-71937619D01*
X106338761Y-71890000D01*
X106434000Y-71842380D01*
X107386380Y-71842380D02*
X107481619Y-71842380D01*
X107576857Y-71890000D01*
X107624476Y-71937619D01*
X107672095Y-72032857D01*
X107719714Y-72223333D01*
X107719714Y-72461428D01*
X107672095Y-72651904D01*
X107624476Y-72747142D01*
X107576857Y-72794761D01*
X107481619Y-72842380D01*
X107386380Y-72842380D01*
X107291142Y-72794761D01*
X107243523Y-72747142D01*
X107195904Y-72651904D01*
X107148285Y-72461428D01*
X107148285Y-72223333D01*
X107195904Y-72032857D01*
X107243523Y-71937619D01*
X107291142Y-71890000D01*
X107386380Y-71842380D01*
X108148285Y-72175714D02*
X108148285Y-72842380D01*
X108148285Y-72270952D02*
X108195904Y-72223333D01*
X108291142Y-72175714D01*
X108434000Y-72175714D01*
X108529238Y-72223333D01*
X108576857Y-72318571D01*
X108576857Y-72842380D01*
X130913142Y-34837666D02*
X130960761Y-34885285D01*
X131008380Y-35028142D01*
X131008380Y-35123380D01*
X130960761Y-35266238D01*
X130865523Y-35361476D01*
X130770285Y-35409095D01*
X130579809Y-35456714D01*
X130436952Y-35456714D01*
X130246476Y-35409095D01*
X130151238Y-35361476D01*
X130056000Y-35266238D01*
X130008380Y-35123380D01*
X130008380Y-35028142D01*
X130056000Y-34885285D01*
X130103619Y-34837666D01*
X130008380Y-34504333D02*
X130008380Y-33837666D01*
X131008380Y-34266238D01*
X125372952Y-34869380D02*
X124801523Y-34869380D01*
X125087238Y-34869380D02*
X125087238Y-33869380D01*
X124992000Y-34012238D01*
X124896761Y-34107476D01*
X124801523Y-34155095D01*
X125992000Y-33869380D02*
X126087238Y-33869380D01*
X126182476Y-33917000D01*
X126230095Y-33964619D01*
X126277714Y-34059857D01*
X126325333Y-34250333D01*
X126325333Y-34488428D01*
X126277714Y-34678904D01*
X126230095Y-34774142D01*
X126182476Y-34821761D01*
X126087238Y-34869380D01*
X125992000Y-34869380D01*
X125896761Y-34821761D01*
X125849142Y-34774142D01*
X125801523Y-34678904D01*
X125753904Y-34488428D01*
X125753904Y-34250333D01*
X125801523Y-34059857D01*
X125849142Y-33964619D01*
X125896761Y-33917000D01*
X125992000Y-33869380D01*
X126944380Y-33869380D02*
X127039619Y-33869380D01*
X127134857Y-33917000D01*
X127182476Y-33964619D01*
X127230095Y-34059857D01*
X127277714Y-34250333D01*
X127277714Y-34488428D01*
X127230095Y-34678904D01*
X127182476Y-34774142D01*
X127134857Y-34821761D01*
X127039619Y-34869380D01*
X126944380Y-34869380D01*
X126849142Y-34821761D01*
X126801523Y-34774142D01*
X126753904Y-34678904D01*
X126706285Y-34488428D01*
X126706285Y-34250333D01*
X126753904Y-34059857D01*
X126801523Y-33964619D01*
X126849142Y-33917000D01*
X126944380Y-33869380D01*
X127706285Y-34202714D02*
X127706285Y-34869380D01*
X127706285Y-34297952D02*
X127753904Y-34250333D01*
X127849142Y-34202714D01*
X127992000Y-34202714D01*
X128087238Y-34250333D01*
X128134857Y-34345571D01*
X128134857Y-34869380D01*
X67667142Y-81700666D02*
X67714761Y-81748285D01*
X67762380Y-81891142D01*
X67762380Y-81986380D01*
X67714761Y-82129238D01*
X67619523Y-82224476D01*
X67524285Y-82272095D01*
X67333809Y-82319714D01*
X67190952Y-82319714D01*
X67000476Y-82272095D01*
X66905238Y-82224476D01*
X66810000Y-82129238D01*
X66762380Y-81986380D01*
X66762380Y-81891142D01*
X66810000Y-81748285D01*
X66857619Y-81700666D01*
X66762380Y-80843523D02*
X66762380Y-81034000D01*
X66810000Y-81129238D01*
X66857619Y-81176857D01*
X67000476Y-81272095D01*
X67190952Y-81319714D01*
X67571904Y-81319714D01*
X67667142Y-81272095D01*
X67714761Y-81224476D01*
X67762380Y-81129238D01*
X67762380Y-80938761D01*
X67714761Y-80843523D01*
X67667142Y-80795904D01*
X67571904Y-80748285D01*
X67333809Y-80748285D01*
X67238571Y-80795904D01*
X67190952Y-80843523D01*
X67143333Y-80938761D01*
X67143333Y-81129238D01*
X67190952Y-81224476D01*
X67238571Y-81272095D01*
X67333809Y-81319714D01*
X70508952Y-81986380D02*
X69937523Y-81986380D01*
X70223238Y-81986380D02*
X70223238Y-80986380D01*
X70128000Y-81129238D01*
X70032761Y-81224476D01*
X69937523Y-81272095D01*
X71128000Y-80986380D02*
X71223238Y-80986380D01*
X71318476Y-81034000D01*
X71366095Y-81081619D01*
X71413714Y-81176857D01*
X71461333Y-81367333D01*
X71461333Y-81605428D01*
X71413714Y-81795904D01*
X71366095Y-81891142D01*
X71318476Y-81938761D01*
X71223238Y-81986380D01*
X71128000Y-81986380D01*
X71032761Y-81938761D01*
X70985142Y-81891142D01*
X70937523Y-81795904D01*
X70889904Y-81605428D01*
X70889904Y-81367333D01*
X70937523Y-81176857D01*
X70985142Y-81081619D01*
X71032761Y-81034000D01*
X71128000Y-80986380D01*
X72080380Y-80986380D02*
X72175619Y-80986380D01*
X72270857Y-81034000D01*
X72318476Y-81081619D01*
X72366095Y-81176857D01*
X72413714Y-81367333D01*
X72413714Y-81605428D01*
X72366095Y-81795904D01*
X72318476Y-81891142D01*
X72270857Y-81938761D01*
X72175619Y-81986380D01*
X72080380Y-81986380D01*
X71985142Y-81938761D01*
X71937523Y-81891142D01*
X71889904Y-81795904D01*
X71842285Y-81605428D01*
X71842285Y-81367333D01*
X71889904Y-81176857D01*
X71937523Y-81081619D01*
X71985142Y-81034000D01*
X72080380Y-80986380D01*
X72842285Y-81319714D02*
X72842285Y-81986380D01*
X72842285Y-81414952D02*
X72889904Y-81367333D01*
X72985142Y-81319714D01*
X73128000Y-81319714D01*
X73223238Y-81367333D01*
X73270857Y-81462571D01*
X73270857Y-81986380D01*
X101068142Y-34964666D02*
X101115761Y-35012285D01*
X101163380Y-35155142D01*
X101163380Y-35250380D01*
X101115761Y-35393238D01*
X101020523Y-35488476D01*
X100925285Y-35536095D01*
X100734809Y-35583714D01*
X100591952Y-35583714D01*
X100401476Y-35536095D01*
X100306238Y-35488476D01*
X100211000Y-35393238D01*
X100163380Y-35250380D01*
X100163380Y-35155142D01*
X100211000Y-35012285D01*
X100258619Y-34964666D01*
X100163380Y-34059904D02*
X100163380Y-34536095D01*
X100639571Y-34583714D01*
X100591952Y-34536095D01*
X100544333Y-34440857D01*
X100544333Y-34202761D01*
X100591952Y-34107523D01*
X100639571Y-34059904D01*
X100734809Y-34012285D01*
X100972904Y-34012285D01*
X101068142Y-34059904D01*
X101115761Y-34107523D01*
X101163380Y-34202761D01*
X101163380Y-34440857D01*
X101115761Y-34536095D01*
X101068142Y-34583714D01*
X95400952Y-35631380D02*
X94829523Y-35631380D01*
X95115238Y-35631380D02*
X95115238Y-34631380D01*
X95020000Y-34774238D01*
X94924761Y-34869476D01*
X94829523Y-34917095D01*
X96020000Y-34631380D02*
X96115238Y-34631380D01*
X96210476Y-34679000D01*
X96258095Y-34726619D01*
X96305714Y-34821857D01*
X96353333Y-35012333D01*
X96353333Y-35250428D01*
X96305714Y-35440904D01*
X96258095Y-35536142D01*
X96210476Y-35583761D01*
X96115238Y-35631380D01*
X96020000Y-35631380D01*
X95924761Y-35583761D01*
X95877142Y-35536142D01*
X95829523Y-35440904D01*
X95781904Y-35250428D01*
X95781904Y-35012333D01*
X95829523Y-34821857D01*
X95877142Y-34726619D01*
X95924761Y-34679000D01*
X96020000Y-34631380D01*
X96972380Y-34631380D02*
X97067619Y-34631380D01*
X97162857Y-34679000D01*
X97210476Y-34726619D01*
X97258095Y-34821857D01*
X97305714Y-35012333D01*
X97305714Y-35250428D01*
X97258095Y-35440904D01*
X97210476Y-35536142D01*
X97162857Y-35583761D01*
X97067619Y-35631380D01*
X96972380Y-35631380D01*
X96877142Y-35583761D01*
X96829523Y-35536142D01*
X96781904Y-35440904D01*
X96734285Y-35250428D01*
X96734285Y-35012333D01*
X96781904Y-34821857D01*
X96829523Y-34726619D01*
X96877142Y-34679000D01*
X96972380Y-34631380D01*
X97734285Y-34964714D02*
X97734285Y-35631380D01*
X97734285Y-35059952D02*
X97781904Y-35012333D01*
X97877142Y-34964714D01*
X98020000Y-34964714D01*
X98115238Y-35012333D01*
X98162857Y-35107571D01*
X98162857Y-35631380D01*
X120356333Y-107545142D02*
X120308714Y-107592761D01*
X120165857Y-107640380D01*
X120070619Y-107640380D01*
X119927761Y-107592761D01*
X119832523Y-107497523D01*
X119784904Y-107402285D01*
X119737285Y-107211809D01*
X119737285Y-107068952D01*
X119784904Y-106878476D01*
X119832523Y-106783238D01*
X119927761Y-106688000D01*
X120070619Y-106640380D01*
X120165857Y-106640380D01*
X120308714Y-106688000D01*
X120356333Y-106735619D01*
X121213476Y-106973714D02*
X121213476Y-107640380D01*
X120975380Y-106592761D02*
X120737285Y-107307047D01*
X121356333Y-107307047D01*
X121483380Y-103989047D02*
X121483380Y-104560476D01*
X121483380Y-104274761D02*
X120483380Y-104274761D01*
X120626238Y-104370000D01*
X120721476Y-104465238D01*
X120769095Y-104560476D01*
X120483380Y-103370000D02*
X120483380Y-103274761D01*
X120531000Y-103179523D01*
X120578619Y-103131904D01*
X120673857Y-103084285D01*
X120864333Y-103036666D01*
X121102428Y-103036666D01*
X121292904Y-103084285D01*
X121388142Y-103131904D01*
X121435761Y-103179523D01*
X121483380Y-103274761D01*
X121483380Y-103370000D01*
X121435761Y-103465238D01*
X121388142Y-103512857D01*
X121292904Y-103560476D01*
X121102428Y-103608095D01*
X120864333Y-103608095D01*
X120673857Y-103560476D01*
X120578619Y-103512857D01*
X120531000Y-103465238D01*
X120483380Y-103370000D01*
X120483380Y-102417619D02*
X120483380Y-102322380D01*
X120531000Y-102227142D01*
X120578619Y-102179523D01*
X120673857Y-102131904D01*
X120864333Y-102084285D01*
X121102428Y-102084285D01*
X121292904Y-102131904D01*
X121388142Y-102179523D01*
X121435761Y-102227142D01*
X121483380Y-102322380D01*
X121483380Y-102417619D01*
X121435761Y-102512857D01*
X121388142Y-102560476D01*
X121292904Y-102608095D01*
X121102428Y-102655714D01*
X120864333Y-102655714D01*
X120673857Y-102608095D01*
X120578619Y-102560476D01*
X120531000Y-102512857D01*
X120483380Y-102417619D01*
X120816714Y-101655714D02*
X121483380Y-101655714D01*
X120911952Y-101655714D02*
X120864333Y-101608095D01*
X120816714Y-101512857D01*
X120816714Y-101370000D01*
X120864333Y-101274761D01*
X120959571Y-101227142D01*
X121483380Y-101227142D01*
X123277333Y-66270142D02*
X123229714Y-66317761D01*
X123086857Y-66365380D01*
X122991619Y-66365380D01*
X122848761Y-66317761D01*
X122753523Y-66222523D01*
X122705904Y-66127285D01*
X122658285Y-65936809D01*
X122658285Y-65793952D01*
X122705904Y-65603476D01*
X122753523Y-65508238D01*
X122848761Y-65413000D01*
X122991619Y-65365380D01*
X123086857Y-65365380D01*
X123229714Y-65413000D01*
X123277333Y-65460619D01*
X123610666Y-65365380D02*
X124229714Y-65365380D01*
X123896380Y-65746333D01*
X124039238Y-65746333D01*
X124134476Y-65793952D01*
X124182095Y-65841571D01*
X124229714Y-65936809D01*
X124229714Y-66174904D01*
X124182095Y-66270142D01*
X124134476Y-66317761D01*
X124039238Y-66365380D01*
X123753523Y-66365380D01*
X123658285Y-66317761D01*
X123610666Y-66270142D01*
X124150380Y-71223047D02*
X124150380Y-71794476D01*
X124150380Y-71508761D02*
X123150380Y-71508761D01*
X123293238Y-71604000D01*
X123388476Y-71699238D01*
X123436095Y-71794476D01*
X123150380Y-70604000D02*
X123150380Y-70508761D01*
X123198000Y-70413523D01*
X123245619Y-70365904D01*
X123340857Y-70318285D01*
X123531333Y-70270666D01*
X123769428Y-70270666D01*
X123959904Y-70318285D01*
X124055142Y-70365904D01*
X124102761Y-70413523D01*
X124150380Y-70508761D01*
X124150380Y-70604000D01*
X124102761Y-70699238D01*
X124055142Y-70746857D01*
X123959904Y-70794476D01*
X123769428Y-70842095D01*
X123531333Y-70842095D01*
X123340857Y-70794476D01*
X123245619Y-70746857D01*
X123198000Y-70699238D01*
X123150380Y-70604000D01*
X123150380Y-69651619D02*
X123150380Y-69556380D01*
X123198000Y-69461142D01*
X123245619Y-69413523D01*
X123340857Y-69365904D01*
X123531333Y-69318285D01*
X123769428Y-69318285D01*
X123959904Y-69365904D01*
X124055142Y-69413523D01*
X124102761Y-69461142D01*
X124150380Y-69556380D01*
X124150380Y-69651619D01*
X124102761Y-69746857D01*
X124055142Y-69794476D01*
X123959904Y-69842095D01*
X123769428Y-69889714D01*
X123531333Y-69889714D01*
X123340857Y-69842095D01*
X123245619Y-69794476D01*
X123198000Y-69746857D01*
X123150380Y-69651619D01*
X123483714Y-68889714D02*
X124150380Y-68889714D01*
X123578952Y-68889714D02*
X123531333Y-68842095D01*
X123483714Y-68746857D01*
X123483714Y-68604000D01*
X123531333Y-68508761D01*
X123626571Y-68461142D01*
X124150380Y-68461142D01*
X119483142Y-53760666D02*
X119530761Y-53808285D01*
X119578380Y-53951142D01*
X119578380Y-54046380D01*
X119530761Y-54189238D01*
X119435523Y-54284476D01*
X119340285Y-54332095D01*
X119149809Y-54379714D01*
X119006952Y-54379714D01*
X118816476Y-54332095D01*
X118721238Y-54284476D01*
X118626000Y-54189238D01*
X118578380Y-54046380D01*
X118578380Y-53951142D01*
X118626000Y-53808285D01*
X118673619Y-53760666D01*
X118673619Y-53379714D02*
X118626000Y-53332095D01*
X118578380Y-53236857D01*
X118578380Y-52998761D01*
X118626000Y-52903523D01*
X118673619Y-52855904D01*
X118768857Y-52808285D01*
X118864095Y-52808285D01*
X119006952Y-52855904D01*
X119578380Y-53427333D01*
X119578380Y-52808285D01*
X117800380Y-57380047D02*
X117800380Y-57951476D01*
X117800380Y-57665761D02*
X116800380Y-57665761D01*
X116943238Y-57761000D01*
X117038476Y-57856238D01*
X117086095Y-57951476D01*
X116800380Y-56761000D02*
X116800380Y-56665761D01*
X116848000Y-56570523D01*
X116895619Y-56522904D01*
X116990857Y-56475285D01*
X117181333Y-56427666D01*
X117419428Y-56427666D01*
X117609904Y-56475285D01*
X117705142Y-56522904D01*
X117752761Y-56570523D01*
X117800380Y-56665761D01*
X117800380Y-56761000D01*
X117752761Y-56856238D01*
X117705142Y-56903857D01*
X117609904Y-56951476D01*
X117419428Y-56999095D01*
X117181333Y-56999095D01*
X116990857Y-56951476D01*
X116895619Y-56903857D01*
X116848000Y-56856238D01*
X116800380Y-56761000D01*
X116800380Y-55808619D02*
X116800380Y-55713380D01*
X116848000Y-55618142D01*
X116895619Y-55570523D01*
X116990857Y-55522904D01*
X117181333Y-55475285D01*
X117419428Y-55475285D01*
X117609904Y-55522904D01*
X117705142Y-55570523D01*
X117752761Y-55618142D01*
X117800380Y-55713380D01*
X117800380Y-55808619D01*
X117752761Y-55903857D01*
X117705142Y-55951476D01*
X117609904Y-55999095D01*
X117419428Y-56046714D01*
X117181333Y-56046714D01*
X116990857Y-55999095D01*
X116895619Y-55951476D01*
X116848000Y-55903857D01*
X116800380Y-55808619D01*
X117133714Y-55046714D02*
X117800380Y-55046714D01*
X117228952Y-55046714D02*
X117181333Y-54999095D01*
X117133714Y-54903857D01*
X117133714Y-54761000D01*
X117181333Y-54665761D01*
X117276571Y-54618142D01*
X117800380Y-54618142D01*
X105560857Y-98925142D02*
X105513238Y-98877523D01*
X105465619Y-98734666D01*
X105465619Y-98639428D01*
X105513238Y-98496571D01*
X105608476Y-98401333D01*
X105703714Y-98353714D01*
X105894190Y-98306095D01*
X106037047Y-98306095D01*
X106227523Y-98353714D01*
X106322761Y-98401333D01*
X106418000Y-98496571D01*
X106465619Y-98639428D01*
X106465619Y-98734666D01*
X106418000Y-98877523D01*
X106370380Y-98925142D01*
X105465619Y-99877523D02*
X105465619Y-99306095D01*
X105465619Y-99591809D02*
X106465619Y-99591809D01*
X106322761Y-99496571D01*
X106227523Y-99401333D01*
X106179904Y-99306095D01*
X106465619Y-100734666D02*
X106465619Y-100544190D01*
X106418000Y-100448952D01*
X106370380Y-100401333D01*
X106227523Y-100306095D01*
X106037047Y-100258476D01*
X105656095Y-100258476D01*
X105560857Y-100306095D01*
X105513238Y-100353714D01*
X105465619Y-100448952D01*
X105465619Y-100639428D01*
X105513238Y-100734666D01*
X105560857Y-100782285D01*
X105656095Y-100829904D01*
X105894190Y-100829904D01*
X105989428Y-100782285D01*
X106037047Y-100734666D01*
X106084666Y-100639428D01*
X106084666Y-100448952D01*
X106037047Y-100353714D01*
X105989428Y-100306095D01*
X105894190Y-100258476D01*
X108974095Y-99020380D02*
X109593142Y-99020380D01*
X109259809Y-99401333D01*
X109402666Y-99401333D01*
X109497904Y-99448952D01*
X109545523Y-99496571D01*
X109593142Y-99591809D01*
X109593142Y-99829904D01*
X109545523Y-99925142D01*
X109497904Y-99972761D01*
X109402666Y-100020380D01*
X109116952Y-100020380D01*
X109021714Y-99972761D01*
X108974095Y-99925142D01*
X109926476Y-99020380D02*
X110545523Y-99020380D01*
X110212190Y-99401333D01*
X110355047Y-99401333D01*
X110450285Y-99448952D01*
X110497904Y-99496571D01*
X110545523Y-99591809D01*
X110545523Y-99829904D01*
X110497904Y-99925142D01*
X110450285Y-99972761D01*
X110355047Y-100020380D01*
X110069333Y-100020380D01*
X109974095Y-99972761D01*
X109926476Y-99925142D01*
X110974095Y-99353714D02*
X110974095Y-100353714D01*
X110974095Y-99401333D02*
X111069333Y-99353714D01*
X111259809Y-99353714D01*
X111355047Y-99401333D01*
X111402666Y-99448952D01*
X111450285Y-99544190D01*
X111450285Y-99829904D01*
X111402666Y-99925142D01*
X111355047Y-99972761D01*
X111259809Y-100020380D01*
X111069333Y-100020380D01*
X110974095Y-99972761D01*
X65746380Y-28273333D02*
X66460666Y-28273333D01*
X66603523Y-28320952D01*
X66698761Y-28416190D01*
X66746380Y-28559047D01*
X66746380Y-28654285D01*
X65841619Y-27844761D02*
X65794000Y-27797142D01*
X65746380Y-27701904D01*
X65746380Y-27463809D01*
X65794000Y-27368571D01*
X65841619Y-27320952D01*
X65936857Y-27273333D01*
X66032095Y-27273333D01*
X66174952Y-27320952D01*
X66746380Y-27892380D01*
X66746380Y-27273333D01*
X82725333Y-26090571D02*
X82392000Y-26090571D01*
X82392000Y-26614380D02*
X82392000Y-25614380D01*
X82868190Y-25614380D01*
X83249142Y-26614380D02*
X83249142Y-25614380D01*
X83487238Y-25614380D01*
X83630095Y-25662000D01*
X83725333Y-25757238D01*
X83772952Y-25852476D01*
X83820571Y-26042952D01*
X83820571Y-26185809D01*
X83772952Y-26376285D01*
X83725333Y-26471523D01*
X83630095Y-26566761D01*
X83487238Y-26614380D01*
X83249142Y-26614380D01*
X84249142Y-26614380D02*
X84249142Y-25614380D01*
X84487238Y-25614380D01*
X84630095Y-25662000D01*
X84725333Y-25757238D01*
X84772952Y-25852476D01*
X84820571Y-26042952D01*
X84820571Y-26185809D01*
X84772952Y-26376285D01*
X84725333Y-26471523D01*
X84630095Y-26566761D01*
X84487238Y-26614380D01*
X84249142Y-26614380D01*
X85011047Y-26709619D02*
X85772952Y-26709619D01*
X86582476Y-26519142D02*
X86534857Y-26566761D01*
X86392000Y-26614380D01*
X86296761Y-26614380D01*
X86153904Y-26566761D01*
X86058666Y-26471523D01*
X86011047Y-26376285D01*
X85963428Y-26185809D01*
X85963428Y-26042952D01*
X86011047Y-25852476D01*
X86058666Y-25757238D01*
X86153904Y-25662000D01*
X86296761Y-25614380D01*
X86392000Y-25614380D01*
X86534857Y-25662000D01*
X86582476Y-25709619D01*
X87201523Y-25614380D02*
X87392000Y-25614380D01*
X87487238Y-25662000D01*
X87582476Y-25757238D01*
X87630095Y-25947714D01*
X87630095Y-26281047D01*
X87582476Y-26471523D01*
X87487238Y-26566761D01*
X87392000Y-26614380D01*
X87201523Y-26614380D01*
X87106285Y-26566761D01*
X87011047Y-26471523D01*
X86963428Y-26281047D01*
X86963428Y-25947714D01*
X87011047Y-25757238D01*
X87106285Y-25662000D01*
X87201523Y-25614380D01*
X88058666Y-26614380D02*
X88058666Y-25614380D01*
X88630095Y-26614380D01*
X88630095Y-25614380D01*
X89106285Y-26614380D02*
X89106285Y-25614380D01*
X89677714Y-26614380D01*
X89677714Y-25614380D01*
X90153904Y-26090571D02*
X90487238Y-26090571D01*
X90630095Y-26614380D02*
X90153904Y-26614380D01*
X90153904Y-25614380D01*
X90630095Y-25614380D01*
X91630095Y-26519142D02*
X91582476Y-26566761D01*
X91439619Y-26614380D01*
X91344380Y-26614380D01*
X91201523Y-26566761D01*
X91106285Y-26471523D01*
X91058666Y-26376285D01*
X91011047Y-26185809D01*
X91011047Y-26042952D01*
X91058666Y-25852476D01*
X91106285Y-25757238D01*
X91201523Y-25662000D01*
X91344380Y-25614380D01*
X91439619Y-25614380D01*
X91582476Y-25662000D01*
X91630095Y-25709619D01*
X91915809Y-25614380D02*
X92487238Y-25614380D01*
X92201523Y-26614380D02*
X92201523Y-25614380D01*
X93011047Y-25614380D02*
X93201523Y-25614380D01*
X93296761Y-25662000D01*
X93392000Y-25757238D01*
X93439619Y-25947714D01*
X93439619Y-26281047D01*
X93392000Y-26471523D01*
X93296761Y-26566761D01*
X93201523Y-26614380D01*
X93011047Y-26614380D01*
X92915809Y-26566761D01*
X92820571Y-26471523D01*
X92772952Y-26281047D01*
X92772952Y-25947714D01*
X92820571Y-25757238D01*
X92915809Y-25662000D01*
X93011047Y-25614380D01*
X94439619Y-26614380D02*
X94106285Y-26138190D01*
X93868190Y-26614380D02*
X93868190Y-25614380D01*
X94249142Y-25614380D01*
X94344380Y-25662000D01*
X94392000Y-25709619D01*
X94439619Y-25804857D01*
X94439619Y-25947714D01*
X94392000Y-26042952D01*
X94344380Y-26090571D01*
X94249142Y-26138190D01*
X93868190Y-26138190D01*
X116952904Y-33726380D02*
X116952904Y-32726380D01*
X117191000Y-32726380D01*
X117333857Y-32774000D01*
X117429095Y-32869238D01*
X117476714Y-32964476D01*
X117524333Y-33154952D01*
X117524333Y-33297809D01*
X117476714Y-33488285D01*
X117429095Y-33583523D01*
X117333857Y-33678761D01*
X117191000Y-33726380D01*
X116952904Y-33726380D01*
X118476714Y-33726380D02*
X117905285Y-33726380D01*
X118191000Y-33726380D02*
X118191000Y-32726380D01*
X118095761Y-32869238D01*
X118000523Y-32964476D01*
X117905285Y-33012095D01*
X116064047Y-41473380D02*
X115587857Y-41473380D01*
X115587857Y-40473380D01*
X116397380Y-41473380D02*
X116397380Y-40473380D01*
X116635476Y-40473380D01*
X116778333Y-40521000D01*
X116873571Y-40616238D01*
X116921190Y-40711476D01*
X116968809Y-40901952D01*
X116968809Y-41044809D01*
X116921190Y-41235285D01*
X116873571Y-41330523D01*
X116778333Y-41425761D01*
X116635476Y-41473380D01*
X116397380Y-41473380D01*
X117159285Y-41568619D02*
X117921190Y-41568619D01*
X118111666Y-41187666D02*
X118587857Y-41187666D01*
X118016428Y-41473380D02*
X118349761Y-40473380D01*
X118683095Y-41473380D01*
X119587857Y-41378142D02*
X119540238Y-41425761D01*
X119397380Y-41473380D01*
X119302142Y-41473380D01*
X119159285Y-41425761D01*
X119064047Y-41330523D01*
X119016428Y-41235285D01*
X118968809Y-41044809D01*
X118968809Y-40901952D01*
X119016428Y-40711476D01*
X119064047Y-40616238D01*
X119159285Y-40521000D01*
X119302142Y-40473380D01*
X119397380Y-40473380D01*
X119540238Y-40521000D01*
X119587857Y-40568619D01*
X119873571Y-40473380D02*
X120445000Y-40473380D01*
X120159285Y-41473380D02*
X120159285Y-40473380D01*
X122071904Y-115452380D02*
X122071904Y-114452380D01*
X122310000Y-114452380D01*
X122452857Y-114500000D01*
X122548095Y-114595238D01*
X122595714Y-114690476D01*
X122643333Y-114880952D01*
X122643333Y-115023809D01*
X122595714Y-115214285D01*
X122548095Y-115309523D01*
X122452857Y-115404761D01*
X122310000Y-115452380D01*
X122071904Y-115452380D01*
X123500476Y-114785714D02*
X123500476Y-115452380D01*
X123262380Y-114404761D02*
X123024285Y-115119047D01*
X123643333Y-115119047D01*
X120667142Y-117484380D02*
X120095714Y-117484380D01*
X120381428Y-117484380D02*
X120381428Y-116484380D01*
X120286190Y-116627238D01*
X120190952Y-116722476D01*
X120095714Y-116770095D01*
X121095714Y-117484380D02*
X121095714Y-116484380D01*
X121667142Y-117484380D01*
X121667142Y-116484380D01*
X122571904Y-116817714D02*
X122571904Y-117484380D01*
X122333809Y-116436761D02*
X122095714Y-117151047D01*
X122714761Y-117151047D01*
X123619523Y-117484380D02*
X123048095Y-117484380D01*
X123333809Y-117484380D02*
X123333809Y-116484380D01*
X123238571Y-116627238D01*
X123143333Y-116722476D01*
X123048095Y-116770095D01*
X124476666Y-116817714D02*
X124476666Y-117484380D01*
X124238571Y-116436761D02*
X124000476Y-117151047D01*
X124619523Y-117151047D01*
X125143333Y-116912952D02*
X125048095Y-116865333D01*
X125000476Y-116817714D01*
X124952857Y-116722476D01*
X124952857Y-116674857D01*
X125000476Y-116579619D01*
X125048095Y-116532000D01*
X125143333Y-116484380D01*
X125333809Y-116484380D01*
X125429047Y-116532000D01*
X125476666Y-116579619D01*
X125524285Y-116674857D01*
X125524285Y-116722476D01*
X125476666Y-116817714D01*
X125429047Y-116865333D01*
X125333809Y-116912952D01*
X125143333Y-116912952D01*
X125048095Y-116960571D01*
X125000476Y-117008190D01*
X124952857Y-117103428D01*
X124952857Y-117293904D01*
X125000476Y-117389142D01*
X125048095Y-117436761D01*
X125143333Y-117484380D01*
X125333809Y-117484380D01*
X125429047Y-117436761D01*
X125476666Y-117389142D01*
X125524285Y-117293904D01*
X125524285Y-117103428D01*
X125476666Y-117008190D01*
X125429047Y-116960571D01*
X125333809Y-116912952D01*
X134951904Y-115452380D02*
X134951904Y-114452380D01*
X135190000Y-114452380D01*
X135332857Y-114500000D01*
X135428095Y-114595238D01*
X135475714Y-114690476D01*
X135523333Y-114880952D01*
X135523333Y-115023809D01*
X135475714Y-115214285D01*
X135428095Y-115309523D01*
X135332857Y-115404761D01*
X135190000Y-115452380D01*
X134951904Y-115452380D01*
X135856666Y-114452380D02*
X136475714Y-114452380D01*
X136142380Y-114833333D01*
X136285238Y-114833333D01*
X136380476Y-114880952D01*
X136428095Y-114928571D01*
X136475714Y-115023809D01*
X136475714Y-115261904D01*
X136428095Y-115357142D01*
X136380476Y-115404761D01*
X136285238Y-115452380D01*
X135999523Y-115452380D01*
X135904285Y-115404761D01*
X135856666Y-115357142D01*
X133039142Y-117484380D02*
X132467714Y-117484380D01*
X132753428Y-117484380D02*
X132753428Y-116484380D01*
X132658190Y-116627238D01*
X132562952Y-116722476D01*
X132467714Y-116770095D01*
X133467714Y-117484380D02*
X133467714Y-116484380D01*
X134039142Y-117484380D01*
X134039142Y-116484380D01*
X134943904Y-116817714D02*
X134943904Y-117484380D01*
X134705809Y-116436761D02*
X134467714Y-117151047D01*
X135086761Y-117151047D01*
X135991523Y-117484380D02*
X135420095Y-117484380D01*
X135705809Y-117484380D02*
X135705809Y-116484380D01*
X135610571Y-116627238D01*
X135515333Y-116722476D01*
X135420095Y-116770095D01*
X136848666Y-116817714D02*
X136848666Y-117484380D01*
X136610571Y-116436761D02*
X136372476Y-117151047D01*
X136991523Y-117151047D01*
X137515333Y-116912952D02*
X137420095Y-116865333D01*
X137372476Y-116817714D01*
X137324857Y-116722476D01*
X137324857Y-116674857D01*
X137372476Y-116579619D01*
X137420095Y-116532000D01*
X137515333Y-116484380D01*
X137705809Y-116484380D01*
X137801047Y-116532000D01*
X137848666Y-116579619D01*
X137896285Y-116674857D01*
X137896285Y-116722476D01*
X137848666Y-116817714D01*
X137801047Y-116865333D01*
X137705809Y-116912952D01*
X137515333Y-116912952D01*
X137420095Y-116960571D01*
X137372476Y-117008190D01*
X137324857Y-117103428D01*
X137324857Y-117293904D01*
X137372476Y-117389142D01*
X137420095Y-117436761D01*
X137515333Y-117484380D01*
X137705809Y-117484380D01*
X137801047Y-117436761D01*
X137848666Y-117389142D01*
X137896285Y-117293904D01*
X137896285Y-117103428D01*
X137848666Y-117008190D01*
X137801047Y-116960571D01*
X137705809Y-116912952D01*
X147451904Y-115452380D02*
X147451904Y-114452380D01*
X147690000Y-114452380D01*
X147832857Y-114500000D01*
X147928095Y-114595238D01*
X147975714Y-114690476D01*
X148023333Y-114880952D01*
X148023333Y-115023809D01*
X147975714Y-115214285D01*
X147928095Y-115309523D01*
X147832857Y-115404761D01*
X147690000Y-115452380D01*
X147451904Y-115452380D01*
X148404285Y-114547619D02*
X148451904Y-114500000D01*
X148547142Y-114452380D01*
X148785238Y-114452380D01*
X148880476Y-114500000D01*
X148928095Y-114547619D01*
X148975714Y-114642857D01*
X148975714Y-114738095D01*
X148928095Y-114880952D01*
X148356666Y-115452380D01*
X148975714Y-115452380D01*
X146047142Y-117738380D02*
X145475714Y-117738380D01*
X145761428Y-117738380D02*
X145761428Y-116738380D01*
X145666190Y-116881238D01*
X145570952Y-116976476D01*
X145475714Y-117024095D01*
X146475714Y-117738380D02*
X146475714Y-116738380D01*
X147047142Y-117738380D01*
X147047142Y-116738380D01*
X147951904Y-117071714D02*
X147951904Y-117738380D01*
X147713809Y-116690761D02*
X147475714Y-117405047D01*
X148094761Y-117405047D01*
X148999523Y-117738380D02*
X148428095Y-117738380D01*
X148713809Y-117738380D02*
X148713809Y-116738380D01*
X148618571Y-116881238D01*
X148523333Y-116976476D01*
X148428095Y-117024095D01*
X149856666Y-117071714D02*
X149856666Y-117738380D01*
X149618571Y-116690761D02*
X149380476Y-117405047D01*
X149999523Y-117405047D01*
X150523333Y-117166952D02*
X150428095Y-117119333D01*
X150380476Y-117071714D01*
X150332857Y-116976476D01*
X150332857Y-116928857D01*
X150380476Y-116833619D01*
X150428095Y-116786000D01*
X150523333Y-116738380D01*
X150713809Y-116738380D01*
X150809047Y-116786000D01*
X150856666Y-116833619D01*
X150904285Y-116928857D01*
X150904285Y-116976476D01*
X150856666Y-117071714D01*
X150809047Y-117119333D01*
X150713809Y-117166952D01*
X150523333Y-117166952D01*
X150428095Y-117214571D01*
X150380476Y-117262190D01*
X150332857Y-117357428D01*
X150332857Y-117547904D01*
X150380476Y-117643142D01*
X150428095Y-117690761D01*
X150523333Y-117738380D01*
X150713809Y-117738380D01*
X150809047Y-117690761D01*
X150856666Y-117643142D01*
X150904285Y-117547904D01*
X150904285Y-117357428D01*
X150856666Y-117262190D01*
X150809047Y-117214571D01*
X150713809Y-117166952D01*
X82099904Y-33726380D02*
X82099904Y-32726380D01*
X82338000Y-32726380D01*
X82480857Y-32774000D01*
X82576095Y-32869238D01*
X82623714Y-32964476D01*
X82671333Y-33154952D01*
X82671333Y-33297809D01*
X82623714Y-33488285D01*
X82576095Y-33583523D01*
X82480857Y-33678761D01*
X82338000Y-33726380D01*
X82099904Y-33726380D01*
X83576095Y-32726380D02*
X83099904Y-32726380D01*
X83052285Y-33202571D01*
X83099904Y-33154952D01*
X83195142Y-33107333D01*
X83433238Y-33107333D01*
X83528476Y-33154952D01*
X83576095Y-33202571D01*
X83623714Y-33297809D01*
X83623714Y-33535904D01*
X83576095Y-33631142D01*
X83528476Y-33678761D01*
X83433238Y-33726380D01*
X83195142Y-33726380D01*
X83099904Y-33678761D01*
X83052285Y-33631142D01*
X80661142Y-41346380D02*
X80184952Y-41346380D01*
X80184952Y-40346380D01*
X80994476Y-41346380D02*
X80994476Y-40346380D01*
X81232571Y-40346380D01*
X81375428Y-40394000D01*
X81470666Y-40489238D01*
X81518285Y-40584476D01*
X81565904Y-40774952D01*
X81565904Y-40917809D01*
X81518285Y-41108285D01*
X81470666Y-41203523D01*
X81375428Y-41298761D01*
X81232571Y-41346380D01*
X80994476Y-41346380D01*
X81756380Y-41441619D02*
X82518285Y-41441619D01*
X82756380Y-41346380D02*
X82756380Y-40346380D01*
X83137333Y-40346380D01*
X83232571Y-40394000D01*
X83280190Y-40441619D01*
X83327809Y-40536857D01*
X83327809Y-40679714D01*
X83280190Y-40774952D01*
X83232571Y-40822571D01*
X83137333Y-40870190D01*
X82756380Y-40870190D01*
X83661142Y-40346380D02*
X83899238Y-41346380D01*
X84089714Y-40632095D01*
X84280190Y-41346380D01*
X84518285Y-40346380D01*
X85470666Y-41346380D02*
X85137333Y-40870190D01*
X84899238Y-41346380D02*
X84899238Y-40346380D01*
X85280190Y-40346380D01*
X85375428Y-40394000D01*
X85423047Y-40441619D01*
X85470666Y-40536857D01*
X85470666Y-40679714D01*
X85423047Y-40774952D01*
X85375428Y-40822571D01*
X85280190Y-40870190D01*
X84899238Y-40870190D01*
X105560857Y-102481142D02*
X105513238Y-102433523D01*
X105465619Y-102290666D01*
X105465619Y-102195428D01*
X105513238Y-102052571D01*
X105608476Y-101957333D01*
X105703714Y-101909714D01*
X105894190Y-101862095D01*
X106037047Y-101862095D01*
X106227523Y-101909714D01*
X106322761Y-101957333D01*
X106418000Y-102052571D01*
X106465619Y-102195428D01*
X106465619Y-102290666D01*
X106418000Y-102433523D01*
X106370380Y-102481142D01*
X105465619Y-103433523D02*
X105465619Y-102862095D01*
X105465619Y-103147809D02*
X106465619Y-103147809D01*
X106322761Y-103052571D01*
X106227523Y-102957333D01*
X106179904Y-102862095D01*
X106465619Y-103766857D02*
X106465619Y-104385904D01*
X106084666Y-104052571D01*
X106084666Y-104195428D01*
X106037047Y-104290666D01*
X105989428Y-104338285D01*
X105894190Y-104385904D01*
X105656095Y-104385904D01*
X105560857Y-104338285D01*
X105513238Y-104290666D01*
X105465619Y-104195428D01*
X105465619Y-103909714D01*
X105513238Y-103814476D01*
X105560857Y-103766857D01*
X109523714Y-103576380D02*
X109095142Y-103576380D01*
X109309428Y-103576380D02*
X109309428Y-102576380D01*
X109238000Y-102719238D01*
X109166571Y-102814476D01*
X109095142Y-102862095D01*
X109988000Y-102576380D02*
X110059428Y-102576380D01*
X110130857Y-102624000D01*
X110166571Y-102671619D01*
X110202285Y-102766857D01*
X110238000Y-102957333D01*
X110238000Y-103195428D01*
X110202285Y-103385904D01*
X110166571Y-103481142D01*
X110130857Y-103528761D01*
X110059428Y-103576380D01*
X109988000Y-103576380D01*
X109916571Y-103528761D01*
X109880857Y-103481142D01*
X109845142Y-103385904D01*
X109809428Y-103195428D01*
X109809428Y-102957333D01*
X109845142Y-102766857D01*
X109880857Y-102671619D01*
X109916571Y-102624000D01*
X109988000Y-102576380D01*
X110702285Y-102576380D02*
X110773714Y-102576380D01*
X110845142Y-102624000D01*
X110880857Y-102671619D01*
X110916571Y-102766857D01*
X110952285Y-102957333D01*
X110952285Y-103195428D01*
X110916571Y-103385904D01*
X110880857Y-103481142D01*
X110845142Y-103528761D01*
X110773714Y-103576380D01*
X110702285Y-103576380D01*
X110630857Y-103528761D01*
X110595142Y-103481142D01*
X110559428Y-103385904D01*
X110523714Y-103195428D01*
X110523714Y-102957333D01*
X110559428Y-102766857D01*
X110595142Y-102671619D01*
X110630857Y-102624000D01*
X110702285Y-102576380D01*
X111273714Y-102909714D02*
X111273714Y-103909714D01*
X111273714Y-102957333D02*
X111345142Y-102909714D01*
X111488000Y-102909714D01*
X111559428Y-102957333D01*
X111595142Y-103004952D01*
X111630857Y-103100190D01*
X111630857Y-103385904D01*
X111595142Y-103481142D01*
X111559428Y-103528761D01*
X111488000Y-103576380D01*
X111345142Y-103576380D01*
X111273714Y-103528761D01*
X95861142Y-113799857D02*
X95908761Y-113847476D01*
X95956380Y-113990333D01*
X95956380Y-114085571D01*
X95908761Y-114228428D01*
X95813523Y-114323666D01*
X95718285Y-114371285D01*
X95527809Y-114418904D01*
X95384952Y-114418904D01*
X95194476Y-114371285D01*
X95099238Y-114323666D01*
X95004000Y-114228428D01*
X94956380Y-114085571D01*
X94956380Y-113990333D01*
X95004000Y-113847476D01*
X95051619Y-113799857D01*
X95956380Y-112847476D02*
X95956380Y-113418904D01*
X95956380Y-113133190D02*
X94956380Y-113133190D01*
X95099238Y-113228428D01*
X95194476Y-113323666D01*
X95242095Y-113418904D01*
X95289714Y-111990333D02*
X95956380Y-111990333D01*
X94908761Y-112228428D02*
X95623047Y-112466523D01*
X95623047Y-111847476D01*
X98829952Y-114371380D02*
X98258523Y-114371380D01*
X98544238Y-114371380D02*
X98544238Y-113371380D01*
X98449000Y-113514238D01*
X98353761Y-113609476D01*
X98258523Y-113657095D01*
X99449000Y-113371380D02*
X99544238Y-113371380D01*
X99639476Y-113419000D01*
X99687095Y-113466619D01*
X99734714Y-113561857D01*
X99782333Y-113752333D01*
X99782333Y-113990428D01*
X99734714Y-114180904D01*
X99687095Y-114276142D01*
X99639476Y-114323761D01*
X99544238Y-114371380D01*
X99449000Y-114371380D01*
X99353761Y-114323761D01*
X99306142Y-114276142D01*
X99258523Y-114180904D01*
X99210904Y-113990428D01*
X99210904Y-113752333D01*
X99258523Y-113561857D01*
X99306142Y-113466619D01*
X99353761Y-113419000D01*
X99449000Y-113371380D01*
X100401380Y-113371380D02*
X100496619Y-113371380D01*
X100591857Y-113419000D01*
X100639476Y-113466619D01*
X100687095Y-113561857D01*
X100734714Y-113752333D01*
X100734714Y-113990428D01*
X100687095Y-114180904D01*
X100639476Y-114276142D01*
X100591857Y-114323761D01*
X100496619Y-114371380D01*
X100401380Y-114371380D01*
X100306142Y-114323761D01*
X100258523Y-114276142D01*
X100210904Y-114180904D01*
X100163285Y-113990428D01*
X100163285Y-113752333D01*
X100210904Y-113561857D01*
X100258523Y-113466619D01*
X100306142Y-113419000D01*
X100401380Y-113371380D01*
X101163285Y-113704714D02*
X101163285Y-114371380D01*
X101163285Y-113799952D02*
X101210904Y-113752333D01*
X101306142Y-113704714D01*
X101449000Y-113704714D01*
X101544238Y-113752333D01*
X101591857Y-113847571D01*
X101591857Y-114371380D01*
X98952190Y-104762190D02*
X99428380Y-104762190D01*
X98428380Y-105095523D02*
X98952190Y-104762190D01*
X98428380Y-104428857D01*
X99428380Y-103571714D02*
X99428380Y-104143142D01*
X99428380Y-103857428D02*
X98428380Y-103857428D01*
X98571238Y-103952666D01*
X98666476Y-104047904D01*
X98714095Y-104143142D01*
X102158952Y-107476476D02*
X102111333Y-107571714D01*
X102063714Y-107619333D01*
X101968476Y-107666952D01*
X101920857Y-107666952D01*
X101825619Y-107619333D01*
X101778000Y-107571714D01*
X101730380Y-107476476D01*
X101730380Y-107286000D01*
X101778000Y-107190761D01*
X101825619Y-107143142D01*
X101920857Y-107095523D01*
X101968476Y-107095523D01*
X102063714Y-107143142D01*
X102111333Y-107190761D01*
X102158952Y-107286000D01*
X102158952Y-107476476D01*
X102206571Y-107571714D01*
X102254190Y-107619333D01*
X102349428Y-107666952D01*
X102539904Y-107666952D01*
X102635142Y-107619333D01*
X102682761Y-107571714D01*
X102730380Y-107476476D01*
X102730380Y-107286000D01*
X102682761Y-107190761D01*
X102635142Y-107143142D01*
X102539904Y-107095523D01*
X102349428Y-107095523D01*
X102254190Y-107143142D01*
X102206571Y-107190761D01*
X102158952Y-107286000D01*
X102635142Y-106666952D02*
X102682761Y-106619333D01*
X102730380Y-106666952D01*
X102682761Y-106714571D01*
X102635142Y-106666952D01*
X102730380Y-106666952D01*
X101730380Y-106000285D02*
X101730380Y-105905047D01*
X101778000Y-105809809D01*
X101825619Y-105762190D01*
X101920857Y-105714571D01*
X102111333Y-105666952D01*
X102349428Y-105666952D01*
X102539904Y-105714571D01*
X102635142Y-105762190D01*
X102682761Y-105809809D01*
X102730380Y-105905047D01*
X102730380Y-106000285D01*
X102682761Y-106095523D01*
X102635142Y-106143142D01*
X102539904Y-106190761D01*
X102349428Y-106238380D01*
X102111333Y-106238380D01*
X101920857Y-106190761D01*
X101825619Y-106143142D01*
X101778000Y-106095523D01*
X101730380Y-106000285D01*
X101730380Y-105047904D02*
X101730380Y-104952666D01*
X101778000Y-104857428D01*
X101825619Y-104809809D01*
X101920857Y-104762190D01*
X102111333Y-104714571D01*
X102349428Y-104714571D01*
X102539904Y-104762190D01*
X102635142Y-104809809D01*
X102682761Y-104857428D01*
X102730380Y-104952666D01*
X102730380Y-105047904D01*
X102682761Y-105143142D01*
X102635142Y-105190761D01*
X102539904Y-105238380D01*
X102349428Y-105286000D01*
X102111333Y-105286000D01*
X101920857Y-105238380D01*
X101825619Y-105190761D01*
X101778000Y-105143142D01*
X101730380Y-105047904D01*
X101730380Y-104095523D02*
X101730380Y-104000285D01*
X101778000Y-103905047D01*
X101825619Y-103857428D01*
X101920857Y-103809809D01*
X102111333Y-103762190D01*
X102349428Y-103762190D01*
X102539904Y-103809809D01*
X102635142Y-103857428D01*
X102682761Y-103905047D01*
X102730380Y-104000285D01*
X102730380Y-104095523D01*
X102682761Y-104190761D01*
X102635142Y-104238380D01*
X102539904Y-104286000D01*
X102349428Y-104333619D01*
X102111333Y-104333619D01*
X101920857Y-104286000D01*
X101825619Y-104238380D01*
X101778000Y-104190761D01*
X101730380Y-104095523D01*
X102730380Y-103333619D02*
X101730380Y-103333619D01*
X102444666Y-103000285D01*
X101730380Y-102666952D01*
X102730380Y-102666952D01*
X102730380Y-102190761D02*
X101730380Y-102190761D01*
X102730380Y-101762190D02*
X102206571Y-101762190D01*
X102111333Y-101809809D01*
X102063714Y-101905047D01*
X102063714Y-102047904D01*
X102111333Y-102143142D01*
X102158952Y-102190761D01*
X102063714Y-101381238D02*
X102063714Y-100857428D01*
X102730380Y-101381238D01*
X102730380Y-100857428D01*
M02*
