G04 #@! TF.GenerationSoftware,KiCad,Pcbnew,(5.1.4)-1*
G04 #@! TF.CreationDate,2020-07-07T22:54:55+03:00*
G04 #@! TF.ProjectId,PlusD_Clone_MOD_1_2,506c7573-445f-4436-9c6f-6e655f4d4f44,rev?*
G04 #@! TF.SameCoordinates,Original*
G04 #@! TF.FileFunction,Paste,Top*
G04 #@! TF.FilePolarity,Positive*
%FSLAX46Y46*%
G04 Gerber Fmt 4.6, Leading zero omitted, Abs format (unit mm)*
G04 Created by KiCad (PCBNEW (5.1.4)-1) date 2020-07-07 22:54:55*
%MOMM*%
%LPD*%
G04 APERTURE LIST*
%ADD10C,0.100000*%
%ADD11C,1.600000*%
G04 APERTURE END LIST*
D10*
G36*
X103637504Y-109701204D02*
G01*
X103661773Y-109704804D01*
X103685571Y-109710765D01*
X103708671Y-109719030D01*
X103730849Y-109729520D01*
X103751893Y-109742133D01*
X103771598Y-109756747D01*
X103789777Y-109773223D01*
X103806253Y-109791402D01*
X103820867Y-109811107D01*
X103833480Y-109832151D01*
X103843970Y-109854329D01*
X103852235Y-109877429D01*
X103858196Y-109901227D01*
X103861796Y-109925496D01*
X103863000Y-109950000D01*
X103863000Y-111050000D01*
X103861796Y-111074504D01*
X103858196Y-111098773D01*
X103852235Y-111122571D01*
X103843970Y-111145671D01*
X103833480Y-111167849D01*
X103820867Y-111188893D01*
X103806253Y-111208598D01*
X103789777Y-111226777D01*
X103771598Y-111243253D01*
X103751893Y-111257867D01*
X103730849Y-111270480D01*
X103708671Y-111280970D01*
X103685571Y-111289235D01*
X103661773Y-111295196D01*
X103637504Y-111298796D01*
X103613000Y-111300000D01*
X100788000Y-111300000D01*
X100763496Y-111298796D01*
X100739227Y-111295196D01*
X100715429Y-111289235D01*
X100692329Y-111280970D01*
X100670151Y-111270480D01*
X100649107Y-111257867D01*
X100629402Y-111243253D01*
X100611223Y-111226777D01*
X100594747Y-111208598D01*
X100580133Y-111188893D01*
X100567520Y-111167849D01*
X100557030Y-111145671D01*
X100548765Y-111122571D01*
X100542804Y-111098773D01*
X100539204Y-111074504D01*
X100538000Y-111050000D01*
X100538000Y-109950000D01*
X100539204Y-109925496D01*
X100542804Y-109901227D01*
X100548765Y-109877429D01*
X100557030Y-109854329D01*
X100567520Y-109832151D01*
X100580133Y-109811107D01*
X100594747Y-109791402D01*
X100611223Y-109773223D01*
X100629402Y-109756747D01*
X100649107Y-109742133D01*
X100670151Y-109729520D01*
X100692329Y-109719030D01*
X100715429Y-109710765D01*
X100739227Y-109704804D01*
X100763496Y-109701204D01*
X100788000Y-109700000D01*
X103613000Y-109700000D01*
X103637504Y-109701204D01*
X103637504Y-109701204D01*
G37*
D11*
X102200500Y-110500000D03*
D10*
G36*
X108712504Y-109701204D02*
G01*
X108736773Y-109704804D01*
X108760571Y-109710765D01*
X108783671Y-109719030D01*
X108805849Y-109729520D01*
X108826893Y-109742133D01*
X108846598Y-109756747D01*
X108864777Y-109773223D01*
X108881253Y-109791402D01*
X108895867Y-109811107D01*
X108908480Y-109832151D01*
X108918970Y-109854329D01*
X108927235Y-109877429D01*
X108933196Y-109901227D01*
X108936796Y-109925496D01*
X108938000Y-109950000D01*
X108938000Y-111050000D01*
X108936796Y-111074504D01*
X108933196Y-111098773D01*
X108927235Y-111122571D01*
X108918970Y-111145671D01*
X108908480Y-111167849D01*
X108895867Y-111188893D01*
X108881253Y-111208598D01*
X108864777Y-111226777D01*
X108846598Y-111243253D01*
X108826893Y-111257867D01*
X108805849Y-111270480D01*
X108783671Y-111280970D01*
X108760571Y-111289235D01*
X108736773Y-111295196D01*
X108712504Y-111298796D01*
X108688000Y-111300000D01*
X105863000Y-111300000D01*
X105838496Y-111298796D01*
X105814227Y-111295196D01*
X105790429Y-111289235D01*
X105767329Y-111280970D01*
X105745151Y-111270480D01*
X105724107Y-111257867D01*
X105704402Y-111243253D01*
X105686223Y-111226777D01*
X105669747Y-111208598D01*
X105655133Y-111188893D01*
X105642520Y-111167849D01*
X105632030Y-111145671D01*
X105623765Y-111122571D01*
X105617804Y-111098773D01*
X105614204Y-111074504D01*
X105613000Y-111050000D01*
X105613000Y-109950000D01*
X105614204Y-109925496D01*
X105617804Y-109901227D01*
X105623765Y-109877429D01*
X105632030Y-109854329D01*
X105642520Y-109832151D01*
X105655133Y-109811107D01*
X105669747Y-109791402D01*
X105686223Y-109773223D01*
X105704402Y-109756747D01*
X105724107Y-109742133D01*
X105745151Y-109729520D01*
X105767329Y-109719030D01*
X105790429Y-109710765D01*
X105814227Y-109704804D01*
X105838496Y-109701204D01*
X105863000Y-109700000D01*
X108688000Y-109700000D01*
X108712504Y-109701204D01*
X108712504Y-109701204D01*
G37*
D11*
X107275500Y-110500000D03*
D10*
G36*
X95316504Y-106794204D02*
G01*
X95340773Y-106797804D01*
X95364571Y-106803765D01*
X95387671Y-106812030D01*
X95409849Y-106822520D01*
X95430893Y-106835133D01*
X95450598Y-106849747D01*
X95468777Y-106866223D01*
X95485253Y-106884402D01*
X95499867Y-106904107D01*
X95512480Y-106925151D01*
X95522970Y-106947329D01*
X95531235Y-106970429D01*
X95537196Y-106994227D01*
X95540796Y-107018496D01*
X95542000Y-107043000D01*
X95542000Y-109868000D01*
X95540796Y-109892504D01*
X95537196Y-109916773D01*
X95531235Y-109940571D01*
X95522970Y-109963671D01*
X95512480Y-109985849D01*
X95499867Y-110006893D01*
X95485253Y-110026598D01*
X95468777Y-110044777D01*
X95450598Y-110061253D01*
X95430893Y-110075867D01*
X95409849Y-110088480D01*
X95387671Y-110098970D01*
X95364571Y-110107235D01*
X95340773Y-110113196D01*
X95316504Y-110116796D01*
X95292000Y-110118000D01*
X94192000Y-110118000D01*
X94167496Y-110116796D01*
X94143227Y-110113196D01*
X94119429Y-110107235D01*
X94096329Y-110098970D01*
X94074151Y-110088480D01*
X94053107Y-110075867D01*
X94033402Y-110061253D01*
X94015223Y-110044777D01*
X93998747Y-110026598D01*
X93984133Y-110006893D01*
X93971520Y-109985849D01*
X93961030Y-109963671D01*
X93952765Y-109940571D01*
X93946804Y-109916773D01*
X93943204Y-109892504D01*
X93942000Y-109868000D01*
X93942000Y-107043000D01*
X93943204Y-107018496D01*
X93946804Y-106994227D01*
X93952765Y-106970429D01*
X93961030Y-106947329D01*
X93971520Y-106925151D01*
X93984133Y-106904107D01*
X93998747Y-106884402D01*
X94015223Y-106866223D01*
X94033402Y-106849747D01*
X94053107Y-106835133D01*
X94074151Y-106822520D01*
X94096329Y-106812030D01*
X94119429Y-106803765D01*
X94143227Y-106797804D01*
X94167496Y-106794204D01*
X94192000Y-106793000D01*
X95292000Y-106793000D01*
X95316504Y-106794204D01*
X95316504Y-106794204D01*
G37*
D11*
X94742000Y-108455500D03*
D10*
G36*
X95316504Y-101719204D02*
G01*
X95340773Y-101722804D01*
X95364571Y-101728765D01*
X95387671Y-101737030D01*
X95409849Y-101747520D01*
X95430893Y-101760133D01*
X95450598Y-101774747D01*
X95468777Y-101791223D01*
X95485253Y-101809402D01*
X95499867Y-101829107D01*
X95512480Y-101850151D01*
X95522970Y-101872329D01*
X95531235Y-101895429D01*
X95537196Y-101919227D01*
X95540796Y-101943496D01*
X95542000Y-101968000D01*
X95542000Y-104793000D01*
X95540796Y-104817504D01*
X95537196Y-104841773D01*
X95531235Y-104865571D01*
X95522970Y-104888671D01*
X95512480Y-104910849D01*
X95499867Y-104931893D01*
X95485253Y-104951598D01*
X95468777Y-104969777D01*
X95450598Y-104986253D01*
X95430893Y-105000867D01*
X95409849Y-105013480D01*
X95387671Y-105023970D01*
X95364571Y-105032235D01*
X95340773Y-105038196D01*
X95316504Y-105041796D01*
X95292000Y-105043000D01*
X94192000Y-105043000D01*
X94167496Y-105041796D01*
X94143227Y-105038196D01*
X94119429Y-105032235D01*
X94096329Y-105023970D01*
X94074151Y-105013480D01*
X94053107Y-105000867D01*
X94033402Y-104986253D01*
X94015223Y-104969777D01*
X93998747Y-104951598D01*
X93984133Y-104931893D01*
X93971520Y-104910849D01*
X93961030Y-104888671D01*
X93952765Y-104865571D01*
X93946804Y-104841773D01*
X93943204Y-104817504D01*
X93942000Y-104793000D01*
X93942000Y-101968000D01*
X93943204Y-101943496D01*
X93946804Y-101919227D01*
X93952765Y-101895429D01*
X93961030Y-101872329D01*
X93971520Y-101850151D01*
X93984133Y-101829107D01*
X93998747Y-101809402D01*
X94015223Y-101791223D01*
X94033402Y-101774747D01*
X94053107Y-101760133D01*
X94074151Y-101747520D01*
X94096329Y-101737030D01*
X94119429Y-101728765D01*
X94143227Y-101722804D01*
X94167496Y-101719204D01*
X94192000Y-101718000D01*
X95292000Y-101718000D01*
X95316504Y-101719204D01*
X95316504Y-101719204D01*
G37*
D11*
X94742000Y-103380500D03*
D10*
G36*
X103637504Y-101201204D02*
G01*
X103661773Y-101204804D01*
X103685571Y-101210765D01*
X103708671Y-101219030D01*
X103730849Y-101229520D01*
X103751893Y-101242133D01*
X103771598Y-101256747D01*
X103789777Y-101273223D01*
X103806253Y-101291402D01*
X103820867Y-101311107D01*
X103833480Y-101332151D01*
X103843970Y-101354329D01*
X103852235Y-101377429D01*
X103858196Y-101401227D01*
X103861796Y-101425496D01*
X103863000Y-101450000D01*
X103863000Y-102550000D01*
X103861796Y-102574504D01*
X103858196Y-102598773D01*
X103852235Y-102622571D01*
X103843970Y-102645671D01*
X103833480Y-102667849D01*
X103820867Y-102688893D01*
X103806253Y-102708598D01*
X103789777Y-102726777D01*
X103771598Y-102743253D01*
X103751893Y-102757867D01*
X103730849Y-102770480D01*
X103708671Y-102780970D01*
X103685571Y-102789235D01*
X103661773Y-102795196D01*
X103637504Y-102798796D01*
X103613000Y-102800000D01*
X100788000Y-102800000D01*
X100763496Y-102798796D01*
X100739227Y-102795196D01*
X100715429Y-102789235D01*
X100692329Y-102780970D01*
X100670151Y-102770480D01*
X100649107Y-102757867D01*
X100629402Y-102743253D01*
X100611223Y-102726777D01*
X100594747Y-102708598D01*
X100580133Y-102688893D01*
X100567520Y-102667849D01*
X100557030Y-102645671D01*
X100548765Y-102622571D01*
X100542804Y-102598773D01*
X100539204Y-102574504D01*
X100538000Y-102550000D01*
X100538000Y-101450000D01*
X100539204Y-101425496D01*
X100542804Y-101401227D01*
X100548765Y-101377429D01*
X100557030Y-101354329D01*
X100567520Y-101332151D01*
X100580133Y-101311107D01*
X100594747Y-101291402D01*
X100611223Y-101273223D01*
X100629402Y-101256747D01*
X100649107Y-101242133D01*
X100670151Y-101229520D01*
X100692329Y-101219030D01*
X100715429Y-101210765D01*
X100739227Y-101204804D01*
X100763496Y-101201204D01*
X100788000Y-101200000D01*
X103613000Y-101200000D01*
X103637504Y-101201204D01*
X103637504Y-101201204D01*
G37*
D11*
X102200500Y-102000000D03*
D10*
G36*
X108712504Y-101201204D02*
G01*
X108736773Y-101204804D01*
X108760571Y-101210765D01*
X108783671Y-101219030D01*
X108805849Y-101229520D01*
X108826893Y-101242133D01*
X108846598Y-101256747D01*
X108864777Y-101273223D01*
X108881253Y-101291402D01*
X108895867Y-101311107D01*
X108908480Y-101332151D01*
X108918970Y-101354329D01*
X108927235Y-101377429D01*
X108933196Y-101401227D01*
X108936796Y-101425496D01*
X108938000Y-101450000D01*
X108938000Y-102550000D01*
X108936796Y-102574504D01*
X108933196Y-102598773D01*
X108927235Y-102622571D01*
X108918970Y-102645671D01*
X108908480Y-102667849D01*
X108895867Y-102688893D01*
X108881253Y-102708598D01*
X108864777Y-102726777D01*
X108846598Y-102743253D01*
X108826893Y-102757867D01*
X108805849Y-102770480D01*
X108783671Y-102780970D01*
X108760571Y-102789235D01*
X108736773Y-102795196D01*
X108712504Y-102798796D01*
X108688000Y-102800000D01*
X105863000Y-102800000D01*
X105838496Y-102798796D01*
X105814227Y-102795196D01*
X105790429Y-102789235D01*
X105767329Y-102780970D01*
X105745151Y-102770480D01*
X105724107Y-102757867D01*
X105704402Y-102743253D01*
X105686223Y-102726777D01*
X105669747Y-102708598D01*
X105655133Y-102688893D01*
X105642520Y-102667849D01*
X105632030Y-102645671D01*
X105623765Y-102622571D01*
X105617804Y-102598773D01*
X105614204Y-102574504D01*
X105613000Y-102550000D01*
X105613000Y-101450000D01*
X105614204Y-101425496D01*
X105617804Y-101401227D01*
X105623765Y-101377429D01*
X105632030Y-101354329D01*
X105642520Y-101332151D01*
X105655133Y-101311107D01*
X105669747Y-101291402D01*
X105686223Y-101273223D01*
X105704402Y-101256747D01*
X105724107Y-101242133D01*
X105745151Y-101229520D01*
X105767329Y-101219030D01*
X105790429Y-101210765D01*
X105814227Y-101204804D01*
X105838496Y-101201204D01*
X105863000Y-101200000D01*
X108688000Y-101200000D01*
X108712504Y-101201204D01*
X108712504Y-101201204D01*
G37*
D11*
X107275500Y-102000000D03*
M02*
