G04 #@! TF.GenerationSoftware,KiCad,Pcbnew,(5.1.6)-1*
G04 #@! TF.CreationDate,2020-07-09T08:39:42+03:00*
G04 #@! TF.ProjectId,PlusD_Clone_MOD_1_2,506c7573-445f-4436-9c6f-6e655f4d4f44,rev?*
G04 #@! TF.SameCoordinates,Original*
G04 #@! TF.FileFunction,Copper,L1,Top*
G04 #@! TF.FilePolarity,Positive*
%FSLAX46Y46*%
G04 Gerber Fmt 4.6, Leading zero omitted, Abs format (unit mm)*
G04 Created by KiCad (PCBNEW (5.1.6)-1) date 2020-07-09 08:39:42*
%MOMM*%
%LPD*%
G01*
G04 APERTURE LIST*
G04 #@! TA.AperFunction,ComponentPad*
%ADD10O,1.600000X1.600000*%
G04 #@! TD*
G04 #@! TA.AperFunction,ComponentPad*
%ADD11C,1.600000*%
G04 #@! TD*
G04 #@! TA.AperFunction,ComponentPad*
%ADD12C,1.400000*%
G04 #@! TD*
G04 #@! TA.AperFunction,ComponentPad*
%ADD13R,1.400000X1.400000*%
G04 #@! TD*
G04 #@! TA.AperFunction,ComponentPad*
%ADD14C,4.000000*%
G04 #@! TD*
G04 #@! TA.AperFunction,ComponentPad*
%ADD15R,1.600000X1.600000*%
G04 #@! TD*
G04 #@! TA.AperFunction,ComponentPad*
%ADD16O,3.048000X1.524000*%
G04 #@! TD*
G04 #@! TA.AperFunction,ComponentPad*
%ADD17O,2.600000X1.600000*%
G04 #@! TD*
G04 #@! TA.AperFunction,ComponentPad*
%ADD18O,3.500000X2.100000*%
G04 #@! TD*
G04 #@! TA.AperFunction,ComponentPad*
%ADD19O,1.600000X2.400000*%
G04 #@! TD*
G04 #@! TA.AperFunction,ComponentPad*
%ADD20R,1.600000X2.400000*%
G04 #@! TD*
G04 #@! TA.AperFunction,ComponentPad*
%ADD21C,7.000000*%
G04 #@! TD*
G04 #@! TA.AperFunction,ComponentPad*
%ADD22C,0.800000*%
G04 #@! TD*
G04 #@! TA.AperFunction,ComponentPad*
%ADD23C,2.000000*%
G04 #@! TD*
G04 #@! TA.AperFunction,ComponentPad*
%ADD24O,1.700000X1.700000*%
G04 #@! TD*
G04 #@! TA.AperFunction,ComponentPad*
%ADD25R,1.700000X1.700000*%
G04 #@! TD*
G04 #@! TA.AperFunction,ConnectorPad*
%ADD26O,1.778000X5.080000*%
G04 #@! TD*
G04 #@! TA.AperFunction,ComponentPad*
%ADD27C,1.800000*%
G04 #@! TD*
G04 #@! TA.AperFunction,ComponentPad*
%ADD28R,1.800000X1.800000*%
G04 #@! TD*
G04 #@! TA.AperFunction,ComponentPad*
%ADD29C,1.500000*%
G04 #@! TD*
G04 #@! TA.AperFunction,ViaPad*
%ADD30C,0.800000*%
G04 #@! TD*
G04 #@! TA.AperFunction,Conductor*
%ADD31C,0.350000*%
G04 #@! TD*
G04 #@! TA.AperFunction,Conductor*
%ADD32C,0.250000*%
G04 #@! TD*
G04 APERTURE END LIST*
D10*
X85344000Y-83566000D03*
D11*
X77724000Y-83566000D03*
D12*
X160780000Y-29290000D03*
X160780000Y-31790000D03*
X160780000Y-34290000D03*
X157480000Y-29290000D03*
X157480000Y-31790000D03*
D13*
X157480000Y-34290000D03*
D14*
X73950000Y-62040000D03*
X73950000Y-37040000D03*
D11*
X71410000Y-53695000D03*
X71410000Y-50925000D03*
X71410000Y-48155000D03*
X71410000Y-45385000D03*
X74250000Y-55080000D03*
X74250000Y-52310000D03*
X74250000Y-49540000D03*
X74250000Y-46770000D03*
D15*
X74250000Y-44000000D03*
D16*
X85090000Y-103124000D03*
X85090000Y-105664000D03*
X85090000Y-108204000D03*
G04 #@! TA.AperFunction,SMDPad,CuDef*
G36*
G01*
X103863000Y-109950000D02*
X103863000Y-111050000D01*
G75*
G02*
X103613000Y-111300000I-250000J0D01*
G01*
X100788000Y-111300000D01*
G75*
G02*
X100538000Y-111050000I0J250000D01*
G01*
X100538000Y-109950000D01*
G75*
G02*
X100788000Y-109700000I250000J0D01*
G01*
X103613000Y-109700000D01*
G75*
G02*
X103863000Y-109950000I0J-250000D01*
G01*
G37*
G04 #@! TD.AperFunction*
G04 #@! TA.AperFunction,SMDPad,CuDef*
G36*
G01*
X108938000Y-109950000D02*
X108938000Y-111050000D01*
G75*
G02*
X108688000Y-111300000I-250000J0D01*
G01*
X105863000Y-111300000D01*
G75*
G02*
X105613000Y-111050000I0J250000D01*
G01*
X105613000Y-109950000D01*
G75*
G02*
X105863000Y-109700000I250000J0D01*
G01*
X108688000Y-109700000D01*
G75*
G02*
X108938000Y-109950000I0J-250000D01*
G01*
G37*
G04 #@! TD.AperFunction*
G04 #@! TA.AperFunction,SMDPad,CuDef*
G36*
G01*
X94192000Y-106793000D02*
X95292000Y-106793000D01*
G75*
G02*
X95542000Y-107043000I0J-250000D01*
G01*
X95542000Y-109868000D01*
G75*
G02*
X95292000Y-110118000I-250000J0D01*
G01*
X94192000Y-110118000D01*
G75*
G02*
X93942000Y-109868000I0J250000D01*
G01*
X93942000Y-107043000D01*
G75*
G02*
X94192000Y-106793000I250000J0D01*
G01*
G37*
G04 #@! TD.AperFunction*
G04 #@! TA.AperFunction,SMDPad,CuDef*
G36*
G01*
X94192000Y-101718000D02*
X95292000Y-101718000D01*
G75*
G02*
X95542000Y-101968000I0J-250000D01*
G01*
X95542000Y-104793000D01*
G75*
G02*
X95292000Y-105043000I-250000J0D01*
G01*
X94192000Y-105043000D01*
G75*
G02*
X93942000Y-104793000I0J250000D01*
G01*
X93942000Y-101968000D01*
G75*
G02*
X94192000Y-101718000I250000J0D01*
G01*
G37*
G04 #@! TD.AperFunction*
G04 #@! TA.AperFunction,SMDPad,CuDef*
G36*
G01*
X103863000Y-101450000D02*
X103863000Y-102550000D01*
G75*
G02*
X103613000Y-102800000I-250000J0D01*
G01*
X100788000Y-102800000D01*
G75*
G02*
X100538000Y-102550000I0J250000D01*
G01*
X100538000Y-101450000D01*
G75*
G02*
X100788000Y-101200000I250000J0D01*
G01*
X103613000Y-101200000D01*
G75*
G02*
X103863000Y-101450000I0J-250000D01*
G01*
G37*
G04 #@! TD.AperFunction*
G04 #@! TA.AperFunction,SMDPad,CuDef*
G36*
G01*
X108938000Y-101450000D02*
X108938000Y-102550000D01*
G75*
G02*
X108688000Y-102800000I-250000J0D01*
G01*
X105863000Y-102800000D01*
G75*
G02*
X105613000Y-102550000I0J250000D01*
G01*
X105613000Y-101450000D01*
G75*
G02*
X105863000Y-101200000I250000J0D01*
G01*
X108688000Y-101200000D01*
G75*
G02*
X108938000Y-101450000I0J-250000D01*
G01*
G37*
G04 #@! TD.AperFunction*
D17*
X159004000Y-96096000D03*
D18*
X158954000Y-87046000D03*
X159004000Y-99096000D03*
D17*
X159004000Y-89996000D03*
X159004000Y-93046000D03*
D10*
X73660000Y-71882000D03*
X66040000Y-76962000D03*
X73660000Y-74422000D03*
X66040000Y-74422000D03*
X73660000Y-76962000D03*
D15*
X66040000Y-71882000D03*
D10*
X109474000Y-50292000D03*
D11*
X101854000Y-50292000D03*
D19*
X114300000Y-87884000D03*
X129540000Y-95504000D03*
X116840000Y-87884000D03*
X127000000Y-95504000D03*
X119380000Y-87884000D03*
X124460000Y-95504000D03*
X121920000Y-87884000D03*
X121920000Y-95504000D03*
X124460000Y-87884000D03*
X119380000Y-95504000D03*
X127000000Y-87884000D03*
X116840000Y-95504000D03*
X129540000Y-87884000D03*
D20*
X114300000Y-95504000D03*
D19*
X102616000Y-95250000D03*
X74676000Y-87630000D03*
X100076000Y-95250000D03*
X77216000Y-87630000D03*
X97536000Y-95250000D03*
X79756000Y-87630000D03*
X94996000Y-95250000D03*
X82296000Y-87630000D03*
X92456000Y-95250000D03*
X84836000Y-87630000D03*
X89916000Y-95250000D03*
X87376000Y-87630000D03*
X87376000Y-95250000D03*
X89916000Y-87630000D03*
X84836000Y-95250000D03*
X92456000Y-87630000D03*
X82296000Y-95250000D03*
X94996000Y-87630000D03*
X79756000Y-95250000D03*
X97536000Y-87630000D03*
X77216000Y-95250000D03*
X100076000Y-87630000D03*
X74676000Y-95250000D03*
D20*
X102616000Y-87630000D03*
D19*
X80010000Y-38862000D03*
X95250000Y-46482000D03*
X82550000Y-38862000D03*
X92710000Y-46482000D03*
X85090000Y-38862000D03*
X90170000Y-46482000D03*
X87630000Y-38862000D03*
X87630000Y-46482000D03*
X90170000Y-38862000D03*
X85090000Y-46482000D03*
X92710000Y-38862000D03*
X82550000Y-46482000D03*
X95250000Y-38862000D03*
D20*
X80010000Y-46482000D03*
D19*
X106680000Y-38862000D03*
X121920000Y-46482000D03*
X109220000Y-38862000D03*
X119380000Y-46482000D03*
X111760000Y-38862000D03*
X116840000Y-46482000D03*
X114300000Y-38862000D03*
X114300000Y-46482000D03*
X116840000Y-38862000D03*
X111760000Y-46482000D03*
X119380000Y-38862000D03*
X109220000Y-46482000D03*
X121920000Y-38862000D03*
D20*
X106680000Y-46482000D03*
D10*
X153416000Y-35052000D03*
D11*
X145796000Y-35052000D03*
D19*
X137414000Y-88138000D03*
X152654000Y-95758000D03*
X139954000Y-88138000D03*
X150114000Y-95758000D03*
X142494000Y-88138000D03*
X147574000Y-95758000D03*
X145034000Y-88138000D03*
X145034000Y-95758000D03*
X147574000Y-88138000D03*
X142494000Y-95758000D03*
X150114000Y-88138000D03*
X139954000Y-95758000D03*
X152654000Y-88138000D03*
D20*
X137414000Y-95758000D03*
D21*
X101000000Y-44500000D03*
D22*
X103625000Y-44500000D03*
X102856155Y-46356155D03*
X101000000Y-47125000D03*
X99143845Y-46356155D03*
X98375000Y-44500000D03*
X99143845Y-42643845D03*
X101000000Y-41875000D03*
X102856155Y-42643845D03*
X69356155Y-91643845D03*
X67500000Y-90875000D03*
X65643845Y-91643845D03*
X64875000Y-93500000D03*
X65643845Y-95356155D03*
X67500000Y-96125000D03*
X69356155Y-95356155D03*
X70125000Y-93500000D03*
D21*
X67500000Y-93500000D03*
D22*
X159856155Y-110643845D03*
X158000000Y-109875000D03*
X156143845Y-110643845D03*
X155375000Y-112500000D03*
X156143845Y-114356155D03*
X158000000Y-115125000D03*
X159856155Y-114356155D03*
X160625000Y-112500000D03*
D21*
X158000000Y-112500000D03*
D23*
X78000000Y-73500000D03*
X82500000Y-73500000D03*
X78000000Y-80000000D03*
X82500000Y-80000000D03*
X93500000Y-73500000D03*
X98000000Y-73500000D03*
X93500000Y-80000000D03*
X98000000Y-80000000D03*
D19*
X136398000Y-38608000D03*
X159258000Y-46228000D03*
X138938000Y-38608000D03*
X156718000Y-46228000D03*
X141478000Y-38608000D03*
X154178000Y-46228000D03*
X144018000Y-38608000D03*
X151638000Y-46228000D03*
X146558000Y-38608000D03*
X149098000Y-46228000D03*
X149098000Y-38608000D03*
X146558000Y-46228000D03*
X151638000Y-38608000D03*
X144018000Y-46228000D03*
X154178000Y-38608000D03*
X141478000Y-46228000D03*
X156718000Y-38608000D03*
X138938000Y-46228000D03*
X159258000Y-38608000D03*
D20*
X136398000Y-46228000D03*
D19*
X102616000Y-76454000D03*
X120396000Y-84074000D03*
X105156000Y-76454000D03*
X117856000Y-84074000D03*
X107696000Y-76454000D03*
X115316000Y-84074000D03*
X110236000Y-76454000D03*
X112776000Y-84074000D03*
X112776000Y-76454000D03*
X110236000Y-84074000D03*
X115316000Y-76454000D03*
X107696000Y-84074000D03*
X117856000Y-76454000D03*
X105156000Y-84074000D03*
X120396000Y-76454000D03*
D20*
X102616000Y-84074000D03*
D19*
X125730000Y-100076000D03*
X153670000Y-107696000D03*
X128270000Y-100076000D03*
X151130000Y-107696000D03*
X130810000Y-100076000D03*
X148590000Y-107696000D03*
X133350000Y-100076000D03*
X146050000Y-107696000D03*
X135890000Y-100076000D03*
X143510000Y-107696000D03*
X138430000Y-100076000D03*
X140970000Y-107696000D03*
X140970000Y-100076000D03*
X138430000Y-107696000D03*
X143510000Y-100076000D03*
X135890000Y-107696000D03*
X146050000Y-100076000D03*
X133350000Y-107696000D03*
X148590000Y-100076000D03*
X130810000Y-107696000D03*
X151130000Y-100076000D03*
X128270000Y-107696000D03*
X153670000Y-100076000D03*
D20*
X125730000Y-107696000D03*
D19*
X126238000Y-68834000D03*
X159258000Y-84074000D03*
X128778000Y-68834000D03*
X156718000Y-84074000D03*
X131318000Y-68834000D03*
X154178000Y-84074000D03*
X133858000Y-68834000D03*
X151638000Y-84074000D03*
X136398000Y-68834000D03*
X149098000Y-84074000D03*
X138938000Y-68834000D03*
X146558000Y-84074000D03*
X141478000Y-68834000D03*
X144018000Y-84074000D03*
X144018000Y-68834000D03*
X141478000Y-84074000D03*
X146558000Y-68834000D03*
X138938000Y-84074000D03*
X149098000Y-68834000D03*
X136398000Y-84074000D03*
X151638000Y-68834000D03*
X133858000Y-84074000D03*
X154178000Y-68834000D03*
X131318000Y-84074000D03*
X156718000Y-68834000D03*
X128778000Y-84074000D03*
X159258000Y-68834000D03*
D20*
X126238000Y-84074000D03*
D19*
X126238000Y-49784000D03*
X159258000Y-65024000D03*
X128778000Y-49784000D03*
X156718000Y-65024000D03*
X131318000Y-49784000D03*
X154178000Y-65024000D03*
X133858000Y-49784000D03*
X151638000Y-65024000D03*
X136398000Y-49784000D03*
X149098000Y-65024000D03*
X138938000Y-49784000D03*
X146558000Y-65024000D03*
X141478000Y-49784000D03*
X144018000Y-65024000D03*
X144018000Y-49784000D03*
X141478000Y-65024000D03*
X146558000Y-49784000D03*
X138938000Y-65024000D03*
X149098000Y-49784000D03*
X136398000Y-65024000D03*
X151638000Y-49784000D03*
X133858000Y-65024000D03*
X154178000Y-49784000D03*
X131318000Y-65024000D03*
X156718000Y-49784000D03*
X128778000Y-65024000D03*
X159258000Y-49784000D03*
D20*
X126238000Y-65024000D03*
D19*
X85852000Y-53848000D03*
X118872000Y-69088000D03*
X88392000Y-53848000D03*
X116332000Y-69088000D03*
X90932000Y-53848000D03*
X113792000Y-69088000D03*
X93472000Y-53848000D03*
X111252000Y-69088000D03*
X96012000Y-53848000D03*
X108712000Y-69088000D03*
X98552000Y-53848000D03*
X106172000Y-69088000D03*
X101092000Y-53848000D03*
X103632000Y-69088000D03*
X103632000Y-53848000D03*
X101092000Y-69088000D03*
X106172000Y-53848000D03*
X98552000Y-69088000D03*
X108712000Y-53848000D03*
X96012000Y-69088000D03*
X111252000Y-53848000D03*
X93472000Y-69088000D03*
X113792000Y-53848000D03*
X90932000Y-69088000D03*
X116332000Y-53848000D03*
X88392000Y-69088000D03*
X118872000Y-53848000D03*
D20*
X85852000Y-69088000D03*
D10*
X96520000Y-83566000D03*
D11*
X88900000Y-83566000D03*
D10*
X79248000Y-49784000D03*
D11*
X79248000Y-57404000D03*
D10*
X119380000Y-106934000D03*
D11*
X111760000Y-106934000D03*
D10*
X119380000Y-110236000D03*
D11*
X111760000Y-110236000D03*
D10*
X66548000Y-83566000D03*
D11*
X74168000Y-83566000D03*
D10*
X82550000Y-57404000D03*
D11*
X82550000Y-49784000D03*
D10*
X119634000Y-50292000D03*
D11*
X112014000Y-50292000D03*
D10*
X99314000Y-50292000D03*
D11*
X91694000Y-50292000D03*
D10*
X95504000Y-35306000D03*
D11*
X87884000Y-35306000D03*
D24*
X123698000Y-35052000D03*
X121158000Y-35052000D03*
X118618000Y-35052000D03*
D25*
X116078000Y-35052000D03*
D26*
X95298000Y-121960000D03*
X97838000Y-121960000D03*
X105458000Y-121960000D03*
X113078000Y-121960000D03*
X110538000Y-121960000D03*
X107998000Y-121960000D03*
X115618000Y-121960000D03*
X90218000Y-121960000D03*
X92758000Y-121960000D03*
X102918000Y-121960000D03*
X118158000Y-121960000D03*
X123238000Y-121960000D03*
X120698000Y-121960000D03*
X125778000Y-121960000D03*
X130858000Y-121960000D03*
X128318000Y-121960000D03*
X133398000Y-121960000D03*
X143558000Y-121960000D03*
X138478000Y-121960000D03*
X151178000Y-121960000D03*
X156258000Y-121960000D03*
X158798000Y-121960000D03*
X135938000Y-121960000D03*
X146098000Y-121960000D03*
X148638000Y-121960000D03*
X153718000Y-121960000D03*
X141018000Y-121960000D03*
D24*
X153162000Y-28460000D03*
X153162000Y-31000000D03*
X150622000Y-28460000D03*
X150622000Y-31000000D03*
X148082000Y-28460000D03*
X148082000Y-31000000D03*
X145542000Y-28460000D03*
X145542000Y-31000000D03*
X143002000Y-28460000D03*
X143002000Y-31000000D03*
X140462000Y-28460000D03*
X140462000Y-31000000D03*
X137922000Y-28460000D03*
X137922000Y-31000000D03*
X135382000Y-28460000D03*
X135382000Y-31000000D03*
X132842000Y-28460000D03*
X132842000Y-31000000D03*
X130302000Y-28460000D03*
X130302000Y-31000000D03*
X127762000Y-28460000D03*
X127762000Y-31000000D03*
X125222000Y-28460000D03*
X125222000Y-31000000D03*
X122682000Y-28460000D03*
D25*
X122682000Y-31000000D03*
D11*
X122682000Y-49356000D03*
X122682000Y-54356000D03*
X106172000Y-95678000D03*
X106172000Y-90678000D03*
X133604000Y-87710000D03*
X133604000Y-92710000D03*
X110744000Y-87456000D03*
X110744000Y-92456000D03*
X102188000Y-73152000D03*
X107188000Y-73152000D03*
X135970000Y-35052000D03*
X140970000Y-35052000D03*
X106252000Y-35560000D03*
X111252000Y-35560000D03*
X79328000Y-35306000D03*
X84328000Y-35306000D03*
X122174000Y-99648000D03*
X122174000Y-104648000D03*
X122682000Y-68406000D03*
X122682000Y-73406000D03*
X122682000Y-56722000D03*
X122682000Y-61722000D03*
X118284000Y-99822000D03*
X113284000Y-99822000D03*
D25*
X69000000Y-31000000D03*
D24*
X69000000Y-28460000D03*
X71540000Y-31000000D03*
X71540000Y-28460000D03*
X74080000Y-31000000D03*
X74080000Y-28460000D03*
X76620000Y-31000000D03*
X76620000Y-28460000D03*
X79160000Y-31000000D03*
X79160000Y-28460000D03*
X81700000Y-31000000D03*
X81700000Y-28460000D03*
X84240000Y-31000000D03*
X84240000Y-28460000D03*
X86780000Y-31000000D03*
X86780000Y-28460000D03*
X89320000Y-31000000D03*
X89320000Y-28460000D03*
X91860000Y-31000000D03*
X91860000Y-28460000D03*
X94400000Y-31000000D03*
X94400000Y-28460000D03*
X96940000Y-31000000D03*
X96940000Y-28460000D03*
X99480000Y-31000000D03*
X99480000Y-28460000D03*
X102020000Y-31000000D03*
X102020000Y-28460000D03*
X104560000Y-31000000D03*
X104560000Y-28460000D03*
X107100000Y-31000000D03*
X107100000Y-28460000D03*
X109640000Y-31000000D03*
X109640000Y-28460000D03*
D25*
X91694000Y-116078000D03*
D24*
X94234000Y-116078000D03*
X96774000Y-116078000D03*
D27*
X132540000Y-37000000D03*
D28*
X130000000Y-37000000D03*
D10*
X121412000Y-114808000D03*
D15*
X113792000Y-114808000D03*
D10*
X123952000Y-114808000D03*
D15*
X131572000Y-114808000D03*
X141732000Y-114808000D03*
D10*
X134112000Y-114808000D03*
D27*
X102040000Y-37000000D03*
D28*
X99500000Y-37000000D03*
D11*
X118284000Y-103378000D03*
X113284000Y-103378000D03*
X123778000Y-111506000D03*
X128778000Y-111506000D03*
X66374000Y-87630000D03*
X71374000Y-87630000D03*
D29*
X80772000Y-63246000D03*
X80772000Y-68146000D03*
D30*
X80128100Y-90087100D03*
X109686600Y-99008900D03*
X133031600Y-90443600D03*
X121835700Y-92206800D03*
X142202500Y-103826400D03*
X151291100Y-97949200D03*
X150013800Y-103372300D03*
X136864600Y-104133500D03*
X125434000Y-56787400D03*
X98811800Y-106108100D03*
X85295900Y-92289200D03*
X83847300Y-85363800D03*
X107918900Y-106882200D03*
X103686700Y-100030200D03*
X115431300Y-61892300D03*
X90853400Y-59018000D03*
X112374900Y-80212200D03*
X120269700Y-30938000D03*
X120573400Y-43968200D03*
X155823900Y-27650600D03*
X142684400Y-81044900D03*
X119489600Y-101377500D03*
X91054800Y-91212700D03*
X92157400Y-55648700D03*
X124710800Y-49390700D03*
X126005700Y-70707200D03*
X104597300Y-106342200D03*
X118565900Y-111481700D03*
X101212400Y-70993600D03*
X113792000Y-73569200D03*
X137118000Y-73755500D03*
X149473400Y-51675200D03*
X160875300Y-46642700D03*
X140211000Y-81945500D03*
X144722100Y-111549300D03*
X114117100Y-82141600D03*
X118527300Y-115759900D03*
X125990100Y-92974000D03*
X115475400Y-92152700D03*
X112644700Y-105719000D03*
X149688100Y-90443600D03*
X153513100Y-91679900D03*
X153048400Y-110128000D03*
X147820300Y-110770800D03*
X140268400Y-118848000D03*
X152448400Y-97806400D03*
X154845600Y-118294400D03*
X121492600Y-63245200D03*
X123790500Y-71010500D03*
X102238100Y-105586500D03*
X102918000Y-111974900D03*
X99077200Y-90307300D03*
X91242900Y-82885700D03*
X113614300Y-80283700D03*
X155968800Y-62558800D03*
X159274000Y-71489400D03*
X108373100Y-97876600D03*
X139633400Y-43738400D03*
X103791700Y-65169200D03*
X106442900Y-79419200D03*
X97848400Y-103340400D03*
X115135500Y-108352200D03*
X107597800Y-98651900D03*
X131037200Y-73871300D03*
X130119000Y-76307500D03*
X131119000Y-91744600D03*
X131563200Y-93496900D03*
X101804500Y-107985900D03*
X108443400Y-112590900D03*
X132667700Y-109465100D03*
X123711400Y-118353700D03*
X151482100Y-101935900D03*
X123679500Y-81950400D03*
X119568600Y-65537700D03*
X138881300Y-77635200D03*
X155778300Y-89999400D03*
X156235900Y-103730500D03*
X128212000Y-77242700D03*
X119178700Y-79436900D03*
X121471200Y-89743200D03*
X129748100Y-93649800D03*
X137107800Y-109598800D03*
X97208700Y-117578300D03*
X96076200Y-118452900D03*
X93506500Y-93529700D03*
X124628000Y-98702700D03*
X122294600Y-102538300D03*
X120314400Y-66295600D03*
X124562200Y-81295000D03*
X118164200Y-108585000D03*
X120327800Y-117521600D03*
X149495300Y-81490300D03*
X131985300Y-105053400D03*
X123728200Y-116972300D03*
X121158000Y-29774700D03*
X104982100Y-50371700D03*
X104904000Y-37965400D03*
X113747700Y-48516200D03*
X95560900Y-61466200D03*
X101560000Y-118238000D03*
X99263800Y-119419900D03*
X105868900Y-111974900D03*
X157009300Y-106856800D03*
X145927200Y-111724700D03*
X138461100Y-113901200D03*
D31*
X122174000Y-104648000D02*
X122174000Y-106786600D01*
X122174000Y-106786600D02*
X126893400Y-111506000D01*
X126893400Y-111506000D02*
X128778000Y-111506000D01*
X113284000Y-103378000D02*
X111293700Y-101387700D01*
X111293700Y-101387700D02*
X111293700Y-93005700D01*
X111293700Y-93005700D02*
X110744000Y-92456000D01*
X94742000Y-108455500D02*
X96786500Y-110500000D01*
X96786500Y-110500000D02*
X102200500Y-110500000D01*
X85090000Y-105664000D02*
X91950500Y-105664000D01*
X91950500Y-105664000D02*
X94742000Y-108455500D01*
X121430100Y-61722000D02*
X118743300Y-64408800D01*
X118743300Y-64408800D02*
X118743300Y-68959300D01*
X118743300Y-68959300D02*
X118872000Y-69088000D01*
X111252000Y-32612000D02*
X111252000Y-35560000D01*
X109640000Y-31000000D02*
X111252000Y-32612000D01*
X132842000Y-28460000D02*
X131519300Y-27137300D01*
X131519300Y-27137300D02*
X116726700Y-27137300D01*
X116726700Y-27137300D02*
X111252000Y-32612000D01*
X90932000Y-53848000D02*
X90932000Y-55590300D01*
X90932000Y-55590300D02*
X97282000Y-61940300D01*
X97282000Y-61940300D02*
X97282000Y-72782000D01*
X97282000Y-72782000D02*
X98000000Y-73500000D01*
X93980000Y-46482000D02*
X93980000Y-47355100D01*
X93980000Y-47355100D02*
X92477200Y-48857900D01*
X92477200Y-48857900D02*
X91350900Y-48857900D01*
X91350900Y-48857900D02*
X90463200Y-49745600D01*
X90463200Y-49745600D02*
X90463200Y-53379200D01*
X90463200Y-53379200D02*
X90932000Y-53848000D01*
X148082000Y-28460000D02*
X150622000Y-28460000D01*
X122682000Y-73406000D02*
X122682000Y-81788000D01*
X122682000Y-81788000D02*
X120396000Y-84074000D01*
X66040000Y-71882000D02*
X66040000Y-74422000D01*
X71410000Y-50925000D02*
X66040000Y-56295000D01*
X66040000Y-56295000D02*
X66040000Y-71882000D01*
X71374000Y-87630000D02*
X71374000Y-79756000D01*
X71374000Y-79756000D02*
X66040000Y-74422000D01*
X93980000Y-46482000D02*
X93980000Y-31420000D01*
X93980000Y-31420000D02*
X94400000Y-31000000D01*
X93980000Y-46482000D02*
X95250000Y-46482000D01*
X94400000Y-31000000D02*
X96940000Y-31000000D01*
X84328000Y-31088000D02*
X84328000Y-35306000D01*
X84240000Y-31000000D02*
X84328000Y-31088000D01*
X86780000Y-31000000D02*
X84416000Y-31000000D01*
X84416000Y-31000000D02*
X84328000Y-31088000D01*
X152654000Y-95758000D02*
X154912000Y-98016000D01*
X154912000Y-98016000D02*
X154912000Y-101674700D01*
X154912000Y-101674700D02*
X153670000Y-102916700D01*
X153670000Y-102916700D02*
X153670000Y-107696000D01*
X159258000Y-84074000D02*
X159139500Y-84074000D01*
X159139500Y-84074000D02*
X152654000Y-90559500D01*
X152654000Y-90559500D02*
X152654000Y-95758000D01*
X136398000Y-46228000D02*
X136398000Y-45073700D01*
X136398000Y-45073700D02*
X140208000Y-41263700D01*
X140208000Y-41263700D02*
X140208000Y-35814000D01*
X140208000Y-35814000D02*
X140970000Y-35052000D01*
X98000000Y-80000000D02*
X98000000Y-73500000D01*
X76620000Y-31000000D02*
X79160000Y-31000000D01*
X74080000Y-31000000D02*
X76620000Y-31000000D01*
X121430100Y-61722000D02*
X121430100Y-55607900D01*
X121430100Y-55607900D02*
X122682000Y-54356000D01*
X121430100Y-61722000D02*
X122682000Y-61722000D01*
X121920000Y-46482000D02*
X121403500Y-46998500D01*
X121403500Y-46998500D02*
X121403500Y-53077500D01*
X121403500Y-53077500D02*
X122682000Y-54356000D01*
X159258000Y-46228000D02*
X160487000Y-47457000D01*
X160487000Y-47457000D02*
X160487000Y-63795000D01*
X160487000Y-63795000D02*
X159258000Y-65024000D01*
X150622000Y-28460000D02*
X151943000Y-27139000D01*
X151943000Y-27139000D02*
X153676700Y-27139000D01*
X153676700Y-27139000D02*
X156354700Y-29817000D01*
X156354700Y-29817000D02*
X156354700Y-35166100D01*
X156354700Y-35166100D02*
X157988000Y-36799400D01*
X157988000Y-36799400D02*
X157988000Y-44958000D01*
X157988000Y-44958000D02*
X159258000Y-46228000D01*
X159258000Y-65024000D02*
X160498200Y-66264200D01*
X160498200Y-66264200D02*
X160498200Y-82833800D01*
X160498200Y-82833800D02*
X159258000Y-84074000D01*
D32*
X78000000Y-80000000D02*
X78932800Y-80932800D01*
X78932800Y-80932800D02*
X78932800Y-84429200D01*
X78932800Y-84429200D02*
X78537700Y-84824300D01*
X78537700Y-84824300D02*
X78537700Y-88496700D01*
X78537700Y-88496700D02*
X80128100Y-90087100D01*
X78000000Y-73500000D02*
X78000000Y-80000000D01*
X123238000Y-119174000D02*
X123238000Y-121960000D01*
X122360900Y-118296900D02*
X123238000Y-119174000D01*
X119935300Y-118296900D02*
X122360900Y-118296900D01*
X117470500Y-113410900D02*
X117470500Y-115832100D01*
X111230300Y-111419900D02*
X112239800Y-111419900D01*
X113514300Y-108876900D02*
X114875100Y-107516100D01*
X110563000Y-110752600D02*
X111230300Y-111419900D01*
X117470500Y-115832100D02*
X119935300Y-118296900D01*
X109686600Y-99008900D02*
X110563000Y-99885300D01*
X110563000Y-99885300D02*
X110563000Y-110752600D01*
X114875100Y-107516100D02*
X115419600Y-107516100D01*
X115419600Y-107516100D02*
X116761900Y-108858400D01*
X116761900Y-112702300D02*
X117470500Y-113410900D01*
X113514300Y-110145400D02*
X113514300Y-108876900D01*
X112239800Y-111419900D02*
X113514300Y-110145400D01*
X116761900Y-108858400D02*
X116761900Y-112702300D01*
X85852000Y-69088000D02*
X87376000Y-70612000D01*
X87376000Y-70612000D02*
X87376000Y-87630000D01*
X133031600Y-90443600D02*
X135182400Y-92594400D01*
X135182400Y-92594400D02*
X135182400Y-99368500D01*
X135182400Y-99368500D02*
X135182500Y-99368500D01*
X135182500Y-99368500D02*
X135890000Y-100076000D01*
X120396000Y-76454000D02*
X116667700Y-80182300D01*
X116667700Y-80182300D02*
X116667700Y-84963500D01*
X116667700Y-84963500D02*
X118036800Y-86332600D01*
X118036800Y-86332600D02*
X118036800Y-88604900D01*
X118036800Y-88604900D02*
X121638700Y-92206800D01*
X121638700Y-92206800D02*
X121835700Y-92206800D01*
X140970000Y-100076000D02*
X140970000Y-102593900D01*
X140970000Y-102593900D02*
X142202500Y-103826400D01*
X118284000Y-103378000D02*
X117258500Y-103378000D01*
X117258500Y-103378000D02*
X113702500Y-106934000D01*
X113702500Y-106934000D02*
X111760000Y-106934000D01*
X146558000Y-68834000D02*
X145349700Y-70042300D01*
X145349700Y-70042300D02*
X145349700Y-84963500D01*
X145349700Y-84963500D02*
X146221300Y-85835100D01*
X146221300Y-85835100D02*
X149920900Y-85835100D01*
X149920900Y-85835100D02*
X151291100Y-87205300D01*
X151291100Y-87205300D02*
X151291100Y-97949200D01*
X150013800Y-103372300D02*
X148590000Y-101948500D01*
X148590000Y-101948500D02*
X148590000Y-100076000D01*
X133350000Y-100076000D02*
X133350000Y-100618900D01*
X133350000Y-100618900D02*
X136864600Y-104133500D01*
X98811800Y-106108100D02*
X96708800Y-104005100D01*
X96708800Y-104005100D02*
X96708800Y-101739500D01*
X96708800Y-101739500D02*
X94915200Y-99945900D01*
X94915200Y-99945900D02*
X92502500Y-99945900D01*
X92502500Y-99945900D02*
X88646000Y-96089400D01*
X88646000Y-96089400D02*
X88646000Y-94385900D01*
X88646000Y-94385900D02*
X86549300Y-92289200D01*
X86549300Y-92289200D02*
X85295900Y-92289200D01*
X130000000Y-37000000D02*
X130000000Y-52221400D01*
X130000000Y-52221400D02*
X125434000Y-56787400D01*
X82500000Y-80000000D02*
X83847300Y-81347300D01*
X83847300Y-81347300D02*
X83847300Y-85363800D01*
X82500000Y-80000000D02*
X82500000Y-73500000D01*
X102040000Y-37000000D02*
X100750000Y-35710000D01*
X100750000Y-35710000D02*
X100750000Y-27981000D01*
X100750000Y-27981000D02*
X98983100Y-26214100D01*
X98983100Y-26214100D02*
X84695200Y-26214100D01*
X84695200Y-26214100D02*
X83014700Y-27894600D01*
X83014700Y-27894600D02*
X83014700Y-28969200D01*
X83014700Y-28969200D02*
X82253900Y-29730000D01*
X82253900Y-29730000D02*
X81141800Y-29730000D01*
X81141800Y-29730000D02*
X80474600Y-30397200D01*
X80474600Y-30397200D02*
X80474600Y-34271000D01*
X80474600Y-34271000D02*
X81196300Y-34992700D01*
X81196300Y-34992700D02*
X81196300Y-55455700D01*
X81196300Y-55455700D02*
X79248000Y-57404000D01*
X95504000Y-35306000D02*
X96438600Y-36240600D01*
X96438600Y-36240600D02*
X96438600Y-53421400D01*
X96438600Y-53421400D02*
X96012000Y-53848000D01*
X89320000Y-28460000D02*
X90590000Y-29730000D01*
X90590000Y-29730000D02*
X90590000Y-38442000D01*
X90590000Y-38442000D02*
X90170000Y-38862000D01*
X91860000Y-28460000D02*
X93099500Y-29699500D01*
X93099500Y-29699500D02*
X93099500Y-32771700D01*
X93099500Y-32771700D02*
X91519400Y-34351800D01*
X91519400Y-34351800D02*
X91519400Y-45291400D01*
X91519400Y-45291400D02*
X92710000Y-46482000D01*
X107100000Y-28460000D02*
X108370000Y-29730000D01*
X108370000Y-29730000D02*
X108370000Y-34894600D01*
X108370000Y-34894600D02*
X110490000Y-37014600D01*
X110490000Y-37014600D02*
X110490000Y-45212000D01*
X110490000Y-45212000D02*
X111760000Y-46482000D01*
X99314000Y-50292000D02*
X97124000Y-48102000D01*
X97124000Y-48102000D02*
X97124000Y-39050300D01*
X97124000Y-39050300D02*
X98224600Y-37949700D01*
X98224600Y-37949700D02*
X98224600Y-29715400D01*
X98224600Y-29715400D02*
X99480000Y-28460000D01*
X98552000Y-53848000D02*
X98552000Y-51054000D01*
X98552000Y-51054000D02*
X99314000Y-50292000D01*
X118284000Y-99822000D02*
X118284000Y-96600000D01*
X118284000Y-96600000D02*
X119380000Y-95504000D01*
X111252000Y-53848000D02*
X111252000Y-66743000D01*
X111252000Y-66743000D02*
X110036100Y-67958900D01*
X110036100Y-67958900D02*
X110036100Y-74067800D01*
X110036100Y-74067800D02*
X111508000Y-75539700D01*
X111508000Y-75539700D02*
X111508000Y-85963300D01*
X111508000Y-85963300D02*
X113124600Y-87579900D01*
X113124600Y-87579900D02*
X113124600Y-88789800D01*
X113124600Y-88789800D02*
X115712200Y-91377400D01*
X115712200Y-91377400D02*
X115796600Y-91377400D01*
X115796600Y-91377400D02*
X119380000Y-94960800D01*
X119380000Y-94960800D02*
X119380000Y-95504000D01*
X107918900Y-106882200D02*
X107918900Y-102643400D01*
X107918900Y-102643400D02*
X107275500Y-102000000D01*
X127000000Y-95504000D02*
X126683000Y-95504000D01*
X126683000Y-95504000D02*
X123849800Y-98337200D01*
X123849800Y-98337200D02*
X123849800Y-99855100D01*
X123849800Y-99855100D02*
X120998700Y-102706200D01*
X120998700Y-102706200D02*
X120998700Y-108617300D01*
X120998700Y-108617300D02*
X119380000Y-110236000D01*
X103686700Y-100030200D02*
X102200500Y-101516400D01*
X102200500Y-101516400D02*
X102200500Y-102000000D01*
X117856000Y-76454000D02*
X117602000Y-76200000D01*
X117602000Y-76200000D02*
X117602000Y-64063000D01*
X117602000Y-64063000D02*
X115431300Y-61892300D01*
X87630000Y-46482000D02*
X87190300Y-46921700D01*
X87190300Y-46921700D02*
X87190300Y-55354900D01*
X87190300Y-55354900D02*
X90853400Y-59018000D01*
X111760000Y-38862000D02*
X112972400Y-40074400D01*
X112972400Y-40074400D02*
X112972400Y-49294200D01*
X112972400Y-49294200D02*
X113195300Y-49517100D01*
X113195300Y-49517100D02*
X113195300Y-51651900D01*
X113195300Y-51651900D02*
X112599300Y-52247900D01*
X112599300Y-52247900D02*
X112599300Y-74203800D01*
X112599300Y-74203800D02*
X113969200Y-75573700D01*
X113969200Y-75573700D02*
X113969200Y-78617900D01*
X113969200Y-78617900D02*
X112374900Y-80212200D01*
X114300000Y-38862000D02*
X114300000Y-38551700D01*
X114300000Y-38551700D02*
X116138600Y-36713100D01*
X116138600Y-36713100D02*
X116667800Y-36713100D01*
X116667800Y-36713100D02*
X117381100Y-35999800D01*
X117381100Y-35999800D02*
X117381100Y-33826600D01*
X117381100Y-33826600D02*
X120269700Y-30938000D01*
X129540000Y-87884000D02*
X127847200Y-86191200D01*
X127847200Y-86191200D02*
X125088700Y-86191200D01*
X125088700Y-86191200D02*
X124562300Y-85664800D01*
X124562300Y-85664800D02*
X124562300Y-82488000D01*
X124562300Y-82488000D02*
X125375200Y-81675100D01*
X125375200Y-81675100D02*
X125375200Y-71211500D01*
X125375200Y-71211500D02*
X124399300Y-70235600D01*
X124399300Y-70235600D02*
X124399300Y-60820000D01*
X124399300Y-60820000D02*
X123858600Y-60279300D01*
X123858600Y-60279300D02*
X123858600Y-45449400D01*
X123858600Y-45449400D02*
X118110000Y-39700800D01*
X118110000Y-39700800D02*
X118110000Y-37980300D01*
X118110000Y-37980300D02*
X117387800Y-37258100D01*
X117387800Y-37258100D02*
X116362900Y-37258100D01*
X116362900Y-37258100D02*
X115570000Y-38051000D01*
X115570000Y-38051000D02*
X115570000Y-45212000D01*
X115570000Y-45212000D02*
X114300000Y-46482000D01*
X120573400Y-43968200D02*
X120573400Y-47197700D01*
X120573400Y-47197700D02*
X120853100Y-47477400D01*
X120853100Y-47477400D02*
X120853100Y-55374100D01*
X120853100Y-55374100D02*
X114656000Y-61571200D01*
X114656000Y-61571200D02*
X114656000Y-62213400D01*
X114656000Y-62213400D02*
X115056100Y-62613500D01*
X115056100Y-62613500D02*
X115056100Y-73654100D01*
X115056100Y-73654100D02*
X116510100Y-75108100D01*
X116510100Y-75108100D02*
X116510100Y-77788100D01*
X116510100Y-77788100D02*
X115316000Y-78982200D01*
X115316000Y-78982200D02*
X115316000Y-84074000D01*
X109220000Y-46482000D02*
X110666600Y-47928600D01*
X110666600Y-47928600D02*
X110666600Y-51492200D01*
X110666600Y-51492200D02*
X109982000Y-52176800D01*
X109982000Y-52176800D02*
X109982000Y-56411000D01*
X109982000Y-56411000D02*
X107479900Y-58913100D01*
X107479900Y-58913100D02*
X107479900Y-70969100D01*
X107479900Y-70969100D02*
X108419500Y-71908700D01*
X108419500Y-71908700D02*
X108419500Y-75730500D01*
X108419500Y-75730500D02*
X107696000Y-76454000D01*
X121920000Y-38862000D02*
X126536600Y-34245400D01*
X126536600Y-34245400D02*
X126536600Y-30435500D01*
X126536600Y-30435500D02*
X127286700Y-29685400D01*
X127286700Y-29685400D02*
X133358600Y-29685400D01*
X133358600Y-29685400D02*
X134111900Y-28932100D01*
X134111900Y-28932100D02*
X134111900Y-27958200D01*
X134111900Y-27958200D02*
X135483500Y-26586600D01*
X135483500Y-26586600D02*
X154759900Y-26586600D01*
X154759900Y-26586600D02*
X155823900Y-27650600D01*
X142494000Y-88138000D02*
X142684400Y-87947600D01*
X142684400Y-87947600D02*
X142684400Y-81044900D01*
X119489600Y-101377500D02*
X119489600Y-97934400D01*
X119489600Y-97934400D02*
X121920000Y-95504000D01*
X111760000Y-110236000D02*
X111760000Y-109910000D01*
X111760000Y-109910000D02*
X115093700Y-106576300D01*
X115093700Y-106576300D02*
X116751200Y-106576300D01*
X116751200Y-106576300D02*
X119489600Y-103837900D01*
X119489600Y-103837900D02*
X119489600Y-101377500D01*
X91054800Y-91212700D02*
X73268600Y-91212700D01*
X73268600Y-91212700D02*
X69002600Y-86946700D01*
X69002600Y-86946700D02*
X69002600Y-79924600D01*
X69002600Y-79924600D02*
X66040000Y-76962000D01*
D31*
X124710800Y-49390700D02*
X124608700Y-49492800D01*
X124608700Y-49492800D02*
X124608700Y-57129200D01*
X124608700Y-57129200D02*
X125012600Y-57533100D01*
X125012600Y-57533100D02*
X125012600Y-69818900D01*
X125012600Y-69818900D02*
X125900900Y-70707200D01*
X125900900Y-70707200D02*
X126005700Y-70707200D01*
X82550000Y-57404000D02*
X82550000Y-53659400D01*
X82550000Y-53659400D02*
X86360000Y-49849400D01*
X86360000Y-49849400D02*
X86360000Y-36830000D01*
X86360000Y-36830000D02*
X87884000Y-35306000D01*
X91694000Y-50292000D02*
X92157400Y-50755400D01*
X92157400Y-50755400D02*
X92157400Y-55648700D01*
D32*
X123778000Y-111506000D02*
X118590200Y-111506000D01*
X118590200Y-111506000D02*
X118565900Y-111481700D01*
X102616000Y-84074000D02*
X104597300Y-86055300D01*
X104597300Y-86055300D02*
X104597300Y-106342200D01*
X102616000Y-84074000D02*
X100985700Y-82443700D01*
X100985700Y-82443700D02*
X100985700Y-71220300D01*
X100985700Y-71220300D02*
X101212400Y-70993600D01*
X82296000Y-95250000D02*
X82296000Y-107796800D01*
X82296000Y-107796800D02*
X88900700Y-114401500D01*
X88900700Y-114401500D02*
X96840900Y-114401500D01*
X96840900Y-114401500D02*
X98042500Y-115603100D01*
X98042500Y-115603100D02*
X98042500Y-118304400D01*
X98042500Y-118304400D02*
X95298000Y-121048900D01*
X95298000Y-121048900D02*
X95298000Y-121960000D01*
X149098000Y-49784000D02*
X150368000Y-48514000D01*
X150368000Y-48514000D02*
X150368000Y-37786000D01*
X150368000Y-37786000D02*
X151133800Y-37020200D01*
X151133800Y-37020200D02*
X152590200Y-37020200D01*
X152590200Y-37020200D02*
X154178000Y-38608000D01*
X149098000Y-68834000D02*
X149098000Y-67563800D01*
X149098000Y-67563800D02*
X147907400Y-66373200D01*
X147907400Y-66373200D02*
X147907400Y-54511000D01*
X147907400Y-54511000D02*
X150271700Y-52146700D01*
X150271700Y-52146700D02*
X150271700Y-50957700D01*
X150271700Y-50957700D02*
X149098000Y-49784000D01*
X113792000Y-73569200D02*
X113792000Y-69088000D01*
X119380000Y-46482000D02*
X117551900Y-48310100D01*
X117551900Y-48310100D02*
X117551900Y-56185100D01*
X117551900Y-56185100D02*
X113792000Y-59945000D01*
X113792000Y-59945000D02*
X113792000Y-69088000D01*
X137414000Y-95758000D02*
X137414000Y-92822900D01*
X137414000Y-92822900D02*
X135538800Y-90947700D01*
X135538800Y-90947700D02*
X135538800Y-85624600D01*
X135538800Y-85624600D02*
X135198900Y-85284700D01*
X135198900Y-85284700D02*
X135198900Y-75674600D01*
X135198900Y-75674600D02*
X137118000Y-73755500D01*
X156258000Y-121960000D02*
X156258000Y-117486100D01*
X156258000Y-117486100D02*
X154102100Y-115330200D01*
X154102100Y-115330200D02*
X154102100Y-110878500D01*
X154102100Y-110878500D02*
X161180600Y-103800000D01*
X161180600Y-103800000D02*
X161180600Y-46948000D01*
X161180600Y-46948000D02*
X160875300Y-46642700D01*
X145208600Y-51675200D02*
X145208600Y-50974600D01*
X145208600Y-50974600D02*
X144018000Y-49784000D01*
X144018000Y-68834000D02*
X145208600Y-67643400D01*
X145208600Y-67643400D02*
X145208600Y-51675200D01*
X149473400Y-51675200D02*
X145208600Y-51675200D01*
X138938000Y-68834000D02*
X137747400Y-67643400D01*
X137747400Y-67643400D02*
X137747400Y-50974600D01*
X137747400Y-50974600D02*
X138938000Y-49784000D01*
X140211000Y-81945500D02*
X140211000Y-71939300D01*
X140211000Y-71939300D02*
X138938000Y-70666300D01*
X138938000Y-70666300D02*
X138938000Y-68834000D01*
X144722100Y-111549300D02*
X144722100Y-106846000D01*
X144722100Y-106846000D02*
X142574100Y-104698000D01*
X142574100Y-104698000D02*
X141977700Y-104698000D01*
X141977700Y-104698000D02*
X139770900Y-102491200D01*
X139770900Y-102491200D02*
X139770900Y-95941100D01*
X139770900Y-95941100D02*
X139954000Y-95758000D01*
X114117100Y-82141600D02*
X114117100Y-85597000D01*
X114117100Y-85597000D02*
X115475400Y-86955300D01*
X115475400Y-86955300D02*
X115475400Y-88604300D01*
X115475400Y-88604300D02*
X116770200Y-89899100D01*
X116770200Y-89899100D02*
X118394500Y-89899100D01*
X118394500Y-89899100D02*
X123122800Y-94627400D01*
X123122800Y-94627400D02*
X123122800Y-96551400D01*
X123122800Y-96551400D02*
X120317300Y-99356900D01*
X120317300Y-99356900D02*
X120317300Y-103775900D01*
X120317300Y-103775900D02*
X117262200Y-106831000D01*
X117262200Y-106831000D02*
X117262200Y-112495000D01*
X117262200Y-112495000D02*
X118027000Y-113259800D01*
X118027000Y-113259800D02*
X118027000Y-115259600D01*
X118027000Y-115259600D02*
X118527300Y-115759900D01*
X149098000Y-65024000D02*
X149098000Y-66441800D01*
X149098000Y-66441800D02*
X150287100Y-67630900D01*
X150287100Y-67630900D02*
X150287100Y-82884900D01*
X150287100Y-82884900D02*
X149098000Y-84074000D01*
X128778000Y-65024000D02*
X127436700Y-66365300D01*
X127436700Y-66365300D02*
X127436700Y-82732700D01*
X127436700Y-82732700D02*
X128778000Y-84074000D01*
X125990100Y-92974000D02*
X127277900Y-92974000D01*
X127277900Y-92974000D02*
X131253900Y-88998000D01*
X131253900Y-88998000D02*
X131253900Y-86828200D01*
X131253900Y-86828200D02*
X128778000Y-84352300D01*
X128778000Y-84352300D02*
X128778000Y-84074000D01*
X115475400Y-92152700D02*
X115475400Y-102888300D01*
X115475400Y-102888300D02*
X112644700Y-105719000D01*
X131318000Y-84074000D02*
X131812500Y-83579500D01*
X131812500Y-83579500D02*
X131812500Y-73363400D01*
X131812500Y-73363400D02*
X130127400Y-71678300D01*
X130127400Y-71678300D02*
X130127400Y-66214600D01*
X130127400Y-66214600D02*
X131318000Y-65024000D01*
X153513100Y-91679900D02*
X155462400Y-93629200D01*
X155462400Y-93629200D02*
X155462400Y-102578400D01*
X155462400Y-102578400D02*
X155435700Y-102605100D01*
X155435700Y-102605100D02*
X155435700Y-108010100D01*
X155435700Y-108010100D02*
X153317800Y-110128000D01*
X153317800Y-110128000D02*
X153048400Y-110128000D01*
X147820300Y-110770800D02*
X147820300Y-111296100D01*
X147820300Y-111296100D02*
X140268400Y-118848000D01*
X147574000Y-88138000D02*
X147574000Y-88329500D01*
X147574000Y-88329500D02*
X149688100Y-90443600D01*
X148638000Y-121960000D02*
X148638000Y-110442600D01*
X148638000Y-110442600D02*
X147414600Y-109219200D01*
X147414600Y-109219200D02*
X147414600Y-105238300D01*
X147414600Y-105238300D02*
X144843500Y-102667200D01*
X144843500Y-102667200D02*
X144843500Y-95948500D01*
X144843500Y-95948500D02*
X145034000Y-95758000D01*
X133858000Y-49784000D02*
X135057800Y-50983800D01*
X135057800Y-50983800D02*
X135057800Y-67634200D01*
X135057800Y-67634200D02*
X133858000Y-68834000D01*
X145034000Y-89713400D02*
X145034000Y-88138000D01*
X153718000Y-121960000D02*
X153718000Y-119941700D01*
X153718000Y-119941700D02*
X149954600Y-116178300D01*
X149954600Y-116178300D02*
X149954600Y-105688000D01*
X149954600Y-105688000D02*
X147414600Y-103148000D01*
X147414600Y-103148000D02*
X147414600Y-98689100D01*
X147414600Y-98689100D02*
X146304000Y-97578500D01*
X146304000Y-97578500D02*
X146304000Y-90983400D01*
X146304000Y-90983400D02*
X145034000Y-89713400D01*
X145034000Y-89713400D02*
X139404700Y-89713400D01*
X139404700Y-89713400D02*
X138772400Y-89081100D01*
X138772400Y-89081100D02*
X138772400Y-86871900D01*
X138772400Y-86871900D02*
X137733400Y-85832900D01*
X137733400Y-85832900D02*
X137733400Y-74440600D01*
X137733400Y-74440600D02*
X137911200Y-74262800D01*
X137911200Y-74262800D02*
X137911200Y-72887200D01*
X137911200Y-72887200D02*
X133858000Y-68834000D01*
X123790500Y-71010500D02*
X123613400Y-71010500D01*
X123613400Y-71010500D02*
X121492600Y-68889700D01*
X121492600Y-68889700D02*
X121492600Y-63245200D01*
X139954000Y-88138000D02*
X140113400Y-87978600D01*
X140113400Y-87978600D02*
X140113400Y-82944300D01*
X140113400Y-82944300D02*
X139435700Y-82266600D01*
X139435700Y-82266600D02*
X139435700Y-78177300D01*
X139435700Y-78177300D02*
X139656600Y-77956400D01*
X139656600Y-77956400D02*
X139656600Y-72092600D01*
X139656600Y-72092600D02*
X136398000Y-68834000D01*
X154845600Y-118294400D02*
X152238000Y-115686800D01*
X152238000Y-115686800D02*
X152238000Y-109830000D01*
X152238000Y-109830000D02*
X152448400Y-109619600D01*
X152448400Y-109619600D02*
X152448400Y-97806400D01*
X102918000Y-121960000D02*
X102918000Y-111974900D01*
X102238100Y-105586500D02*
X100076000Y-103424400D01*
X100076000Y-103424400D02*
X100076000Y-95250000D01*
X99077200Y-90307300D02*
X98873900Y-90104000D01*
X98873900Y-90104000D02*
X98873900Y-84193400D01*
X98873900Y-84193400D02*
X96012000Y-81331500D01*
X96012000Y-81331500D02*
X96012000Y-69088000D01*
X151638000Y-65024000D02*
X151638000Y-65942500D01*
X151638000Y-65942500D02*
X152828600Y-67133100D01*
X152828600Y-67133100D02*
X152828600Y-82883400D01*
X152828600Y-82883400D02*
X151638000Y-84074000D01*
X104281300Y-109366200D02*
X102125700Y-107210600D01*
X102125700Y-107210600D02*
X102052400Y-107210600D01*
X102052400Y-107210600D02*
X98722500Y-103880700D01*
X98722500Y-103880700D02*
X98722500Y-98271200D01*
X98722500Y-98271200D02*
X97277200Y-96825900D01*
X97277200Y-96825900D02*
X91966500Y-96825900D01*
X91966500Y-96825900D02*
X91274500Y-96133900D01*
X91274500Y-96133900D02*
X91274500Y-94230300D01*
X91274500Y-94230300D02*
X91833300Y-93671500D01*
X91833300Y-93671500D02*
X91833300Y-90135500D01*
X91833300Y-90135500D02*
X91242900Y-89545100D01*
X91242900Y-89545100D02*
X91242900Y-82885700D01*
X97277200Y-96825900D02*
X97277200Y-95508800D01*
X97277200Y-95508800D02*
X97536000Y-95250000D01*
X112776000Y-84074000D02*
X112776000Y-81122000D01*
X112776000Y-81122000D02*
X113614300Y-80283700D01*
X159274000Y-71489400D02*
X154178000Y-76585400D01*
X154178000Y-76585400D02*
X154178000Y-84074000D01*
X155968800Y-62558800D02*
X154178000Y-64349600D01*
X154178000Y-64349600D02*
X154178000Y-65024000D01*
X104281300Y-109366200D02*
X104281300Y-117235300D01*
X105458000Y-118412000D02*
X105458000Y-121960000D01*
X104281300Y-117235300D02*
X105458000Y-118412000D01*
X107998000Y-121960000D02*
X107998000Y-119946500D01*
X107998000Y-119946500D02*
X105031600Y-116980100D01*
X105031600Y-116980100D02*
X105031600Y-109408900D01*
X105031600Y-109408900D02*
X102333000Y-106710300D01*
X102333000Y-106710300D02*
X102265400Y-106710300D01*
X102265400Y-106710300D02*
X99429600Y-103874500D01*
X99429600Y-103874500D02*
X99429600Y-96665900D01*
X99429600Y-96665900D02*
X98806000Y-96042300D01*
X98806000Y-96042300D02*
X98806000Y-93987800D01*
X94996000Y-95250000D02*
X96597000Y-93649000D01*
X96597000Y-93649000D02*
X98467200Y-93649000D01*
X98467200Y-93649000D02*
X98806000Y-93987800D01*
X101092000Y-69088000D02*
X100410100Y-69769900D01*
X100410100Y-69769900D02*
X100410100Y-84398800D01*
X100410100Y-84398800D02*
X101968400Y-85957100D01*
X101968400Y-85957100D02*
X103563500Y-85957100D01*
X103563500Y-85957100D02*
X103791400Y-86185000D01*
X103791400Y-86185000D02*
X103791400Y-89002400D01*
X103791400Y-89002400D02*
X98806000Y-93987800D01*
X115618000Y-121960000D02*
X115618000Y-113707900D01*
X115618000Y-113707900D02*
X114831300Y-112921200D01*
X114831300Y-112921200D02*
X112021600Y-112921200D01*
X112021600Y-112921200D02*
X110062600Y-110962200D01*
X110062600Y-110962200D02*
X110062600Y-100493200D01*
X110062600Y-100493200D02*
X108373100Y-98803700D01*
X108373100Y-98803700D02*
X108373100Y-97876600D01*
X102031000Y-67487000D02*
X102031000Y-66929900D01*
X102031000Y-66929900D02*
X103791700Y-65169200D01*
X103632000Y-69088000D02*
X102031000Y-67487000D01*
X92456000Y-95250000D02*
X92928400Y-95250000D01*
X92928400Y-95250000D02*
X96445500Y-91732900D01*
X96445500Y-91732900D02*
X99554200Y-91732900D01*
X99554200Y-91732900D02*
X101276800Y-90010300D01*
X101276800Y-90010300D02*
X101276800Y-86496700D01*
X101276800Y-86496700D02*
X99909700Y-85129600D01*
X99909700Y-85129600D02*
X99909700Y-68200900D01*
X99909700Y-68200900D02*
X100623600Y-67487000D01*
X100623600Y-67487000D02*
X102031000Y-67487000D01*
X139633400Y-43738400D02*
X144018000Y-39353800D01*
X144018000Y-39353800D02*
X144018000Y-38608000D01*
X159258000Y-49784000D02*
X158067400Y-50974600D01*
X158067400Y-50974600D02*
X158067400Y-67643400D01*
X158067400Y-67643400D02*
X159258000Y-68834000D01*
X115135500Y-108352200D02*
X115135500Y-111783500D01*
X115135500Y-111783500D02*
X116970200Y-113618200D01*
X97848400Y-103340400D02*
X97848400Y-102171500D01*
X97848400Y-102171500D02*
X95043900Y-99367000D01*
X95043900Y-99367000D02*
X93726500Y-99367000D01*
X93726500Y-99367000D02*
X89916000Y-95556500D01*
X89916000Y-95556500D02*
X89916000Y-95250000D01*
X106442900Y-79419200D02*
X106442900Y-74505100D01*
X106442900Y-74505100D02*
X106010000Y-74072200D01*
X106010000Y-74072200D02*
X106010000Y-69250000D01*
X106010000Y-69250000D02*
X106172000Y-69088000D01*
X156718000Y-68834000D02*
X155542500Y-67658500D01*
X155542500Y-67658500D02*
X155542500Y-64081600D01*
X155542500Y-64081600D02*
X156744100Y-62880000D01*
X156744100Y-62880000D02*
X156744100Y-49810100D01*
X156744100Y-49810100D02*
X156718000Y-49784000D01*
X151638000Y-38608000D02*
X155448000Y-42418000D01*
X155448000Y-42418000D02*
X155448000Y-48514000D01*
X155448000Y-48514000D02*
X156718000Y-49784000D01*
X116970200Y-113618200D02*
X116970200Y-116716200D01*
X118158000Y-117904000D02*
X118158000Y-121960000D01*
X116970200Y-116716200D02*
X118158000Y-117904000D01*
X107597800Y-98651900D02*
X107597800Y-93281700D01*
X107597800Y-93281700D02*
X108919900Y-91959600D01*
X108919900Y-91959600D02*
X108919900Y-69295900D01*
X108919900Y-69295900D02*
X108712000Y-69088000D01*
X113078000Y-121960000D02*
X113078000Y-119431900D01*
X113078000Y-119431900D02*
X114981600Y-117528300D01*
X114981600Y-117528300D02*
X114981600Y-113789800D01*
X114981600Y-113789800D02*
X114771700Y-113579900D01*
X114771700Y-113579900D02*
X111971200Y-113579900D01*
X111971200Y-113579900D02*
X109533200Y-111141900D01*
X109533200Y-111141900D02*
X109533200Y-100671400D01*
X109533200Y-100671400D02*
X107597800Y-98736000D01*
X107597800Y-98736000D02*
X107597800Y-98651900D01*
X154178000Y-49784000D02*
X153002700Y-50959300D01*
X153002700Y-50959300D02*
X153002700Y-66271000D01*
X153002700Y-66271000D02*
X154178000Y-67446300D01*
X154178000Y-67446300D02*
X154178000Y-68834000D01*
X151638000Y-46228000D02*
X154178000Y-48768000D01*
X154178000Y-48768000D02*
X154178000Y-49784000D01*
X138430000Y-107696000D02*
X138430000Y-104602400D01*
X138430000Y-104602400D02*
X137185800Y-103358200D01*
X137185800Y-103358200D02*
X137051600Y-103358200D01*
X137051600Y-103358200D02*
X134620000Y-100926600D01*
X134620000Y-100926600D02*
X134620000Y-96553700D01*
X134620000Y-96553700D02*
X131563200Y-93496900D01*
X130119000Y-76307500D02*
X131037200Y-75389300D01*
X131037200Y-75389300D02*
X131037200Y-73871300D01*
X131119000Y-91744600D02*
X131119000Y-89840400D01*
X131119000Y-89840400D02*
X131765600Y-89193800D01*
X131765600Y-89193800D02*
X131765600Y-86632200D01*
X131765600Y-86632200D02*
X130119000Y-84985600D01*
X130119000Y-84985600D02*
X130119000Y-76307500D01*
X133398000Y-121960000D02*
X133398000Y-120051400D01*
X133398000Y-120051400D02*
X136390400Y-117059000D01*
X136390400Y-117059000D02*
X136390400Y-111567900D01*
X136390400Y-111567900D02*
X138430000Y-109528300D01*
X138430000Y-109528300D02*
X138430000Y-107696000D01*
X141478000Y-68834000D02*
X141478000Y-67086100D01*
X141478000Y-67086100D02*
X142653300Y-65910800D01*
X142653300Y-65910800D02*
X142653300Y-50959300D01*
X142653300Y-50959300D02*
X141478000Y-49784000D01*
X110538000Y-121960000D02*
X110538000Y-114685500D01*
X110538000Y-114685500D02*
X108443400Y-112590900D01*
X101804500Y-107985900D02*
X99586500Y-107985900D01*
X99586500Y-107985900D02*
X96090400Y-104489800D01*
X96090400Y-104489800D02*
X96090400Y-101828700D01*
X96090400Y-101828700D02*
X94884900Y-100623200D01*
X94884900Y-100623200D02*
X90209200Y-100623200D01*
X90209200Y-100623200D02*
X84836000Y-95250000D01*
X112776000Y-76454000D02*
X112776000Y-76100000D01*
X112776000Y-76100000D02*
X111252000Y-74576000D01*
X111252000Y-74576000D02*
X111252000Y-69088000D01*
X151638000Y-68834000D02*
X151638000Y-67930500D01*
X151638000Y-67930500D02*
X150460000Y-66752500D01*
X150460000Y-66752500D02*
X150460000Y-52794300D01*
X150460000Y-52794300D02*
X151638000Y-51616300D01*
X151638000Y-51616300D02*
X151638000Y-49784000D01*
X141478000Y-84074000D02*
X141478000Y-72042300D01*
X141478000Y-72042300D02*
X140270500Y-70834800D01*
X140270500Y-70834800D02*
X140270500Y-66231500D01*
X140270500Y-66231500D02*
X141478000Y-65024000D01*
X94996000Y-87630000D02*
X94171700Y-86805700D01*
X94171700Y-86805700D02*
X94171700Y-83286800D01*
X94171700Y-83286800D02*
X90932000Y-80047100D01*
X90932000Y-80047100D02*
X90932000Y-69088000D01*
X132667700Y-109465100D02*
X132667700Y-110017700D01*
X132667700Y-110017700D02*
X124331700Y-118353700D01*
X124331700Y-118353700D02*
X123711400Y-118353700D01*
X151130000Y-107696000D02*
X151482100Y-107343900D01*
X151482100Y-107343900D02*
X151482100Y-101935900D01*
X119568600Y-65537700D02*
X119495500Y-65610800D01*
X119495500Y-65610800D02*
X119495500Y-66843900D01*
X119495500Y-66843900D02*
X120314400Y-67662800D01*
X120314400Y-67662800D02*
X120314400Y-69339100D01*
X120314400Y-69339100D02*
X123871900Y-72896600D01*
X123871900Y-72896600D02*
X123871900Y-74771300D01*
X123871900Y-74771300D02*
X123679500Y-74963700D01*
X123679500Y-74963700D02*
X123679500Y-81950400D01*
X138881300Y-77635200D02*
X138881300Y-84017300D01*
X138881300Y-84017300D02*
X138938000Y-84074000D01*
X156235900Y-103730500D02*
X156235900Y-90457000D01*
X156235900Y-90457000D02*
X155778300Y-89999400D01*
X93472000Y-69088000D02*
X94925900Y-70541900D01*
X94925900Y-70541900D02*
X94925900Y-85019900D01*
X94925900Y-85019900D02*
X97536000Y-87630000D01*
X128778000Y-68834000D02*
X128778000Y-76676700D01*
X128778000Y-76676700D02*
X128212000Y-77242700D01*
X121471200Y-89743200D02*
X120568300Y-88840300D01*
X120568300Y-88840300D02*
X120568300Y-86994500D01*
X120568300Y-86994500D02*
X119178700Y-85604900D01*
X119178700Y-85604900D02*
X119178700Y-79436900D01*
X88392000Y-69088000D02*
X88392000Y-78922300D01*
X88392000Y-78922300D02*
X93671300Y-84201600D01*
X93671300Y-84201600D02*
X93671300Y-88384700D01*
X93671300Y-88384700D02*
X96369200Y-91082600D01*
X96369200Y-91082600D02*
X99430900Y-91082600D01*
X99430900Y-91082600D02*
X100076000Y-90437500D01*
X100076000Y-90437500D02*
X100076000Y-87630000D01*
X137135600Y-111530400D02*
X140970000Y-107696000D01*
X137107800Y-109598800D02*
X137107800Y-106775700D01*
X137107800Y-106775700D02*
X132080000Y-101747900D01*
X132080000Y-101747900D02*
X132080000Y-95981700D01*
X132080000Y-95981700D02*
X129748100Y-93649800D01*
X137135600Y-111530400D02*
X137135600Y-117118400D01*
X135938000Y-118316000D02*
X135938000Y-121960000D01*
X137135600Y-117118400D02*
X135938000Y-118316000D01*
X90218000Y-118062000D02*
X90218000Y-121960000D01*
X90701600Y-117578400D02*
X90218000Y-118062000D01*
X97208700Y-117578300D02*
X97208700Y-117578400D01*
X97208700Y-117578400D02*
X90701600Y-117578400D01*
X92758000Y-118570000D02*
X92758000Y-121960000D01*
X96076200Y-118452900D02*
X92875100Y-118452900D01*
X92875100Y-118452900D02*
X92758000Y-118570000D01*
X92456000Y-87630000D02*
X92456000Y-92479200D01*
X92456000Y-92479200D02*
X93506500Y-93529700D01*
X130858000Y-121960000D02*
X130858000Y-119463600D01*
X130858000Y-119463600D02*
X132747400Y-117574200D01*
X132747400Y-117574200D02*
X132747400Y-112862700D01*
X132747400Y-112862700D02*
X135890000Y-109720100D01*
X135890000Y-109720100D02*
X135890000Y-107696000D01*
X135890000Y-107696000D02*
X132284500Y-104090500D01*
X132284500Y-104090500D02*
X127639800Y-104090500D01*
X127639800Y-104090500D02*
X124554600Y-101005300D01*
X124554600Y-101005300D02*
X124554600Y-98776100D01*
X124554600Y-98776100D02*
X124628000Y-98702700D01*
X122294600Y-102538300D02*
X125730000Y-105973700D01*
X125730000Y-105973700D02*
X125730000Y-107696000D01*
X128318000Y-121960000D02*
X128318000Y-115901900D01*
X128318000Y-115901900D02*
X133443000Y-110776900D01*
X133443000Y-110776900D02*
X133443000Y-107789000D01*
X133443000Y-107789000D02*
X133350000Y-107696000D01*
X124562200Y-81295000D02*
X124562200Y-72879300D01*
X124562200Y-72879300D02*
X120814700Y-69131800D01*
X120814700Y-69131800D02*
X120814700Y-66795900D01*
X120814700Y-66795900D02*
X120314400Y-66295600D01*
X146050000Y-107696000D02*
X146050000Y-105816300D01*
X146050000Y-105816300D02*
X142334600Y-102100900D01*
X142334600Y-102100900D02*
X142334600Y-98689100D01*
X142334600Y-98689100D02*
X141224000Y-97578500D01*
X141224000Y-97578500D02*
X141224000Y-94916200D01*
X141224000Y-94916200D02*
X136237000Y-89929200D01*
X136237000Y-89929200D02*
X136237000Y-84235000D01*
X136237000Y-84235000D02*
X136398000Y-84074000D01*
X133858000Y-84074000D02*
X133858000Y-85499600D01*
X133858000Y-85499600D02*
X134857400Y-86499000D01*
X134857400Y-86499000D02*
X134857400Y-91290900D01*
X134857400Y-91290900D02*
X136062500Y-92496000D01*
X136062500Y-92496000D02*
X136062500Y-98074300D01*
X136062500Y-98074300D02*
X137160000Y-99171800D01*
X137160000Y-99171800D02*
X137160000Y-101346000D01*
X137160000Y-101346000D02*
X143510000Y-107696000D01*
X133858000Y-84074000D02*
X132678900Y-82894900D01*
X132678900Y-82894900D02*
X132678900Y-66203100D01*
X132678900Y-66203100D02*
X133858000Y-65024000D01*
X120327800Y-117521600D02*
X120327800Y-116463900D01*
X120327800Y-116463900D02*
X118527300Y-114663400D01*
X118527300Y-114663400D02*
X118527300Y-113052500D01*
X118527300Y-113052500D02*
X117762500Y-112287700D01*
X117762500Y-112287700D02*
X117762500Y-108986700D01*
X117762500Y-108986700D02*
X118164200Y-108585000D01*
X144018000Y-84074000D02*
X144018000Y-76267800D01*
X144018000Y-76267800D02*
X142841000Y-75090800D01*
X142841000Y-75090800D02*
X142841000Y-67571300D01*
X142841000Y-67571300D02*
X144018000Y-66394300D01*
X144018000Y-66394300D02*
X144018000Y-65024000D01*
X151130000Y-100076000D02*
X148844000Y-97790000D01*
X148844000Y-97790000D02*
X148844000Y-92393300D01*
X148844000Y-92393300D02*
X146398600Y-89947900D01*
X146398600Y-89947900D02*
X146398600Y-87162000D01*
X146398600Y-87162000D02*
X144018000Y-84781400D01*
X144018000Y-84781400D02*
X144018000Y-84074000D01*
X123728200Y-116972300D02*
X124995400Y-116972300D01*
X124995400Y-116972300D02*
X131892400Y-110075300D01*
X131892400Y-110075300D02*
X131892400Y-109144000D01*
X131892400Y-109144000D02*
X131985300Y-109051100D01*
X131985300Y-109051100D02*
X131985300Y-105053400D01*
X149141700Y-81490300D02*
X146558000Y-84074000D01*
X149495300Y-81490300D02*
X149141700Y-81490300D01*
X146558000Y-65024000D02*
X146558000Y-66001300D01*
X146558000Y-66001300D02*
X147828000Y-67271300D01*
X147828000Y-67271300D02*
X147828000Y-80176600D01*
X147828000Y-80176600D02*
X149141700Y-81490300D01*
X121158000Y-35052000D02*
X121158000Y-29774700D01*
X157480000Y-34290000D02*
X159355400Y-32414600D01*
X159355400Y-32414600D02*
X159355400Y-30714600D01*
X159355400Y-30714600D02*
X160780000Y-29290000D01*
X96940000Y-28460000D02*
X95709200Y-27229200D01*
X95709200Y-27229200D02*
X88813700Y-27229200D01*
X88813700Y-27229200D02*
X88050000Y-27992900D01*
X88050000Y-27992900D02*
X88050000Y-33246100D01*
X88050000Y-33246100D02*
X85090000Y-36206100D01*
X85090000Y-36206100D02*
X85090000Y-38862000D01*
X82550000Y-46482000D02*
X83766900Y-45265100D01*
X83766900Y-45265100D02*
X83766900Y-37137700D01*
X83766900Y-37137700D02*
X82970100Y-36340900D01*
X82970100Y-36340900D02*
X82970100Y-30455000D01*
X82970100Y-30455000D02*
X83650500Y-29774600D01*
X83650500Y-29774600D02*
X84740300Y-29774600D01*
X84740300Y-29774600D02*
X85465400Y-29049500D01*
X85465400Y-29049500D02*
X85465400Y-28041000D01*
X85465400Y-28041000D02*
X86778200Y-26728200D01*
X86778200Y-26728200D02*
X96983800Y-26728200D01*
X96983800Y-26728200D02*
X98182300Y-27926700D01*
X98182300Y-27926700D02*
X98182300Y-29015100D01*
X98182300Y-29015100D02*
X97467400Y-29730000D01*
X97467400Y-29730000D02*
X95670000Y-29730000D01*
X95670000Y-29730000D02*
X94400000Y-28460000D01*
X104982100Y-50371700D02*
X102362000Y-52991800D01*
X102362000Y-52991800D02*
X102362000Y-54663500D01*
X102362000Y-54663500D02*
X101591100Y-55434400D01*
X101591100Y-55434400D02*
X95058400Y-55434400D01*
X95058400Y-55434400D02*
X93472000Y-53848000D01*
X102020000Y-28460000D02*
X103315400Y-29755400D01*
X103315400Y-29755400D02*
X103315400Y-38248800D01*
X103315400Y-38248800D02*
X104982100Y-39915500D01*
X104982100Y-39915500D02*
X104982100Y-50371700D01*
X104560000Y-28460000D02*
X105830000Y-29730000D01*
X105830000Y-29730000D02*
X105830000Y-33062300D01*
X105830000Y-33062300D02*
X107855300Y-35087600D01*
X107855300Y-35087600D02*
X107855300Y-52991300D01*
X107855300Y-52991300D02*
X108712000Y-53848000D01*
X103632000Y-53848000D02*
X103632000Y-52983200D01*
X103632000Y-52983200D02*
X105765800Y-50849400D01*
X105765800Y-50849400D02*
X105765800Y-49365700D01*
X105765800Y-49365700D02*
X105504600Y-49104500D01*
X105504600Y-49104500D02*
X105504600Y-38566000D01*
X105504600Y-38566000D02*
X104904000Y-37965400D01*
X116332000Y-53848000D02*
X113747700Y-51263700D01*
X113747700Y-51263700D02*
X113747700Y-48516200D01*
X95560900Y-61466200D02*
X89756600Y-55661900D01*
X89756600Y-55661900D02*
X89756600Y-50714800D01*
X89756600Y-50714800D02*
X88900000Y-49858200D01*
X88900000Y-49858200D02*
X88900000Y-40132000D01*
X88900000Y-40132000D02*
X87630000Y-38862000D01*
X148082000Y-31000000D02*
X145796000Y-33286000D01*
X145796000Y-33286000D02*
X145796000Y-35052000D01*
X140462000Y-31000000D02*
X140462000Y-31381300D01*
X140462000Y-31381300D02*
X145549500Y-36468800D01*
X145549500Y-36468800D02*
X154119500Y-36468800D01*
X154119500Y-36468800D02*
X155483600Y-37832900D01*
X155483600Y-37832900D02*
X155483600Y-39718700D01*
X155483600Y-39718700D02*
X156718000Y-40953100D01*
X156718000Y-40953100D02*
X156718000Y-46228000D01*
X137922000Y-31000000D02*
X138580200Y-31000000D01*
X138580200Y-31000000D02*
X145288000Y-37707800D01*
X145288000Y-37707800D02*
X145288000Y-42418000D01*
X145288000Y-42418000D02*
X149098000Y-46228000D01*
X127762000Y-31000000D02*
X128343800Y-31000000D01*
X128343800Y-31000000D02*
X133851100Y-36507300D01*
X133851100Y-36507300D02*
X133851100Y-46225600D01*
X133851100Y-46225600D02*
X135457000Y-47831500D01*
X135457000Y-47831500D02*
X137334500Y-47831500D01*
X137334500Y-47831500D02*
X138938000Y-46228000D01*
X74676000Y-95250000D02*
X74676000Y-95195200D01*
X74676000Y-95195200D02*
X68699600Y-89218800D01*
X68699600Y-89218800D02*
X66261400Y-89218800D01*
X66261400Y-89218800D02*
X64838800Y-87796200D01*
X64838800Y-87796200D02*
X64838800Y-51956200D01*
X64838800Y-51956200D02*
X71410000Y-45385000D01*
X74250000Y-52310000D02*
X76366200Y-54426200D01*
X76366200Y-54426200D02*
X76366200Y-68834500D01*
X76366200Y-68834500D02*
X80429300Y-72897600D01*
X80429300Y-72897600D02*
X80429300Y-85763300D01*
X80429300Y-85763300D02*
X82296000Y-87630000D01*
X74250000Y-49540000D02*
X76866500Y-52156500D01*
X76866500Y-52156500D02*
X76866500Y-68627200D01*
X76866500Y-68627200D02*
X80929600Y-72690300D01*
X80929600Y-72690300D02*
X80929600Y-83723600D01*
X80929600Y-83723600D02*
X84836000Y-87630000D01*
X77216000Y-87630000D02*
X77216000Y-84819600D01*
X77216000Y-84819600D02*
X71544500Y-79148100D01*
X71544500Y-79148100D02*
X71544500Y-55397700D01*
X71544500Y-55397700D02*
X73009600Y-53932600D01*
X73009600Y-53932600D02*
X73009600Y-48010400D01*
X73009600Y-48010400D02*
X74250000Y-46770000D01*
X79756000Y-87630000D02*
X81355600Y-89229600D01*
X81355600Y-89229600D02*
X85305900Y-89229600D01*
X85305900Y-89229600D02*
X86106000Y-88429500D01*
X86106000Y-88429500D02*
X86106000Y-84654200D01*
X86106000Y-84654200D02*
X86526000Y-84234200D01*
X86526000Y-84234200D02*
X86526000Y-72366200D01*
X86526000Y-72366200D02*
X82252600Y-68092800D01*
X82252600Y-68092800D02*
X82252600Y-67982000D01*
X82252600Y-67982000D02*
X77750900Y-63480300D01*
X77750900Y-63480300D02*
X77750900Y-47500900D01*
X77750900Y-47500900D02*
X74250000Y-44000000D01*
X101560000Y-118238000D02*
X97838000Y-121960000D01*
X73660000Y-71882000D02*
X76587700Y-74809700D01*
X76587700Y-74809700D02*
X76587700Y-82429700D01*
X76587700Y-82429700D02*
X77724000Y-83566000D01*
X83472100Y-101969500D02*
X93331000Y-101969500D01*
X93331000Y-101969500D02*
X94742000Y-103380500D01*
X85090000Y-108204000D02*
X83144300Y-106258300D01*
X83144300Y-106258300D02*
X83144300Y-102297300D01*
X83144300Y-102297300D02*
X83472100Y-101969500D01*
X66374000Y-87630000D02*
X68148100Y-87630000D01*
X68148100Y-87630000D02*
X73577500Y-93059400D01*
X73577500Y-93059400D02*
X82212600Y-93059400D01*
X82212600Y-93059400D02*
X83472100Y-94318900D01*
X83472100Y-94318900D02*
X83472100Y-101969500D01*
X85090000Y-108204000D02*
X91389900Y-108204000D01*
X91389900Y-108204000D02*
X99263800Y-116077900D01*
X99263800Y-116077900D02*
X99263800Y-119419900D01*
X106172000Y-95678000D02*
X106172000Y-93749900D01*
X106172000Y-93749900D02*
X107347700Y-92574200D01*
X107347700Y-92574200D02*
X107347700Y-87620000D01*
X107347700Y-87620000D02*
X106426000Y-86698300D01*
X106426000Y-86698300D02*
X106426000Y-80741700D01*
X106426000Y-80741700D02*
X102616000Y-76931700D01*
X102616000Y-76931700D02*
X102616000Y-76454000D01*
X107275500Y-110500000D02*
X105395800Y-108620300D01*
X105395800Y-108620300D02*
X105395800Y-104756000D01*
X105395800Y-104756000D02*
X105228100Y-104588300D01*
X105228100Y-104588300D02*
X105228100Y-96621900D01*
X105228100Y-96621900D02*
X106172000Y-95678000D01*
X102188000Y-73152000D02*
X102616000Y-73580000D01*
X102616000Y-73580000D02*
X102616000Y-76454000D01*
X105868900Y-111974900D02*
X107275500Y-110568300D01*
X107275500Y-110568300D02*
X107275500Y-110500000D01*
X80010000Y-38862000D02*
X79328000Y-38180000D01*
X79328000Y-38180000D02*
X79328000Y-35306000D01*
X102188000Y-73152000D02*
X104807400Y-70532600D01*
X104807400Y-70532600D02*
X104807400Y-52869000D01*
X104807400Y-52869000D02*
X106680000Y-50996400D01*
X106680000Y-50996400D02*
X106680000Y-46482000D01*
X128216800Y-93758300D02*
X125631100Y-93758300D01*
X125631100Y-93758300D02*
X125212500Y-93339700D01*
X125212500Y-93339700D02*
X125212500Y-92569800D01*
X125212500Y-92569800D02*
X126175700Y-91606600D01*
X126175700Y-91606600D02*
X127937700Y-91606600D01*
X127937700Y-91606600D02*
X130753600Y-88790700D01*
X130753600Y-88790700D02*
X130753600Y-87035400D01*
X130753600Y-87035400D02*
X129367600Y-85649400D01*
X129367600Y-85649400D02*
X125254500Y-85649400D01*
X125254500Y-85649400D02*
X125062600Y-85457500D01*
X125062600Y-85457500D02*
X125062600Y-82696600D01*
X125062600Y-82696600D02*
X126788000Y-80971200D01*
X126788000Y-80971200D02*
X126788000Y-69384000D01*
X126788000Y-69384000D02*
X126238000Y-68834000D01*
X153416000Y-35052000D02*
X152895000Y-35052000D01*
X152895000Y-35052000D02*
X149307400Y-31464400D01*
X149307400Y-31464400D02*
X149307400Y-30488700D01*
X149307400Y-30488700D02*
X148593300Y-29774600D01*
X148593300Y-29774600D02*
X137332500Y-29774600D01*
X137332500Y-29774600D02*
X136652000Y-30455100D01*
X136652000Y-30455100D02*
X136652000Y-34370000D01*
X136652000Y-34370000D02*
X135970000Y-35052000D01*
X136398000Y-38608000D02*
X136398000Y-35480000D01*
X136398000Y-35480000D02*
X135970000Y-35052000D01*
X106680000Y-46482000D02*
X106680000Y-38862000D01*
X122682000Y-56722000D02*
X122682000Y-59810400D01*
X122682000Y-59810400D02*
X123857400Y-60985800D01*
X123857400Y-60985800D02*
X123857400Y-67230600D01*
X123857400Y-67230600D02*
X122682000Y-68406000D01*
X133604000Y-87710000D02*
X133604000Y-88063100D01*
X133604000Y-88063100D02*
X132026400Y-89640700D01*
X132026400Y-89640700D02*
X132026400Y-91933700D01*
X132026400Y-91933700D02*
X131268700Y-92691400D01*
X131268700Y-92691400D02*
X129283700Y-92691400D01*
X129283700Y-92691400D02*
X128216800Y-93758300D01*
X125730000Y-100076000D02*
X128216800Y-97589200D01*
X128216800Y-97589200D02*
X128216800Y-93758300D01*
X122682000Y-49356000D02*
X123104600Y-48933400D01*
X123104600Y-48933400D02*
X123104600Y-45403000D01*
X123104600Y-45403000D02*
X116840000Y-39138400D01*
X116840000Y-39138400D02*
X116840000Y-38862000D01*
X106252000Y-35560000D02*
X106680000Y-35988000D01*
X106680000Y-35988000D02*
X106680000Y-38862000D01*
X157009300Y-106856800D02*
X157011200Y-106854900D01*
X157011200Y-106854900D02*
X157011200Y-102629900D01*
X157011200Y-102629900D02*
X156833100Y-102451800D01*
X156833100Y-102451800D02*
X156833100Y-92166900D01*
X156833100Y-92166900D02*
X159004000Y-89996000D01*
X145927200Y-111724700D02*
X144578800Y-113073100D01*
X144578800Y-113073100D02*
X139289200Y-113073100D01*
X139289200Y-113073100D02*
X138461100Y-113901200D01*
M02*
