M48
METRIC,TZ
T1C0.400
T2C0.500
T3C0.800
T4C0.900
T5C1.000
T6C1.016
T7C1.100
T8C1.300
T9C3.200
T10C3.500
%
G90
G05
T1
X75344Y-77438
X75699Y-66044
X78383Y-69777
X82318Y-82548
X82402Y-36486
X82608Y-83598
X86455Y-51553
X89790Y-65609
X90292Y-113106
X90688Y-98303
X91111Y-111380
X92133Y-84091
X92914Y-97632
X95840Y-117765
X98851Y-99104
X99891Y-114346
X100727Y-65580
X101275Y-99949
X102934Y-113977
X103135Y-103495
X103316Y-67226
X103619Y-99957
X103776Y-118186
X104310Y-103538
X104561Y-99029
X105515Y-112144
X105938Y-49861
X106169Y-104039
X106779Y-78029
X107517Y-81551
X108812Y-59529
X109158Y-113973
X109391Y-79315
X109488Y-64092
X110383Y-89537
X110394Y-113061
X111334Y-56212
X113002Y-108718
X113068Y-35637
X113792Y-60755
X114036Y-50237
X115318Y-100259
X115327Y-109368
X117568Y-114017
X117802Y-106244
X118208Y-60720
X118572Y-116043
X119176Y-117327
X120509Y-31397
X121367Y-91438
X123306Y-47655
X124153Y-107167
X125087Y-89789
X125282Y-97188
X125394Y-79202
X127015Y-105744
X127770Y-60714
X128463Y-113042
X131580Y-71055
X131899Y-96084
X132020Y-77944
X132637Y-95323
X132695Y-109525
X135084Y-103384
X135485Y-71187
X135934Y-95046
X136660Y-70687
X137065Y-105840
X137301Y-97818
X139200Y-79075
X139419Y-70676
X140942Y-102028
X142193Y-91519
X142701Y-63125
X143335Y-86496
X144931Y-97753
X145212Y-110108
X145342Y-71294
X148271Y-92404
X149227Y-74988
X152915Y-62809
X153007Y-116053
X153092Y-79075
X153190Y-103482
X153741Y-91184
X154220Y-92763
X154256Y-97497
X154369Y-70693
X155254Y-96258
X156206Y-27479
X157098Y-106671
X159781Y-43053
T2
X98375Y-44500
X99144Y-42644
X99144Y-46356
X101000Y-41875
X101000Y-47125
X102856Y-42644
X102856Y-46356
X103625Y-44500
X155375Y-112500
X156144Y-110644
X156144Y-114356
X158000Y-109875
X158000Y-115125
X159856Y-110644
X159856Y-114356
X160625Y-112500
X64875Y-93500
X65644Y-91644
X65644Y-95356
X67500Y-90875
X67500Y-96125
X69356Y-91644
X69356Y-95356
X70125Y-93500
T3
X133604Y-87710
X133604Y-92710
X66548Y-83566
X74168Y-83566
X102616Y-76454
X102616Y-84074
X105156Y-76454
X105156Y-84074
X107696Y-76454
X107696Y-84074
X110236Y-76454
X110236Y-84074
X112776Y-76454
X112776Y-84074
X115316Y-76454
X115316Y-84074
X117856Y-76454
X117856Y-84074
X120396Y-76454
X120396Y-84074
X110744Y-87456
X110744Y-92456
X112014Y-50292
X119634Y-50292
X113792Y-114808
X121412Y-114808
X106172Y-90678
X106172Y-95678
X111760Y-110236
X119380Y-110236
X106680Y-38862
X106680Y-46482
X109220Y-38862
X109220Y-46482
X111760Y-38862
X111760Y-46482
X114300Y-38862
X114300Y-46482
X116840Y-38862
X116840Y-46482
X119380Y-38862
X119380Y-46482
X121920Y-38862
X121920Y-46482
X145796Y-35052
X153416Y-35052
X122682Y-56722
X122682Y-61722
X122682Y-49356
X122682Y-54356
X111760Y-106934
X119380Y-106934
X77724Y-83566
X85344Y-83566
X101854Y-50292
X109474Y-50292
X79248Y-49784
X79248Y-57404
X80772Y-63246
X80772Y-68146
X134112Y-114808
X141732Y-114808
X113284Y-99822
X118284Y-99822
X88900Y-83566
X96520Y-83566
X65786Y-72898
X65786Y-75438
X65786Y-77978
X73406Y-72898
X73406Y-75438
X73406Y-77978
X136398Y-38608
X136398Y-46228
X138938Y-38608
X138938Y-46228
X141478Y-38608
X141478Y-46228
X144018Y-38608
X144018Y-46228
X146558Y-38608
X146558Y-46228
X149098Y-38608
X149098Y-46228
X151638Y-38608
X151638Y-46228
X154178Y-38608
X154178Y-46228
X156718Y-38608
X156718Y-46228
X159258Y-38608
X159258Y-46228
X126500Y-49760
X126500Y-65000
X129040Y-49760
X129040Y-65000
X131580Y-49760
X131580Y-65000
X134120Y-49760
X134120Y-65000
X136660Y-49760
X136660Y-65000
X139200Y-49760
X139200Y-65000
X141740Y-49760
X141740Y-65000
X144280Y-49760
X144280Y-65000
X146820Y-49760
X146820Y-65000
X149360Y-49760
X149360Y-65000
X151900Y-49760
X151900Y-65000
X154440Y-49760
X154440Y-65000
X156980Y-49760
X156980Y-65000
X159520Y-49760
X159520Y-65000
X66374Y-87630
X71374Y-87630
X123952Y-114808
X131572Y-114808
X79328Y-35306
X84328Y-35306
X85852Y-53848
X85852Y-69088
X88392Y-53848
X88392Y-69088
X90932Y-53848
X90932Y-69088
X93472Y-53848
X93472Y-69088
X96012Y-53848
X96012Y-69088
X98552Y-53848
X98552Y-69088
X101092Y-53848
X101092Y-69088
X103632Y-53848
X103632Y-69088
X106172Y-53848
X106172Y-69088
X108712Y-53848
X108712Y-69088
X111252Y-53848
X111252Y-69088
X113792Y-53848
X113792Y-69088
X116332Y-53848
X116332Y-69088
X118872Y-53848
X118872Y-69088
X114300Y-87884
X114300Y-95504
X116840Y-87884
X116840Y-95504
X119380Y-87884
X119380Y-95504
X121920Y-87884
X121920Y-95504
X124460Y-87884
X124460Y-95504
X127000Y-87884
X127000Y-95504
X129540Y-87884
X129540Y-95504
X122174Y-99648
X122174Y-104648
X82550Y-49784
X82550Y-57404
X74676Y-87630
X74676Y-95250
X77216Y-87630
X77216Y-95250
X79756Y-87630
X79756Y-95250
X82296Y-87630
X82296Y-95250
X84836Y-87630
X84836Y-95250
X87376Y-87630
X87376Y-95250
X89916Y-87630
X89916Y-95250
X92456Y-87630
X92456Y-95250
X94996Y-87630
X94996Y-95250
X97536Y-87630
X97536Y-95250
X100076Y-87630
X100076Y-95250
X102616Y-87630
X102616Y-95250
X113284Y-103378
X118284Y-103378
X135970Y-35052
X140970Y-35052
X125730Y-100076
X125730Y-107696
X128270Y-100076
X128270Y-107696
X130810Y-100076
X130810Y-107696
X133350Y-100076
X133350Y-107696
X135890Y-100076
X135890Y-107696
X138430Y-100076
X138430Y-107696
X140970Y-100076
X140970Y-107696
X143510Y-100076
X143510Y-107696
X146050Y-100076
X146050Y-107696
X148590Y-100076
X148590Y-107696
X151130Y-100076
X151130Y-107696
X153670Y-100076
X153670Y-107696
X106252Y-35560
X111252Y-35560
X126500Y-68760
X126500Y-84000
X129040Y-68760
X129040Y-84000
X131580Y-68760
X131580Y-84000
X134120Y-68760
X134120Y-84000
X136660Y-68760
X136660Y-84000
X139200Y-68760
X139200Y-84000
X141740Y-68760
X141740Y-84000
X144280Y-68760
X144280Y-84000
X146820Y-68760
X146820Y-84000
X149360Y-68760
X149360Y-84000
X151900Y-68760
X151900Y-84000
X154440Y-68760
X154440Y-84000
X156980Y-68760
X156980Y-84000
X159520Y-68760
X159520Y-84000
X122682Y-68406
X122682Y-73406
X102188Y-73152
X107188Y-73152
X91694Y-50292
X99314Y-50292
X80010Y-38862
X80010Y-46482
X82550Y-38862
X82550Y-46482
X85090Y-38862
X85090Y-46482
X87630Y-38862
X87630Y-46482
X90170Y-38862
X90170Y-46482
X92710Y-38862
X92710Y-46482
X95250Y-38862
X95250Y-46482
X87884Y-35306
X95504Y-35306
X137414Y-88138
X137414Y-95758
X139954Y-88138
X139954Y-95758
X142494Y-88138
X142494Y-95758
X145034Y-88138
X145034Y-95758
X147574Y-88138
X147574Y-95758
X150114Y-88138
X150114Y-95758
X152654Y-88138
X152654Y-95758
X123778Y-111506
X128778Y-111506
T4
X130000Y-37000
X132540Y-37000
X157607Y-29417
X157607Y-31917
X157607Y-34417
X160907Y-29417
X160907Y-31917
X160907Y-34417
X99500Y-37000
X102040Y-37000
T5
X122682Y-28460
X122682Y-31000
X125222Y-28460
X125222Y-31000
X127762Y-28460
X127762Y-31000
X130302Y-28460
X130302Y-31000
X132842Y-28460
X132842Y-31000
X135382Y-28460
X135382Y-31000
X137922Y-28460
X137922Y-31000
X140462Y-28460
X140462Y-31000
X143002Y-28460
X143002Y-31000
X145542Y-28460
X145542Y-31000
X148082Y-28460
X148082Y-31000
X150622Y-28460
X150622Y-31000
X153162Y-28460
X153162Y-31000
X116078Y-35052
X118618Y-35052
X121158Y-35052
X123698Y-35052
X71410Y-45385
X71410Y-48155
X71410Y-50925
X71410Y-53695
X74250Y-44000
X74250Y-46770
X74250Y-49540
X74250Y-52310
X74250Y-55080
X90932Y-115316
X93472Y-115316
X96012Y-115316
X69000Y-28460
X69000Y-31000
X71540Y-28460
X71540Y-31000
X74080Y-28460
X74080Y-31000
X76620Y-28460
X76620Y-31000
X79160Y-28460
X79160Y-31000
X81700Y-28460
X81700Y-31000
X84240Y-28460
X84240Y-31000
X86780Y-28460
X86780Y-31000
X89320Y-28460
X89320Y-31000
X91860Y-28460
X91860Y-31000
X94400Y-28460
X94400Y-31000
X96940Y-28460
X96940Y-31000
X99480Y-28460
X99480Y-31000
X102020Y-28460
X102020Y-31000
X104560Y-28460
X104560Y-31000
X107100Y-28460
X107100Y-31000
X109640Y-28460
X109640Y-31000
T6
X85090Y-103124
X85090Y-105664
X85090Y-108204
T7
X78000Y-73500
X78000Y-80000
X82500Y-73500
X82500Y-80000
X94000Y-73500
X94000Y-80000
X98500Y-73500
X98500Y-80000
X159258Y-89726
X159258Y-91726
X159258Y-93726
T9
X73950Y-37040
X73950Y-62040
T10
X101000Y-44500
X158000Y-112500
X67500Y-93500
T8
G00X159158Y-87626
M15
G01X159358Y-87626
M16
G05
G00X159158Y-95826
M15
G01X159358Y-95826
M16
G05
T0
M30
