G04 #@! TF.GenerationSoftware,KiCad,Pcbnew,(5.1.6)-1*
G04 #@! TF.CreationDate,2020-11-26T16:24:22+02:00*
G04 #@! TF.ProjectId,PlusD_Clone_1_6,506c7573-445f-4436-9c6f-6e655f315f36,rev?*
G04 #@! TF.SameCoordinates,Original*
G04 #@! TF.FileFunction,Paste,Bot*
G04 #@! TF.FilePolarity,Positive*
%FSLAX46Y46*%
G04 Gerber Fmt 4.6, Leading zero omitted, Abs format (unit mm)*
G04 Created by KiCad (PCBNEW (5.1.6)-1) date 2020-11-26 16:24:22*
%MOMM*%
%LPD*%
G01*
G04 APERTURE LIST*
G04 APERTURE END LIST*
G36*
G01*
X115707000Y-105804000D02*
X116957000Y-105804000D01*
G75*
G02*
X117207000Y-106054000I0J-250000D01*
G01*
X117207000Y-106979000D01*
G75*
G02*
X116957000Y-107229000I-250000J0D01*
G01*
X115707000Y-107229000D01*
G75*
G02*
X115457000Y-106979000I0J250000D01*
G01*
X115457000Y-106054000D01*
G75*
G02*
X115707000Y-105804000I250000J0D01*
G01*
G37*
G36*
G01*
X115707000Y-102829000D02*
X116957000Y-102829000D01*
G75*
G02*
X117207000Y-103079000I0J-250000D01*
G01*
X117207000Y-104004000D01*
G75*
G02*
X116957000Y-104254000I-250000J0D01*
G01*
X115707000Y-104254000D01*
G75*
G02*
X115457000Y-104004000I0J250000D01*
G01*
X115457000Y-103079000D01*
G75*
G02*
X115707000Y-102829000I250000J0D01*
G01*
G37*
G36*
G01*
X120914000Y-51829000D02*
X122164000Y-51829000D01*
G75*
G02*
X122414000Y-52079000I0J-250000D01*
G01*
X122414000Y-53004000D01*
G75*
G02*
X122164000Y-53254000I-250000J0D01*
G01*
X120914000Y-53254000D01*
G75*
G02*
X120664000Y-53004000I0J250000D01*
G01*
X120664000Y-52079000D01*
G75*
G02*
X120914000Y-51829000I250000J0D01*
G01*
G37*
G36*
G01*
X120914000Y-48854000D02*
X122164000Y-48854000D01*
G75*
G02*
X122414000Y-49104000I0J-250000D01*
G01*
X122414000Y-50029000D01*
G75*
G02*
X122164000Y-50279000I-250000J0D01*
G01*
X120914000Y-50279000D01*
G75*
G02*
X120664000Y-50029000I0J250000D01*
G01*
X120664000Y-49104000D01*
G75*
G02*
X120914000Y-48854000I250000J0D01*
G01*
G37*
G36*
G01*
X120914000Y-58052000D02*
X122164000Y-58052000D01*
G75*
G02*
X122414000Y-58302000I0J-250000D01*
G01*
X122414000Y-59227000D01*
G75*
G02*
X122164000Y-59477000I-250000J0D01*
G01*
X120914000Y-59477000D01*
G75*
G02*
X120664000Y-59227000I0J250000D01*
G01*
X120664000Y-58302000D01*
G75*
G02*
X120914000Y-58052000I250000J0D01*
G01*
G37*
G36*
G01*
X120914000Y-55077000D02*
X122164000Y-55077000D01*
G75*
G02*
X122414000Y-55327000I0J-250000D01*
G01*
X122414000Y-56252000D01*
G75*
G02*
X122164000Y-56502000I-250000J0D01*
G01*
X120914000Y-56502000D01*
G75*
G02*
X120664000Y-56252000I0J250000D01*
G01*
X120664000Y-55327000D01*
G75*
G02*
X120914000Y-55077000I250000J0D01*
G01*
G37*
G36*
G01*
X112131000Y-47993000D02*
X110881000Y-47993000D01*
G75*
G02*
X110631000Y-47743000I0J250000D01*
G01*
X110631000Y-46818000D01*
G75*
G02*
X110881000Y-46568000I250000J0D01*
G01*
X112131000Y-46568000D01*
G75*
G02*
X112381000Y-46818000I0J-250000D01*
G01*
X112381000Y-47743000D01*
G75*
G02*
X112131000Y-47993000I-250000J0D01*
G01*
G37*
G36*
G01*
X112131000Y-50968000D02*
X110881000Y-50968000D01*
G75*
G02*
X110631000Y-50718000I0J250000D01*
G01*
X110631000Y-49793000D01*
G75*
G02*
X110881000Y-49543000I250000J0D01*
G01*
X112131000Y-49543000D01*
G75*
G02*
X112381000Y-49793000I0J-250000D01*
G01*
X112381000Y-50718000D01*
G75*
G02*
X112131000Y-50968000I-250000J0D01*
G01*
G37*
G36*
G01*
X120640000Y-104254000D02*
X119390000Y-104254000D01*
G75*
G02*
X119140000Y-104004000I0J250000D01*
G01*
X119140000Y-103079000D01*
G75*
G02*
X119390000Y-102829000I250000J0D01*
G01*
X120640000Y-102829000D01*
G75*
G02*
X120890000Y-103079000I0J-250000D01*
G01*
X120890000Y-104004000D01*
G75*
G02*
X120640000Y-104254000I-250000J0D01*
G01*
G37*
G36*
G01*
X120640000Y-107229000D02*
X119390000Y-107229000D01*
G75*
G02*
X119140000Y-106979000I0J250000D01*
G01*
X119140000Y-106054000D01*
G75*
G02*
X119390000Y-105804000I250000J0D01*
G01*
X120640000Y-105804000D01*
G75*
G02*
X120890000Y-106054000I0J-250000D01*
G01*
X120890000Y-106979000D01*
G75*
G02*
X120640000Y-107229000I-250000J0D01*
G01*
G37*
G36*
G01*
X117843000Y-99451000D02*
X117843000Y-100701000D01*
G75*
G02*
X117593000Y-100951000I-250000J0D01*
G01*
X116668000Y-100951000D01*
G75*
G02*
X116418000Y-100701000I0J250000D01*
G01*
X116418000Y-99451000D01*
G75*
G02*
X116668000Y-99201000I250000J0D01*
G01*
X117593000Y-99201000D01*
G75*
G02*
X117843000Y-99451000I0J-250000D01*
G01*
G37*
G36*
G01*
X120818000Y-99451000D02*
X120818000Y-100701000D01*
G75*
G02*
X120568000Y-100951000I-250000J0D01*
G01*
X119643000Y-100951000D01*
G75*
G02*
X119393000Y-100701000I0J250000D01*
G01*
X119393000Y-99451000D01*
G75*
G02*
X119643000Y-99201000I250000J0D01*
G01*
X120568000Y-99201000D01*
G75*
G02*
X120818000Y-99451000I0J-250000D01*
G01*
G37*
G36*
G01*
X111110000Y-90665600D02*
X112360000Y-90665600D01*
G75*
G02*
X112610000Y-90915600I0J-250000D01*
G01*
X112610000Y-91840600D01*
G75*
G02*
X112360000Y-92090600I-250000J0D01*
G01*
X111110000Y-92090600D01*
G75*
G02*
X110860000Y-91840600I0J250000D01*
G01*
X110860000Y-90915600D01*
G75*
G02*
X111110000Y-90665600I250000J0D01*
G01*
G37*
G36*
G01*
X111110000Y-87690600D02*
X112360000Y-87690600D01*
G75*
G02*
X112610000Y-87940600I0J-250000D01*
G01*
X112610000Y-88865600D01*
G75*
G02*
X112360000Y-89115600I-250000J0D01*
G01*
X111110000Y-89115600D01*
G75*
G02*
X110860000Y-88865600I0J250000D01*
G01*
X110860000Y-87940600D01*
G75*
G02*
X111110000Y-87690600I250000J0D01*
G01*
G37*
G36*
G01*
X137300000Y-46472000D02*
X137300000Y-45222000D01*
G75*
G02*
X137550000Y-44972000I250000J0D01*
G01*
X138475000Y-44972000D01*
G75*
G02*
X138725000Y-45222000I0J-250000D01*
G01*
X138725000Y-46472000D01*
G75*
G02*
X138475000Y-46722000I-250000J0D01*
G01*
X137550000Y-46722000D01*
G75*
G02*
X137300000Y-46472000I0J250000D01*
G01*
G37*
G36*
G01*
X134325000Y-46472000D02*
X134325000Y-45222000D01*
G75*
G02*
X134575000Y-44972000I250000J0D01*
G01*
X135500000Y-44972000D01*
G75*
G02*
X135750000Y-45222000I0J-250000D01*
G01*
X135750000Y-46472000D01*
G75*
G02*
X135500000Y-46722000I-250000J0D01*
G01*
X134575000Y-46722000D01*
G75*
G02*
X134325000Y-46472000I0J250000D01*
G01*
G37*
G36*
G01*
X135750000Y-41666000D02*
X135750000Y-42916000D01*
G75*
G02*
X135500000Y-43166000I-250000J0D01*
G01*
X134575000Y-43166000D01*
G75*
G02*
X134325000Y-42916000I0J250000D01*
G01*
X134325000Y-41666000D01*
G75*
G02*
X134575000Y-41416000I250000J0D01*
G01*
X135500000Y-41416000D01*
G75*
G02*
X135750000Y-41666000I0J-250000D01*
G01*
G37*
G36*
G01*
X138725000Y-41666000D02*
X138725000Y-42916000D01*
G75*
G02*
X138475000Y-43166000I-250000J0D01*
G01*
X137550000Y-43166000D01*
G75*
G02*
X137300000Y-42916000I0J250000D01*
G01*
X137300000Y-41666000D01*
G75*
G02*
X137550000Y-41416000I250000J0D01*
G01*
X138475000Y-41416000D01*
G75*
G02*
X138725000Y-41666000I0J-250000D01*
G01*
G37*
G36*
G01*
X118862000Y-28689000D02*
X117612000Y-28689000D01*
G75*
G02*
X117362000Y-28439000I0J250000D01*
G01*
X117362000Y-27514000D01*
G75*
G02*
X117612000Y-27264000I250000J0D01*
G01*
X118862000Y-27264000D01*
G75*
G02*
X119112000Y-27514000I0J-250000D01*
G01*
X119112000Y-28439000D01*
G75*
G02*
X118862000Y-28689000I-250000J0D01*
G01*
G37*
G36*
G01*
X118862000Y-31664000D02*
X117612000Y-31664000D01*
G75*
G02*
X117362000Y-31414000I0J250000D01*
G01*
X117362000Y-30489000D01*
G75*
G02*
X117612000Y-30239000I250000J0D01*
G01*
X118862000Y-30239000D01*
G75*
G02*
X119112000Y-30489000I0J-250000D01*
G01*
X119112000Y-31414000D01*
G75*
G02*
X118862000Y-31664000I-250000J0D01*
G01*
G37*
G36*
G01*
X115179000Y-28689000D02*
X113929000Y-28689000D01*
G75*
G02*
X113679000Y-28439000I0J250000D01*
G01*
X113679000Y-27514000D01*
G75*
G02*
X113929000Y-27264000I250000J0D01*
G01*
X115179000Y-27264000D01*
G75*
G02*
X115429000Y-27514000I0J-250000D01*
G01*
X115429000Y-28439000D01*
G75*
G02*
X115179000Y-28689000I-250000J0D01*
G01*
G37*
G36*
G01*
X115179000Y-31664000D02*
X113929000Y-31664000D01*
G75*
G02*
X113679000Y-31414000I0J250000D01*
G01*
X113679000Y-30489000D01*
G75*
G02*
X113929000Y-30239000I250000J0D01*
G01*
X115179000Y-30239000D01*
G75*
G02*
X115429000Y-30489000I0J-250000D01*
G01*
X115429000Y-31414000D01*
G75*
G02*
X115179000Y-31664000I-250000J0D01*
G01*
G37*
G36*
G01*
X107452000Y-49543000D02*
X108702000Y-49543000D01*
G75*
G02*
X108952000Y-49793000I0J-250000D01*
G01*
X108952000Y-50718000D01*
G75*
G02*
X108702000Y-50968000I-250000J0D01*
G01*
X107452000Y-50968000D01*
G75*
G02*
X107202000Y-50718000I0J250000D01*
G01*
X107202000Y-49793000D01*
G75*
G02*
X107452000Y-49543000I250000J0D01*
G01*
G37*
G36*
G01*
X107452000Y-46568000D02*
X108702000Y-46568000D01*
G75*
G02*
X108952000Y-46818000I0J-250000D01*
G01*
X108952000Y-47743000D01*
G75*
G02*
X108702000Y-47993000I-250000J0D01*
G01*
X107452000Y-47993000D01*
G75*
G02*
X107202000Y-47743000I0J250000D01*
G01*
X107202000Y-46818000D01*
G75*
G02*
X107452000Y-46568000I250000J0D01*
G01*
G37*
G36*
G01*
X104023000Y-49543000D02*
X105273000Y-49543000D01*
G75*
G02*
X105523000Y-49793000I0J-250000D01*
G01*
X105523000Y-50718000D01*
G75*
G02*
X105273000Y-50968000I-250000J0D01*
G01*
X104023000Y-50968000D01*
G75*
G02*
X103773000Y-50718000I0J250000D01*
G01*
X103773000Y-49793000D01*
G75*
G02*
X104023000Y-49543000I250000J0D01*
G01*
G37*
G36*
G01*
X104023000Y-46568000D02*
X105273000Y-46568000D01*
G75*
G02*
X105523000Y-46818000I0J-250000D01*
G01*
X105523000Y-47743000D01*
G75*
G02*
X105273000Y-47993000I-250000J0D01*
G01*
X104023000Y-47993000D01*
G75*
G02*
X103773000Y-47743000I0J250000D01*
G01*
X103773000Y-46818000D01*
G75*
G02*
X104023000Y-46568000I250000J0D01*
G01*
G37*
G36*
G01*
X113274000Y-104254000D02*
X112024000Y-104254000D01*
G75*
G02*
X111774000Y-104004000I0J250000D01*
G01*
X111774000Y-103079000D01*
G75*
G02*
X112024000Y-102829000I250000J0D01*
G01*
X113274000Y-102829000D01*
G75*
G02*
X113524000Y-103079000I0J-250000D01*
G01*
X113524000Y-104004000D01*
G75*
G02*
X113274000Y-104254000I-250000J0D01*
G01*
G37*
G36*
G01*
X113274000Y-107229000D02*
X112024000Y-107229000D01*
G75*
G02*
X111774000Y-106979000I0J250000D01*
G01*
X111774000Y-106054000D01*
G75*
G02*
X112024000Y-105804000I250000J0D01*
G01*
X113274000Y-105804000D01*
G75*
G02*
X113524000Y-106054000I0J-250000D01*
G01*
X113524000Y-106979000D01*
G75*
G02*
X113274000Y-107229000I-250000J0D01*
G01*
G37*
G36*
G01*
X137808000Y-112766000D02*
X137808000Y-111516000D01*
G75*
G02*
X138058000Y-111266000I250000J0D01*
G01*
X138983000Y-111266000D01*
G75*
G02*
X139233000Y-111516000I0J-250000D01*
G01*
X139233000Y-112766000D01*
G75*
G02*
X138983000Y-113016000I-250000J0D01*
G01*
X138058000Y-113016000D01*
G75*
G02*
X137808000Y-112766000I0J250000D01*
G01*
G37*
G36*
G01*
X134833000Y-112766000D02*
X134833000Y-111516000D01*
G75*
G02*
X135083000Y-111266000I250000J0D01*
G01*
X136008000Y-111266000D01*
G75*
G02*
X136258000Y-111516000I0J-250000D01*
G01*
X136258000Y-112766000D01*
G75*
G02*
X136008000Y-113016000I-250000J0D01*
G01*
X135083000Y-113016000D01*
G75*
G02*
X134833000Y-112766000I0J250000D01*
G01*
G37*
G36*
G01*
X100470000Y-99431000D02*
X100470000Y-98181000D01*
G75*
G02*
X100720000Y-97931000I250000J0D01*
G01*
X101645000Y-97931000D01*
G75*
G02*
X101895000Y-98181000I0J-250000D01*
G01*
X101895000Y-99431000D01*
G75*
G02*
X101645000Y-99681000I-250000J0D01*
G01*
X100720000Y-99681000D01*
G75*
G02*
X100470000Y-99431000I0J250000D01*
G01*
G37*
G36*
G01*
X97495000Y-99431000D02*
X97495000Y-98181000D01*
G75*
G02*
X97745000Y-97931000I250000J0D01*
G01*
X98670000Y-97931000D01*
G75*
G02*
X98920000Y-98181000I0J-250000D01*
G01*
X98920000Y-99431000D01*
G75*
G02*
X98670000Y-99681000I-250000J0D01*
G01*
X97745000Y-99681000D01*
G75*
G02*
X97495000Y-99431000I0J250000D01*
G01*
G37*
G36*
G01*
X138671000Y-90942000D02*
X138671000Y-92192000D01*
G75*
G02*
X138421000Y-92442000I-250000J0D01*
G01*
X137496000Y-92442000D01*
G75*
G02*
X137246000Y-92192000I0J250000D01*
G01*
X137246000Y-90942000D01*
G75*
G02*
X137496000Y-90692000I250000J0D01*
G01*
X138421000Y-90692000D01*
G75*
G02*
X138671000Y-90942000I0J-250000D01*
G01*
G37*
G36*
G01*
X141646000Y-90942000D02*
X141646000Y-92192000D01*
G75*
G02*
X141396000Y-92442000I-250000J0D01*
G01*
X140471000Y-92442000D01*
G75*
G02*
X140221000Y-92192000I0J250000D01*
G01*
X140221000Y-90942000D01*
G75*
G02*
X140471000Y-90692000I250000J0D01*
G01*
X141396000Y-90692000D01*
G75*
G02*
X141646000Y-90942000I0J-250000D01*
G01*
G37*
G36*
G01*
X116446000Y-90942000D02*
X116446000Y-92192000D01*
G75*
G02*
X116196000Y-92442000I-250000J0D01*
G01*
X115271000Y-92442000D01*
G75*
G02*
X115021000Y-92192000I0J250000D01*
G01*
X115021000Y-90942000D01*
G75*
G02*
X115271000Y-90692000I250000J0D01*
G01*
X116196000Y-90692000D01*
G75*
G02*
X116446000Y-90942000I0J-250000D01*
G01*
G37*
G36*
G01*
X119421000Y-90942000D02*
X119421000Y-92192000D01*
G75*
G02*
X119171000Y-92442000I-250000J0D01*
G01*
X118246000Y-92442000D01*
G75*
G02*
X117996000Y-92192000I0J250000D01*
G01*
X117996000Y-90942000D01*
G75*
G02*
X118246000Y-90692000I250000J0D01*
G01*
X119171000Y-90692000D01*
G75*
G02*
X119421000Y-90942000I0J-250000D01*
G01*
G37*
G36*
G01*
X90919000Y-85481000D02*
X90919000Y-86731000D01*
G75*
G02*
X90669000Y-86981000I-250000J0D01*
G01*
X89744000Y-86981000D01*
G75*
G02*
X89494000Y-86731000I0J250000D01*
G01*
X89494000Y-85481000D01*
G75*
G02*
X89744000Y-85231000I250000J0D01*
G01*
X90669000Y-85231000D01*
G75*
G02*
X90919000Y-85481000I0J-250000D01*
G01*
G37*
G36*
G01*
X93894000Y-85481000D02*
X93894000Y-86731000D01*
G75*
G02*
X93644000Y-86981000I-250000J0D01*
G01*
X92719000Y-86981000D01*
G75*
G02*
X92469000Y-86731000I0J250000D01*
G01*
X92469000Y-85481000D01*
G75*
G02*
X92719000Y-85231000I250000J0D01*
G01*
X93644000Y-85231000D01*
G75*
G02*
X93894000Y-85481000I0J-250000D01*
G01*
G37*
G36*
G01*
X105143000Y-38237000D02*
X105143000Y-39487000D01*
G75*
G02*
X104893000Y-39737000I-250000J0D01*
G01*
X103968000Y-39737000D01*
G75*
G02*
X103718000Y-39487000I0J250000D01*
G01*
X103718000Y-38237000D01*
G75*
G02*
X103968000Y-37987000I250000J0D01*
G01*
X104893000Y-37987000D01*
G75*
G02*
X105143000Y-38237000I0J-250000D01*
G01*
G37*
G36*
G01*
X108118000Y-38237000D02*
X108118000Y-39487000D01*
G75*
G02*
X107868000Y-39737000I-250000J0D01*
G01*
X106943000Y-39737000D01*
G75*
G02*
X106693000Y-39487000I0J250000D01*
G01*
X106693000Y-38237000D01*
G75*
G02*
X106943000Y-37987000I250000J0D01*
G01*
X107868000Y-37987000D01*
G75*
G02*
X108118000Y-38237000I0J-250000D01*
G01*
G37*
G36*
G01*
X81293000Y-87112000D02*
X81293000Y-85862000D01*
G75*
G02*
X81543000Y-85612000I250000J0D01*
G01*
X82468000Y-85612000D01*
G75*
G02*
X82718000Y-85862000I0J-250000D01*
G01*
X82718000Y-87112000D01*
G75*
G02*
X82468000Y-87362000I-250000J0D01*
G01*
X81543000Y-87362000D01*
G75*
G02*
X81293000Y-87112000I0J250000D01*
G01*
G37*
G36*
G01*
X78318000Y-87112000D02*
X78318000Y-85862000D01*
G75*
G02*
X78568000Y-85612000I250000J0D01*
G01*
X79493000Y-85612000D01*
G75*
G02*
X79743000Y-85862000I0J-250000D01*
G01*
X79743000Y-87112000D01*
G75*
G02*
X79493000Y-87362000I-250000J0D01*
G01*
X78568000Y-87362000D01*
G75*
G02*
X78318000Y-87112000I0J250000D01*
G01*
G37*
G36*
G01*
X97803000Y-47742000D02*
X97803000Y-46492000D01*
G75*
G02*
X98053000Y-46242000I250000J0D01*
G01*
X98978000Y-46242000D01*
G75*
G02*
X99228000Y-46492000I0J-250000D01*
G01*
X99228000Y-47742000D01*
G75*
G02*
X98978000Y-47992000I-250000J0D01*
G01*
X98053000Y-47992000D01*
G75*
G02*
X97803000Y-47742000I0J250000D01*
G01*
G37*
G36*
G01*
X94828000Y-47742000D02*
X94828000Y-46492000D01*
G75*
G02*
X95078000Y-46242000I250000J0D01*
G01*
X96003000Y-46242000D01*
G75*
G02*
X96253000Y-46492000I0J-250000D01*
G01*
X96253000Y-47742000D01*
G75*
G02*
X96003000Y-47992000I-250000J0D01*
G01*
X95078000Y-47992000D01*
G75*
G02*
X94828000Y-47742000I0J250000D01*
G01*
G37*
G36*
G01*
X124701000Y-103388000D02*
X124701000Y-104638000D01*
G75*
G02*
X124451000Y-104888000I-250000J0D01*
G01*
X123526000Y-104888000D01*
G75*
G02*
X123276000Y-104638000I0J250000D01*
G01*
X123276000Y-103388000D01*
G75*
G02*
X123526000Y-103138000I250000J0D01*
G01*
X124451000Y-103138000D01*
G75*
G02*
X124701000Y-103388000I0J-250000D01*
G01*
G37*
G36*
G01*
X127676000Y-103388000D02*
X127676000Y-104638000D01*
G75*
G02*
X127426000Y-104888000I-250000J0D01*
G01*
X126501000Y-104888000D01*
G75*
G02*
X126251000Y-104638000I0J250000D01*
G01*
X126251000Y-103388000D01*
G75*
G02*
X126501000Y-103138000I250000J0D01*
G01*
X127426000Y-103138000D01*
G75*
G02*
X127676000Y-103388000I0J-250000D01*
G01*
G37*
G36*
G01*
X127241000Y-72019000D02*
X127241000Y-73269000D01*
G75*
G02*
X126991000Y-73519000I-250000J0D01*
G01*
X126066000Y-73519000D01*
G75*
G02*
X125816000Y-73269000I0J250000D01*
G01*
X125816000Y-72019000D01*
G75*
G02*
X126066000Y-71769000I250000J0D01*
G01*
X126991000Y-71769000D01*
G75*
G02*
X127241000Y-72019000I0J-250000D01*
G01*
G37*
G36*
G01*
X130216000Y-72019000D02*
X130216000Y-73269000D01*
G75*
G02*
X129966000Y-73519000I-250000J0D01*
G01*
X129041000Y-73519000D01*
G75*
G02*
X128791000Y-73269000I0J250000D01*
G01*
X128791000Y-72019000D01*
G75*
G02*
X129041000Y-71769000I250000J0D01*
G01*
X129966000Y-71769000D01*
G75*
G02*
X130216000Y-72019000I0J-250000D01*
G01*
G37*
G36*
G01*
X127241000Y-53096000D02*
X127241000Y-54346000D01*
G75*
G02*
X126991000Y-54596000I-250000J0D01*
G01*
X126066000Y-54596000D01*
G75*
G02*
X125816000Y-54346000I0J250000D01*
G01*
X125816000Y-53096000D01*
G75*
G02*
X126066000Y-52846000I250000J0D01*
G01*
X126991000Y-52846000D01*
G75*
G02*
X127241000Y-53096000I0J-250000D01*
G01*
G37*
G36*
G01*
X130216000Y-53096000D02*
X130216000Y-54346000D01*
G75*
G02*
X129966000Y-54596000I-250000J0D01*
G01*
X129041000Y-54596000D01*
G75*
G02*
X128791000Y-54346000I0J250000D01*
G01*
X128791000Y-53096000D01*
G75*
G02*
X129041000Y-52846000I250000J0D01*
G01*
X129966000Y-52846000D01*
G75*
G02*
X130216000Y-53096000I0J-250000D01*
G01*
G37*
G36*
G01*
X115329000Y-58283000D02*
X115329000Y-57033000D01*
G75*
G02*
X115579000Y-56783000I250000J0D01*
G01*
X116504000Y-56783000D01*
G75*
G02*
X116754000Y-57033000I0J-250000D01*
G01*
X116754000Y-58283000D01*
G75*
G02*
X116504000Y-58533000I-250000J0D01*
G01*
X115579000Y-58533000D01*
G75*
G02*
X115329000Y-58283000I0J250000D01*
G01*
G37*
G36*
G01*
X112354000Y-58283000D02*
X112354000Y-57033000D01*
G75*
G02*
X112604000Y-56783000I250000J0D01*
G01*
X113529000Y-56783000D01*
G75*
G02*
X113779000Y-57033000I0J-250000D01*
G01*
X113779000Y-58283000D01*
G75*
G02*
X113529000Y-58533000I-250000J0D01*
G01*
X112604000Y-58533000D01*
G75*
G02*
X112354000Y-58283000I0J250000D01*
G01*
G37*
M02*
