G04 #@! TF.GenerationSoftware,KiCad,Pcbnew,(5.1.6)-1*
G04 #@! TF.CreationDate,2020-11-25T06:28:35+02:00*
G04 #@! TF.ProjectId,PlusD_Clone_1_5,506c7573-445f-4436-9c6f-6e655f315f35,rev?*
G04 #@! TF.SameCoordinates,Original*
G04 #@! TF.FileFunction,Copper,L1,Top*
G04 #@! TF.FilePolarity,Positive*
%FSLAX46Y46*%
G04 Gerber Fmt 4.6, Leading zero omitted, Abs format (unit mm)*
G04 Created by KiCad (PCBNEW (5.1.6)-1) date 2020-11-25 06:28:35*
%MOMM*%
%LPD*%
G01*
G04 APERTURE LIST*
G04 #@! TA.AperFunction,SMDPad,CuDef*
%ADD10R,0.900000X1.200000*%
G04 #@! TD*
G04 #@! TA.AperFunction,ComponentPad*
%ADD11C,0.800000*%
G04 #@! TD*
G04 #@! TA.AperFunction,ComponentPad*
%ADD12C,7.000000*%
G04 #@! TD*
G04 #@! TA.AperFunction,ComponentPad*
%ADD13O,1.700000X1.700000*%
G04 #@! TD*
G04 #@! TA.AperFunction,ComponentPad*
%ADD14R,1.700000X1.700000*%
G04 #@! TD*
G04 #@! TA.AperFunction,ComponentPad*
%ADD15C,1.400000*%
G04 #@! TD*
G04 #@! TA.AperFunction,ComponentPad*
%ADD16R,1.400000X1.400000*%
G04 #@! TD*
G04 #@! TA.AperFunction,ComponentPad*
%ADD17O,1.600000X2.400000*%
G04 #@! TD*
G04 #@! TA.AperFunction,ComponentPad*
%ADD18R,1.600000X2.400000*%
G04 #@! TD*
G04 #@! TA.AperFunction,ComponentPad*
%ADD19O,3.500000X1.700000*%
G04 #@! TD*
G04 #@! TA.AperFunction,ComponentPad*
%ADD20O,2.500000X1.400000*%
G04 #@! TD*
G04 #@! TA.AperFunction,ComponentPad*
%ADD21R,2.500000X1.400000*%
G04 #@! TD*
G04 #@! TA.AperFunction,ComponentPad*
%ADD22C,4.000000*%
G04 #@! TD*
G04 #@! TA.AperFunction,ComponentPad*
%ADD23C,1.600000*%
G04 #@! TD*
G04 #@! TA.AperFunction,ComponentPad*
%ADD24R,1.600000X1.600000*%
G04 #@! TD*
G04 #@! TA.AperFunction,ComponentPad*
%ADD25O,1.600000X1.600000*%
G04 #@! TD*
G04 #@! TA.AperFunction,ComponentPad*
%ADD26C,2.000000*%
G04 #@! TD*
G04 #@! TA.AperFunction,ConnectorPad*
%ADD27O,1.778000X5.080000*%
G04 #@! TD*
G04 #@! TA.AperFunction,ComponentPad*
%ADD28C,1.800000*%
G04 #@! TD*
G04 #@! TA.AperFunction,ComponentPad*
%ADD29R,1.800000X1.800000*%
G04 #@! TD*
G04 #@! TA.AperFunction,ComponentPad*
%ADD30C,1.500000*%
G04 #@! TD*
G04 #@! TA.AperFunction,ViaPad*
%ADD31C,0.800000*%
G04 #@! TD*
G04 #@! TA.AperFunction,Conductor*
%ADD32C,0.350000*%
G04 #@! TD*
G04 #@! TA.AperFunction,Conductor*
%ADD33C,0.250000*%
G04 #@! TD*
G04 APERTURE END LIST*
D10*
X128864000Y-112459000D03*
X132164000Y-112459000D03*
X121864000Y-112459000D03*
X125164000Y-112459000D03*
X114864000Y-112459000D03*
X118164000Y-112459000D03*
D11*
X146856155Y-35143845D03*
X145000000Y-34375000D03*
X143143845Y-35143845D03*
X142375000Y-37000000D03*
X143143845Y-38856155D03*
X145000000Y-39625000D03*
X146856155Y-38856155D03*
X147625000Y-37000000D03*
D12*
X145000000Y-37000000D03*
D13*
X153416000Y-46228000D03*
X150876000Y-46228000D03*
X153416000Y-43688000D03*
X150876000Y-43688000D03*
X153416000Y-41148000D03*
X150876000Y-41148000D03*
X153416000Y-38608000D03*
D14*
X150876000Y-38608000D03*
D12*
X83000000Y-37000000D03*
D11*
X85625000Y-37000000D03*
X84856155Y-38856155D03*
X83000000Y-39625000D03*
X81143845Y-38856155D03*
X80375000Y-37000000D03*
X81143845Y-35143845D03*
X83000000Y-34375000D03*
X84856155Y-35143845D03*
G04 #@! TA.AperFunction,SMDPad,CuDef*
G36*
G01*
X106595000Y-109234000D02*
X105495000Y-109234000D01*
G75*
G02*
X105245000Y-108984000I0J250000D01*
G01*
X105245000Y-106159000D01*
G75*
G02*
X105495000Y-105909000I250000J0D01*
G01*
X106595000Y-105909000D01*
G75*
G02*
X106845000Y-106159000I0J-250000D01*
G01*
X106845000Y-108984000D01*
G75*
G02*
X106595000Y-109234000I-250000J0D01*
G01*
G37*
G04 #@! TD.AperFunction*
G04 #@! TA.AperFunction,SMDPad,CuDef*
G36*
G01*
X106595000Y-114309000D02*
X105495000Y-114309000D01*
G75*
G02*
X105245000Y-114059000I0J250000D01*
G01*
X105245000Y-111234000D01*
G75*
G02*
X105495000Y-110984000I250000J0D01*
G01*
X106595000Y-110984000D01*
G75*
G02*
X106845000Y-111234000I0J-250000D01*
G01*
X106845000Y-114059000D01*
G75*
G02*
X106595000Y-114309000I-250000J0D01*
G01*
G37*
G04 #@! TD.AperFunction*
G04 #@! TA.AperFunction,SMDPad,CuDef*
G36*
G01*
X96351000Y-111111000D02*
X97451000Y-111111000D01*
G75*
G02*
X97701000Y-111361000I0J-250000D01*
G01*
X97701000Y-114186000D01*
G75*
G02*
X97451000Y-114436000I-250000J0D01*
G01*
X96351000Y-114436000D01*
G75*
G02*
X96101000Y-114186000I0J250000D01*
G01*
X96101000Y-111361000D01*
G75*
G02*
X96351000Y-111111000I250000J0D01*
G01*
G37*
G04 #@! TD.AperFunction*
G04 #@! TA.AperFunction,SMDPad,CuDef*
G36*
G01*
X96351000Y-106036000D02*
X97451000Y-106036000D01*
G75*
G02*
X97701000Y-106286000I0J-250000D01*
G01*
X97701000Y-109111000D01*
G75*
G02*
X97451000Y-109361000I-250000J0D01*
G01*
X96351000Y-109361000D01*
G75*
G02*
X96101000Y-109111000I0J250000D01*
G01*
X96101000Y-106286000D01*
G75*
G02*
X96351000Y-106036000I250000J0D01*
G01*
G37*
G04 #@! TD.AperFunction*
D15*
X160907000Y-29417000D03*
X160907000Y-31917000D03*
X160907000Y-34417000D03*
X157607000Y-29417000D03*
X157607000Y-31917000D03*
D16*
X157607000Y-34417000D03*
D17*
X126500000Y-49760000D03*
X159520000Y-65000000D03*
X129040000Y-49760000D03*
X156980000Y-65000000D03*
X131580000Y-49760000D03*
X154440000Y-65000000D03*
X134120000Y-49760000D03*
X151900000Y-65000000D03*
X136660000Y-49760000D03*
X149360000Y-65000000D03*
X139200000Y-49760000D03*
X146820000Y-65000000D03*
X141740000Y-49760000D03*
X144280000Y-65000000D03*
X144280000Y-49760000D03*
X141740000Y-65000000D03*
X146820000Y-49760000D03*
X139200000Y-65000000D03*
X149360000Y-49760000D03*
X136660000Y-65000000D03*
X151900000Y-49760000D03*
X134120000Y-65000000D03*
X154440000Y-49760000D03*
X131580000Y-65000000D03*
X156980000Y-49760000D03*
X129040000Y-65000000D03*
X159520000Y-49760000D03*
D18*
X126500000Y-65000000D03*
D19*
X159258000Y-87626000D03*
X159258000Y-95826000D03*
D20*
X159258000Y-89726000D03*
X159258000Y-91726000D03*
D21*
X159258000Y-93726000D03*
D22*
X73950000Y-62040000D03*
X73950000Y-37040000D03*
D23*
X71410000Y-53695000D03*
X71410000Y-50925000D03*
X71410000Y-48155000D03*
X71410000Y-45385000D03*
X74250000Y-55080000D03*
X74250000Y-52310000D03*
X74250000Y-49540000D03*
X74250000Y-46770000D03*
D24*
X74250000Y-44000000D03*
D25*
X73406000Y-68500000D03*
X65786000Y-73580000D03*
X73406000Y-71040000D03*
X65786000Y-71040000D03*
X73406000Y-73580000D03*
D24*
X65786000Y-68500000D03*
D17*
X115762000Y-87880000D03*
X131002000Y-95500000D03*
X118302000Y-87880000D03*
X128462000Y-95500000D03*
X120842000Y-87880000D03*
X125922000Y-95500000D03*
X123382000Y-87880000D03*
X123382000Y-95500000D03*
X125922000Y-87880000D03*
X120842000Y-95500000D03*
X128462000Y-87880000D03*
X118302000Y-95500000D03*
X131002000Y-87880000D03*
D18*
X115762000Y-95500000D03*
D17*
X101219000Y-102362000D03*
X73279000Y-94742000D03*
X98679000Y-102362000D03*
X75819000Y-94742000D03*
X96139000Y-102362000D03*
X78359000Y-94742000D03*
X93599000Y-102362000D03*
X80899000Y-94742000D03*
X91059000Y-102362000D03*
X83439000Y-94742000D03*
X88519000Y-102362000D03*
X85979000Y-94742000D03*
X85979000Y-102362000D03*
X88519000Y-94742000D03*
X83439000Y-102362000D03*
X91059000Y-94742000D03*
X80899000Y-102362000D03*
X93599000Y-94742000D03*
X78359000Y-102362000D03*
X96139000Y-94742000D03*
X75819000Y-102362000D03*
X98679000Y-94742000D03*
X73279000Y-102362000D03*
D18*
X101219000Y-94742000D03*
D17*
X98477000Y-50772000D03*
X83237000Y-43152000D03*
X95937000Y-50772000D03*
X85777000Y-43152000D03*
X93397000Y-50772000D03*
X88317000Y-43152000D03*
X90857000Y-50772000D03*
X90857000Y-43152000D03*
X88317000Y-50772000D03*
X93397000Y-43152000D03*
X85777000Y-50772000D03*
X95937000Y-43152000D03*
X83237000Y-50772000D03*
D18*
X98477000Y-43152000D03*
D17*
X82042000Y-90043000D03*
X66802000Y-82423000D03*
X79502000Y-90043000D03*
X69342000Y-82423000D03*
X76962000Y-90043000D03*
X71882000Y-82423000D03*
X74422000Y-90043000D03*
X74422000Y-82423000D03*
X71882000Y-90043000D03*
X76962000Y-82423000D03*
X69342000Y-90043000D03*
X79502000Y-82423000D03*
X66802000Y-90043000D03*
D18*
X82042000Y-82423000D03*
D17*
X138000000Y-87880000D03*
X153240000Y-95500000D03*
X140540000Y-87880000D03*
X150700000Y-95500000D03*
X143080000Y-87880000D03*
X148160000Y-95500000D03*
X145620000Y-87880000D03*
X145620000Y-95500000D03*
X148160000Y-87880000D03*
X143080000Y-95500000D03*
X150700000Y-87880000D03*
X140540000Y-95500000D03*
X153240000Y-87880000D03*
D18*
X138000000Y-95500000D03*
D11*
X69856155Y-104143845D03*
X68000000Y-103375000D03*
X66143845Y-104143845D03*
X65375000Y-106000000D03*
X66143845Y-107856155D03*
X68000000Y-108625000D03*
X69856155Y-107856155D03*
X70625000Y-106000000D03*
D12*
X68000000Y-106000000D03*
D11*
X159856155Y-104143845D03*
X158000000Y-103375000D03*
X156143845Y-104143845D03*
X155375000Y-106000000D03*
X156143845Y-107856155D03*
X158000000Y-108625000D03*
X159856155Y-107856155D03*
X160625000Y-106000000D03*
D12*
X158000000Y-106000000D03*
D26*
X110500000Y-73500000D03*
X110500000Y-78000000D03*
X104000000Y-73500000D03*
X104000000Y-78000000D03*
X87500000Y-73500000D03*
X87500000Y-78000000D03*
X81000000Y-73500000D03*
X81000000Y-78000000D03*
D17*
X104380000Y-35213000D03*
X127240000Y-42833000D03*
X106920000Y-35213000D03*
X124700000Y-42833000D03*
X109460000Y-35213000D03*
X122160000Y-42833000D03*
X112000000Y-35213000D03*
X119620000Y-42833000D03*
X114540000Y-35213000D03*
X117080000Y-42833000D03*
X117080000Y-35213000D03*
X114540000Y-42833000D03*
X119620000Y-35213000D03*
X112000000Y-42833000D03*
X122160000Y-35213000D03*
X109460000Y-42833000D03*
X124700000Y-35213000D03*
X106920000Y-42833000D03*
X127240000Y-35213000D03*
D18*
X104380000Y-42833000D03*
D17*
X90284000Y-82476000D03*
X108064000Y-90096000D03*
X92824000Y-82476000D03*
X105524000Y-90096000D03*
X95364000Y-82476000D03*
X102984000Y-90096000D03*
X97904000Y-82476000D03*
X100444000Y-90096000D03*
X100444000Y-82476000D03*
X97904000Y-90096000D03*
X102984000Y-82476000D03*
X95364000Y-90096000D03*
X105524000Y-82476000D03*
X92824000Y-90096000D03*
X108064000Y-82476000D03*
D18*
X90284000Y-90096000D03*
D17*
X124000000Y-100380000D03*
X151940000Y-108000000D03*
X126540000Y-100380000D03*
X149400000Y-108000000D03*
X129080000Y-100380000D03*
X146860000Y-108000000D03*
X131620000Y-100380000D03*
X144320000Y-108000000D03*
X134160000Y-100380000D03*
X141780000Y-108000000D03*
X136700000Y-100380000D03*
X139240000Y-108000000D03*
X139240000Y-100380000D03*
X136700000Y-108000000D03*
X141780000Y-100380000D03*
X134160000Y-108000000D03*
X144320000Y-100380000D03*
X131620000Y-108000000D03*
X146860000Y-100380000D03*
X129080000Y-108000000D03*
X149400000Y-100380000D03*
X126540000Y-108000000D03*
X151940000Y-100380000D03*
D18*
X124000000Y-108000000D03*
D17*
X126500000Y-68760000D03*
X159520000Y-84000000D03*
X129040000Y-68760000D03*
X156980000Y-84000000D03*
X131580000Y-68760000D03*
X154440000Y-84000000D03*
X134120000Y-68760000D03*
X151900000Y-84000000D03*
X136660000Y-68760000D03*
X149360000Y-84000000D03*
X139200000Y-68760000D03*
X146820000Y-84000000D03*
X141740000Y-68760000D03*
X144280000Y-84000000D03*
X144280000Y-68760000D03*
X141740000Y-84000000D03*
X146820000Y-68760000D03*
X139200000Y-84000000D03*
X149360000Y-68760000D03*
X136660000Y-84000000D03*
X151900000Y-68760000D03*
X134120000Y-84000000D03*
X154440000Y-68760000D03*
X131580000Y-84000000D03*
X156980000Y-68760000D03*
X129040000Y-84000000D03*
X159520000Y-68760000D03*
D18*
X126500000Y-84000000D03*
D17*
X83185000Y-54483000D03*
X116205000Y-69723000D03*
X85725000Y-54483000D03*
X113665000Y-69723000D03*
X88265000Y-54483000D03*
X111125000Y-69723000D03*
X90805000Y-54483000D03*
X108585000Y-69723000D03*
X93345000Y-54483000D03*
X106045000Y-69723000D03*
X95885000Y-54483000D03*
X103505000Y-69723000D03*
X98425000Y-54483000D03*
X100965000Y-69723000D03*
X100965000Y-54483000D03*
X98425000Y-69723000D03*
X103505000Y-54483000D03*
X95885000Y-69723000D03*
X106045000Y-54483000D03*
X93345000Y-69723000D03*
X108585000Y-54483000D03*
X90805000Y-69723000D03*
X111125000Y-54483000D03*
X88265000Y-69723000D03*
X113665000Y-54483000D03*
X85725000Y-69723000D03*
X116205000Y-54483000D03*
D18*
X83185000Y-69723000D03*
D27*
X95298000Y-121960000D03*
X97838000Y-121960000D03*
X105458000Y-121960000D03*
X113078000Y-121960000D03*
X110538000Y-121960000D03*
X107998000Y-121960000D03*
X115618000Y-121960000D03*
X90218000Y-121960000D03*
X92758000Y-121960000D03*
X102918000Y-121960000D03*
X118158000Y-121960000D03*
X123238000Y-121960000D03*
X120698000Y-121960000D03*
X125778000Y-121960000D03*
X130858000Y-121960000D03*
X128318000Y-121960000D03*
X133398000Y-121960000D03*
X143558000Y-121960000D03*
X138478000Y-121960000D03*
X151178000Y-121960000D03*
X156258000Y-121960000D03*
X158798000Y-121960000D03*
X135938000Y-121960000D03*
X146098000Y-121960000D03*
X148638000Y-121960000D03*
X153718000Y-121960000D03*
X141018000Y-121960000D03*
D13*
X153162000Y-28460000D03*
X153162000Y-31000000D03*
X150622000Y-28460000D03*
X150622000Y-31000000D03*
X148082000Y-28460000D03*
X148082000Y-31000000D03*
X145542000Y-28460000D03*
X145542000Y-31000000D03*
X143002000Y-28460000D03*
X143002000Y-31000000D03*
X140462000Y-28460000D03*
X140462000Y-31000000D03*
X137922000Y-28460000D03*
X137922000Y-31000000D03*
X135382000Y-28460000D03*
X135382000Y-31000000D03*
X132842000Y-28460000D03*
X132842000Y-31000000D03*
X130302000Y-28460000D03*
X130302000Y-31000000D03*
X127762000Y-28460000D03*
X127762000Y-31000000D03*
X125222000Y-28460000D03*
X125222000Y-31000000D03*
X122682000Y-28460000D03*
D14*
X122682000Y-31000000D03*
X69000000Y-31000000D03*
D13*
X69000000Y-28460000D03*
X71540000Y-31000000D03*
X71540000Y-28460000D03*
X74080000Y-31000000D03*
X74080000Y-28460000D03*
X76620000Y-31000000D03*
X76620000Y-28460000D03*
X79160000Y-31000000D03*
X79160000Y-28460000D03*
X81700000Y-31000000D03*
X81700000Y-28460000D03*
X84240000Y-31000000D03*
X84240000Y-28460000D03*
X86780000Y-31000000D03*
X86780000Y-28460000D03*
X89320000Y-31000000D03*
X89320000Y-28460000D03*
X91860000Y-31000000D03*
X91860000Y-28460000D03*
X94400000Y-31000000D03*
X94400000Y-28460000D03*
X96940000Y-31000000D03*
X96940000Y-28460000D03*
X99480000Y-31000000D03*
X99480000Y-28460000D03*
X102020000Y-31000000D03*
X102020000Y-28460000D03*
X104560000Y-31000000D03*
X104560000Y-28460000D03*
X107100000Y-31000000D03*
X107100000Y-28460000D03*
X109640000Y-31000000D03*
X109640000Y-28460000D03*
D28*
X137540000Y-37000000D03*
D29*
X135000000Y-37000000D03*
D28*
X92540000Y-37000000D03*
D29*
X90000000Y-37000000D03*
D30*
X108204000Y-101092000D03*
X108204000Y-96192000D03*
D31*
X123601700Y-62097600D03*
X109208600Y-103090500D03*
X120361700Y-118648900D03*
X116680200Y-115854600D03*
X106991400Y-95076000D03*
X108574800Y-117771100D03*
X91204600Y-110421300D03*
X122108800Y-108875300D03*
X133833500Y-87827000D03*
X129727900Y-98534900D03*
X99418200Y-106251800D03*
X114190000Y-90997300D03*
X159503900Y-62326200D03*
X156418600Y-88244200D03*
X123134100Y-77997100D03*
X135800200Y-105546100D03*
X89746400Y-45399100D03*
X76881500Y-62837500D03*
X106768800Y-52510200D03*
X126216100Y-57485100D03*
X100872700Y-49145700D03*
X96127900Y-77343900D03*
X93397000Y-48562700D03*
X130203800Y-45900600D03*
X140564000Y-46332500D03*
X127446000Y-57466200D03*
X75621100Y-73111500D03*
X79117700Y-26510000D03*
X119903100Y-79456300D03*
X126177000Y-91340000D03*
X71614900Y-92744200D03*
X129735200Y-115366600D03*
X133585800Y-45799700D03*
X97904000Y-73292500D03*
X149893600Y-74264000D03*
X151886900Y-92404900D03*
X150764700Y-97502900D03*
X151914900Y-106107600D03*
X148809600Y-71023100D03*
X112183800Y-80968800D03*
X114581500Y-116679900D03*
X128643000Y-98360600D03*
X122191300Y-82393100D03*
X121464700Y-110520200D03*
X133938800Y-95386800D03*
X131983100Y-97015900D03*
X137511700Y-113533900D03*
X137450500Y-82201400D03*
X152662800Y-90812300D03*
X157292700Y-119054300D03*
X101928400Y-41257600D03*
X151806300Y-73989800D03*
X154253300Y-62115700D03*
X109626400Y-107467000D03*
X110625900Y-108154600D03*
X111430000Y-110608900D03*
X109145900Y-110702100D03*
X87791100Y-81384900D03*
X143688200Y-76716400D03*
X101592300Y-110725700D03*
X108160600Y-78628700D03*
X89856600Y-97699100D03*
X90217600Y-105541100D03*
X118481700Y-108932300D03*
X120924900Y-116977700D03*
X140883200Y-73917600D03*
X136064700Y-71214500D03*
X94832300Y-118260200D03*
X93856800Y-119179500D03*
X88515000Y-100299500D03*
X132850000Y-69948300D03*
X144998600Y-70630900D03*
X148207300Y-89883600D03*
X112959100Y-81772000D03*
X115441400Y-117513300D03*
X98209900Y-29346900D03*
X101197799Y-59974388D03*
X111574300Y-32142200D03*
X117853200Y-70317800D03*
X133173300Y-41697400D03*
X120149600Y-115784900D03*
X125673600Y-118750200D03*
X132164000Y-110387700D03*
X99796100Y-120001900D03*
X103332600Y-114216800D03*
X133957800Y-43646400D03*
X99950800Y-39334700D03*
X117849800Y-107825500D03*
X136847400Y-106051200D03*
X98360800Y-106775000D03*
X105501300Y-85815200D03*
X119572000Y-89434300D03*
D32*
X116205000Y-69723000D02*
X116205000Y-73705000D01*
X116205000Y-73705000D02*
X126500000Y-84000000D01*
X123601700Y-62097600D02*
X116205000Y-69494300D01*
X116205000Y-69494300D02*
X116205000Y-69723000D01*
X127240000Y-42833000D02*
X123601700Y-46471300D01*
X123601700Y-46471300D02*
X123601700Y-62097600D01*
X106991400Y-103090500D02*
X106991400Y-95076000D01*
X106045000Y-107571500D02*
X106045000Y-104036900D01*
X106045000Y-104036900D02*
X106991400Y-103090500D01*
X106991400Y-103090500D02*
X109208600Y-103090500D01*
X120361700Y-118648900D02*
X119474500Y-118648900D01*
X119474500Y-118648900D02*
X116680200Y-115854600D01*
X107100000Y-31000000D02*
X105650000Y-32450000D01*
X105650000Y-32450000D02*
X105650000Y-41563000D01*
X105650000Y-41563000D02*
X104380000Y-42833000D01*
X108064000Y-90096000D02*
X106991400Y-91168600D01*
X106991400Y-91168600D02*
X106991400Y-95076000D01*
X106045000Y-107571500D02*
X108320600Y-109847100D01*
X108320600Y-109847100D02*
X108320600Y-117516900D01*
X108320600Y-117516900D02*
X108574800Y-117771100D01*
X153240000Y-95500000D02*
X153240000Y-103086100D01*
X153240000Y-103086100D02*
X152823900Y-103502200D01*
X152823900Y-103502200D02*
X152823900Y-107116100D01*
X152823900Y-107116100D02*
X151940000Y-108000000D01*
X159520000Y-65000000D02*
X160749400Y-66229400D01*
X160749400Y-66229400D02*
X160749400Y-82770600D01*
X160749400Y-82770600D02*
X159520000Y-84000000D01*
X89320000Y-31000000D02*
X86780000Y-31000000D01*
X150622000Y-28460000D02*
X151948200Y-27133800D01*
X151948200Y-27133800D02*
X153676900Y-27133800D01*
X153676900Y-27133800D02*
X156355200Y-29812100D01*
X156355200Y-29812100D02*
X156355200Y-44199500D01*
X156355200Y-44199500D02*
X158211300Y-46055600D01*
X158211300Y-46055600D02*
X158211300Y-63691300D01*
X158211300Y-63691300D02*
X159520000Y-65000000D01*
X66802000Y-82423000D02*
X67025900Y-82199100D01*
X67025900Y-82199100D02*
X67025900Y-72279900D01*
X67025900Y-72279900D02*
X65786000Y-71040000D01*
X84240000Y-31000000D02*
X81700000Y-31000000D01*
X90000000Y-37000000D02*
X90000000Y-32860000D01*
X90000000Y-32860000D02*
X91860000Y-31000000D01*
D33*
X123238000Y-121960000D02*
X123238000Y-116502600D01*
X123238000Y-116502600D02*
X119794200Y-113058800D01*
X119794200Y-113058800D02*
X119794200Y-104398700D01*
X119794200Y-104398700D02*
X113411200Y-98015700D01*
X113411200Y-98015700D02*
X113411200Y-82416400D01*
X113411200Y-82416400D02*
X113734400Y-82093200D01*
X113734400Y-82093200D02*
X113734400Y-76734400D01*
X113734400Y-76734400D02*
X110500000Y-73500000D01*
X85979000Y-94742000D02*
X87173400Y-95936400D01*
X87173400Y-95936400D02*
X87173400Y-106390100D01*
X87173400Y-106390100D02*
X91204600Y-110421300D01*
X83185000Y-69723000D02*
X85136800Y-71674800D01*
X85136800Y-71674800D02*
X85136800Y-93899800D01*
X85136800Y-93899800D02*
X85979000Y-94742000D01*
X129080000Y-100380000D02*
X122108800Y-107351200D01*
X122108800Y-107351200D02*
X122108800Y-108875300D01*
X134160000Y-100380000D02*
X134160000Y-98096300D01*
X134160000Y-98096300D02*
X132582900Y-96519200D01*
X132582900Y-96519200D02*
X132582900Y-92000900D01*
X132582900Y-92000900D02*
X128462000Y-87880000D01*
X133833500Y-87827000D02*
X134714200Y-88707700D01*
X134714200Y-88707700D02*
X134714200Y-96955300D01*
X134714200Y-96955300D02*
X136700000Y-98941100D01*
X136700000Y-98941100D02*
X136700000Y-100380000D01*
X129727900Y-98534900D02*
X129727900Y-98321300D01*
X129727900Y-98321300D02*
X128660200Y-97253600D01*
X128660200Y-97253600D02*
X128143300Y-97253600D01*
X128143300Y-97253600D02*
X127118700Y-96229000D01*
X127118700Y-96229000D02*
X127118700Y-91088700D01*
X127118700Y-91088700D02*
X126221100Y-90191100D01*
X126221100Y-90191100D02*
X126118800Y-90191100D01*
X126118800Y-90191100D02*
X124652000Y-88724300D01*
X124652000Y-88724300D02*
X124652000Y-83093500D01*
X124652000Y-83093500D02*
X115022800Y-73464300D01*
X115022800Y-73464300D02*
X115022800Y-66574500D01*
X115022800Y-66574500D02*
X122697600Y-58899700D01*
X122697600Y-58899700D02*
X122697600Y-45378800D01*
X122697600Y-45378800D02*
X123524600Y-44551800D01*
X123524600Y-44551800D02*
X123524600Y-38928400D01*
X123524600Y-38928400D02*
X127240000Y-35213000D01*
X99418200Y-106251800D02*
X99418200Y-110256300D01*
X99418200Y-110256300D02*
X96901000Y-112773500D01*
X115762000Y-95500000D02*
X115762000Y-92569300D01*
X115762000Y-92569300D02*
X114190000Y-90997300D01*
X144320000Y-100380000D02*
X144320000Y-86808500D01*
X144320000Y-86808500D02*
X145589600Y-85538900D01*
X145589600Y-85538900D02*
X145589600Y-74031400D01*
X145589600Y-74031400D02*
X146820000Y-72801000D01*
X146820000Y-72801000D02*
X146820000Y-68760000D01*
X156418600Y-88244200D02*
X156418600Y-87767600D01*
X156418600Y-87767600D02*
X158022000Y-86164200D01*
X158022000Y-86164200D02*
X159436900Y-86164200D01*
X159436900Y-86164200D02*
X161334000Y-84267100D01*
X161334000Y-84267100D02*
X161334000Y-64156300D01*
X161334000Y-64156300D02*
X159503900Y-62326200D01*
X123134100Y-77997100D02*
X123134100Y-64860600D01*
X123134100Y-64860600D02*
X124877300Y-63117400D01*
X124877300Y-63117400D02*
X124877300Y-61569100D01*
X124877300Y-61569100D02*
X124826200Y-61518000D01*
X124826200Y-61518000D02*
X124826200Y-49299900D01*
X124826200Y-49299900D02*
X131411900Y-42714200D01*
X131411900Y-42714200D02*
X133293300Y-42714200D01*
X133293300Y-42714200D02*
X135000000Y-41007500D01*
X135000000Y-41007500D02*
X135000000Y-37000000D01*
X123134100Y-77997100D02*
X127675400Y-82538400D01*
X127675400Y-82538400D02*
X127675400Y-85808100D01*
X127675400Y-85808100D02*
X127252400Y-86231100D01*
X127252400Y-86231100D02*
X127252400Y-89087300D01*
X127252400Y-89087300D02*
X129637400Y-91472300D01*
X129637400Y-91472300D02*
X129637400Y-96774800D01*
X129637400Y-96774800D02*
X131620000Y-98757400D01*
X131620000Y-98757400D02*
X131620000Y-100380000D01*
X131620000Y-100380000D02*
X131620000Y-101365900D01*
X131620000Y-101365900D02*
X135800200Y-105546100D01*
X92540000Y-37000000D02*
X89666700Y-39873300D01*
X89666700Y-39873300D02*
X89666700Y-45319400D01*
X89666700Y-45319400D02*
X89746400Y-45399100D01*
X76620000Y-28460000D02*
X77890000Y-29730000D01*
X77890000Y-29730000D02*
X77890000Y-40698700D01*
X77890000Y-40698700D02*
X86995000Y-49803700D01*
X86995000Y-49803700D02*
X86995000Y-55296200D01*
X86995000Y-55296200D02*
X87772300Y-56073500D01*
X87772300Y-56073500D02*
X91754500Y-56073500D01*
X91754500Y-56073500D02*
X93345000Y-54483000D01*
X150876000Y-38608000D02*
X153416000Y-41148000D01*
X153416000Y-41148000D02*
X153416000Y-43688000D01*
X89320000Y-28460000D02*
X90590000Y-29730000D01*
X90590000Y-29730000D02*
X90590000Y-31477200D01*
X90590000Y-31477200D02*
X88724600Y-33342600D01*
X88724600Y-33342600D02*
X88724600Y-39497100D01*
X88724600Y-39497100D02*
X87139000Y-41082700D01*
X87139000Y-41082700D02*
X87139000Y-44323900D01*
X87139000Y-44323900D02*
X88317000Y-45501900D01*
X88317000Y-45501900D02*
X88317000Y-50772000D01*
X91860000Y-28460000D02*
X90616600Y-27216600D01*
X90616600Y-27216600D02*
X88830200Y-27216600D01*
X88830200Y-27216600D02*
X88094600Y-27952200D01*
X88094600Y-27952200D02*
X88094600Y-28969300D01*
X88094600Y-28969300D02*
X87289300Y-29774600D01*
X87289300Y-29774600D02*
X86190500Y-29774600D01*
X86190500Y-29774600D02*
X85510000Y-30455100D01*
X85510000Y-30455100D02*
X85510000Y-32371300D01*
X85510000Y-32371300D02*
X86888700Y-33750000D01*
X86888700Y-33750000D02*
X86888700Y-40539800D01*
X86888700Y-40539800D02*
X85777000Y-41651500D01*
X85777000Y-41651500D02*
X85777000Y-43152000D01*
X76962000Y-82423000D02*
X76962000Y-62918000D01*
X76962000Y-62918000D02*
X76881500Y-62837500D01*
X107100000Y-28460000D02*
X105830000Y-29730000D01*
X105830000Y-29730000D02*
X105830000Y-31462900D01*
X105830000Y-31462900D02*
X103204600Y-34088300D01*
X103204600Y-34088300D02*
X103204600Y-48946000D01*
X103204600Y-48946000D02*
X106768800Y-52510200D01*
X126216100Y-57485100D02*
X127770000Y-55931200D01*
X127770000Y-55931200D02*
X127770000Y-48922800D01*
X127770000Y-48922800D02*
X128733400Y-47959400D01*
X128733400Y-47959400D02*
X129975600Y-47959400D01*
X129975600Y-47959400D02*
X132950400Y-44984600D01*
X132950400Y-44984600D02*
X145020700Y-44984600D01*
X145020700Y-44984600D02*
X147993300Y-47957200D01*
X147993300Y-47957200D02*
X153456300Y-47957200D01*
X153456300Y-47957200D02*
X154648400Y-46765100D01*
X154648400Y-46765100D02*
X154648400Y-39840400D01*
X154648400Y-39840400D02*
X153416000Y-38608000D01*
X100750000Y-49145700D02*
X100872700Y-49145700D01*
X95885000Y-54483000D02*
X97508600Y-56106600D01*
X97508600Y-56106600D02*
X98906200Y-56106600D01*
X98906200Y-56106600D02*
X99695000Y-55317800D01*
X99695000Y-55317800D02*
X99695000Y-50200700D01*
X99695000Y-50200700D02*
X100750000Y-49145700D01*
X99480000Y-28460000D02*
X100750000Y-29730000D01*
X100750000Y-29730000D02*
X100750000Y-49145700D01*
X85777000Y-50772000D02*
X84537600Y-52011400D01*
X84537600Y-52011400D02*
X84537600Y-57700000D01*
X84537600Y-57700000D02*
X92075000Y-65237400D01*
X92075000Y-65237400D02*
X92075000Y-73291000D01*
X92075000Y-73291000D02*
X96127900Y-77343900D01*
X93397000Y-43152000D02*
X93397000Y-48562700D01*
X130203800Y-45900600D02*
X131682700Y-44421700D01*
X131682700Y-44421700D02*
X146000800Y-44421700D01*
X146000800Y-44421700D02*
X149033600Y-47454500D01*
X149033600Y-47454500D02*
X152189500Y-47454500D01*
X152189500Y-47454500D02*
X153416000Y-46228000D01*
X140564000Y-46332500D02*
X139182400Y-47714100D01*
X139182400Y-47714100D02*
X131494400Y-47714100D01*
X131494400Y-47714100D02*
X130310000Y-48898500D01*
X130310000Y-48898500D02*
X130310000Y-54602200D01*
X130310000Y-54602200D02*
X127446000Y-57466200D01*
X74422000Y-90043000D02*
X75621100Y-88843900D01*
X75621100Y-88843900D02*
X75621100Y-73111500D01*
X66802000Y-90043000D02*
X64610600Y-87851600D01*
X64610600Y-87851600D02*
X64610600Y-42419600D01*
X64610600Y-42419600D02*
X75305400Y-31724800D01*
X75305400Y-31724800D02*
X75305400Y-27982000D01*
X75305400Y-27982000D02*
X76777400Y-26510000D01*
X76777400Y-26510000D02*
X79117700Y-26510000D01*
X119903100Y-79456300D02*
X118302000Y-81057400D01*
X118302000Y-81057400D02*
X118302000Y-87880000D01*
X123382000Y-87880000D02*
X123382000Y-88545000D01*
X123382000Y-88545000D02*
X126177000Y-91340000D01*
X150876000Y-41148000D02*
X149561400Y-39833400D01*
X149561400Y-39833400D02*
X149561400Y-36024200D01*
X149561400Y-36024200D02*
X146035200Y-32498000D01*
X146035200Y-32498000D02*
X145267400Y-32498000D01*
X145267400Y-32498000D02*
X144300400Y-31531000D01*
X144300400Y-31531000D02*
X144300400Y-30483500D01*
X144300400Y-30483500D02*
X143591500Y-29774600D01*
X143591500Y-29774600D02*
X142492700Y-29774600D01*
X142492700Y-29774600D02*
X141731800Y-29013700D01*
X141731800Y-29013700D02*
X141731800Y-27948500D01*
X141731800Y-27948500D02*
X139999200Y-26215900D01*
X139999200Y-26215900D02*
X81404100Y-26215900D01*
X81404100Y-26215900D02*
X79160000Y-28460000D01*
X84240000Y-28460000D02*
X85983800Y-26716200D01*
X85983800Y-26716200D02*
X125211200Y-26716200D01*
X125211200Y-26716200D02*
X126536600Y-28041600D01*
X126536600Y-28041600D02*
X126536600Y-28991400D01*
X126536600Y-28991400D02*
X127275200Y-29730000D01*
X127275200Y-29730000D02*
X140968000Y-29730000D01*
X140968000Y-29730000D02*
X141695100Y-30457100D01*
X141695100Y-30457100D02*
X141695100Y-31654900D01*
X141695100Y-31654900D02*
X141091000Y-32259000D01*
X141091000Y-32259000D02*
X141091000Y-38578600D01*
X141091000Y-38578600D02*
X148740400Y-46228000D01*
X148740400Y-46228000D02*
X150876000Y-46228000D01*
X65786000Y-73580000D02*
X65618900Y-73747100D01*
X65618900Y-73747100D02*
X65618900Y-83719600D01*
X65618900Y-83719600D02*
X68072000Y-86172700D01*
X68072000Y-86172700D02*
X68072000Y-90897500D01*
X68072000Y-90897500D02*
X69918700Y-92744200D01*
X69918700Y-92744200D02*
X71614900Y-92744200D01*
X90284000Y-90096000D02*
X89066700Y-88878700D01*
X89066700Y-88878700D02*
X89066700Y-75066700D01*
X89066700Y-75066700D02*
X87500000Y-73500000D01*
X113665000Y-69723000D02*
X114522500Y-70580500D01*
X114522500Y-70580500D02*
X114522500Y-90222000D01*
X114522500Y-90222000D02*
X117093100Y-92792600D01*
X117093100Y-92792600D02*
X117093100Y-100536600D01*
X117093100Y-100536600D02*
X120648500Y-104092000D01*
X120648500Y-104092000D02*
X120648500Y-112827300D01*
X120648500Y-112827300D02*
X121255600Y-113434400D01*
X121255600Y-113434400D02*
X122607900Y-113434400D01*
X122607900Y-113434400D02*
X124558700Y-111483600D01*
X124558700Y-111483600D02*
X125852200Y-111483600D01*
X125852200Y-111483600D02*
X129735200Y-115366600D01*
X148177400Y-49760000D02*
X148177400Y-49020900D01*
X148177400Y-49020900D02*
X144658900Y-45502400D01*
X144658900Y-45502400D02*
X133883100Y-45502400D01*
X133883100Y-45502400D02*
X133585800Y-45799700D01*
X95298000Y-121960000D02*
X95619800Y-121638200D01*
X95619800Y-121638200D02*
X95619800Y-117082800D01*
X95619800Y-117082800D02*
X80899000Y-102362000D01*
X69342000Y-82423000D02*
X70706700Y-83787700D01*
X70706700Y-83787700D02*
X70706700Y-90929800D01*
X70706700Y-90929800D02*
X71568700Y-91791800D01*
X71568700Y-91791800D02*
X72449900Y-91791800D01*
X72449900Y-91791800D02*
X74549000Y-93890900D01*
X74549000Y-93890900D02*
X74549000Y-96012000D01*
X74549000Y-96012000D02*
X80899000Y-102362000D01*
X111125000Y-69723000D02*
X111125000Y-63877100D01*
X111125000Y-63877100D02*
X120795400Y-54206700D01*
X120795400Y-54206700D02*
X120795400Y-36577600D01*
X120795400Y-36577600D02*
X122160000Y-35213000D01*
X148177400Y-49760000D02*
X148177400Y-66251900D01*
X148177400Y-66251900D02*
X149360000Y-67434500D01*
X149360000Y-67434500D02*
X149360000Y-68760000D01*
X148177400Y-49760000D02*
X149360000Y-49760000D01*
X97904000Y-82476000D02*
X97904000Y-73292500D01*
X151886900Y-92404900D02*
X151886900Y-86983200D01*
X151886900Y-86983200D02*
X150630000Y-85726300D01*
X150630000Y-85726300D02*
X150630000Y-75000400D01*
X150630000Y-75000400D02*
X149893600Y-74264000D01*
X156258000Y-121960000D02*
X156257900Y-121960000D01*
X156257900Y-121960000D02*
X156257900Y-111048500D01*
X156257900Y-111048500D02*
X153610800Y-108401400D01*
X153610800Y-108401400D02*
X153610800Y-104012000D01*
X153610800Y-104012000D02*
X154440300Y-103182500D01*
X154440300Y-103182500D02*
X154440300Y-94617500D01*
X154440300Y-94617500D02*
X152227700Y-92404900D01*
X152227700Y-92404900D02*
X151886900Y-92404900D01*
X144280000Y-49760000D02*
X145455400Y-50935400D01*
X145455400Y-50935400D02*
X145455400Y-67584600D01*
X145455400Y-67584600D02*
X144280000Y-68760000D01*
X139200000Y-68760000D02*
X142912900Y-72472900D01*
X142912900Y-72472900D02*
X142912900Y-77164800D01*
X142912900Y-77164800D02*
X142920600Y-77172500D01*
X142920600Y-77172500D02*
X142920600Y-85667900D01*
X142920600Y-85667900D02*
X141715400Y-86873100D01*
X141715400Y-86873100D02*
X141715400Y-94324600D01*
X141715400Y-94324600D02*
X140540000Y-95500000D01*
X151914900Y-106107600D02*
X150764700Y-104957400D01*
X150764700Y-104957400D02*
X150764700Y-97502900D01*
X139200000Y-68760000D02*
X140390600Y-67569400D01*
X140390600Y-67569400D02*
X140390600Y-50950600D01*
X140390600Y-50950600D02*
X139200000Y-49760000D01*
X149360000Y-84000000D02*
X148809600Y-83449600D01*
X148809600Y-83449600D02*
X148809600Y-71023100D01*
X150700000Y-87880000D02*
X150700000Y-87012100D01*
X150700000Y-87012100D02*
X149360000Y-85672100D01*
X149360000Y-85672100D02*
X149360000Y-84000000D01*
X114581500Y-116679900D02*
X112296700Y-114395100D01*
X112296700Y-114395100D02*
X112296700Y-110379000D01*
X112296700Y-110379000D02*
X112183800Y-110266100D01*
X112183800Y-110266100D02*
X112183800Y-80968800D01*
X125579400Y-98518800D02*
X128484800Y-98518800D01*
X128484800Y-98518800D02*
X128643000Y-98360600D01*
X125579400Y-98518800D02*
X124652000Y-97591400D01*
X124652000Y-97591400D02*
X124652000Y-91986700D01*
X124652000Y-91986700D02*
X122191300Y-89526000D01*
X122191300Y-89526000D02*
X122191300Y-82393100D01*
X121464700Y-110520200D02*
X121304500Y-110360000D01*
X121304500Y-110360000D02*
X121304500Y-106712700D01*
X121304500Y-106712700D02*
X125293400Y-102723800D01*
X125293400Y-102723800D02*
X125293400Y-98804800D01*
X125293400Y-98804800D02*
X125579400Y-98518800D01*
X129040000Y-84000000D02*
X129040000Y-76301500D01*
X129040000Y-76301500D02*
X127849400Y-75110900D01*
X127849400Y-75110900D02*
X127849400Y-66190600D01*
X127849400Y-66190600D02*
X129040000Y-65000000D01*
X131580000Y-84000000D02*
X132896400Y-85316400D01*
X132896400Y-85316400D02*
X132896400Y-88008400D01*
X132896400Y-88008400D02*
X133938800Y-89050800D01*
X133938800Y-89050800D02*
X133938800Y-95386800D01*
X137511700Y-113533900D02*
X137885800Y-113159800D01*
X137885800Y-113159800D02*
X137885800Y-105926200D01*
X137885800Y-105926200D02*
X136464100Y-104504500D01*
X136464100Y-104504500D02*
X136206000Y-104504500D01*
X136206000Y-104504500D02*
X132984600Y-101283100D01*
X132984600Y-101283100D02*
X132984600Y-98017400D01*
X132984600Y-98017400D02*
X131983100Y-97015900D01*
X131580000Y-65000000D02*
X130404600Y-66175400D01*
X130404600Y-66175400D02*
X130404600Y-69882300D01*
X130404600Y-69882300D02*
X131580000Y-71057700D01*
X131580000Y-71057700D02*
X131580000Y-84000000D01*
X148638000Y-121960000D02*
X148130000Y-121452000D01*
X148130000Y-121452000D02*
X148130000Y-105544700D01*
X148130000Y-105544700D02*
X145620000Y-103034700D01*
X145620000Y-103034700D02*
X145620000Y-95500000D01*
X137450500Y-82201400D02*
X134120000Y-78870900D01*
X134120000Y-78870900D02*
X134120000Y-68760000D01*
X134120000Y-68760000D02*
X132929400Y-67569400D01*
X132929400Y-67569400D02*
X132929400Y-50950600D01*
X132929400Y-50950600D02*
X134120000Y-49760000D01*
X153718000Y-121960000D02*
X153718000Y-112558000D01*
X153718000Y-112558000D02*
X150594500Y-109434500D01*
X150594500Y-109434500D02*
X150594500Y-106800800D01*
X150594500Y-106800800D02*
X148203200Y-104409500D01*
X148203200Y-104409500D02*
X148203200Y-98237600D01*
X148203200Y-98237600D02*
X146890000Y-96924400D01*
X146890000Y-96924400D02*
X146890000Y-89150000D01*
X146890000Y-89150000D02*
X145620000Y-87880000D01*
X140540000Y-87880000D02*
X140540000Y-75089900D01*
X140540000Y-75089900D02*
X136840000Y-71389900D01*
X136840000Y-71389900D02*
X136840000Y-68940000D01*
X136840000Y-68940000D02*
X136660000Y-68760000D01*
X157292700Y-119054300D02*
X157292700Y-110875300D01*
X157292700Y-110875300D02*
X154124700Y-107707300D01*
X154124700Y-107707300D02*
X154124700Y-104291300D01*
X154124700Y-104291300D02*
X154945400Y-103470600D01*
X154945400Y-103470600D02*
X154945400Y-93094900D01*
X154945400Y-93094900D02*
X152662800Y-90812300D01*
X136660000Y-68760000D02*
X137850600Y-67569400D01*
X137850600Y-67569400D02*
X137850600Y-50950600D01*
X137850600Y-50950600D02*
X136660000Y-49760000D01*
X96847500Y-100246600D02*
X98679000Y-102078100D01*
X98679000Y-102078100D02*
X98679000Y-102362000D01*
X102918000Y-121960000D02*
X92379000Y-111421000D01*
X92379000Y-111421000D02*
X92379000Y-101511100D01*
X92379000Y-101511100D02*
X93643500Y-100246600D01*
X93643500Y-100246600D02*
X96847500Y-100246600D01*
X97904000Y-90096000D02*
X99916300Y-92108300D01*
X99916300Y-92108300D02*
X99916300Y-97177800D01*
X99916300Y-97177800D02*
X96847500Y-100246600D01*
X93345000Y-69723000D02*
X96903200Y-73281200D01*
X96903200Y-73281200D02*
X96903200Y-77665100D01*
X96903200Y-77665100D02*
X96701200Y-77867100D01*
X96701200Y-77867100D02*
X96701200Y-88893200D01*
X96701200Y-88893200D02*
X97904000Y-90096000D01*
X101928400Y-41257600D02*
X102148400Y-41477600D01*
X102148400Y-41477600D02*
X102148400Y-60919600D01*
X102148400Y-60919600D02*
X93345000Y-69723000D01*
X151900000Y-84000000D02*
X151900000Y-74083500D01*
X151900000Y-74083500D02*
X151806300Y-73989800D01*
X105458000Y-121960000D02*
X105458000Y-119561900D01*
X105458000Y-119561900D02*
X100193500Y-114297400D01*
X100193500Y-114297400D02*
X100193500Y-105928500D01*
X100193500Y-105928500D02*
X99515400Y-105250400D01*
X99515400Y-105250400D02*
X98752100Y-105250400D01*
X98752100Y-105250400D02*
X96139000Y-102637300D01*
X96139000Y-102637300D02*
X96139000Y-102362000D01*
X154440000Y-65000000D02*
X154440000Y-62302400D01*
X154440000Y-62302400D02*
X154253300Y-62115700D01*
X95885000Y-69723000D02*
X95885000Y-67937500D01*
X95885000Y-67937500D02*
X107385400Y-56437100D01*
X107385400Y-56437100D02*
X107385400Y-53087700D01*
X107385400Y-53087700D02*
X108095400Y-52377700D01*
X108095400Y-52377700D02*
X108095400Y-44197600D01*
X108095400Y-44197600D02*
X109460000Y-42833000D01*
X100444000Y-90096000D02*
X99268700Y-88920700D01*
X99268700Y-88920700D02*
X99268700Y-73560700D01*
X99268700Y-73560700D02*
X95885000Y-70177000D01*
X95885000Y-70177000D02*
X95885000Y-69723000D01*
X154440000Y-84000000D02*
X153254900Y-82814900D01*
X153254900Y-82814900D02*
X153254900Y-66185100D01*
X153254900Y-66185100D02*
X154440000Y-65000000D01*
X107998000Y-121960000D02*
X107998000Y-121056400D01*
X107998000Y-121056400D02*
X100784500Y-113842900D01*
X100784500Y-113842900D02*
X100784500Y-105714600D01*
X100784500Y-105714600D02*
X99430100Y-104360200D01*
X99430100Y-104360200D02*
X98583100Y-104360200D01*
X98583100Y-104360200D02*
X97409000Y-103186100D01*
X97409000Y-103186100D02*
X97409000Y-101530700D01*
X97409000Y-101530700D02*
X96638800Y-100760500D01*
X96638800Y-100760500D02*
X95200500Y-100760500D01*
X95200500Y-100760500D02*
X93599000Y-102362000D01*
X98425000Y-69723000D02*
X109855000Y-58293000D01*
X109855000Y-58293000D02*
X109855000Y-44978000D01*
X109855000Y-44978000D02*
X112000000Y-42833000D01*
X156980000Y-84000000D02*
X158170600Y-82809400D01*
X158170600Y-82809400D02*
X158170600Y-66190600D01*
X158170600Y-66190600D02*
X156980000Y-65000000D01*
X109626400Y-107467000D02*
X109984000Y-107109400D01*
X109984000Y-107109400D02*
X109984000Y-89123900D01*
X109984000Y-89123900D02*
X104254000Y-83393900D01*
X104254000Y-83393900D02*
X104254000Y-81437800D01*
X104254000Y-81437800D02*
X102329600Y-79513400D01*
X102329600Y-79513400D02*
X102329600Y-71087600D01*
X102329600Y-71087600D02*
X100965000Y-69723000D01*
X115618000Y-121960000D02*
X115618000Y-121060900D01*
X115618000Y-121060900D02*
X110125500Y-115568400D01*
X110125500Y-115568400D02*
X110125500Y-110201700D01*
X110125500Y-110201700D02*
X109626400Y-109702600D01*
X109626400Y-109702600D02*
X109626400Y-107467000D01*
X112000000Y-35213000D02*
X113182400Y-36395400D01*
X113182400Y-36395400D02*
X113182400Y-44152100D01*
X113182400Y-44152100D02*
X112305800Y-45028700D01*
X112305800Y-45028700D02*
X112305800Y-58382200D01*
X112305800Y-58382200D02*
X100965000Y-69723000D01*
X110625900Y-108154600D02*
X110625900Y-87100000D01*
X110625900Y-87100000D02*
X106888700Y-83362800D01*
X106888700Y-83362800D02*
X106888700Y-80728600D01*
X106888700Y-80728600D02*
X106273600Y-80113500D01*
X106273600Y-80113500D02*
X106273600Y-72491600D01*
X106273600Y-72491600D02*
X103505000Y-69723000D01*
X118158000Y-121960000D02*
X118158000Y-120984600D01*
X118158000Y-120984600D02*
X115686300Y-118512900D01*
X115686300Y-118512900D02*
X115287600Y-118512900D01*
X115287600Y-118512900D02*
X110625900Y-113851200D01*
X110625900Y-113851200D02*
X110625900Y-108154600D01*
X103505000Y-69723000D02*
X103505000Y-68537300D01*
X103505000Y-68537300D02*
X114935000Y-57107300D01*
X114935000Y-57107300D02*
X114935000Y-49384400D01*
X114935000Y-49384400D02*
X118350000Y-45969400D01*
X118350000Y-45969400D02*
X118350000Y-38315300D01*
X118350000Y-38315300D02*
X119620000Y-37045300D01*
X119620000Y-37045300D02*
X119620000Y-35213000D01*
X111430000Y-110608900D02*
X111430000Y-83062600D01*
X111430000Y-83062600D02*
X106773900Y-78406500D01*
X106773900Y-78406500D02*
X106773900Y-70451900D01*
X106773900Y-70451900D02*
X106045000Y-69723000D01*
X119620000Y-42833000D02*
X119620000Y-53590000D01*
X119620000Y-53590000D02*
X106045000Y-67165000D01*
X106045000Y-67165000D02*
X106045000Y-69723000D01*
X113078000Y-121960000D02*
X113078000Y-120889900D01*
X113078000Y-120889900D02*
X109145900Y-116957800D01*
X109145900Y-116957800D02*
X109145900Y-110702100D01*
X154440000Y-49760000D02*
X155630600Y-50950600D01*
X155630600Y-50950600D02*
X155630600Y-67569400D01*
X155630600Y-67569400D02*
X154440000Y-68760000D01*
X87791100Y-81384900D02*
X87791100Y-94014100D01*
X87791100Y-94014100D02*
X88519000Y-94742000D01*
X141740000Y-49760000D02*
X142928200Y-50948200D01*
X142928200Y-50948200D02*
X142928200Y-67571800D01*
X142928200Y-67571800D02*
X141740000Y-68760000D01*
X143688200Y-76716400D02*
X143688200Y-70708200D01*
X143688200Y-70708200D02*
X141740000Y-68760000D01*
X136700000Y-108000000D02*
X136700000Y-114248600D01*
X136700000Y-114248600D02*
X133398000Y-117550600D01*
X133398000Y-117550600D02*
X133398000Y-121960000D01*
X151900000Y-49760000D02*
X150709400Y-50950600D01*
X150709400Y-50950600D02*
X150709400Y-67569400D01*
X150709400Y-67569400D02*
X151900000Y-68760000D01*
X110538000Y-121960000D02*
X110538000Y-121011300D01*
X110538000Y-121011300D02*
X104872800Y-115346100D01*
X104872800Y-115346100D02*
X103365100Y-115346100D01*
X103365100Y-115346100D02*
X101592300Y-113573300D01*
X101592300Y-113573300D02*
X101592300Y-110725700D01*
X100444000Y-82476000D02*
X100444000Y-82705700D01*
X100444000Y-82705700D02*
X101714000Y-83975700D01*
X101714000Y-83975700D02*
X101714000Y-92053400D01*
X101714000Y-92053400D02*
X102394400Y-92733800D01*
X102394400Y-92733800D02*
X102394400Y-97987800D01*
X102394400Y-97987800D02*
X100034900Y-100347300D01*
X100034900Y-100347300D02*
X100034900Y-103632000D01*
X100034900Y-103632000D02*
X101592300Y-105189400D01*
X101592300Y-105189400D02*
X101592300Y-110725700D01*
X110165200Y-71303200D02*
X111643200Y-71303200D01*
X111643200Y-71303200D02*
X112394500Y-70551900D01*
X112394500Y-70551900D02*
X112394500Y-63899100D01*
X112394500Y-63899100D02*
X122160000Y-54133600D01*
X122160000Y-54133600D02*
X122160000Y-42833000D01*
X110165200Y-71303200D02*
X108585000Y-69723000D01*
X108160600Y-78628700D02*
X108160600Y-73307800D01*
X108160600Y-73307800D02*
X110165200Y-71303200D01*
X120924900Y-116977700D02*
X120924900Y-114897200D01*
X120924900Y-114897200D02*
X119208600Y-113180900D01*
X119208600Y-113180900D02*
X119208600Y-109659200D01*
X119208600Y-109659200D02*
X118481700Y-108932300D01*
X90217600Y-105541100D02*
X89856600Y-105180100D01*
X89856600Y-105180100D02*
X89856600Y-97699100D01*
X141740000Y-84000000D02*
X141740000Y-74774400D01*
X141740000Y-74774400D02*
X140883200Y-73917600D01*
X93599000Y-94742000D02*
X93599000Y-93941300D01*
X93599000Y-93941300D02*
X91554000Y-91896300D01*
X91554000Y-91896300D02*
X91554000Y-75608800D01*
X91554000Y-75608800D02*
X88265000Y-72319800D01*
X88265000Y-72319800D02*
X88265000Y-69723000D01*
X90805000Y-69723000D02*
X90805000Y-73190100D01*
X90805000Y-73190100D02*
X93999400Y-76384500D01*
X93999400Y-76384500D02*
X93999400Y-92602400D01*
X93999400Y-92602400D02*
X96139000Y-94742000D01*
X136064700Y-71214500D02*
X136064700Y-75470800D01*
X136064700Y-75470800D02*
X139200000Y-78606100D01*
X139200000Y-78606100D02*
X139200000Y-84000000D01*
X146860000Y-108000000D02*
X143050000Y-104190000D01*
X143050000Y-104190000D02*
X143050000Y-99577500D01*
X143050000Y-99577500D02*
X140592500Y-97120000D01*
X140592500Y-97120000D02*
X140080700Y-97120000D01*
X140080700Y-97120000D02*
X139200000Y-96239300D01*
X139200000Y-96239300D02*
X139200000Y-84000000D01*
X129040000Y-68760000D02*
X129040000Y-75593800D01*
X129040000Y-75593800D02*
X130310000Y-76863800D01*
X130310000Y-76863800D02*
X130310000Y-85084300D01*
X130310000Y-85084300D02*
X132396100Y-87170400D01*
X132396100Y-87170400D02*
X132396100Y-89836400D01*
X132396100Y-89836400D02*
X133083400Y-90523700D01*
X133083400Y-90523700D02*
X133083400Y-96312100D01*
X133083400Y-96312100D02*
X135430000Y-98658700D01*
X135430000Y-98658700D02*
X135430000Y-102346800D01*
X135430000Y-102346800D02*
X139240000Y-106156800D01*
X139240000Y-106156800D02*
X139240000Y-108000000D01*
X98679000Y-94742000D02*
X97093500Y-96327500D01*
X97093500Y-96327500D02*
X93105600Y-96327500D01*
X93105600Y-96327500D02*
X92329000Y-95550900D01*
X92329000Y-95550900D02*
X92329000Y-93886500D01*
X92329000Y-93886500D02*
X90684500Y-92242000D01*
X90684500Y-92242000D02*
X89896500Y-92242000D01*
X89896500Y-92242000D02*
X88566400Y-90911900D01*
X88566400Y-90911900D02*
X88566400Y-81060800D01*
X88566400Y-81060800D02*
X85725000Y-78219400D01*
X85725000Y-78219400D02*
X85725000Y-69723000D01*
X135938000Y-121960000D02*
X135938000Y-116336700D01*
X135938000Y-116336700D02*
X139240000Y-113034700D01*
X139240000Y-113034700D02*
X139240000Y-108000000D01*
X90218000Y-121960000D02*
X90218000Y-121012700D01*
X90218000Y-121012700D02*
X92970500Y-118260200D01*
X92970500Y-118260200D02*
X94832300Y-118260200D01*
X92758000Y-121960000D02*
X93856800Y-120861200D01*
X93856800Y-120861200D02*
X93856800Y-119179500D01*
X88515000Y-100299500D02*
X88515000Y-97286000D01*
X88515000Y-97286000D02*
X91059000Y-94742000D01*
X130858000Y-121960000D02*
X130858000Y-117276900D01*
X130858000Y-117276900D02*
X134160000Y-113974900D01*
X134160000Y-113974900D02*
X134160000Y-108000000D01*
X128318000Y-121960000D02*
X128318000Y-117954700D01*
X128318000Y-117954700D02*
X130671900Y-115600800D01*
X130671900Y-115600800D02*
X130671900Y-108948100D01*
X130671900Y-108948100D02*
X131620000Y-108000000D01*
X136776200Y-84000000D02*
X136660000Y-84000000D01*
X136660000Y-65000000D02*
X135469400Y-66190600D01*
X135469400Y-66190600D02*
X135469400Y-70713400D01*
X135469400Y-70713400D02*
X135289400Y-70893400D01*
X135289400Y-70893400D02*
X135289400Y-77382900D01*
X135289400Y-77382900D02*
X138239300Y-80332800D01*
X138239300Y-80332800D02*
X138239300Y-82536900D01*
X138239300Y-82536900D02*
X136776200Y-84000000D01*
X144320000Y-108000000D02*
X140510000Y-104190000D01*
X140510000Y-104190000D02*
X140510000Y-99561200D01*
X140510000Y-99561200D02*
X138488600Y-97539800D01*
X138488600Y-97539800D02*
X137448500Y-97539800D01*
X137448500Y-97539800D02*
X136776200Y-96867500D01*
X136776200Y-96867500D02*
X136776200Y-84000000D01*
X141780000Y-108000000D02*
X141780000Y-107432100D01*
X141780000Y-107432100D02*
X137970000Y-103622100D01*
X137970000Y-103622100D02*
X137970000Y-98795900D01*
X137970000Y-98795900D02*
X135625600Y-96451500D01*
X135625600Y-96451500D02*
X135625600Y-85505600D01*
X135625600Y-85505600D02*
X134120000Y-84000000D01*
X134120000Y-84000000D02*
X132850000Y-82730000D01*
X132850000Y-82730000D02*
X132850000Y-69948300D01*
X144280000Y-84000000D02*
X144998600Y-83281400D01*
X144998600Y-83281400D02*
X144998600Y-70630900D01*
X149400000Y-100380000D02*
X149400000Y-91076300D01*
X149400000Y-91076300D02*
X148207300Y-89883600D01*
X146820000Y-65000000D02*
X146820000Y-65852400D01*
X146820000Y-65852400D02*
X148000500Y-67032900D01*
X148000500Y-67032900D02*
X148000500Y-82819500D01*
X148000500Y-82819500D02*
X146820000Y-84000000D01*
X146820000Y-84000000D02*
X149524600Y-86704600D01*
X149524600Y-86704600D02*
X149524600Y-90291300D01*
X149524600Y-90291300D02*
X150361900Y-91128600D01*
X150361900Y-91128600D02*
X150361900Y-93024000D01*
X150361900Y-93024000D02*
X151940000Y-94602100D01*
X151940000Y-94602100D02*
X151940000Y-100380000D01*
X112959100Y-81772000D02*
X112899000Y-81832100D01*
X112899000Y-81832100D02*
X112899000Y-113469200D01*
X112899000Y-113469200D02*
X115441400Y-116011600D01*
X115441400Y-116011600D02*
X115441400Y-117513300D01*
X157607000Y-34417000D02*
X159482400Y-32541600D01*
X159482400Y-32541600D02*
X159482400Y-30841600D01*
X159482400Y-30841600D02*
X160907000Y-29417000D01*
X96940000Y-28460000D02*
X95714600Y-29685400D01*
X95714600Y-29685400D02*
X95714600Y-36192900D01*
X95714600Y-36192900D02*
X94761600Y-37145900D01*
X94761600Y-37145900D02*
X94761600Y-49407400D01*
X94761600Y-49407400D02*
X93397000Y-50772000D01*
X95937000Y-43152000D02*
X98209900Y-40879100D01*
X98209900Y-40879100D02*
X98209900Y-29346900D01*
X90805000Y-54483000D02*
X89663100Y-53341100D01*
X89663100Y-53341100D02*
X89663100Y-47386500D01*
X89663100Y-47386500D02*
X92218700Y-44830900D01*
X92218700Y-44830900D02*
X92218700Y-40199800D01*
X92218700Y-40199800D02*
X93821700Y-38596800D01*
X93821700Y-38596800D02*
X93821700Y-34227600D01*
X93821700Y-34227600D02*
X93165600Y-33571500D01*
X93165600Y-33571500D02*
X93165600Y-27912000D01*
X93165600Y-27912000D02*
X93852900Y-27224700D01*
X93852900Y-27224700D02*
X100784700Y-27224700D01*
X100784700Y-27224700D02*
X102020000Y-28460000D01*
X104560000Y-28460000D02*
X103334600Y-29685400D01*
X103334600Y-29685400D02*
X103334600Y-31595000D01*
X103334600Y-31595000D02*
X102704200Y-32225400D01*
X102704200Y-32225400D02*
X102704200Y-51142200D01*
X102704200Y-51142200D02*
X106045000Y-54483000D01*
X94615000Y-55317700D02*
X99271688Y-59974388D01*
X93711100Y-52722100D02*
X94615000Y-53626000D01*
X99271688Y-59974388D02*
X101197799Y-59974388D01*
X90857000Y-50772000D02*
X92807100Y-52722100D01*
X94615000Y-53626000D02*
X94615000Y-55317700D01*
X92807100Y-52722100D02*
X93711100Y-52722100D01*
X98477000Y-43152000D02*
X97283100Y-44345900D01*
X97283100Y-44345900D02*
X97283100Y-53341100D01*
X97283100Y-53341100D02*
X98425000Y-54483000D01*
X122682000Y-31000000D02*
X112716500Y-31000000D01*
X112716500Y-31000000D02*
X111574300Y-32142200D01*
X117853200Y-70317800D02*
X117853200Y-69335200D01*
X117853200Y-69335200D02*
X124377000Y-62811400D01*
X124377000Y-62811400D02*
X124377000Y-61776400D01*
X124377000Y-61776400D02*
X124325900Y-61725300D01*
X124325900Y-61725300D02*
X124325900Y-49092500D01*
X124325900Y-49092500D02*
X131721000Y-41697400D01*
X131721000Y-41697400D02*
X133173300Y-41697400D01*
X140462000Y-31000000D02*
X135762200Y-35699800D01*
X135762200Y-35699800D02*
X131833200Y-35699800D01*
X131833200Y-35699800D02*
X124700000Y-42833000D01*
X137922000Y-31000000D02*
X135673000Y-33249000D01*
X135673000Y-33249000D02*
X119517600Y-33249000D01*
X119517600Y-33249000D02*
X118423200Y-34343400D01*
X118423200Y-34343400D02*
X118423200Y-36872700D01*
X118423200Y-36872700D02*
X117080000Y-38215900D01*
X117080000Y-38215900D02*
X117080000Y-42833000D01*
X130302000Y-31000000D02*
X128556500Y-32745500D01*
X128556500Y-32745500D02*
X117437200Y-32745500D01*
X117437200Y-32745500D02*
X115810000Y-34372700D01*
X115810000Y-34372700D02*
X115810000Y-41563000D01*
X115810000Y-41563000D02*
X114540000Y-42833000D01*
X127762000Y-31000000D02*
X126536700Y-32225300D01*
X126536700Y-32225300D02*
X112925400Y-32225300D01*
X112925400Y-32225300D02*
X110730000Y-34420700D01*
X110730000Y-34420700D02*
X110730000Y-39023000D01*
X110730000Y-39023000D02*
X106920000Y-42833000D01*
X125222000Y-31000000D02*
X123996600Y-29774600D01*
X123996600Y-29774600D02*
X112736500Y-29774600D01*
X112736500Y-29774600D02*
X107298100Y-35213000D01*
X107298100Y-35213000D02*
X106920000Y-35213000D01*
X80899000Y-94742000D02*
X78300600Y-92143600D01*
X78300600Y-92143600D02*
X78300600Y-56360600D01*
X78300600Y-56360600D02*
X74250000Y-52310000D01*
X74250000Y-49540000D02*
X81509300Y-56799300D01*
X81509300Y-56799300D02*
X81509300Y-71993200D01*
X81509300Y-71993200D02*
X83439000Y-73922900D01*
X83439000Y-73922900D02*
X83439000Y-94742000D01*
X74250000Y-46770000D02*
X82009700Y-54529700D01*
X82009700Y-54529700D02*
X82009700Y-71714900D01*
X82009700Y-71714900D02*
X84636400Y-74341600D01*
X84636400Y-74341600D02*
X84636400Y-95643300D01*
X84636400Y-95643300D02*
X83422000Y-96857700D01*
X83422000Y-96857700D02*
X77934700Y-96857700D01*
X77934700Y-96857700D02*
X75819000Y-94742000D01*
X74250000Y-44000000D02*
X73074600Y-45175400D01*
X73074600Y-45175400D02*
X73074600Y-50031600D01*
X73074600Y-50031600D02*
X73968000Y-50925000D01*
X73968000Y-50925000D02*
X74572700Y-50925000D01*
X74572700Y-50925000D02*
X79624500Y-55976800D01*
X79624500Y-55976800D02*
X79624500Y-80238100D01*
X79624500Y-80238100D02*
X80866600Y-81480200D01*
X80866600Y-81480200D02*
X80866600Y-92121500D01*
X80866600Y-92121500D02*
X82074400Y-93329300D01*
X82074400Y-93329300D02*
X82074400Y-95631500D01*
X82074400Y-95631500D02*
X81361900Y-96344000D01*
X81361900Y-96344000D02*
X79961000Y-96344000D01*
X79961000Y-96344000D02*
X78359000Y-94742000D01*
X120149600Y-115784900D02*
X118164000Y-113799300D01*
X118164000Y-113799300D02*
X118164000Y-112459000D01*
X125164000Y-112459000D02*
X125673600Y-112968600D01*
X125673600Y-112968600D02*
X125673600Y-118750200D01*
X132164000Y-112459000D02*
X132164000Y-110387700D01*
X97838000Y-121960000D02*
X99796100Y-120001900D01*
D32*
X126500000Y-68760000D02*
X125274600Y-67534600D01*
X125274600Y-67534600D02*
X125274600Y-63498500D01*
X125274600Y-63498500D02*
X125427600Y-63345500D01*
X125427600Y-63345500D02*
X125427600Y-61341100D01*
X125427600Y-61341100D02*
X125390800Y-61304300D01*
X125390800Y-61304300D02*
X125390800Y-50869200D01*
X125390800Y-50869200D02*
X126500000Y-49760000D01*
X133957800Y-43646400D02*
X131290900Y-43646400D01*
X131290900Y-43646400D02*
X126500000Y-48437300D01*
X126500000Y-48437300D02*
X126500000Y-49760000D01*
X103804800Y-112646500D02*
X103804800Y-113744600D01*
X103804800Y-113744600D02*
X103332600Y-114216800D01*
X103804800Y-112646500D02*
X106045000Y-112646500D01*
X101219000Y-102362000D02*
X103804800Y-104947800D01*
X103804800Y-104947800D02*
X103804800Y-112646500D01*
X98477000Y-50772000D02*
X98477000Y-50374200D01*
X98477000Y-50374200D02*
X99950800Y-48900400D01*
X99950800Y-48900400D02*
X99950800Y-39334700D01*
X71882000Y-90043000D02*
X73133100Y-88791900D01*
X73133100Y-88791900D02*
X73133100Y-78510100D01*
X73133100Y-78510100D02*
X71507300Y-76884300D01*
X71507300Y-76884300D02*
X71507300Y-56089800D01*
X71507300Y-56089800D02*
X72691800Y-54905300D01*
X72691800Y-54905300D02*
X72691800Y-50473800D01*
X72691800Y-50473800D02*
X71410000Y-49192000D01*
X71410000Y-49192000D02*
X71410000Y-48155000D01*
X124000000Y-100380000D02*
X123589000Y-100380000D01*
X123589000Y-100380000D02*
X119572000Y-96363000D01*
X119572000Y-96363000D02*
X119572000Y-91690000D01*
X119572000Y-91690000D02*
X115762000Y-87880000D01*
X82042000Y-82423000D02*
X82042000Y-90043000D01*
D33*
X117849800Y-107825500D02*
X114864000Y-110811300D01*
X114864000Y-110811300D02*
X114864000Y-112459000D01*
X127875900Y-110950400D02*
X127875900Y-111470900D01*
X127875900Y-111470900D02*
X128864000Y-112459000D01*
X136847400Y-106051200D02*
X136567500Y-106331100D01*
X136567500Y-106331100D02*
X128679600Y-106331100D01*
X128679600Y-106331100D02*
X127875900Y-107134800D01*
X127875900Y-107134800D02*
X127875900Y-110950400D01*
X121864000Y-112459000D02*
X123372600Y-110950400D01*
X123372600Y-110950400D02*
X127875900Y-110950400D01*
X96901000Y-107698500D02*
X97824500Y-106775000D01*
X97824500Y-106775000D02*
X98360800Y-106775000D01*
X108585000Y-54483000D02*
X108585000Y-56676800D01*
X108585000Y-56676800D02*
X97242700Y-68019100D01*
X97242700Y-68019100D02*
X97242700Y-70827000D01*
X97242700Y-70827000D02*
X101808700Y-75393000D01*
X101808700Y-75393000D02*
X101808700Y-83362800D01*
X101808700Y-83362800D02*
X104261100Y-85815200D01*
X104261100Y-85815200D02*
X105501300Y-85815200D01*
X120842000Y-95500000D02*
X120842000Y-90704300D01*
X120842000Y-90704300D02*
X119572000Y-89434300D01*
M02*
