M48
METRIC,TZ
T1C0.400
T2C0.500
T3C0.800
T4C0.900
T5C1.000
T6C1.016
T7C1.100
T8C1.500
T9C3.200
T10C3.500
%
G90
G05
T1
X74065Y-57532
X75699Y-66036
X80823Y-102759
X83312Y-112268
X84578Y-99620
X88306Y-56056
X89637Y-59178
X89662Y-107442
X90607Y-71956
X90608Y-118748
X91285Y-111320
X91399Y-109390
X91874Y-100910
X94271Y-63575
X94742Y-105891
X95769Y-41878
X96266Y-57658
X98492Y-104979
X98604Y-110813
X98752Y-112077
X98857Y-99174
X98957Y-48335
X99325Y-92823
X99348Y-107639
X99506Y-105755
X99580Y-117868
X99887Y-110015
X100819Y-82052
X103632Y-57658
X103901Y-115183
X105072Y-93888
X105094Y-79026
X105168Y-91771
X107864Y-107857
X107998Y-113817
X108250Y-99131
X110137Y-56281
X110580Y-95756
X111221Y-116865
X112126Y-73836
X112649Y-93688
X112838Y-35217
X113656Y-110370
X113689Y-42445
X115376Y-86281
X115567Y-107061
X116263Y-111273
X116369Y-101529
X117151Y-112063
X117833Y-42076
X118050Y-114407
X118206Y-115660
X119260Y-33270
X120839Y-31215
X121487Y-65123
X123666Y-75464
X124973Y-48119
X125850Y-61053
X126113Y-115345
X127921Y-114336
X128156Y-105691
X131295Y-97934
X131925Y-90081
X132549Y-111295
X132906Y-70371
X133371Y-97806
X133766Y-77612
X135342Y-75941
X135344Y-104190
X137214Y-117153
X137386Y-105546
X137736Y-74236
X138869Y-79847
X139080Y-105485
X139954Y-92594
X140131Y-82731
X140174Y-76077
X140547Y-80430
X140823Y-70813
X142508Y-79218
X142727Y-112745
X142989Y-52301
X143669Y-94183
X144802Y-105532
X145248Y-77728
X145444Y-70882
X147826Y-59472
X148825Y-73528
X148914Y-91717
X149132Y-89631
X150843Y-70899
X151304Y-103984
X151480Y-89815
X152214Y-63066
X152595Y-92594
X153022Y-93896
X153134Y-82204
X156527Y-87682
X157195Y-100840
X157293Y-118020
T2
X155375Y-112500
X156144Y-110644
X156144Y-114356
X158000Y-109875
X158000Y-115125
X159856Y-110644
X159856Y-114356
X160625Y-112500
X64875Y-93500
X65644Y-91644
X65644Y-95356
X67500Y-90875
X67500Y-96125
X69356Y-91644
X69356Y-95356
X70125Y-93500
X98375Y-44500
X99144Y-42644
X99144Y-46356
X101000Y-41875
X101000Y-47125
X102856Y-42644
X102856Y-46356
X103625Y-44500
T3
X66548Y-83566
X74168Y-83566
X110744Y-87456
X110744Y-92456
X106680Y-38862
X106680Y-46482
X109220Y-38862
X109220Y-46482
X111760Y-38862
X111760Y-46482
X114300Y-38862
X114300Y-46482
X116840Y-38862
X116840Y-46482
X119380Y-38862
X119380Y-46482
X121920Y-38862
X121920Y-46482
X122682Y-56722
X122682Y-61722
X126238Y-68834
X126238Y-84074
X128778Y-68834
X128778Y-84074
X131318Y-68834
X131318Y-84074
X133858Y-68834
X133858Y-84074
X136398Y-68834
X136398Y-84074
X138938Y-68834
X138938Y-84074
X141478Y-68834
X141478Y-84074
X144018Y-68834
X144018Y-84074
X146558Y-68834
X146558Y-84074
X149098Y-68834
X149098Y-84074
X151638Y-68834
X151638Y-84074
X154178Y-68834
X154178Y-84074
X156718Y-68834
X156718Y-84074
X159258Y-68834
X159258Y-84074
X113284Y-103378
X118284Y-103378
X66040Y-71882
X66040Y-74422
X66040Y-76962
X73660Y-71882
X73660Y-74422
X73660Y-76962
X123952Y-114808
X131572Y-114808
X74676Y-87630
X74676Y-95250
X77216Y-87630
X77216Y-95250
X79756Y-87630
X79756Y-95250
X82296Y-87630
X82296Y-95250
X84836Y-87630
X84836Y-95250
X87376Y-87630
X87376Y-95250
X89916Y-87630
X89916Y-95250
X92456Y-87630
X92456Y-95250
X94996Y-87630
X94996Y-95250
X97536Y-87630
X97536Y-95250
X100076Y-87630
X100076Y-95250
X102616Y-87630
X102616Y-95250
X106252Y-35560
X111252Y-35560
X113792Y-114808
X121412Y-114808
X102188Y-73152
X107188Y-73152
X122682Y-49356
X122682Y-54356
X102616Y-76454
X102616Y-84074
X105156Y-76454
X105156Y-84074
X107696Y-76454
X107696Y-84074
X110236Y-76454
X110236Y-84074
X112776Y-76454
X112776Y-84074
X115316Y-76454
X115316Y-84074
X117856Y-76454
X117856Y-84074
X120396Y-76454
X120396Y-84074
X137414Y-88138
X137414Y-95758
X139954Y-88138
X139954Y-95758
X142494Y-88138
X142494Y-95758
X145034Y-88138
X145034Y-95758
X147574Y-88138
X147574Y-95758
X150114Y-88138
X150114Y-95758
X152654Y-88138
X152654Y-95758
X111760Y-110236
X119380Y-110236
X66374Y-87630
X71374Y-87630
X88900Y-83566
X96520Y-83566
X87884Y-35306
X95504Y-35306
X123778Y-111506
X128778Y-111506
X106172Y-90678
X106172Y-95678
X79328Y-35306
X84328Y-35306
X80010Y-38862
X80010Y-46482
X82550Y-38862
X82550Y-46482
X85090Y-38862
X85090Y-46482
X87630Y-38862
X87630Y-46482
X90170Y-38862
X90170Y-46482
X92710Y-38862
X92710Y-46482
X95250Y-38862
X95250Y-46482
X136398Y-38608
X136398Y-46228
X138938Y-38608
X138938Y-46228
X141478Y-38608
X141478Y-46228
X144018Y-38608
X144018Y-46228
X146558Y-38608
X146558Y-46228
X149098Y-38608
X149098Y-46228
X151638Y-38608
X151638Y-46228
X154178Y-38608
X154178Y-46228
X156718Y-38608
X156718Y-46228
X159258Y-38608
X159258Y-46228
X126238Y-49784
X126238Y-65024
X128778Y-49784
X128778Y-65024
X131318Y-49784
X131318Y-65024
X133858Y-49784
X133858Y-65024
X136398Y-49784
X136398Y-65024
X138938Y-49784
X138938Y-65024
X141478Y-49784
X141478Y-65024
X144018Y-49784
X144018Y-65024
X146558Y-49784
X146558Y-65024
X149098Y-49784
X149098Y-65024
X151638Y-49784
X151638Y-65024
X154178Y-49784
X154178Y-65024
X156718Y-49784
X156718Y-65024
X159258Y-49784
X159258Y-65024
X145796Y-35052
X153416Y-35052
X111760Y-106934
X119380Y-106934
X77724Y-83566
X85344Y-83566
X80772Y-63246
X80772Y-68146
X82550Y-49784
X82550Y-57404
X85852Y-53848
X85852Y-69088
X88392Y-53848
X88392Y-69088
X90932Y-53848
X90932Y-69088
X93472Y-53848
X93472Y-69088
X96012Y-53848
X96012Y-69088
X98552Y-53848
X98552Y-69088
X101092Y-53848
X101092Y-69088
X103632Y-53848
X103632Y-69088
X106172Y-53848
X106172Y-69088
X108712Y-53848
X108712Y-69088
X111252Y-53848
X111252Y-69088
X113792Y-53848
X113792Y-69088
X116332Y-53848
X116332Y-69088
X118872Y-53848
X118872Y-69088
X114300Y-87884
X114300Y-95504
X116840Y-87884
X116840Y-95504
X119380Y-87884
X119380Y-95504
X121920Y-87884
X121920Y-95504
X124460Y-87884
X124460Y-95504
X127000Y-87884
X127000Y-95504
X129540Y-87884
X129540Y-95504
X135970Y-35052
X140970Y-35052
X113284Y-99822
X118284Y-99822
X101854Y-50292
X109474Y-50292
X122174Y-99648
X122174Y-104648
X133604Y-87710
X133604Y-92710
X79248Y-49784
X79248Y-57404
X122682Y-68406
X122682Y-73406
X112014Y-50292
X119634Y-50292
X134112Y-114808
X141732Y-114808
X91694Y-50292
X99314Y-50292
X125730Y-100076
X125730Y-107696
X128270Y-100076
X128270Y-107696
X130810Y-100076
X130810Y-107696
X133350Y-100076
X133350Y-107696
X135890Y-100076
X135890Y-107696
X138430Y-100076
X138430Y-107696
X140970Y-100076
X140970Y-107696
X143510Y-100076
X143510Y-107696
X146050Y-100076
X146050Y-107696
X148590Y-100076
X148590Y-107696
X151130Y-100076
X151130Y-107696
X153670Y-100076
X153670Y-107696
T4
X157480Y-29290
X157480Y-31790
X157480Y-34290
X160780Y-29290
X160780Y-31790
X160780Y-34290
X99500Y-37000
X102040Y-37000
X130000Y-37000
X132540Y-37000
T5
X69000Y-28460
X69000Y-31000
X71540Y-28460
X71540Y-31000
X74080Y-28460
X74080Y-31000
X76620Y-28460
X76620Y-31000
X79160Y-28460
X79160Y-31000
X81700Y-28460
X81700Y-31000
X84240Y-28460
X84240Y-31000
X86780Y-28460
X86780Y-31000
X89320Y-28460
X89320Y-31000
X91860Y-28460
X91860Y-31000
X94400Y-28460
X94400Y-31000
X96940Y-28460
X96940Y-31000
X99480Y-28460
X99480Y-31000
X102020Y-28460
X102020Y-31000
X104560Y-28460
X104560Y-31000
X107100Y-28460
X107100Y-31000
X109640Y-28460
X109640Y-31000
X71410Y-45385
X71410Y-48155
X71410Y-50925
X71410Y-53695
X74250Y-44000
X74250Y-46770
X74250Y-49540
X74250Y-52310
X74250Y-55080
X159004Y-89996
X159004Y-93046
X159004Y-96096
X91694Y-116078
X94234Y-116078
X96774Y-116078
X122682Y-28460
X122682Y-31000
X125222Y-28460
X125222Y-31000
X127762Y-28460
X127762Y-31000
X130302Y-28460
X130302Y-31000
X132842Y-28460
X132842Y-31000
X135382Y-28460
X135382Y-31000
X137922Y-28460
X137922Y-31000
X140462Y-28460
X140462Y-31000
X143002Y-28460
X143002Y-31000
X145542Y-28460
X145542Y-31000
X148082Y-28460
X148082Y-31000
X150622Y-28460
X150622Y-31000
X153162Y-28460
X153162Y-31000
X116078Y-35052
X118618Y-35052
X121158Y-35052
X123698Y-35052
T6
X85090Y-103124
X85090Y-105664
X85090Y-108204
T7
X78000Y-73500
X78000Y-80000
X82500Y-73500
X82500Y-80000
X93500Y-73500
X93500Y-80000
X98000Y-73500
X98000Y-80000
T8
X158954Y-87046
X159004Y-99096
T9
X73950Y-37040
X73950Y-62040
T10
X158000Y-112500
X67500Y-93500
X101000Y-44500
T0
M30
