G04 #@! TF.GenerationSoftware,KiCad,Pcbnew,(5.1.6)-1*
G04 #@! TF.CreationDate,2020-07-28T06:48:23+03:00*
G04 #@! TF.ProjectId,PlusD_Clone_1_3,506c7573-445f-4436-9c6f-6e655f315f33,rev?*
G04 #@! TF.SameCoordinates,Original*
G04 #@! TF.FileFunction,Copper,L1,Top*
G04 #@! TF.FilePolarity,Positive*
%FSLAX46Y46*%
G04 Gerber Fmt 4.6, Leading zero omitted, Abs format (unit mm)*
G04 Created by KiCad (PCBNEW (5.1.6)-1) date 2020-07-28 06:48:23*
%MOMM*%
%LPD*%
G01*
G04 APERTURE LIST*
G04 #@! TA.AperFunction,ComponentPad*
%ADD10O,1.700000X1.700000*%
G04 #@! TD*
G04 #@! TA.AperFunction,ComponentPad*
%ADD11R,1.700000X1.700000*%
G04 #@! TD*
G04 #@! TA.AperFunction,ComponentPad*
%ADD12C,1.400000*%
G04 #@! TD*
G04 #@! TA.AperFunction,ComponentPad*
%ADD13R,1.400000X1.400000*%
G04 #@! TD*
G04 #@! TA.AperFunction,ComponentPad*
%ADD14O,1.600000X2.400000*%
G04 #@! TD*
G04 #@! TA.AperFunction,ComponentPad*
%ADD15R,1.600000X2.400000*%
G04 #@! TD*
G04 #@! TA.AperFunction,ComponentPad*
%ADD16O,3.500000X1.700000*%
G04 #@! TD*
G04 #@! TA.AperFunction,ComponentPad*
%ADD17O,2.500000X1.400000*%
G04 #@! TD*
G04 #@! TA.AperFunction,ComponentPad*
%ADD18R,2.500000X1.400000*%
G04 #@! TD*
G04 #@! TA.AperFunction,ComponentPad*
%ADD19O,1.600000X1.600000*%
G04 #@! TD*
G04 #@! TA.AperFunction,ComponentPad*
%ADD20C,1.600000*%
G04 #@! TD*
G04 #@! TA.AperFunction,ComponentPad*
%ADD21C,4.000000*%
G04 #@! TD*
G04 #@! TA.AperFunction,ComponentPad*
%ADD22R,1.600000X1.600000*%
G04 #@! TD*
G04 #@! TA.AperFunction,ComponentPad*
%ADD23O,2.400000X1.600000*%
G04 #@! TD*
G04 #@! TA.AperFunction,ComponentPad*
%ADD24R,2.400000X1.600000*%
G04 #@! TD*
G04 #@! TA.AperFunction,ComponentPad*
%ADD25C,7.000000*%
G04 #@! TD*
G04 #@! TA.AperFunction,ComponentPad*
%ADD26C,0.800000*%
G04 #@! TD*
G04 #@! TA.AperFunction,ComponentPad*
%ADD27C,2.000000*%
G04 #@! TD*
G04 #@! TA.AperFunction,ConnectorPad*
%ADD28O,1.778000X5.080000*%
G04 #@! TD*
G04 #@! TA.AperFunction,ComponentPad*
%ADD29C,1.800000*%
G04 #@! TD*
G04 #@! TA.AperFunction,ComponentPad*
%ADD30R,1.800000X1.800000*%
G04 #@! TD*
G04 #@! TA.AperFunction,ComponentPad*
%ADD31C,1.500000*%
G04 #@! TD*
G04 #@! TA.AperFunction,ViaPad*
%ADD32C,0.800000*%
G04 #@! TD*
G04 #@! TA.AperFunction,Conductor*
%ADD33C,0.350000*%
G04 #@! TD*
G04 #@! TA.AperFunction,Conductor*
%ADD34C,0.250000*%
G04 #@! TD*
G04 APERTURE END LIST*
D10*
X153162000Y-46228000D03*
X153162000Y-43688000D03*
X153162000Y-41148000D03*
D11*
X153162000Y-38608000D03*
G04 #@! TA.AperFunction,SMDPad,CuDef*
G36*
G01*
X94050000Y-102625000D02*
X92950000Y-102625000D01*
G75*
G02*
X92700000Y-102375000I0J250000D01*
G01*
X92700000Y-99550000D01*
G75*
G02*
X92950000Y-99300000I250000J0D01*
G01*
X94050000Y-99300000D01*
G75*
G02*
X94300000Y-99550000I0J-250000D01*
G01*
X94300000Y-102375000D01*
G75*
G02*
X94050000Y-102625000I-250000J0D01*
G01*
G37*
G04 #@! TD.AperFunction*
G04 #@! TA.AperFunction,SMDPad,CuDef*
G36*
G01*
X94050000Y-107700000D02*
X92950000Y-107700000D01*
G75*
G02*
X92700000Y-107450000I0J250000D01*
G01*
X92700000Y-104625000D01*
G75*
G02*
X92950000Y-104375000I250000J0D01*
G01*
X94050000Y-104375000D01*
G75*
G02*
X94300000Y-104625000I0J-250000D01*
G01*
X94300000Y-107450000D01*
G75*
G02*
X94050000Y-107700000I-250000J0D01*
G01*
G37*
G04 #@! TD.AperFunction*
G04 #@! TA.AperFunction,SMDPad,CuDef*
G36*
G01*
X83450000Y-104375000D02*
X84550000Y-104375000D01*
G75*
G02*
X84800000Y-104625000I0J-250000D01*
G01*
X84800000Y-107450000D01*
G75*
G02*
X84550000Y-107700000I-250000J0D01*
G01*
X83450000Y-107700000D01*
G75*
G02*
X83200000Y-107450000I0J250000D01*
G01*
X83200000Y-104625000D01*
G75*
G02*
X83450000Y-104375000I250000J0D01*
G01*
G37*
G04 #@! TD.AperFunction*
G04 #@! TA.AperFunction,SMDPad,CuDef*
G36*
G01*
X83450000Y-99300000D02*
X84550000Y-99300000D01*
G75*
G02*
X84800000Y-99550000I0J-250000D01*
G01*
X84800000Y-102375000D01*
G75*
G02*
X84550000Y-102625000I-250000J0D01*
G01*
X83450000Y-102625000D01*
G75*
G02*
X83200000Y-102375000I0J250000D01*
G01*
X83200000Y-99550000D01*
G75*
G02*
X83450000Y-99300000I250000J0D01*
G01*
G37*
G04 #@! TD.AperFunction*
D12*
X160907000Y-29417000D03*
X160907000Y-31917000D03*
X160907000Y-34417000D03*
X157607000Y-29417000D03*
X157607000Y-31917000D03*
D13*
X157607000Y-34417000D03*
D14*
X126500000Y-49760000D03*
X159520000Y-65000000D03*
X129040000Y-49760000D03*
X156980000Y-65000000D03*
X131580000Y-49760000D03*
X154440000Y-65000000D03*
X134120000Y-49760000D03*
X151900000Y-65000000D03*
X136660000Y-49760000D03*
X149360000Y-65000000D03*
X139200000Y-49760000D03*
X146820000Y-65000000D03*
X141740000Y-49760000D03*
X144280000Y-65000000D03*
X144280000Y-49760000D03*
X141740000Y-65000000D03*
X146820000Y-49760000D03*
X139200000Y-65000000D03*
X149360000Y-49760000D03*
X136660000Y-65000000D03*
X151900000Y-49760000D03*
X134120000Y-65000000D03*
X154440000Y-49760000D03*
X131580000Y-65000000D03*
X156980000Y-49760000D03*
X129040000Y-65000000D03*
X159520000Y-49760000D03*
D15*
X126500000Y-65000000D03*
D16*
X159258000Y-87626000D03*
X159258000Y-95826000D03*
D17*
X159258000Y-89726000D03*
X159258000Y-91726000D03*
D18*
X159258000Y-93726000D03*
D19*
X116840000Y-61214000D03*
D20*
X116840000Y-68834000D03*
D21*
X73950000Y-62040000D03*
X73950000Y-37040000D03*
D20*
X71410000Y-53695000D03*
X71410000Y-50925000D03*
X71410000Y-48155000D03*
X71410000Y-45385000D03*
X74250000Y-55080000D03*
X74250000Y-52310000D03*
X74250000Y-49540000D03*
X74250000Y-46770000D03*
D22*
X74250000Y-44000000D03*
D19*
X73406000Y-68500000D03*
X65786000Y-73580000D03*
X73406000Y-71040000D03*
X65786000Y-71040000D03*
X73406000Y-73580000D03*
D22*
X65786000Y-68500000D03*
D19*
X109474000Y-50292000D03*
D20*
X101854000Y-50292000D03*
D14*
X115762000Y-87880000D03*
X131002000Y-95500000D03*
X118302000Y-87880000D03*
X128462000Y-95500000D03*
X120842000Y-87880000D03*
X125922000Y-95500000D03*
X123382000Y-87880000D03*
X123382000Y-95500000D03*
X125922000Y-87880000D03*
X120842000Y-95500000D03*
X128462000Y-87880000D03*
X118302000Y-95500000D03*
X131002000Y-87880000D03*
D15*
X115762000Y-95500000D03*
D14*
X105500000Y-96120000D03*
X77560000Y-88500000D03*
X102960000Y-96120000D03*
X80100000Y-88500000D03*
X100420000Y-96120000D03*
X82640000Y-88500000D03*
X97880000Y-96120000D03*
X85180000Y-88500000D03*
X95340000Y-96120000D03*
X87720000Y-88500000D03*
X92800000Y-96120000D03*
X90260000Y-88500000D03*
X90260000Y-96120000D03*
X92800000Y-88500000D03*
X87720000Y-96120000D03*
X95340000Y-88500000D03*
X85180000Y-96120000D03*
X97880000Y-88500000D03*
X82640000Y-96120000D03*
X100420000Y-88500000D03*
X80100000Y-96120000D03*
X102960000Y-88500000D03*
X77560000Y-96120000D03*
D15*
X105500000Y-88500000D03*
D14*
X94000000Y-38380000D03*
X109240000Y-46000000D03*
X96540000Y-38380000D03*
X106700000Y-46000000D03*
X99080000Y-38380000D03*
X104160000Y-46000000D03*
X101620000Y-38380000D03*
X101620000Y-46000000D03*
X104160000Y-38380000D03*
X99080000Y-46000000D03*
X106700000Y-38380000D03*
X96540000Y-46000000D03*
X109240000Y-38380000D03*
D15*
X94000000Y-46000000D03*
D23*
X73660000Y-84201000D03*
X66040000Y-99441000D03*
X73660000Y-86741000D03*
X66040000Y-96901000D03*
X73660000Y-89281000D03*
X66040000Y-94361000D03*
X73660000Y-91821000D03*
X66040000Y-91821000D03*
X73660000Y-94361000D03*
X66040000Y-89281000D03*
X73660000Y-96901000D03*
X66040000Y-86741000D03*
X73660000Y-99441000D03*
D24*
X66040000Y-84201000D03*
D19*
X153416000Y-35052000D03*
D20*
X145796000Y-35052000D03*
D14*
X138000000Y-87880000D03*
X153240000Y-95500000D03*
X140540000Y-87880000D03*
X150700000Y-95500000D03*
X143080000Y-87880000D03*
X148160000Y-95500000D03*
X145620000Y-87880000D03*
X145620000Y-95500000D03*
X148160000Y-87880000D03*
X143080000Y-95500000D03*
X150700000Y-87880000D03*
X140540000Y-95500000D03*
X153240000Y-87880000D03*
D15*
X138000000Y-95500000D03*
D25*
X115000000Y-44500000D03*
D26*
X117625000Y-44500000D03*
X116856155Y-46356155D03*
X115000000Y-47125000D03*
X113143845Y-46356155D03*
X112375000Y-44500000D03*
X113143845Y-42643845D03*
X115000000Y-41875000D03*
X116856155Y-42643845D03*
X69856155Y-104143845D03*
X68000000Y-103375000D03*
X66143845Y-104143845D03*
X65375000Y-106000000D03*
X66143845Y-107856155D03*
X68000000Y-108625000D03*
X69856155Y-107856155D03*
X70625000Y-106000000D03*
D25*
X68000000Y-106000000D03*
D26*
X159856155Y-104143845D03*
X158000000Y-103375000D03*
X156143845Y-104143845D03*
X155375000Y-106000000D03*
X156143845Y-107856155D03*
X158000000Y-108625000D03*
X159856155Y-107856155D03*
X160625000Y-106000000D03*
D25*
X158000000Y-106000000D03*
D27*
X96000000Y-73500000D03*
X100500000Y-73500000D03*
X96000000Y-80000000D03*
X100500000Y-80000000D03*
X78000000Y-73500000D03*
X82500000Y-73500000D03*
X78000000Y-80000000D03*
X82500000Y-80000000D03*
D14*
X123698000Y-38354000D03*
X146558000Y-45974000D03*
X126238000Y-38354000D03*
X144018000Y-45974000D03*
X128778000Y-38354000D03*
X141478000Y-45974000D03*
X131318000Y-38354000D03*
X138938000Y-45974000D03*
X133858000Y-38354000D03*
X136398000Y-45974000D03*
X136398000Y-38354000D03*
X133858000Y-45974000D03*
X138938000Y-38354000D03*
X131318000Y-45974000D03*
X141478000Y-38354000D03*
X128778000Y-45974000D03*
X144018000Y-38354000D03*
X126238000Y-45974000D03*
X146558000Y-38354000D03*
D15*
X123698000Y-45974000D03*
D14*
X104500000Y-76380000D03*
X122280000Y-84000000D03*
X107040000Y-76380000D03*
X119740000Y-84000000D03*
X109580000Y-76380000D03*
X117200000Y-84000000D03*
X112120000Y-76380000D03*
X114660000Y-84000000D03*
X114660000Y-76380000D03*
X112120000Y-84000000D03*
X117200000Y-76380000D03*
X109580000Y-84000000D03*
X119740000Y-76380000D03*
X107040000Y-84000000D03*
X122280000Y-76380000D03*
D15*
X104500000Y-84000000D03*
D14*
X124000000Y-100380000D03*
X151940000Y-108000000D03*
X126540000Y-100380000D03*
X149400000Y-108000000D03*
X129080000Y-100380000D03*
X146860000Y-108000000D03*
X131620000Y-100380000D03*
X144320000Y-108000000D03*
X134160000Y-100380000D03*
X141780000Y-108000000D03*
X136700000Y-100380000D03*
X139240000Y-108000000D03*
X139240000Y-100380000D03*
X136700000Y-108000000D03*
X141780000Y-100380000D03*
X134160000Y-108000000D03*
X144320000Y-100380000D03*
X131620000Y-108000000D03*
X146860000Y-100380000D03*
X129080000Y-108000000D03*
X149400000Y-100380000D03*
X126540000Y-108000000D03*
X151940000Y-100380000D03*
D15*
X124000000Y-108000000D03*
D14*
X126500000Y-68760000D03*
X159520000Y-84000000D03*
X129040000Y-68760000D03*
X156980000Y-84000000D03*
X131580000Y-68760000D03*
X154440000Y-84000000D03*
X134120000Y-68760000D03*
X151900000Y-84000000D03*
X136660000Y-68760000D03*
X149360000Y-84000000D03*
X139200000Y-68760000D03*
X146820000Y-84000000D03*
X141740000Y-68760000D03*
X144280000Y-84000000D03*
X144280000Y-68760000D03*
X141740000Y-84000000D03*
X146820000Y-68760000D03*
X139200000Y-84000000D03*
X149360000Y-68760000D03*
X136660000Y-84000000D03*
X151900000Y-68760000D03*
X134120000Y-84000000D03*
X154440000Y-68760000D03*
X131580000Y-84000000D03*
X156980000Y-68760000D03*
X129040000Y-84000000D03*
X159520000Y-68760000D03*
D15*
X126500000Y-84000000D03*
D14*
X80264000Y-53848000D03*
X113284000Y-69088000D03*
X82804000Y-53848000D03*
X110744000Y-69088000D03*
X85344000Y-53848000D03*
X108204000Y-69088000D03*
X87884000Y-53848000D03*
X105664000Y-69088000D03*
X90424000Y-53848000D03*
X103124000Y-69088000D03*
X92964000Y-53848000D03*
X100584000Y-69088000D03*
X95504000Y-53848000D03*
X98044000Y-69088000D03*
X98044000Y-53848000D03*
X95504000Y-69088000D03*
X100584000Y-53848000D03*
X92964000Y-69088000D03*
X103124000Y-53848000D03*
X90424000Y-69088000D03*
X105664000Y-53848000D03*
X87884000Y-69088000D03*
X108204000Y-53848000D03*
X85344000Y-69088000D03*
X110744000Y-53848000D03*
X82804000Y-69088000D03*
X113284000Y-53848000D03*
D15*
X80264000Y-69088000D03*
D19*
X120015000Y-61214000D03*
D20*
X120015000Y-68834000D03*
D19*
X87376000Y-43815000D03*
D20*
X79756000Y-43815000D03*
D19*
X113792000Y-106680000D03*
D20*
X106172000Y-106680000D03*
D19*
X113792000Y-109982000D03*
D20*
X106172000Y-109982000D03*
D19*
X106172000Y-113284000D03*
D20*
X113792000Y-113284000D03*
D19*
X87376000Y-46990000D03*
D20*
X79756000Y-46990000D03*
D19*
X119634000Y-50292000D03*
D20*
X112014000Y-50292000D03*
D19*
X99314000Y-50292000D03*
D20*
X91694000Y-50292000D03*
D19*
X87376000Y-50292000D03*
D20*
X79756000Y-50292000D03*
D28*
X95298000Y-121960000D03*
X97838000Y-121960000D03*
X105458000Y-121960000D03*
X113078000Y-121960000D03*
X110538000Y-121960000D03*
X107998000Y-121960000D03*
X115618000Y-121960000D03*
X90218000Y-121960000D03*
X92758000Y-121960000D03*
X102918000Y-121960000D03*
X118158000Y-121960000D03*
X123238000Y-121960000D03*
X120698000Y-121960000D03*
X125778000Y-121960000D03*
X130858000Y-121960000D03*
X128318000Y-121960000D03*
X133398000Y-121960000D03*
X143558000Y-121960000D03*
X138478000Y-121960000D03*
X151178000Y-121960000D03*
X156258000Y-121960000D03*
X158798000Y-121960000D03*
X135938000Y-121960000D03*
X146098000Y-121960000D03*
X148638000Y-121960000D03*
X153718000Y-121960000D03*
X141018000Y-121960000D03*
D10*
X153162000Y-28460000D03*
X153162000Y-31000000D03*
X150622000Y-28460000D03*
X150622000Y-31000000D03*
X148082000Y-28460000D03*
X148082000Y-31000000D03*
X145542000Y-28460000D03*
X145542000Y-31000000D03*
X143002000Y-28460000D03*
X143002000Y-31000000D03*
X140462000Y-28460000D03*
X140462000Y-31000000D03*
X137922000Y-28460000D03*
X137922000Y-31000000D03*
X135382000Y-28460000D03*
X135382000Y-31000000D03*
X132842000Y-28460000D03*
X132842000Y-31000000D03*
X130302000Y-28460000D03*
X130302000Y-31000000D03*
X127762000Y-28460000D03*
X127762000Y-31000000D03*
X125222000Y-28460000D03*
X125222000Y-31000000D03*
X122682000Y-28460000D03*
D11*
X122682000Y-31000000D03*
D20*
X122936000Y-49737000D03*
X122936000Y-54737000D03*
X108966000Y-96567000D03*
X108966000Y-91567000D03*
X134493000Y-87837000D03*
X134493000Y-92837000D03*
X112268000Y-87837000D03*
X112268000Y-92837000D03*
X104474000Y-72898000D03*
X109474000Y-72898000D03*
X123778000Y-34925000D03*
X128778000Y-34925000D03*
X74088000Y-80645000D03*
X69088000Y-80645000D03*
X93933000Y-34798000D03*
X98933000Y-34798000D03*
X120523000Y-100410000D03*
X120523000Y-105410000D03*
X123190000Y-67644000D03*
X123190000Y-72644000D03*
X116840000Y-53801000D03*
X116840000Y-58801000D03*
X112696000Y-99568000D03*
X107696000Y-99568000D03*
D11*
X69000000Y-31000000D03*
D10*
X69000000Y-28460000D03*
X71540000Y-31000000D03*
X71540000Y-28460000D03*
X74080000Y-31000000D03*
X74080000Y-28460000D03*
X76620000Y-31000000D03*
X76620000Y-28460000D03*
X79160000Y-31000000D03*
X79160000Y-28460000D03*
X81700000Y-31000000D03*
X81700000Y-28460000D03*
X84240000Y-31000000D03*
X84240000Y-28460000D03*
X86780000Y-31000000D03*
X86780000Y-28460000D03*
X89320000Y-31000000D03*
X89320000Y-28460000D03*
X91860000Y-31000000D03*
X91860000Y-28460000D03*
X94400000Y-31000000D03*
X94400000Y-28460000D03*
X96940000Y-31000000D03*
X96940000Y-28460000D03*
X99480000Y-31000000D03*
X99480000Y-28460000D03*
X102020000Y-31000000D03*
X102020000Y-28460000D03*
X104560000Y-31000000D03*
X104560000Y-28460000D03*
X107100000Y-31000000D03*
X107100000Y-28460000D03*
X109640000Y-31000000D03*
X109640000Y-28460000D03*
D29*
X119040000Y-37000000D03*
D30*
X116500000Y-37000000D03*
D19*
X126620000Y-115000000D03*
D22*
X119000000Y-115000000D03*
D19*
X131880000Y-115000000D03*
D22*
X139500000Y-115000000D03*
X152000000Y-115000000D03*
D19*
X144380000Y-115000000D03*
D29*
X84040000Y-37000000D03*
D30*
X81500000Y-37000000D03*
D20*
X112696000Y-103124000D03*
X107696000Y-103124000D03*
X102409000Y-113157000D03*
X97409000Y-113157000D03*
D31*
X100500000Y-102000000D03*
X100500000Y-106900000D03*
D32*
X122259900Y-118559600D03*
X85678700Y-71074400D03*
X127243400Y-93831700D03*
X155815900Y-98786100D03*
X85465100Y-106693200D03*
X124178600Y-79898300D03*
X86297200Y-48169800D03*
X92360500Y-36321700D03*
X75719100Y-64845900D03*
X116541600Y-39966900D03*
X68131600Y-91821000D03*
X117728700Y-90632400D03*
X107401200Y-80334900D03*
X68719600Y-54821300D03*
X118165500Y-107147900D03*
X147969600Y-89962300D03*
X114402200Y-100155700D03*
X98803600Y-82625000D03*
X101950100Y-70424500D03*
X128155100Y-118735600D03*
X121221500Y-110979600D03*
X110297700Y-79944300D03*
X83999000Y-83959700D03*
X155615000Y-109613700D03*
X144650400Y-79990200D03*
X148938600Y-73805500D03*
X121870900Y-90237300D03*
X117724400Y-116452400D03*
X133127700Y-98083100D03*
X125433400Y-109513800D03*
X140693600Y-118668400D03*
X146558600Y-93931800D03*
X153718000Y-111090900D03*
X135408900Y-82226300D03*
X144552300Y-105959600D03*
X100006800Y-85558200D03*
X130286000Y-52026400D03*
X154440000Y-70827400D03*
X102006900Y-82481800D03*
X101625400Y-98765100D03*
X90069200Y-75557100D03*
X109733600Y-106657600D03*
X97975500Y-80026300D03*
X91223100Y-82602600D03*
X111171700Y-109048900D03*
X108290300Y-109515400D03*
X102508900Y-78094700D03*
X89083100Y-82684000D03*
X151515500Y-62718300D03*
X139504500Y-58616400D03*
X103308600Y-106455000D03*
X143104600Y-61279400D03*
X105284600Y-58578200D03*
X116261800Y-98858600D03*
X119112200Y-119036600D03*
X144927300Y-112472700D03*
X138254700Y-71551100D03*
X154596700Y-90128600D03*
X92307800Y-66724600D03*
X102960000Y-93598300D03*
X136590300Y-105754000D03*
X98057500Y-116260100D03*
X98224400Y-117320200D03*
X149191200Y-89451900D03*
X147928200Y-98787200D03*
X103675000Y-49075300D03*
X127330000Y-56821500D03*
X71115600Y-63018800D03*
X86646000Y-86736400D03*
X101067800Y-120184100D03*
X131091800Y-82100200D03*
X133291300Y-91699500D03*
X95276500Y-115994600D03*
X144989600Y-117000800D03*
X121229200Y-107709200D03*
X85760300Y-102722800D03*
D33*
X80615800Y-86821900D02*
X79238100Y-86821900D01*
X79238100Y-86821900D02*
X77560000Y-88500000D01*
X93500000Y-100962500D02*
X90755000Y-98217500D01*
X90755000Y-98217500D02*
X82592500Y-98217500D01*
X82592500Y-98217500D02*
X81370000Y-96995000D01*
X81370000Y-96995000D02*
X81370000Y-87576100D01*
X81370000Y-87576100D02*
X80615800Y-86821900D01*
X82500000Y-80000000D02*
X82500000Y-84937700D01*
X82500000Y-84937700D02*
X80615800Y-86821900D01*
X82500000Y-73500000D02*
X82500000Y-80000000D01*
X97409000Y-113157000D02*
X97409000Y-104871500D01*
X97409000Y-104871500D02*
X93500000Y-100962500D01*
X120523000Y-105410000D02*
X120374200Y-105558800D01*
X120374200Y-105558800D02*
X120374200Y-116673900D01*
X120374200Y-116673900D02*
X122259900Y-118559600D01*
X126500000Y-84000000D02*
X126500000Y-75954000D01*
X126500000Y-75954000D02*
X123190000Y-72644000D01*
X126500000Y-84000000D02*
X126719800Y-84000000D01*
X126719800Y-84000000D02*
X129732000Y-87012200D01*
X129732000Y-87012200D02*
X129732000Y-89349200D01*
X129732000Y-89349200D02*
X133219800Y-92837000D01*
X133219800Y-92837000D02*
X134493000Y-92837000D01*
X153240000Y-95500000D02*
X153240000Y-101420700D01*
X153240000Y-101420700D02*
X151940000Y-102720700D01*
X151940000Y-102720700D02*
X151940000Y-108000000D01*
X69088000Y-80645000D02*
X69088000Y-74342000D01*
X69088000Y-74342000D02*
X65786000Y-71040000D01*
X69088000Y-80645000D02*
X69088000Y-96393000D01*
X69088000Y-96393000D02*
X66040000Y-99441000D01*
X159520000Y-84000000D02*
X153240000Y-90280000D01*
X153240000Y-90280000D02*
X153240000Y-95500000D01*
X99480000Y-31000000D02*
X99480000Y-34251000D01*
X99480000Y-34251000D02*
X98933000Y-34798000D01*
X143002000Y-28460000D02*
X145542000Y-28460000D01*
X123698000Y-45974000D02*
X124192200Y-46468200D01*
X124192200Y-46468200D02*
X124192200Y-53480800D01*
X124192200Y-53480800D02*
X122936000Y-54737000D01*
X148082000Y-28460000D02*
X150622000Y-28460000D01*
X113284000Y-69088000D02*
X113284000Y-62357000D01*
X113284000Y-62357000D02*
X116840000Y-58801000D01*
X70160800Y-32285300D02*
X70254700Y-32285300D01*
X70254700Y-32285300D02*
X71540000Y-31000000D01*
X69000000Y-31000000D02*
X69000000Y-31124500D01*
X69000000Y-31124500D02*
X70160800Y-32285300D01*
X70160800Y-32285300D02*
X70160800Y-49675800D01*
X70160800Y-49675800D02*
X71410000Y-50925000D01*
X109640000Y-31000000D02*
X113459000Y-27181000D01*
X113459000Y-27181000D02*
X131563000Y-27181000D01*
X131563000Y-27181000D02*
X132842000Y-28460000D01*
X65786000Y-68500000D02*
X65786000Y-56549000D01*
X65786000Y-56549000D02*
X71410000Y-50925000D01*
X112268000Y-92837000D02*
X111466900Y-93638100D01*
X111466900Y-93638100D02*
X111466900Y-99353100D01*
X111466900Y-99353100D02*
X107696000Y-103124000D01*
X159520000Y-84000000D02*
X160752000Y-82768000D01*
X160752000Y-82768000D02*
X160752000Y-66232000D01*
X160752000Y-66232000D02*
X159520000Y-65000000D01*
X86780000Y-31000000D02*
X84240000Y-31000000D01*
X91860000Y-31000000D02*
X89320000Y-31000000D01*
D34*
X96000000Y-73500000D02*
X96774000Y-72726000D01*
X96774000Y-72726000D02*
X96774000Y-68262700D01*
X96774000Y-68262700D02*
X97560500Y-67476200D01*
X97560500Y-67476200D02*
X106157100Y-67476200D01*
X106157100Y-67476200D02*
X106934000Y-68253100D01*
X106934000Y-68253100D02*
X106934000Y-72031900D01*
X106934000Y-72031900D02*
X109394100Y-74492000D01*
X109394100Y-74492000D02*
X109759400Y-74492000D01*
X109759400Y-74492000D02*
X110771800Y-75504400D01*
X110771800Y-75504400D02*
X110771800Y-77438400D01*
X110771800Y-77438400D02*
X109512500Y-78697700D01*
X109512500Y-78697700D02*
X109512500Y-80287800D01*
X109512500Y-80287800D02*
X110416100Y-81191400D01*
X110416100Y-81191400D02*
X111385700Y-81191400D01*
X111385700Y-81191400D02*
X113484600Y-83290300D01*
X113484600Y-83290300D02*
X113484600Y-89481900D01*
X113484600Y-89481900D02*
X117067400Y-93064700D01*
X117067400Y-93064700D02*
X117067400Y-100753100D01*
X117067400Y-100753100D02*
X116889900Y-100930600D01*
X116889900Y-100930600D02*
X116889900Y-116794000D01*
X116889900Y-116794000D02*
X118017400Y-117921500D01*
X118017400Y-117921500D02*
X120175200Y-117921500D01*
X120175200Y-117921500D02*
X123238000Y-120984300D01*
X123238000Y-120984300D02*
X123238000Y-121960000D01*
X96000000Y-73500000D02*
X96000000Y-80000000D01*
X85678700Y-71074400D02*
X89293900Y-74689600D01*
X89293900Y-74689600D02*
X89293900Y-81770000D01*
X89293900Y-81770000D02*
X90260000Y-82736100D01*
X90260000Y-82736100D02*
X90260000Y-88500000D01*
X134160000Y-100380000D02*
X134160000Y-95607000D01*
X134160000Y-95607000D02*
X128462000Y-89909000D01*
X128462000Y-89909000D02*
X128462000Y-87880000D01*
X122280000Y-76380000D02*
X121084200Y-77575800D01*
X121084200Y-77575800D02*
X121084200Y-85261500D01*
X121084200Y-85261500D02*
X122017400Y-86194700D01*
X122017400Y-86194700D02*
X122017400Y-88605700D01*
X122017400Y-88605700D02*
X127243400Y-93831700D01*
X146558000Y-38354000D02*
X146558000Y-38827200D01*
X146558000Y-38827200D02*
X152688700Y-44957900D01*
X152688700Y-44957900D02*
X156787300Y-44957900D01*
X156787300Y-44957900D02*
X161432300Y-49602900D01*
X161432300Y-49602900D02*
X161432300Y-96348700D01*
X161432300Y-96348700D02*
X158994900Y-98786100D01*
X158994900Y-98786100D02*
X155815900Y-98786100D01*
X85465100Y-106693200D02*
X84655700Y-106693200D01*
X84655700Y-106693200D02*
X84000000Y-106037500D01*
X115762000Y-95500000D02*
X115486500Y-95775500D01*
X115486500Y-95775500D02*
X115486500Y-111589500D01*
X115486500Y-111589500D02*
X113792000Y-113284000D01*
X144320000Y-100380000D02*
X144320000Y-86808500D01*
X144320000Y-86808500D02*
X145455400Y-85673100D01*
X145455400Y-85673100D02*
X145455400Y-70124600D01*
X145455400Y-70124600D02*
X146820000Y-68760000D01*
X146860000Y-100380000D02*
X148452300Y-101972300D01*
X148452300Y-101972300D02*
X149874000Y-101972300D01*
X149874000Y-101972300D02*
X150670000Y-101176300D01*
X150670000Y-101176300D02*
X150670000Y-98874400D01*
X150670000Y-98874400D02*
X151876700Y-97667700D01*
X151876700Y-97667700D02*
X151876700Y-86957600D01*
X151876700Y-86957600D02*
X150630000Y-85710900D01*
X150630000Y-85710900D02*
X150630000Y-53570000D01*
X150630000Y-53570000D02*
X146820000Y-49760000D01*
X100500000Y-80000000D02*
X100500000Y-73500000D01*
X116500000Y-37000000D02*
X121700300Y-42200300D01*
X121700300Y-42200300D02*
X121700300Y-62063600D01*
X121700300Y-62063600D02*
X115641800Y-68122100D01*
X115641800Y-68122100D02*
X115641800Y-69301600D01*
X115641800Y-69301600D02*
X119787600Y-73447400D01*
X119787600Y-73447400D02*
X121427000Y-73447400D01*
X121427000Y-73447400D02*
X124178600Y-76199000D01*
X124178600Y-76199000D02*
X124178600Y-79898300D01*
X131620000Y-100380000D02*
X129637400Y-98397400D01*
X129637400Y-98397400D02*
X129637400Y-93686900D01*
X129637400Y-93686900D02*
X124652000Y-88701500D01*
X124652000Y-88701500D02*
X124652000Y-80371700D01*
X124652000Y-80371700D02*
X124178600Y-79898300D01*
X84040000Y-37000000D02*
X79756000Y-41284000D01*
X79756000Y-41284000D02*
X79756000Y-43815000D01*
X87376000Y-50292000D02*
X90424000Y-53340000D01*
X90424000Y-53340000D02*
X90424000Y-53848000D01*
X76620000Y-28460000D02*
X77934600Y-29774600D01*
X77934600Y-29774600D02*
X79749500Y-29774600D01*
X79749500Y-29774600D02*
X80430000Y-30455100D01*
X80430000Y-30455100D02*
X80430000Y-31491500D01*
X80430000Y-31491500D02*
X85320600Y-36382100D01*
X85320600Y-36382100D02*
X85320600Y-48289600D01*
X85320600Y-48289600D02*
X87323000Y-50292000D01*
X87323000Y-50292000D02*
X87376000Y-50292000D01*
X86780000Y-28460000D02*
X85554600Y-29685400D01*
X85554600Y-29685400D02*
X83816900Y-29685400D01*
X83816900Y-29685400D02*
X83014600Y-30487700D01*
X83014600Y-30487700D02*
X83014600Y-31573700D01*
X83014600Y-31573700D02*
X85833800Y-34392900D01*
X85833800Y-34392900D02*
X85833800Y-47706400D01*
X85833800Y-47706400D02*
X86297200Y-48169800D01*
X89320000Y-28460000D02*
X90555600Y-27224400D01*
X90555600Y-27224400D02*
X99985800Y-27224400D01*
X99985800Y-27224400D02*
X100750000Y-27988600D01*
X100750000Y-27988600D02*
X100750000Y-34970000D01*
X100750000Y-34970000D02*
X104160000Y-38380000D01*
X91860000Y-28460000D02*
X90590000Y-29730000D01*
X90590000Y-29730000D02*
X88848600Y-29730000D01*
X88848600Y-29730000D02*
X88094700Y-30483900D01*
X88094700Y-30483900D02*
X88094700Y-32055900D01*
X88094700Y-32055900D02*
X92360500Y-36321700D01*
X107100000Y-28460000D02*
X105346100Y-26706100D01*
X105346100Y-26706100D02*
X71499900Y-26706100D01*
X71499900Y-26706100D02*
X70270000Y-27936000D01*
X70270000Y-27936000D02*
X70270000Y-28934900D01*
X70270000Y-28934900D02*
X69430300Y-29774600D01*
X69430300Y-29774600D02*
X67981500Y-29774600D01*
X67981500Y-29774600D02*
X64450400Y-33305700D01*
X64450400Y-33305700D02*
X64450400Y-87691400D01*
X64450400Y-87691400D02*
X66040000Y-89281000D01*
X80100000Y-96120000D02*
X75824800Y-91844800D01*
X75824800Y-91844800D02*
X75824800Y-64951600D01*
X75824800Y-64951600D02*
X75719100Y-64845900D01*
X99480000Y-28460000D02*
X98210000Y-29730000D01*
X98210000Y-29730000D02*
X98210000Y-33758700D01*
X98210000Y-33758700D02*
X97752900Y-34215800D01*
X97752900Y-34215800D02*
X97752900Y-35328600D01*
X97752900Y-35328600D02*
X98897100Y-36472800D01*
X98897100Y-36472800D02*
X99243300Y-36472800D01*
X99243300Y-36472800D02*
X100263500Y-37493000D01*
X100263500Y-37493000D02*
X100263500Y-49342500D01*
X100263500Y-49342500D02*
X99314000Y-50292000D01*
X112696000Y-103124000D02*
X110764500Y-105055500D01*
X110764500Y-105055500D02*
X107796500Y-105055500D01*
X107796500Y-105055500D02*
X106172000Y-106680000D01*
X116541600Y-39966900D02*
X121199900Y-44625200D01*
X121199900Y-44625200D02*
X121199900Y-61856300D01*
X121199900Y-61856300D02*
X115141400Y-67914800D01*
X115141400Y-67914800D02*
X115141400Y-71781400D01*
X115141400Y-71781400D02*
X119740000Y-76380000D01*
X157607000Y-31917000D02*
X155375400Y-29685400D01*
X155375400Y-29685400D02*
X152634500Y-29685400D01*
X152634500Y-29685400D02*
X151847400Y-28898300D01*
X151847400Y-28898300D02*
X151847400Y-27911400D01*
X151847400Y-27911400D02*
X150141700Y-26205700D01*
X150141700Y-26205700D02*
X69447600Y-26205700D01*
X69447600Y-26205700D02*
X63950000Y-31703300D01*
X63950000Y-31703300D02*
X63950000Y-89255600D01*
X63950000Y-89255600D02*
X65236800Y-90542400D01*
X65236800Y-90542400D02*
X66853000Y-90542400D01*
X66853000Y-90542400D02*
X68131600Y-91821000D01*
X117200000Y-84000000D02*
X119488700Y-86288700D01*
X119488700Y-86288700D02*
X119488700Y-88872400D01*
X119488700Y-88872400D02*
X117728700Y-90632400D01*
X109580000Y-76380000D02*
X107401200Y-78558800D01*
X107401200Y-78558800D02*
X107401200Y-80334900D01*
X68719600Y-54821300D02*
X68719600Y-61719100D01*
X68719600Y-61719100D02*
X70806000Y-63805500D01*
X70806000Y-63805500D02*
X70806000Y-96587000D01*
X70806000Y-96587000D02*
X73660000Y-99441000D01*
X118165500Y-107147900D02*
X118165500Y-105536600D01*
X118165500Y-105536600D02*
X122520200Y-101181900D01*
X122520200Y-101181900D02*
X122520200Y-96361800D01*
X122520200Y-96361800D02*
X123382000Y-95500000D01*
X148160000Y-95500000D02*
X147969600Y-95309600D01*
X147969600Y-95309600D02*
X147969600Y-89962300D01*
X113792000Y-106680000D02*
X114402200Y-106069800D01*
X114402200Y-106069800D02*
X114402200Y-100155700D01*
X105500000Y-88500000D02*
X105500000Y-88209400D01*
X105500000Y-88209400D02*
X103666800Y-86376200D01*
X103666800Y-86376200D02*
X103579300Y-86376200D01*
X103579300Y-86376200D02*
X99828100Y-82625000D01*
X99828100Y-82625000D02*
X98803600Y-82625000D01*
X102409000Y-113157000D02*
X102409000Y-102480800D01*
X102409000Y-102480800D02*
X107175700Y-97714100D01*
X107175700Y-97714100D02*
X107175700Y-86675700D01*
X107175700Y-86675700D02*
X104500000Y-84000000D01*
X101950100Y-70424500D02*
X101950100Y-77557100D01*
X101950100Y-77557100D02*
X101733600Y-77773600D01*
X101733600Y-77773600D02*
X101733600Y-78415700D01*
X101733600Y-78415700D02*
X104500000Y-81182100D01*
X104500000Y-81182100D02*
X104500000Y-84000000D01*
X128155100Y-118735600D02*
X121221500Y-111802000D01*
X121221500Y-111802000D02*
X121221500Y-110979600D01*
X78000000Y-80000000D02*
X78000000Y-73500000D01*
X85180000Y-96120000D02*
X83999000Y-94939000D01*
X83999000Y-94939000D02*
X83999000Y-83959700D01*
X110297700Y-79944300D02*
X112120000Y-78122000D01*
X112120000Y-78122000D02*
X112120000Y-76380000D01*
X95298000Y-121960000D02*
X95298000Y-121025800D01*
X95298000Y-121025800D02*
X98107300Y-118216500D01*
X98107300Y-118216500D02*
X98483500Y-118216500D01*
X98483500Y-118216500D02*
X99017900Y-117682100D01*
X99017900Y-117682100D02*
X99017900Y-116116700D01*
X99017900Y-116116700D02*
X98370700Y-115469500D01*
X98370700Y-115469500D02*
X97298100Y-115469500D01*
X97298100Y-115469500D02*
X95947800Y-116819800D01*
X95947800Y-116819800D02*
X94983800Y-116819800D01*
X94983800Y-116819800D02*
X87431500Y-109267500D01*
X87431500Y-109267500D02*
X77448500Y-109267500D01*
X77448500Y-109267500D02*
X70172300Y-101991300D01*
X70172300Y-101991300D02*
X66517400Y-101991300D01*
X66517400Y-101991300D02*
X64421300Y-99895200D01*
X64421300Y-99895200D02*
X64421300Y-98519700D01*
X64421300Y-98519700D02*
X66040000Y-96901000D01*
X108204000Y-69088000D02*
X108204000Y-69391800D01*
X108204000Y-69391800D02*
X112120000Y-73307800D01*
X112120000Y-73307800D02*
X112120000Y-76380000D01*
X145562800Y-48904800D02*
X144738800Y-48080900D01*
X144738800Y-48080900D02*
X144027600Y-48080900D01*
X144027600Y-48080900D02*
X142842600Y-46895900D01*
X142842600Y-46895900D02*
X142842600Y-45088200D01*
X142842600Y-45088200D02*
X141478000Y-43723600D01*
X141478000Y-43723600D02*
X141478000Y-38354000D01*
X149360000Y-68760000D02*
X149360000Y-68052400D01*
X149360000Y-68052400D02*
X147995400Y-66687800D01*
X147995400Y-66687800D02*
X147995400Y-52999700D01*
X147995400Y-52999700D02*
X145605900Y-50610200D01*
X145605900Y-50610200D02*
X145605900Y-48948000D01*
X145605900Y-48948000D02*
X145562800Y-48904800D01*
X145562800Y-48904800D02*
X146340200Y-48127400D01*
X146340200Y-48127400D02*
X147727400Y-48127400D01*
X147727400Y-48127400D02*
X149360000Y-49760000D01*
X144650400Y-68760000D02*
X144650400Y-79990200D01*
X156258000Y-121960000D02*
X156258000Y-110256700D01*
X156258000Y-110256700D02*
X155615000Y-109613700D01*
X144280000Y-49760000D02*
X144280000Y-60704000D01*
X144280000Y-60704000D02*
X145471500Y-61895500D01*
X145471500Y-61895500D02*
X145471500Y-67938900D01*
X145471500Y-67938900D02*
X144650400Y-68760000D01*
X144650400Y-68760000D02*
X144280000Y-68760000D01*
X139200000Y-49760000D02*
X138729200Y-50230800D01*
X138729200Y-50230800D02*
X138729200Y-58937400D01*
X138729200Y-58937400D02*
X140378100Y-60586300D01*
X140378100Y-60586300D02*
X140378100Y-67352200D01*
X140378100Y-67352200D02*
X139200000Y-68530300D01*
X139200000Y-68530300D02*
X139200000Y-68760000D01*
X140540000Y-95500000D02*
X141716500Y-94323500D01*
X141716500Y-94323500D02*
X141716500Y-86957400D01*
X141716500Y-86957400D02*
X140545500Y-85786400D01*
X140545500Y-85786400D02*
X140545500Y-72945500D01*
X140545500Y-72945500D02*
X139200000Y-71600000D01*
X139200000Y-71600000D02*
X139200000Y-68760000D01*
X121870900Y-90237300D02*
X122019800Y-90386200D01*
X122019800Y-90386200D02*
X122019800Y-96508400D01*
X122019800Y-96508400D02*
X117390200Y-101138000D01*
X117390200Y-101138000D02*
X117390200Y-116118200D01*
X117390200Y-116118200D02*
X117724400Y-116452400D01*
X150700000Y-87880000D02*
X149360000Y-86540000D01*
X149360000Y-86540000D02*
X149360000Y-84000000D01*
X149360000Y-84000000D02*
X148938600Y-83578600D01*
X148938600Y-83578600D02*
X148938600Y-73805500D01*
X132984600Y-98083100D02*
X132984600Y-95420400D01*
X132984600Y-95420400D02*
X127286600Y-89722400D01*
X127286600Y-89722400D02*
X127286600Y-87122100D01*
X127286600Y-87122100D02*
X126469100Y-86304600D01*
X126469100Y-86304600D02*
X126254400Y-86304600D01*
X126254400Y-86304600D02*
X125324600Y-85374800D01*
X125324600Y-85374800D02*
X125324600Y-76539000D01*
X125324600Y-76539000D02*
X121994800Y-73209200D01*
X121994800Y-73209200D02*
X121994800Y-72112000D01*
X121994800Y-72112000D02*
X122653100Y-71453700D01*
X122653100Y-71453700D02*
X127849400Y-71453700D01*
X125433400Y-109513800D02*
X125364700Y-109445100D01*
X125364700Y-109445100D02*
X125364700Y-107041000D01*
X125364700Y-107041000D02*
X128301900Y-104103800D01*
X128301900Y-104103800D02*
X130040100Y-104103800D01*
X130040100Y-104103800D02*
X132984600Y-101159300D01*
X132984600Y-101159300D02*
X132984600Y-98083100D01*
X132984600Y-98083100D02*
X133127700Y-98083100D01*
X127849400Y-71453700D02*
X127849400Y-66190600D01*
X127849400Y-66190600D02*
X129040000Y-65000000D01*
X129040000Y-84000000D02*
X127849400Y-82809400D01*
X127849400Y-82809400D02*
X127849400Y-71453700D01*
X131580000Y-84000000D02*
X133884600Y-86304600D01*
X133884600Y-86304600D02*
X134630500Y-86304600D01*
X134630500Y-86304600D02*
X135673000Y-87347100D01*
X135673000Y-87347100D02*
X135673000Y-95605800D01*
X135673000Y-95605800D02*
X135507200Y-95771600D01*
X135507200Y-95771600D02*
X135507200Y-102161000D01*
X135507200Y-102161000D02*
X140510000Y-107163800D01*
X140510000Y-107163800D02*
X140510000Y-111388200D01*
X140510000Y-111388200D02*
X140693600Y-111571800D01*
X140693600Y-111571800D02*
X140693600Y-118668400D01*
X131580000Y-65000000D02*
X130316500Y-66263500D01*
X130316500Y-66263500D02*
X130316500Y-82736500D01*
X130316500Y-82736500D02*
X131580000Y-84000000D01*
X145620000Y-95500000D02*
X145620000Y-108858400D01*
X145620000Y-108858400D02*
X143191200Y-111287200D01*
X143191200Y-111287200D02*
X143191200Y-116328300D01*
X143191200Y-116328300D02*
X144639000Y-117776100D01*
X144639000Y-117776100D02*
X145366400Y-117776100D01*
X145366400Y-117776100D02*
X148638000Y-121047700D01*
X148638000Y-121047700D02*
X148638000Y-121960000D01*
X153718000Y-121960000D02*
X153718000Y-111090900D01*
X146558600Y-93931800D02*
X145620000Y-92993200D01*
X145620000Y-92993200D02*
X145620000Y-87880000D01*
X135408900Y-82226300D02*
X134120000Y-80937400D01*
X134120000Y-80937400D02*
X134120000Y-68760000D01*
X134120000Y-68760000D02*
X134120000Y-67466600D01*
X134120000Y-67466600D02*
X135315700Y-66270900D01*
X135315700Y-66270900D02*
X135315700Y-50955700D01*
X135315700Y-50955700D02*
X134120000Y-49760000D01*
X136660000Y-68760000D02*
X136660000Y-71052800D01*
X136660000Y-71052800D02*
X137932500Y-72325300D01*
X137932500Y-72325300D02*
X137932500Y-85272500D01*
X137932500Y-85272500D02*
X140540000Y-87880000D01*
X136660000Y-68760000D02*
X137850600Y-67569400D01*
X137850600Y-67569400D02*
X137850600Y-50950600D01*
X137850600Y-50950600D02*
X136660000Y-49760000D01*
X144552300Y-105959600D02*
X143050000Y-104457300D01*
X143050000Y-104457300D02*
X143050000Y-99516300D01*
X143050000Y-99516300D02*
X141265000Y-97731300D01*
X141265000Y-97731300D02*
X140671000Y-97731300D01*
X140671000Y-97731300D02*
X139362300Y-96422600D01*
X139362300Y-96422600D02*
X139362300Y-89057700D01*
X139362300Y-89057700D02*
X140540000Y-87880000D01*
X101379500Y-94539500D02*
X102960000Y-96120000D01*
X102918000Y-121960000D02*
X102918000Y-117984600D01*
X102918000Y-117984600D02*
X98829500Y-113896100D01*
X98829500Y-113896100D02*
X98829500Y-97420700D01*
X98829500Y-97420700D02*
X99150000Y-97100200D01*
X99150000Y-97100200D02*
X99150000Y-95296500D01*
X99150000Y-95296500D02*
X99907000Y-94539500D01*
X99907000Y-94539500D02*
X101379500Y-94539500D01*
X100006800Y-85558200D02*
X101655000Y-87206400D01*
X101655000Y-87206400D02*
X101655000Y-94264000D01*
X101655000Y-94264000D02*
X101379500Y-94539500D01*
X90424000Y-69088000D02*
X90424000Y-72324200D01*
X90424000Y-72324200D02*
X91845200Y-73745400D01*
X91845200Y-73745400D02*
X91845200Y-79977400D01*
X91845200Y-79977400D02*
X97426000Y-85558200D01*
X97426000Y-85558200D02*
X100006800Y-85558200D01*
X128778000Y-38354000D02*
X130048000Y-39624000D01*
X130048000Y-39624000D02*
X130048000Y-47986300D01*
X130048000Y-47986300D02*
X130286000Y-48224300D01*
X130286000Y-48224300D02*
X130286000Y-52026400D01*
X151900000Y-84000000D02*
X153090600Y-82809400D01*
X153090600Y-82809400D02*
X153090600Y-66190600D01*
X153090600Y-66190600D02*
X151900000Y-65000000D01*
X100420000Y-97734900D02*
X103421600Y-97734900D01*
X103421600Y-97734900D02*
X104174900Y-96981600D01*
X104174900Y-96981600D02*
X104174900Y-87595600D01*
X104174900Y-87595600D02*
X103455900Y-86876600D01*
X103455900Y-86876600D02*
X103129300Y-86876600D01*
X103129300Y-86876600D02*
X100535300Y-84282600D01*
X100535300Y-84282600D02*
X97622000Y-84282600D01*
X97622000Y-84282600D02*
X93169200Y-79829800D01*
X93169200Y-79829800D02*
X93169200Y-69293200D01*
X114660000Y-84000000D02*
X114660000Y-78630400D01*
X114660000Y-78630400D02*
X113295400Y-77265800D01*
X113295400Y-77265800D02*
X113295400Y-73775400D01*
X113295400Y-73775400D02*
X109474000Y-69954000D01*
X109474000Y-69954000D02*
X109474000Y-68286300D01*
X109474000Y-68286300D02*
X108115900Y-66928200D01*
X108115900Y-66928200D02*
X95534200Y-66928200D01*
X95534200Y-66928200D02*
X93169200Y-69293200D01*
X93169200Y-69293200D02*
X92964000Y-69088000D01*
X154440000Y-84000000D02*
X154440000Y-70827400D01*
X105458000Y-121960000D02*
X105458000Y-118597300D01*
X105458000Y-118597300D02*
X99329900Y-112469200D01*
X99329900Y-112469200D02*
X99329900Y-98825000D01*
X99329900Y-98825000D02*
X100420000Y-97734900D01*
X100420000Y-97734900D02*
X100420000Y-96120000D01*
X102006900Y-82481800D02*
X101203900Y-81678800D01*
X101203900Y-81678800D02*
X95725800Y-81678800D01*
X95725800Y-81678800D02*
X94605400Y-80558400D01*
X94605400Y-80558400D02*
X94605400Y-69986600D01*
X94605400Y-69986600D02*
X95504000Y-69088000D01*
X101625400Y-98765100D02*
X104972600Y-98765100D01*
X104972600Y-98765100D02*
X106675300Y-97062400D01*
X106675300Y-97062400D02*
X106675300Y-87144600D01*
X106675300Y-87144600D02*
X105374000Y-85843300D01*
X105374000Y-85843300D02*
X103754000Y-85843300D01*
X103754000Y-85843300D02*
X102006900Y-84096200D01*
X102006900Y-84096200D02*
X102006900Y-82481800D01*
X107998000Y-121960000D02*
X107998000Y-120429800D01*
X107998000Y-120429800D02*
X101194800Y-113626600D01*
X101194800Y-113626600D02*
X101194800Y-112412200D01*
X101194800Y-112412200D02*
X101625400Y-111981600D01*
X101625400Y-111981600D02*
X101625400Y-98765100D01*
X95340000Y-96120000D02*
X94070000Y-94850000D01*
X94070000Y-94850000D02*
X94070000Y-84352900D01*
X94070000Y-84352900D02*
X90069200Y-80352100D01*
X90069200Y-80352100D02*
X90069200Y-75557100D01*
X115618000Y-121960000D02*
X115618000Y-119221600D01*
X115618000Y-119221600D02*
X109733600Y-113337200D01*
X109733600Y-113337200D02*
X109733600Y-106657600D01*
X159520000Y-68760000D02*
X158334000Y-67574000D01*
X158334000Y-67574000D02*
X158334000Y-50946000D01*
X158334000Y-50946000D02*
X159520000Y-49760000D01*
X156980000Y-68760000D02*
X155789400Y-67569400D01*
X155789400Y-67569400D02*
X155789400Y-50950600D01*
X155789400Y-50950600D02*
X156980000Y-49760000D01*
X92800000Y-96120000D02*
X91522100Y-94842100D01*
X91522100Y-94842100D02*
X91522100Y-82901600D01*
X91522100Y-82901600D02*
X91223100Y-82602600D01*
X118158000Y-121960000D02*
X118158000Y-120346400D01*
X118158000Y-120346400D02*
X111171700Y-113360100D01*
X111171700Y-113360100D02*
X111171700Y-109048900D01*
X100584000Y-69088000D02*
X97975500Y-71696500D01*
X97975500Y-71696500D02*
X97975500Y-80026300D01*
X90260000Y-96120000D02*
X89083100Y-94943100D01*
X89083100Y-94943100D02*
X89083100Y-82684000D01*
X113078000Y-121960000D02*
X113078000Y-119044600D01*
X113078000Y-119044600D02*
X108290300Y-114256900D01*
X108290300Y-114256900D02*
X108290300Y-109515400D01*
X103124000Y-69088000D02*
X103124000Y-71160400D01*
X103124000Y-71160400D02*
X102508900Y-71775500D01*
X102508900Y-71775500D02*
X102508900Y-78094700D01*
X154440000Y-49760000D02*
X151515500Y-52684500D01*
X151515500Y-52684500D02*
X151515500Y-62718300D01*
X141740000Y-49760000D02*
X141740000Y-56380900D01*
X141740000Y-56380900D02*
X139504500Y-58616400D01*
X133398000Y-121960000D02*
X134660400Y-120697600D01*
X134660400Y-120697600D02*
X134660400Y-110039600D01*
X134660400Y-110039600D02*
X136700000Y-108000000D01*
X103613900Y-106455000D02*
X103613900Y-101983700D01*
X103613900Y-101983700D02*
X107779700Y-97817900D01*
X107779700Y-97817900D02*
X107779700Y-90827300D01*
X107779700Y-90827300D02*
X108235600Y-90371400D01*
X108235600Y-90371400D02*
X108235600Y-83114600D01*
X108235600Y-83114600D02*
X103582900Y-78461900D01*
X103582900Y-78461900D02*
X103582900Y-77938500D01*
X103582900Y-77938500D02*
X103249000Y-77604600D01*
X103249000Y-77604600D02*
X103249000Y-71977700D01*
X103249000Y-71977700D02*
X105664000Y-69562700D01*
X105664000Y-69562700D02*
X105664000Y-69088000D01*
X103613900Y-106455000D02*
X103308600Y-106455000D01*
X110538000Y-121960000D02*
X110538000Y-120049100D01*
X110538000Y-120049100D02*
X103613900Y-113125000D01*
X103613900Y-113125000D02*
X103613900Y-106455000D01*
X141478000Y-45974000D02*
X141478000Y-46911700D01*
X141478000Y-46911700D02*
X143104600Y-48538300D01*
X143104600Y-48538300D02*
X143104600Y-61279400D01*
X85551900Y-69295900D02*
X90844600Y-74588600D01*
X90844600Y-74588600D02*
X90844600Y-80391900D01*
X90844600Y-80391900D02*
X97880000Y-87427300D01*
X97880000Y-87427300D02*
X97880000Y-88500000D01*
X85551900Y-69295900D02*
X96269600Y-58578200D01*
X96269600Y-58578200D02*
X105284600Y-58578200D01*
X85551900Y-69295900D02*
X85344000Y-69088000D01*
X144927300Y-112472700D02*
X149400000Y-108000000D01*
X116261800Y-98858600D02*
X116261800Y-116873700D01*
X116261800Y-116873700D02*
X118424600Y-119036500D01*
X118424600Y-119036500D02*
X119112200Y-119036500D01*
X119112200Y-119036500D02*
X119112200Y-119036600D01*
X141740000Y-84000000D02*
X141740000Y-73287500D01*
X141740000Y-73287500D02*
X140564700Y-72112200D01*
X140564700Y-72112200D02*
X140564700Y-67873200D01*
X140564700Y-67873200D02*
X141739900Y-66698000D01*
X141739900Y-66698000D02*
X141740000Y-66698000D01*
X141740000Y-66698000D02*
X141740000Y-65000000D01*
X87884000Y-69088000D02*
X87884000Y-70845800D01*
X87884000Y-70845800D02*
X91344900Y-74306700D01*
X91344900Y-74306700D02*
X91344900Y-80184700D01*
X91344900Y-80184700D02*
X97424700Y-86264500D01*
X97424700Y-86264500D02*
X98184500Y-86264500D01*
X98184500Y-86264500D02*
X100420000Y-88500000D01*
X139200000Y-84000000D02*
X139200000Y-72496400D01*
X139200000Y-72496400D02*
X138254700Y-71551100D01*
X146860000Y-108000000D02*
X148439300Y-106420700D01*
X148439300Y-106420700D02*
X149907900Y-106420700D01*
X149907900Y-106420700D02*
X150575400Y-107088200D01*
X150575400Y-107088200D02*
X150575400Y-108751700D01*
X150575400Y-108751700D02*
X151460200Y-109636500D01*
X151460200Y-109636500D02*
X152368700Y-109636500D01*
X152368700Y-109636500D02*
X153123900Y-108881300D01*
X153123900Y-108881300D02*
X153123900Y-102366500D01*
X153123900Y-102366500D02*
X153790400Y-101700000D01*
X153790400Y-101700000D02*
X153790400Y-97223700D01*
X153790400Y-97223700D02*
X154596700Y-96417400D01*
X154596700Y-96417400D02*
X154596700Y-90128600D01*
X102960000Y-88500000D02*
X102960000Y-87414900D01*
X102960000Y-87414900D02*
X100328000Y-84782900D01*
X100328000Y-84782900D02*
X97358300Y-84782900D01*
X97358300Y-84782900D02*
X92595600Y-80020200D01*
X92595600Y-80020200D02*
X92595600Y-72535300D01*
X92595600Y-72535300D02*
X91788600Y-71728300D01*
X91788600Y-71728300D02*
X91788600Y-67243800D01*
X91788600Y-67243800D02*
X92307800Y-66724600D01*
X102960000Y-93598300D02*
X102960000Y-88500000D01*
X135938000Y-121960000D02*
X135938000Y-111302200D01*
X135938000Y-111302200D02*
X138432600Y-108807600D01*
X138432600Y-108807600D02*
X138432600Y-108000000D01*
X138432600Y-108000000D02*
X138432600Y-107596300D01*
X138432600Y-107596300D02*
X136590300Y-105754000D01*
X138432600Y-108000000D02*
X139240000Y-108000000D01*
X90218000Y-121960000D02*
X90218000Y-121046700D01*
X90218000Y-121046700D02*
X93944600Y-117320100D01*
X93944600Y-117320100D02*
X96997500Y-117320100D01*
X96997500Y-117320100D02*
X98057500Y-116260100D01*
X92758000Y-121960000D02*
X92758000Y-120975400D01*
X92758000Y-120975400D02*
X95913000Y-117820400D01*
X95913000Y-117820400D02*
X97724200Y-117820400D01*
X97724200Y-117820400D02*
X98224400Y-117320200D01*
X130858000Y-121960000D02*
X130858000Y-118169100D01*
X130858000Y-118169100D02*
X134160000Y-114867100D01*
X134160000Y-114867100D02*
X134160000Y-108000000D01*
X128318000Y-121960000D02*
X129136700Y-121141300D01*
X129136700Y-121141300D02*
X129136700Y-110483300D01*
X129136700Y-110483300D02*
X131620000Y-108000000D01*
X144320000Y-108000000D02*
X140510000Y-104190000D01*
X140510000Y-104190000D02*
X140510000Y-99575800D01*
X140510000Y-99575800D02*
X138473500Y-97539300D01*
X138473500Y-97539300D02*
X137442900Y-97539300D01*
X137442900Y-97539300D02*
X136760500Y-96856900D01*
X136760500Y-96856900D02*
X136760500Y-84100500D01*
X136760500Y-84100500D02*
X136660000Y-84000000D01*
X136660000Y-84000000D02*
X136660000Y-79081700D01*
X136660000Y-79081700D02*
X135461700Y-77883400D01*
X135461700Y-77883400D02*
X135461700Y-67876000D01*
X135461700Y-67876000D02*
X136660000Y-66677700D01*
X136660000Y-66677700D02*
X136660000Y-65000000D01*
X134120000Y-84000000D02*
X132929400Y-82809400D01*
X132929400Y-82809400D02*
X132929400Y-66190600D01*
X132929400Y-66190600D02*
X134120000Y-65000000D01*
X141780000Y-108000000D02*
X141780000Y-106603500D01*
X141780000Y-106603500D02*
X137970000Y-102793500D01*
X137970000Y-102793500D02*
X137970000Y-99502300D01*
X137970000Y-99502300D02*
X136173400Y-97705700D01*
X136173400Y-97705700D02*
X136173400Y-86053400D01*
X136173400Y-86053400D02*
X134120000Y-84000000D01*
X149400000Y-100380000D02*
X149400000Y-89660700D01*
X149400000Y-89660700D02*
X149191200Y-89451900D01*
X144280000Y-84000000D02*
X143089400Y-82809400D01*
X143089400Y-82809400D02*
X143089400Y-66190600D01*
X143089400Y-66190600D02*
X144280000Y-65000000D01*
X147928200Y-98787200D02*
X146945500Y-97804500D01*
X146945500Y-97804500D02*
X146945500Y-94641400D01*
X146945500Y-94641400D02*
X147333900Y-94253000D01*
X147333900Y-94253000D02*
X147333900Y-93610600D01*
X147333900Y-93610600D02*
X146890000Y-93166700D01*
X146890000Y-93166700D02*
X146890000Y-84000000D01*
X146820000Y-65000000D02*
X146820000Y-66506000D01*
X146820000Y-66506000D02*
X148021500Y-67707500D01*
X148021500Y-67707500D02*
X148021500Y-82868500D01*
X148021500Y-82868500D02*
X146890000Y-84000000D01*
X146890000Y-84000000D02*
X146820000Y-84000000D01*
X157607000Y-34417000D02*
X157607000Y-39243000D01*
X157607000Y-39243000D02*
X153162000Y-43688000D01*
X160907000Y-29417000D02*
X158982200Y-31341800D01*
X158982200Y-31341800D02*
X158982200Y-33041800D01*
X158982200Y-33041800D02*
X157607000Y-34417000D01*
X96940000Y-28460000D02*
X95670000Y-29730000D01*
X95670000Y-29730000D02*
X95670000Y-34970000D01*
X95670000Y-34970000D02*
X99080000Y-38380000D01*
X94400000Y-28460000D02*
X93130000Y-29730000D01*
X93130000Y-29730000D02*
X93130000Y-31490900D01*
X93130000Y-31490900D02*
X95167700Y-33528600D01*
X95167700Y-33528600D02*
X95167700Y-36080100D01*
X95167700Y-36080100D02*
X95270000Y-36182400D01*
X95270000Y-36182400D02*
X95270000Y-44730000D01*
X95270000Y-44730000D02*
X96540000Y-46000000D01*
X105716700Y-48157300D02*
X107851400Y-50292000D01*
X107851400Y-50292000D02*
X109474000Y-50292000D01*
X102020000Y-28460000D02*
X103290000Y-29730000D01*
X103290000Y-29730000D02*
X103290000Y-33857900D01*
X103290000Y-33857900D02*
X105430000Y-35997900D01*
X105430000Y-35997900D02*
X105430000Y-47870600D01*
X105430000Y-47870600D02*
X105716700Y-48157300D01*
X105716700Y-48157300D02*
X102086400Y-51787600D01*
X102086400Y-51787600D02*
X100520300Y-51787600D01*
X100520300Y-51787600D02*
X99314000Y-52993900D01*
X99314000Y-52993900D02*
X99314000Y-54664200D01*
X99314000Y-54664200D02*
X98530900Y-55447300D01*
X98530900Y-55447300D02*
X89483300Y-55447300D01*
X89483300Y-55447300D02*
X87884000Y-53848000D01*
X111523200Y-49087000D02*
X110744000Y-49866200D01*
X110744000Y-49866200D02*
X110744000Y-50739500D01*
X110744000Y-50739500D02*
X109970800Y-51512700D01*
X109970800Y-51512700D02*
X105459300Y-51512700D01*
X105459300Y-51512700D02*
X103124000Y-53848000D01*
X119634000Y-50292000D02*
X118429000Y-49087000D01*
X118429000Y-49087000D02*
X111523200Y-49087000D01*
X104560000Y-28460000D02*
X105830000Y-29730000D01*
X105830000Y-29730000D02*
X105830000Y-34601000D01*
X105830000Y-34601000D02*
X107878600Y-36649600D01*
X107878600Y-36649600D02*
X107878600Y-40578700D01*
X107878600Y-40578700D02*
X110866700Y-43566800D01*
X110866700Y-43566800D02*
X110866700Y-48430500D01*
X110866700Y-48430500D02*
X111523200Y-49087000D01*
X96540000Y-38380000D02*
X97742800Y-39582800D01*
X97742800Y-39582800D02*
X97742800Y-53546800D01*
X97742800Y-53546800D02*
X98044000Y-53848000D01*
X101620000Y-38380000D02*
X102984600Y-39744600D01*
X102984600Y-39744600D02*
X102984600Y-48384900D01*
X102984600Y-48384900D02*
X103675000Y-49075300D01*
X94000000Y-46000000D02*
X94000000Y-52344000D01*
X94000000Y-52344000D02*
X95504000Y-53848000D01*
X122682000Y-31000000D02*
X116620000Y-31000000D01*
X116620000Y-31000000D02*
X109240000Y-38380000D01*
X145796000Y-33086300D02*
X144227400Y-31517700D01*
X144227400Y-31517700D02*
X144227400Y-30400300D01*
X144227400Y-30400300D02*
X143557100Y-29730000D01*
X143557100Y-29730000D02*
X139987100Y-29730000D01*
X139987100Y-29730000D02*
X139199900Y-30517200D01*
X139199900Y-30517200D02*
X139199900Y-33835000D01*
X139199900Y-33835000D02*
X140151900Y-34787000D01*
X140151900Y-34787000D02*
X140151900Y-46863000D01*
X140151900Y-46863000D02*
X138922300Y-48092600D01*
X138922300Y-48092600D02*
X133662700Y-48092600D01*
X133662700Y-48092600D02*
X132850000Y-48905300D01*
X132850000Y-48905300D02*
X132850000Y-51301500D01*
X132850000Y-51301500D02*
X127330000Y-56821500D01*
X145796000Y-35052000D02*
X145796000Y-33086300D01*
X145796000Y-33086300D02*
X145995700Y-33086300D01*
X145995700Y-33086300D02*
X148082000Y-31000000D01*
X143002000Y-31000000D02*
X144018000Y-32016000D01*
X144018000Y-32016000D02*
X144018000Y-38354000D01*
X140462000Y-31000000D02*
X142653400Y-33191400D01*
X142653400Y-33191400D02*
X142653400Y-39239800D01*
X142653400Y-39239800D02*
X144018000Y-40604400D01*
X144018000Y-40604400D02*
X144018000Y-45974000D01*
X137922000Y-31000000D02*
X137668000Y-31254000D01*
X137668000Y-31254000D02*
X137668000Y-44704000D01*
X137668000Y-44704000D02*
X136398000Y-45974000D01*
X135382000Y-31000000D02*
X136398000Y-32016000D01*
X136398000Y-32016000D02*
X136398000Y-38354000D01*
X132842000Y-31000000D02*
X133858000Y-32016000D01*
X133858000Y-32016000D02*
X133858000Y-38354000D01*
X130302000Y-31000000D02*
X132493400Y-33191400D01*
X132493400Y-33191400D02*
X132493400Y-44609400D01*
X132493400Y-44609400D02*
X133858000Y-45974000D01*
X127762000Y-31000000D02*
X127508000Y-31254000D01*
X127508000Y-31254000D02*
X127508000Y-44704000D01*
X127508000Y-44704000D02*
X126238000Y-45974000D01*
X125222000Y-31000000D02*
X125222000Y-37338000D01*
X125222000Y-37338000D02*
X126238000Y-38354000D01*
X77560000Y-96120000D02*
X75304200Y-93864200D01*
X75304200Y-93864200D02*
X75304200Y-67207400D01*
X75304200Y-67207400D02*
X71115600Y-63018800D01*
X85180000Y-88500000D02*
X85180000Y-74234000D01*
X85180000Y-74234000D02*
X82188000Y-71242000D01*
X82188000Y-71242000D02*
X79863400Y-71242000D01*
X79863400Y-71242000D02*
X79088600Y-70467200D01*
X79088600Y-70467200D02*
X79088600Y-57148600D01*
X79088600Y-57148600D02*
X74250000Y-52310000D01*
X87720000Y-88500000D02*
X87313200Y-88500000D01*
X87313200Y-88500000D02*
X85870700Y-87057500D01*
X85870700Y-87057500D02*
X85870700Y-74217000D01*
X85870700Y-74217000D02*
X81439400Y-69785700D01*
X81439400Y-69785700D02*
X81439400Y-57837100D01*
X81439400Y-57837100D02*
X74250000Y-50647700D01*
X74250000Y-50647700D02*
X74250000Y-49540000D01*
X80100000Y-88500000D02*
X78498000Y-90102000D01*
X78498000Y-90102000D02*
X77097100Y-90102000D01*
X77097100Y-90102000D02*
X76378100Y-89383000D01*
X76378100Y-89383000D02*
X76378100Y-66565600D01*
X76378100Y-66565600D02*
X76537000Y-66406700D01*
X76537000Y-66406700D02*
X76537000Y-59034000D01*
X76537000Y-59034000D02*
X73074600Y-55571600D01*
X73074600Y-55571600D02*
X73074600Y-47945400D01*
X73074600Y-47945400D02*
X74250000Y-46770000D01*
X74250000Y-44000000D02*
X77208300Y-46958300D01*
X77208300Y-46958300D02*
X77208300Y-52898100D01*
X77208300Y-52898100D02*
X84074000Y-59763800D01*
X84074000Y-59763800D02*
X84074000Y-71005900D01*
X84074000Y-71005900D02*
X86646000Y-73577900D01*
X86646000Y-73577900D02*
X86646000Y-86736400D01*
X101067800Y-120184100D02*
X99613900Y-120184100D01*
X99613900Y-120184100D02*
X97838000Y-121960000D01*
X129040000Y-49760000D02*
X124588400Y-54211600D01*
X124588400Y-54211600D02*
X124588400Y-61085600D01*
X124588400Y-61085600D02*
X116840000Y-68834000D01*
X131580000Y-49760000D02*
X131580000Y-51861300D01*
X131580000Y-51861300D02*
X127395100Y-56046200D01*
X127395100Y-56046200D02*
X126990500Y-56046200D01*
X126990500Y-56046200D02*
X126385400Y-56651300D01*
X126385400Y-56651300D02*
X126385400Y-62463600D01*
X126385400Y-62463600D02*
X120015000Y-68834000D01*
D33*
X73660000Y-84201000D02*
X73660000Y-86741000D01*
X74088000Y-80645000D02*
X73660000Y-81073000D01*
X73660000Y-81073000D02*
X73660000Y-84201000D01*
X104500000Y-76380000D02*
X104474000Y-76354000D01*
X104474000Y-76354000D02*
X104474000Y-72898000D01*
X104500000Y-76380000D02*
X104500000Y-78600800D01*
X104500000Y-78600800D02*
X107059400Y-81160200D01*
X107059400Y-81160200D02*
X108881000Y-81160200D01*
X108881000Y-81160200D02*
X110850000Y-83129200D01*
X110850000Y-83129200D02*
X110850000Y-86419000D01*
X110850000Y-86419000D02*
X112268000Y-87837000D01*
X73660000Y-94361000D02*
X78161500Y-98862500D01*
X78161500Y-98862500D02*
X86325000Y-98862500D01*
X86325000Y-98862500D02*
X93500000Y-106037500D01*
X126500000Y-68760000D02*
X124306000Y-68760000D01*
X124306000Y-68760000D02*
X123190000Y-67644000D01*
X131580000Y-68760000D02*
X131091800Y-69248200D01*
X131091800Y-69248200D02*
X131091800Y-82100200D01*
X134493000Y-87837000D02*
X134493000Y-90497800D01*
X134493000Y-90497800D02*
X133291300Y-91699500D01*
X108966000Y-96567000D02*
X108966000Y-94140800D01*
X108966000Y-94140800D02*
X112268000Y-90838800D01*
X112268000Y-90838800D02*
X112268000Y-87837000D01*
X116840000Y-53848000D02*
X118065400Y-55073400D01*
X118065400Y-55073400D02*
X118065400Y-59988600D01*
X116840000Y-53801000D02*
X116840000Y-53848000D01*
X116840000Y-53848000D02*
X113284000Y-53848000D01*
X113284000Y-53848000D02*
X113284000Y-51562000D01*
X113284000Y-51562000D02*
X112014000Y-50292000D01*
X93500000Y-106037500D02*
X93500000Y-114218100D01*
X93500000Y-114218100D02*
X95276500Y-115994600D01*
X93933000Y-38346500D02*
X92844500Y-38346500D01*
X92844500Y-38346500D02*
X87376000Y-43815000D01*
X94000000Y-38380000D02*
X93966500Y-38346500D01*
X93966500Y-38346500D02*
X93933000Y-38346500D01*
X93933000Y-38346500D02*
X93933000Y-34798000D01*
X122936000Y-49737000D02*
X122472700Y-49273700D01*
X122472700Y-49273700D02*
X122472700Y-39579300D01*
X122472700Y-39579300D02*
X123698000Y-38354000D01*
X118065400Y-59988600D02*
X116840000Y-61214000D01*
X120015000Y-61214000D02*
X119290800Y-61214000D01*
X119290800Y-61214000D02*
X118065400Y-59988600D01*
X73660000Y-94361000D02*
X72033400Y-92734400D01*
X72033400Y-92734400D02*
X72033400Y-88367600D01*
X72033400Y-88367600D02*
X73660000Y-86741000D01*
D34*
X159258000Y-89726000D02*
X159156600Y-89726000D01*
X159156600Y-89726000D02*
X156713200Y-92169400D01*
X156713200Y-92169400D02*
X156713200Y-95008600D01*
X156713200Y-95008600D02*
X154325400Y-97396400D01*
X154325400Y-97396400D02*
X154325400Y-102295700D01*
X154325400Y-102295700D02*
X153624200Y-102996900D01*
X153624200Y-102996900D02*
X153624200Y-109088500D01*
X153624200Y-109088500D02*
X147712800Y-114999900D01*
X147712800Y-114999900D02*
X144380000Y-114999900D01*
X144380000Y-114999900D02*
X144380000Y-115000000D01*
X144989600Y-117000800D02*
X146419700Y-117000800D01*
X146419700Y-117000800D02*
X154124600Y-109295900D01*
X154124600Y-109295900D02*
X154124600Y-104049800D01*
X154124600Y-104049800D02*
X154825800Y-103348600D01*
X154825800Y-103348600D02*
X154825800Y-97625200D01*
X154825800Y-97625200D02*
X158725000Y-93726000D01*
X158725000Y-93726000D02*
X159258000Y-93726000D01*
X128462000Y-95500000D02*
X125270000Y-98692000D01*
X125270000Y-98692000D02*
X125270000Y-103668400D01*
X125270000Y-103668400D02*
X121229200Y-107709200D01*
X85760300Y-102722800D02*
X84000000Y-100962500D01*
X105664000Y-53848000D02*
X112103500Y-60287500D01*
X112103500Y-60287500D02*
X112103500Y-71173100D01*
X112103500Y-71173100D02*
X115930000Y-74999600D01*
X115930000Y-74999600D02*
X115930000Y-85590700D01*
X115930000Y-85590700D02*
X116953400Y-86614100D01*
X116953400Y-86614100D02*
X116953400Y-91611400D01*
X116953400Y-91611400D02*
X120842000Y-95500000D01*
X106172000Y-113284000D02*
X104991800Y-112103800D01*
X104991800Y-112103800D02*
X104991800Y-106170300D01*
X104991800Y-106170300D02*
X106862700Y-104299400D01*
X106862700Y-104299400D02*
X108198900Y-104299400D01*
X108198900Y-104299400D02*
X112696000Y-99802300D01*
X112696000Y-99802300D02*
X112696000Y-99568000D01*
M02*
