G04 #@! TF.GenerationSoftware,KiCad,Pcbnew,(5.1.6)-1*
G04 #@! TF.CreationDate,2020-10-04T11:52:31+03:00*
G04 #@! TF.ProjectId,PlusD_Clone_1_4,506c7573-445f-4436-9c6f-6e655f315f34,rev?*
G04 #@! TF.SameCoordinates,Original*
G04 #@! TF.FileFunction,Copper,L1,Top*
G04 #@! TF.FilePolarity,Positive*
%FSLAX46Y46*%
G04 Gerber Fmt 4.6, Leading zero omitted, Abs format (unit mm)*
G04 Created by KiCad (PCBNEW (5.1.6)-1) date 2020-10-04 11:52:31*
%MOMM*%
%LPD*%
G01*
G04 APERTURE LIST*
G04 #@! TA.AperFunction,ComponentPad*
%ADD10C,0.800000*%
G04 #@! TD*
G04 #@! TA.AperFunction,ComponentPad*
%ADD11C,7.000000*%
G04 #@! TD*
G04 #@! TA.AperFunction,ComponentPad*
%ADD12O,1.700000X1.700000*%
G04 #@! TD*
G04 #@! TA.AperFunction,ComponentPad*
%ADD13R,1.700000X1.700000*%
G04 #@! TD*
G04 #@! TA.AperFunction,ComponentPad*
%ADD14C,1.400000*%
G04 #@! TD*
G04 #@! TA.AperFunction,ComponentPad*
%ADD15R,1.400000X1.400000*%
G04 #@! TD*
G04 #@! TA.AperFunction,ComponentPad*
%ADD16O,1.600000X2.400000*%
G04 #@! TD*
G04 #@! TA.AperFunction,ComponentPad*
%ADD17R,1.600000X2.400000*%
G04 #@! TD*
G04 #@! TA.AperFunction,ComponentPad*
%ADD18O,3.500000X1.700000*%
G04 #@! TD*
G04 #@! TA.AperFunction,ComponentPad*
%ADD19O,2.500000X1.400000*%
G04 #@! TD*
G04 #@! TA.AperFunction,ComponentPad*
%ADD20R,2.500000X1.400000*%
G04 #@! TD*
G04 #@! TA.AperFunction,ComponentPad*
%ADD21O,1.600000X1.600000*%
G04 #@! TD*
G04 #@! TA.AperFunction,ComponentPad*
%ADD22C,1.600000*%
G04 #@! TD*
G04 #@! TA.AperFunction,ComponentPad*
%ADD23C,4.000000*%
G04 #@! TD*
G04 #@! TA.AperFunction,ComponentPad*
%ADD24R,1.600000X1.600000*%
G04 #@! TD*
G04 #@! TA.AperFunction,ComponentPad*
%ADD25O,2.400000X1.600000*%
G04 #@! TD*
G04 #@! TA.AperFunction,ComponentPad*
%ADD26R,2.400000X1.600000*%
G04 #@! TD*
G04 #@! TA.AperFunction,ComponentPad*
%ADD27C,2.000000*%
G04 #@! TD*
G04 #@! TA.AperFunction,ConnectorPad*
%ADD28O,1.778000X5.080000*%
G04 #@! TD*
G04 #@! TA.AperFunction,ComponentPad*
%ADD29C,1.800000*%
G04 #@! TD*
G04 #@! TA.AperFunction,ComponentPad*
%ADD30R,1.800000X1.800000*%
G04 #@! TD*
G04 #@! TA.AperFunction,ComponentPad*
%ADD31C,1.500000*%
G04 #@! TD*
G04 #@! TA.AperFunction,ViaPad*
%ADD32C,0.800000*%
G04 #@! TD*
G04 #@! TA.AperFunction,Conductor*
%ADD33C,0.350000*%
G04 #@! TD*
G04 #@! TA.AperFunction,Conductor*
%ADD34C,0.250000*%
G04 #@! TD*
G04 APERTURE END LIST*
D10*
X146856155Y-42143845D03*
X145000000Y-41375000D03*
X143143845Y-42143845D03*
X142375000Y-44000000D03*
X143143845Y-45856155D03*
X145000000Y-46625000D03*
X146856155Y-45856155D03*
X147625000Y-44000000D03*
D11*
X145000000Y-44000000D03*
D12*
X153416000Y-46228000D03*
X150876000Y-46228000D03*
X153416000Y-43688000D03*
X150876000Y-43688000D03*
X153416000Y-41148000D03*
X150876000Y-41148000D03*
X153416000Y-38608000D03*
D13*
X150876000Y-38608000D03*
D11*
X83000000Y-37000000D03*
D10*
X85625000Y-37000000D03*
X84856155Y-38856155D03*
X83000000Y-39625000D03*
X81143845Y-38856155D03*
X80375000Y-37000000D03*
X81143845Y-35143845D03*
X83000000Y-34375000D03*
X84856155Y-35143845D03*
G04 #@! TA.AperFunction,SMDPad,CuDef*
G36*
G01*
X94050000Y-102625000D02*
X92950000Y-102625000D01*
G75*
G02*
X92700000Y-102375000I0J250000D01*
G01*
X92700000Y-99550000D01*
G75*
G02*
X92950000Y-99300000I250000J0D01*
G01*
X94050000Y-99300000D01*
G75*
G02*
X94300000Y-99550000I0J-250000D01*
G01*
X94300000Y-102375000D01*
G75*
G02*
X94050000Y-102625000I-250000J0D01*
G01*
G37*
G04 #@! TD.AperFunction*
G04 #@! TA.AperFunction,SMDPad,CuDef*
G36*
G01*
X94050000Y-107700000D02*
X92950000Y-107700000D01*
G75*
G02*
X92700000Y-107450000I0J250000D01*
G01*
X92700000Y-104625000D01*
G75*
G02*
X92950000Y-104375000I250000J0D01*
G01*
X94050000Y-104375000D01*
G75*
G02*
X94300000Y-104625000I0J-250000D01*
G01*
X94300000Y-107450000D01*
G75*
G02*
X94050000Y-107700000I-250000J0D01*
G01*
G37*
G04 #@! TD.AperFunction*
G04 #@! TA.AperFunction,SMDPad,CuDef*
G36*
G01*
X83450000Y-104375000D02*
X84550000Y-104375000D01*
G75*
G02*
X84800000Y-104625000I0J-250000D01*
G01*
X84800000Y-107450000D01*
G75*
G02*
X84550000Y-107700000I-250000J0D01*
G01*
X83450000Y-107700000D01*
G75*
G02*
X83200000Y-107450000I0J250000D01*
G01*
X83200000Y-104625000D01*
G75*
G02*
X83450000Y-104375000I250000J0D01*
G01*
G37*
G04 #@! TD.AperFunction*
G04 #@! TA.AperFunction,SMDPad,CuDef*
G36*
G01*
X83450000Y-99300000D02*
X84550000Y-99300000D01*
G75*
G02*
X84800000Y-99550000I0J-250000D01*
G01*
X84800000Y-102375000D01*
G75*
G02*
X84550000Y-102625000I-250000J0D01*
G01*
X83450000Y-102625000D01*
G75*
G02*
X83200000Y-102375000I0J250000D01*
G01*
X83200000Y-99550000D01*
G75*
G02*
X83450000Y-99300000I250000J0D01*
G01*
G37*
G04 #@! TD.AperFunction*
D14*
X160907000Y-29417000D03*
X160907000Y-31917000D03*
X160907000Y-34417000D03*
X157607000Y-29417000D03*
X157607000Y-31917000D03*
D15*
X157607000Y-34417000D03*
D16*
X126500000Y-49760000D03*
X159520000Y-65000000D03*
X129040000Y-49760000D03*
X156980000Y-65000000D03*
X131580000Y-49760000D03*
X154440000Y-65000000D03*
X134120000Y-49760000D03*
X151900000Y-65000000D03*
X136660000Y-49760000D03*
X149360000Y-65000000D03*
X139200000Y-49760000D03*
X146820000Y-65000000D03*
X141740000Y-49760000D03*
X144280000Y-65000000D03*
X144280000Y-49760000D03*
X141740000Y-65000000D03*
X146820000Y-49760000D03*
X139200000Y-65000000D03*
X149360000Y-49760000D03*
X136660000Y-65000000D03*
X151900000Y-49760000D03*
X134120000Y-65000000D03*
X154440000Y-49760000D03*
X131580000Y-65000000D03*
X156980000Y-49760000D03*
X129040000Y-65000000D03*
X159520000Y-49760000D03*
D17*
X126500000Y-65000000D03*
D18*
X159258000Y-87626000D03*
X159258000Y-95826000D03*
D19*
X159258000Y-89726000D03*
X159258000Y-91726000D03*
D20*
X159258000Y-93726000D03*
D21*
X116840000Y-61214000D03*
D22*
X116840000Y-68834000D03*
D23*
X73950000Y-62040000D03*
X73950000Y-37040000D03*
D22*
X71410000Y-53695000D03*
X71410000Y-50925000D03*
X71410000Y-48155000D03*
X71410000Y-45385000D03*
X74250000Y-55080000D03*
X74250000Y-52310000D03*
X74250000Y-49540000D03*
X74250000Y-46770000D03*
D24*
X74250000Y-44000000D03*
D21*
X73406000Y-68500000D03*
X65786000Y-73580000D03*
X73406000Y-71040000D03*
X65786000Y-71040000D03*
X73406000Y-73580000D03*
D24*
X65786000Y-68500000D03*
D21*
X146177000Y-34544000D03*
D22*
X153797000Y-34544000D03*
D16*
X115762000Y-87880000D03*
X131002000Y-95500000D03*
X118302000Y-87880000D03*
X128462000Y-95500000D03*
X120842000Y-87880000D03*
X125922000Y-95500000D03*
X123382000Y-87880000D03*
X123382000Y-95500000D03*
X125922000Y-87880000D03*
X120842000Y-95500000D03*
X128462000Y-87880000D03*
X118302000Y-95500000D03*
X131002000Y-87880000D03*
D17*
X115762000Y-95500000D03*
D16*
X105500000Y-96120000D03*
X77560000Y-88500000D03*
X102960000Y-96120000D03*
X80100000Y-88500000D03*
X100420000Y-96120000D03*
X82640000Y-88500000D03*
X97880000Y-96120000D03*
X85180000Y-88500000D03*
X95340000Y-96120000D03*
X87720000Y-88500000D03*
X92800000Y-96120000D03*
X90260000Y-88500000D03*
X90260000Y-96120000D03*
X92800000Y-88500000D03*
X87720000Y-96120000D03*
X95340000Y-88500000D03*
X85180000Y-96120000D03*
X97880000Y-88500000D03*
X82640000Y-96120000D03*
X100420000Y-88500000D03*
X80100000Y-96120000D03*
X102960000Y-88500000D03*
X77560000Y-96120000D03*
D17*
X105500000Y-88500000D03*
D25*
X104620000Y-35000000D03*
X97000000Y-50240000D03*
X104620000Y-37540000D03*
X97000000Y-47700000D03*
X104620000Y-40080000D03*
X97000000Y-45160000D03*
X104620000Y-42620000D03*
X97000000Y-42620000D03*
X104620000Y-45160000D03*
X97000000Y-40080000D03*
X104620000Y-47700000D03*
X97000000Y-37540000D03*
X104620000Y-50240000D03*
D26*
X97000000Y-35000000D03*
D25*
X73660000Y-84201000D03*
X66040000Y-99441000D03*
X73660000Y-86741000D03*
X66040000Y-96901000D03*
X73660000Y-89281000D03*
X66040000Y-94361000D03*
X73660000Y-91821000D03*
X66040000Y-91821000D03*
X73660000Y-94361000D03*
X66040000Y-89281000D03*
X73660000Y-96901000D03*
X66040000Y-86741000D03*
X73660000Y-99441000D03*
D26*
X66040000Y-84201000D03*
D21*
X130429000Y-34544000D03*
D22*
X122809000Y-34544000D03*
D16*
X138000000Y-87880000D03*
X153240000Y-95500000D03*
X140540000Y-87880000D03*
X150700000Y-95500000D03*
X143080000Y-87880000D03*
X148160000Y-95500000D03*
X145620000Y-87880000D03*
X145620000Y-95500000D03*
X148160000Y-87880000D03*
X143080000Y-95500000D03*
X150700000Y-87880000D03*
X140540000Y-95500000D03*
X153240000Y-87880000D03*
D17*
X138000000Y-95500000D03*
D10*
X69856155Y-104143845D03*
X68000000Y-103375000D03*
X66143845Y-104143845D03*
X65375000Y-106000000D03*
X66143845Y-107856155D03*
X68000000Y-108625000D03*
X69856155Y-107856155D03*
X70625000Y-106000000D03*
D11*
X68000000Y-106000000D03*
D10*
X159856155Y-104143845D03*
X158000000Y-103375000D03*
X156143845Y-104143845D03*
X155375000Y-106000000D03*
X156143845Y-107856155D03*
X158000000Y-108625000D03*
X159856155Y-107856155D03*
X160625000Y-106000000D03*
D11*
X158000000Y-106000000D03*
D27*
X100500000Y-73000000D03*
X100500000Y-77500000D03*
X94000000Y-73000000D03*
X94000000Y-77500000D03*
X84500000Y-73000000D03*
X84500000Y-77500000D03*
X78000000Y-73000000D03*
X78000000Y-77500000D03*
D16*
X112000000Y-37880000D03*
X134860000Y-45500000D03*
X114540000Y-37880000D03*
X132320000Y-45500000D03*
X117080000Y-37880000D03*
X129780000Y-45500000D03*
X119620000Y-37880000D03*
X127240000Y-45500000D03*
X122160000Y-37880000D03*
X124700000Y-45500000D03*
X124700000Y-37880000D03*
X122160000Y-45500000D03*
X127240000Y-37880000D03*
X119620000Y-45500000D03*
X129780000Y-37880000D03*
X117080000Y-45500000D03*
X132320000Y-37880000D03*
X114540000Y-45500000D03*
X134860000Y-37880000D03*
D17*
X112000000Y-45500000D03*
D16*
X104000000Y-76380000D03*
X121780000Y-84000000D03*
X106540000Y-76380000D03*
X119240000Y-84000000D03*
X109080000Y-76380000D03*
X116700000Y-84000000D03*
X111620000Y-76380000D03*
X114160000Y-84000000D03*
X114160000Y-76380000D03*
X111620000Y-84000000D03*
X116700000Y-76380000D03*
X109080000Y-84000000D03*
X119240000Y-76380000D03*
X106540000Y-84000000D03*
X121780000Y-76380000D03*
D17*
X104000000Y-84000000D03*
D16*
X124000000Y-100380000D03*
X151940000Y-108000000D03*
X126540000Y-100380000D03*
X149400000Y-108000000D03*
X129080000Y-100380000D03*
X146860000Y-108000000D03*
X131620000Y-100380000D03*
X144320000Y-108000000D03*
X134160000Y-100380000D03*
X141780000Y-108000000D03*
X136700000Y-100380000D03*
X139240000Y-108000000D03*
X139240000Y-100380000D03*
X136700000Y-108000000D03*
X141780000Y-100380000D03*
X134160000Y-108000000D03*
X144320000Y-100380000D03*
X131620000Y-108000000D03*
X146860000Y-100380000D03*
X129080000Y-108000000D03*
X149400000Y-100380000D03*
X126540000Y-108000000D03*
X151940000Y-100380000D03*
D17*
X124000000Y-108000000D03*
D16*
X126500000Y-68760000D03*
X159520000Y-84000000D03*
X129040000Y-68760000D03*
X156980000Y-84000000D03*
X131580000Y-68760000D03*
X154440000Y-84000000D03*
X134120000Y-68760000D03*
X151900000Y-84000000D03*
X136660000Y-68760000D03*
X149360000Y-84000000D03*
X139200000Y-68760000D03*
X146820000Y-84000000D03*
X141740000Y-68760000D03*
X144280000Y-84000000D03*
X144280000Y-68760000D03*
X141740000Y-84000000D03*
X146820000Y-68760000D03*
X139200000Y-84000000D03*
X149360000Y-68760000D03*
X136660000Y-84000000D03*
X151900000Y-68760000D03*
X134120000Y-84000000D03*
X154440000Y-68760000D03*
X131580000Y-84000000D03*
X156980000Y-68760000D03*
X129040000Y-84000000D03*
X159520000Y-68760000D03*
D17*
X126500000Y-84000000D03*
D16*
X80264000Y-53848000D03*
X113284000Y-69088000D03*
X82804000Y-53848000D03*
X110744000Y-69088000D03*
X85344000Y-53848000D03*
X108204000Y-69088000D03*
X87884000Y-53848000D03*
X105664000Y-69088000D03*
X90424000Y-53848000D03*
X103124000Y-69088000D03*
X92964000Y-53848000D03*
X100584000Y-69088000D03*
X95504000Y-53848000D03*
X98044000Y-69088000D03*
X98044000Y-53848000D03*
X95504000Y-69088000D03*
X100584000Y-53848000D03*
X92964000Y-69088000D03*
X103124000Y-53848000D03*
X90424000Y-69088000D03*
X105664000Y-53848000D03*
X87884000Y-69088000D03*
X108204000Y-53848000D03*
X85344000Y-69088000D03*
X110744000Y-53848000D03*
X82804000Y-69088000D03*
X113284000Y-53848000D03*
D17*
X80264000Y-69088000D03*
D21*
X120015000Y-61214000D03*
D22*
X120015000Y-68834000D03*
D21*
X87376000Y-43815000D03*
D22*
X79756000Y-43815000D03*
D21*
X113792000Y-106680000D03*
D22*
X106172000Y-106680000D03*
D21*
X113792000Y-109982000D03*
D22*
X106172000Y-109982000D03*
D21*
X106172000Y-113284000D03*
D22*
X113792000Y-113284000D03*
D21*
X87376000Y-46990000D03*
D22*
X79756000Y-46990000D03*
D21*
X117348000Y-49911000D03*
D22*
X109728000Y-49911000D03*
D21*
X91821000Y-50800000D03*
D22*
X91821000Y-43180000D03*
D21*
X87376000Y-50292000D03*
D22*
X79756000Y-50292000D03*
D28*
X95298000Y-121960000D03*
X97838000Y-121960000D03*
X105458000Y-121960000D03*
X113078000Y-121960000D03*
X110538000Y-121960000D03*
X107998000Y-121960000D03*
X115618000Y-121960000D03*
X90218000Y-121960000D03*
X92758000Y-121960000D03*
X102918000Y-121960000D03*
X118158000Y-121960000D03*
X123238000Y-121960000D03*
X120698000Y-121960000D03*
X125778000Y-121960000D03*
X130858000Y-121960000D03*
X128318000Y-121960000D03*
X133398000Y-121960000D03*
X143558000Y-121960000D03*
X138478000Y-121960000D03*
X151178000Y-121960000D03*
X156258000Y-121960000D03*
X158798000Y-121960000D03*
X135938000Y-121960000D03*
X146098000Y-121960000D03*
X148638000Y-121960000D03*
X153718000Y-121960000D03*
X141018000Y-121960000D03*
D12*
X153162000Y-28460000D03*
X153162000Y-31000000D03*
X150622000Y-28460000D03*
X150622000Y-31000000D03*
X148082000Y-28460000D03*
X148082000Y-31000000D03*
X145542000Y-28460000D03*
X145542000Y-31000000D03*
X143002000Y-28460000D03*
X143002000Y-31000000D03*
X140462000Y-28460000D03*
X140462000Y-31000000D03*
X137922000Y-28460000D03*
X137922000Y-31000000D03*
X135382000Y-28460000D03*
X135382000Y-31000000D03*
X132842000Y-28460000D03*
X132842000Y-31000000D03*
X130302000Y-28460000D03*
X130302000Y-31000000D03*
X127762000Y-28460000D03*
X127762000Y-31000000D03*
X125222000Y-28460000D03*
X125222000Y-31000000D03*
X122682000Y-28460000D03*
D13*
X122682000Y-31000000D03*
D22*
X123063000Y-49229000D03*
X123063000Y-54229000D03*
X108966000Y-96567000D03*
X108966000Y-91567000D03*
X134493000Y-87456000D03*
X134493000Y-92456000D03*
X112268000Y-87329000D03*
X112268000Y-92329000D03*
X104474000Y-72898000D03*
X109474000Y-72898000D03*
X112729000Y-34544000D03*
X117729000Y-34544000D03*
X74088000Y-80645000D03*
X69088000Y-80645000D03*
X108331000Y-35005000D03*
X108331000Y-40005000D03*
X120523000Y-99902000D03*
X120523000Y-104902000D03*
X123190000Y-67644000D03*
X123190000Y-72644000D03*
X116840000Y-53293000D03*
X116840000Y-58293000D03*
X112696000Y-99568000D03*
X107696000Y-99568000D03*
D13*
X69000000Y-31000000D03*
D12*
X69000000Y-28460000D03*
X71540000Y-31000000D03*
X71540000Y-28460000D03*
X74080000Y-31000000D03*
X74080000Y-28460000D03*
X76620000Y-31000000D03*
X76620000Y-28460000D03*
X79160000Y-31000000D03*
X79160000Y-28460000D03*
X81700000Y-31000000D03*
X81700000Y-28460000D03*
X84240000Y-31000000D03*
X84240000Y-28460000D03*
X86780000Y-31000000D03*
X86780000Y-28460000D03*
X89320000Y-31000000D03*
X89320000Y-28460000D03*
X91860000Y-31000000D03*
X91860000Y-28460000D03*
X94400000Y-31000000D03*
X94400000Y-28460000D03*
X96940000Y-31000000D03*
X96940000Y-28460000D03*
X99480000Y-31000000D03*
X99480000Y-28460000D03*
X102020000Y-31000000D03*
X102020000Y-28460000D03*
X104560000Y-31000000D03*
X104560000Y-28460000D03*
X107100000Y-31000000D03*
X107100000Y-28460000D03*
X109640000Y-31000000D03*
X109640000Y-28460000D03*
D29*
X141540000Y-37000000D03*
D30*
X139000000Y-37000000D03*
D21*
X126620000Y-115000000D03*
D24*
X119000000Y-115000000D03*
D21*
X131880000Y-115000000D03*
D24*
X139500000Y-115000000D03*
X152000000Y-115000000D03*
D21*
X144380000Y-115000000D03*
D29*
X91540000Y-37000000D03*
D30*
X89000000Y-37000000D03*
D22*
X112696000Y-103124000D03*
X107696000Y-103124000D03*
X102409000Y-113157000D03*
X97409000Y-113157000D03*
D31*
X100500000Y-102000000D03*
X100500000Y-106900000D03*
D32*
X127300600Y-80567800D03*
X123233200Y-118722600D03*
X71628000Y-102362000D03*
X91188200Y-92363800D03*
X133301300Y-98736900D03*
X154572000Y-99058900D03*
X157265300Y-99446600D03*
X158643100Y-42953900D03*
X85950800Y-106693200D03*
X147761100Y-82299200D03*
X143278500Y-89757200D03*
X148359500Y-55465200D03*
X156601700Y-62416800D03*
X154102500Y-98030600D03*
X120564900Y-78052400D03*
X102953500Y-79863200D03*
X102605000Y-37610500D03*
X100563300Y-29916700D03*
X77906900Y-85380900D03*
X116634600Y-30422600D03*
X68980100Y-55078000D03*
X129569400Y-90681100D03*
X71735100Y-91362400D03*
X151210600Y-53779500D03*
X103564100Y-63354900D03*
X92736300Y-65626400D03*
X145129500Y-90580100D03*
X149352000Y-29730000D03*
X149415400Y-53665800D03*
X102770700Y-62176700D03*
X97456300Y-74849000D03*
X96925800Y-85516400D03*
X122101300Y-117701800D03*
X113427200Y-114820800D03*
X103600000Y-74439000D03*
X96448900Y-94371800D03*
X140531000Y-39455400D03*
X141829600Y-93148400D03*
X157886200Y-111893400D03*
X138207100Y-63278000D03*
X150066900Y-97594000D03*
X134838700Y-97722900D03*
X93050300Y-108449200D03*
X91330600Y-118128800D03*
X133579500Y-95249900D03*
X129100100Y-103749200D03*
X130428000Y-113246500D03*
X144990900Y-71404700D03*
X148887200Y-92626700D03*
X156933800Y-111325500D03*
X139771300Y-71586200D03*
X135486200Y-89642800D03*
X140591300Y-105811300D03*
X100021700Y-84492000D03*
X114022000Y-94544600D03*
X154440000Y-70747500D03*
X99238600Y-93356500D03*
X95190800Y-85043000D03*
X100263800Y-117880100D03*
X111851300Y-117880100D03*
X101342600Y-81499000D03*
X111984900Y-79959000D03*
X109465800Y-101253600D03*
X154440000Y-62732700D03*
X103445700Y-107164500D03*
X121183800Y-90338200D03*
X141872900Y-81871600D03*
X142096900Y-62416800D03*
X88895400Y-84562200D03*
X103180000Y-108940300D03*
X141092900Y-70972200D03*
X108805300Y-86576100D03*
X111190300Y-90749800D03*
X119682700Y-92016800D03*
X125005800Y-114363000D03*
X120652000Y-85746700D03*
X138504900Y-79666700D03*
X98956300Y-67183600D03*
X102960000Y-92756100D03*
X129129700Y-98339200D03*
X93243000Y-115134000D03*
X93384800Y-118486400D03*
X95340000Y-93529100D03*
X122224200Y-101733300D03*
X132290100Y-71167100D03*
X114750700Y-42342600D03*
X69556300Y-49497400D03*
X143586000Y-33804900D03*
X129153700Y-32043700D03*
X78551200Y-54201400D03*
X79320100Y-86828300D03*
X100950500Y-118847500D03*
X94601400Y-118599700D03*
X115405700Y-71685100D03*
X127849200Y-104249500D03*
X133914100Y-103653000D03*
X85774500Y-102940400D03*
D33*
X126500000Y-84000000D02*
X127191900Y-84691900D01*
X127191900Y-84691900D02*
X127191900Y-90402500D01*
X127191900Y-90402500D02*
X131002000Y-94212600D01*
X131002000Y-94212600D02*
X131002000Y-95500000D01*
X126500000Y-80567800D02*
X126500000Y-84000000D01*
X123190000Y-72644000D02*
X126500000Y-75954000D01*
X126500000Y-75954000D02*
X126500000Y-80567800D01*
X126500000Y-80567800D02*
X127300600Y-80567800D01*
X71410000Y-50925000D02*
X71410000Y-50183900D01*
X71410000Y-50183900D02*
X70182400Y-48956300D01*
X70182400Y-48956300D02*
X70182400Y-32182400D01*
X89320000Y-31000000D02*
X89320000Y-36680000D01*
X89320000Y-36680000D02*
X89000000Y-37000000D01*
X78000100Y-88500000D02*
X78000100Y-86454900D01*
X78000100Y-86454900D02*
X78732200Y-85722800D01*
X78732200Y-85722800D02*
X78732200Y-78232200D01*
X78732200Y-78232200D02*
X78000000Y-77500000D01*
X116840000Y-55025900D02*
X112000000Y-50185900D01*
X112000000Y-50185900D02*
X112000000Y-45500000D01*
X116840000Y-58293000D02*
X116840000Y-55025900D01*
X116840000Y-55025900D02*
X122266100Y-55025900D01*
X122266100Y-55025900D02*
X123063000Y-54229000D01*
X123063000Y-54229000D02*
X123063000Y-51032100D01*
X123063000Y-51032100D02*
X126095100Y-48000000D01*
X126095100Y-48000000D02*
X132360000Y-48000000D01*
X132360000Y-48000000D02*
X134860000Y-45500000D01*
X123233200Y-118722600D02*
X123233200Y-117666600D01*
X123233200Y-117666600D02*
X120523000Y-114956400D01*
X120523000Y-114956400D02*
X120523000Y-104902000D01*
X65786000Y-68500000D02*
X65786000Y-71040000D01*
X69088000Y-80645000D02*
X69088000Y-74342000D01*
X69088000Y-74342000D02*
X65786000Y-71040000D01*
X153240000Y-95500000D02*
X152776900Y-95963100D01*
X152776900Y-95963100D02*
X152776900Y-98579700D01*
X152776900Y-98579700D02*
X153182100Y-98984900D01*
X153182100Y-98984900D02*
X153182100Y-106757900D01*
X153182100Y-106757900D02*
X151940000Y-108000000D01*
X153240000Y-95500000D02*
X153240000Y-90280000D01*
X153240000Y-90280000D02*
X159520000Y-84000000D01*
X110194100Y-92795100D02*
X108966000Y-91567000D01*
X107696000Y-103124000D02*
X107696000Y-101578600D01*
X107696000Y-101578600D02*
X110194100Y-99080500D01*
X110194100Y-99080500D02*
X110194100Y-92795100D01*
X110194100Y-92795100D02*
X111801900Y-92795100D01*
X111801900Y-92795100D02*
X112268000Y-92329000D01*
X97409000Y-113157000D02*
X97409000Y-104871500D01*
X97409000Y-104871500D02*
X93500000Y-100962500D01*
X159520000Y-65000000D02*
X160749400Y-66229400D01*
X160749400Y-66229400D02*
X160749400Y-82770600D01*
X160749400Y-82770600D02*
X159520000Y-84000000D01*
X78000100Y-88500000D02*
X77560000Y-88500000D01*
X93500000Y-100962500D02*
X90405100Y-100962500D01*
X90405100Y-100962500D02*
X86450000Y-97007400D01*
X86450000Y-97007400D02*
X86450000Y-95232200D01*
X86450000Y-95232200D02*
X83004000Y-91786200D01*
X83004000Y-91786200D02*
X81189900Y-91786200D01*
X81189900Y-91786200D02*
X78000100Y-88596400D01*
X78000100Y-88596400D02*
X78000100Y-88500000D01*
X107100000Y-31000000D02*
X107100000Y-38774000D01*
X107100000Y-38774000D02*
X108331000Y-40005000D01*
X116840000Y-58293000D02*
X113284000Y-61849000D01*
X113284000Y-61849000D02*
X113284000Y-69088000D01*
X117729000Y-31247900D02*
X117729000Y-34544000D01*
X132842000Y-28460000D02*
X131544500Y-27162500D01*
X131544500Y-27162500D02*
X121814400Y-27162500D01*
X121814400Y-27162500D02*
X117729000Y-31247900D01*
X109640000Y-31000000D02*
X109887900Y-31247900D01*
X109887900Y-31247900D02*
X117729000Y-31247900D01*
X69000000Y-31000000D02*
X70182400Y-32182400D01*
X70182400Y-32182400D02*
X70357600Y-32182400D01*
X70357600Y-32182400D02*
X71540000Y-31000000D01*
X97000000Y-50240000D02*
X90088900Y-43328900D01*
X90088900Y-43328900D02*
X90088900Y-38088900D01*
X90088900Y-38088900D02*
X89000000Y-37000000D01*
X69088000Y-80645000D02*
X69088000Y-96393000D01*
X69088000Y-96393000D02*
X66040000Y-99441000D01*
X145542000Y-28460000D02*
X148082000Y-28460000D01*
X66040000Y-99441000D02*
X68707000Y-99441000D01*
X68707000Y-99441000D02*
X71628000Y-102362000D01*
X71628000Y-102362000D02*
X71628000Y-102362000D01*
D34*
X123238000Y-121960000D02*
X124054700Y-121143300D01*
X124054700Y-121143300D02*
X124054700Y-117709700D01*
X124054700Y-117709700D02*
X122063300Y-115718300D01*
X122063300Y-115718300D02*
X122063300Y-103766600D01*
X122063300Y-103766600D02*
X116937400Y-98640700D01*
X116937400Y-98640700D02*
X116937400Y-92934700D01*
X116937400Y-92934700D02*
X114573200Y-90570500D01*
X114573200Y-90570500D02*
X114573200Y-86468000D01*
X114573200Y-86468000D02*
X115346200Y-85695000D01*
X115346200Y-85695000D02*
X115346200Y-82223900D01*
X115346200Y-82223900D02*
X110350000Y-77227700D01*
X110350000Y-77227700D02*
X110350000Y-75576400D01*
X110350000Y-75576400D02*
X105948100Y-71174500D01*
X105948100Y-71174500D02*
X102325500Y-71174500D01*
X102325500Y-71174500D02*
X100500000Y-73000000D01*
X90260000Y-88500000D02*
X90260000Y-84788300D01*
X90260000Y-84788300D02*
X89258600Y-83786900D01*
X89258600Y-83786900D02*
X88839400Y-83786900D01*
X88839400Y-83786900D02*
X82452800Y-77400300D01*
X82452800Y-77400300D02*
X82452800Y-72874300D01*
X82452800Y-72874300D02*
X80264000Y-70685500D01*
X80264000Y-70685500D02*
X80264000Y-69088000D01*
X91188200Y-92363800D02*
X90260000Y-91435600D01*
X90260000Y-91435600D02*
X90260000Y-88500000D01*
X128462000Y-87880000D02*
X128462000Y-90894200D01*
X128462000Y-90894200D02*
X132303900Y-94736100D01*
X132303900Y-94736100D02*
X132303900Y-96577900D01*
X132303900Y-96577900D02*
X134160000Y-98434000D01*
X134160000Y-98434000D02*
X134160000Y-100380000D01*
X121780000Y-76380000D02*
X124557400Y-79157400D01*
X124557400Y-79157400D02*
X124557400Y-88872600D01*
X124557400Y-88872600D02*
X129732000Y-94047200D01*
X129732000Y-94047200D02*
X129732000Y-96337500D01*
X129732000Y-96337500D02*
X130949000Y-97554500D01*
X130949000Y-97554500D02*
X132118900Y-97554500D01*
X132118900Y-97554500D02*
X133301300Y-98736900D01*
X157265300Y-99446600D02*
X154959700Y-99446600D01*
X154959700Y-99446600D02*
X154572000Y-99058900D01*
X134860000Y-37880000D02*
X137020600Y-35719400D01*
X137020600Y-35719400D02*
X142213300Y-35719400D01*
X142213300Y-35719400D02*
X149130600Y-42636700D01*
X149130600Y-42636700D02*
X149130600Y-43724900D01*
X149130600Y-43724900D02*
X150319100Y-44913400D01*
X150319100Y-44913400D02*
X156463600Y-44913400D01*
X156463600Y-44913400D02*
X158423100Y-42953900D01*
X158423100Y-42953900D02*
X158643100Y-42953900D01*
X115762000Y-95500000D02*
X115762000Y-111314000D01*
X115762000Y-111314000D02*
X113792000Y-113284000D01*
X84000000Y-106037500D02*
X85295100Y-106037500D01*
X85295100Y-106037500D02*
X85950800Y-106693200D01*
X147761100Y-82299200D02*
X146820000Y-81358100D01*
X146820000Y-81358100D02*
X146820000Y-68760000D01*
X144320000Y-100380000D02*
X144320000Y-93357700D01*
X144320000Y-93357700D02*
X143278500Y-92316200D01*
X143278500Y-92316200D02*
X143278500Y-89757200D01*
X148359500Y-55465200D02*
X146820000Y-53925700D01*
X146820000Y-53925700D02*
X146820000Y-49760000D01*
X154102500Y-98030600D02*
X159774600Y-98030600D01*
X159774600Y-98030600D02*
X161420600Y-96384600D01*
X161420600Y-96384600D02*
X161420600Y-64787700D01*
X161420600Y-64787700D02*
X159049700Y-62416800D01*
X159049700Y-62416800D02*
X156601700Y-62416800D01*
X100500000Y-77500000D02*
X102863200Y-79863200D01*
X102863200Y-79863200D02*
X102953500Y-79863200D01*
X139000000Y-37000000D02*
X139000000Y-43437400D01*
X139000000Y-43437400D02*
X135177400Y-47260000D01*
X135177400Y-47260000D02*
X134496900Y-47260000D01*
X134496900Y-47260000D02*
X132850000Y-48906900D01*
X132850000Y-48906900D02*
X132850000Y-50603800D01*
X132850000Y-50603800D02*
X125324600Y-58129200D01*
X125324600Y-58129200D02*
X125324600Y-68426600D01*
X125324600Y-68426600D02*
X120564900Y-73186300D01*
X120564900Y-73186300D02*
X120564900Y-78052400D01*
X131620000Y-100380000D02*
X131620000Y-99641000D01*
X131620000Y-99641000D02*
X129121600Y-97142600D01*
X129121600Y-97142600D02*
X128039500Y-97142600D01*
X128039500Y-97142600D02*
X127192000Y-96295100D01*
X127192000Y-96295100D02*
X127192000Y-93763300D01*
X127192000Y-93763300D02*
X122165300Y-88736600D01*
X122165300Y-88736600D02*
X122165300Y-86215500D01*
X122165300Y-86215500D02*
X122964400Y-85416400D01*
X122964400Y-85416400D02*
X122964400Y-80451900D01*
X122964400Y-80451900D02*
X120564900Y-78052400D01*
X76620000Y-28460000D02*
X77889900Y-29729900D01*
X77889900Y-29729900D02*
X77889900Y-39019400D01*
X77889900Y-39019400D02*
X82125000Y-43254500D01*
X82125000Y-43254500D02*
X82125000Y-45041000D01*
X82125000Y-45041000D02*
X87376000Y-50292000D01*
X87376000Y-50292000D02*
X90424000Y-53340000D01*
X90424000Y-53340000D02*
X90424000Y-53848000D01*
X153416000Y-41148000D02*
X153416000Y-43688000D01*
X100563300Y-29916700D02*
X100750000Y-30103400D01*
X100750000Y-30103400D02*
X100750000Y-32225400D01*
X100750000Y-32225400D02*
X102605000Y-34080400D01*
X102605000Y-34080400D02*
X102605000Y-37610500D01*
X91860000Y-28460000D02*
X93129900Y-29729900D01*
X93129900Y-29729900D02*
X93129900Y-43829900D01*
X93129900Y-43829900D02*
X97000000Y-47700000D01*
X107100000Y-28460000D02*
X105874600Y-29685400D01*
X105874600Y-29685400D02*
X103970500Y-29685400D01*
X103970500Y-29685400D02*
X103290000Y-29004900D01*
X103290000Y-29004900D02*
X103290000Y-27967600D01*
X103290000Y-27967600D02*
X101484300Y-26161900D01*
X101484300Y-26161900D02*
X74585100Y-26161900D01*
X74585100Y-26161900D02*
X72810000Y-27937000D01*
X72810000Y-27937000D02*
X72810000Y-29029800D01*
X72810000Y-29029800D02*
X72065200Y-29774600D01*
X72065200Y-29774600D02*
X67984400Y-29774600D01*
X67984400Y-29774600D02*
X64082700Y-33676300D01*
X64082700Y-33676300D02*
X64082700Y-87323700D01*
X64082700Y-87323700D02*
X66040000Y-89281000D01*
X80100000Y-96120000D02*
X76384600Y-92404600D01*
X76384600Y-92404600D02*
X76384600Y-86903200D01*
X76384600Y-86903200D02*
X77906900Y-85380900D01*
X91821000Y-50800000D02*
X89538600Y-48517600D01*
X89538600Y-48517600D02*
X89538600Y-42270800D01*
X89538600Y-42270800D02*
X87670700Y-40402900D01*
X87670700Y-40402900D02*
X87670700Y-32279300D01*
X87670700Y-32279300D02*
X88050000Y-31900000D01*
X88050000Y-31900000D02*
X88050000Y-30455100D01*
X88050000Y-30455100D02*
X88730500Y-29774600D01*
X88730500Y-29774600D02*
X89788100Y-29774600D01*
X89788100Y-29774600D02*
X90590000Y-28972700D01*
X90590000Y-28972700D02*
X90590000Y-27897700D01*
X90590000Y-27897700D02*
X91296700Y-27191000D01*
X91296700Y-27191000D02*
X98211000Y-27191000D01*
X98211000Y-27191000D02*
X99480000Y-28460000D01*
X91821000Y-50800000D02*
X92964000Y-51943000D01*
X92964000Y-51943000D02*
X92964000Y-53848000D01*
X106172000Y-106680000D02*
X109140000Y-106680000D01*
X109140000Y-106680000D02*
X112696000Y-103124000D01*
X119240000Y-76380000D02*
X117664600Y-74804600D01*
X117664600Y-74804600D02*
X116935400Y-74804600D01*
X116935400Y-74804600D02*
X112014000Y-69883200D01*
X112014000Y-69883200D02*
X112014000Y-60996800D01*
X112014000Y-60996800D02*
X106949600Y-55932400D01*
X106949600Y-55932400D02*
X106949600Y-50029600D01*
X106949600Y-50029600D02*
X104620000Y-47700000D01*
X157607000Y-31917000D02*
X155375400Y-29685400D01*
X155375400Y-29685400D02*
X152634500Y-29685400D01*
X152634500Y-29685400D02*
X151847400Y-28898300D01*
X151847400Y-28898300D02*
X151847400Y-27911400D01*
X151847400Y-27911400D02*
X150500300Y-26564300D01*
X150500300Y-26564300D02*
X120492900Y-26564300D01*
X120492900Y-26564300D02*
X116634600Y-30422600D01*
X73660000Y-91821000D02*
X71412600Y-89573600D01*
X71412600Y-89573600D02*
X71412600Y-66953500D01*
X71412600Y-66953500D02*
X68980100Y-64521000D01*
X68980100Y-64521000D02*
X68980100Y-55078000D01*
X129569400Y-90681100D02*
X131002000Y-89248500D01*
X131002000Y-89248500D02*
X131002000Y-87880000D01*
X71735100Y-91362400D02*
X71735100Y-94976100D01*
X71735100Y-94976100D02*
X73660000Y-96901000D01*
X92736300Y-65626400D02*
X101292600Y-65626400D01*
X101292600Y-65626400D02*
X103564100Y-63354900D01*
X151210600Y-53779500D02*
X153192400Y-51797700D01*
X153192400Y-51797700D02*
X153192400Y-48933900D01*
X153192400Y-48933900D02*
X158397100Y-43729200D01*
X158397100Y-43729200D02*
X158964300Y-43729200D01*
X158964300Y-43729200D02*
X159418400Y-43275100D01*
X159418400Y-43275100D02*
X159418400Y-33405600D01*
X159418400Y-33405600D02*
X160907000Y-31917000D01*
X148160000Y-95500000D02*
X148160000Y-93610600D01*
X148160000Y-93610600D02*
X145129500Y-90580100D01*
X150876000Y-41148000D02*
X149352000Y-39624000D01*
X149352000Y-39624000D02*
X149352000Y-29730000D01*
X150876000Y-46228000D02*
X150535400Y-46568600D01*
X150535400Y-46568600D02*
X150535400Y-51943100D01*
X150535400Y-51943100D02*
X149415400Y-53063100D01*
X149415400Y-53063100D02*
X149415400Y-53665800D01*
X84240000Y-28460000D02*
X83010900Y-27230900D01*
X83010900Y-27230900D02*
X76100800Y-27230900D01*
X76100800Y-27230900D02*
X75305400Y-28026300D01*
X75305400Y-28026300D02*
X75305400Y-33029700D01*
X75305400Y-33029700D02*
X76325400Y-34049700D01*
X76325400Y-34049700D02*
X76325400Y-38309400D01*
X76325400Y-38309400D02*
X81124300Y-43108300D01*
X81124300Y-43108300D02*
X81124300Y-46384000D01*
X81124300Y-46384000D02*
X86614000Y-51873700D01*
X86614000Y-51873700D02*
X86614000Y-54723000D01*
X86614000Y-54723000D02*
X94067700Y-62176700D01*
X94067700Y-62176700D02*
X102770700Y-62176700D01*
X105500000Y-88500000D02*
X105500000Y-88081800D01*
X105500000Y-88081800D02*
X101992100Y-84573900D01*
X101992100Y-84573900D02*
X101992100Y-83561800D01*
X101992100Y-83561800D02*
X97456300Y-79026000D01*
X97456300Y-79026000D02*
X97456300Y-74849000D01*
X96612300Y-85516400D02*
X96925800Y-85516400D01*
X96612300Y-85516400D02*
X96612300Y-85112300D01*
X96612300Y-85112300D02*
X84500000Y-73000000D01*
X96448900Y-94371800D02*
X96612300Y-94208400D01*
X96612300Y-94208400D02*
X96612300Y-85516400D01*
X104000000Y-84000000D02*
X104000000Y-78960400D01*
X104000000Y-78960400D02*
X102822700Y-77783100D01*
X102822700Y-77783100D02*
X102822700Y-75216300D01*
X102822700Y-75216300D02*
X103600000Y-74439000D01*
X113427200Y-114820800D02*
X116308200Y-117701800D01*
X116308200Y-117701800D02*
X122101300Y-117701800D01*
X95298000Y-121960000D02*
X95387800Y-121870200D01*
X95387800Y-121870200D02*
X95387800Y-105078600D01*
X95387800Y-105078600D02*
X93351700Y-103042500D01*
X93351700Y-103042500D02*
X91706900Y-103042500D01*
X91706900Y-103042500D02*
X85180000Y-96515600D01*
X85180000Y-96515600D02*
X85180000Y-96120000D01*
X149360000Y-49760000D02*
X148617000Y-50503000D01*
X148617000Y-50503000D02*
X148617000Y-54626300D01*
X148617000Y-54626300D02*
X149134800Y-55144100D01*
X149134800Y-55144100D02*
X149134800Y-55786400D01*
X149134800Y-55786400D02*
X148155700Y-56765500D01*
X148155700Y-56765500D02*
X148155700Y-66658900D01*
X148155700Y-66658900D02*
X149360000Y-67863200D01*
X149360000Y-67863200D02*
X149360000Y-68760000D01*
X149360000Y-49760000D02*
X147551500Y-47951500D01*
X147551500Y-47951500D02*
X143469600Y-47951500D01*
X143469600Y-47951500D02*
X140531000Y-45012900D01*
X140531000Y-45012900D02*
X140531000Y-39455400D01*
X144280000Y-68760000D02*
X142917200Y-70122800D01*
X142917200Y-70122800D02*
X142917200Y-85671300D01*
X142917200Y-85671300D02*
X141829600Y-86758900D01*
X141829600Y-86758900D02*
X141829600Y-93148400D01*
X156258000Y-121960000D02*
X156258000Y-113521600D01*
X156258000Y-113521600D02*
X157886200Y-111893400D01*
X144280000Y-68760000D02*
X143096200Y-67576200D01*
X143096200Y-67576200D02*
X143096200Y-50943800D01*
X143096200Y-50943800D02*
X144280000Y-49760000D01*
X140540000Y-95500000D02*
X140540000Y-94226100D01*
X140540000Y-94226100D02*
X136777200Y-90463300D01*
X136777200Y-90463300D02*
X136777200Y-86731300D01*
X136777200Y-86731300D02*
X137865500Y-85643000D01*
X137865500Y-85643000D02*
X137865500Y-80404600D01*
X137865500Y-80404600D02*
X137716100Y-80255200D01*
X137716100Y-80255200D02*
X137716100Y-70243900D01*
X137716100Y-70243900D02*
X139200000Y-68760000D01*
X138207100Y-63278000D02*
X139200000Y-62285100D01*
X139200000Y-62285100D02*
X139200000Y-49760000D01*
X149360000Y-84000000D02*
X150700000Y-85340000D01*
X150700000Y-85340000D02*
X150700000Y-87880000D01*
X149360000Y-65000000D02*
X149360000Y-66375200D01*
X149360000Y-66375200D02*
X150535400Y-67550600D01*
X150535400Y-67550600D02*
X150535400Y-82824600D01*
X150535400Y-82824600D02*
X149360000Y-84000000D01*
X150700000Y-87880000D02*
X151928400Y-89108400D01*
X151928400Y-89108400D02*
X151928400Y-96335400D01*
X151928400Y-96335400D02*
X150669800Y-97594000D01*
X150669800Y-97594000D02*
X150066900Y-97594000D01*
X129040000Y-84000000D02*
X129040000Y-81210700D01*
X129040000Y-81210700D02*
X127849400Y-80020100D01*
X127849400Y-80020100D02*
X127849400Y-66190600D01*
X127849400Y-66190600D02*
X129040000Y-65000000D01*
X91330600Y-118128800D02*
X91330600Y-110168900D01*
X91330600Y-110168900D02*
X93050300Y-108449200D01*
X129040000Y-84000000D02*
X129242700Y-84000000D01*
X129242700Y-84000000D02*
X132281900Y-87039200D01*
X132281900Y-87039200D02*
X132281900Y-94006400D01*
X132281900Y-94006400D02*
X132804200Y-94528700D01*
X132804200Y-94528700D02*
X132804200Y-95688400D01*
X132804200Y-95688400D02*
X134838700Y-97722900D01*
X130428000Y-113246500D02*
X130428000Y-105077100D01*
X130428000Y-105077100D02*
X129100100Y-103749200D01*
X131580000Y-84000000D02*
X130404600Y-82824600D01*
X130404600Y-82824600D02*
X130404600Y-66175400D01*
X130404600Y-66175400D02*
X131580000Y-65000000D01*
X133579500Y-95249900D02*
X133579500Y-94426100D01*
X133579500Y-94426100D02*
X132782300Y-93628900D01*
X132782300Y-93628900D02*
X132782300Y-85202300D01*
X132782300Y-85202300D02*
X131580000Y-84000000D01*
X148638000Y-121960000D02*
X148638000Y-121048900D01*
X148638000Y-121048900D02*
X143175900Y-115586800D01*
X143175900Y-115586800D02*
X143175900Y-114498100D01*
X143175900Y-114498100D02*
X148075100Y-109598900D01*
X148075100Y-109598900D02*
X148075100Y-105489800D01*
X148075100Y-105489800D02*
X145620000Y-103034700D01*
X145620000Y-103034700D02*
X145620000Y-95500000D01*
X134120000Y-68760000D02*
X132904100Y-67544100D01*
X132904100Y-67544100D02*
X132904100Y-63870900D01*
X132904100Y-63870900D02*
X134120000Y-62655000D01*
X134120000Y-62655000D02*
X134120000Y-49760000D01*
X153718000Y-121960000D02*
X153718000Y-114541300D01*
X153718000Y-114541300D02*
X156933800Y-111325500D01*
X145620000Y-87880000D02*
X145620000Y-72033800D01*
X145620000Y-72033800D02*
X144990900Y-71404700D01*
X148887200Y-92626700D02*
X145620000Y-89359500D01*
X145620000Y-89359500D02*
X145620000Y-87880000D01*
X136660000Y-68760000D02*
X137835400Y-67584600D01*
X137835400Y-67584600D02*
X137835400Y-64113100D01*
X137835400Y-64113100D02*
X136660000Y-62937700D01*
X136660000Y-62937700D02*
X136660000Y-49760000D01*
X140591300Y-105811300D02*
X137970000Y-103190000D01*
X137970000Y-103190000D02*
X137970000Y-98102300D01*
X137970000Y-98102300D02*
X136222100Y-96354400D01*
X136222100Y-96354400D02*
X136222100Y-91323400D01*
X136222100Y-91323400D02*
X135486200Y-90587500D01*
X135486200Y-90587500D02*
X135486200Y-89642800D01*
X140540000Y-87880000D02*
X140540000Y-72354900D01*
X140540000Y-72354900D02*
X139771300Y-71586200D01*
X100021700Y-84492000D02*
X95568200Y-80038500D01*
X95568200Y-80038500D02*
X95568200Y-77051400D01*
X95568200Y-77051400D02*
X90424000Y-71907200D01*
X90424000Y-71907200D02*
X90424000Y-69088000D01*
X101627700Y-94033900D02*
X101627700Y-86718800D01*
X101627700Y-86718800D02*
X100021700Y-85112800D01*
X100021700Y-85112800D02*
X100021700Y-84492000D01*
X101627700Y-94033900D02*
X102960000Y-95366200D01*
X102960000Y-95366200D02*
X102960000Y-96120000D01*
X102918000Y-121960000D02*
X102918000Y-118127500D01*
X102918000Y-118127500D02*
X99089900Y-114299400D01*
X99089900Y-114299400D02*
X99089900Y-99580100D01*
X99089900Y-99580100D02*
X96676600Y-97166800D01*
X96676600Y-97166800D02*
X96676600Y-95258600D01*
X96676600Y-95258600D02*
X97412100Y-94523100D01*
X97412100Y-94523100D02*
X99207700Y-94523100D01*
X99207700Y-94523100D02*
X99696900Y-94033900D01*
X99696900Y-94033900D02*
X101627700Y-94033900D01*
X151900000Y-84000000D02*
X153090600Y-82809400D01*
X153090600Y-82809400D02*
X153090600Y-66190600D01*
X153090600Y-66190600D02*
X151900000Y-65000000D01*
X99238600Y-93356500D02*
X99238600Y-85831700D01*
X99238600Y-85831700D02*
X86664100Y-73257200D01*
X86664100Y-73257200D02*
X86664100Y-68241100D01*
X86664100Y-68241100D02*
X87416200Y-67489000D01*
X87416200Y-67489000D02*
X91365000Y-67489000D01*
X91365000Y-67489000D02*
X92964000Y-69088000D01*
X105458000Y-121960000D02*
X105458000Y-118234000D01*
X105458000Y-118234000D02*
X101228300Y-114004300D01*
X101228300Y-114004300D02*
X101228300Y-112378700D01*
X101228300Y-112378700D02*
X101632200Y-111974800D01*
X101632200Y-111974800D02*
X101632200Y-101414700D01*
X101632200Y-101414700D02*
X100420000Y-100202500D01*
X100420000Y-100202500D02*
X100420000Y-96120000D01*
X114160000Y-84000000D02*
X114022000Y-84138000D01*
X114022000Y-84138000D02*
X114022000Y-94544600D01*
X154440000Y-84000000D02*
X154440000Y-70747500D01*
X102404600Y-97695400D02*
X103493500Y-97695400D01*
X103493500Y-97695400D02*
X104137900Y-97051000D01*
X104137900Y-97051000D02*
X104137900Y-87427400D01*
X104137900Y-87427400D02*
X101491800Y-84781300D01*
X101491800Y-84781300D02*
X101491800Y-83769100D01*
X101491800Y-83769100D02*
X96569000Y-78846300D01*
X96569000Y-78846300D02*
X96569000Y-70153000D01*
X96569000Y-70153000D02*
X95504000Y-69088000D01*
X102404600Y-97695400D02*
X101690000Y-96980800D01*
X101690000Y-96980800D02*
X101690000Y-95323700D01*
X101690000Y-95323700D02*
X100900600Y-94534300D01*
X100900600Y-94534300D02*
X99923800Y-94534300D01*
X99923800Y-94534300D02*
X98338100Y-96120000D01*
X98338100Y-96120000D02*
X97880000Y-96120000D01*
X107998000Y-121960000D02*
X107998000Y-119740000D01*
X107998000Y-119740000D02*
X103967100Y-115709100D01*
X103967100Y-115709100D02*
X103967100Y-112022800D01*
X103967100Y-112022800D02*
X102404600Y-110460300D01*
X102404600Y-110460300D02*
X102404600Y-97695400D01*
X156980000Y-65000000D02*
X158170600Y-66190600D01*
X158170600Y-66190600D02*
X158170600Y-82809400D01*
X158170600Y-82809400D02*
X156980000Y-84000000D01*
X95340000Y-96120000D02*
X94140000Y-94920000D01*
X94140000Y-94920000D02*
X94140000Y-86093800D01*
X94140000Y-86093800D02*
X95190800Y-85043000D01*
X100263800Y-117880100D02*
X98589600Y-116205900D01*
X98589600Y-116205900D02*
X98589600Y-103205200D01*
X98589600Y-103205200D02*
X95340000Y-99955600D01*
X95340000Y-99955600D02*
X95340000Y-96120000D01*
X101342600Y-81499000D02*
X98231600Y-78388000D01*
X98231600Y-78388000D02*
X98231600Y-69275600D01*
X98231600Y-69275600D02*
X98044000Y-69088000D01*
X115618000Y-121960000D02*
X115618000Y-121016900D01*
X115618000Y-121016900D02*
X112481200Y-117880100D01*
X112481200Y-117880100D02*
X111851300Y-117880100D01*
X100584000Y-69088000D02*
X99109600Y-70562400D01*
X99109600Y-70562400D02*
X99109600Y-73558900D01*
X99109600Y-73558900D02*
X99952600Y-74401900D01*
X99952600Y-74401900D02*
X101211800Y-74401900D01*
X101211800Y-74401900D02*
X103928000Y-71685700D01*
X103928000Y-71685700D02*
X104985800Y-71685700D01*
X104985800Y-71685700D02*
X107868300Y-74568200D01*
X107868300Y-74568200D02*
X107868300Y-77259200D01*
X107868300Y-77259200D02*
X110568100Y-79959000D01*
X110568100Y-79959000D02*
X111984900Y-79959000D01*
X111984900Y-79959000D02*
X112945800Y-80919900D01*
X112945800Y-80919900D02*
X112945800Y-84972100D01*
X112945800Y-84972100D02*
X113472100Y-85498400D01*
X113472100Y-85498400D02*
X113472100Y-93294800D01*
X113472100Y-93294800D02*
X113167700Y-93599200D01*
X113167700Y-93599200D02*
X113167700Y-98352700D01*
X156980000Y-68760000D02*
X155798500Y-67578500D01*
X155798500Y-67578500D02*
X155798500Y-50941500D01*
X155798500Y-50941500D02*
X156980000Y-49760000D01*
X113167700Y-98352700D02*
X112148300Y-98352700D01*
X112148300Y-98352700D02*
X109465800Y-101035200D01*
X109465800Y-101035200D02*
X109465800Y-101253600D01*
X118158000Y-121960000D02*
X118158000Y-120977700D01*
X118158000Y-120977700D02*
X112586200Y-115405900D01*
X112586200Y-115405900D02*
X112586200Y-106163900D01*
X112586200Y-106163900D02*
X114436300Y-104313800D01*
X114436300Y-104313800D02*
X114436300Y-99621300D01*
X114436300Y-99621300D02*
X113167700Y-98352700D01*
X90260000Y-96120000D02*
X91967200Y-94412800D01*
X91967200Y-94412800D02*
X91967200Y-90962200D01*
X91967200Y-90962200D02*
X91605800Y-90600800D01*
X91605800Y-90600800D02*
X91605800Y-82658800D01*
X91605800Y-82658800D02*
X83124600Y-74177600D01*
X83124600Y-74177600D02*
X83124600Y-72404900D01*
X83124600Y-72404900D02*
X81626500Y-70906800D01*
X81626500Y-70906800D02*
X81626500Y-68201600D01*
X81626500Y-68201600D02*
X83419900Y-66408200D01*
X83419900Y-66408200D02*
X100444200Y-66408200D01*
X100444200Y-66408200D02*
X103124000Y-69088000D01*
X154440000Y-49760000D02*
X154440000Y-62732700D01*
X113078000Y-121960000D02*
X113078000Y-121048300D01*
X113078000Y-121048300D02*
X110772000Y-118742300D01*
X110772000Y-118742300D02*
X109968000Y-118742300D01*
X109968000Y-118742300D02*
X104996600Y-113770900D01*
X104996600Y-113770900D02*
X104996600Y-108715400D01*
X104996600Y-108715400D02*
X103445700Y-107164500D01*
X136492100Y-108207900D02*
X130268300Y-101984100D01*
X130268300Y-101984100D02*
X128594100Y-101984100D01*
X128594100Y-101984100D02*
X127810000Y-101200000D01*
X127810000Y-101200000D02*
X127810000Y-99579700D01*
X127810000Y-99579700D02*
X124652000Y-96421700D01*
X124652000Y-96421700D02*
X124652000Y-93806400D01*
X124652000Y-93806400D02*
X121183800Y-90338200D01*
X136492100Y-108207900D02*
X136700000Y-108000000D01*
X133398000Y-121960000D02*
X133555800Y-121802200D01*
X133555800Y-121802200D02*
X133555800Y-111144200D01*
X133555800Y-111144200D02*
X136492100Y-108207900D01*
X141740000Y-68760000D02*
X141872900Y-68892900D01*
X141872900Y-68892900D02*
X141872900Y-81871600D01*
X142096900Y-62416800D02*
X141740000Y-62059900D01*
X141740000Y-62059900D02*
X141740000Y-49760000D01*
X114160000Y-76380000D02*
X114160000Y-75905400D01*
X114160000Y-75905400D02*
X108928700Y-70674100D01*
X108928700Y-70674100D02*
X107250100Y-70674100D01*
X107250100Y-70674100D02*
X105664000Y-69088000D01*
X87720000Y-96120000D02*
X88895400Y-94944600D01*
X88895400Y-94944600D02*
X88895400Y-84562200D01*
X110538000Y-121960000D02*
X110538000Y-120745500D01*
X110538000Y-120745500D02*
X104496200Y-114703700D01*
X104496200Y-114703700D02*
X104496200Y-110256500D01*
X104496200Y-110256500D02*
X103180000Y-108940300D01*
X151900000Y-68760000D02*
X151900000Y-67885200D01*
X151900000Y-67885200D02*
X150685500Y-66670700D01*
X150685500Y-66670700D02*
X150685500Y-59086200D01*
X150685500Y-59086200D02*
X150424200Y-58824900D01*
X150424200Y-58824900D02*
X150424200Y-53115600D01*
X150424200Y-53115600D02*
X151900000Y-51639800D01*
X151900000Y-51639800D02*
X151900000Y-49760000D01*
X97880000Y-88500000D02*
X97880000Y-85180800D01*
X97880000Y-85180800D02*
X86163700Y-73464500D01*
X86163700Y-73464500D02*
X86163700Y-69907700D01*
X86163700Y-69907700D02*
X85344000Y-69088000D01*
X119682700Y-92016800D02*
X119639900Y-91974000D01*
X119639900Y-91974000D02*
X119639900Y-86758800D01*
X119639900Y-86758800D02*
X120652000Y-85746700D01*
X125005800Y-114363000D02*
X122824600Y-112181800D01*
X122824600Y-112181800D02*
X122824600Y-103780200D01*
X122824600Y-103780200D02*
X121448900Y-102404500D01*
X121448900Y-102404500D02*
X121448900Y-101412200D01*
X121448900Y-101412200D02*
X122042900Y-100818200D01*
X122042900Y-100818200D02*
X122042900Y-94377000D01*
X122042900Y-94377000D02*
X119682700Y-92016800D01*
X141092900Y-70972200D02*
X141092900Y-83352900D01*
X141092900Y-83352900D02*
X141740000Y-84000000D01*
X111190300Y-90749800D02*
X108805300Y-88364800D01*
X108805300Y-88364800D02*
X108805300Y-86576100D01*
X146860000Y-108000000D02*
X143050000Y-104190000D01*
X143050000Y-104190000D02*
X143050000Y-98814400D01*
X143050000Y-98814400D02*
X141904600Y-97669000D01*
X141904600Y-97669000D02*
X141904600Y-94668500D01*
X141904600Y-94668500D02*
X139200000Y-91963900D01*
X139200000Y-91963900D02*
X139200000Y-84000000D01*
X100420000Y-88500000D02*
X100420000Y-86305400D01*
X100420000Y-86305400D02*
X87884000Y-73769400D01*
X87884000Y-73769400D02*
X87884000Y-69088000D01*
X138504900Y-79666700D02*
X138504900Y-71576500D01*
X138504900Y-71576500D02*
X140388100Y-69693300D01*
X140388100Y-69693300D02*
X140388100Y-66188100D01*
X140388100Y-66188100D02*
X139200000Y-65000000D01*
X138504900Y-79666700D02*
X139200000Y-80361800D01*
X139200000Y-80361800D02*
X139200000Y-84000000D01*
X102960000Y-88500000D02*
X102960000Y-87336100D01*
X102960000Y-87336100D02*
X100991500Y-85367600D01*
X100991500Y-85367600D02*
X100991500Y-84316800D01*
X100991500Y-84316800D02*
X96068600Y-79393900D01*
X96068600Y-79393900D02*
X96068600Y-72678400D01*
X96068600Y-72678400D02*
X94270300Y-70880100D01*
X94270300Y-70880100D02*
X94270300Y-67488900D01*
X98956300Y-67183600D02*
X94575600Y-67183600D01*
X94575600Y-67183600D02*
X94270300Y-67488900D01*
X82804000Y-69088000D02*
X84903400Y-66988600D01*
X84903400Y-66988600D02*
X93770000Y-66988600D01*
X93770000Y-66988600D02*
X94270300Y-67488900D01*
X135938000Y-121960000D02*
X135938000Y-111302000D01*
X135938000Y-111302000D02*
X139001200Y-108238800D01*
X129129700Y-98339200D02*
X130444600Y-99654100D01*
X130444600Y-99654100D02*
X130444600Y-101288300D01*
X130444600Y-101288300D02*
X134525000Y-105368700D01*
X134525000Y-105368700D02*
X136131100Y-105368700D01*
X136131100Y-105368700D02*
X139001200Y-108238800D01*
X102960000Y-88500000D02*
X102960000Y-92756100D01*
X139001200Y-108238800D02*
X139240000Y-108000000D01*
X93243000Y-115134000D02*
X92609500Y-115767500D01*
X92609500Y-115767500D02*
X92609500Y-118361200D01*
X92609500Y-118361200D02*
X90218000Y-120752700D01*
X90218000Y-120752700D02*
X90218000Y-121960000D01*
X92758000Y-121960000D02*
X93384800Y-121333200D01*
X93384800Y-121333200D02*
X93384800Y-118486400D01*
X95340000Y-88500000D02*
X95340000Y-93529100D01*
X133982700Y-108000000D02*
X133982700Y-107535300D01*
X133982700Y-107535300D02*
X128960900Y-102513500D01*
X128960900Y-102513500D02*
X123004400Y-102513500D01*
X123004400Y-102513500D02*
X122224200Y-101733300D01*
X133982700Y-108000000D02*
X133055400Y-108927300D01*
X133055400Y-108927300D02*
X133055400Y-118178300D01*
X133055400Y-118178300D02*
X130858000Y-120375700D01*
X130858000Y-120375700D02*
X130858000Y-121960000D01*
X133982700Y-108000000D02*
X134160000Y-108000000D01*
X128318000Y-121960000D02*
X128318000Y-116799100D01*
X128318000Y-116799100D02*
X131620000Y-113497100D01*
X131620000Y-113497100D02*
X131620000Y-108000000D01*
X144320000Y-108000000D02*
X140510000Y-104190000D01*
X140510000Y-104190000D02*
X140510000Y-98814400D01*
X140510000Y-98814400D02*
X139175300Y-97479700D01*
X139175300Y-97479700D02*
X139175300Y-93569000D01*
X139175300Y-93569000D02*
X136276900Y-90670600D01*
X136276900Y-90670600D02*
X136276900Y-84383100D01*
X136276900Y-84383100D02*
X136660000Y-84000000D01*
X136660000Y-65000000D02*
X135453100Y-66206900D01*
X135453100Y-66206900D02*
X135453100Y-71832300D01*
X135453100Y-71832300D02*
X136660000Y-73039200D01*
X136660000Y-73039200D02*
X136660000Y-84000000D01*
X133912100Y-84000000D02*
X133912100Y-72789100D01*
X133912100Y-72789100D02*
X132290100Y-71167100D01*
X141780000Y-108000000D02*
X141679700Y-108000000D01*
X141679700Y-108000000D02*
X135522000Y-101842300D01*
X135522000Y-101842300D02*
X135522000Y-98896700D01*
X135522000Y-98896700D02*
X135651000Y-98767700D01*
X135651000Y-98767700D02*
X135651000Y-95783300D01*
X135651000Y-95783300D02*
X133282700Y-93415000D01*
X133282700Y-93415000D02*
X133282700Y-84629400D01*
X133282700Y-84629400D02*
X133912100Y-84000000D01*
X133912100Y-84000000D02*
X134120000Y-84000000D01*
X144280000Y-65000000D02*
X145470600Y-66190600D01*
X145470600Y-66190600D02*
X145470600Y-69712300D01*
X145470600Y-69712300D02*
X144205900Y-70977000D01*
X144205900Y-70977000D02*
X144205900Y-83925900D01*
X144205900Y-83925900D02*
X144280000Y-84000000D01*
X149400000Y-100380000D02*
X146890000Y-97870000D01*
X146890000Y-97870000D02*
X146890000Y-94103500D01*
X146890000Y-94103500D02*
X144280000Y-91493500D01*
X144280000Y-91493500D02*
X144280000Y-84000000D01*
X147570300Y-84000000D02*
X147570300Y-83586500D01*
X147570300Y-83586500D02*
X148536400Y-82620400D01*
X148536400Y-82620400D02*
X148536400Y-81978100D01*
X148536400Y-81978100D02*
X148025000Y-81466700D01*
X148025000Y-81466700D02*
X148025000Y-67569300D01*
X148025000Y-67569300D02*
X146820000Y-66364300D01*
X146820000Y-66364300D02*
X146820000Y-65000000D01*
X151940000Y-100380000D02*
X151750200Y-100380000D01*
X151750200Y-100380000D02*
X149266200Y-97896000D01*
X149266200Y-97896000D02*
X149266200Y-97279500D01*
X149266200Y-97279500D02*
X149430000Y-97115700D01*
X149430000Y-97115700D02*
X149430000Y-94156900D01*
X149430000Y-94156900D02*
X149705100Y-93881800D01*
X149705100Y-93881800D02*
X149705100Y-92031800D01*
X149705100Y-92031800D02*
X149430000Y-91756700D01*
X149430000Y-91756700D02*
X149430000Y-87050900D01*
X149430000Y-87050900D02*
X147570300Y-85191200D01*
X147570300Y-85191200D02*
X147570300Y-84000000D01*
X147570300Y-84000000D02*
X146820000Y-84000000D01*
X157607000Y-34417000D02*
X157607000Y-36163900D01*
X157607000Y-36163900D02*
X153892900Y-39878000D01*
X153892900Y-39878000D02*
X152903300Y-39878000D01*
X152903300Y-39878000D02*
X152146000Y-40635300D01*
X152146000Y-40635300D02*
X152146000Y-42418000D01*
X152146000Y-42418000D02*
X150876000Y-43688000D01*
X160907000Y-29417000D02*
X158982200Y-31341800D01*
X158982200Y-31341800D02*
X158982200Y-33041800D01*
X158982200Y-33041800D02*
X157607000Y-34417000D01*
X96940000Y-28460000D02*
X98254600Y-29774600D01*
X98254600Y-29774600D02*
X98254600Y-33714600D01*
X98254600Y-33714600D02*
X101829700Y-37289700D01*
X101829700Y-37289700D02*
X101829700Y-37931600D01*
X101829700Y-37931600D02*
X103978100Y-40080000D01*
X103978100Y-40080000D02*
X104620000Y-40080000D01*
X97000000Y-37540000D02*
X95424600Y-35964600D01*
X95424600Y-35964600D02*
X95424600Y-32604400D01*
X95424600Y-32604400D02*
X95670000Y-32359000D01*
X95670000Y-32359000D02*
X95670000Y-29730000D01*
X95670000Y-29730000D02*
X94400000Y-28460000D01*
X102020000Y-28460000D02*
X100250600Y-26690600D01*
X100250600Y-26690600D02*
X89299000Y-26690600D01*
X89299000Y-26690600D02*
X88050200Y-27939400D01*
X88050200Y-27939400D02*
X88050200Y-29013700D01*
X88050200Y-29013700D02*
X87289300Y-29774600D01*
X87289300Y-29774600D02*
X86190500Y-29774600D01*
X86190500Y-29774600D02*
X85510000Y-30455100D01*
X85510000Y-30455100D02*
X85510000Y-31510400D01*
X85510000Y-31510400D02*
X87170300Y-33170700D01*
X87170300Y-33170700D02*
X87170300Y-41382000D01*
X87170300Y-41382000D02*
X88551400Y-42763100D01*
X88551400Y-42763100D02*
X88551400Y-49725200D01*
X88551400Y-49725200D02*
X91606300Y-52780100D01*
X91606300Y-52780100D02*
X91606300Y-54792900D01*
X91606300Y-54792900D02*
X90959500Y-55439700D01*
X90959500Y-55439700D02*
X89475700Y-55439700D01*
X89475700Y-55439700D02*
X87884000Y-53848000D01*
X104560000Y-28460000D02*
X105837600Y-27182400D01*
X105837600Y-27182400D02*
X107617200Y-27182400D01*
X107617200Y-27182400D02*
X108370000Y-27935200D01*
X108370000Y-27935200D02*
X108370000Y-31730100D01*
X108370000Y-31730100D02*
X110384300Y-33744400D01*
X110384300Y-33744400D02*
X110384300Y-39463100D01*
X110384300Y-39463100D02*
X113175400Y-42254200D01*
X113175400Y-42254200D02*
X113175400Y-46220300D01*
X113175400Y-46220300D02*
X116866100Y-49911000D01*
X116866100Y-49911000D02*
X117348000Y-49911000D01*
X104620000Y-37540000D02*
X106264700Y-39184700D01*
X106264700Y-39184700D02*
X106264700Y-40571700D01*
X106264700Y-40571700D02*
X105486400Y-41350000D01*
X105486400Y-41350000D02*
X103807700Y-41350000D01*
X103807700Y-41350000D02*
X99314000Y-45843700D01*
X99314000Y-45843700D02*
X99314000Y-52578000D01*
X99314000Y-52578000D02*
X98044000Y-53848000D01*
X104620000Y-42620000D02*
X108204000Y-46204000D01*
X108204000Y-46204000D02*
X108204000Y-53848000D01*
X95504000Y-53848000D02*
X98577500Y-50774500D01*
X98577500Y-50774500D02*
X98577500Y-36577500D01*
X98577500Y-36577500D02*
X97000000Y-35000000D01*
X122682000Y-31000000D02*
X122682000Y-32263900D01*
X122682000Y-32263900D02*
X118444600Y-36501300D01*
X118444600Y-36501300D02*
X118444600Y-38648700D01*
X118444600Y-38648700D02*
X114750700Y-42342600D01*
X69556300Y-49497400D02*
X64583100Y-54470600D01*
X64583100Y-54470600D02*
X64583100Y-78788100D01*
X64583100Y-78788100D02*
X67616900Y-81821900D01*
X67616900Y-81821900D02*
X67616900Y-92784100D01*
X67616900Y-92784100D02*
X66040000Y-94361000D01*
X148082000Y-31000000D02*
X146856600Y-32225400D01*
X146856600Y-32225400D02*
X145165500Y-32225400D01*
X145165500Y-32225400D02*
X143586000Y-33804900D01*
X143002000Y-31000000D02*
X141776600Y-29774600D01*
X141776600Y-29774600D02*
X139942500Y-29774600D01*
X139942500Y-29774600D02*
X139236600Y-30480500D01*
X139236600Y-30480500D02*
X139236600Y-31428500D01*
X139236600Y-31428500D02*
X137994800Y-32670300D01*
X137994800Y-32670300D02*
X137267000Y-32670300D01*
X137267000Y-32670300D02*
X132320000Y-37617300D01*
X132320000Y-37617300D02*
X132320000Y-37880000D01*
X140462000Y-31000000D02*
X138291400Y-33170600D01*
X138291400Y-33170600D02*
X137494200Y-33170600D01*
X137494200Y-33170600D02*
X133590000Y-37074800D01*
X133590000Y-37074800D02*
X133590000Y-44230000D01*
X133590000Y-44230000D02*
X132320000Y-45500000D01*
X137922000Y-31000000D02*
X137134100Y-31000000D01*
X137134100Y-31000000D02*
X131050000Y-37084100D01*
X131050000Y-37084100D02*
X131050000Y-39150000D01*
X131050000Y-39150000D02*
X124700000Y-45500000D01*
X129153700Y-32043700D02*
X124700000Y-36497400D01*
X124700000Y-36497400D02*
X124700000Y-37880000D01*
X132842000Y-31000000D02*
X131616600Y-29774600D01*
X131616600Y-29774600D02*
X127244300Y-29774600D01*
X127244300Y-29774600D02*
X126492000Y-30526900D01*
X126492000Y-30526900D02*
X126492000Y-32579500D01*
X126492000Y-32579500D02*
X122160000Y-36911500D01*
X122160000Y-36911500D02*
X122160000Y-37880000D01*
X130302000Y-31000000D02*
X130302000Y-32054100D01*
X130302000Y-32054100D02*
X125970000Y-36386100D01*
X125970000Y-36386100D02*
X125970000Y-38705300D01*
X125970000Y-38705300D02*
X122160000Y-42515300D01*
X122160000Y-42515300D02*
X122160000Y-45500000D01*
X127762000Y-31000000D02*
X127762000Y-32136100D01*
X127762000Y-32136100D02*
X123430000Y-36468100D01*
X123430000Y-36468100D02*
X123430000Y-38700300D01*
X123430000Y-38700300D02*
X119866400Y-42263900D01*
X119866400Y-42263900D02*
X117776100Y-42263900D01*
X117776100Y-42263900D02*
X114540000Y-45500000D01*
X125222000Y-31000000D02*
X123996600Y-29774600D01*
X123996600Y-29774600D02*
X121671200Y-29774600D01*
X121671200Y-29774600D02*
X119963000Y-31482800D01*
X119963000Y-31482800D02*
X119963000Y-34028100D01*
X119963000Y-34028100D02*
X118250100Y-35741000D01*
X118250100Y-35741000D02*
X116679000Y-35741000D01*
X116679000Y-35741000D02*
X114540000Y-37880000D01*
X77560000Y-96120000D02*
X75869300Y-94429300D01*
X75869300Y-94429300D02*
X75869300Y-67798800D01*
X75869300Y-67798800D02*
X71508800Y-63438300D01*
X71508800Y-63438300D02*
X71508800Y-55263100D01*
X71508800Y-55263100D02*
X72585400Y-54186500D01*
X72585400Y-54186500D02*
X72585400Y-46560400D01*
X72585400Y-46560400D02*
X71410000Y-45385000D01*
X85180000Y-88500000D02*
X81853900Y-85173900D01*
X81853900Y-85173900D02*
X81853900Y-73372600D01*
X81853900Y-73372600D02*
X78551200Y-70069900D01*
X78551200Y-70069900D02*
X78551200Y-54201400D01*
X74250000Y-49540000D02*
X76403600Y-51693600D01*
X76403600Y-51693600D02*
X76403600Y-73909700D01*
X76403600Y-73909700D02*
X79425500Y-76931600D01*
X79425500Y-76931600D02*
X79425500Y-86722900D01*
X79425500Y-86722900D02*
X79320100Y-86828300D01*
X74250000Y-46770000D02*
X76935600Y-49455600D01*
X76935600Y-49455600D02*
X76935600Y-69869700D01*
X76935600Y-69869700D02*
X80100000Y-73034100D01*
X80100000Y-73034100D02*
X80100000Y-88500000D01*
X74250000Y-44000000D02*
X77775900Y-47525900D01*
X77775900Y-47525900D02*
X77775900Y-70002300D01*
X77775900Y-70002300D02*
X80901000Y-73127400D01*
X80901000Y-73127400D02*
X80901000Y-86761000D01*
X80901000Y-86761000D02*
X82640000Y-88500000D01*
X100950500Y-118847500D02*
X97838000Y-121960000D01*
X116840000Y-68834000D02*
X118015400Y-67658600D01*
X118015400Y-67658600D02*
X118015400Y-60824400D01*
X118015400Y-60824400D02*
X122563200Y-56276600D01*
X122563200Y-56276600D02*
X122785100Y-56276600D01*
X122785100Y-56276600D02*
X129040000Y-50021700D01*
X129040000Y-50021700D02*
X129040000Y-49760000D01*
X120015000Y-68834000D02*
X118827500Y-67646500D01*
X118827500Y-67646500D02*
X118827500Y-60720100D01*
X118827500Y-60720100D02*
X122770600Y-56777000D01*
X122770600Y-56777000D02*
X124563000Y-56777000D01*
X124563000Y-56777000D02*
X131580000Y-49760000D01*
D33*
X107252900Y-94853900D02*
X106766100Y-94853900D01*
X106766100Y-94853900D02*
X105500000Y-96120000D01*
X108966000Y-96567000D02*
X107252900Y-94853900D01*
X110307000Y-85411000D02*
X110084400Y-85633600D01*
X110084400Y-85633600D02*
X108579700Y-85633600D01*
X108579700Y-85633600D02*
X107252900Y-86960400D01*
X107252900Y-86960400D02*
X107252900Y-94853900D01*
X112268000Y-87329000D02*
X110350000Y-85411000D01*
X110350000Y-85411000D02*
X110307000Y-85411000D01*
X110307000Y-85411000D02*
X110307000Y-82687000D01*
X110307000Y-82687000D02*
X104000000Y-76380000D01*
X131580000Y-68760000D02*
X135390000Y-72570000D01*
X135390000Y-72570000D02*
X135390000Y-86559000D01*
X135390000Y-86559000D02*
X134493000Y-87456000D01*
X120015000Y-61214000D02*
X123190000Y-64389000D01*
X123190000Y-64389000D02*
X123190000Y-67644000D01*
X104474000Y-72898000D02*
X104474000Y-75906000D01*
X104474000Y-75906000D02*
X104000000Y-76380000D01*
X93500000Y-106037500D02*
X94601400Y-107138900D01*
X94601400Y-107138900D02*
X94601400Y-118599700D01*
X73662300Y-94358700D02*
X77748500Y-98445000D01*
X77748500Y-98445000D02*
X84941500Y-98445000D01*
X84941500Y-98445000D02*
X92202000Y-105705500D01*
X92202000Y-105705500D02*
X92374000Y-105705500D01*
X92374000Y-105705500D02*
X92706000Y-106037500D01*
X92706000Y-106037500D02*
X93500000Y-106037500D01*
X123190000Y-67644000D02*
X119148900Y-71685100D01*
X119148900Y-71685100D02*
X115405700Y-71685100D01*
X73660000Y-84201000D02*
X73660000Y-86741000D01*
X74088000Y-80645000D02*
X73660000Y-81073000D01*
X73660000Y-81073000D02*
X73660000Y-84201000D01*
X108331000Y-35005000D02*
X109728000Y-36402000D01*
X109728000Y-36402000D02*
X109728000Y-49911000D01*
X109728000Y-49911000D02*
X113284000Y-53467000D01*
X113284000Y-53467000D02*
X113284000Y-53848000D01*
X115762000Y-87880000D02*
X115762000Y-90749500D01*
X115762000Y-90749500D02*
X119572000Y-94559500D01*
X119572000Y-94559500D02*
X119572000Y-98951000D01*
X119572000Y-98951000D02*
X120523000Y-99902000D01*
X73662300Y-94358700D02*
X73660000Y-94361000D01*
X73660000Y-86741000D02*
X75286900Y-88367900D01*
X75286900Y-88367900D02*
X75286900Y-92734100D01*
X75286900Y-92734100D02*
X73662300Y-94358700D01*
X112000000Y-37880000D02*
X112000000Y-35273000D01*
X112000000Y-35273000D02*
X112729000Y-34544000D01*
X130429000Y-34544000D02*
X128510000Y-36463000D01*
X128510000Y-36463000D02*
X128510000Y-38781300D01*
X128510000Y-38781300D02*
X123430000Y-43861300D01*
X123430000Y-43861300D02*
X123430000Y-48862000D01*
X123430000Y-48862000D02*
X123063000Y-49229000D01*
X123063000Y-49229000D02*
X120904000Y-49229000D01*
X120904000Y-49229000D02*
X116840000Y-53293000D01*
X87376000Y-46990000D02*
X87376000Y-43815000D01*
D34*
X159258000Y-89726000D02*
X159183500Y-89726000D01*
X159183500Y-89726000D02*
X155953200Y-92956300D01*
X155953200Y-92956300D02*
X155953200Y-95083500D01*
X155953200Y-95083500D02*
X153327200Y-97709500D01*
X153327200Y-97709500D02*
X153327200Y-98351600D01*
X153327200Y-98351600D02*
X153739700Y-98764100D01*
X153739700Y-98764100D02*
X153739700Y-108335800D01*
X153739700Y-108335800D02*
X147075500Y-115000000D01*
X147075500Y-115000000D02*
X144380000Y-115000000D01*
X126620000Y-115000000D02*
X127849200Y-113770800D01*
X127849200Y-113770800D02*
X127849200Y-104249500D01*
X128462000Y-95500000D02*
X128462000Y-95775200D01*
X128462000Y-95775200D02*
X130741700Y-98054900D01*
X130741700Y-98054900D02*
X131357600Y-98054900D01*
X131357600Y-98054900D02*
X132795400Y-99492700D01*
X132795400Y-99492700D02*
X132795400Y-102534300D01*
X132795400Y-102534300D02*
X133914100Y-103653000D01*
X84000000Y-100962500D02*
X85774500Y-102737000D01*
X85774500Y-102737000D02*
X85774500Y-102940400D01*
X112696000Y-99568000D02*
X113876700Y-100748700D01*
X113876700Y-100748700D02*
X113876700Y-103635100D01*
X113876700Y-103635100D02*
X108298600Y-109213200D01*
X108298600Y-109213200D02*
X108298600Y-111157400D01*
X108298600Y-111157400D02*
X106172000Y-113284000D01*
X120842000Y-95500000D02*
X120842000Y-94951200D01*
X120842000Y-94951200D02*
X117124400Y-91233600D01*
X117124400Y-91233600D02*
X117124400Y-86456800D01*
X117124400Y-86456800D02*
X117906500Y-85674700D01*
X117906500Y-85674700D02*
X117906500Y-81140600D01*
X117906500Y-81140600D02*
X115402900Y-78637000D01*
X115402900Y-78637000D02*
X115402900Y-75551300D01*
X115402900Y-75551300D02*
X114155900Y-74304300D01*
X114155900Y-74304300D02*
X113852700Y-74304300D01*
X113852700Y-74304300D02*
X109474000Y-69925600D01*
X109474000Y-69925600D02*
X109474000Y-61689000D01*
X109474000Y-61689000D02*
X105664000Y-57879000D01*
X105664000Y-57879000D02*
X105664000Y-53848000D01*
M02*
