G04 #@! TF.GenerationSoftware,KiCad,Pcbnew,(5.1.6)-1*
G04 #@! TF.CreationDate,2020-07-27T09:53:25+03:00*
G04 #@! TF.ProjectId,PlusD_Clone_MOD_1_2,506c7573-445f-4436-9c6f-6e655f4d4f44,rev?*
G04 #@! TF.SameCoordinates,Original*
G04 #@! TF.FileFunction,Copper,L1,Top*
G04 #@! TF.FilePolarity,Positive*
%FSLAX46Y46*%
G04 Gerber Fmt 4.6, Leading zero omitted, Abs format (unit mm)*
G04 Created by KiCad (PCBNEW (5.1.6)-1) date 2020-07-27 09:53:25*
%MOMM*%
%LPD*%
G01*
G04 APERTURE LIST*
G04 #@! TA.AperFunction,ComponentPad*
%ADD10C,1.400000*%
G04 #@! TD*
G04 #@! TA.AperFunction,ComponentPad*
%ADD11R,1.400000X1.400000*%
G04 #@! TD*
G04 #@! TA.AperFunction,ComponentPad*
%ADD12O,1.600000X2.400000*%
G04 #@! TD*
G04 #@! TA.AperFunction,ComponentPad*
%ADD13R,1.600000X2.400000*%
G04 #@! TD*
G04 #@! TA.AperFunction,ComponentPad*
%ADD14O,3.500000X1.700000*%
G04 #@! TD*
G04 #@! TA.AperFunction,ComponentPad*
%ADD15O,2.500000X1.400000*%
G04 #@! TD*
G04 #@! TA.AperFunction,ComponentPad*
%ADD16R,2.500000X1.400000*%
G04 #@! TD*
G04 #@! TA.AperFunction,ComponentPad*
%ADD17O,1.600000X1.600000*%
G04 #@! TD*
G04 #@! TA.AperFunction,ComponentPad*
%ADD18C,1.600000*%
G04 #@! TD*
G04 #@! TA.AperFunction,ComponentPad*
%ADD19C,4.000000*%
G04 #@! TD*
G04 #@! TA.AperFunction,ComponentPad*
%ADD20R,1.600000X1.600000*%
G04 #@! TD*
G04 #@! TA.AperFunction,ComponentPad*
%ADD21O,3.048000X1.524000*%
G04 #@! TD*
G04 #@! TA.AperFunction,ComponentPad*
%ADD22C,7.000000*%
G04 #@! TD*
G04 #@! TA.AperFunction,ComponentPad*
%ADD23C,0.800000*%
G04 #@! TD*
G04 #@! TA.AperFunction,ComponentPad*
%ADD24C,2.000000*%
G04 #@! TD*
G04 #@! TA.AperFunction,ComponentPad*
%ADD25O,1.700000X1.700000*%
G04 #@! TD*
G04 #@! TA.AperFunction,ComponentPad*
%ADD26R,1.700000X1.700000*%
G04 #@! TD*
G04 #@! TA.AperFunction,ConnectorPad*
%ADD27O,1.778000X5.080000*%
G04 #@! TD*
G04 #@! TA.AperFunction,ComponentPad*
%ADD28C,1.800000*%
G04 #@! TD*
G04 #@! TA.AperFunction,ComponentPad*
%ADD29R,1.800000X1.800000*%
G04 #@! TD*
G04 #@! TA.AperFunction,ComponentPad*
%ADD30C,1.500000*%
G04 #@! TD*
G04 #@! TA.AperFunction,ViaPad*
%ADD31C,0.800000*%
G04 #@! TD*
G04 #@! TA.AperFunction,Conductor*
%ADD32C,0.350000*%
G04 #@! TD*
G04 #@! TA.AperFunction,Conductor*
%ADD33C,0.250000*%
G04 #@! TD*
G04 APERTURE END LIST*
D10*
X160907000Y-29417000D03*
X160907000Y-31917000D03*
X160907000Y-34417000D03*
X157607000Y-29417000D03*
X157607000Y-31917000D03*
D11*
X157607000Y-34417000D03*
D12*
X126500000Y-49760000D03*
X159520000Y-65000000D03*
X129040000Y-49760000D03*
X156980000Y-65000000D03*
X131580000Y-49760000D03*
X154440000Y-65000000D03*
X134120000Y-49760000D03*
X151900000Y-65000000D03*
X136660000Y-49760000D03*
X149360000Y-65000000D03*
X139200000Y-49760000D03*
X146820000Y-65000000D03*
X141740000Y-49760000D03*
X144280000Y-65000000D03*
X144280000Y-49760000D03*
X141740000Y-65000000D03*
X146820000Y-49760000D03*
X139200000Y-65000000D03*
X149360000Y-49760000D03*
X136660000Y-65000000D03*
X151900000Y-49760000D03*
X134120000Y-65000000D03*
X154440000Y-49760000D03*
X131580000Y-65000000D03*
X156980000Y-49760000D03*
X129040000Y-65000000D03*
X159520000Y-49760000D03*
D13*
X126500000Y-65000000D03*
D14*
X159258000Y-87626000D03*
X159258000Y-95826000D03*
D15*
X159258000Y-89726000D03*
X159258000Y-91726000D03*
D16*
X159258000Y-93726000D03*
D17*
X85344000Y-83566000D03*
D18*
X77724000Y-83566000D03*
D19*
X73950000Y-62040000D03*
X73950000Y-37040000D03*
D18*
X71410000Y-53695000D03*
X71410000Y-50925000D03*
X71410000Y-48155000D03*
X71410000Y-45385000D03*
X74250000Y-55080000D03*
X74250000Y-52310000D03*
X74250000Y-49540000D03*
X74250000Y-46770000D03*
D20*
X74250000Y-44000000D03*
D21*
X85090000Y-103124000D03*
X85090000Y-105664000D03*
X85090000Y-108204000D03*
G04 #@! TA.AperFunction,SMDPad,CuDef*
G36*
G01*
X103863000Y-109950000D02*
X103863000Y-111050000D01*
G75*
G02*
X103613000Y-111300000I-250000J0D01*
G01*
X100788000Y-111300000D01*
G75*
G02*
X100538000Y-111050000I0J250000D01*
G01*
X100538000Y-109950000D01*
G75*
G02*
X100788000Y-109700000I250000J0D01*
G01*
X103613000Y-109700000D01*
G75*
G02*
X103863000Y-109950000I0J-250000D01*
G01*
G37*
G04 #@! TD.AperFunction*
G04 #@! TA.AperFunction,SMDPad,CuDef*
G36*
G01*
X108938000Y-109950000D02*
X108938000Y-111050000D01*
G75*
G02*
X108688000Y-111300000I-250000J0D01*
G01*
X105863000Y-111300000D01*
G75*
G02*
X105613000Y-111050000I0J250000D01*
G01*
X105613000Y-109950000D01*
G75*
G02*
X105863000Y-109700000I250000J0D01*
G01*
X108688000Y-109700000D01*
G75*
G02*
X108938000Y-109950000I0J-250000D01*
G01*
G37*
G04 #@! TD.AperFunction*
G04 #@! TA.AperFunction,SMDPad,CuDef*
G36*
G01*
X94192000Y-106793000D02*
X95292000Y-106793000D01*
G75*
G02*
X95542000Y-107043000I0J-250000D01*
G01*
X95542000Y-109868000D01*
G75*
G02*
X95292000Y-110118000I-250000J0D01*
G01*
X94192000Y-110118000D01*
G75*
G02*
X93942000Y-109868000I0J250000D01*
G01*
X93942000Y-107043000D01*
G75*
G02*
X94192000Y-106793000I250000J0D01*
G01*
G37*
G04 #@! TD.AperFunction*
G04 #@! TA.AperFunction,SMDPad,CuDef*
G36*
G01*
X94192000Y-101718000D02*
X95292000Y-101718000D01*
G75*
G02*
X95542000Y-101968000I0J-250000D01*
G01*
X95542000Y-104793000D01*
G75*
G02*
X95292000Y-105043000I-250000J0D01*
G01*
X94192000Y-105043000D01*
G75*
G02*
X93942000Y-104793000I0J250000D01*
G01*
X93942000Y-101968000D01*
G75*
G02*
X94192000Y-101718000I250000J0D01*
G01*
G37*
G04 #@! TD.AperFunction*
G04 #@! TA.AperFunction,SMDPad,CuDef*
G36*
G01*
X103863000Y-101450000D02*
X103863000Y-102550000D01*
G75*
G02*
X103613000Y-102800000I-250000J0D01*
G01*
X100788000Y-102800000D01*
G75*
G02*
X100538000Y-102550000I0J250000D01*
G01*
X100538000Y-101450000D01*
G75*
G02*
X100788000Y-101200000I250000J0D01*
G01*
X103613000Y-101200000D01*
G75*
G02*
X103863000Y-101450000I0J-250000D01*
G01*
G37*
G04 #@! TD.AperFunction*
G04 #@! TA.AperFunction,SMDPad,CuDef*
G36*
G01*
X108938000Y-101450000D02*
X108938000Y-102550000D01*
G75*
G02*
X108688000Y-102800000I-250000J0D01*
G01*
X105863000Y-102800000D01*
G75*
G02*
X105613000Y-102550000I0J250000D01*
G01*
X105613000Y-101450000D01*
G75*
G02*
X105863000Y-101200000I250000J0D01*
G01*
X108688000Y-101200000D01*
G75*
G02*
X108938000Y-101450000I0J-250000D01*
G01*
G37*
G04 #@! TD.AperFunction*
D17*
X73406000Y-72898000D03*
X65786000Y-77978000D03*
X73406000Y-75438000D03*
X65786000Y-75438000D03*
X73406000Y-77978000D03*
D20*
X65786000Y-72898000D03*
D17*
X109474000Y-50292000D03*
D18*
X101854000Y-50292000D03*
D12*
X114300000Y-87884000D03*
X129540000Y-95504000D03*
X116840000Y-87884000D03*
X127000000Y-95504000D03*
X119380000Y-87884000D03*
X124460000Y-95504000D03*
X121920000Y-87884000D03*
X121920000Y-95504000D03*
X124460000Y-87884000D03*
X119380000Y-95504000D03*
X127000000Y-87884000D03*
X116840000Y-95504000D03*
X129540000Y-87884000D03*
D13*
X114300000Y-95504000D03*
D12*
X102616000Y-95250000D03*
X74676000Y-87630000D03*
X100076000Y-95250000D03*
X77216000Y-87630000D03*
X97536000Y-95250000D03*
X79756000Y-87630000D03*
X94996000Y-95250000D03*
X82296000Y-87630000D03*
X92456000Y-95250000D03*
X84836000Y-87630000D03*
X89916000Y-95250000D03*
X87376000Y-87630000D03*
X87376000Y-95250000D03*
X89916000Y-87630000D03*
X84836000Y-95250000D03*
X92456000Y-87630000D03*
X82296000Y-95250000D03*
X94996000Y-87630000D03*
X79756000Y-95250000D03*
X97536000Y-87630000D03*
X77216000Y-95250000D03*
X100076000Y-87630000D03*
X74676000Y-95250000D03*
D13*
X102616000Y-87630000D03*
D12*
X80010000Y-38862000D03*
X95250000Y-46482000D03*
X82550000Y-38862000D03*
X92710000Y-46482000D03*
X85090000Y-38862000D03*
X90170000Y-46482000D03*
X87630000Y-38862000D03*
X87630000Y-46482000D03*
X90170000Y-38862000D03*
X85090000Y-46482000D03*
X92710000Y-38862000D03*
X82550000Y-46482000D03*
X95250000Y-38862000D03*
D13*
X80010000Y-46482000D03*
D12*
X106680000Y-38862000D03*
X121920000Y-46482000D03*
X109220000Y-38862000D03*
X119380000Y-46482000D03*
X111760000Y-38862000D03*
X116840000Y-46482000D03*
X114300000Y-38862000D03*
X114300000Y-46482000D03*
X116840000Y-38862000D03*
X111760000Y-46482000D03*
X119380000Y-38862000D03*
X109220000Y-46482000D03*
X121920000Y-38862000D03*
D13*
X106680000Y-46482000D03*
D17*
X153416000Y-35052000D03*
D18*
X145796000Y-35052000D03*
D12*
X137414000Y-88138000D03*
X152654000Y-95758000D03*
X139954000Y-88138000D03*
X150114000Y-95758000D03*
X142494000Y-88138000D03*
X147574000Y-95758000D03*
X145034000Y-88138000D03*
X145034000Y-95758000D03*
X147574000Y-88138000D03*
X142494000Y-95758000D03*
X150114000Y-88138000D03*
X139954000Y-95758000D03*
X152654000Y-88138000D03*
D13*
X137414000Y-95758000D03*
D22*
X101000000Y-44500000D03*
D23*
X103625000Y-44500000D03*
X102856155Y-46356155D03*
X101000000Y-47125000D03*
X99143845Y-46356155D03*
X98375000Y-44500000D03*
X99143845Y-42643845D03*
X101000000Y-41875000D03*
X102856155Y-42643845D03*
X69356155Y-91643845D03*
X67500000Y-90875000D03*
X65643845Y-91643845D03*
X64875000Y-93500000D03*
X65643845Y-95356155D03*
X67500000Y-96125000D03*
X69356155Y-95356155D03*
X70125000Y-93500000D03*
D22*
X67500000Y-93500000D03*
D23*
X159856155Y-110643845D03*
X158000000Y-109875000D03*
X156143845Y-110643845D03*
X155375000Y-112500000D03*
X156143845Y-114356155D03*
X158000000Y-115125000D03*
X159856155Y-114356155D03*
X160625000Y-112500000D03*
D22*
X158000000Y-112500000D03*
D24*
X94000000Y-73500000D03*
X98500000Y-73500000D03*
X94000000Y-80000000D03*
X98500000Y-80000000D03*
X78000000Y-73500000D03*
X82500000Y-73500000D03*
X78000000Y-80000000D03*
X82500000Y-80000000D03*
D12*
X136398000Y-38608000D03*
X159258000Y-46228000D03*
X138938000Y-38608000D03*
X156718000Y-46228000D03*
X141478000Y-38608000D03*
X154178000Y-46228000D03*
X144018000Y-38608000D03*
X151638000Y-46228000D03*
X146558000Y-38608000D03*
X149098000Y-46228000D03*
X149098000Y-38608000D03*
X146558000Y-46228000D03*
X151638000Y-38608000D03*
X144018000Y-46228000D03*
X154178000Y-38608000D03*
X141478000Y-46228000D03*
X156718000Y-38608000D03*
X138938000Y-46228000D03*
X159258000Y-38608000D03*
D13*
X136398000Y-46228000D03*
D12*
X102616000Y-76454000D03*
X120396000Y-84074000D03*
X105156000Y-76454000D03*
X117856000Y-84074000D03*
X107696000Y-76454000D03*
X115316000Y-84074000D03*
X110236000Y-76454000D03*
X112776000Y-84074000D03*
X112776000Y-76454000D03*
X110236000Y-84074000D03*
X115316000Y-76454000D03*
X107696000Y-84074000D03*
X117856000Y-76454000D03*
X105156000Y-84074000D03*
X120396000Y-76454000D03*
D13*
X102616000Y-84074000D03*
D12*
X125730000Y-100076000D03*
X153670000Y-107696000D03*
X128270000Y-100076000D03*
X151130000Y-107696000D03*
X130810000Y-100076000D03*
X148590000Y-107696000D03*
X133350000Y-100076000D03*
X146050000Y-107696000D03*
X135890000Y-100076000D03*
X143510000Y-107696000D03*
X138430000Y-100076000D03*
X140970000Y-107696000D03*
X140970000Y-100076000D03*
X138430000Y-107696000D03*
X143510000Y-100076000D03*
X135890000Y-107696000D03*
X146050000Y-100076000D03*
X133350000Y-107696000D03*
X148590000Y-100076000D03*
X130810000Y-107696000D03*
X151130000Y-100076000D03*
X128270000Y-107696000D03*
X153670000Y-100076000D03*
D13*
X125730000Y-107696000D03*
D12*
X126500000Y-68760000D03*
X159520000Y-84000000D03*
X129040000Y-68760000D03*
X156980000Y-84000000D03*
X131580000Y-68760000D03*
X154440000Y-84000000D03*
X134120000Y-68760000D03*
X151900000Y-84000000D03*
X136660000Y-68760000D03*
X149360000Y-84000000D03*
X139200000Y-68760000D03*
X146820000Y-84000000D03*
X141740000Y-68760000D03*
X144280000Y-84000000D03*
X144280000Y-68760000D03*
X141740000Y-84000000D03*
X146820000Y-68760000D03*
X139200000Y-84000000D03*
X149360000Y-68760000D03*
X136660000Y-84000000D03*
X151900000Y-68760000D03*
X134120000Y-84000000D03*
X154440000Y-68760000D03*
X131580000Y-84000000D03*
X156980000Y-68760000D03*
X129040000Y-84000000D03*
X159520000Y-68760000D03*
D13*
X126500000Y-84000000D03*
D12*
X85852000Y-53848000D03*
X118872000Y-69088000D03*
X88392000Y-53848000D03*
X116332000Y-69088000D03*
X90932000Y-53848000D03*
X113792000Y-69088000D03*
X93472000Y-53848000D03*
X111252000Y-69088000D03*
X96012000Y-53848000D03*
X108712000Y-69088000D03*
X98552000Y-53848000D03*
X106172000Y-69088000D03*
X101092000Y-53848000D03*
X103632000Y-69088000D03*
X103632000Y-53848000D03*
X101092000Y-69088000D03*
X106172000Y-53848000D03*
X98552000Y-69088000D03*
X108712000Y-53848000D03*
X96012000Y-69088000D03*
X111252000Y-53848000D03*
X93472000Y-69088000D03*
X113792000Y-53848000D03*
X90932000Y-69088000D03*
X116332000Y-53848000D03*
X88392000Y-69088000D03*
X118872000Y-53848000D03*
D13*
X85852000Y-69088000D03*
D17*
X96520000Y-83566000D03*
D18*
X88900000Y-83566000D03*
D17*
X79248000Y-49784000D03*
D18*
X79248000Y-57404000D03*
D17*
X119380000Y-106934000D03*
D18*
X111760000Y-106934000D03*
D17*
X119380000Y-110236000D03*
D18*
X111760000Y-110236000D03*
D17*
X66548000Y-83566000D03*
D18*
X74168000Y-83566000D03*
D17*
X82550000Y-57404000D03*
D18*
X82550000Y-49784000D03*
D17*
X119634000Y-50292000D03*
D18*
X112014000Y-50292000D03*
D17*
X99314000Y-50292000D03*
D18*
X91694000Y-50292000D03*
D17*
X95504000Y-35306000D03*
D18*
X87884000Y-35306000D03*
D25*
X123698000Y-35052000D03*
X121158000Y-35052000D03*
X118618000Y-35052000D03*
D26*
X116078000Y-35052000D03*
D27*
X95298000Y-121960000D03*
X97838000Y-121960000D03*
X105458000Y-121960000D03*
X113078000Y-121960000D03*
X110538000Y-121960000D03*
X107998000Y-121960000D03*
X115618000Y-121960000D03*
X90218000Y-121960000D03*
X92758000Y-121960000D03*
X102918000Y-121960000D03*
X118158000Y-121960000D03*
X123238000Y-121960000D03*
X120698000Y-121960000D03*
X125778000Y-121960000D03*
X130858000Y-121960000D03*
X128318000Y-121960000D03*
X133398000Y-121960000D03*
X143558000Y-121960000D03*
X138478000Y-121960000D03*
X151178000Y-121960000D03*
X156258000Y-121960000D03*
X158798000Y-121960000D03*
X135938000Y-121960000D03*
X146098000Y-121960000D03*
X148638000Y-121960000D03*
X153718000Y-121960000D03*
X141018000Y-121960000D03*
D25*
X153162000Y-28460000D03*
X153162000Y-31000000D03*
X150622000Y-28460000D03*
X150622000Y-31000000D03*
X148082000Y-28460000D03*
X148082000Y-31000000D03*
X145542000Y-28460000D03*
X145542000Y-31000000D03*
X143002000Y-28460000D03*
X143002000Y-31000000D03*
X140462000Y-28460000D03*
X140462000Y-31000000D03*
X137922000Y-28460000D03*
X137922000Y-31000000D03*
X135382000Y-28460000D03*
X135382000Y-31000000D03*
X132842000Y-28460000D03*
X132842000Y-31000000D03*
X130302000Y-28460000D03*
X130302000Y-31000000D03*
X127762000Y-28460000D03*
X127762000Y-31000000D03*
X125222000Y-28460000D03*
X125222000Y-31000000D03*
X122682000Y-28460000D03*
D26*
X122682000Y-31000000D03*
D18*
X122682000Y-49356000D03*
X122682000Y-54356000D03*
X106172000Y-95678000D03*
X106172000Y-90678000D03*
X133604000Y-87710000D03*
X133604000Y-92710000D03*
X110744000Y-87456000D03*
X110744000Y-92456000D03*
X102188000Y-73152000D03*
X107188000Y-73152000D03*
X135970000Y-35052000D03*
X140970000Y-35052000D03*
X106252000Y-35560000D03*
X111252000Y-35560000D03*
X79328000Y-35306000D03*
X84328000Y-35306000D03*
X122174000Y-99648000D03*
X122174000Y-104648000D03*
X122682000Y-68406000D03*
X122682000Y-73406000D03*
X122682000Y-56722000D03*
X122682000Y-61722000D03*
X118284000Y-99822000D03*
X113284000Y-99822000D03*
D26*
X69000000Y-31000000D03*
D25*
X69000000Y-28460000D03*
X71540000Y-31000000D03*
X71540000Y-28460000D03*
X74080000Y-31000000D03*
X74080000Y-28460000D03*
X76620000Y-31000000D03*
X76620000Y-28460000D03*
X79160000Y-31000000D03*
X79160000Y-28460000D03*
X81700000Y-31000000D03*
X81700000Y-28460000D03*
X84240000Y-31000000D03*
X84240000Y-28460000D03*
X86780000Y-31000000D03*
X86780000Y-28460000D03*
X89320000Y-31000000D03*
X89320000Y-28460000D03*
X91860000Y-31000000D03*
X91860000Y-28460000D03*
X94400000Y-31000000D03*
X94400000Y-28460000D03*
X96940000Y-31000000D03*
X96940000Y-28460000D03*
X99480000Y-31000000D03*
X99480000Y-28460000D03*
X102020000Y-31000000D03*
X102020000Y-28460000D03*
X104560000Y-31000000D03*
X104560000Y-28460000D03*
X107100000Y-31000000D03*
X107100000Y-28460000D03*
X109640000Y-31000000D03*
X109640000Y-28460000D03*
D26*
X90932000Y-115316000D03*
D25*
X93472000Y-115316000D03*
X96012000Y-115316000D03*
D28*
X132540000Y-37000000D03*
D29*
X130000000Y-37000000D03*
D17*
X121412000Y-114808000D03*
D20*
X113792000Y-114808000D03*
D17*
X123952000Y-114808000D03*
D20*
X131572000Y-114808000D03*
X141732000Y-114808000D03*
D17*
X134112000Y-114808000D03*
D28*
X102040000Y-37000000D03*
D29*
X99500000Y-37000000D03*
D18*
X118284000Y-103378000D03*
X113284000Y-103378000D03*
X123778000Y-111506000D03*
X128778000Y-111506000D03*
X66374000Y-87630000D03*
X71374000Y-87630000D03*
D30*
X80772000Y-63246000D03*
X80772000Y-68146000D03*
D31*
X99890500Y-114345900D03*
X131898500Y-96084500D03*
X132019900Y-77944100D03*
X135484600Y-71187200D03*
X135934000Y-95045500D03*
X149227400Y-74987600D03*
X100726800Y-65580400D03*
X127770000Y-60714200D03*
X159781000Y-43053200D03*
X86454600Y-51552600D03*
X108812400Y-59529200D03*
X98851100Y-99103600D03*
X75698800Y-66044200D03*
X115326700Y-109367600D03*
X103618900Y-99956600D03*
X114035800Y-50236600D03*
X120508900Y-31396900D03*
X123306300Y-47655200D03*
X156206100Y-27478800D03*
X90687600Y-98302900D03*
X78382800Y-69777100D03*
X117802500Y-106244100D03*
X125282100Y-97187500D03*
X128463000Y-113041500D03*
X102934400Y-113976800D03*
X113792000Y-60754700D03*
X75344100Y-77438000D03*
X118207900Y-60720000D03*
X143334800Y-86495500D03*
X155253800Y-96258100D03*
X145212300Y-110107900D03*
X110383300Y-89537100D03*
X117567500Y-114016900D03*
X124152800Y-107166900D03*
X105515400Y-112143700D03*
X95839700Y-117764800D03*
X132637400Y-95323400D03*
X131580000Y-71054800D03*
X153741000Y-91183900D03*
X157098000Y-106670800D03*
X145342100Y-71294400D03*
X154219600Y-92762800D03*
X154256200Y-97496500D03*
X153006800Y-116053400D03*
X103135300Y-103494800D03*
X154368600Y-70693100D03*
X104309600Y-103538300D03*
X107517000Y-81551500D03*
X106168800Y-104038600D03*
X109391000Y-79315200D03*
X125393900Y-79201700D03*
X121367300Y-91438300D03*
X104561000Y-99028700D03*
X113001700Y-108718000D03*
X110393600Y-113060500D03*
X109488300Y-64092300D03*
X106778800Y-78029300D03*
X92132600Y-84091100D03*
X152914600Y-62809100D03*
X135084200Y-103384500D03*
X142700500Y-63125300D03*
X89789600Y-65609200D03*
X109158100Y-113973300D03*
X119175500Y-117327000D03*
X139418700Y-70675700D03*
X139200000Y-79075300D03*
X153092400Y-79075300D03*
X103316400Y-67226200D03*
X90292300Y-113105900D03*
X91110600Y-111379600D03*
X92914000Y-97631600D03*
X127014800Y-105743900D03*
X136660000Y-70686900D03*
X137301300Y-97818400D03*
X140941500Y-102027600D03*
X142192800Y-91519300D03*
X115317700Y-100258900D03*
X118572300Y-116043400D03*
X144930900Y-97753400D03*
X148270900Y-92403500D03*
X153190100Y-103482100D03*
X82401500Y-36485600D03*
X111334300Y-56212100D03*
X105937800Y-49860900D03*
X113067600Y-35637000D03*
X82318200Y-82547700D03*
X82608300Y-83598100D03*
X103776300Y-118186200D03*
X101275300Y-99949400D03*
X125086600Y-89788800D03*
X137065300Y-105840400D03*
X132694500Y-109525100D03*
D32*
X122682000Y-54356000D02*
X121403600Y-55634400D01*
X121403600Y-55634400D02*
X121403600Y-60443600D01*
X121403600Y-60443600D02*
X122682000Y-61722000D01*
X122682000Y-54356000D02*
X121403500Y-53077500D01*
X121403500Y-53077500D02*
X121403500Y-46998500D01*
X121403500Y-46998500D02*
X121920000Y-46482000D01*
X123288400Y-104648000D02*
X122174000Y-104648000D01*
X129540000Y-95504000D02*
X127000000Y-98044000D01*
X127000000Y-98044000D02*
X127000000Y-100996700D01*
X127000000Y-100996700D02*
X123348700Y-104648000D01*
X123348700Y-104648000D02*
X123288400Y-104648000D01*
X128778000Y-111506000D02*
X126900500Y-111506000D01*
X126900500Y-111506000D02*
X123288400Y-107893900D01*
X123288400Y-107893900D02*
X123288400Y-104648000D01*
X126500000Y-84000000D02*
X125730000Y-84770000D01*
X125730000Y-84770000D02*
X125730000Y-89265000D01*
X125730000Y-89265000D02*
X125911900Y-89446900D01*
X125911900Y-89446900D02*
X125911900Y-91875900D01*
X125911900Y-91875900D02*
X129540000Y-95504000D01*
X85090000Y-105664000D02*
X87881500Y-108455500D01*
X87881500Y-108455500D02*
X94742000Y-108455500D01*
X99890500Y-112251100D02*
X98537600Y-112251100D01*
X98537600Y-112251100D02*
X94742000Y-108455500D01*
X102200500Y-110500000D02*
X100449400Y-112251100D01*
X100449400Y-112251100D02*
X99890500Y-112251100D01*
X99890500Y-112251100D02*
X99890500Y-114345900D01*
X122682000Y-61722000D02*
X118872000Y-65532000D01*
X118872000Y-65532000D02*
X118872000Y-69088000D01*
X99500000Y-31020000D02*
X99480000Y-31000000D01*
X99500000Y-37000000D02*
X99500000Y-31020000D01*
X99500000Y-31020000D02*
X102000000Y-31020000D01*
X102000000Y-31020000D02*
X102020000Y-31000000D01*
X113284000Y-103378000D02*
X110744000Y-100838000D01*
X110744000Y-100838000D02*
X110744000Y-92456000D01*
X65786000Y-72898000D02*
X65786000Y-75438000D01*
X71410000Y-50925000D02*
X65786000Y-56549000D01*
X65786000Y-56549000D02*
X65786000Y-72898000D01*
X71374000Y-87630000D02*
X71374000Y-81026000D01*
X71374000Y-81026000D02*
X65786000Y-75438000D01*
X152654000Y-95758000D02*
X152364800Y-96047200D01*
X152364800Y-96047200D02*
X152364800Y-106390800D01*
X152364800Y-106390800D02*
X153670000Y-107696000D01*
X159520000Y-84000000D02*
X152654000Y-90866000D01*
X152654000Y-90866000D02*
X152654000Y-95758000D01*
X118872000Y-69088000D02*
X118872000Y-69596000D01*
X118872000Y-69596000D02*
X122682000Y-73406000D01*
X120396000Y-84074000D02*
X122682000Y-81788000D01*
X122682000Y-81788000D02*
X122682000Y-73406000D01*
X109640000Y-31000000D02*
X111252000Y-32612000D01*
X111252000Y-32612000D02*
X111252000Y-35560000D01*
X136398000Y-46228000D02*
X134719800Y-44549800D01*
X134719800Y-44549800D02*
X134719800Y-34540300D01*
X134719800Y-34540300D02*
X135479900Y-33780200D01*
X135479900Y-33780200D02*
X139698200Y-33780200D01*
X139698200Y-33780200D02*
X140970000Y-35052000D01*
X154465600Y-33778500D02*
X149937600Y-33778500D01*
X149937600Y-33778500D02*
X147432900Y-36283200D01*
X147432900Y-36283200D02*
X142201200Y-36283200D01*
X142201200Y-36283200D02*
X140970000Y-35052000D01*
X159258000Y-46228000D02*
X157988000Y-44958000D01*
X157988000Y-44958000D02*
X157988000Y-37300900D01*
X157988000Y-37300900D02*
X154465600Y-33778500D01*
X150622000Y-28460000D02*
X151943000Y-27139000D01*
X151943000Y-27139000D02*
X153676700Y-27139000D01*
X153676700Y-27139000D02*
X154465600Y-27927900D01*
X154465600Y-27927900D02*
X154465600Y-33778500D01*
X92885300Y-48846700D02*
X91440000Y-47401500D01*
X91440000Y-47401500D02*
X91440000Y-31420000D01*
X91440000Y-31420000D02*
X91860000Y-31000000D01*
X90932000Y-53848000D02*
X92919400Y-51860600D01*
X92919400Y-51860600D02*
X92919400Y-48880900D01*
X92919400Y-48880900D02*
X92885300Y-48846700D01*
X92885300Y-48846700D02*
X95250000Y-46482000D01*
X69000000Y-31000000D02*
X69000000Y-48515000D01*
X69000000Y-48515000D02*
X71410000Y-50925000D01*
X82500000Y-80000000D02*
X82500000Y-73500000D01*
X159258000Y-46228000D02*
X158291400Y-47194600D01*
X158291400Y-47194600D02*
X158291400Y-63771400D01*
X158291400Y-63771400D02*
X159520000Y-65000000D01*
X94400000Y-31000000D02*
X96940000Y-31000000D01*
X84240000Y-31000000D02*
X84328000Y-31088000D01*
X84328000Y-31088000D02*
X84328000Y-35306000D01*
X79160000Y-31000000D02*
X76620000Y-31000000D01*
D33*
X123238000Y-121960000D02*
X123238000Y-121037800D01*
X123238000Y-121037800D02*
X120445300Y-118245100D01*
X120445300Y-118245100D02*
X118970000Y-118245100D01*
X118970000Y-118245100D02*
X116102000Y-115377100D01*
X116102000Y-115377100D02*
X116102000Y-108832000D01*
X116102000Y-108832000D02*
X109849300Y-102579300D01*
X109849300Y-102579300D02*
X109849300Y-101726900D01*
X109849300Y-101726900D02*
X105948400Y-97826000D01*
X105948400Y-97826000D02*
X95494900Y-97826000D01*
X95494900Y-97826000D02*
X93726000Y-96057100D01*
X93726000Y-96057100D02*
X93726000Y-84588000D01*
X93726000Y-84588000D02*
X89720400Y-80582400D01*
X89720400Y-80582400D02*
X89720400Y-68174100D01*
X89720400Y-68174100D02*
X90390000Y-67504500D01*
X90390000Y-67504500D02*
X93964900Y-67504500D01*
X93964900Y-67504500D02*
X94649200Y-68188800D01*
X94649200Y-68188800D02*
X94649200Y-72850800D01*
X94649200Y-72850800D02*
X94000000Y-73500000D01*
X94000000Y-73500000D02*
X94000000Y-80000000D01*
X87376000Y-87630000D02*
X87177800Y-87431800D01*
X87177800Y-87431800D02*
X87177800Y-80966800D01*
X87177800Y-80966800D02*
X85852000Y-79641000D01*
X85852000Y-79641000D02*
X85852000Y-69088000D01*
X131898500Y-96084500D02*
X131898500Y-95775900D01*
X131898500Y-95775900D02*
X127000000Y-90877400D01*
X127000000Y-90877400D02*
X127000000Y-87884000D01*
X132019900Y-77944100D02*
X132797300Y-78721500D01*
X132797300Y-78721500D02*
X132797300Y-85206700D01*
X132797300Y-85206700D02*
X132402500Y-85601500D01*
X132402500Y-85601500D02*
X132402500Y-93201900D01*
X132402500Y-93201900D02*
X133913100Y-94712500D01*
X133913100Y-94712500D02*
X133913100Y-95559100D01*
X133913100Y-95559100D02*
X138430000Y-100076000D01*
X135484600Y-71187200D02*
X135484600Y-94596100D01*
X135484600Y-94596100D02*
X135934000Y-95045500D01*
X149227400Y-74987600D02*
X149227400Y-80704400D01*
X149227400Y-80704400D02*
X148152500Y-81779300D01*
X148152500Y-81779300D02*
X148152500Y-85566500D01*
X148152500Y-85566500D02*
X148938600Y-86352600D01*
X148938600Y-86352600D02*
X148938600Y-90750100D01*
X148938600Y-90750100D02*
X149090600Y-90902100D01*
X149090600Y-90902100D02*
X149090600Y-94138300D01*
X149090600Y-94138300D02*
X148844000Y-94384900D01*
X148844000Y-94384900D02*
X148844000Y-99822000D01*
X148844000Y-99822000D02*
X148590000Y-100076000D01*
X98500000Y-73500000D02*
X99822000Y-72178000D01*
X99822000Y-72178000D02*
X99822000Y-66485200D01*
X99822000Y-66485200D02*
X100726800Y-65580400D01*
X130000000Y-37000000D02*
X127770000Y-39230000D01*
X127770000Y-39230000D02*
X127770000Y-60714200D01*
X98500000Y-73500000D02*
X98500000Y-80000000D01*
X159781000Y-43053200D02*
X161389400Y-44661600D01*
X161389400Y-44661600D02*
X161389400Y-89680200D01*
X161389400Y-89680200D02*
X159343600Y-91726000D01*
X159343600Y-91726000D02*
X159258000Y-91726000D01*
X95504000Y-35306000D02*
X96426600Y-36228600D01*
X96426600Y-36228600D02*
X96426600Y-53433400D01*
X96426600Y-53433400D02*
X96012000Y-53848000D01*
X86780000Y-28460000D02*
X88050000Y-29730000D01*
X88050000Y-29730000D02*
X88050000Y-32497700D01*
X88050000Y-32497700D02*
X86454600Y-34093100D01*
X86454600Y-34093100D02*
X86454600Y-51552600D01*
X89320000Y-28460000D02*
X90590000Y-29730000D01*
X90590000Y-29730000D02*
X90590000Y-38442000D01*
X90590000Y-38442000D02*
X90170000Y-38862000D01*
X91860000Y-28460000D02*
X93085400Y-29685400D01*
X93085400Y-29685400D02*
X93085400Y-34181800D01*
X93085400Y-34181800D02*
X93924100Y-35020500D01*
X93924100Y-35020500D02*
X93924100Y-45267900D01*
X93924100Y-45267900D02*
X92710000Y-46482000D01*
X107100000Y-28460000D02*
X108370000Y-29730000D01*
X108370000Y-29730000D02*
X108370000Y-34894600D01*
X108370000Y-34894600D02*
X110490000Y-37014600D01*
X110490000Y-37014600D02*
X110490000Y-45212000D01*
X110490000Y-45212000D02*
X111760000Y-46482000D01*
X99480000Y-28460000D02*
X98224700Y-29715300D01*
X98224700Y-29715300D02*
X98224700Y-39543500D01*
X98224700Y-39543500D02*
X97120000Y-40648200D01*
X97120000Y-40648200D02*
X97120000Y-48860000D01*
X97120000Y-48860000D02*
X98552000Y-50292000D01*
X98552000Y-50292000D02*
X98552000Y-53848000D01*
X98552000Y-50292000D02*
X99314000Y-50292000D01*
X109423400Y-59529200D02*
X112109600Y-56843000D01*
X112109600Y-56843000D02*
X112109600Y-54705600D01*
X112109600Y-54705600D02*
X111252000Y-53848000D01*
X108812400Y-59529200D02*
X109423400Y-59529200D01*
X119380000Y-95504000D02*
X112963000Y-89087000D01*
X112963000Y-89087000D02*
X112963000Y-87253600D01*
X112963000Y-87253600D02*
X111395100Y-85685700D01*
X111395100Y-85685700D02*
X107219500Y-85685700D01*
X107219500Y-85685700D02*
X106482600Y-84948800D01*
X106482600Y-84948800D02*
X106482600Y-83206600D01*
X106482600Y-83206600D02*
X107362400Y-82326800D01*
X107362400Y-82326800D02*
X107838200Y-82326800D01*
X107838200Y-82326800D02*
X111415000Y-78750000D01*
X111415000Y-78750000D02*
X111415000Y-73045600D01*
X111415000Y-73045600D02*
X110045200Y-71675800D01*
X110045200Y-71675800D02*
X110045200Y-65103300D01*
X110045200Y-65103300D02*
X110263600Y-64884900D01*
X110263600Y-64884900D02*
X110263600Y-60369400D01*
X110263600Y-60369400D02*
X109423400Y-59529200D01*
X118284000Y-99822000D02*
X119380000Y-98726000D01*
X119380000Y-98726000D02*
X119380000Y-95504000D01*
X98851100Y-99103600D02*
X81475300Y-99103600D01*
X81475300Y-99103600D02*
X78486000Y-96114300D01*
X78486000Y-96114300D02*
X78486000Y-86777400D01*
X78486000Y-86777400D02*
X75946000Y-84237400D01*
X75946000Y-84237400D02*
X75946000Y-82495700D01*
X75946000Y-82495700D02*
X72189300Y-78739000D01*
X72189300Y-78739000D02*
X72189300Y-69553700D01*
X72189300Y-69553700D02*
X75698800Y-66044200D01*
X127000000Y-95504000D02*
X127000000Y-96602000D01*
X127000000Y-96602000D02*
X124554600Y-99047400D01*
X124554600Y-99047400D02*
X124554600Y-100384700D01*
X124554600Y-100384700D02*
X120995400Y-103943900D01*
X120995400Y-103943900D02*
X120995400Y-108620600D01*
X120995400Y-108620600D02*
X119380000Y-110236000D01*
X115326700Y-109367600D02*
X115326700Y-108838400D01*
X115326700Y-108838400D02*
X108488300Y-102000000D01*
X108488300Y-102000000D02*
X107275500Y-102000000D01*
X103618900Y-99956600D02*
X102775700Y-99113400D01*
X102775700Y-99113400D02*
X100159600Y-99113400D01*
X100159600Y-99113400D02*
X99388500Y-99884500D01*
X99388500Y-99884500D02*
X79765300Y-99884500D01*
X79765300Y-99884500D02*
X76040600Y-96159800D01*
X76040600Y-96159800D02*
X76040600Y-85438600D01*
X76040600Y-85438600D02*
X74168000Y-83566000D01*
X102200500Y-102000000D02*
X103618900Y-100581600D01*
X103618900Y-100581600D02*
X103618900Y-99956600D01*
X117856000Y-76454000D02*
X115156600Y-73754600D01*
X115156600Y-73754600D02*
X115156600Y-51357400D01*
X115156600Y-51357400D02*
X114035800Y-50236600D01*
X107696000Y-84074000D02*
X113966300Y-77803700D01*
X113966300Y-77803700D02*
X113966300Y-72208500D01*
X113966300Y-72208500D02*
X112612100Y-70854300D01*
X112612100Y-70854300D02*
X112612100Y-52875900D01*
X112612100Y-52875900D02*
X113195300Y-52292700D01*
X113195300Y-52292700D02*
X113195300Y-48875600D01*
X113195300Y-48875600D02*
X113030000Y-48710300D01*
X113030000Y-48710300D02*
X113030000Y-40132000D01*
X113030000Y-40132000D02*
X111760000Y-38862000D01*
X114300000Y-38862000D02*
X114567900Y-38862000D01*
X114567900Y-38862000D02*
X117303400Y-36126500D01*
X117303400Y-36126500D02*
X117303400Y-34602400D01*
X117303400Y-34602400D02*
X120508900Y-31396900D01*
X123306300Y-47655200D02*
X124567700Y-48916600D01*
X124567700Y-48916600D02*
X124567700Y-71159800D01*
X124567700Y-71159800D02*
X127675400Y-74267500D01*
X127675400Y-74267500D02*
X127675400Y-86019400D01*
X127675400Y-86019400D02*
X129540000Y-87884000D01*
X115316000Y-84074000D02*
X119052300Y-80337700D01*
X119052300Y-80337700D02*
X119052300Y-73062900D01*
X119052300Y-73062900D02*
X117602000Y-71612600D01*
X117602000Y-71612600D02*
X117602000Y-67710000D01*
X117602000Y-67710000D02*
X117432000Y-67540000D01*
X117432000Y-67540000D02*
X117432000Y-60343600D01*
X117432000Y-60343600D02*
X117517000Y-60258600D01*
X117517000Y-60258600D02*
X117517000Y-52907400D01*
X117517000Y-52907400D02*
X115624900Y-51015300D01*
X115624900Y-51015300D02*
X115624900Y-42617100D01*
X115624900Y-42617100D02*
X119380000Y-38862000D01*
X107696000Y-76454000D02*
X108380000Y-75770000D01*
X108380000Y-75770000D02*
X108380000Y-71919500D01*
X108380000Y-71919500D02*
X107536600Y-71076100D01*
X107536600Y-71076100D02*
X107536600Y-52929500D01*
X107536600Y-52929500D02*
X108954000Y-51512100D01*
X108954000Y-51512100D02*
X109916100Y-51512100D01*
X109916100Y-51512100D02*
X110664300Y-50763900D01*
X110664300Y-50763900D02*
X110664300Y-47926300D01*
X110664300Y-47926300D02*
X109220000Y-46482000D01*
X121920000Y-38862000D02*
X129076600Y-31705400D01*
X129076600Y-31705400D02*
X129076600Y-30491400D01*
X129076600Y-30491400D02*
X129882600Y-29685400D01*
X129882600Y-29685400D02*
X130891500Y-29685400D01*
X130891500Y-29685400D02*
X131572000Y-29004900D01*
X131572000Y-29004900D02*
X131572000Y-27898400D01*
X131572000Y-27898400D02*
X132897000Y-26573400D01*
X132897000Y-26573400D02*
X155300700Y-26573400D01*
X155300700Y-26573400D02*
X156206100Y-27478800D01*
X90687600Y-98302900D02*
X85813200Y-98302900D01*
X85813200Y-98302900D02*
X83471400Y-95961100D01*
X83471400Y-95961100D02*
X83471400Y-86619100D01*
X83471400Y-86619100D02*
X80124000Y-83271700D01*
X80124000Y-83271700D02*
X80124000Y-71518300D01*
X80124000Y-71518300D02*
X78382800Y-69777100D01*
X123367200Y-96596800D02*
X124460000Y-95504000D01*
X117802500Y-106244100D02*
X117802500Y-105721400D01*
X117802500Y-105721400D02*
X123367200Y-100156700D01*
X123367200Y-100156700D02*
X123367200Y-96596800D01*
X123367200Y-96596800D02*
X123012800Y-96596800D01*
X123012800Y-96596800D02*
X121920000Y-95504000D01*
X119380000Y-106934000D02*
X119380000Y-104851600D01*
X119380000Y-104851600D02*
X124054200Y-100177400D01*
X124054200Y-100177400D02*
X124054200Y-98415400D01*
X124054200Y-98415400D02*
X125282100Y-97187500D01*
D32*
X85090000Y-103124000D02*
X87883800Y-105917800D01*
X87883800Y-105917800D02*
X100555800Y-105917800D01*
X100555800Y-105917800D02*
X104347500Y-109709500D01*
X104347500Y-109709500D02*
X104347500Y-111295400D01*
X104347500Y-111295400D02*
X103391900Y-112251000D01*
X103391900Y-112251000D02*
X102545000Y-112251000D01*
X102545000Y-112251000D02*
X100761200Y-114034800D01*
X100761200Y-114034800D02*
X100761200Y-114709700D01*
X100761200Y-114709700D02*
X100299700Y-115171200D01*
X100299700Y-115171200D02*
X99548700Y-115171200D01*
X99548700Y-115171200D02*
X97789800Y-113412300D01*
X97789800Y-113412300D02*
X92835700Y-113412300D01*
X92835700Y-113412300D02*
X90932000Y-115316000D01*
D33*
X123778000Y-111506000D02*
X118980800Y-111506000D01*
X118980800Y-111506000D02*
X118129900Y-110655100D01*
X118129900Y-110655100D02*
X118129900Y-108029400D01*
X118129900Y-108029400D02*
X116899900Y-106799400D01*
X116899900Y-106799400D02*
X116899900Y-100711100D01*
X116899900Y-100711100D02*
X112558900Y-96370100D01*
X112558900Y-96370100D02*
X112558900Y-90855400D01*
X112558900Y-90855400D02*
X112308800Y-90605300D01*
X112308800Y-90605300D02*
X112308800Y-87333200D01*
X112308800Y-87333200D02*
X111256300Y-86280700D01*
X111256300Y-86280700D02*
X104822700Y-86280700D01*
X104822700Y-86280700D02*
X102616000Y-84074000D01*
X128463000Y-113041500D02*
X125313500Y-113041500D01*
X125313500Y-113041500D02*
X123778000Y-111506000D01*
X78000000Y-80000000D02*
X78000000Y-73500000D01*
X119380000Y-46482000D02*
X120853100Y-47955100D01*
X120853100Y-47955100D02*
X120853100Y-58074800D01*
X120853100Y-58074800D02*
X118207900Y-60720000D01*
X113792000Y-69088000D02*
X113792000Y-60754700D01*
X95298000Y-121960000D02*
X95064300Y-121726300D01*
X95064300Y-121726300D02*
X95064300Y-117364800D01*
X95064300Y-117364800D02*
X95439700Y-116989400D01*
X95439700Y-116989400D02*
X100108800Y-116989400D01*
X100108800Y-116989400D02*
X102934400Y-114163800D01*
X102934400Y-114163800D02*
X102934400Y-113976800D01*
X149360000Y-68760000D02*
X149360000Y-67610300D01*
X149360000Y-67610300D02*
X148169400Y-66419700D01*
X148169400Y-66419700D02*
X148169400Y-50950600D01*
X148169400Y-50950600D02*
X149360000Y-49760000D01*
X75344100Y-77438000D02*
X75344100Y-81186100D01*
X75344100Y-81186100D02*
X76457500Y-82299500D01*
X76457500Y-82299500D02*
X76457500Y-84041400D01*
X76457500Y-84041400D02*
X78130900Y-85714800D01*
X78130900Y-85714800D02*
X79932600Y-85714800D01*
X79932600Y-85714800D02*
X80931400Y-86713600D01*
X80931400Y-86713600D02*
X80931400Y-93885400D01*
X80931400Y-93885400D02*
X82296000Y-95250000D01*
X144280000Y-68760000D02*
X144280000Y-70274900D01*
X144280000Y-70274900D02*
X143091200Y-71463700D01*
X143091200Y-71463700D02*
X143091200Y-86251900D01*
X143091200Y-86251900D02*
X143334800Y-86495500D01*
X144280000Y-68760000D02*
X144280000Y-67759100D01*
X144280000Y-67759100D02*
X143089400Y-66568500D01*
X143089400Y-66568500D02*
X143089400Y-63832900D01*
X143089400Y-63832900D02*
X144280000Y-62642300D01*
X144280000Y-62642300D02*
X144280000Y-49760000D01*
X156258000Y-121960000D02*
X156258000Y-117084900D01*
X156258000Y-117084900D02*
X154085400Y-114912300D01*
X154085400Y-114912300D02*
X154085400Y-110934000D01*
X154085400Y-110934000D02*
X155868600Y-109150800D01*
X155868600Y-109150800D02*
X155868600Y-96872900D01*
X155868600Y-96872900D02*
X155253800Y-96258100D01*
X141059000Y-95758000D02*
X141188800Y-95628200D01*
X141188800Y-95628200D02*
X141188800Y-86482000D01*
X141188800Y-86482000D02*
X140564600Y-85857800D01*
X140564600Y-85857800D02*
X140564600Y-70124600D01*
X140564600Y-70124600D02*
X139200000Y-68760000D01*
X139954000Y-95758000D02*
X141059000Y-95758000D01*
X139200000Y-49760000D02*
X140390600Y-50950600D01*
X140390600Y-50950600D02*
X140390600Y-67569400D01*
X140390600Y-67569400D02*
X139200000Y-68760000D01*
X145212300Y-110107900D02*
X144780000Y-109675600D01*
X144780000Y-109675600D02*
X144780000Y-105807000D01*
X144780000Y-105807000D02*
X142334600Y-103361600D01*
X142334600Y-103361600D02*
X142334600Y-98689100D01*
X142334600Y-98689100D02*
X141059000Y-97413500D01*
X141059000Y-97413500D02*
X141059000Y-95758000D01*
X149360000Y-65000000D02*
X150548200Y-66188200D01*
X150548200Y-66188200D02*
X150548200Y-82811800D01*
X150548200Y-82811800D02*
X149360000Y-84000000D01*
X149360000Y-84000000D02*
X150114000Y-84754000D01*
X150114000Y-84754000D02*
X150114000Y-88138000D01*
X117567500Y-114016900D02*
X117129300Y-113578700D01*
X117129300Y-113578700D02*
X117129300Y-108444000D01*
X117129300Y-108444000D02*
X115023800Y-106338500D01*
X115023800Y-106338500D02*
X115023800Y-103453300D01*
X115023800Y-103453300D02*
X112058500Y-100488000D01*
X112058500Y-100488000D02*
X112058500Y-91212300D01*
X112058500Y-91212300D02*
X110383300Y-89537100D01*
X129040000Y-84000000D02*
X129040000Y-73123700D01*
X129040000Y-73123700D02*
X127849400Y-71933100D01*
X127849400Y-71933100D02*
X127849400Y-66190600D01*
X127849400Y-66190600D02*
X129040000Y-65000000D01*
X132637400Y-95323400D02*
X130741200Y-93427200D01*
X130741200Y-93427200D02*
X130741200Y-86685100D01*
X130741200Y-86685100D02*
X129040000Y-84983900D01*
X129040000Y-84983900D02*
X129040000Y-84000000D01*
X95839700Y-117764800D02*
X100242900Y-117764800D01*
X100242900Y-117764800D02*
X105515400Y-112492300D01*
X105515400Y-112492300D02*
X105515400Y-112143700D01*
X124152800Y-107166900D02*
X124152800Y-106711300D01*
X124152800Y-106711300D02*
X129540000Y-101324100D01*
X129540000Y-101324100D02*
X129540000Y-99270900D01*
X129540000Y-99270900D02*
X131087500Y-97723400D01*
X131087500Y-97723400D02*
X131395600Y-97723400D01*
X131395600Y-97723400D02*
X132706100Y-96412900D01*
X132706100Y-96412900D02*
X132706100Y-95392100D01*
X132706100Y-95392100D02*
X132637400Y-95323400D01*
X131580000Y-71054800D02*
X131244600Y-71390200D01*
X131244600Y-71390200D02*
X131244600Y-83664600D01*
X131244600Y-83664600D02*
X131580000Y-84000000D01*
X157098000Y-106670800D02*
X157098000Y-94540900D01*
X157098000Y-94540900D02*
X153741000Y-91183900D01*
X148638000Y-121960000D02*
X148638000Y-120140600D01*
X148638000Y-120140600D02*
X147320000Y-118822600D01*
X147320000Y-118822600D02*
X147320000Y-98044000D01*
X147320000Y-98044000D02*
X145034000Y-95758000D01*
X145034000Y-88138000D02*
X145493300Y-87678700D01*
X145493300Y-87678700D02*
X145493300Y-71445600D01*
X145493300Y-71445600D02*
X145342100Y-71294400D01*
X134120000Y-68760000D02*
X135310600Y-67569400D01*
X135310600Y-67569400D02*
X135310600Y-50950600D01*
X135310600Y-50950600D02*
X134120000Y-49760000D01*
X153718000Y-121960000D02*
X153785000Y-121893000D01*
X153785000Y-121893000D02*
X153785000Y-115665200D01*
X153785000Y-115665200D02*
X153527900Y-115408100D01*
X153527900Y-115408100D02*
X153527900Y-110783800D01*
X153527900Y-110783800D02*
X155355300Y-108956400D01*
X155355300Y-108956400D02*
X155355300Y-97463500D01*
X155355300Y-97463500D02*
X154219600Y-96327800D01*
X154219600Y-96327800D02*
X154219600Y-92762800D01*
X136660000Y-68760000D02*
X137850600Y-67569400D01*
X137850600Y-67569400D02*
X137850600Y-50950600D01*
X137850600Y-50950600D02*
X136660000Y-49760000D01*
X139954000Y-88138000D02*
X139954000Y-87583700D01*
X139954000Y-87583700D02*
X137842600Y-85472300D01*
X137842600Y-85472300D02*
X137842600Y-69942600D01*
X137842600Y-69942600D02*
X136660000Y-68760000D01*
X153006800Y-116053400D02*
X153006800Y-110597200D01*
X153006800Y-110597200D02*
X154845400Y-108758600D01*
X154845400Y-108758600D02*
X154845400Y-98085700D01*
X154845400Y-98085700D02*
X154256200Y-97496500D01*
X102918000Y-121960000D02*
X102918000Y-120449700D01*
X102918000Y-120449700D02*
X104947500Y-118420200D01*
X104947500Y-118420200D02*
X104947500Y-115664300D01*
X104947500Y-115664300D02*
X108928700Y-111683100D01*
X108928700Y-111683100D02*
X109058100Y-111683100D01*
X109058100Y-111683100D02*
X109316800Y-111424400D01*
X109316800Y-111424400D02*
X109316800Y-109676300D01*
X109316800Y-109676300D02*
X103135300Y-103494800D01*
X151900000Y-84000000D02*
X151900000Y-73161700D01*
X151900000Y-73161700D02*
X154368600Y-70693100D01*
X151900000Y-65000000D02*
X150630000Y-63730000D01*
X150630000Y-63730000D02*
X150630000Y-47470200D01*
X150630000Y-47470200D02*
X150368000Y-47208200D01*
X150368000Y-47208200D02*
X150368000Y-45392500D01*
X150368000Y-45392500D02*
X146028900Y-41053400D01*
X146028900Y-41053400D02*
X143923400Y-41053400D01*
X143923400Y-41053400D02*
X141478000Y-38608000D01*
X96012000Y-69088000D02*
X96012000Y-82223800D01*
X96012000Y-82223800D02*
X95318900Y-82916900D01*
X95318900Y-82916900D02*
X95318900Y-84057900D01*
X95318900Y-84057900D02*
X96538700Y-85277700D01*
X96538700Y-85277700D02*
X97247300Y-85277700D01*
X97247300Y-85277700D02*
X98803200Y-86833600D01*
X98803200Y-86833600D02*
X98803200Y-93977200D01*
X98803200Y-93977200D02*
X100076000Y-95250000D01*
X104309600Y-103538300D02*
X109819600Y-109048300D01*
X109819600Y-109048300D02*
X109819600Y-111629100D01*
X109819600Y-111629100D02*
X108888500Y-112560200D01*
X108888500Y-112560200D02*
X108759100Y-112560200D01*
X108759100Y-112560200D02*
X105458000Y-115861300D01*
X105458000Y-115861300D02*
X105458000Y-121960000D01*
X98552000Y-69088000D02*
X98552000Y-70313200D01*
X98552000Y-70313200D02*
X97077300Y-71787900D01*
X97077300Y-71787900D02*
X97077300Y-81751000D01*
X97077300Y-81751000D02*
X100635200Y-85308900D01*
X100635200Y-85308900D02*
X100635200Y-85581800D01*
X100635200Y-85581800D02*
X101265500Y-86212100D01*
X101265500Y-86212100D02*
X101265500Y-96142500D01*
X101265500Y-96142500D02*
X100582700Y-96825300D01*
X100582700Y-96825300D02*
X99111300Y-96825300D01*
X99111300Y-96825300D02*
X97536000Y-95250000D01*
X154440000Y-84000000D02*
X155630600Y-82809400D01*
X155630600Y-82809400D02*
X155630600Y-67032900D01*
X155630600Y-67032900D02*
X154440000Y-65842300D01*
X154440000Y-65842300D02*
X154440000Y-65000000D01*
X106168800Y-104038600D02*
X110320000Y-108189800D01*
X110320000Y-108189800D02*
X110320000Y-111836300D01*
X110320000Y-111836300D02*
X109095800Y-113060500D01*
X109095800Y-113060500D02*
X108966400Y-113060500D01*
X108966400Y-113060500D02*
X107998000Y-114028900D01*
X107998000Y-114028900D02*
X107998000Y-121960000D01*
X101092000Y-69088000D02*
X101092000Y-70393700D01*
X101092000Y-70393700D02*
X103886000Y-73187700D01*
X103886000Y-73187700D02*
X103886000Y-77920500D01*
X103886000Y-77920500D02*
X107517000Y-81551500D01*
X156980000Y-84000000D02*
X158170600Y-82809400D01*
X158170600Y-82809400D02*
X158170600Y-66190600D01*
X158170600Y-66190600D02*
X156980000Y-65000000D01*
X104561000Y-99028700D02*
X103860600Y-98328300D01*
X103860600Y-98328300D02*
X95225700Y-98328300D01*
X95225700Y-98328300D02*
X92456000Y-95558600D01*
X92456000Y-95558600D02*
X92456000Y-95250000D01*
X115618000Y-121960000D02*
X114967300Y-121309300D01*
X114967300Y-121309300D02*
X114967300Y-111781000D01*
X114967300Y-111781000D02*
X111948300Y-108762000D01*
X111948300Y-108762000D02*
X111843400Y-108762000D01*
X111843400Y-108762000D02*
X106944100Y-103862700D01*
X106944100Y-103862700D02*
X106944100Y-103717400D01*
X106944100Y-103717400D02*
X106436600Y-103209900D01*
X106436600Y-103209900D02*
X105610000Y-103209900D01*
X105610000Y-103209900D02*
X104561000Y-102160900D01*
X104561000Y-102160900D02*
X104561000Y-99028700D01*
X103632000Y-69088000D02*
X103632000Y-72226000D01*
X103632000Y-72226000D02*
X106356900Y-74950900D01*
X106356900Y-74950900D02*
X106356900Y-77335000D01*
X106356900Y-77335000D02*
X105956900Y-77735000D01*
X105956900Y-77735000D02*
X105956900Y-78318800D01*
X105956900Y-78318800D02*
X106953300Y-79315200D01*
X106953300Y-79315200D02*
X109391000Y-79315200D01*
X121367300Y-91438300D02*
X123190000Y-89615600D01*
X123190000Y-89615600D02*
X123190000Y-85769000D01*
X123190000Y-85769000D02*
X124561500Y-84397500D01*
X124561500Y-84397500D02*
X124561500Y-80034100D01*
X124561500Y-80034100D02*
X125393900Y-79201700D01*
X159520000Y-49760000D02*
X160695400Y-50935400D01*
X160695400Y-50935400D02*
X160695400Y-67584600D01*
X160695400Y-67584600D02*
X159520000Y-68760000D01*
X106172000Y-69088000D02*
X106172000Y-68951600D01*
X106172000Y-68951600D02*
X101497500Y-64277100D01*
X101497500Y-64277100D02*
X88104800Y-64277100D01*
X88104800Y-64277100D02*
X84676600Y-67705300D01*
X84676600Y-67705300D02*
X84676600Y-80517700D01*
X84676600Y-80517700D02*
X86546400Y-82387500D01*
X86546400Y-82387500D02*
X86546400Y-85675500D01*
X86546400Y-85675500D02*
X86153400Y-86068500D01*
X86153400Y-86068500D02*
X86153400Y-96168700D01*
X86153400Y-96168700D02*
X86866900Y-96882200D01*
X86866900Y-96882200D02*
X88283800Y-96882200D01*
X88283800Y-96882200D02*
X89916000Y-95250000D01*
X113001700Y-108718000D02*
X115566300Y-111282600D01*
X115566300Y-111282600D02*
X115566300Y-117024300D01*
X115566300Y-117024300D02*
X118158000Y-119616000D01*
X118158000Y-119616000D02*
X118158000Y-121960000D01*
X156980000Y-49760000D02*
X155804700Y-50935300D01*
X155804700Y-50935300D02*
X155804700Y-66249100D01*
X155804700Y-66249100D02*
X156980000Y-67424400D01*
X156980000Y-67424400D02*
X156980000Y-68760000D01*
X151638000Y-38608000D02*
X153235400Y-37010600D01*
X153235400Y-37010600D02*
X154659800Y-37010600D01*
X154659800Y-37010600D02*
X155448000Y-37798800D01*
X155448000Y-37798800D02*
X155448000Y-48228000D01*
X155448000Y-48228000D02*
X156980000Y-49760000D01*
X113078000Y-121960000D02*
X113078000Y-116383100D01*
X113078000Y-116383100D02*
X110393600Y-113698700D01*
X110393600Y-113698700D02*
X110393600Y-113060500D01*
X87376000Y-95250000D02*
X91091400Y-91534600D01*
X91091400Y-91534600D02*
X91091400Y-85132300D01*
X91091400Y-85132300D02*
X92132600Y-84091100D01*
X108712000Y-69088000D02*
X109488300Y-68311700D01*
X109488300Y-68311700D02*
X109488300Y-64092300D01*
X108712000Y-69088000D02*
X108880400Y-69256400D01*
X108880400Y-69256400D02*
X108880400Y-77364400D01*
X108880400Y-77364400D02*
X108215500Y-78029300D01*
X108215500Y-78029300D02*
X106778800Y-78029300D01*
X154440000Y-49760000D02*
X152914600Y-51285400D01*
X152914600Y-51285400D02*
X152914600Y-62809100D01*
X151638000Y-46228000D02*
X151638000Y-46958000D01*
X151638000Y-46958000D02*
X154440000Y-49760000D01*
X89916000Y-87630000D02*
X87678100Y-85392100D01*
X87678100Y-85392100D02*
X87678100Y-80759500D01*
X87678100Y-80759500D02*
X87216600Y-80298000D01*
X87216600Y-80298000D02*
X87216600Y-68182200D01*
X87216600Y-68182200D02*
X89789600Y-65609200D01*
X138430000Y-107696000D02*
X138430000Y-106108400D01*
X138430000Y-106108400D02*
X135706100Y-103384500D01*
X135706100Y-103384500D02*
X135084200Y-103384500D01*
X133398000Y-121960000D02*
X133398000Y-117352800D01*
X133398000Y-117352800D02*
X138430000Y-112320800D01*
X138430000Y-112320800D02*
X138430000Y-107696000D01*
X141740000Y-49760000D02*
X141740000Y-62164800D01*
X141740000Y-62164800D02*
X142700500Y-63125300D01*
X110538000Y-121960000D02*
X110538000Y-115353200D01*
X110538000Y-115353200D02*
X109158100Y-113973300D01*
X112776000Y-76454000D02*
X112776000Y-72109200D01*
X112776000Y-72109200D02*
X111252000Y-70585200D01*
X111252000Y-70585200D02*
X111252000Y-69088000D01*
X151900000Y-49760000D02*
X151900000Y-62890900D01*
X151900000Y-62890900D02*
X153085000Y-64075900D01*
X153085000Y-64075900D02*
X153085000Y-67575000D01*
X153085000Y-67575000D02*
X151900000Y-68760000D01*
X94996000Y-87630000D02*
X94996000Y-85150300D01*
X94996000Y-85150300D02*
X90932000Y-81086300D01*
X90932000Y-81086300D02*
X90932000Y-69088000D01*
X119175500Y-117327000D02*
X118759500Y-117327000D01*
X118759500Y-117327000D02*
X116629000Y-115196500D01*
X116629000Y-115196500D02*
X116629000Y-108651400D01*
X116629000Y-108651400D02*
X110530700Y-102553100D01*
X110530700Y-102553100D02*
X110530700Y-101700600D01*
X110530700Y-101700600D02*
X106155800Y-97325700D01*
X106155800Y-97325700D02*
X97496700Y-97325700D01*
X97496700Y-97325700D02*
X96266000Y-96095000D01*
X96266000Y-96095000D02*
X96266000Y-88900000D01*
X96266000Y-88900000D02*
X94996000Y-87630000D01*
X141740000Y-65000000D02*
X141740000Y-66061900D01*
X141740000Y-66061900D02*
X142915400Y-67237300D01*
X142915400Y-67237300D02*
X142915400Y-70931900D01*
X142915400Y-70931900D02*
X141740000Y-72107300D01*
X141740000Y-72107300D02*
X141740000Y-84000000D01*
X139200000Y-79075300D02*
X139200000Y-70894400D01*
X139200000Y-70894400D02*
X139418700Y-70675700D01*
X139200000Y-84000000D02*
X139200000Y-79075300D01*
X93472000Y-69088000D02*
X92624600Y-69935400D01*
X92624600Y-69935400D02*
X92624600Y-82071300D01*
X92624600Y-82071300D02*
X97536000Y-86982700D01*
X97536000Y-86982700D02*
X97536000Y-87630000D01*
X148590000Y-107696000D02*
X149860000Y-106426000D01*
X149860000Y-106426000D02*
X149860000Y-99237500D01*
X149860000Y-99237500D02*
X151384000Y-97713500D01*
X151384000Y-97713500D02*
X151384000Y-87292200D01*
X151384000Y-87292200D02*
X153092400Y-85583800D01*
X153092400Y-85583800D02*
X153092400Y-79075300D01*
X97196500Y-67129300D02*
X97071400Y-67004200D01*
X97071400Y-67004200D02*
X90180800Y-67004200D01*
X90180800Y-67004200D02*
X88392000Y-68793000D01*
X88392000Y-68793000D02*
X88392000Y-69088000D01*
X100076000Y-87630000D02*
X100076000Y-85457300D01*
X100076000Y-85457300D02*
X96571500Y-81952800D01*
X96571500Y-81952800D02*
X96571500Y-71158500D01*
X96571500Y-71158500D02*
X97196500Y-70533500D01*
X97196500Y-70533500D02*
X97196500Y-67129300D01*
X103316400Y-67226200D02*
X103316400Y-67057000D01*
X103316400Y-67057000D02*
X101037300Y-64777900D01*
X101037300Y-64777900D02*
X99547900Y-64777900D01*
X99547900Y-64777900D02*
X97196500Y-67129300D01*
X135938000Y-121960000D02*
X135938000Y-115874100D01*
X135938000Y-115874100D02*
X140970000Y-110842100D01*
X140970000Y-110842100D02*
X140970000Y-107696000D01*
X129040000Y-68760000D02*
X130404200Y-70124200D01*
X130404200Y-70124200D02*
X130404200Y-84975100D01*
X130404200Y-84975100D02*
X131440300Y-86011200D01*
X131440300Y-86011200D02*
X131440300Y-93029900D01*
X131440300Y-93029900D02*
X133412700Y-95002300D01*
X133412700Y-95002300D02*
X133412700Y-96250900D01*
X133412700Y-96250900D02*
X134636700Y-97474900D01*
X134636700Y-97474900D02*
X134636700Y-101362700D01*
X134636700Y-101362700D02*
X140970000Y-107696000D01*
X90218000Y-121960000D02*
X89206300Y-120948300D01*
X89206300Y-120948300D02*
X89206300Y-114037100D01*
X89206300Y-114037100D02*
X90137500Y-113105900D01*
X90137500Y-113105900D02*
X90292300Y-113105900D01*
X92758000Y-121960000D02*
X92758000Y-120145800D01*
X92758000Y-120145800D02*
X89706700Y-117094500D01*
X89706700Y-117094500D02*
X89706700Y-114298700D01*
X89706700Y-114298700D02*
X90123200Y-113882200D01*
X90123200Y-113882200D02*
X90683700Y-113882200D01*
X90683700Y-113882200D02*
X91110600Y-113455300D01*
X91110600Y-113455300D02*
X91110600Y-111379600D01*
X92456000Y-87630000D02*
X92456000Y-92855900D01*
X92456000Y-92855900D02*
X91264500Y-94047400D01*
X91264500Y-94047400D02*
X91264500Y-96142100D01*
X91264500Y-96142100D02*
X92754000Y-97631600D01*
X92754000Y-97631600D02*
X92914000Y-97631600D01*
X130858000Y-121960000D02*
X130858000Y-121024900D01*
X130858000Y-121024900D02*
X132747400Y-119135500D01*
X132747400Y-119135500D02*
X132747400Y-112825800D01*
X132747400Y-112825800D02*
X135890000Y-109683200D01*
X135890000Y-109683200D02*
X135890000Y-107696000D01*
X135890000Y-107696000D02*
X133937900Y-105743900D01*
X133937900Y-105743900D02*
X127014800Y-105743900D01*
X128318000Y-121960000D02*
X128318000Y-115248900D01*
X128318000Y-115248900D02*
X133472000Y-110094900D01*
X133472000Y-110094900D02*
X133472000Y-107818000D01*
X133472000Y-107818000D02*
X133350000Y-107696000D01*
X136660000Y-84000000D02*
X136660000Y-70686900D01*
X146050000Y-107696000D02*
X146050000Y-110380500D01*
X146050000Y-110380500D02*
X145544000Y-110886500D01*
X145544000Y-110886500D02*
X144620400Y-110886500D01*
X144620400Y-110886500D02*
X142240000Y-108506100D01*
X142240000Y-108506100D02*
X142240000Y-106853000D01*
X142240000Y-106853000D02*
X139794600Y-104407600D01*
X139794600Y-104407600D02*
X139794600Y-98689100D01*
X139794600Y-98689100D02*
X138684000Y-97578500D01*
X138684000Y-97578500D02*
X138684000Y-87288200D01*
X138684000Y-87288200D02*
X136660000Y-85264200D01*
X136660000Y-85264200D02*
X136660000Y-84000000D01*
X137301300Y-97818400D02*
X136902600Y-97818400D01*
X136902600Y-97818400D02*
X134889600Y-95805400D01*
X134889600Y-95805400D02*
X134889600Y-84769600D01*
X134889600Y-84769600D02*
X134120000Y-84000000D01*
X134120000Y-84000000D02*
X134120000Y-73935600D01*
X134120000Y-73935600D02*
X132929400Y-72745000D01*
X132929400Y-72745000D02*
X132929400Y-66190600D01*
X132929400Y-66190600D02*
X134120000Y-65000000D01*
X143510000Y-107696000D02*
X143510000Y-107142800D01*
X143510000Y-107142800D02*
X140941500Y-104574300D01*
X140941500Y-104574300D02*
X140941500Y-102027600D01*
X142192800Y-91519300D02*
X143348900Y-91519300D01*
X144280000Y-84000000D02*
X144280000Y-71009400D01*
X144280000Y-71009400D02*
X145470600Y-69818800D01*
X145470600Y-69818800D02*
X145470600Y-66190600D01*
X145470600Y-66190600D02*
X144280000Y-65000000D01*
X143348900Y-91519300D02*
X143852000Y-91016200D01*
X143852000Y-91016200D02*
X143852000Y-87074800D01*
X143852000Y-87074800D02*
X144280000Y-86646800D01*
X144280000Y-86646800D02*
X144280000Y-84000000D01*
X118572300Y-116043400D02*
X118572300Y-113061900D01*
X118572300Y-113061900D02*
X117629600Y-112119200D01*
X117629600Y-112119200D02*
X117629600Y-108236700D01*
X117629600Y-108236700D02*
X115658500Y-106265600D01*
X115658500Y-106265600D02*
X115658500Y-100599700D01*
X115658500Y-100599700D02*
X115317700Y-100258900D01*
X143348900Y-91519300D02*
X143669400Y-91839800D01*
X143669400Y-91839800D02*
X143669400Y-96491900D01*
X143669400Y-96491900D02*
X144930900Y-97753400D01*
X146820000Y-65000000D02*
X146820000Y-65825400D01*
X146820000Y-65825400D02*
X148027500Y-67032900D01*
X148027500Y-67032900D02*
X148027500Y-80789300D01*
X148027500Y-80789300D02*
X146820000Y-81996800D01*
X146820000Y-81996800D02*
X146820000Y-84000000D01*
X148270900Y-92403500D02*
X146396100Y-90528700D01*
X146396100Y-90528700D02*
X146396100Y-84423900D01*
X146396100Y-84423900D02*
X146820000Y-84000000D01*
X153670000Y-100076000D02*
X153190100Y-100555900D01*
X153190100Y-100555900D02*
X153190100Y-103482100D01*
X159031600Y-29417000D02*
X159031600Y-32992400D01*
X159031600Y-32992400D02*
X157607000Y-34417000D01*
X121158000Y-35052000D02*
X123437100Y-32772900D01*
X123437100Y-32772900D02*
X125254600Y-32772900D01*
X125254600Y-32772900D02*
X126492000Y-31535500D01*
X126492000Y-31535500D02*
X126492000Y-27985200D01*
X126492000Y-27985200D02*
X128404200Y-26073000D01*
X128404200Y-26073000D02*
X155959500Y-26073000D01*
X155959500Y-26073000D02*
X159031600Y-29145100D01*
X159031600Y-29145100D02*
X159031600Y-29417000D01*
X160907000Y-29417000D02*
X159031600Y-29417000D01*
X96940000Y-28460000D02*
X95161900Y-26681900D01*
X95161900Y-26681900D02*
X84231900Y-26681900D01*
X84231900Y-26681900D02*
X82970000Y-27943800D01*
X82970000Y-27943800D02*
X82970000Y-35917100D01*
X82970000Y-35917100D02*
X82401500Y-36485600D01*
X94400000Y-28460000D02*
X93173500Y-27233500D01*
X93173500Y-27233500D02*
X86271100Y-27233500D01*
X86271100Y-27233500D02*
X85503500Y-28001100D01*
X85503500Y-28001100D02*
X85503500Y-35842100D01*
X85503500Y-35842100D02*
X83820000Y-37525600D01*
X83820000Y-37525600D02*
X83820000Y-45212000D01*
X83820000Y-45212000D02*
X82550000Y-46482000D01*
X104920200Y-50204400D02*
X105352000Y-50636200D01*
X105352000Y-50636200D02*
X109129800Y-50636200D01*
X109129800Y-50636200D02*
X109474000Y-50292000D01*
X102020000Y-28460000D02*
X103315400Y-29755400D01*
X103315400Y-29755400D02*
X103315400Y-38877400D01*
X103315400Y-38877400D02*
X104920200Y-40482200D01*
X104920200Y-40482200D02*
X104920200Y-50204400D01*
X104920200Y-50204400D02*
X102947800Y-52176800D01*
X102947800Y-52176800D02*
X100635800Y-52176800D01*
X100635800Y-52176800D02*
X99822000Y-52990600D01*
X99822000Y-52990600D02*
X99822000Y-54675600D01*
X99822000Y-54675600D02*
X99064500Y-55433100D01*
X99064500Y-55433100D02*
X95057100Y-55433100D01*
X95057100Y-55433100D02*
X93472000Y-53848000D01*
X108712000Y-53848000D02*
X111076100Y-56212100D01*
X111076100Y-56212100D02*
X111334300Y-56212100D01*
X104560000Y-28460000D02*
X105789100Y-29689100D01*
X105789100Y-29689100D02*
X105789100Y-32818100D01*
X105789100Y-32818100D02*
X105076600Y-33530600D01*
X105076600Y-33530600D02*
X105076600Y-37738500D01*
X105076600Y-37738500D02*
X105420600Y-38082500D01*
X105420600Y-38082500D02*
X105420600Y-49343700D01*
X105420600Y-49343700D02*
X105937800Y-49860900D01*
X80010000Y-46482000D02*
X80646200Y-47118200D01*
X80646200Y-47118200D02*
X80646200Y-50720700D01*
X80646200Y-50720700D02*
X85859000Y-55933500D01*
X85859000Y-55933500D02*
X99271800Y-55933500D01*
X99271800Y-55933500D02*
X101092000Y-54113300D01*
X101092000Y-54113300D02*
X101092000Y-53848000D01*
X122682000Y-31000000D02*
X122303600Y-30621600D01*
X122303600Y-30621600D02*
X118083000Y-30621600D01*
X118083000Y-30621600D02*
X113067600Y-35637000D01*
X148082000Y-31000000D02*
X148082000Y-32766000D01*
X148082000Y-32766000D02*
X145796000Y-35052000D01*
X116840000Y-46482000D02*
X130192400Y-33129600D01*
X130192400Y-33129600D02*
X132509600Y-33129600D01*
X132509600Y-33129600D02*
X134156600Y-31482600D01*
X134156600Y-31482600D02*
X134156600Y-30387200D01*
X134156600Y-30387200D02*
X134769200Y-29774600D01*
X134769200Y-29774600D02*
X138441500Y-29774600D01*
X138441500Y-29774600D02*
X139192000Y-30525100D01*
X139192000Y-30525100D02*
X139192000Y-31502800D01*
X139192000Y-31502800D02*
X142741200Y-35052000D01*
X142741200Y-35052000D02*
X145796000Y-35052000D01*
X137922000Y-31000000D02*
X137481700Y-31000000D01*
X137481700Y-31000000D02*
X134169400Y-34312300D01*
X134169400Y-34312300D02*
X134169400Y-46530100D01*
X134169400Y-46530100D02*
X135487200Y-47847900D01*
X135487200Y-47847900D02*
X147478100Y-47847900D01*
X147478100Y-47847900D02*
X149098000Y-46228000D01*
X71410000Y-45385000D02*
X72590400Y-46565400D01*
X72590400Y-46565400D02*
X72590400Y-54181500D01*
X72590400Y-54181500D02*
X71560200Y-55211700D01*
X71560200Y-55211700D02*
X71560200Y-79410500D01*
X71560200Y-79410500D02*
X72590000Y-80440300D01*
X72590000Y-80440300D02*
X72590000Y-93164000D01*
X72590000Y-93164000D02*
X74676000Y-95250000D01*
X74250000Y-52310000D02*
X76571400Y-54631400D01*
X76571400Y-54631400D02*
X76571400Y-69198000D01*
X76571400Y-69198000D02*
X79623500Y-72250100D01*
X79623500Y-72250100D02*
X79623500Y-84664500D01*
X79623500Y-84664500D02*
X82296000Y-87337000D01*
X82296000Y-87337000D02*
X82296000Y-87630000D01*
X84836000Y-87630000D02*
X84836000Y-86922400D01*
X84836000Y-86922400D02*
X80624300Y-82710700D01*
X80624300Y-82710700D02*
X80624300Y-70922200D01*
X80624300Y-70922200D02*
X77071800Y-67369700D01*
X77071800Y-67369700D02*
X77071800Y-52361800D01*
X77071800Y-52361800D02*
X74250000Y-49540000D01*
X74250000Y-46770000D02*
X73022200Y-45542200D01*
X73022200Y-45542200D02*
X73022200Y-43010200D01*
X73022200Y-43010200D02*
X73207800Y-42824600D01*
X73207800Y-42824600D02*
X75205300Y-42824600D01*
X75205300Y-42824600D02*
X78072600Y-45691900D01*
X78072600Y-45691900D02*
X78072600Y-63792000D01*
X78072600Y-63792000D02*
X83885900Y-69605300D01*
X83885900Y-69605300D02*
X83885900Y-80980000D01*
X83885900Y-80980000D02*
X82318200Y-82547700D01*
X74250000Y-44000000D02*
X77572200Y-47322200D01*
X77572200Y-47322200D02*
X77572200Y-67162400D01*
X77572200Y-67162400D02*
X81124600Y-70714800D01*
X81124600Y-70714800D02*
X81124600Y-82492200D01*
X81124600Y-82492200D02*
X82230500Y-83598100D01*
X82230500Y-83598100D02*
X82608300Y-83598100D01*
X103776300Y-118186200D02*
X101611800Y-118186200D01*
X101611800Y-118186200D02*
X97838000Y-121960000D01*
X77724000Y-83566000D02*
X77724000Y-82858400D01*
X77724000Y-82858400D02*
X76326700Y-81461100D01*
X76326700Y-81461100D02*
X76326700Y-75818700D01*
X76326700Y-75818700D02*
X73406000Y-72898000D01*
D32*
X83130500Y-101935800D02*
X83130500Y-106244500D01*
X83130500Y-106244500D02*
X85090000Y-108204000D01*
X66374000Y-87630000D02*
X67221400Y-87630000D01*
X67221400Y-87630000D02*
X71922200Y-92330800D01*
X71922200Y-92330800D02*
X71922200Y-94698000D01*
X71922200Y-94698000D02*
X79159900Y-101935700D01*
X79159900Y-101935700D02*
X83130500Y-101935700D01*
X83130500Y-101935700D02*
X83130500Y-101935800D01*
X83130500Y-101935800D02*
X93297300Y-101935800D01*
X93297300Y-101935800D02*
X94742000Y-103380500D01*
X106680000Y-38862000D02*
X109220000Y-38862000D01*
X106680000Y-46482000D02*
X106680000Y-38862000D01*
X105991800Y-110500000D02*
X107275500Y-110500000D01*
X93472000Y-115316000D02*
X94775300Y-114012700D01*
X94775300Y-114012700D02*
X97541200Y-114012700D01*
X97541200Y-114012700D02*
X99300000Y-115771500D01*
X99300000Y-115771500D02*
X100548400Y-115771500D01*
X100548400Y-115771500D02*
X101520800Y-114799100D01*
X101520800Y-114799100D02*
X101520800Y-114162400D01*
X101520800Y-114162400D02*
X102531900Y-113151300D01*
X102531900Y-113151300D02*
X103340500Y-113151300D01*
X103340500Y-113151300D02*
X105991800Y-110500000D01*
X105991800Y-110500000D02*
X100066000Y-104574200D01*
X100066000Y-104574200D02*
X100066000Y-101158700D01*
X100066000Y-101158700D02*
X101275300Y-99949400D01*
X79248000Y-49784000D02*
X79248000Y-54102000D01*
X79248000Y-54102000D02*
X82550000Y-57404000D01*
X80010000Y-38862000D02*
X78784600Y-40087400D01*
X78784600Y-40087400D02*
X78784600Y-49320600D01*
X78784600Y-49320600D02*
X79248000Y-49784000D01*
X121793000Y-93082400D02*
X125086600Y-89788800D01*
X122174000Y-99648000D02*
X120650000Y-98124000D01*
X120650000Y-98124000D02*
X120650000Y-94225400D01*
X120650000Y-94225400D02*
X121793000Y-93082400D01*
X121793000Y-93082400D02*
X119523700Y-90813200D01*
X119523700Y-90813200D02*
X119523700Y-90427300D01*
X122682000Y-68406000D02*
X123920000Y-69644000D01*
X123920000Y-69644000D02*
X123920000Y-83633800D01*
X123920000Y-83633800D02*
X120650000Y-86903800D01*
X120650000Y-86903800D02*
X120650000Y-89301000D01*
X120650000Y-89301000D02*
X119523700Y-90427300D01*
X114300000Y-87884000D02*
X116843300Y-90427300D01*
X116843300Y-90427300D02*
X119523700Y-90427300D01*
X122682000Y-56722000D02*
X123907400Y-57947400D01*
X123907400Y-57947400D02*
X123907400Y-67180600D01*
X123907400Y-67180600D02*
X122682000Y-68406000D01*
X79328000Y-35306000D02*
X80010000Y-35988000D01*
X80010000Y-35988000D02*
X80010000Y-38862000D01*
X87884000Y-35306000D02*
X88900000Y-36322000D01*
X88900000Y-36322000D02*
X88900000Y-47498000D01*
X88900000Y-47498000D02*
X91694000Y-50292000D01*
X107450100Y-89610500D02*
X107374100Y-89610500D01*
X107374100Y-89610500D02*
X103615600Y-85852000D01*
X103615600Y-85852000D02*
X101773900Y-85852000D01*
X101773900Y-85852000D02*
X101390600Y-85468700D01*
X101390600Y-85468700D02*
X101390600Y-77679400D01*
X101390600Y-77679400D02*
X102616000Y-76454000D01*
X110744000Y-87456000D02*
X108589500Y-89610500D01*
X108589500Y-89610500D02*
X107450100Y-89610500D01*
X106172000Y-95678000D02*
X107450100Y-94399900D01*
X107450100Y-94399900D02*
X107450100Y-89610500D01*
X136398000Y-36883500D02*
X136398000Y-38608000D01*
X135970000Y-35052000D02*
X136398000Y-35480000D01*
X136398000Y-35480000D02*
X136398000Y-36883500D01*
X136398000Y-36883500D02*
X151584500Y-36883500D01*
X151584500Y-36883500D02*
X153416000Y-35052000D01*
X102188000Y-73152000D02*
X102616000Y-73580000D01*
X102616000Y-73580000D02*
X102616000Y-76454000D01*
X106252000Y-35560000D02*
X106680000Y-35988000D01*
X106680000Y-35988000D02*
X106680000Y-38862000D01*
D33*
X134112000Y-114808000D02*
X137065300Y-111854700D01*
X137065300Y-111854700D02*
X137065300Y-105840400D01*
X123952000Y-114808000D02*
X127811300Y-114808000D01*
X127811300Y-114808000D02*
X132694500Y-109924800D01*
X132694500Y-109924800D02*
X132694500Y-109525100D01*
X121412000Y-114808000D02*
X123952000Y-114808000D01*
M02*
