G04 #@! TF.GenerationSoftware,KiCad,Pcbnew,(5.1.6)-1*
G04 #@! TF.CreationDate,2020-09-25T16:59:24+03:00*
G04 #@! TF.ProjectId,PlusD_Clone_1_4,506c7573-445f-4436-9c6f-6e655f315f34,rev?*
G04 #@! TF.SameCoordinates,Original*
G04 #@! TF.FileFunction,Legend,Bot*
G04 #@! TF.FilePolarity,Positive*
%FSLAX46Y46*%
G04 Gerber Fmt 4.6, Leading zero omitted, Abs format (unit mm)*
G04 Created by KiCad (PCBNEW (5.1.6)-1) date 2020-09-25 16:59:24*
%MOMM*%
%LPD*%
G01*
G04 APERTURE LIST*
%ADD10C,0.150000*%
%ADD11C,0.200000*%
%ADD12C,0.120000*%
%ADD13C,0.010000*%
G04 APERTURE END LIST*
D10*
X155035238Y-46108952D02*
X155130476Y-46061333D01*
X155178095Y-46013714D01*
X155225714Y-45918476D01*
X155225714Y-45870857D01*
X155178095Y-45775619D01*
X155130476Y-45728000D01*
X155035238Y-45680380D01*
X154844761Y-45680380D01*
X154749523Y-45728000D01*
X154701904Y-45775619D01*
X154654285Y-45870857D01*
X154654285Y-45918476D01*
X154701904Y-46013714D01*
X154749523Y-46061333D01*
X154844761Y-46108952D01*
X155035238Y-46108952D01*
X155130476Y-46156571D01*
X155178095Y-46204190D01*
X155225714Y-46299428D01*
X155225714Y-46489904D01*
X155178095Y-46585142D01*
X155130476Y-46632761D01*
X155035238Y-46680380D01*
X154844761Y-46680380D01*
X154749523Y-46632761D01*
X154701904Y-46585142D01*
X154654285Y-46489904D01*
X154654285Y-46299428D01*
X154701904Y-46204190D01*
X154749523Y-46156571D01*
X154844761Y-46108952D01*
X154749523Y-43140380D02*
X154940000Y-43140380D01*
X155035238Y-43188000D01*
X155082857Y-43235619D01*
X155178095Y-43378476D01*
X155225714Y-43568952D01*
X155225714Y-43949904D01*
X155178095Y-44045142D01*
X155130476Y-44092761D01*
X155035238Y-44140380D01*
X154844761Y-44140380D01*
X154749523Y-44092761D01*
X154701904Y-44045142D01*
X154654285Y-43949904D01*
X154654285Y-43711809D01*
X154701904Y-43616571D01*
X154749523Y-43568952D01*
X154844761Y-43521333D01*
X155035238Y-43521333D01*
X155130476Y-43568952D01*
X155178095Y-43616571D01*
X155225714Y-43711809D01*
X154749523Y-40933714D02*
X154749523Y-41600380D01*
X154987619Y-40552761D02*
X155225714Y-41267047D01*
X154606666Y-41267047D01*
X155225714Y-38155619D02*
X155178095Y-38108000D01*
X155082857Y-38060380D01*
X154844761Y-38060380D01*
X154749523Y-38108000D01*
X154701904Y-38155619D01*
X154654285Y-38250857D01*
X154654285Y-38346095D01*
X154701904Y-38488952D01*
X155273333Y-39060380D01*
X154654285Y-39060380D01*
X149685333Y-45680380D02*
X149018666Y-45680380D01*
X149447238Y-46680380D01*
X149113904Y-43140380D02*
X149590095Y-43140380D01*
X149637714Y-43616571D01*
X149590095Y-43568952D01*
X149494857Y-43521333D01*
X149256761Y-43521333D01*
X149161523Y-43568952D01*
X149113904Y-43616571D01*
X149066285Y-43711809D01*
X149066285Y-43949904D01*
X149113904Y-44045142D01*
X149161523Y-44092761D01*
X149256761Y-44140380D01*
X149494857Y-44140380D01*
X149590095Y-44092761D01*
X149637714Y-44045142D01*
X149685333Y-40727380D02*
X149066285Y-40727380D01*
X149399619Y-41108333D01*
X149256761Y-41108333D01*
X149161523Y-41155952D01*
X149113904Y-41203571D01*
X149066285Y-41298809D01*
X149066285Y-41536904D01*
X149113904Y-41632142D01*
X149161523Y-41679761D01*
X149256761Y-41727380D01*
X149542476Y-41727380D01*
X149637714Y-41679761D01*
X149685333Y-41632142D01*
X149066285Y-38933380D02*
X149637714Y-38933380D01*
X149352000Y-38933380D02*
X149352000Y-37933380D01*
X149447238Y-38076238D01*
X149542476Y-38171476D01*
X149637714Y-38219095D01*
D11*
X97591619Y-63626857D02*
X97591619Y-64198285D01*
X97591619Y-63912571D02*
X98591619Y-63912571D01*
X98448761Y-64007809D01*
X98353523Y-64103047D01*
X98305904Y-64198285D01*
X98591619Y-63293523D02*
X98591619Y-62626857D01*
X97591619Y-63055428D01*
X98591619Y-62341142D02*
X98591619Y-61674476D01*
X97591619Y-62103047D01*
X98496380Y-61341142D02*
X98544000Y-61293523D01*
X98591619Y-61198285D01*
X98591619Y-60960190D01*
X98544000Y-60864952D01*
X98496380Y-60817333D01*
X98401142Y-60769714D01*
X98305904Y-60769714D01*
X98163047Y-60817333D01*
X97591619Y-61388761D01*
X97591619Y-60769714D01*
X153668571Y-73113571D02*
X153668571Y-71613571D01*
X153097142Y-71613571D01*
X152954285Y-71685000D01*
X152882857Y-71756428D01*
X152811428Y-71899285D01*
X152811428Y-72113571D01*
X152882857Y-72256428D01*
X152954285Y-72327857D01*
X153097142Y-72399285D01*
X153668571Y-72399285D01*
X151311428Y-72970714D02*
X151382857Y-73042142D01*
X151597142Y-73113571D01*
X151740000Y-73113571D01*
X151954285Y-73042142D01*
X152097142Y-72899285D01*
X152168571Y-72756428D01*
X152240000Y-72470714D01*
X152240000Y-72256428D01*
X152168571Y-71970714D01*
X152097142Y-71827857D01*
X151954285Y-71685000D01*
X151740000Y-71613571D01*
X151597142Y-71613571D01*
X151382857Y-71685000D01*
X151311428Y-71756428D01*
X150168571Y-72327857D02*
X149954285Y-72399285D01*
X149882857Y-72470714D01*
X149811428Y-72613571D01*
X149811428Y-72827857D01*
X149882857Y-72970714D01*
X149954285Y-73042142D01*
X150097142Y-73113571D01*
X150668571Y-73113571D01*
X150668571Y-71613571D01*
X150168571Y-71613571D01*
X150025714Y-71685000D01*
X149954285Y-71756428D01*
X149882857Y-71899285D01*
X149882857Y-72042142D01*
X149954285Y-72185000D01*
X150025714Y-72256428D01*
X150168571Y-72327857D01*
X150668571Y-72327857D01*
X147240000Y-73113571D02*
X148097142Y-73113571D01*
X147668571Y-73113571D02*
X147668571Y-71613571D01*
X147811428Y-71827857D01*
X147954285Y-71970714D01*
X148097142Y-72042142D01*
X146597142Y-72970714D02*
X146525714Y-73042142D01*
X146597142Y-73113571D01*
X146668571Y-73042142D01*
X146597142Y-72970714D01*
X146597142Y-73113571D01*
X145240000Y-72113571D02*
X145240000Y-73113571D01*
X145597142Y-71542142D02*
X145954285Y-72613571D01*
X145025714Y-72613571D01*
X143311428Y-73113571D02*
X143311428Y-71613571D01*
X143311428Y-72185000D02*
X143168571Y-72113571D01*
X142882857Y-72113571D01*
X142740000Y-72185000D01*
X142668571Y-72256428D01*
X142597142Y-72399285D01*
X142597142Y-72827857D01*
X142668571Y-72970714D01*
X142740000Y-73042142D01*
X142882857Y-73113571D01*
X143168571Y-73113571D01*
X143311428Y-73042142D01*
X142097142Y-72113571D02*
X141740000Y-73113571D01*
X141382857Y-72113571D02*
X141740000Y-73113571D01*
X141882857Y-73470714D01*
X141954285Y-73542142D01*
X142097142Y-73613571D01*
X139668571Y-73113571D02*
X139668571Y-71613571D01*
X139168571Y-72685000D01*
X138668571Y-71613571D01*
X138668571Y-73113571D01*
X137382857Y-73042142D02*
X137525714Y-73113571D01*
X137811428Y-73113571D01*
X137954285Y-73042142D01*
X138025714Y-72899285D01*
X138025714Y-72327857D01*
X137954285Y-72185000D01*
X137811428Y-72113571D01*
X137525714Y-72113571D01*
X137382857Y-72185000D01*
X137311428Y-72327857D01*
X137311428Y-72470714D01*
X138025714Y-72613571D01*
X136668571Y-73113571D02*
X136668571Y-72113571D01*
X136668571Y-72399285D02*
X136597142Y-72256428D01*
X136525714Y-72185000D01*
X136382857Y-72113571D01*
X136240000Y-72113571D01*
X135525714Y-73113571D02*
X135668571Y-73042142D01*
X135740000Y-72899285D01*
X135740000Y-71613571D01*
X134954285Y-73113571D02*
X134954285Y-72113571D01*
X134954285Y-71613571D02*
X135025714Y-71685000D01*
X134954285Y-71756428D01*
X134882857Y-71685000D01*
X134954285Y-71613571D01*
X134954285Y-71756428D01*
X134240000Y-72113571D02*
X134240000Y-73113571D01*
X134240000Y-72256428D02*
X134168571Y-72185000D01*
X134025714Y-72113571D01*
X133811428Y-72113571D01*
X133668571Y-72185000D01*
X133597142Y-72327857D01*
X133597142Y-73113571D01*
X132882857Y-73113571D02*
X132882857Y-71613571D01*
X132025714Y-73113571D02*
X132668571Y-72256428D01*
X132025714Y-71613571D02*
X132882857Y-72470714D01*
X131597142Y-71613571D02*
X131097142Y-73113571D01*
X130597142Y-71613571D01*
X153632857Y-75492142D02*
X153418571Y-75563571D01*
X153061428Y-75563571D01*
X152918571Y-75492142D01*
X152847142Y-75420714D01*
X152775714Y-75277857D01*
X152775714Y-75135000D01*
X152847142Y-74992142D01*
X152918571Y-74920714D01*
X153061428Y-74849285D01*
X153347142Y-74777857D01*
X153490000Y-74706428D01*
X153561428Y-74635000D01*
X153632857Y-74492142D01*
X153632857Y-74349285D01*
X153561428Y-74206428D01*
X153490000Y-74135000D01*
X153347142Y-74063571D01*
X152990000Y-74063571D01*
X152775714Y-74135000D01*
X151561428Y-75492142D02*
X151704285Y-75563571D01*
X151990000Y-75563571D01*
X152132857Y-75492142D01*
X152204285Y-75349285D01*
X152204285Y-74777857D01*
X152132857Y-74635000D01*
X151990000Y-74563571D01*
X151704285Y-74563571D01*
X151561428Y-74635000D01*
X151490000Y-74777857D01*
X151490000Y-74920714D01*
X152204285Y-75063571D01*
X150847142Y-74563571D02*
X150847142Y-76063571D01*
X150847142Y-74635000D02*
X150704285Y-74563571D01*
X150418571Y-74563571D01*
X150275714Y-74635000D01*
X150204285Y-74706428D01*
X150132857Y-74849285D01*
X150132857Y-75277857D01*
X150204285Y-75420714D01*
X150275714Y-75492142D01*
X150418571Y-75563571D01*
X150704285Y-75563571D01*
X150847142Y-75492142D01*
X149704285Y-74563571D02*
X149132857Y-74563571D01*
X149490000Y-74063571D02*
X149490000Y-75349285D01*
X149418571Y-75492142D01*
X149275714Y-75563571D01*
X149132857Y-75563571D01*
X148061428Y-75492142D02*
X148204285Y-75563571D01*
X148490000Y-75563571D01*
X148632857Y-75492142D01*
X148704285Y-75349285D01*
X148704285Y-74777857D01*
X148632857Y-74635000D01*
X148490000Y-74563571D01*
X148204285Y-74563571D01*
X148061428Y-74635000D01*
X147990000Y-74777857D01*
X147990000Y-74920714D01*
X148704285Y-75063571D01*
X147347142Y-75563571D02*
X147347142Y-74563571D01*
X147347142Y-74706428D02*
X147275714Y-74635000D01*
X147132857Y-74563571D01*
X146918571Y-74563571D01*
X146775714Y-74635000D01*
X146704285Y-74777857D01*
X146704285Y-75563571D01*
X146704285Y-74777857D02*
X146632857Y-74635000D01*
X146490000Y-74563571D01*
X146275714Y-74563571D01*
X146132857Y-74635000D01*
X146061428Y-74777857D01*
X146061428Y-75563571D01*
X145347142Y-75563571D02*
X145347142Y-74063571D01*
X145347142Y-74635000D02*
X145204285Y-74563571D01*
X144918571Y-74563571D01*
X144775714Y-74635000D01*
X144704285Y-74706428D01*
X144632857Y-74849285D01*
X144632857Y-75277857D01*
X144704285Y-75420714D01*
X144775714Y-75492142D01*
X144918571Y-75563571D01*
X145204285Y-75563571D01*
X145347142Y-75492142D01*
X143418571Y-75492142D02*
X143561428Y-75563571D01*
X143847142Y-75563571D01*
X143990000Y-75492142D01*
X144061428Y-75349285D01*
X144061428Y-74777857D01*
X143990000Y-74635000D01*
X143847142Y-74563571D01*
X143561428Y-74563571D01*
X143418571Y-74635000D01*
X143347142Y-74777857D01*
X143347142Y-74920714D01*
X144061428Y-75063571D01*
X142704285Y-75563571D02*
X142704285Y-74563571D01*
X142704285Y-74849285D02*
X142632857Y-74706428D01*
X142561428Y-74635000D01*
X142418571Y-74563571D01*
X142275714Y-74563571D01*
X140704285Y-74206428D02*
X140632857Y-74135000D01*
X140490000Y-74063571D01*
X140132857Y-74063571D01*
X139990000Y-74135000D01*
X139918571Y-74206428D01*
X139847142Y-74349285D01*
X139847142Y-74492142D01*
X139918571Y-74706428D01*
X140775714Y-75563571D01*
X139847142Y-75563571D01*
X138490000Y-74063571D02*
X139204285Y-74063571D01*
X139275714Y-74777857D01*
X139204285Y-74706428D01*
X139061428Y-74635000D01*
X138704285Y-74635000D01*
X138561428Y-74706428D01*
X138490000Y-74777857D01*
X138418571Y-74920714D01*
X138418571Y-75277857D01*
X138490000Y-75420714D01*
X138561428Y-75492142D01*
X138704285Y-75563571D01*
X139061428Y-75563571D01*
X139204285Y-75492142D01*
X139275714Y-75420714D01*
X137704285Y-75492142D02*
X137704285Y-75563571D01*
X137775714Y-75706428D01*
X137847142Y-75777857D01*
X135990000Y-74206428D02*
X135918571Y-74135000D01*
X135775714Y-74063571D01*
X135418571Y-74063571D01*
X135275714Y-74135000D01*
X135204285Y-74206428D01*
X135132857Y-74349285D01*
X135132857Y-74492142D01*
X135204285Y-74706428D01*
X136061428Y-75563571D01*
X135132857Y-75563571D01*
X134204285Y-74063571D02*
X134061428Y-74063571D01*
X133918571Y-74135000D01*
X133847142Y-74206428D01*
X133775714Y-74349285D01*
X133704285Y-74635000D01*
X133704285Y-74992142D01*
X133775714Y-75277857D01*
X133847142Y-75420714D01*
X133918571Y-75492142D01*
X134061428Y-75563571D01*
X134204285Y-75563571D01*
X134347142Y-75492142D01*
X134418571Y-75420714D01*
X134490000Y-75277857D01*
X134561428Y-74992142D01*
X134561428Y-74635000D01*
X134490000Y-74349285D01*
X134418571Y-74206428D01*
X134347142Y-74135000D01*
X134204285Y-74063571D01*
X133132857Y-74206428D02*
X133061428Y-74135000D01*
X132918571Y-74063571D01*
X132561428Y-74063571D01*
X132418571Y-74135000D01*
X132347142Y-74206428D01*
X132275714Y-74349285D01*
X132275714Y-74492142D01*
X132347142Y-74706428D01*
X133204285Y-75563571D01*
X132275714Y-75563571D01*
X131347142Y-74063571D02*
X131204285Y-74063571D01*
X131061428Y-74135000D01*
X130989999Y-74206428D01*
X130918571Y-74349285D01*
X130847142Y-74635000D01*
X130847142Y-74992142D01*
X130918571Y-75277857D01*
X130989999Y-75420714D01*
X131061428Y-75492142D01*
X131204285Y-75563571D01*
X131347142Y-75563571D01*
X131489999Y-75492142D01*
X131561428Y-75420714D01*
X131632857Y-75277857D01*
X131704285Y-74992142D01*
X131704285Y-74635000D01*
X131632857Y-74349285D01*
X131561428Y-74206428D01*
X131489999Y-74135000D01*
X131347142Y-74063571D01*
D10*
X156798285Y-35640142D02*
X156798285Y-35211571D01*
X156798285Y-35425857D02*
X156048285Y-35425857D01*
X156155428Y-35354428D01*
X156226857Y-35283000D01*
X156262571Y-35211571D01*
X156512571Y-35961571D02*
X156512571Y-36533000D01*
X156048285Y-36818714D02*
X156048285Y-37283000D01*
X156334000Y-37033000D01*
X156334000Y-37140142D01*
X156369714Y-37211571D01*
X156405428Y-37247285D01*
X156476857Y-37283000D01*
X156655428Y-37283000D01*
X156726857Y-37247285D01*
X156762571Y-37211571D01*
X156798285Y-37140142D01*
X156798285Y-36925857D01*
X156762571Y-36854428D01*
X156726857Y-36818714D01*
X156048285Y-38533000D02*
X156048285Y-38175857D01*
X156405428Y-38140142D01*
X156369714Y-38175857D01*
X156334000Y-38247285D01*
X156334000Y-38425857D01*
X156369714Y-38497285D01*
X156405428Y-38533000D01*
X156476857Y-38568714D01*
X156655428Y-38568714D01*
X156726857Y-38533000D01*
X156762571Y-38497285D01*
X156798285Y-38425857D01*
X156798285Y-38247285D01*
X156762571Y-38175857D01*
X156726857Y-38140142D01*
X156512571Y-38890142D02*
X156512571Y-39461571D01*
X156048285Y-39747285D02*
X156048285Y-40247285D01*
X156798285Y-39925857D01*
X156584000Y-41068714D02*
X156584000Y-41425857D01*
X156798285Y-40997285D02*
X156048285Y-41247285D01*
X156798285Y-41497285D01*
X156048285Y-41640142D02*
X156048285Y-42068714D01*
X156798285Y-41854428D02*
X156048285Y-41854428D01*
X156012571Y-43425857D02*
X156976857Y-42783000D01*
X156048285Y-44175857D02*
X156048285Y-44640142D01*
X156334000Y-44390142D01*
X156334000Y-44497285D01*
X156369714Y-44568714D01*
X156405428Y-44604428D01*
X156476857Y-44640142D01*
X156655428Y-44640142D01*
X156726857Y-44604428D01*
X156762571Y-44568714D01*
X156798285Y-44497285D01*
X156798285Y-44283000D01*
X156762571Y-44211571D01*
X156726857Y-44175857D01*
X156512571Y-44961571D02*
X156512571Y-45532999D01*
X156048285Y-46247285D02*
X156048285Y-45890142D01*
X156405428Y-45854428D01*
X156369714Y-45890142D01*
X156334000Y-45961571D01*
X156334000Y-46140142D01*
X156369714Y-46211571D01*
X156405428Y-46247285D01*
X156476857Y-46282999D01*
X156655428Y-46282999D01*
X156726857Y-46247285D01*
X156762571Y-46211571D01*
X156798285Y-46140142D01*
X156798285Y-45961571D01*
X156762571Y-45890142D01*
X156726857Y-45854428D01*
X156762571Y-47140142D02*
X156798285Y-47247285D01*
X156798285Y-47425857D01*
X156762571Y-47497285D01*
X156726857Y-47532999D01*
X156655428Y-47568714D01*
X156584000Y-47568714D01*
X156512571Y-47532999D01*
X156476857Y-47497285D01*
X156441142Y-47425857D01*
X156405428Y-47282999D01*
X156369714Y-47211571D01*
X156334000Y-47175857D01*
X156262571Y-47140142D01*
X156191142Y-47140142D01*
X156119714Y-47175857D01*
X156084000Y-47211571D01*
X156048285Y-47282999D01*
X156048285Y-47461571D01*
X156084000Y-47568714D01*
X156798285Y-47890142D02*
X156048285Y-47890142D01*
X156405428Y-47890142D02*
X156405428Y-48318714D01*
X156798285Y-48318714D02*
X156048285Y-48318714D01*
X157394714Y-37765142D02*
X157359000Y-37800857D01*
X157323285Y-37872285D01*
X157323285Y-38050857D01*
X157359000Y-38122285D01*
X157394714Y-38158000D01*
X157466142Y-38193714D01*
X157537571Y-38193714D01*
X157644714Y-38158000D01*
X158073285Y-37729428D01*
X158073285Y-38193714D01*
X157787571Y-38515142D02*
X157787571Y-39086571D01*
X157573285Y-39765142D02*
X158073285Y-39765142D01*
X157287571Y-39586571D02*
X157823285Y-39408000D01*
X157823285Y-39872285D01*
X158073285Y-41158000D02*
X157716142Y-40908000D01*
X158073285Y-40729428D02*
X157323285Y-40729428D01*
X157323285Y-41015142D01*
X157359000Y-41086571D01*
X157394714Y-41122285D01*
X157466142Y-41158000D01*
X157573285Y-41158000D01*
X157644714Y-41122285D01*
X157680428Y-41086571D01*
X157716142Y-41015142D01*
X157716142Y-40729428D01*
X158073285Y-41479428D02*
X157323285Y-41479428D01*
X157323285Y-41658000D01*
X157359000Y-41765142D01*
X157430428Y-41836571D01*
X157501857Y-41872285D01*
X157644714Y-41908000D01*
X157751857Y-41908000D01*
X157894714Y-41872285D01*
X157966142Y-41836571D01*
X158037571Y-41765142D01*
X158073285Y-41658000D01*
X158073285Y-41479428D01*
X157716142Y-42372285D02*
X158073285Y-42372285D01*
X157323285Y-42122285D02*
X157716142Y-42372285D01*
X157323285Y-42622285D01*
X158073285Y-43872285D02*
X157716142Y-43622285D01*
X158073285Y-43443714D02*
X157323285Y-43443714D01*
X157323285Y-43729428D01*
X157359000Y-43800857D01*
X157394714Y-43836571D01*
X157466142Y-43872285D01*
X157573285Y-43872285D01*
X157644714Y-43836571D01*
X157680428Y-43800857D01*
X157716142Y-43729428D01*
X157716142Y-43443714D01*
X157680428Y-44193714D02*
X157680428Y-44443714D01*
X158073285Y-44550857D02*
X158073285Y-44193714D01*
X157323285Y-44193714D01*
X157323285Y-44550857D01*
X157859000Y-44836571D02*
X157859000Y-45193714D01*
X158073285Y-44765142D02*
X157323285Y-45015142D01*
X158073285Y-45265142D01*
X158073285Y-45872285D02*
X158073285Y-45515142D01*
X157323285Y-45515142D01*
X158598285Y-38300857D02*
X158598285Y-38158000D01*
X158634000Y-38086571D01*
X158669714Y-38050857D01*
X158776857Y-37979428D01*
X158919714Y-37943714D01*
X159205428Y-37943714D01*
X159276857Y-37979428D01*
X159312571Y-38015142D01*
X159348285Y-38086571D01*
X159348285Y-38229428D01*
X159312571Y-38300857D01*
X159276857Y-38336571D01*
X159205428Y-38372285D01*
X159026857Y-38372285D01*
X158955428Y-38336571D01*
X158919714Y-38300857D01*
X158884000Y-38229428D01*
X158884000Y-38086571D01*
X158919714Y-38015142D01*
X158955428Y-37979428D01*
X159026857Y-37943714D01*
X159062571Y-38693714D02*
X159062571Y-39265142D01*
X158919714Y-39729428D02*
X158884000Y-39658000D01*
X158848285Y-39622285D01*
X158776857Y-39586571D01*
X158741142Y-39586571D01*
X158669714Y-39622285D01*
X158634000Y-39658000D01*
X158598285Y-39729428D01*
X158598285Y-39872285D01*
X158634000Y-39943714D01*
X158669714Y-39979428D01*
X158741142Y-40015142D01*
X158776857Y-40015142D01*
X158848285Y-39979428D01*
X158884000Y-39943714D01*
X158919714Y-39872285D01*
X158919714Y-39729428D01*
X158955428Y-39658000D01*
X158991142Y-39622285D01*
X159062571Y-39586571D01*
X159205428Y-39586571D01*
X159276857Y-39622285D01*
X159312571Y-39658000D01*
X159348285Y-39729428D01*
X159348285Y-39872285D01*
X159312571Y-39943714D01*
X159276857Y-39979428D01*
X159205428Y-40015142D01*
X159062571Y-40015142D01*
X158991142Y-39979428D01*
X158955428Y-39943714D01*
X158919714Y-39872285D01*
X159348285Y-41336571D02*
X158991142Y-41086571D01*
X159348285Y-40908000D02*
X158598285Y-40908000D01*
X158598285Y-41193714D01*
X158634000Y-41265142D01*
X158669714Y-41300857D01*
X158741142Y-41336571D01*
X158848285Y-41336571D01*
X158919714Y-41300857D01*
X158955428Y-41265142D01*
X158991142Y-41193714D01*
X158991142Y-40908000D01*
X159348285Y-41658000D02*
X158598285Y-41658000D01*
X158598285Y-41836571D01*
X158634000Y-41943714D01*
X158705428Y-42015142D01*
X158776857Y-42050857D01*
X158919714Y-42086571D01*
X159026857Y-42086571D01*
X159169714Y-42050857D01*
X159241142Y-42015142D01*
X159312571Y-41943714D01*
X159348285Y-41836571D01*
X159348285Y-41658000D01*
X158991142Y-42550857D02*
X159348285Y-42550857D01*
X158598285Y-42300857D02*
X158991142Y-42550857D01*
X158598285Y-42800857D01*
X158955428Y-43622285D02*
X158955428Y-43872285D01*
X159348285Y-43979428D02*
X159348285Y-43622285D01*
X158598285Y-43622285D01*
X158598285Y-43979428D01*
X159348285Y-44300857D02*
X158598285Y-44300857D01*
X159134000Y-44550857D01*
X158598285Y-44800857D01*
X159348285Y-44800857D01*
X158598285Y-45158000D02*
X159205428Y-45158000D01*
X159276857Y-45193714D01*
X159312571Y-45229428D01*
X159348285Y-45300857D01*
X159348285Y-45443714D01*
X159312571Y-45515142D01*
X159276857Y-45550857D01*
X159205428Y-45586571D01*
X158598285Y-45586571D01*
D11*
X94924619Y-63626857D02*
X94924619Y-64198285D01*
X94924619Y-63912571D02*
X95924619Y-63912571D01*
X95781761Y-64007809D01*
X95686523Y-64103047D01*
X95638904Y-64198285D01*
X95924619Y-63293523D02*
X95924619Y-62626857D01*
X94924619Y-63055428D01*
X95924619Y-62341142D02*
X95924619Y-61674476D01*
X94924619Y-62103047D01*
X95924619Y-61388761D02*
X95924619Y-60769714D01*
X95543666Y-61103047D01*
X95543666Y-60960190D01*
X95496047Y-60864952D01*
X95448428Y-60817333D01*
X95353190Y-60769714D01*
X95115095Y-60769714D01*
X95019857Y-60817333D01*
X94972238Y-60864952D01*
X94924619Y-60960190D01*
X94924619Y-61245904D01*
X94972238Y-61341142D01*
X95019857Y-61388761D01*
X100641857Y-101283857D02*
X100427571Y-101355285D01*
X100356142Y-101426714D01*
X100284714Y-101569571D01*
X100284714Y-101783857D01*
X100356142Y-101926714D01*
X100427571Y-101998142D01*
X100570428Y-102069571D01*
X101141857Y-102069571D01*
X101141857Y-100569571D01*
X100641857Y-100569571D01*
X100499000Y-100641000D01*
X100427571Y-100712428D01*
X100356142Y-100855285D01*
X100356142Y-100998142D01*
X100427571Y-101141000D01*
X100499000Y-101212428D01*
X100641857Y-101283857D01*
X101141857Y-101283857D01*
X98999000Y-102069571D02*
X98999000Y-101283857D01*
X99070428Y-101141000D01*
X99213285Y-101069571D01*
X99499000Y-101069571D01*
X99641857Y-101141000D01*
X98999000Y-101998142D02*
X99141857Y-102069571D01*
X99499000Y-102069571D01*
X99641857Y-101998142D01*
X99713285Y-101855285D01*
X99713285Y-101712428D01*
X99641857Y-101569571D01*
X99499000Y-101498142D01*
X99141857Y-101498142D01*
X98999000Y-101426714D01*
X98356142Y-101998142D02*
X98213285Y-102069571D01*
X97927571Y-102069571D01*
X97784714Y-101998142D01*
X97713285Y-101855285D01*
X97713285Y-101783857D01*
X97784714Y-101641000D01*
X97927571Y-101569571D01*
X98141857Y-101569571D01*
X98284714Y-101498142D01*
X98356142Y-101355285D01*
X98356142Y-101283857D01*
X98284714Y-101141000D01*
X98141857Y-101069571D01*
X97927571Y-101069571D01*
X97784714Y-101141000D01*
X96499000Y-101998142D02*
X96641857Y-102069571D01*
X96927571Y-102069571D01*
X97070428Y-101998142D01*
X97141857Y-101855285D01*
X97141857Y-101283857D01*
X97070428Y-101141000D01*
X96927571Y-101069571D01*
X96641857Y-101069571D01*
X96499000Y-101141000D01*
X96427571Y-101283857D01*
X96427571Y-101426714D01*
X97141857Y-101569571D01*
X95141857Y-102069571D02*
X95141857Y-100569571D01*
X95141857Y-101998142D02*
X95284714Y-102069571D01*
X95570428Y-102069571D01*
X95713285Y-101998142D01*
X95784714Y-101926714D01*
X95856142Y-101783857D01*
X95856142Y-101355285D01*
X95784714Y-101212428D01*
X95713285Y-101141000D01*
X95570428Y-101069571D01*
X95284714Y-101069571D01*
X95141857Y-101141000D01*
X93070428Y-102069571D02*
X93213285Y-101998142D01*
X93284714Y-101926714D01*
X93356142Y-101783857D01*
X93356142Y-101355285D01*
X93284714Y-101212428D01*
X93213285Y-101141000D01*
X93070428Y-101069571D01*
X92856142Y-101069571D01*
X92713285Y-101141000D01*
X92641857Y-101212428D01*
X92570428Y-101355285D01*
X92570428Y-101783857D01*
X92641857Y-101926714D01*
X92713285Y-101998142D01*
X92856142Y-102069571D01*
X93070428Y-102069571D01*
X91927571Y-101069571D02*
X91927571Y-102069571D01*
X91927571Y-101212428D02*
X91856142Y-101141000D01*
X91713285Y-101069571D01*
X91499000Y-101069571D01*
X91356142Y-101141000D01*
X91284714Y-101283857D01*
X91284714Y-102069571D01*
X89641857Y-101069571D02*
X89070428Y-101069571D01*
X89427571Y-100569571D02*
X89427571Y-101855285D01*
X89356142Y-101998142D01*
X89213285Y-102069571D01*
X89070428Y-102069571D01*
X88570428Y-102069571D02*
X88570428Y-100569571D01*
X87927571Y-102069571D02*
X87927571Y-101283857D01*
X87999000Y-101141000D01*
X88141857Y-101069571D01*
X88356142Y-101069571D01*
X88499000Y-101141000D01*
X88570428Y-101212428D01*
X86641857Y-101998142D02*
X86784714Y-102069571D01*
X87070428Y-102069571D01*
X87213285Y-101998142D01*
X87284714Y-101855285D01*
X87284714Y-101283857D01*
X87213285Y-101141000D01*
X87070428Y-101069571D01*
X86784714Y-101069571D01*
X86641857Y-101141000D01*
X86570428Y-101283857D01*
X86570428Y-101426714D01*
X87284714Y-101569571D01*
X84141857Y-102069571D02*
X84141857Y-100569571D01*
X84141857Y-101998142D02*
X84284714Y-102069571D01*
X84570428Y-102069571D01*
X84713285Y-101998142D01*
X84784714Y-101926714D01*
X84856142Y-101783857D01*
X84856142Y-101355285D01*
X84784714Y-101212428D01*
X84713285Y-101141000D01*
X84570428Y-101069571D01*
X84284714Y-101069571D01*
X84141857Y-101141000D01*
X82856142Y-101998142D02*
X82999000Y-102069571D01*
X83284714Y-102069571D01*
X83427571Y-101998142D01*
X83499000Y-101855285D01*
X83499000Y-101283857D01*
X83427571Y-101141000D01*
X83284714Y-101069571D01*
X82999000Y-101069571D01*
X82856142Y-101141000D01*
X82784714Y-101283857D01*
X82784714Y-101426714D01*
X83499000Y-101569571D01*
X82213285Y-101998142D02*
X82070428Y-102069571D01*
X81784714Y-102069571D01*
X81641857Y-101998142D01*
X81570428Y-101855285D01*
X81570428Y-101783857D01*
X81641857Y-101641000D01*
X81784714Y-101569571D01*
X81999000Y-101569571D01*
X82141857Y-101498142D01*
X82213285Y-101355285D01*
X82213285Y-101283857D01*
X82141857Y-101141000D01*
X81999000Y-101069571D01*
X81784714Y-101069571D01*
X81641857Y-101141000D01*
X80927571Y-102069571D02*
X80927571Y-101069571D01*
X80927571Y-100569571D02*
X80999000Y-100641000D01*
X80927571Y-100712428D01*
X80856142Y-100641000D01*
X80927571Y-100569571D01*
X80927571Y-100712428D01*
X79570428Y-101069571D02*
X79570428Y-102283857D01*
X79641857Y-102426714D01*
X79713285Y-102498142D01*
X79856142Y-102569571D01*
X80070428Y-102569571D01*
X80213285Y-102498142D01*
X79570428Y-101998142D02*
X79713285Y-102069571D01*
X79999000Y-102069571D01*
X80141857Y-101998142D01*
X80213285Y-101926714D01*
X80284714Y-101783857D01*
X80284714Y-101355285D01*
X80213285Y-101212428D01*
X80141857Y-101141000D01*
X79999000Y-101069571D01*
X79713285Y-101069571D01*
X79570428Y-101141000D01*
X78856142Y-101069571D02*
X78856142Y-102069571D01*
X78856142Y-101212428D02*
X78784714Y-101141000D01*
X78641857Y-101069571D01*
X78427571Y-101069571D01*
X78284714Y-101141000D01*
X78213285Y-101283857D01*
X78213285Y-102069571D01*
X77570428Y-101998142D02*
X77427571Y-102069571D01*
X77141857Y-102069571D01*
X76999000Y-101998142D01*
X76927571Y-101855285D01*
X76927571Y-101783857D01*
X76999000Y-101641000D01*
X77141857Y-101569571D01*
X77356142Y-101569571D01*
X77499000Y-101498142D01*
X77570428Y-101355285D01*
X77570428Y-101283857D01*
X77499000Y-101141000D01*
X77356142Y-101069571D01*
X77141857Y-101069571D01*
X76999000Y-101141000D01*
X75141857Y-102069571D02*
X75141857Y-100569571D01*
X75141857Y-101141000D02*
X74999000Y-101069571D01*
X74713285Y-101069571D01*
X74570428Y-101141000D01*
X74499000Y-101212428D01*
X74427571Y-101355285D01*
X74427571Y-101783857D01*
X74499000Y-101926714D01*
X74570428Y-101998142D01*
X74713285Y-102069571D01*
X74999000Y-102069571D01*
X75141857Y-101998142D01*
X73927571Y-101069571D02*
X73570428Y-102069571D01*
X73213285Y-101069571D02*
X73570428Y-102069571D01*
X73713285Y-102426714D01*
X73784714Y-102498142D01*
X73927571Y-102569571D01*
X101641857Y-103805285D02*
X101713285Y-103733857D01*
X101856142Y-103662428D01*
X101999000Y-103662428D01*
X102141857Y-103733857D01*
X102213285Y-103805285D01*
X102284714Y-103948142D01*
X102284714Y-104091000D01*
X102213285Y-104233857D01*
X102141857Y-104305285D01*
X101999000Y-104376714D01*
X101856142Y-104376714D01*
X101713285Y-104305285D01*
X101641857Y-104233857D01*
X101641857Y-103662428D02*
X101641857Y-104233857D01*
X101570428Y-104305285D01*
X101499000Y-104305285D01*
X101356142Y-104233857D01*
X101284714Y-104091000D01*
X101284714Y-103733857D01*
X101427571Y-103519571D01*
X101641857Y-103376714D01*
X101927571Y-103305285D01*
X102213285Y-103376714D01*
X102427571Y-103519571D01*
X102570428Y-103733857D01*
X102641857Y-104019571D01*
X102570428Y-104305285D01*
X102427571Y-104519571D01*
X102213285Y-104662428D01*
X101927571Y-104733857D01*
X101641857Y-104662428D01*
X101427571Y-104519571D01*
X100641857Y-104519571D02*
X100641857Y-103019571D01*
X100070428Y-103019571D01*
X99927571Y-103091000D01*
X99856142Y-103162428D01*
X99784714Y-103305285D01*
X99784714Y-103519571D01*
X99856142Y-103662428D01*
X99927571Y-103733857D01*
X100070428Y-103805285D01*
X100641857Y-103805285D01*
X98499000Y-104519571D02*
X98499000Y-103733857D01*
X98570428Y-103591000D01*
X98713285Y-103519571D01*
X98999000Y-103519571D01*
X99141857Y-103591000D01*
X98499000Y-104448142D02*
X98641857Y-104519571D01*
X98999000Y-104519571D01*
X99141857Y-104448142D01*
X99213285Y-104305285D01*
X99213285Y-104162428D01*
X99141857Y-104019571D01*
X98999000Y-103948142D01*
X98641857Y-103948142D01*
X98499000Y-103876714D01*
X97141857Y-104448142D02*
X97284714Y-104519571D01*
X97570428Y-104519571D01*
X97713285Y-104448142D01*
X97784714Y-104376714D01*
X97856142Y-104233857D01*
X97856142Y-103805285D01*
X97784714Y-103662428D01*
X97713285Y-103591000D01*
X97570428Y-103519571D01*
X97284714Y-103519571D01*
X97141857Y-103591000D01*
X96499000Y-104519571D02*
X96499000Y-103019571D01*
X95856142Y-104519571D02*
X95856142Y-103733857D01*
X95927571Y-103591000D01*
X96070428Y-103519571D01*
X96284714Y-103519571D01*
X96427571Y-103591000D01*
X96499000Y-103662428D01*
X94499000Y-103519571D02*
X94499000Y-104519571D01*
X95141857Y-103519571D02*
X95141857Y-104305285D01*
X95070428Y-104448142D01*
X94927571Y-104519571D01*
X94713285Y-104519571D01*
X94570428Y-104448142D01*
X94499000Y-104376714D01*
X93141857Y-103519571D02*
X93141857Y-105019571D01*
X93141857Y-104448142D02*
X93284714Y-104519571D01*
X93570428Y-104519571D01*
X93713285Y-104448142D01*
X93784714Y-104376714D01*
X93856142Y-104233857D01*
X93856142Y-103805285D01*
X93784714Y-103662428D01*
X93713285Y-103591000D01*
X93570428Y-103519571D01*
X93284714Y-103519571D01*
X93141857Y-103591000D01*
X91784714Y-103519571D02*
X91784714Y-104519571D01*
X92427571Y-103519571D02*
X92427571Y-104305285D01*
X92356142Y-104448142D01*
X92213285Y-104519571D01*
X91999000Y-104519571D01*
X91856142Y-104448142D01*
X91784714Y-104376714D01*
X91070428Y-104519571D02*
X91070428Y-103519571D01*
X91070428Y-103019571D02*
X91141857Y-103091000D01*
X91070428Y-103162428D01*
X90999000Y-103091000D01*
X91070428Y-103019571D01*
X91070428Y-103162428D01*
X90356142Y-103519571D02*
X90356142Y-104519571D01*
X90356142Y-103662428D02*
X90284714Y-103591000D01*
X90141857Y-103519571D01*
X89927571Y-103519571D01*
X89784714Y-103591000D01*
X89713285Y-103733857D01*
X89713285Y-104519571D01*
X86641857Y-104519571D02*
X86713285Y-104519571D01*
X86856142Y-104448142D01*
X87070428Y-104233857D01*
X87427571Y-103805285D01*
X87570428Y-103591000D01*
X87641857Y-103376714D01*
X87641857Y-103233857D01*
X87570428Y-103091000D01*
X87427571Y-103019571D01*
X87356142Y-103019571D01*
X87213285Y-103091000D01*
X87141857Y-103233857D01*
X87141857Y-103305285D01*
X87213285Y-103448142D01*
X87284714Y-103519571D01*
X87713285Y-103805285D01*
X87784714Y-103876714D01*
X87856142Y-104019571D01*
X87856142Y-104233857D01*
X87784714Y-104376714D01*
X87713285Y-104448142D01*
X87570428Y-104519571D01*
X87356142Y-104519571D01*
X87213285Y-104448142D01*
X87141857Y-104376714D01*
X86927571Y-104091000D01*
X86856142Y-103876714D01*
X86856142Y-103733857D01*
X83927571Y-103805285D02*
X83999000Y-103733857D01*
X84141857Y-103662428D01*
X84284714Y-103662428D01*
X84427571Y-103733857D01*
X84499000Y-103805285D01*
X84570428Y-103948142D01*
X84570428Y-104091000D01*
X84499000Y-104233857D01*
X84427571Y-104305285D01*
X84284714Y-104376714D01*
X84141857Y-104376714D01*
X83999000Y-104305285D01*
X83927571Y-104233857D01*
X83927571Y-103662428D02*
X83927571Y-104233857D01*
X83856142Y-104305285D01*
X83784714Y-104305285D01*
X83641857Y-104233857D01*
X83570428Y-104091000D01*
X83570428Y-103733857D01*
X83713285Y-103519571D01*
X83927571Y-103376714D01*
X84213285Y-103305285D01*
X84499000Y-103376714D01*
X84713285Y-103519571D01*
X84856142Y-103733857D01*
X84927571Y-104019571D01*
X84856142Y-104305285D01*
X84713285Y-104519571D01*
X84499000Y-104662428D01*
X84213285Y-104733857D01*
X83927571Y-104662428D01*
X83713285Y-104519571D01*
X82284714Y-104519571D02*
X82284714Y-103733857D01*
X82356142Y-103591000D01*
X82499000Y-103519571D01*
X82784714Y-103519571D01*
X82927571Y-103591000D01*
X82284714Y-104448142D02*
X82427571Y-104519571D01*
X82784714Y-104519571D01*
X82927571Y-104448142D01*
X82999000Y-104305285D01*
X82999000Y-104162428D01*
X82927571Y-104019571D01*
X82784714Y-103948142D01*
X82427571Y-103948142D01*
X82284714Y-103876714D01*
X81356142Y-104519571D02*
X81499000Y-104448142D01*
X81570428Y-104305285D01*
X81570428Y-103019571D01*
X80927571Y-103519571D02*
X80570428Y-104519571D01*
X80213285Y-103519571D01*
X78999000Y-104519571D02*
X78999000Y-103733857D01*
X79070428Y-103591000D01*
X79213285Y-103519571D01*
X79499000Y-103519571D01*
X79641857Y-103591000D01*
X78999000Y-104448142D02*
X79141857Y-104519571D01*
X79499000Y-104519571D01*
X79641857Y-104448142D01*
X79713285Y-104305285D01*
X79713285Y-104162428D01*
X79641857Y-104019571D01*
X79499000Y-103948142D01*
X79141857Y-103948142D01*
X78999000Y-103876714D01*
X78284714Y-104519571D02*
X78284714Y-103519571D01*
X78284714Y-103805285D02*
X78213285Y-103662428D01*
X78141857Y-103591000D01*
X77999000Y-103519571D01*
X77856142Y-103519571D01*
X77141857Y-104519571D02*
X77284714Y-104448142D01*
X77356142Y-104376714D01*
X77427571Y-104233857D01*
X77427571Y-103805285D01*
X77356142Y-103662428D01*
X77284714Y-103591000D01*
X77141857Y-103519571D01*
X76927571Y-103519571D01*
X76784714Y-103591000D01*
X76713285Y-103662428D01*
X76641857Y-103805285D01*
X76641857Y-104233857D01*
X76713285Y-104376714D01*
X76784714Y-104448142D01*
X76927571Y-104519571D01*
X77141857Y-104519571D01*
X75356142Y-104519571D02*
X75356142Y-103733857D01*
X75427571Y-103591000D01*
X75570428Y-103519571D01*
X75856142Y-103519571D01*
X75999000Y-103591000D01*
X75356142Y-104448142D02*
X75499000Y-104519571D01*
X75856142Y-104519571D01*
X75999000Y-104448142D01*
X76070428Y-104305285D01*
X76070428Y-104162428D01*
X75999000Y-104019571D01*
X75856142Y-103948142D01*
X75499000Y-103948142D01*
X75356142Y-103876714D01*
X74427571Y-104519571D02*
X74570428Y-104448142D01*
X74641857Y-104305285D01*
X74641857Y-103019571D01*
X73284714Y-104448142D02*
X73427571Y-104519571D01*
X73713285Y-104519571D01*
X73856142Y-104448142D01*
X73927571Y-104305285D01*
X73927571Y-103733857D01*
X73856142Y-103591000D01*
X73713285Y-103519571D01*
X73427571Y-103519571D01*
X73284714Y-103591000D01*
X73213285Y-103733857D01*
X73213285Y-103876714D01*
X73927571Y-104019571D01*
X71927571Y-104519571D02*
X71927571Y-103733857D01*
X71999000Y-103591000D01*
X72141857Y-103519571D01*
X72427571Y-103519571D01*
X72570428Y-103591000D01*
X71927571Y-104448142D02*
X72070428Y-104519571D01*
X72427571Y-104519571D01*
X72570428Y-104448142D01*
X72641857Y-104305285D01*
X72641857Y-104162428D01*
X72570428Y-104019571D01*
X72427571Y-103948142D01*
X72070428Y-103948142D01*
X71927571Y-103876714D01*
X151624857Y-55124571D02*
X151624857Y-53624571D01*
X151124857Y-54696000D01*
X150624857Y-53624571D01*
X150624857Y-55124571D01*
X149124857Y-53696000D02*
X149267714Y-53624571D01*
X149482000Y-53624571D01*
X149696285Y-53696000D01*
X149839142Y-53838857D01*
X149910571Y-53981714D01*
X149982000Y-54267428D01*
X149982000Y-54481714D01*
X149910571Y-54767428D01*
X149839142Y-54910285D01*
X149696285Y-55053142D01*
X149482000Y-55124571D01*
X149339142Y-55124571D01*
X149124857Y-55053142D01*
X149053428Y-54981714D01*
X149053428Y-54481714D01*
X149339142Y-54481714D01*
X148624857Y-53624571D02*
X147767714Y-53624571D01*
X148196285Y-55124571D02*
X148196285Y-53624571D01*
X147196285Y-53624571D02*
X147339142Y-53910285D01*
X146624857Y-55053142D02*
X146482000Y-55124571D01*
X146196285Y-55124571D01*
X146053428Y-55053142D01*
X145982000Y-54910285D01*
X145982000Y-54838857D01*
X146053428Y-54696000D01*
X146196285Y-54624571D01*
X146410571Y-54624571D01*
X146553428Y-54553142D01*
X146624857Y-54410285D01*
X146624857Y-54338857D01*
X146553428Y-54196000D01*
X146410571Y-54124571D01*
X146196285Y-54124571D01*
X146053428Y-54196000D01*
X144267714Y-53624571D02*
X144267714Y-53910285D01*
X143696285Y-53624571D02*
X143696285Y-53910285D01*
X143053428Y-54553142D02*
X141910571Y-54553142D01*
X142482000Y-55124571D02*
X142482000Y-53981714D01*
X141196285Y-55124571D02*
X141196285Y-53624571D01*
X140839142Y-53624571D01*
X140624857Y-53696000D01*
X140482000Y-53838857D01*
X140410571Y-53981714D01*
X140339142Y-54267428D01*
X140339142Y-54481714D01*
X140410571Y-54767428D01*
X140482000Y-54910285D01*
X140624857Y-55053142D01*
X140839142Y-55124571D01*
X141196285Y-55124571D01*
X139767714Y-53624571D02*
X139767714Y-53910285D01*
X139196285Y-53624571D02*
X139196285Y-53910285D01*
X136553428Y-54981714D02*
X136624857Y-55053142D01*
X136839142Y-55124571D01*
X136982000Y-55124571D01*
X137196285Y-55053142D01*
X137339142Y-54910285D01*
X137410571Y-54767428D01*
X137482000Y-54481714D01*
X137482000Y-54267428D01*
X137410571Y-53981714D01*
X137339142Y-53838857D01*
X137196285Y-53696000D01*
X136982000Y-53624571D01*
X136839142Y-53624571D01*
X136624857Y-53696000D01*
X136553428Y-53767428D01*
X135696285Y-55124571D02*
X135839142Y-55053142D01*
X135910571Y-54910285D01*
X135910571Y-53624571D01*
X134910571Y-55124571D02*
X135053428Y-55053142D01*
X135124857Y-54981714D01*
X135196285Y-54838857D01*
X135196285Y-54410285D01*
X135124857Y-54267428D01*
X135053428Y-54196000D01*
X134910571Y-54124571D01*
X134696285Y-54124571D01*
X134553428Y-54196000D01*
X134482000Y-54267428D01*
X134410571Y-54410285D01*
X134410571Y-54838857D01*
X134482000Y-54981714D01*
X134553428Y-55053142D01*
X134696285Y-55124571D01*
X134910571Y-55124571D01*
X133767714Y-54124571D02*
X133767714Y-55124571D01*
X133767714Y-54267428D02*
X133696285Y-54196000D01*
X133553428Y-54124571D01*
X133339142Y-54124571D01*
X133196285Y-54196000D01*
X133124857Y-54338857D01*
X133124857Y-55124571D01*
X131839142Y-55053142D02*
X131982000Y-55124571D01*
X132267714Y-55124571D01*
X132410571Y-55053142D01*
X132482000Y-54910285D01*
X132482000Y-54338857D01*
X132410571Y-54196000D01*
X132267714Y-54124571D01*
X131982000Y-54124571D01*
X131839142Y-54196000D01*
X131767714Y-54338857D01*
X131767714Y-54481714D01*
X132482000Y-54624571D01*
X152946285Y-56788857D02*
X153446285Y-56788857D01*
X153446285Y-57574571D02*
X153446285Y-56074571D01*
X152732000Y-56074571D01*
X151946285Y-57574571D02*
X152089142Y-57503142D01*
X152160571Y-57360285D01*
X152160571Y-56074571D01*
X151160571Y-57574571D02*
X151303428Y-57503142D01*
X151374857Y-57431714D01*
X151446285Y-57288857D01*
X151446285Y-56860285D01*
X151374857Y-56717428D01*
X151303428Y-56646000D01*
X151160571Y-56574571D01*
X150946285Y-56574571D01*
X150803428Y-56646000D01*
X150732000Y-56717428D01*
X150660571Y-56860285D01*
X150660571Y-57288857D01*
X150732000Y-57431714D01*
X150803428Y-57503142D01*
X150946285Y-57574571D01*
X151160571Y-57574571D01*
X150017714Y-56574571D02*
X150017714Y-58074571D01*
X150017714Y-56646000D02*
X149874857Y-56574571D01*
X149589142Y-56574571D01*
X149446285Y-56646000D01*
X149374857Y-56717428D01*
X149303428Y-56860285D01*
X149303428Y-57288857D01*
X149374857Y-57431714D01*
X149446285Y-57503142D01*
X149589142Y-57574571D01*
X149874857Y-57574571D01*
X150017714Y-57503142D01*
X148660571Y-56574571D02*
X148660571Y-58074571D01*
X148660571Y-56646000D02*
X148517714Y-56574571D01*
X148232000Y-56574571D01*
X148089142Y-56646000D01*
X148017714Y-56717428D01*
X147946285Y-56860285D01*
X147946285Y-57288857D01*
X148017714Y-57431714D01*
X148089142Y-57503142D01*
X148232000Y-57574571D01*
X148517714Y-57574571D01*
X148660571Y-57503142D01*
X147446285Y-56574571D02*
X147089142Y-57574571D01*
X146732000Y-56574571D02*
X147089142Y-57574571D01*
X147232000Y-57931714D01*
X147303428Y-58003142D01*
X147446285Y-58074571D01*
X145017714Y-57574571D02*
X145017714Y-56074571D01*
X144660571Y-56074571D01*
X144446285Y-56146000D01*
X144303428Y-56288857D01*
X144232000Y-56431714D01*
X144160571Y-56717428D01*
X144160571Y-56931714D01*
X144232000Y-57217428D01*
X144303428Y-57360285D01*
X144446285Y-57503142D01*
X144660571Y-57574571D01*
X145017714Y-57574571D01*
X143517714Y-57574571D02*
X143517714Y-56574571D01*
X143517714Y-56074571D02*
X143589142Y-56146000D01*
X143517714Y-56217428D01*
X143446285Y-56146000D01*
X143517714Y-56074571D01*
X143517714Y-56217428D01*
X142874857Y-57503142D02*
X142732000Y-57574571D01*
X142446285Y-57574571D01*
X142303428Y-57503142D01*
X142232000Y-57360285D01*
X142232000Y-57288857D01*
X142303428Y-57146000D01*
X142446285Y-57074571D01*
X142660571Y-57074571D01*
X142803428Y-57003142D01*
X142874857Y-56860285D01*
X142874857Y-56788857D01*
X142803428Y-56646000D01*
X142660571Y-56574571D01*
X142446285Y-56574571D01*
X142303428Y-56646000D01*
X141589142Y-57574571D02*
X141589142Y-56074571D01*
X141446285Y-57003142D02*
X141017714Y-57574571D01*
X141017714Y-56574571D02*
X141589142Y-57146000D01*
X139232000Y-57574571D02*
X139232000Y-56074571D01*
X138517714Y-56574571D02*
X138517714Y-57574571D01*
X138517714Y-56717428D02*
X138446285Y-56646000D01*
X138303428Y-56574571D01*
X138089142Y-56574571D01*
X137946285Y-56646000D01*
X137874857Y-56788857D01*
X137874857Y-57574571D01*
X137374857Y-56574571D02*
X136803428Y-56574571D01*
X137160571Y-56074571D02*
X137160571Y-57360285D01*
X137089142Y-57503142D01*
X136946285Y-57574571D01*
X136803428Y-57574571D01*
X135732000Y-57503142D02*
X135874857Y-57574571D01*
X136160571Y-57574571D01*
X136303428Y-57503142D01*
X136374857Y-57360285D01*
X136374857Y-56788857D01*
X136303428Y-56646000D01*
X136160571Y-56574571D01*
X135874857Y-56574571D01*
X135732000Y-56646000D01*
X135660571Y-56788857D01*
X135660571Y-56931714D01*
X136374857Y-57074571D01*
X135017714Y-57574571D02*
X135017714Y-56574571D01*
X135017714Y-56860285D02*
X134946285Y-56717428D01*
X134874857Y-56646000D01*
X134732000Y-56574571D01*
X134589142Y-56574571D01*
X134303428Y-56574571D02*
X133732000Y-56574571D01*
X134089142Y-57574571D02*
X134089142Y-56288857D01*
X134017714Y-56146000D01*
X133874857Y-56074571D01*
X133732000Y-56074571D01*
X132589142Y-57574571D02*
X132589142Y-56788857D01*
X132660571Y-56646000D01*
X132803428Y-56574571D01*
X133089142Y-56574571D01*
X133232000Y-56646000D01*
X132589142Y-57503142D02*
X132732000Y-57574571D01*
X133089142Y-57574571D01*
X133232000Y-57503142D01*
X133303428Y-57360285D01*
X133303428Y-57217428D01*
X133232000Y-57074571D01*
X133089142Y-57003142D01*
X132732000Y-57003142D01*
X132589142Y-56931714D01*
X131232000Y-57503142D02*
X131374857Y-57574571D01*
X131660571Y-57574571D01*
X131803428Y-57503142D01*
X131874857Y-57431714D01*
X131946285Y-57288857D01*
X131946285Y-56860285D01*
X131874857Y-56717428D01*
X131803428Y-56646000D01*
X131660571Y-56574571D01*
X131374857Y-56574571D01*
X131232000Y-56646000D01*
X130017714Y-57503142D02*
X130160571Y-57574571D01*
X130446285Y-57574571D01*
X130589142Y-57503142D01*
X130660571Y-57360285D01*
X130660571Y-56788857D01*
X130589142Y-56646000D01*
X130446285Y-56574571D01*
X130160571Y-56574571D01*
X130017714Y-56646000D01*
X129946285Y-56788857D01*
X129946285Y-56931714D01*
X130660571Y-57074571D01*
X159339142Y-59238857D02*
X159839142Y-59238857D01*
X159839142Y-60024571D02*
X159839142Y-58524571D01*
X159124857Y-58524571D01*
X158339142Y-60024571D02*
X158482000Y-59953142D01*
X158553428Y-59881714D01*
X158624857Y-59738857D01*
X158624857Y-59310285D01*
X158553428Y-59167428D01*
X158482000Y-59096000D01*
X158339142Y-59024571D01*
X158124857Y-59024571D01*
X157982000Y-59096000D01*
X157910571Y-59167428D01*
X157839142Y-59310285D01*
X157839142Y-59738857D01*
X157910571Y-59881714D01*
X157982000Y-59953142D01*
X158124857Y-60024571D01*
X158339142Y-60024571D01*
X157196285Y-60024571D02*
X157196285Y-59024571D01*
X157196285Y-59310285D02*
X157124857Y-59167428D01*
X157053428Y-59096000D01*
X156910571Y-59024571D01*
X156767714Y-59024571D01*
X155267714Y-58524571D02*
X154267714Y-58524571D01*
X155267714Y-60024571D01*
X154267714Y-60024571D01*
X153839142Y-58524571D02*
X152839142Y-60024571D01*
X152839142Y-58524571D02*
X153839142Y-60024571D01*
X151196285Y-59953142D02*
X150982000Y-60024571D01*
X150624857Y-60024571D01*
X150482000Y-59953142D01*
X150410571Y-59881714D01*
X150339142Y-59738857D01*
X150339142Y-59596000D01*
X150410571Y-59453142D01*
X150482000Y-59381714D01*
X150624857Y-59310285D01*
X150910571Y-59238857D01*
X151053428Y-59167428D01*
X151124857Y-59096000D01*
X151196285Y-58953142D01*
X151196285Y-58810285D01*
X151124857Y-58667428D01*
X151053428Y-58596000D01*
X150910571Y-58524571D01*
X150553428Y-58524571D01*
X150339142Y-58596000D01*
X149696285Y-59024571D02*
X149696285Y-60524571D01*
X149696285Y-59096000D02*
X149553428Y-59024571D01*
X149267714Y-59024571D01*
X149124857Y-59096000D01*
X149053428Y-59167428D01*
X148982000Y-59310285D01*
X148982000Y-59738857D01*
X149053428Y-59881714D01*
X149124857Y-59953142D01*
X149267714Y-60024571D01*
X149553428Y-60024571D01*
X149696285Y-59953142D01*
X147767714Y-59953142D02*
X147910571Y-60024571D01*
X148196285Y-60024571D01*
X148339142Y-59953142D01*
X148410571Y-59810285D01*
X148410571Y-59238857D01*
X148339142Y-59096000D01*
X148196285Y-59024571D01*
X147910571Y-59024571D01*
X147767714Y-59096000D01*
X147696285Y-59238857D01*
X147696285Y-59381714D01*
X148410571Y-59524571D01*
X146410571Y-59953142D02*
X146553428Y-60024571D01*
X146839142Y-60024571D01*
X146982000Y-59953142D01*
X147053428Y-59881714D01*
X147124857Y-59738857D01*
X147124857Y-59310285D01*
X147053428Y-59167428D01*
X146982000Y-59096000D01*
X146839142Y-59024571D01*
X146553428Y-59024571D01*
X146410571Y-59096000D01*
X145982000Y-59024571D02*
X145410571Y-59024571D01*
X145767714Y-58524571D02*
X145767714Y-59810285D01*
X145696285Y-59953142D01*
X145553428Y-60024571D01*
X145410571Y-60024571D01*
X144910571Y-60024571D02*
X144910571Y-59024571D01*
X144910571Y-59310285D02*
X144839142Y-59167428D01*
X144767714Y-59096000D01*
X144624857Y-59024571D01*
X144482000Y-59024571D01*
X143339142Y-59024571D02*
X143339142Y-60024571D01*
X143982000Y-59024571D02*
X143982000Y-59810285D01*
X143910571Y-59953142D01*
X143767714Y-60024571D01*
X143553428Y-60024571D01*
X143410571Y-59953142D01*
X143339142Y-59881714D01*
X142624857Y-60024571D02*
X142624857Y-59024571D01*
X142624857Y-59167428D02*
X142553428Y-59096000D01*
X142410571Y-59024571D01*
X142196285Y-59024571D01*
X142053428Y-59096000D01*
X141982000Y-59238857D01*
X141982000Y-60024571D01*
X141982000Y-59238857D02*
X141910571Y-59096000D01*
X141767714Y-59024571D01*
X141553428Y-59024571D01*
X141410571Y-59096000D01*
X141339142Y-59238857D01*
X141339142Y-60024571D01*
X138839142Y-59024571D02*
X138839142Y-60024571D01*
X139196285Y-58453142D02*
X139553428Y-59524571D01*
X138624857Y-59524571D01*
X137839142Y-59167428D02*
X137982000Y-59096000D01*
X138053428Y-59024571D01*
X138124857Y-58881714D01*
X138124857Y-58810285D01*
X138053428Y-58667428D01*
X137982000Y-58596000D01*
X137839142Y-58524571D01*
X137553428Y-58524571D01*
X137410571Y-58596000D01*
X137339142Y-58667428D01*
X137267714Y-58810285D01*
X137267714Y-58881714D01*
X137339142Y-59024571D01*
X137410571Y-59096000D01*
X137553428Y-59167428D01*
X137839142Y-59167428D01*
X137982000Y-59238857D01*
X138053428Y-59310285D01*
X138124857Y-59453142D01*
X138124857Y-59738857D01*
X138053428Y-59881714D01*
X137982000Y-59953142D01*
X137839142Y-60024571D01*
X137553428Y-60024571D01*
X137410571Y-59953142D01*
X137339142Y-59881714D01*
X137267714Y-59738857D01*
X137267714Y-59453142D01*
X137339142Y-59310285D01*
X137410571Y-59238857D01*
X137553428Y-59167428D01*
X136624857Y-60024571D02*
X136624857Y-58524571D01*
X135767714Y-60024571D02*
X136410571Y-59167428D01*
X135767714Y-58524571D02*
X136624857Y-59381714D01*
X134053428Y-58453142D02*
X135339142Y-60381714D01*
X132767714Y-60024571D02*
X133624857Y-60024571D01*
X133196285Y-60024571D02*
X133196285Y-58524571D01*
X133339142Y-58738857D01*
X133482000Y-58881714D01*
X133624857Y-58953142D01*
X132196285Y-58667428D02*
X132124857Y-58596000D01*
X131982000Y-58524571D01*
X131624857Y-58524571D01*
X131482000Y-58596000D01*
X131410571Y-58667428D01*
X131339142Y-58810285D01*
X131339142Y-58953142D01*
X131410571Y-59167428D01*
X132267714Y-60024571D01*
X131339142Y-60024571D01*
X130482000Y-59167428D02*
X130624857Y-59096000D01*
X130696285Y-59024571D01*
X130767714Y-58881714D01*
X130767714Y-58810285D01*
X130696285Y-58667428D01*
X130624857Y-58596000D01*
X130482000Y-58524571D01*
X130196285Y-58524571D01*
X130053428Y-58596000D01*
X129982000Y-58667428D01*
X129910571Y-58810285D01*
X129910571Y-58881714D01*
X129982000Y-59024571D01*
X130053428Y-59096000D01*
X130196285Y-59167428D01*
X130482000Y-59167428D01*
X130624857Y-59238857D01*
X130696285Y-59310285D01*
X130767714Y-59453142D01*
X130767714Y-59738857D01*
X130696285Y-59881714D01*
X130624857Y-59953142D01*
X130482000Y-60024571D01*
X130196285Y-60024571D01*
X130053428Y-59953142D01*
X129982000Y-59881714D01*
X129910571Y-59738857D01*
X129910571Y-59453142D01*
X129982000Y-59310285D01*
X130053428Y-59238857D01*
X130196285Y-59167428D01*
X129267714Y-60024571D02*
X129267714Y-58524571D01*
X128410571Y-60024571D02*
X129053428Y-59167428D01*
X128410571Y-58524571D02*
X129267714Y-59381714D01*
X126696285Y-58453142D02*
X127982000Y-60381714D01*
X126196285Y-59453142D02*
X125053428Y-59453142D01*
X125624857Y-60024571D02*
X125624857Y-58881714D01*
X124482000Y-58524571D02*
X123553428Y-58524571D01*
X124053428Y-59096000D01*
X123839142Y-59096000D01*
X123696285Y-59167428D01*
X123624857Y-59238857D01*
X123553428Y-59381714D01*
X123553428Y-59738857D01*
X123624857Y-59881714D01*
X123696285Y-59953142D01*
X123839142Y-60024571D01*
X124267714Y-60024571D01*
X124410571Y-59953142D01*
X124482000Y-59881714D01*
D12*
X97974000Y-59874000D02*
X97674000Y-60174000D01*
X98274000Y-60174000D02*
X97674000Y-60174000D01*
X97974000Y-59874000D02*
X98274000Y-60174000D01*
X98824000Y-58974000D02*
X98824000Y-58374000D01*
X95374000Y-59674000D02*
X98174000Y-59674000D01*
X94724000Y-58374000D02*
X94724000Y-58974000D01*
X98174000Y-57674000D02*
X95374000Y-57674000D01*
X98824000Y-58374000D02*
G75*
G03*
X98124000Y-57674000I-700000J0D01*
G01*
X98124000Y-59674000D02*
G75*
G03*
X98824000Y-58974000I0J700000D01*
G01*
X94724000Y-58974000D02*
G75*
G03*
X95424000Y-59674000I700000J0D01*
G01*
X95424000Y-57674000D02*
G75*
G03*
X94724000Y-58374000I0J-700000D01*
G01*
D13*
G36*
X92460036Y-108796018D02*
G01*
X92403188Y-109097570D01*
X91983662Y-109270512D01*
X91732016Y-109099395D01*
X91661542Y-109051750D01*
X91597837Y-109009210D01*
X91543874Y-108973715D01*
X91502627Y-108947210D01*
X91477066Y-108931636D01*
X91470105Y-108928278D01*
X91457565Y-108936914D01*
X91430769Y-108960792D01*
X91392720Y-108996859D01*
X91346421Y-109042067D01*
X91294877Y-109093364D01*
X91241091Y-109147701D01*
X91188065Y-109202028D01*
X91138805Y-109253295D01*
X91096313Y-109298451D01*
X91063593Y-109334446D01*
X91043649Y-109358230D01*
X91038881Y-109366190D01*
X91045743Y-109380865D01*
X91064980Y-109413014D01*
X91094570Y-109459492D01*
X91132490Y-109517156D01*
X91176718Y-109582860D01*
X91202346Y-109620336D01*
X91249059Y-109688768D01*
X91290568Y-109750520D01*
X91324860Y-109802519D01*
X91349920Y-109841692D01*
X91363736Y-109864965D01*
X91365812Y-109869855D01*
X91361105Y-109883755D01*
X91348277Y-109916150D01*
X91329262Y-109962485D01*
X91305997Y-110018206D01*
X91280416Y-110078758D01*
X91254455Y-110139586D01*
X91230050Y-110196136D01*
X91209137Y-110243852D01*
X91193651Y-110278181D01*
X91185528Y-110294568D01*
X91185048Y-110295212D01*
X91172293Y-110298341D01*
X91138323Y-110305321D01*
X91086660Y-110315467D01*
X91020824Y-110328092D01*
X90944336Y-110342509D01*
X90899710Y-110350823D01*
X90817979Y-110366384D01*
X90744157Y-110381192D01*
X90681979Y-110394436D01*
X90635178Y-110405305D01*
X90607491Y-110412989D01*
X90601926Y-110415427D01*
X90596474Y-110431930D01*
X90592076Y-110469200D01*
X90588728Y-110522880D01*
X90586426Y-110588612D01*
X90585168Y-110662037D01*
X90584952Y-110738796D01*
X90585773Y-110814532D01*
X90587629Y-110884886D01*
X90590518Y-110945500D01*
X90594435Y-110992016D01*
X90599378Y-111020075D01*
X90602343Y-111025916D01*
X90620066Y-111032917D01*
X90657619Y-111042927D01*
X90710036Y-111054769D01*
X90772348Y-111067267D01*
X90794100Y-111071310D01*
X90898976Y-111090520D01*
X90981820Y-111105991D01*
X91045370Y-111118337D01*
X91092363Y-111128173D01*
X91125537Y-111136114D01*
X91147629Y-111142776D01*
X91161376Y-111148773D01*
X91169516Y-111154719D01*
X91170655Y-111155894D01*
X91182023Y-111174826D01*
X91199365Y-111211669D01*
X91220950Y-111261913D01*
X91245046Y-111321046D01*
X91269921Y-111384556D01*
X91293843Y-111447932D01*
X91315081Y-111506662D01*
X91331903Y-111556235D01*
X91342578Y-111592139D01*
X91345373Y-111609862D01*
X91345140Y-111610483D01*
X91335669Y-111624970D01*
X91314182Y-111656844D01*
X91282937Y-111702789D01*
X91244193Y-111759485D01*
X91200207Y-111823617D01*
X91187681Y-111841842D01*
X91143016Y-111907914D01*
X91103712Y-111968200D01*
X91071912Y-112019235D01*
X91049755Y-112057560D01*
X91039383Y-112079711D01*
X91038881Y-112082432D01*
X91047595Y-112096736D01*
X91071675Y-112125072D01*
X91108024Y-112164396D01*
X91153547Y-112211661D01*
X91205148Y-112263823D01*
X91259733Y-112317835D01*
X91314206Y-112370653D01*
X91365471Y-112419231D01*
X91410433Y-112460523D01*
X91445996Y-112491485D01*
X91469065Y-112509070D01*
X91475446Y-112511941D01*
X91490301Y-112505178D01*
X91520714Y-112486939D01*
X91561732Y-112460297D01*
X91593291Y-112438852D01*
X91650475Y-112399503D01*
X91718194Y-112353171D01*
X91786120Y-112306913D01*
X91822639Y-112282155D01*
X91946248Y-112198547D01*
X92050009Y-112254650D01*
X92097280Y-112279228D01*
X92137477Y-112298331D01*
X92164674Y-112309227D01*
X92171598Y-112310743D01*
X92179923Y-112299549D01*
X92196346Y-112267917D01*
X92219643Y-112218765D01*
X92248586Y-112155010D01*
X92281950Y-112079571D01*
X92318509Y-111995364D01*
X92357036Y-111905308D01*
X92396306Y-111812321D01*
X92435092Y-111719320D01*
X92472170Y-111629223D01*
X92506311Y-111544948D01*
X92536292Y-111469413D01*
X92560884Y-111405534D01*
X92578864Y-111356231D01*
X92589003Y-111324421D01*
X92590634Y-111313496D01*
X92577709Y-111299561D01*
X92549411Y-111276940D01*
X92511654Y-111250333D01*
X92508485Y-111248228D01*
X92410900Y-111170114D01*
X92332214Y-111078982D01*
X92273109Y-110977745D01*
X92234268Y-110869318D01*
X92216372Y-110756614D01*
X92220103Y-110642548D01*
X92246143Y-110530034D01*
X92295175Y-110421985D01*
X92309600Y-110398345D01*
X92384631Y-110302887D01*
X92473270Y-110226232D01*
X92572451Y-110168780D01*
X92679105Y-110130929D01*
X92790164Y-110113078D01*
X92902561Y-110115625D01*
X93013227Y-110138970D01*
X93119094Y-110183510D01*
X93217095Y-110249645D01*
X93247410Y-110276487D01*
X93324562Y-110360512D01*
X93380782Y-110448966D01*
X93419347Y-110548115D01*
X93440826Y-110646303D01*
X93446128Y-110756697D01*
X93428448Y-110867640D01*
X93389581Y-110975381D01*
X93331323Y-111076169D01*
X93255469Y-111166256D01*
X93163817Y-111241892D01*
X93151772Y-111249864D01*
X93113611Y-111275974D01*
X93084601Y-111298595D01*
X93070732Y-111313039D01*
X93070531Y-111313496D01*
X93073508Y-111329121D01*
X93085311Y-111364582D01*
X93104714Y-111416962D01*
X93130488Y-111483345D01*
X93161409Y-111560814D01*
X93196249Y-111646450D01*
X93233783Y-111737337D01*
X93272783Y-111830559D01*
X93312023Y-111923197D01*
X93350276Y-112012335D01*
X93386317Y-112095055D01*
X93418917Y-112168441D01*
X93446852Y-112229575D01*
X93468895Y-112275541D01*
X93483818Y-112303421D01*
X93489828Y-112310743D01*
X93508191Y-112305041D01*
X93542552Y-112289749D01*
X93586984Y-112267599D01*
X93611417Y-112254650D01*
X93715178Y-112198547D01*
X93838787Y-112282155D01*
X93901886Y-112324987D01*
X93970970Y-112372122D01*
X94035707Y-112416503D01*
X94068134Y-112438852D01*
X94113741Y-112469477D01*
X94152360Y-112493747D01*
X94178952Y-112508587D01*
X94187590Y-112511724D01*
X94200161Y-112503261D01*
X94227984Y-112479636D01*
X94268361Y-112443302D01*
X94318595Y-112396711D01*
X94375988Y-112342317D01*
X94412286Y-112307392D01*
X94475790Y-112244996D01*
X94530673Y-112189188D01*
X94574714Y-112142354D01*
X94605695Y-112106882D01*
X94621398Y-112085161D01*
X94622905Y-112080752D01*
X94615914Y-112063985D01*
X94596594Y-112030082D01*
X94567091Y-111982476D01*
X94529545Y-111924599D01*
X94486100Y-111859884D01*
X94473745Y-111841842D01*
X94428727Y-111776267D01*
X94388340Y-111717228D01*
X94354840Y-111668042D01*
X94330486Y-111632028D01*
X94317536Y-111612502D01*
X94316285Y-111610483D01*
X94318156Y-111594922D01*
X94328087Y-111560709D01*
X94344347Y-111512355D01*
X94365205Y-111454371D01*
X94388927Y-111391270D01*
X94413784Y-111327563D01*
X94438042Y-111267761D01*
X94459971Y-111216376D01*
X94477838Y-111177919D01*
X94489913Y-111156902D01*
X94490771Y-111155894D01*
X94498154Y-111149888D01*
X94510625Y-111143948D01*
X94530920Y-111137460D01*
X94561778Y-111129809D01*
X94605934Y-111120380D01*
X94666126Y-111108559D01*
X94745093Y-111093729D01*
X94845570Y-111075277D01*
X94867325Y-111071310D01*
X94931802Y-111058853D01*
X94988011Y-111046666D01*
X95030987Y-111035926D01*
X95055760Y-111027809D01*
X95059082Y-111025916D01*
X95064556Y-111009138D01*
X95069006Y-110971645D01*
X95072428Y-110917794D01*
X95074819Y-110851944D01*
X95076177Y-110778453D01*
X95076499Y-110701680D01*
X95075781Y-110625983D01*
X95074021Y-110555720D01*
X95071216Y-110495250D01*
X95067362Y-110448930D01*
X95062457Y-110421119D01*
X95059500Y-110415427D01*
X95043037Y-110409686D01*
X95005551Y-110400345D01*
X94950775Y-110388215D01*
X94882445Y-110374107D01*
X94804294Y-110358830D01*
X94761716Y-110350823D01*
X94680929Y-110335721D01*
X94608887Y-110322040D01*
X94549111Y-110310467D01*
X94505121Y-110301687D01*
X94480439Y-110296387D01*
X94476377Y-110295212D01*
X94469511Y-110281965D01*
X94454998Y-110250057D01*
X94434771Y-110204047D01*
X94410766Y-110148492D01*
X94384918Y-110087953D01*
X94359160Y-110026986D01*
X94335427Y-109970151D01*
X94315654Y-109922006D01*
X94301776Y-109887110D01*
X94295726Y-109870021D01*
X94295614Y-109869274D01*
X94302472Y-109855793D01*
X94321698Y-109824770D01*
X94351272Y-109779289D01*
X94389173Y-109722432D01*
X94433380Y-109657283D01*
X94459079Y-109619862D01*
X94505907Y-109551247D01*
X94547499Y-109488952D01*
X94581825Y-109436129D01*
X94606857Y-109395927D01*
X94620565Y-109371500D01*
X94622544Y-109366024D01*
X94614034Y-109353278D01*
X94590507Y-109326063D01*
X94554968Y-109287428D01*
X94510423Y-109240423D01*
X94459877Y-109188095D01*
X94406336Y-109133495D01*
X94352805Y-109079670D01*
X94302289Y-109029670D01*
X94257794Y-108986543D01*
X94222325Y-108953339D01*
X94198887Y-108933106D01*
X94191046Y-108928278D01*
X94178280Y-108935067D01*
X94147744Y-108954142D01*
X94102410Y-108983561D01*
X94045244Y-109021381D01*
X93979216Y-109065661D01*
X93929410Y-109099395D01*
X93677764Y-109270512D01*
X93468001Y-109184041D01*
X93258237Y-109097570D01*
X93201389Y-108796018D01*
X93144540Y-108494466D01*
X92516885Y-108494466D01*
X92460036Y-108796018D01*
G37*
X92460036Y-108796018D02*
X92403188Y-109097570D01*
X91983662Y-109270512D01*
X91732016Y-109099395D01*
X91661542Y-109051750D01*
X91597837Y-109009210D01*
X91543874Y-108973715D01*
X91502627Y-108947210D01*
X91477066Y-108931636D01*
X91470105Y-108928278D01*
X91457565Y-108936914D01*
X91430769Y-108960792D01*
X91392720Y-108996859D01*
X91346421Y-109042067D01*
X91294877Y-109093364D01*
X91241091Y-109147701D01*
X91188065Y-109202028D01*
X91138805Y-109253295D01*
X91096313Y-109298451D01*
X91063593Y-109334446D01*
X91043649Y-109358230D01*
X91038881Y-109366190D01*
X91045743Y-109380865D01*
X91064980Y-109413014D01*
X91094570Y-109459492D01*
X91132490Y-109517156D01*
X91176718Y-109582860D01*
X91202346Y-109620336D01*
X91249059Y-109688768D01*
X91290568Y-109750520D01*
X91324860Y-109802519D01*
X91349920Y-109841692D01*
X91363736Y-109864965D01*
X91365812Y-109869855D01*
X91361105Y-109883755D01*
X91348277Y-109916150D01*
X91329262Y-109962485D01*
X91305997Y-110018206D01*
X91280416Y-110078758D01*
X91254455Y-110139586D01*
X91230050Y-110196136D01*
X91209137Y-110243852D01*
X91193651Y-110278181D01*
X91185528Y-110294568D01*
X91185048Y-110295212D01*
X91172293Y-110298341D01*
X91138323Y-110305321D01*
X91086660Y-110315467D01*
X91020824Y-110328092D01*
X90944336Y-110342509D01*
X90899710Y-110350823D01*
X90817979Y-110366384D01*
X90744157Y-110381192D01*
X90681979Y-110394436D01*
X90635178Y-110405305D01*
X90607491Y-110412989D01*
X90601926Y-110415427D01*
X90596474Y-110431930D01*
X90592076Y-110469200D01*
X90588728Y-110522880D01*
X90586426Y-110588612D01*
X90585168Y-110662037D01*
X90584952Y-110738796D01*
X90585773Y-110814532D01*
X90587629Y-110884886D01*
X90590518Y-110945500D01*
X90594435Y-110992016D01*
X90599378Y-111020075D01*
X90602343Y-111025916D01*
X90620066Y-111032917D01*
X90657619Y-111042927D01*
X90710036Y-111054769D01*
X90772348Y-111067267D01*
X90794100Y-111071310D01*
X90898976Y-111090520D01*
X90981820Y-111105991D01*
X91045370Y-111118337D01*
X91092363Y-111128173D01*
X91125537Y-111136114D01*
X91147629Y-111142776D01*
X91161376Y-111148773D01*
X91169516Y-111154719D01*
X91170655Y-111155894D01*
X91182023Y-111174826D01*
X91199365Y-111211669D01*
X91220950Y-111261913D01*
X91245046Y-111321046D01*
X91269921Y-111384556D01*
X91293843Y-111447932D01*
X91315081Y-111506662D01*
X91331903Y-111556235D01*
X91342578Y-111592139D01*
X91345373Y-111609862D01*
X91345140Y-111610483D01*
X91335669Y-111624970D01*
X91314182Y-111656844D01*
X91282937Y-111702789D01*
X91244193Y-111759485D01*
X91200207Y-111823617D01*
X91187681Y-111841842D01*
X91143016Y-111907914D01*
X91103712Y-111968200D01*
X91071912Y-112019235D01*
X91049755Y-112057560D01*
X91039383Y-112079711D01*
X91038881Y-112082432D01*
X91047595Y-112096736D01*
X91071675Y-112125072D01*
X91108024Y-112164396D01*
X91153547Y-112211661D01*
X91205148Y-112263823D01*
X91259733Y-112317835D01*
X91314206Y-112370653D01*
X91365471Y-112419231D01*
X91410433Y-112460523D01*
X91445996Y-112491485D01*
X91469065Y-112509070D01*
X91475446Y-112511941D01*
X91490301Y-112505178D01*
X91520714Y-112486939D01*
X91561732Y-112460297D01*
X91593291Y-112438852D01*
X91650475Y-112399503D01*
X91718194Y-112353171D01*
X91786120Y-112306913D01*
X91822639Y-112282155D01*
X91946248Y-112198547D01*
X92050009Y-112254650D01*
X92097280Y-112279228D01*
X92137477Y-112298331D01*
X92164674Y-112309227D01*
X92171598Y-112310743D01*
X92179923Y-112299549D01*
X92196346Y-112267917D01*
X92219643Y-112218765D01*
X92248586Y-112155010D01*
X92281950Y-112079571D01*
X92318509Y-111995364D01*
X92357036Y-111905308D01*
X92396306Y-111812321D01*
X92435092Y-111719320D01*
X92472170Y-111629223D01*
X92506311Y-111544948D01*
X92536292Y-111469413D01*
X92560884Y-111405534D01*
X92578864Y-111356231D01*
X92589003Y-111324421D01*
X92590634Y-111313496D01*
X92577709Y-111299561D01*
X92549411Y-111276940D01*
X92511654Y-111250333D01*
X92508485Y-111248228D01*
X92410900Y-111170114D01*
X92332214Y-111078982D01*
X92273109Y-110977745D01*
X92234268Y-110869318D01*
X92216372Y-110756614D01*
X92220103Y-110642548D01*
X92246143Y-110530034D01*
X92295175Y-110421985D01*
X92309600Y-110398345D01*
X92384631Y-110302887D01*
X92473270Y-110226232D01*
X92572451Y-110168780D01*
X92679105Y-110130929D01*
X92790164Y-110113078D01*
X92902561Y-110115625D01*
X93013227Y-110138970D01*
X93119094Y-110183510D01*
X93217095Y-110249645D01*
X93247410Y-110276487D01*
X93324562Y-110360512D01*
X93380782Y-110448966D01*
X93419347Y-110548115D01*
X93440826Y-110646303D01*
X93446128Y-110756697D01*
X93428448Y-110867640D01*
X93389581Y-110975381D01*
X93331323Y-111076169D01*
X93255469Y-111166256D01*
X93163817Y-111241892D01*
X93151772Y-111249864D01*
X93113611Y-111275974D01*
X93084601Y-111298595D01*
X93070732Y-111313039D01*
X93070531Y-111313496D01*
X93073508Y-111329121D01*
X93085311Y-111364582D01*
X93104714Y-111416962D01*
X93130488Y-111483345D01*
X93161409Y-111560814D01*
X93196249Y-111646450D01*
X93233783Y-111737337D01*
X93272783Y-111830559D01*
X93312023Y-111923197D01*
X93350276Y-112012335D01*
X93386317Y-112095055D01*
X93418917Y-112168441D01*
X93446852Y-112229575D01*
X93468895Y-112275541D01*
X93483818Y-112303421D01*
X93489828Y-112310743D01*
X93508191Y-112305041D01*
X93542552Y-112289749D01*
X93586984Y-112267599D01*
X93611417Y-112254650D01*
X93715178Y-112198547D01*
X93838787Y-112282155D01*
X93901886Y-112324987D01*
X93970970Y-112372122D01*
X94035707Y-112416503D01*
X94068134Y-112438852D01*
X94113741Y-112469477D01*
X94152360Y-112493747D01*
X94178952Y-112508587D01*
X94187590Y-112511724D01*
X94200161Y-112503261D01*
X94227984Y-112479636D01*
X94268361Y-112443302D01*
X94318595Y-112396711D01*
X94375988Y-112342317D01*
X94412286Y-112307392D01*
X94475790Y-112244996D01*
X94530673Y-112189188D01*
X94574714Y-112142354D01*
X94605695Y-112106882D01*
X94621398Y-112085161D01*
X94622905Y-112080752D01*
X94615914Y-112063985D01*
X94596594Y-112030082D01*
X94567091Y-111982476D01*
X94529545Y-111924599D01*
X94486100Y-111859884D01*
X94473745Y-111841842D01*
X94428727Y-111776267D01*
X94388340Y-111717228D01*
X94354840Y-111668042D01*
X94330486Y-111632028D01*
X94317536Y-111612502D01*
X94316285Y-111610483D01*
X94318156Y-111594922D01*
X94328087Y-111560709D01*
X94344347Y-111512355D01*
X94365205Y-111454371D01*
X94388927Y-111391270D01*
X94413784Y-111327563D01*
X94438042Y-111267761D01*
X94459971Y-111216376D01*
X94477838Y-111177919D01*
X94489913Y-111156902D01*
X94490771Y-111155894D01*
X94498154Y-111149888D01*
X94510625Y-111143948D01*
X94530920Y-111137460D01*
X94561778Y-111129809D01*
X94605934Y-111120380D01*
X94666126Y-111108559D01*
X94745093Y-111093729D01*
X94845570Y-111075277D01*
X94867325Y-111071310D01*
X94931802Y-111058853D01*
X94988011Y-111046666D01*
X95030987Y-111035926D01*
X95055760Y-111027809D01*
X95059082Y-111025916D01*
X95064556Y-111009138D01*
X95069006Y-110971645D01*
X95072428Y-110917794D01*
X95074819Y-110851944D01*
X95076177Y-110778453D01*
X95076499Y-110701680D01*
X95075781Y-110625983D01*
X95074021Y-110555720D01*
X95071216Y-110495250D01*
X95067362Y-110448930D01*
X95062457Y-110421119D01*
X95059500Y-110415427D01*
X95043037Y-110409686D01*
X95005551Y-110400345D01*
X94950775Y-110388215D01*
X94882445Y-110374107D01*
X94804294Y-110358830D01*
X94761716Y-110350823D01*
X94680929Y-110335721D01*
X94608887Y-110322040D01*
X94549111Y-110310467D01*
X94505121Y-110301687D01*
X94480439Y-110296387D01*
X94476377Y-110295212D01*
X94469511Y-110281965D01*
X94454998Y-110250057D01*
X94434771Y-110204047D01*
X94410766Y-110148492D01*
X94384918Y-110087953D01*
X94359160Y-110026986D01*
X94335427Y-109970151D01*
X94315654Y-109922006D01*
X94301776Y-109887110D01*
X94295726Y-109870021D01*
X94295614Y-109869274D01*
X94302472Y-109855793D01*
X94321698Y-109824770D01*
X94351272Y-109779289D01*
X94389173Y-109722432D01*
X94433380Y-109657283D01*
X94459079Y-109619862D01*
X94505907Y-109551247D01*
X94547499Y-109488952D01*
X94581825Y-109436129D01*
X94606857Y-109395927D01*
X94620565Y-109371500D01*
X94622544Y-109366024D01*
X94614034Y-109353278D01*
X94590507Y-109326063D01*
X94554968Y-109287428D01*
X94510423Y-109240423D01*
X94459877Y-109188095D01*
X94406336Y-109133495D01*
X94352805Y-109079670D01*
X94302289Y-109029670D01*
X94257794Y-108986543D01*
X94222325Y-108953339D01*
X94198887Y-108933106D01*
X94191046Y-108928278D01*
X94178280Y-108935067D01*
X94147744Y-108954142D01*
X94102410Y-108983561D01*
X94045244Y-109021381D01*
X93979216Y-109065661D01*
X93929410Y-109099395D01*
X93677764Y-109270512D01*
X93468001Y-109184041D01*
X93258237Y-109097570D01*
X93201389Y-108796018D01*
X93144540Y-108494466D01*
X92516885Y-108494466D01*
X92460036Y-108796018D01*
G36*
X91037540Y-112964030D02*
G01*
X90994289Y-112977245D01*
X90966442Y-112993941D01*
X90957371Y-113007145D01*
X90959868Y-113022797D01*
X90976069Y-113047385D01*
X90989768Y-113064800D01*
X91018008Y-113096283D01*
X91039225Y-113109529D01*
X91057312Y-113108664D01*
X91110965Y-113095010D01*
X91150370Y-113095630D01*
X91182368Y-113111104D01*
X91193110Y-113120161D01*
X91227495Y-113152027D01*
X91227495Y-113568179D01*
X91365812Y-113568179D01*
X91365812Y-112964614D01*
X91296653Y-112964614D01*
X91255131Y-112966256D01*
X91233709Y-112972087D01*
X91227498Y-112983461D01*
X91227495Y-112983798D01*
X91224561Y-112995713D01*
X91211296Y-112994159D01*
X91192916Y-112985563D01*
X91154954Y-112969568D01*
X91124128Y-112959945D01*
X91084464Y-112957478D01*
X91037540Y-112964030D01*
G37*
X91037540Y-112964030D02*
X90994289Y-112977245D01*
X90966442Y-112993941D01*
X90957371Y-113007145D01*
X90959868Y-113022797D01*
X90976069Y-113047385D01*
X90989768Y-113064800D01*
X91018008Y-113096283D01*
X91039225Y-113109529D01*
X91057312Y-113108664D01*
X91110965Y-113095010D01*
X91150370Y-113095630D01*
X91182368Y-113111104D01*
X91193110Y-113120161D01*
X91227495Y-113152027D01*
X91227495Y-113568179D01*
X91365812Y-113568179D01*
X91365812Y-112964614D01*
X91296653Y-112964614D01*
X91255131Y-112966256D01*
X91233709Y-112972087D01*
X91227498Y-112983461D01*
X91227495Y-112983798D01*
X91224561Y-112995713D01*
X91211296Y-112994159D01*
X91192916Y-112985563D01*
X91154954Y-112969568D01*
X91124128Y-112959945D01*
X91084464Y-112957478D01*
X91037540Y-112964030D01*
G36*
X93591012Y-112975002D02*
G01*
X93559717Y-112989950D01*
X93529409Y-113011541D01*
X93506318Y-113036391D01*
X93489500Y-113068087D01*
X93478006Y-113110214D01*
X93470891Y-113166358D01*
X93467207Y-113240106D01*
X93466008Y-113335044D01*
X93465989Y-113344985D01*
X93465713Y-113568179D01*
X93604030Y-113568179D01*
X93604030Y-113362418D01*
X93604128Y-113286189D01*
X93604809Y-113230939D01*
X93606651Y-113192501D01*
X93610233Y-113166706D01*
X93616132Y-113149384D01*
X93624927Y-113136368D01*
X93637180Y-113123507D01*
X93680047Y-113095873D01*
X93726843Y-113090745D01*
X93771424Y-113108217D01*
X93786928Y-113121221D01*
X93798310Y-113133447D01*
X93806481Y-113146540D01*
X93811974Y-113164615D01*
X93815320Y-113191787D01*
X93817051Y-113232170D01*
X93817697Y-113289879D01*
X93817792Y-113360132D01*
X93817792Y-113568179D01*
X93956109Y-113568179D01*
X93956109Y-112964614D01*
X93886950Y-112964614D01*
X93845428Y-112966256D01*
X93824006Y-112972087D01*
X93817795Y-112983461D01*
X93817792Y-112983798D01*
X93814910Y-112994938D01*
X93802199Y-112993674D01*
X93776926Y-112981434D01*
X93719605Y-112963424D01*
X93654037Y-112961421D01*
X93591012Y-112975002D01*
G37*
X93591012Y-112975002D02*
X93559717Y-112989950D01*
X93529409Y-113011541D01*
X93506318Y-113036391D01*
X93489500Y-113068087D01*
X93478006Y-113110214D01*
X93470891Y-113166358D01*
X93467207Y-113240106D01*
X93466008Y-113335044D01*
X93465989Y-113344985D01*
X93465713Y-113568179D01*
X93604030Y-113568179D01*
X93604030Y-113362418D01*
X93604128Y-113286189D01*
X93604809Y-113230939D01*
X93606651Y-113192501D01*
X93610233Y-113166706D01*
X93616132Y-113149384D01*
X93624927Y-113136368D01*
X93637180Y-113123507D01*
X93680047Y-113095873D01*
X93726843Y-113090745D01*
X93771424Y-113108217D01*
X93786928Y-113121221D01*
X93798310Y-113133447D01*
X93806481Y-113146540D01*
X93811974Y-113164615D01*
X93815320Y-113191787D01*
X93817051Y-113232170D01*
X93817697Y-113289879D01*
X93817792Y-113360132D01*
X93817792Y-113568179D01*
X93956109Y-113568179D01*
X93956109Y-112964614D01*
X93886950Y-112964614D01*
X93845428Y-112966256D01*
X93824006Y-112972087D01*
X93817795Y-112983461D01*
X93817792Y-112983798D01*
X93814910Y-112994938D01*
X93802199Y-112993674D01*
X93776926Y-112981434D01*
X93719605Y-112963424D01*
X93654037Y-112961421D01*
X93591012Y-112975002D01*
G36*
X90159102Y-112962457D02*
G01*
X90126904Y-112970279D01*
X90065175Y-112998921D01*
X90012390Y-113042667D01*
X89975859Y-113095117D01*
X89970840Y-113106893D01*
X89963955Y-113137740D01*
X89959136Y-113183371D01*
X89957495Y-113229492D01*
X89957495Y-113316693D01*
X90139822Y-113316693D01*
X90215021Y-113316978D01*
X90267997Y-113318704D01*
X90301675Y-113323181D01*
X90318980Y-113331720D01*
X90322837Y-113345630D01*
X90316171Y-113366222D01*
X90304230Y-113390315D01*
X90270920Y-113430525D01*
X90224632Y-113450558D01*
X90168056Y-113449905D01*
X90103969Y-113428101D01*
X90048583Y-113401193D01*
X90002625Y-113437532D01*
X89956667Y-113473872D01*
X89999904Y-113513819D01*
X90057626Y-113551563D01*
X90128614Y-113574320D01*
X90204971Y-113580688D01*
X90278801Y-113569268D01*
X90290713Y-113565393D01*
X90355601Y-113531506D01*
X90403870Y-113480986D01*
X90436535Y-113412325D01*
X90454615Y-113324014D01*
X90454825Y-113322121D01*
X90456444Y-113225878D01*
X90449900Y-113191542D01*
X90322148Y-113191542D01*
X90310416Y-113196822D01*
X90278562Y-113200867D01*
X90231603Y-113203176D01*
X90201846Y-113203525D01*
X90146352Y-113203306D01*
X90111654Y-113201916D01*
X90093399Y-113198251D01*
X90087234Y-113191210D01*
X90088805Y-113179690D01*
X90090122Y-113175233D01*
X90112618Y-113133355D01*
X90147997Y-113099604D01*
X90179220Y-113084773D01*
X90220699Y-113085668D01*
X90262731Y-113104164D01*
X90297988Y-113134786D01*
X90319146Y-113172062D01*
X90322148Y-113191542D01*
X90449900Y-113191542D01*
X90440310Y-113141229D01*
X90408302Y-113070191D01*
X90362299Y-113014779D01*
X90304179Y-112977009D01*
X90235820Y-112958896D01*
X90159102Y-112962457D01*
G37*
X90159102Y-112962457D02*
X90126904Y-112970279D01*
X90065175Y-112998921D01*
X90012390Y-113042667D01*
X89975859Y-113095117D01*
X89970840Y-113106893D01*
X89963955Y-113137740D01*
X89959136Y-113183371D01*
X89957495Y-113229492D01*
X89957495Y-113316693D01*
X90139822Y-113316693D01*
X90215021Y-113316978D01*
X90267997Y-113318704D01*
X90301675Y-113323181D01*
X90318980Y-113331720D01*
X90322837Y-113345630D01*
X90316171Y-113366222D01*
X90304230Y-113390315D01*
X90270920Y-113430525D01*
X90224632Y-113450558D01*
X90168056Y-113449905D01*
X90103969Y-113428101D01*
X90048583Y-113401193D01*
X90002625Y-113437532D01*
X89956667Y-113473872D01*
X89999904Y-113513819D01*
X90057626Y-113551563D01*
X90128614Y-113574320D01*
X90204971Y-113580688D01*
X90278801Y-113569268D01*
X90290713Y-113565393D01*
X90355601Y-113531506D01*
X90403870Y-113480986D01*
X90436535Y-113412325D01*
X90454615Y-113324014D01*
X90454825Y-113322121D01*
X90456444Y-113225878D01*
X90449900Y-113191542D01*
X90322148Y-113191542D01*
X90310416Y-113196822D01*
X90278562Y-113200867D01*
X90231603Y-113203176D01*
X90201846Y-113203525D01*
X90146352Y-113203306D01*
X90111654Y-113201916D01*
X90093399Y-113198251D01*
X90087234Y-113191210D01*
X90088805Y-113179690D01*
X90090122Y-113175233D01*
X90112618Y-113133355D01*
X90147997Y-113099604D01*
X90179220Y-113084773D01*
X90220699Y-113085668D01*
X90262731Y-113104164D01*
X90297988Y-113134786D01*
X90319146Y-113172062D01*
X90322148Y-113191542D01*
X90449900Y-113191542D01*
X90440310Y-113141229D01*
X90408302Y-113070191D01*
X90362299Y-113014779D01*
X90304179Y-112977009D01*
X90235820Y-112958896D01*
X90159102Y-112962457D01*
G36*
X90619774Y-112969880D02*
G01*
X90546920Y-113000830D01*
X90523973Y-113015895D01*
X90494646Y-113039048D01*
X90476236Y-113057253D01*
X90473039Y-113063183D01*
X90482065Y-113076340D01*
X90505163Y-113098667D01*
X90523656Y-113114250D01*
X90574272Y-113154926D01*
X90614240Y-113121295D01*
X90645126Y-113099584D01*
X90675241Y-113092090D01*
X90709708Y-113093920D01*
X90764439Y-113107528D01*
X90802114Y-113135772D01*
X90825009Y-113181433D01*
X90835403Y-113247289D01*
X90835405Y-113247331D01*
X90834506Y-113320939D01*
X90820537Y-113374946D01*
X90792672Y-113411716D01*
X90773675Y-113424168D01*
X90723224Y-113439673D01*
X90669337Y-113439683D01*
X90622454Y-113424638D01*
X90611356Y-113417287D01*
X90583524Y-113398511D01*
X90561764Y-113395434D01*
X90538296Y-113409409D01*
X90512351Y-113434510D01*
X90471284Y-113476880D01*
X90516879Y-113514464D01*
X90587326Y-113556882D01*
X90666767Y-113577785D01*
X90749785Y-113576272D01*
X90804306Y-113562411D01*
X90868030Y-113528135D01*
X90918995Y-113474212D01*
X90942149Y-113436149D01*
X90960901Y-113381536D01*
X90970285Y-113312369D01*
X90970357Y-113237407D01*
X90961176Y-113165409D01*
X90942801Y-113105137D01*
X90939907Y-113098958D01*
X90897048Y-113038351D01*
X90839021Y-112994224D01*
X90770409Y-112967493D01*
X90695799Y-112959073D01*
X90619774Y-112969880D01*
G37*
X90619774Y-112969880D02*
X90546920Y-113000830D01*
X90523973Y-113015895D01*
X90494646Y-113039048D01*
X90476236Y-113057253D01*
X90473039Y-113063183D01*
X90482065Y-113076340D01*
X90505163Y-113098667D01*
X90523656Y-113114250D01*
X90574272Y-113154926D01*
X90614240Y-113121295D01*
X90645126Y-113099584D01*
X90675241Y-113092090D01*
X90709708Y-113093920D01*
X90764439Y-113107528D01*
X90802114Y-113135772D01*
X90825009Y-113181433D01*
X90835403Y-113247289D01*
X90835405Y-113247331D01*
X90834506Y-113320939D01*
X90820537Y-113374946D01*
X90792672Y-113411716D01*
X90773675Y-113424168D01*
X90723224Y-113439673D01*
X90669337Y-113439683D01*
X90622454Y-113424638D01*
X90611356Y-113417287D01*
X90583524Y-113398511D01*
X90561764Y-113395434D01*
X90538296Y-113409409D01*
X90512351Y-113434510D01*
X90471284Y-113476880D01*
X90516879Y-113514464D01*
X90587326Y-113556882D01*
X90666767Y-113577785D01*
X90749785Y-113576272D01*
X90804306Y-113562411D01*
X90868030Y-113528135D01*
X90918995Y-113474212D01*
X90942149Y-113436149D01*
X90960901Y-113381536D01*
X90970285Y-113312369D01*
X90970357Y-113237407D01*
X90961176Y-113165409D01*
X90942801Y-113105137D01*
X90939907Y-113098958D01*
X90897048Y-113038351D01*
X90839021Y-112994224D01*
X90770409Y-112967493D01*
X90695799Y-112959073D01*
X90619774Y-112969880D01*
G36*
X91843633Y-113160342D02*
G01*
X91842445Y-113252563D01*
X91838103Y-113322610D01*
X91829442Y-113373381D01*
X91815296Y-113407772D01*
X91794500Y-113428679D01*
X91765890Y-113439000D01*
X91730465Y-113441636D01*
X91693364Y-113438682D01*
X91665182Y-113427889D01*
X91644757Y-113406360D01*
X91630921Y-113371199D01*
X91622509Y-113319510D01*
X91618357Y-113248394D01*
X91617297Y-113160342D01*
X91617297Y-112964614D01*
X91478980Y-112964614D01*
X91478980Y-113568179D01*
X91548138Y-113568179D01*
X91589830Y-113566489D01*
X91611299Y-113560556D01*
X91617297Y-113549293D01*
X91620909Y-113539261D01*
X91635286Y-113541383D01*
X91664264Y-113555580D01*
X91730681Y-113577480D01*
X91801125Y-113575928D01*
X91868623Y-113552147D01*
X91900767Y-113533362D01*
X91925285Y-113513022D01*
X91943196Y-113487573D01*
X91955521Y-113453458D01*
X91963277Y-113407121D01*
X91967484Y-113345007D01*
X91969160Y-113263561D01*
X91969376Y-113200578D01*
X91969376Y-112964614D01*
X91843633Y-112964614D01*
X91843633Y-113160342D01*
G37*
X91843633Y-113160342D02*
X91842445Y-113252563D01*
X91838103Y-113322610D01*
X91829442Y-113373381D01*
X91815296Y-113407772D01*
X91794500Y-113428679D01*
X91765890Y-113439000D01*
X91730465Y-113441636D01*
X91693364Y-113438682D01*
X91665182Y-113427889D01*
X91644757Y-113406360D01*
X91630921Y-113371199D01*
X91622509Y-113319510D01*
X91618357Y-113248394D01*
X91617297Y-113160342D01*
X91617297Y-112964614D01*
X91478980Y-112964614D01*
X91478980Y-113568179D01*
X91548138Y-113568179D01*
X91589830Y-113566489D01*
X91611299Y-113560556D01*
X91617297Y-113549293D01*
X91620909Y-113539261D01*
X91635286Y-113541383D01*
X91664264Y-113555580D01*
X91730681Y-113577480D01*
X91801125Y-113575928D01*
X91868623Y-113552147D01*
X91900767Y-113533362D01*
X91925285Y-113513022D01*
X91943196Y-113487573D01*
X91955521Y-113453458D01*
X91963277Y-113407121D01*
X91967484Y-113345007D01*
X91969160Y-113263561D01*
X91969376Y-113200578D01*
X91969376Y-112964614D01*
X91843633Y-112964614D01*
X91843633Y-113160342D01*
G36*
X92226238Y-112972055D02*
G01*
X92162637Y-113006692D01*
X92112877Y-113061372D01*
X92089432Y-113105842D01*
X92079366Y-113145121D01*
X92072844Y-113201116D01*
X92070049Y-113265621D01*
X92071164Y-113330429D01*
X92076374Y-113387334D01*
X92082459Y-113417727D01*
X92102986Y-113459306D01*
X92138537Y-113503468D01*
X92181381Y-113542087D01*
X92223789Y-113567034D01*
X92224823Y-113567430D01*
X92277447Y-113578331D01*
X92339812Y-113578601D01*
X92399076Y-113568676D01*
X92421960Y-113560722D01*
X92480898Y-113527300D01*
X92523110Y-113483511D01*
X92550844Y-113425538D01*
X92566349Y-113349565D01*
X92569857Y-113309771D01*
X92569410Y-113259766D01*
X92434624Y-113259766D01*
X92430083Y-113332732D01*
X92417014Y-113388334D01*
X92396244Y-113423861D01*
X92381448Y-113434020D01*
X92343536Y-113441104D01*
X92298473Y-113439007D01*
X92259513Y-113428812D01*
X92249296Y-113423204D01*
X92222341Y-113390538D01*
X92204549Y-113340545D01*
X92196976Y-113279705D01*
X92200675Y-113214497D01*
X92208943Y-113175253D01*
X92232680Y-113129805D01*
X92270151Y-113101396D01*
X92315280Y-113091573D01*
X92361989Y-113101887D01*
X92397868Y-113127112D01*
X92416723Y-113147925D01*
X92427728Y-113168439D01*
X92432974Y-113196203D01*
X92434551Y-113238762D01*
X92434624Y-113259766D01*
X92569410Y-113259766D01*
X92568906Y-113203580D01*
X92551612Y-113116501D01*
X92517971Y-113048530D01*
X92467982Y-112999664D01*
X92401644Y-112969899D01*
X92387399Y-112966448D01*
X92301790Y-112958345D01*
X92226238Y-112972055D01*
G37*
X92226238Y-112972055D02*
X92162637Y-113006692D01*
X92112877Y-113061372D01*
X92089432Y-113105842D01*
X92079366Y-113145121D01*
X92072844Y-113201116D01*
X92070049Y-113265621D01*
X92071164Y-113330429D01*
X92076374Y-113387334D01*
X92082459Y-113417727D01*
X92102986Y-113459306D01*
X92138537Y-113503468D01*
X92181381Y-113542087D01*
X92223789Y-113567034D01*
X92224823Y-113567430D01*
X92277447Y-113578331D01*
X92339812Y-113578601D01*
X92399076Y-113568676D01*
X92421960Y-113560722D01*
X92480898Y-113527300D01*
X92523110Y-113483511D01*
X92550844Y-113425538D01*
X92566349Y-113349565D01*
X92569857Y-113309771D01*
X92569410Y-113259766D01*
X92434624Y-113259766D01*
X92430083Y-113332732D01*
X92417014Y-113388334D01*
X92396244Y-113423861D01*
X92381448Y-113434020D01*
X92343536Y-113441104D01*
X92298473Y-113439007D01*
X92259513Y-113428812D01*
X92249296Y-113423204D01*
X92222341Y-113390538D01*
X92204549Y-113340545D01*
X92196976Y-113279705D01*
X92200675Y-113214497D01*
X92208943Y-113175253D01*
X92232680Y-113129805D01*
X92270151Y-113101396D01*
X92315280Y-113091573D01*
X92361989Y-113101887D01*
X92397868Y-113127112D01*
X92416723Y-113147925D01*
X92427728Y-113168439D01*
X92432974Y-113196203D01*
X92434551Y-113238762D01*
X92434624Y-113259766D01*
X92569410Y-113259766D01*
X92568906Y-113203580D01*
X92551612Y-113116501D01*
X92517971Y-113048530D01*
X92467982Y-112999664D01*
X92401644Y-112969899D01*
X92387399Y-112966448D01*
X92301790Y-112958345D01*
X92226238Y-112972055D01*
G36*
X92822983Y-112962452D02*
G01*
X92775366Y-112971482D01*
X92725966Y-112990370D01*
X92720688Y-112992777D01*
X92683226Y-113012476D01*
X92657283Y-113030781D01*
X92648897Y-113042508D01*
X92656883Y-113061632D01*
X92676280Y-113089850D01*
X92684890Y-113100384D01*
X92720372Y-113141847D01*
X92766115Y-113114858D01*
X92809650Y-113096878D01*
X92859950Y-113087267D01*
X92908188Y-113086660D01*
X92945533Y-113095691D01*
X92954495Y-113101327D01*
X92971563Y-113127171D01*
X92973637Y-113156941D01*
X92960866Y-113180197D01*
X92953312Y-113184708D01*
X92930675Y-113190309D01*
X92890885Y-113196892D01*
X92841834Y-113203183D01*
X92832785Y-113204170D01*
X92754004Y-113217798D01*
X92696864Y-113240946D01*
X92658970Y-113275752D01*
X92637921Y-113324354D01*
X92631365Y-113383718D01*
X92640423Y-113451198D01*
X92669836Y-113504188D01*
X92719722Y-113542783D01*
X92790200Y-113567081D01*
X92868435Y-113576667D01*
X92932234Y-113576552D01*
X92983984Y-113567845D01*
X93019327Y-113555825D01*
X93063983Y-113534880D01*
X93105253Y-113510574D01*
X93119921Y-113499876D01*
X93157643Y-113469084D01*
X93112148Y-113423049D01*
X93066653Y-113377013D01*
X93014928Y-113411243D01*
X92963048Y-113436952D01*
X92907649Y-113450399D01*
X92854395Y-113451818D01*
X92808951Y-113441443D01*
X92776984Y-113419507D01*
X92766662Y-113400998D01*
X92768211Y-113371314D01*
X92793860Y-113348615D01*
X92843540Y-113332940D01*
X92897969Y-113325695D01*
X92981736Y-113311873D01*
X93043967Y-113285796D01*
X93085493Y-113246699D01*
X93107147Y-113193820D01*
X93110147Y-113131126D01*
X93095329Y-113065642D01*
X93061546Y-113016144D01*
X93008495Y-112982408D01*
X92935874Y-112964207D01*
X92882072Y-112960639D01*
X92822983Y-112962452D01*
G37*
X92822983Y-112962452D02*
X92775366Y-112971482D01*
X92725966Y-112990370D01*
X92720688Y-112992777D01*
X92683226Y-113012476D01*
X92657283Y-113030781D01*
X92648897Y-113042508D01*
X92656883Y-113061632D01*
X92676280Y-113089850D01*
X92684890Y-113100384D01*
X92720372Y-113141847D01*
X92766115Y-113114858D01*
X92809650Y-113096878D01*
X92859950Y-113087267D01*
X92908188Y-113086660D01*
X92945533Y-113095691D01*
X92954495Y-113101327D01*
X92971563Y-113127171D01*
X92973637Y-113156941D01*
X92960866Y-113180197D01*
X92953312Y-113184708D01*
X92930675Y-113190309D01*
X92890885Y-113196892D01*
X92841834Y-113203183D01*
X92832785Y-113204170D01*
X92754004Y-113217798D01*
X92696864Y-113240946D01*
X92658970Y-113275752D01*
X92637921Y-113324354D01*
X92631365Y-113383718D01*
X92640423Y-113451198D01*
X92669836Y-113504188D01*
X92719722Y-113542783D01*
X92790200Y-113567081D01*
X92868435Y-113576667D01*
X92932234Y-113576552D01*
X92983984Y-113567845D01*
X93019327Y-113555825D01*
X93063983Y-113534880D01*
X93105253Y-113510574D01*
X93119921Y-113499876D01*
X93157643Y-113469084D01*
X93112148Y-113423049D01*
X93066653Y-113377013D01*
X93014928Y-113411243D01*
X92963048Y-113436952D01*
X92907649Y-113450399D01*
X92854395Y-113451818D01*
X92808951Y-113441443D01*
X92776984Y-113419507D01*
X92766662Y-113400998D01*
X92768211Y-113371314D01*
X92793860Y-113348615D01*
X92843540Y-113332940D01*
X92897969Y-113325695D01*
X92981736Y-113311873D01*
X93043967Y-113285796D01*
X93085493Y-113246699D01*
X93107147Y-113193820D01*
X93110147Y-113131126D01*
X93095329Y-113065642D01*
X93061546Y-113016144D01*
X93008495Y-112982408D01*
X92935874Y-112964207D01*
X92882072Y-112960639D01*
X92822983Y-112962452D01*
G36*
X94193699Y-112978614D02*
G01*
X94181168Y-112984514D01*
X94137799Y-113016283D01*
X94096790Y-113062646D01*
X94066168Y-113113696D01*
X94057459Y-113137166D01*
X94049512Y-113179091D01*
X94044774Y-113229757D01*
X94044199Y-113250679D01*
X94044129Y-113316693D01*
X94424083Y-113316693D01*
X94415983Y-113351273D01*
X94396104Y-113392170D01*
X94361347Y-113427514D01*
X94319998Y-113450282D01*
X94293649Y-113455010D01*
X94257916Y-113449273D01*
X94215282Y-113434882D01*
X94200799Y-113428262D01*
X94147240Y-113401513D01*
X94101533Y-113436376D01*
X94075158Y-113459955D01*
X94061124Y-113479417D01*
X94060414Y-113485129D01*
X94072951Y-113498973D01*
X94100428Y-113520012D01*
X94125366Y-113536425D01*
X94192664Y-113565930D01*
X94268110Y-113579284D01*
X94342888Y-113575812D01*
X94402495Y-113557663D01*
X94463941Y-113518784D01*
X94507608Y-113467595D01*
X94534926Y-113401367D01*
X94547322Y-113317371D01*
X94548421Y-113278936D01*
X94544022Y-113190861D01*
X94543482Y-113188299D01*
X94417582Y-113188299D01*
X94414115Y-113196558D01*
X94399863Y-113201113D01*
X94370470Y-113203065D01*
X94321575Y-113203517D01*
X94302748Y-113203525D01*
X94245467Y-113202843D01*
X94209141Y-113200364D01*
X94189604Y-113195443D01*
X94182690Y-113187434D01*
X94182445Y-113184862D01*
X94190336Y-113164423D01*
X94210085Y-113135789D01*
X94218575Y-113125763D01*
X94250094Y-113097408D01*
X94282949Y-113086259D01*
X94300651Y-113085327D01*
X94348539Y-113096981D01*
X94388699Y-113128285D01*
X94414173Y-113173752D01*
X94414625Y-113175233D01*
X94417582Y-113188299D01*
X94543482Y-113188299D01*
X94529392Y-113121510D01*
X94503038Y-113066025D01*
X94470807Y-113026639D01*
X94411217Y-112983931D01*
X94341168Y-112961109D01*
X94266661Y-112959046D01*
X94193699Y-112978614D01*
G37*
X94193699Y-112978614D02*
X94181168Y-112984514D01*
X94137799Y-113016283D01*
X94096790Y-113062646D01*
X94066168Y-113113696D01*
X94057459Y-113137166D01*
X94049512Y-113179091D01*
X94044774Y-113229757D01*
X94044199Y-113250679D01*
X94044129Y-113316693D01*
X94424083Y-113316693D01*
X94415983Y-113351273D01*
X94396104Y-113392170D01*
X94361347Y-113427514D01*
X94319998Y-113450282D01*
X94293649Y-113455010D01*
X94257916Y-113449273D01*
X94215282Y-113434882D01*
X94200799Y-113428262D01*
X94147240Y-113401513D01*
X94101533Y-113436376D01*
X94075158Y-113459955D01*
X94061124Y-113479417D01*
X94060414Y-113485129D01*
X94072951Y-113498973D01*
X94100428Y-113520012D01*
X94125366Y-113536425D01*
X94192664Y-113565930D01*
X94268110Y-113579284D01*
X94342888Y-113575812D01*
X94402495Y-113557663D01*
X94463941Y-113518784D01*
X94507608Y-113467595D01*
X94534926Y-113401367D01*
X94547322Y-113317371D01*
X94548421Y-113278936D01*
X94544022Y-113190861D01*
X94543482Y-113188299D01*
X94417582Y-113188299D01*
X94414115Y-113196558D01*
X94399863Y-113201113D01*
X94370470Y-113203065D01*
X94321575Y-113203517D01*
X94302748Y-113203525D01*
X94245467Y-113202843D01*
X94209141Y-113200364D01*
X94189604Y-113195443D01*
X94182690Y-113187434D01*
X94182445Y-113184862D01*
X94190336Y-113164423D01*
X94210085Y-113135789D01*
X94218575Y-113125763D01*
X94250094Y-113097408D01*
X94282949Y-113086259D01*
X94300651Y-113085327D01*
X94348539Y-113096981D01*
X94388699Y-113128285D01*
X94414173Y-113173752D01*
X94414625Y-113175233D01*
X94417582Y-113188299D01*
X94543482Y-113188299D01*
X94529392Y-113121510D01*
X94503038Y-113066025D01*
X94470807Y-113026639D01*
X94411217Y-112983931D01*
X94341168Y-112961109D01*
X94266661Y-112959046D01*
X94193699Y-112978614D01*
G36*
X95375261Y-112971148D02*
G01*
X95309479Y-113000231D01*
X95259540Y-113048793D01*
X95225374Y-113116908D01*
X95206907Y-113204651D01*
X95205583Y-113218351D01*
X95204546Y-113314939D01*
X95217993Y-113399602D01*
X95245108Y-113468221D01*
X95259627Y-113490294D01*
X95310201Y-113537011D01*
X95374609Y-113567268D01*
X95446666Y-113579824D01*
X95520185Y-113573439D01*
X95576072Y-113553772D01*
X95624132Y-113520629D01*
X95663412Y-113477175D01*
X95664092Y-113476158D01*
X95680044Y-113449338D01*
X95690410Y-113422368D01*
X95696688Y-113388332D01*
X95700373Y-113340310D01*
X95701997Y-113300931D01*
X95702672Y-113265219D01*
X95576955Y-113265219D01*
X95575726Y-113300770D01*
X95571266Y-113348094D01*
X95563397Y-113378465D01*
X95549207Y-113400072D01*
X95535917Y-113412694D01*
X95488802Y-113439122D01*
X95439505Y-113442653D01*
X95393593Y-113423639D01*
X95370638Y-113402331D01*
X95354096Y-113380859D01*
X95344421Y-113360313D01*
X95340174Y-113333574D01*
X95339920Y-113293523D01*
X95341228Y-113256638D01*
X95344043Y-113203947D01*
X95348505Y-113169772D01*
X95356548Y-113147480D01*
X95370103Y-113130442D01*
X95380845Y-113120703D01*
X95425777Y-113095123D01*
X95474249Y-113093847D01*
X95514894Y-113108999D01*
X95549567Y-113140642D01*
X95570224Y-113192620D01*
X95576955Y-113265219D01*
X95702672Y-113265219D01*
X95703479Y-113222621D01*
X95700948Y-113164056D01*
X95693362Y-113120007D01*
X95679681Y-113085248D01*
X95658865Y-113054551D01*
X95651147Y-113045436D01*
X95602889Y-113000021D01*
X95551128Y-112973493D01*
X95487828Y-112962379D01*
X95456961Y-112961471D01*
X95375261Y-112971148D01*
G37*
X95375261Y-112971148D02*
X95309479Y-113000231D01*
X95259540Y-113048793D01*
X95225374Y-113116908D01*
X95206907Y-113204651D01*
X95205583Y-113218351D01*
X95204546Y-113314939D01*
X95217993Y-113399602D01*
X95245108Y-113468221D01*
X95259627Y-113490294D01*
X95310201Y-113537011D01*
X95374609Y-113567268D01*
X95446666Y-113579824D01*
X95520185Y-113573439D01*
X95576072Y-113553772D01*
X95624132Y-113520629D01*
X95663412Y-113477175D01*
X95664092Y-113476158D01*
X95680044Y-113449338D01*
X95690410Y-113422368D01*
X95696688Y-113388332D01*
X95700373Y-113340310D01*
X95701997Y-113300931D01*
X95702672Y-113265219D01*
X95576955Y-113265219D01*
X95575726Y-113300770D01*
X95571266Y-113348094D01*
X95563397Y-113378465D01*
X95549207Y-113400072D01*
X95535917Y-113412694D01*
X95488802Y-113439122D01*
X95439505Y-113442653D01*
X95393593Y-113423639D01*
X95370638Y-113402331D01*
X95354096Y-113380859D01*
X95344421Y-113360313D01*
X95340174Y-113333574D01*
X95339920Y-113293523D01*
X95341228Y-113256638D01*
X95344043Y-113203947D01*
X95348505Y-113169772D01*
X95356548Y-113147480D01*
X95370103Y-113130442D01*
X95380845Y-113120703D01*
X95425777Y-113095123D01*
X95474249Y-113093847D01*
X95514894Y-113108999D01*
X95549567Y-113140642D01*
X95570224Y-113192620D01*
X95576955Y-113265219D01*
X95702672Y-113265219D01*
X95703479Y-113222621D01*
X95700948Y-113164056D01*
X95693362Y-113120007D01*
X95679681Y-113085248D01*
X95658865Y-113054551D01*
X95651147Y-113045436D01*
X95602889Y-113000021D01*
X95551128Y-112973493D01*
X95487828Y-112962379D01*
X95456961Y-112961471D01*
X95375261Y-112971148D01*
G36*
X90804419Y-113910970D02*
G01*
X90744315Y-113926597D01*
X90693979Y-113958848D01*
X90669607Y-113982940D01*
X90629655Y-114039895D01*
X90606758Y-114105965D01*
X90598892Y-114187182D01*
X90598852Y-114193748D01*
X90598782Y-114259763D01*
X90978736Y-114259763D01*
X90970637Y-114294342D01*
X90956013Y-114325659D01*
X90930419Y-114358291D01*
X90925065Y-114363500D01*
X90879057Y-114391694D01*
X90826590Y-114396475D01*
X90766197Y-114377926D01*
X90755960Y-114372931D01*
X90724561Y-114357745D01*
X90703530Y-114349094D01*
X90699861Y-114348293D01*
X90687052Y-114356063D01*
X90662622Y-114375072D01*
X90650221Y-114385460D01*
X90624524Y-114409321D01*
X90616085Y-114425077D01*
X90621942Y-114439571D01*
X90625072Y-114443534D01*
X90646275Y-114460879D01*
X90681262Y-114481959D01*
X90705663Y-114494265D01*
X90774928Y-114515946D01*
X90851612Y-114522971D01*
X90924235Y-114514647D01*
X90944574Y-114508686D01*
X91007524Y-114474952D01*
X91054185Y-114423045D01*
X91084827Y-114352459D01*
X91099718Y-114262692D01*
X91101353Y-114215753D01*
X91096579Y-114147413D01*
X90976010Y-114147413D01*
X90964348Y-114152465D01*
X90933002Y-114156429D01*
X90887429Y-114158768D01*
X90856554Y-114159169D01*
X90801019Y-114158783D01*
X90765967Y-114156975D01*
X90746738Y-114152773D01*
X90738670Y-114145203D01*
X90737099Y-114134218D01*
X90747879Y-114100381D01*
X90775020Y-114066940D01*
X90810723Y-114041272D01*
X90846440Y-114030772D01*
X90894952Y-114040086D01*
X90936947Y-114067013D01*
X90966064Y-114105827D01*
X90976010Y-114147413D01*
X91096579Y-114147413D01*
X91094401Y-114116236D01*
X91072945Y-114036949D01*
X91036530Y-113977263D01*
X90984703Y-113936549D01*
X90917010Y-113914179D01*
X90880338Y-113909871D01*
X90804419Y-113910970D01*
G37*
X90804419Y-113910970D02*
X90744315Y-113926597D01*
X90693979Y-113958848D01*
X90669607Y-113982940D01*
X90629655Y-114039895D01*
X90606758Y-114105965D01*
X90598892Y-114187182D01*
X90598852Y-114193748D01*
X90598782Y-114259763D01*
X90978736Y-114259763D01*
X90970637Y-114294342D01*
X90956013Y-114325659D01*
X90930419Y-114358291D01*
X90925065Y-114363500D01*
X90879057Y-114391694D01*
X90826590Y-114396475D01*
X90766197Y-114377926D01*
X90755960Y-114372931D01*
X90724561Y-114357745D01*
X90703530Y-114349094D01*
X90699861Y-114348293D01*
X90687052Y-114356063D01*
X90662622Y-114375072D01*
X90650221Y-114385460D01*
X90624524Y-114409321D01*
X90616085Y-114425077D01*
X90621942Y-114439571D01*
X90625072Y-114443534D01*
X90646275Y-114460879D01*
X90681262Y-114481959D01*
X90705663Y-114494265D01*
X90774928Y-114515946D01*
X90851612Y-114522971D01*
X90924235Y-114514647D01*
X90944574Y-114508686D01*
X91007524Y-114474952D01*
X91054185Y-114423045D01*
X91084827Y-114352459D01*
X91099718Y-114262692D01*
X91101353Y-114215753D01*
X91096579Y-114147413D01*
X90976010Y-114147413D01*
X90964348Y-114152465D01*
X90933002Y-114156429D01*
X90887429Y-114158768D01*
X90856554Y-114159169D01*
X90801019Y-114158783D01*
X90765967Y-114156975D01*
X90746738Y-114152773D01*
X90738670Y-114145203D01*
X90737099Y-114134218D01*
X90747879Y-114100381D01*
X90775020Y-114066940D01*
X90810723Y-114041272D01*
X90846440Y-114030772D01*
X90894952Y-114040086D01*
X90936947Y-114067013D01*
X90966064Y-114105827D01*
X90976010Y-114147413D01*
X91096579Y-114147413D01*
X91094401Y-114116236D01*
X91072945Y-114036949D01*
X91036530Y-113977263D01*
X90984703Y-113936549D01*
X90917010Y-113914179D01*
X90880338Y-113909871D01*
X90804419Y-113910970D01*
G36*
X91201745Y-113907486D02*
G01*
X91153405Y-113917015D01*
X91125886Y-113931125D01*
X91096936Y-113954568D01*
X91138124Y-114006571D01*
X91163518Y-114038064D01*
X91180762Y-114053428D01*
X91197898Y-114055776D01*
X91222973Y-114048217D01*
X91234743Y-114043941D01*
X91282730Y-114037631D01*
X91326676Y-114051156D01*
X91358940Y-114081710D01*
X91364181Y-114091452D01*
X91369888Y-114117258D01*
X91374294Y-114164817D01*
X91377189Y-114230758D01*
X91378369Y-114311710D01*
X91378386Y-114323226D01*
X91378386Y-114523822D01*
X91516703Y-114523822D01*
X91516703Y-113907683D01*
X91447544Y-113907683D01*
X91407667Y-113908725D01*
X91386893Y-113913358D01*
X91379211Y-113923849D01*
X91378386Y-113933745D01*
X91378386Y-113959806D01*
X91345255Y-113933745D01*
X91307265Y-113915965D01*
X91256230Y-113907174D01*
X91201745Y-113907486D01*
G37*
X91201745Y-113907486D02*
X91153405Y-113917015D01*
X91125886Y-113931125D01*
X91096936Y-113954568D01*
X91138124Y-114006571D01*
X91163518Y-114038064D01*
X91180762Y-114053428D01*
X91197898Y-114055776D01*
X91222973Y-114048217D01*
X91234743Y-114043941D01*
X91282730Y-114037631D01*
X91326676Y-114051156D01*
X91358940Y-114081710D01*
X91364181Y-114091452D01*
X91369888Y-114117258D01*
X91374294Y-114164817D01*
X91377189Y-114230758D01*
X91378369Y-114311710D01*
X91378386Y-114323226D01*
X91378386Y-114523822D01*
X91516703Y-114523822D01*
X91516703Y-113907683D01*
X91447544Y-113907683D01*
X91407667Y-113908725D01*
X91386893Y-113913358D01*
X91379211Y-113923849D01*
X91378386Y-113933745D01*
X91378386Y-113959806D01*
X91345255Y-113933745D01*
X91307265Y-113915965D01*
X91256230Y-113907174D01*
X91201745Y-113907486D01*
G36*
X91798589Y-113911417D02*
G01*
X91745589Y-113924290D01*
X91730269Y-113931110D01*
X91700572Y-113948974D01*
X91677780Y-113969093D01*
X91660917Y-113994962D01*
X91649002Y-114030073D01*
X91641058Y-114077920D01*
X91636106Y-114141996D01*
X91633169Y-114225794D01*
X91632053Y-114281768D01*
X91627948Y-114523822D01*
X91698068Y-114523822D01*
X91740607Y-114522038D01*
X91762524Y-114515942D01*
X91768188Y-114505706D01*
X91771179Y-114494637D01*
X91784549Y-114496754D01*
X91802767Y-114505629D01*
X91848376Y-114519233D01*
X91906993Y-114522899D01*
X91968646Y-114516903D01*
X92023362Y-114501521D01*
X92028270Y-114499386D01*
X92078277Y-114464255D01*
X92111244Y-114415419D01*
X92126413Y-114358333D01*
X92125254Y-114337824D01*
X92001492Y-114337824D01*
X91990587Y-114365425D01*
X91958255Y-114385204D01*
X91906090Y-114395819D01*
X91878213Y-114397228D01*
X91831753Y-114393620D01*
X91800871Y-114379597D01*
X91793336Y-114372931D01*
X91772924Y-114336666D01*
X91768188Y-114303773D01*
X91768188Y-114259763D01*
X91829487Y-114259763D01*
X91900744Y-114263395D01*
X91950724Y-114274818D01*
X91982304Y-114294824D01*
X91989374Y-114303743D01*
X92001492Y-114337824D01*
X92125254Y-114337824D01*
X92123029Y-114298456D01*
X92100337Y-114241244D01*
X92069376Y-114202580D01*
X92050624Y-114185864D01*
X92032267Y-114174878D01*
X92008381Y-114168180D01*
X91973043Y-114164326D01*
X91920331Y-114161873D01*
X91899423Y-114161168D01*
X91768188Y-114156879D01*
X91768380Y-114117158D01*
X91773463Y-114075405D01*
X91791838Y-114050158D01*
X91828961Y-114034030D01*
X91829957Y-114033742D01*
X91882590Y-114027400D01*
X91934094Y-114035684D01*
X91972370Y-114055827D01*
X91987728Y-114065773D01*
X92004270Y-114064397D01*
X92029725Y-114049987D01*
X92044672Y-114039817D01*
X92073909Y-114018088D01*
X92092020Y-114001800D01*
X92094926Y-113997137D01*
X92082960Y-113973005D01*
X92047604Y-113944185D01*
X92032247Y-113934461D01*
X91988099Y-113917714D01*
X91928602Y-113908227D01*
X91862513Y-113906095D01*
X91798589Y-113911417D01*
G37*
X91798589Y-113911417D02*
X91745589Y-113924290D01*
X91730269Y-113931110D01*
X91700572Y-113948974D01*
X91677780Y-113969093D01*
X91660917Y-113994962D01*
X91649002Y-114030073D01*
X91641058Y-114077920D01*
X91636106Y-114141996D01*
X91633169Y-114225794D01*
X91632053Y-114281768D01*
X91627948Y-114523822D01*
X91698068Y-114523822D01*
X91740607Y-114522038D01*
X91762524Y-114515942D01*
X91768188Y-114505706D01*
X91771179Y-114494637D01*
X91784549Y-114496754D01*
X91802767Y-114505629D01*
X91848376Y-114519233D01*
X91906993Y-114522899D01*
X91968646Y-114516903D01*
X92023362Y-114501521D01*
X92028270Y-114499386D01*
X92078277Y-114464255D01*
X92111244Y-114415419D01*
X92126413Y-114358333D01*
X92125254Y-114337824D01*
X92001492Y-114337824D01*
X91990587Y-114365425D01*
X91958255Y-114385204D01*
X91906090Y-114395819D01*
X91878213Y-114397228D01*
X91831753Y-114393620D01*
X91800871Y-114379597D01*
X91793336Y-114372931D01*
X91772924Y-114336666D01*
X91768188Y-114303773D01*
X91768188Y-114259763D01*
X91829487Y-114259763D01*
X91900744Y-114263395D01*
X91950724Y-114274818D01*
X91982304Y-114294824D01*
X91989374Y-114303743D01*
X92001492Y-114337824D01*
X92125254Y-114337824D01*
X92123029Y-114298456D01*
X92100337Y-114241244D01*
X92069376Y-114202580D01*
X92050624Y-114185864D01*
X92032267Y-114174878D01*
X92008381Y-114168180D01*
X91973043Y-114164326D01*
X91920331Y-114161873D01*
X91899423Y-114161168D01*
X91768188Y-114156879D01*
X91768380Y-114117158D01*
X91773463Y-114075405D01*
X91791838Y-114050158D01*
X91828961Y-114034030D01*
X91829957Y-114033742D01*
X91882590Y-114027400D01*
X91934094Y-114035684D01*
X91972370Y-114055827D01*
X91987728Y-114065773D01*
X92004270Y-114064397D01*
X92029725Y-114049987D01*
X92044672Y-114039817D01*
X92073909Y-114018088D01*
X92092020Y-114001800D01*
X92094926Y-113997137D01*
X92082960Y-113973005D01*
X92047604Y-113944185D01*
X92032247Y-113934461D01*
X91988099Y-113917714D01*
X91928602Y-113908227D01*
X91862513Y-113906095D01*
X91798589Y-113911417D01*
G36*
X92555476Y-113910237D02*
G01*
X92505745Y-113913971D01*
X92375709Y-114303773D01*
X92355322Y-114234614D01*
X92343054Y-114191874D01*
X92326915Y-114134115D01*
X92309488Y-114070625D01*
X92300274Y-114036570D01*
X92265612Y-113907683D01*
X92122609Y-113907683D01*
X92165354Y-114042857D01*
X92186404Y-114109342D01*
X92211833Y-114189539D01*
X92238390Y-114273193D01*
X92262098Y-114347782D01*
X92316098Y-114517535D01*
X92374402Y-114521328D01*
X92432705Y-114525122D01*
X92464321Y-114420734D01*
X92483818Y-114355889D01*
X92505096Y-114284400D01*
X92523692Y-114221263D01*
X92524426Y-114218750D01*
X92538316Y-114175969D01*
X92550571Y-114146779D01*
X92559154Y-114135741D01*
X92560918Y-114137018D01*
X92567109Y-114154130D01*
X92578872Y-114190787D01*
X92594775Y-114242378D01*
X92613386Y-114304294D01*
X92623457Y-114338352D01*
X92677993Y-114523822D01*
X92793736Y-114523822D01*
X92886263Y-114231471D01*
X92912256Y-114149462D01*
X92935934Y-114074987D01*
X92956180Y-114011544D01*
X92971874Y-113962632D01*
X92981898Y-113931749D01*
X92984945Y-113922726D01*
X92982533Y-113913487D01*
X92963592Y-113909441D01*
X92924177Y-113909846D01*
X92918007Y-113910152D01*
X92844914Y-113913971D01*
X92797043Y-114090010D01*
X92779447Y-114154211D01*
X92763723Y-114210649D01*
X92751254Y-114254422D01*
X92743426Y-114280630D01*
X92741980Y-114284903D01*
X92735986Y-114279990D01*
X92723899Y-114254532D01*
X92707107Y-114211997D01*
X92686997Y-114155850D01*
X92669997Y-114105130D01*
X92605206Y-113906504D01*
X92555476Y-113910237D01*
G37*
X92555476Y-113910237D02*
X92505745Y-113913971D01*
X92375709Y-114303773D01*
X92355322Y-114234614D01*
X92343054Y-114191874D01*
X92326915Y-114134115D01*
X92309488Y-114070625D01*
X92300274Y-114036570D01*
X92265612Y-113907683D01*
X92122609Y-113907683D01*
X92165354Y-114042857D01*
X92186404Y-114109342D01*
X92211833Y-114189539D01*
X92238390Y-114273193D01*
X92262098Y-114347782D01*
X92316098Y-114517535D01*
X92374402Y-114521328D01*
X92432705Y-114525122D01*
X92464321Y-114420734D01*
X92483818Y-114355889D01*
X92505096Y-114284400D01*
X92523692Y-114221263D01*
X92524426Y-114218750D01*
X92538316Y-114175969D01*
X92550571Y-114146779D01*
X92559154Y-114135741D01*
X92560918Y-114137018D01*
X92567109Y-114154130D01*
X92578872Y-114190787D01*
X92594775Y-114242378D01*
X92613386Y-114304294D01*
X92623457Y-114338352D01*
X92677993Y-114523822D01*
X92793736Y-114523822D01*
X92886263Y-114231471D01*
X92912256Y-114149462D01*
X92935934Y-114074987D01*
X92956180Y-114011544D01*
X92971874Y-113962632D01*
X92981898Y-113931749D01*
X92984945Y-113922726D01*
X92982533Y-113913487D01*
X92963592Y-113909441D01*
X92924177Y-113909846D01*
X92918007Y-113910152D01*
X92844914Y-113913971D01*
X92797043Y-114090010D01*
X92779447Y-114154211D01*
X92763723Y-114210649D01*
X92751254Y-114254422D01*
X92743426Y-114280630D01*
X92741980Y-114284903D01*
X92735986Y-114279990D01*
X92723899Y-114254532D01*
X92707107Y-114211997D01*
X92686997Y-114155850D01*
X92669997Y-114105130D01*
X92605206Y-113906504D01*
X92555476Y-113910237D01*
G36*
X93038188Y-114523822D02*
G01*
X93107346Y-114523822D01*
X93147488Y-114522645D01*
X93168394Y-114517772D01*
X93175922Y-114507186D01*
X93176505Y-114500029D01*
X93177774Y-114485676D01*
X93185779Y-114482923D01*
X93206815Y-114491771D01*
X93223173Y-114500029D01*
X93285977Y-114519597D01*
X93354248Y-114520729D01*
X93409752Y-114506135D01*
X93461438Y-114470877D01*
X93500838Y-114418835D01*
X93522413Y-114357450D01*
X93522962Y-114354018D01*
X93526167Y-114316571D01*
X93527761Y-114262813D01*
X93527633Y-114222155D01*
X93390279Y-114222155D01*
X93387097Y-114276194D01*
X93379859Y-114320735D01*
X93370060Y-114345888D01*
X93332989Y-114380260D01*
X93288974Y-114392582D01*
X93243584Y-114382618D01*
X93204797Y-114352895D01*
X93190108Y-114332905D01*
X93181519Y-114309050D01*
X93177496Y-114274230D01*
X93176505Y-114221930D01*
X93178278Y-114170139D01*
X93182963Y-114124634D01*
X93189603Y-114094181D01*
X93190710Y-114091452D01*
X93217491Y-114059000D01*
X93256579Y-114041183D01*
X93300315Y-114038306D01*
X93341038Y-114050674D01*
X93371087Y-114078593D01*
X93374204Y-114084148D01*
X93383961Y-114118022D01*
X93389277Y-114166728D01*
X93390279Y-114222155D01*
X93527633Y-114222155D01*
X93527568Y-114201540D01*
X93526664Y-114168563D01*
X93520514Y-114086981D01*
X93507733Y-114025730D01*
X93486471Y-113980449D01*
X93454878Y-113946779D01*
X93424207Y-113927014D01*
X93381354Y-113913120D01*
X93328056Y-113908354D01*
X93273480Y-113912236D01*
X93226792Y-113924282D01*
X93202124Y-113938693D01*
X93176505Y-113961878D01*
X93176505Y-113668773D01*
X93038188Y-113668773D01*
X93038188Y-114523822D01*
G37*
X93038188Y-114523822D02*
X93107346Y-114523822D01*
X93147488Y-114522645D01*
X93168394Y-114517772D01*
X93175922Y-114507186D01*
X93176505Y-114500029D01*
X93177774Y-114485676D01*
X93185779Y-114482923D01*
X93206815Y-114491771D01*
X93223173Y-114500029D01*
X93285977Y-114519597D01*
X93354248Y-114520729D01*
X93409752Y-114506135D01*
X93461438Y-114470877D01*
X93500838Y-114418835D01*
X93522413Y-114357450D01*
X93522962Y-114354018D01*
X93526167Y-114316571D01*
X93527761Y-114262813D01*
X93527633Y-114222155D01*
X93390279Y-114222155D01*
X93387097Y-114276194D01*
X93379859Y-114320735D01*
X93370060Y-114345888D01*
X93332989Y-114380260D01*
X93288974Y-114392582D01*
X93243584Y-114382618D01*
X93204797Y-114352895D01*
X93190108Y-114332905D01*
X93181519Y-114309050D01*
X93177496Y-114274230D01*
X93176505Y-114221930D01*
X93178278Y-114170139D01*
X93182963Y-114124634D01*
X93189603Y-114094181D01*
X93190710Y-114091452D01*
X93217491Y-114059000D01*
X93256579Y-114041183D01*
X93300315Y-114038306D01*
X93341038Y-114050674D01*
X93371087Y-114078593D01*
X93374204Y-114084148D01*
X93383961Y-114118022D01*
X93389277Y-114166728D01*
X93390279Y-114222155D01*
X93527633Y-114222155D01*
X93527568Y-114201540D01*
X93526664Y-114168563D01*
X93520514Y-114086981D01*
X93507733Y-114025730D01*
X93486471Y-113980449D01*
X93454878Y-113946779D01*
X93424207Y-113927014D01*
X93381354Y-113913120D01*
X93328056Y-113908354D01*
X93273480Y-113912236D01*
X93226792Y-113924282D01*
X93202124Y-113938693D01*
X93176505Y-113961878D01*
X93176505Y-113668773D01*
X93038188Y-113668773D01*
X93038188Y-114523822D01*
G36*
X93830356Y-113909020D02*
G01*
X93811539Y-113914660D01*
X93805473Y-113927053D01*
X93805218Y-113932647D01*
X93804129Y-113948230D01*
X93796632Y-113950676D01*
X93776381Y-113939993D01*
X93764351Y-113932694D01*
X93726400Y-113917063D01*
X93681072Y-113909334D01*
X93633544Y-113908740D01*
X93588995Y-113914513D01*
X93552602Y-113925884D01*
X93529543Y-113942088D01*
X93524996Y-113962355D01*
X93527291Y-113967843D01*
X93544020Y-113990626D01*
X93569963Y-114018647D01*
X93574655Y-114023177D01*
X93599383Y-114044005D01*
X93620718Y-114050735D01*
X93650555Y-114046038D01*
X93662508Y-114042917D01*
X93699705Y-114035421D01*
X93725859Y-114038792D01*
X93747946Y-114050681D01*
X93768178Y-114066635D01*
X93783079Y-114086700D01*
X93793434Y-114114702D01*
X93800029Y-114154467D01*
X93803649Y-114209823D01*
X93805078Y-114284594D01*
X93805218Y-114329740D01*
X93805218Y-114523822D01*
X93930960Y-114523822D01*
X93930960Y-113907683D01*
X93868089Y-113907683D01*
X93830356Y-113909020D01*
G37*
X93830356Y-113909020D02*
X93811539Y-113914660D01*
X93805473Y-113927053D01*
X93805218Y-113932647D01*
X93804129Y-113948230D01*
X93796632Y-113950676D01*
X93776381Y-113939993D01*
X93764351Y-113932694D01*
X93726400Y-113917063D01*
X93681072Y-113909334D01*
X93633544Y-113908740D01*
X93588995Y-113914513D01*
X93552602Y-113925884D01*
X93529543Y-113942088D01*
X93524996Y-113962355D01*
X93527291Y-113967843D01*
X93544020Y-113990626D01*
X93569963Y-114018647D01*
X93574655Y-114023177D01*
X93599383Y-114044005D01*
X93620718Y-114050735D01*
X93650555Y-114046038D01*
X93662508Y-114042917D01*
X93699705Y-114035421D01*
X93725859Y-114038792D01*
X93747946Y-114050681D01*
X93768178Y-114066635D01*
X93783079Y-114086700D01*
X93793434Y-114114702D01*
X93800029Y-114154467D01*
X93803649Y-114209823D01*
X93805078Y-114284594D01*
X93805218Y-114329740D01*
X93805218Y-114523822D01*
X93930960Y-114523822D01*
X93930960Y-113907683D01*
X93868089Y-113907683D01*
X93830356Y-113909020D01*
G36*
X94221210Y-113912555D02*
G01*
X94162055Y-113928339D01*
X94117023Y-113956948D01*
X94085246Y-113994419D01*
X94075366Y-114010411D01*
X94068073Y-114027163D01*
X94062974Y-114048592D01*
X94059679Y-114078616D01*
X94057797Y-114121154D01*
X94056937Y-114180122D01*
X94056707Y-114259440D01*
X94056703Y-114280484D01*
X94056703Y-114523822D01*
X94117059Y-114523822D01*
X94155557Y-114521126D01*
X94184023Y-114514295D01*
X94191155Y-114510083D01*
X94210652Y-114502813D01*
X94230566Y-114510083D01*
X94263353Y-114519160D01*
X94310978Y-114522813D01*
X94363764Y-114521228D01*
X94412036Y-114514589D01*
X94440218Y-114506072D01*
X94494753Y-114471063D01*
X94528835Y-114422479D01*
X94544157Y-114357882D01*
X94544299Y-114356223D01*
X94542955Y-114327566D01*
X94421356Y-114327566D01*
X94410726Y-114360161D01*
X94393410Y-114378505D01*
X94358652Y-114392379D01*
X94312773Y-114397917D01*
X94265988Y-114395191D01*
X94228514Y-114384274D01*
X94218015Y-114377269D01*
X94199668Y-114344904D01*
X94195020Y-114308111D01*
X94195020Y-114259763D01*
X94264582Y-114259763D01*
X94330667Y-114264850D01*
X94380764Y-114279263D01*
X94411929Y-114301729D01*
X94421356Y-114327566D01*
X94542955Y-114327566D01*
X94540987Y-114285647D01*
X94517710Y-114229845D01*
X94473948Y-114187647D01*
X94467899Y-114183808D01*
X94441907Y-114171309D01*
X94409735Y-114163740D01*
X94364760Y-114160061D01*
X94311331Y-114159216D01*
X94195020Y-114159169D01*
X94195020Y-114110411D01*
X94199953Y-114072581D01*
X94212543Y-114047236D01*
X94214017Y-114045887D01*
X94242034Y-114034800D01*
X94284326Y-114030503D01*
X94331064Y-114032615D01*
X94372418Y-114040756D01*
X94396957Y-114052965D01*
X94410253Y-114062746D01*
X94424294Y-114064613D01*
X94443671Y-114056600D01*
X94472976Y-114036739D01*
X94516803Y-114003063D01*
X94520825Y-113999909D01*
X94518764Y-113988236D01*
X94501568Y-113968822D01*
X94475433Y-113947248D01*
X94446552Y-113929096D01*
X94437478Y-113924809D01*
X94404380Y-113916256D01*
X94355880Y-113910155D01*
X94301695Y-113907708D01*
X94299161Y-113907703D01*
X94221210Y-113912555D01*
G37*
X94221210Y-113912555D02*
X94162055Y-113928339D01*
X94117023Y-113956948D01*
X94085246Y-113994419D01*
X94075366Y-114010411D01*
X94068073Y-114027163D01*
X94062974Y-114048592D01*
X94059679Y-114078616D01*
X94057797Y-114121154D01*
X94056937Y-114180122D01*
X94056707Y-114259440D01*
X94056703Y-114280484D01*
X94056703Y-114523822D01*
X94117059Y-114523822D01*
X94155557Y-114521126D01*
X94184023Y-114514295D01*
X94191155Y-114510083D01*
X94210652Y-114502813D01*
X94230566Y-114510083D01*
X94263353Y-114519160D01*
X94310978Y-114522813D01*
X94363764Y-114521228D01*
X94412036Y-114514589D01*
X94440218Y-114506072D01*
X94494753Y-114471063D01*
X94528835Y-114422479D01*
X94544157Y-114357882D01*
X94544299Y-114356223D01*
X94542955Y-114327566D01*
X94421356Y-114327566D01*
X94410726Y-114360161D01*
X94393410Y-114378505D01*
X94358652Y-114392379D01*
X94312773Y-114397917D01*
X94265988Y-114395191D01*
X94228514Y-114384274D01*
X94218015Y-114377269D01*
X94199668Y-114344904D01*
X94195020Y-114308111D01*
X94195020Y-114259763D01*
X94264582Y-114259763D01*
X94330667Y-114264850D01*
X94380764Y-114279263D01*
X94411929Y-114301729D01*
X94421356Y-114327566D01*
X94542955Y-114327566D01*
X94540987Y-114285647D01*
X94517710Y-114229845D01*
X94473948Y-114187647D01*
X94467899Y-114183808D01*
X94441907Y-114171309D01*
X94409735Y-114163740D01*
X94364760Y-114160061D01*
X94311331Y-114159216D01*
X94195020Y-114159169D01*
X94195020Y-114110411D01*
X94199953Y-114072581D01*
X94212543Y-114047236D01*
X94214017Y-114045887D01*
X94242034Y-114034800D01*
X94284326Y-114030503D01*
X94331064Y-114032615D01*
X94372418Y-114040756D01*
X94396957Y-114052965D01*
X94410253Y-114062746D01*
X94424294Y-114064613D01*
X94443671Y-114056600D01*
X94472976Y-114036739D01*
X94516803Y-114003063D01*
X94520825Y-113999909D01*
X94518764Y-113988236D01*
X94501568Y-113968822D01*
X94475433Y-113947248D01*
X94446552Y-113929096D01*
X94437478Y-113924809D01*
X94404380Y-113916256D01*
X94355880Y-113910155D01*
X94301695Y-113907708D01*
X94299161Y-113907703D01*
X94221210Y-113912555D01*
G36*
X94745759Y-112975184D02*
G01*
X94719247Y-112988282D01*
X94686553Y-113011106D01*
X94662725Y-113035996D01*
X94646406Y-113067249D01*
X94636240Y-113109166D01*
X94630872Y-113166044D01*
X94628944Y-113242184D01*
X94628831Y-113274917D01*
X94629161Y-113346656D01*
X94630527Y-113397927D01*
X94633500Y-113433404D01*
X94638649Y-113457763D01*
X94646543Y-113475680D01*
X94654757Y-113487902D01*
X94707187Y-113539905D01*
X94768930Y-113571184D01*
X94835536Y-113580592D01*
X94902558Y-113566980D01*
X94923792Y-113557354D01*
X94974624Y-113530859D01*
X94974624Y-113946052D01*
X94937525Y-113926868D01*
X94888643Y-113912025D01*
X94828561Y-113908222D01*
X94768564Y-113915243D01*
X94723256Y-113931013D01*
X94685675Y-113961047D01*
X94653564Y-114004024D01*
X94651150Y-114008436D01*
X94640967Y-114029221D01*
X94633530Y-114050170D01*
X94628411Y-114075548D01*
X94625181Y-114109618D01*
X94623413Y-114156641D01*
X94622677Y-114220882D01*
X94622544Y-114293176D01*
X94622544Y-114523822D01*
X94760861Y-114523822D01*
X94760861Y-114098533D01*
X94799549Y-114065979D01*
X94839738Y-114039940D01*
X94877797Y-114035205D01*
X94916066Y-114047389D01*
X94936462Y-114059320D01*
X94951642Y-114076313D01*
X94962438Y-114101995D01*
X94969683Y-114139991D01*
X94974208Y-114193926D01*
X94976844Y-114267425D01*
X94977772Y-114316347D01*
X94980911Y-114517535D01*
X95046926Y-114521336D01*
X95112940Y-114525136D01*
X95112940Y-113276650D01*
X94974624Y-113276650D01*
X94971097Y-113346254D01*
X94959215Y-113394569D01*
X94937020Y-113424631D01*
X94902559Y-113439471D01*
X94867742Y-113442436D01*
X94828329Y-113439028D01*
X94802171Y-113425617D01*
X94785814Y-113407896D01*
X94772937Y-113388835D01*
X94765272Y-113367601D01*
X94761861Y-113337849D01*
X94761749Y-113293236D01*
X94762897Y-113255880D01*
X94765532Y-113199604D01*
X94769456Y-113162658D01*
X94776063Y-113139223D01*
X94786749Y-113123480D01*
X94796833Y-113114380D01*
X94838970Y-113094537D01*
X94888840Y-113091332D01*
X94917476Y-113098168D01*
X94945828Y-113122464D01*
X94964609Y-113169728D01*
X94973712Y-113239624D01*
X94974624Y-113276650D01*
X95112940Y-113276650D01*
X95112940Y-112964614D01*
X95043782Y-112964614D01*
X95002260Y-112966256D01*
X94980838Y-112972087D01*
X94974626Y-112983461D01*
X94974624Y-112983798D01*
X94971742Y-112994938D01*
X94959030Y-112993673D01*
X94933757Y-112981433D01*
X94874869Y-112962707D01*
X94808615Y-112960739D01*
X94745759Y-112975184D01*
G37*
X94745759Y-112975184D02*
X94719247Y-112988282D01*
X94686553Y-113011106D01*
X94662725Y-113035996D01*
X94646406Y-113067249D01*
X94636240Y-113109166D01*
X94630872Y-113166044D01*
X94628944Y-113242184D01*
X94628831Y-113274917D01*
X94629161Y-113346656D01*
X94630527Y-113397927D01*
X94633500Y-113433404D01*
X94638649Y-113457763D01*
X94646543Y-113475680D01*
X94654757Y-113487902D01*
X94707187Y-113539905D01*
X94768930Y-113571184D01*
X94835536Y-113580592D01*
X94902558Y-113566980D01*
X94923792Y-113557354D01*
X94974624Y-113530859D01*
X94974624Y-113946052D01*
X94937525Y-113926868D01*
X94888643Y-113912025D01*
X94828561Y-113908222D01*
X94768564Y-113915243D01*
X94723256Y-113931013D01*
X94685675Y-113961047D01*
X94653564Y-114004024D01*
X94651150Y-114008436D01*
X94640967Y-114029221D01*
X94633530Y-114050170D01*
X94628411Y-114075548D01*
X94625181Y-114109618D01*
X94623413Y-114156641D01*
X94622677Y-114220882D01*
X94622544Y-114293176D01*
X94622544Y-114523822D01*
X94760861Y-114523822D01*
X94760861Y-114098533D01*
X94799549Y-114065979D01*
X94839738Y-114039940D01*
X94877797Y-114035205D01*
X94916066Y-114047389D01*
X94936462Y-114059320D01*
X94951642Y-114076313D01*
X94962438Y-114101995D01*
X94969683Y-114139991D01*
X94974208Y-114193926D01*
X94976844Y-114267425D01*
X94977772Y-114316347D01*
X94980911Y-114517535D01*
X95046926Y-114521336D01*
X95112940Y-114525136D01*
X95112940Y-113276650D01*
X94974624Y-113276650D01*
X94971097Y-113346254D01*
X94959215Y-113394569D01*
X94937020Y-113424631D01*
X94902559Y-113439471D01*
X94867742Y-113442436D01*
X94828329Y-113439028D01*
X94802171Y-113425617D01*
X94785814Y-113407896D01*
X94772937Y-113388835D01*
X94765272Y-113367601D01*
X94761861Y-113337849D01*
X94761749Y-113293236D01*
X94762897Y-113255880D01*
X94765532Y-113199604D01*
X94769456Y-113162658D01*
X94776063Y-113139223D01*
X94786749Y-113123480D01*
X94796833Y-113114380D01*
X94838970Y-113094537D01*
X94888840Y-113091332D01*
X94917476Y-113098168D01*
X94945828Y-113122464D01*
X94964609Y-113169728D01*
X94973712Y-113239624D01*
X94974624Y-113276650D01*
X95112940Y-113276650D01*
X95112940Y-112964614D01*
X95043782Y-112964614D01*
X95002260Y-112966256D01*
X94980838Y-112972087D01*
X94974626Y-112983461D01*
X94974624Y-112983798D01*
X94971742Y-112994938D01*
X94959030Y-112993673D01*
X94933757Y-112981433D01*
X94874869Y-112962707D01*
X94808615Y-112960739D01*
X94745759Y-112975184D01*
D10*
X99528380Y-57586666D02*
X100242666Y-57586666D01*
X100385523Y-57539047D01*
X100480761Y-57443809D01*
X100528380Y-57300952D01*
X100528380Y-57205714D01*
X100528380Y-58062857D02*
X99528380Y-58062857D01*
X99528380Y-58443809D01*
X99576000Y-58539047D01*
X99623619Y-58586666D01*
X99718857Y-58634285D01*
X99861714Y-58634285D01*
X99956952Y-58586666D01*
X100004571Y-58539047D01*
X100052190Y-58443809D01*
X100052190Y-58062857D01*
X99528380Y-59491428D02*
X99528380Y-59300952D01*
X99576000Y-59205714D01*
X99623619Y-59158095D01*
X99766476Y-59062857D01*
X99956952Y-59015238D01*
X100337904Y-59015238D01*
X100433142Y-59062857D01*
X100480761Y-59110476D01*
X100528380Y-59205714D01*
X100528380Y-59396190D01*
X100480761Y-59491428D01*
X100433142Y-59539047D01*
X100337904Y-59586666D01*
X100099809Y-59586666D01*
X100004571Y-59539047D01*
X99956952Y-59491428D01*
X99909333Y-59396190D01*
X99909333Y-59205714D01*
X99956952Y-59110476D01*
X100004571Y-59062857D01*
X100099809Y-59015238D01*
X99035904Y-56221380D02*
X98797809Y-57221380D01*
X98607333Y-56507095D01*
X98416857Y-57221380D01*
X98178761Y-56221380D01*
X97797809Y-57221380D02*
X97797809Y-56221380D01*
X97559714Y-56221380D01*
X97416857Y-56269000D01*
X97321619Y-56364238D01*
X97274000Y-56459476D01*
X97226380Y-56649952D01*
X97226380Y-56792809D01*
X97274000Y-56983285D01*
X97321619Y-57078523D01*
X97416857Y-57173761D01*
X97559714Y-57221380D01*
X97797809Y-57221380D01*
X96845428Y-57173761D02*
X96702571Y-57221380D01*
X96464476Y-57221380D01*
X96369238Y-57173761D01*
X96321619Y-57126142D01*
X96274000Y-57030904D01*
X96274000Y-56935666D01*
X96321619Y-56840428D01*
X96369238Y-56792809D01*
X96464476Y-56745190D01*
X96654952Y-56697571D01*
X96750190Y-56649952D01*
X96797809Y-56602333D01*
X96845428Y-56507095D01*
X96845428Y-56411857D01*
X96797809Y-56316619D01*
X96750190Y-56269000D01*
X96654952Y-56221380D01*
X96416857Y-56221380D01*
X96274000Y-56269000D01*
X95845428Y-56697571D02*
X95512095Y-56697571D01*
X95369238Y-57221380D02*
X95845428Y-57221380D01*
X95845428Y-56221380D01*
X95369238Y-56221380D01*
X94464476Y-57221380D02*
X94940666Y-57221380D01*
X94940666Y-56221380D01*
M02*
