M48
METRIC,TZ
T1C0.400
T2C0.500
T3C0.800
T4C0.900
T5C1.000
T6C1.100
T7C1.300
T8C3.200
T9C3.500
%
G90
G05
T1
X73152Y-86487
X73872Y-57087
X75981Y-65753
X76190Y-74127
X81158Y-54514
X88228Y-106749
X88265Y-92208
X88831Y-85732
X91501Y-66794
X91609Y-74743
X93743Y-48883
X94036Y-118966
X94179Y-75026
X94682Y-117991
X95438Y-112858
X96436Y-76956
X97660Y-116429
X98395Y-107610
X98659Y-74326
X99950Y-120027
X100234Y-41577
X100234Y-48023
X100620Y-113579
X100918Y-74750
X101693Y-78203
X102394Y-103892
X102455Y-42339
X103172Y-115988
X104291Y-84682
X104291Y-103378
X105665Y-99655
X106775Y-105224
X107648Y-80354
X107961Y-29730
X109098Y-117899
X109347Y-106572
X109394Y-94442
X110263Y-84370
X110408Y-92419
X111044Y-82147
X111691Y-108762
X111705Y-31341
X111959Y-101913
X113215Y-44991
X114155Y-85508
X114199Y-96163
X114593Y-107712
X114864Y-108762
X115411Y-82923
X116680Y-116082
X118140Y-118724
X118284Y-98398
X119227Y-77943
X120268Y-109763
X121794Y-75376
X122181Y-108204
X124864Y-64102
X124883Y-62957
X125132Y-72439
X125132Y-79311
X126160Y-118638
X126500Y-45793
X126612Y-113703
X126792Y-82093
X127074Y-62800
X127225Y-119102
X127852Y-110507
X127893Y-53845
X130131Y-117036
X130206Y-115982
X130511Y-38550
X131011Y-112017
X131545Y-102374
X133705Y-88160
X135017Y-44308
X135049Y-76596
X135118Y-93243
X135466Y-101599
X135821Y-104150
X135955Y-71476
X137120Y-111949
X137658Y-118305
X137919Y-117026
X139384Y-42513
X140778Y-93107
X140957Y-110627
X143172Y-85432
X143385Y-47632
X144320Y-96889
X146922Y-110110
X147428Y-118020
X149596Y-105586
X152040Y-93140
X153534Y-118164
X154457Y-91343
X155376Y-93199
X155376Y-100885
X156644Y-95736
X156804Y-93511
X157542Y-62137
X160250Y-61397
T2
X65375Y-106000
X66144Y-104144
X66144Y-107856
X68000Y-103375
X68000Y-108625
X69856Y-104144
X69856Y-107856
X70625Y-106000
X155375Y-106000
X156144Y-104144
X156144Y-107856
X158000Y-103375
X158000Y-108625
X159856Y-104144
X159856Y-107856
X160625Y-106000
X142375Y-37000
X143144Y-35144
X143144Y-38856
X145000Y-34375
X145000Y-39625
X146856Y-35144
X146856Y-38856
X147625Y-37000
X80375Y-37000
X81144Y-35144
X81144Y-38856
X83000Y-34375
X83000Y-39625
X84856Y-35144
X84856Y-38856
X85625Y-37000
T3
X65786Y-68500
X65786Y-71040
X65786Y-73580
X73406Y-68500
X73406Y-71040
X73406Y-73580
X104380Y-35213
X104380Y-42833
X106920Y-35213
X106920Y-42833
X109460Y-35213
X109460Y-42833
X112000Y-35213
X112000Y-42833
X114540Y-35213
X114540Y-42833
X117080Y-35213
X117080Y-42833
X119620Y-35213
X119620Y-42833
X122160Y-35213
X122160Y-42833
X124700Y-35213
X124700Y-42833
X127240Y-35213
X127240Y-42833
X124000Y-100380
X124000Y-108000
X126540Y-100380
X126540Y-108000
X129080Y-100380
X129080Y-108000
X131620Y-100380
X131620Y-108000
X134160Y-100380
X134160Y-108000
X136700Y-100380
X136700Y-108000
X139240Y-100380
X139240Y-108000
X141780Y-100380
X141780Y-108000
X144320Y-100380
X144320Y-108000
X146860Y-100380
X146860Y-108000
X149400Y-100380
X149400Y-108000
X151940Y-100380
X151940Y-108000
X73279Y-94742
X73279Y-102362
X75819Y-94742
X75819Y-102362
X78359Y-94742
X78359Y-102362
X80899Y-94742
X80899Y-102362
X83439Y-94742
X83439Y-102362
X85979Y-94742
X85979Y-102362
X88519Y-94742
X88519Y-102362
X91059Y-94742
X91059Y-102362
X93599Y-94742
X93599Y-102362
X96139Y-94742
X96139Y-102362
X98679Y-94742
X98679Y-102362
X101219Y-94742
X101219Y-102362
X83185Y-54483
X83185Y-69723
X85725Y-54483
X85725Y-69723
X88265Y-54483
X88265Y-69723
X90805Y-54483
X90805Y-69723
X93345Y-54483
X93345Y-69723
X95885Y-54483
X95885Y-69723
X98425Y-54483
X98425Y-69723
X100965Y-54483
X100965Y-69723
X103505Y-54483
X103505Y-69723
X106045Y-54483
X106045Y-69723
X108585Y-54483
X108585Y-69723
X111125Y-54483
X111125Y-69723
X113665Y-54483
X113665Y-69723
X116205Y-54483
X116205Y-69723
X115762Y-87880
X115762Y-95500
X118302Y-87880
X118302Y-95500
X120842Y-87880
X120842Y-95500
X123382Y-87880
X123382Y-95500
X125922Y-87880
X125922Y-95500
X128462Y-87880
X128462Y-95500
X131002Y-87880
X131002Y-95500
X138000Y-87880
X138000Y-95500
X140540Y-87880
X140540Y-95500
X143080Y-87880
X143080Y-95500
X145620Y-87880
X145620Y-95500
X148160Y-87880
X148160Y-95500
X150700Y-87880
X150700Y-95500
X153240Y-87880
X153240Y-95500
X126500Y-49760
X126500Y-65000
X129040Y-49760
X129040Y-65000
X131580Y-49760
X131580Y-65000
X134120Y-49760
X134120Y-65000
X136660Y-49760
X136660Y-65000
X139200Y-49760
X139200Y-65000
X141740Y-49760
X141740Y-65000
X144280Y-49760
X144280Y-65000
X146820Y-49760
X146820Y-65000
X149360Y-49760
X149360Y-65000
X151900Y-49760
X151900Y-65000
X154440Y-49760
X154440Y-65000
X156980Y-49760
X156980Y-65000
X159520Y-49760
X159520Y-65000
X108204Y-96192
X108204Y-101092
X126500Y-68760
X126500Y-84000
X129040Y-68760
X129040Y-84000
X131580Y-68760
X131580Y-84000
X134120Y-68760
X134120Y-84000
X136660Y-68760
X136660Y-84000
X139200Y-68760
X139200Y-84000
X141740Y-68760
X141740Y-84000
X144280Y-68760
X144280Y-84000
X146820Y-68760
X146820Y-84000
X149360Y-68760
X149360Y-84000
X151900Y-68760
X151900Y-84000
X154440Y-68760
X154440Y-84000
X156980Y-68760
X156980Y-84000
X159520Y-68760
X159520Y-84000
X66802Y-82423
X66802Y-90043
X69342Y-82423
X69342Y-90043
X71882Y-82423
X71882Y-90043
X74422Y-82423
X74422Y-90043
X76962Y-82423
X76962Y-90043
X79502Y-82423
X79502Y-90043
X82042Y-82423
X82042Y-90043
X83237Y-43152
X83237Y-50772
X85777Y-43152
X85777Y-50772
X88317Y-43152
X88317Y-50772
X90857Y-43152
X90857Y-50772
X93397Y-43152
X93397Y-50772
X95937Y-43152
X95937Y-50772
X98477Y-43152
X98477Y-50772
X90284Y-82476
X90284Y-90096
X92824Y-82476
X92824Y-90096
X95364Y-82476
X95364Y-90096
X97904Y-82476
X97904Y-90096
X100444Y-82476
X100444Y-90096
X102984Y-82476
X102984Y-90096
X105524Y-82476
X105524Y-90096
X108064Y-82476
X108064Y-90096
T4
X157607Y-29417
X157607Y-31917
X157607Y-34417
X160907Y-29417
X160907Y-31917
X160907Y-34417
X135000Y-37000
X137540Y-37000
X90000Y-37000
X92540Y-37000
T5
X150876Y-38608
X150876Y-41148
X150876Y-43688
X150876Y-46228
X153416Y-38608
X153416Y-41148
X153416Y-43688
X153416Y-46228
X122682Y-28460
X122682Y-31000
X125222Y-28460
X125222Y-31000
X127762Y-28460
X127762Y-31000
X130302Y-28460
X130302Y-31000
X132842Y-28460
X132842Y-31000
X135382Y-28460
X135382Y-31000
X137922Y-28460
X137922Y-31000
X140462Y-28460
X140462Y-31000
X143002Y-28460
X143002Y-31000
X145542Y-28460
X145542Y-31000
X148082Y-28460
X148082Y-31000
X150622Y-28460
X150622Y-31000
X153162Y-28460
X153162Y-31000
X71410Y-45385
X71410Y-48155
X71410Y-50925
X71410Y-53695
X74250Y-44000
X74250Y-46770
X74250Y-49540
X74250Y-52310
X74250Y-55080
X69000Y-28460
X69000Y-31000
X71540Y-28460
X71540Y-31000
X74080Y-28460
X74080Y-31000
X76620Y-28460
X76620Y-31000
X79160Y-28460
X79160Y-31000
X81700Y-28460
X81700Y-31000
X84240Y-28460
X84240Y-31000
X86780Y-28460
X86780Y-31000
X89320Y-28460
X89320Y-31000
X91860Y-28460
X91860Y-31000
X94400Y-28460
X94400Y-31000
X96940Y-28460
X96940Y-31000
X99480Y-28460
X99480Y-31000
X102020Y-28460
X102020Y-31000
X104560Y-28460
X104560Y-31000
X107100Y-28460
X107100Y-31000
X109640Y-28460
X109640Y-31000
T6
X159258Y-89726
X159258Y-91726
X159258Y-93726
X81000Y-73500
X81000Y-78000
X87500Y-73500
X87500Y-78000
X104000Y-73500
X104000Y-78000
X110500Y-73500
X110500Y-78000
T8
X73950Y-37040
X73950Y-62040
T9
X83000Y-37000
X68000Y-106000
X158000Y-106000
X145000Y-37000
T7
G00X159158Y-87626
M15
G01X159358Y-87626
M16
G05
G00X159158Y-95826
M15
G01X159358Y-95826
M16
G05
T0
M30
