M48
METRIC,TZ
T1C0.400
T2C0.500
T3C0.800
T4C0.900
T5C1.000
T6C1.100
T7C1.300
T8C3.200
T9C3.500
%
G90
G05
T1
X68132Y-91821
X68720Y-54821
X71116Y-63019
X75719Y-64846
X83999Y-83960
X85465Y-106693
X85679Y-71074
X85760Y-102723
X86297Y-48170
X86646Y-86736
X89083Y-82684
X90069Y-75557
X91223Y-82603
X92308Y-66725
X92361Y-36322
X95277Y-115995
X97976Y-80026
X98058Y-116260
X98224Y-117320
X98804Y-82625
X100007Y-85558
X101068Y-120184
X101625Y-98765
X101950Y-70424
X102007Y-82482
X102509Y-78095
X102960Y-93598
X103309Y-106455
X103675Y-49075
X105285Y-58578
X107401Y-80335
X108290Y-109515
X109734Y-106658
X110298Y-79944
X111172Y-109049
X114402Y-100156
X116262Y-98859
X116542Y-39967
X117724Y-116452
X117729Y-90632
X118166Y-107148
X119112Y-119037
X121222Y-110980
X121229Y-107709
X121871Y-90237
X122260Y-118560
X124179Y-79898
X125433Y-109514
X127243Y-93832
X127330Y-56822
X128155Y-118736
X130286Y-52026
X131092Y-82100
X133128Y-98083
X133291Y-91700
X135409Y-82226
X136590Y-105754
X138255Y-71551
X139505Y-58616
X140694Y-118668
X143105Y-61279
X144552Y-105960
X144650Y-79990
X144927Y-112473
X144990Y-117001
X146559Y-93932
X147928Y-98787
X147970Y-89962
X148939Y-73806
X149191Y-89452
X151516Y-62718
X153718Y-111091
X154440Y-70827
X154597Y-90129
X155615Y-109614
X155816Y-98786
T2
X112375Y-44500
X113144Y-42644
X113144Y-46356
X115000Y-41875
X115000Y-47125
X116856Y-42644
X116856Y-46356
X117625Y-44500
X155375Y-106000
X156144Y-104144
X156144Y-107856
X158000Y-103375
X158000Y-108625
X159856Y-104144
X159856Y-107856
X160625Y-106000
X65375Y-106000
X66144Y-104144
X66144Y-107856
X68000Y-103375
X68000Y-108625
X69856Y-104144
X69856Y-107856
X70625Y-106000
T3
X145796Y-35052
X153416Y-35052
X80264Y-53848
X80264Y-69088
X82804Y-53848
X82804Y-69088
X85344Y-53848
X85344Y-69088
X87884Y-53848
X87884Y-69088
X90424Y-53848
X90424Y-69088
X92964Y-53848
X92964Y-69088
X95504Y-53848
X95504Y-69088
X98044Y-53848
X98044Y-69088
X100584Y-53848
X100584Y-69088
X103124Y-53848
X103124Y-69088
X105664Y-53848
X105664Y-69088
X108204Y-53848
X108204Y-69088
X110744Y-53848
X110744Y-69088
X113284Y-53848
X113284Y-69088
X65786Y-68500
X65786Y-71040
X65786Y-73580
X73406Y-68500
X73406Y-71040
X73406Y-73580
X107696Y-99568
X112696Y-99568
X116840Y-53801
X116840Y-58801
X66040Y-84201
X66040Y-86741
X66040Y-89281
X66040Y-91821
X66040Y-94361
X66040Y-96901
X66040Y-99441
X73660Y-84201
X73660Y-86741
X73660Y-89281
X73660Y-91821
X73660Y-94361
X73660Y-96901
X73660Y-99441
X112014Y-50292
X119634Y-50292
X79756Y-43815
X87376Y-43815
X119000Y-115000
X126620Y-115000
X108966Y-91567
X108966Y-96567
X94000Y-38380
X94000Y-46000
X96540Y-38380
X96540Y-46000
X99080Y-38380
X99080Y-46000
X101620Y-38380
X101620Y-46000
X104160Y-38380
X104160Y-46000
X106700Y-38380
X106700Y-46000
X109240Y-38380
X109240Y-46000
X106172Y-109982
X113792Y-109982
X97409Y-113157
X102409Y-113157
X126500Y-49760
X126500Y-65000
X129040Y-49760
X129040Y-65000
X131580Y-49760
X131580Y-65000
X134120Y-49760
X134120Y-65000
X136660Y-49760
X136660Y-65000
X139200Y-49760
X139200Y-65000
X141740Y-49760
X141740Y-65000
X144280Y-49760
X144280Y-65000
X146820Y-49760
X146820Y-65000
X149360Y-49760
X149360Y-65000
X151900Y-49760
X151900Y-65000
X154440Y-49760
X154440Y-65000
X156980Y-49760
X156980Y-65000
X159520Y-49760
X159520Y-65000
X93933Y-34798
X98933Y-34798
X123190Y-67644
X123190Y-72644
X115762Y-87880
X115762Y-95500
X118302Y-87880
X118302Y-95500
X120842Y-87880
X120842Y-95500
X123382Y-87880
X123382Y-95500
X125922Y-87880
X125922Y-95500
X128462Y-87880
X128462Y-95500
X131002Y-87880
X131002Y-95500
X91694Y-50292
X99314Y-50292
X106172Y-113284
X113792Y-113284
X100500Y-102000
X100500Y-106900
X124000Y-100380
X124000Y-108000
X126540Y-100380
X126540Y-108000
X129080Y-100380
X129080Y-108000
X131620Y-100380
X131620Y-108000
X134160Y-100380
X134160Y-108000
X136700Y-100380
X136700Y-108000
X139240Y-100380
X139240Y-108000
X141780Y-100380
X141780Y-108000
X144320Y-100380
X144320Y-108000
X146860Y-100380
X146860Y-108000
X149400Y-100380
X149400Y-108000
X151940Y-100380
X151940Y-108000
X116840Y-61214
X116840Y-68834
X123778Y-34925
X128778Y-34925
X134493Y-87837
X134493Y-92837
X79756Y-50292
X87376Y-50292
X107696Y-103124
X112696Y-103124
X120015Y-61214
X120015Y-68834
X122936Y-49737
X122936Y-54737
X144380Y-115000
X152000Y-115000
X120523Y-100410
X120523Y-105410
X138000Y-87880
X138000Y-95500
X140540Y-87880
X140540Y-95500
X143080Y-87880
X143080Y-95500
X145620Y-87880
X145620Y-95500
X148160Y-87880
X148160Y-95500
X150700Y-87880
X150700Y-95500
X153240Y-87880
X153240Y-95500
X106172Y-106680
X113792Y-106680
X123698Y-38354
X123698Y-45974
X126238Y-38354
X126238Y-45974
X128778Y-38354
X128778Y-45974
X131318Y-38354
X131318Y-45974
X133858Y-38354
X133858Y-45974
X136398Y-38354
X136398Y-45974
X138938Y-38354
X138938Y-45974
X141478Y-38354
X141478Y-45974
X144018Y-38354
X144018Y-45974
X146558Y-38354
X146558Y-45974
X104500Y-76380
X104500Y-84000
X107040Y-76380
X107040Y-84000
X109580Y-76380
X109580Y-84000
X112120Y-76380
X112120Y-84000
X114660Y-76380
X114660Y-84000
X117200Y-76380
X117200Y-84000
X119740Y-76380
X119740Y-84000
X122280Y-76380
X122280Y-84000
X112268Y-87837
X112268Y-92837
X131880Y-115000
X139500Y-115000
X104474Y-72898
X109474Y-72898
X77560Y-88500
X77560Y-96120
X80100Y-88500
X80100Y-96120
X82640Y-88500
X82640Y-96120
X85180Y-88500
X85180Y-96120
X87720Y-88500
X87720Y-96120
X90260Y-88500
X90260Y-96120
X92800Y-88500
X92800Y-96120
X95340Y-88500
X95340Y-96120
X97880Y-88500
X97880Y-96120
X100420Y-88500
X100420Y-96120
X102960Y-88500
X102960Y-96120
X105500Y-88500
X105500Y-96120
X79756Y-46990
X87376Y-46990
X126500Y-68760
X126500Y-84000
X129040Y-68760
X129040Y-84000
X131580Y-68760
X131580Y-84000
X134120Y-68760
X134120Y-84000
X136660Y-68760
X136660Y-84000
X139200Y-68760
X139200Y-84000
X141740Y-68760
X141740Y-84000
X144280Y-68760
X144280Y-84000
X146820Y-68760
X146820Y-84000
X149360Y-68760
X149360Y-84000
X151900Y-68760
X151900Y-84000
X154440Y-68760
X154440Y-84000
X156980Y-68760
X156980Y-84000
X159520Y-68760
X159520Y-84000
X101854Y-50292
X109474Y-50292
X69088Y-80645
X74088Y-80645
T4
X116500Y-37000
X119040Y-37000
X81500Y-37000
X84040Y-37000
X157607Y-29417
X157607Y-31917
X157607Y-34417
X160907Y-29417
X160907Y-31917
X160907Y-34417
T5
X71410Y-45385
X71410Y-48155
X71410Y-50925
X71410Y-53695
X74250Y-44000
X74250Y-46770
X74250Y-49540
X74250Y-52310
X74250Y-55080
X69000Y-28460
X69000Y-31000
X71540Y-28460
X71540Y-31000
X74080Y-28460
X74080Y-31000
X76620Y-28460
X76620Y-31000
X79160Y-28460
X79160Y-31000
X81700Y-28460
X81700Y-31000
X84240Y-28460
X84240Y-31000
X86780Y-28460
X86780Y-31000
X89320Y-28460
X89320Y-31000
X91860Y-28460
X91860Y-31000
X94400Y-28460
X94400Y-31000
X96940Y-28460
X96940Y-31000
X99480Y-28460
X99480Y-31000
X102020Y-28460
X102020Y-31000
X104560Y-28460
X104560Y-31000
X107100Y-28460
X107100Y-31000
X109640Y-28460
X109640Y-31000
X122682Y-28460
X122682Y-31000
X125222Y-28460
X125222Y-31000
X127762Y-28460
X127762Y-31000
X130302Y-28460
X130302Y-31000
X132842Y-28460
X132842Y-31000
X135382Y-28460
X135382Y-31000
X137922Y-28460
X137922Y-31000
X140462Y-28460
X140462Y-31000
X143002Y-28460
X143002Y-31000
X145542Y-28460
X145542Y-31000
X148082Y-28460
X148082Y-31000
X150622Y-28460
X150622Y-31000
X153162Y-28460
X153162Y-31000
X153162Y-38608
X153162Y-41148
X153162Y-43688
X153162Y-46228
T6
X159258Y-89726
X159258Y-91726
X159258Y-93726
X78000Y-73500
X78000Y-80000
X82500Y-73500
X82500Y-80000
X96000Y-73500
X96000Y-80000
X100500Y-73500
X100500Y-80000
T8
X73950Y-37040
X73950Y-62040
T9
X68000Y-106000
X115000Y-44500
X158000Y-106000
T7
G00X159158Y-87626
M15
G01X159358Y-87626
M16
G05
G00X159158Y-95826
M15
G01X159358Y-95826
M16
G05
T0
M30
