G04 #@! TF.GenerationSoftware,KiCad,Pcbnew,(5.1.6)-1*
G04 #@! TF.CreationDate,2020-09-25T16:59:24+03:00*
G04 #@! TF.ProjectId,PlusD_Clone_1_4,506c7573-445f-4436-9c6f-6e655f315f34,rev?*
G04 #@! TF.SameCoordinates,Original*
G04 #@! TF.FileFunction,Legend,Top*
G04 #@! TF.FilePolarity,Positive*
%FSLAX46Y46*%
G04 Gerber Fmt 4.6, Leading zero omitted, Abs format (unit mm)*
G04 Created by KiCad (PCBNEW (5.1.6)-1) date 2020-09-25 16:59:24*
%MOMM*%
%LPD*%
G01*
G04 APERTURE LIST*
%ADD10C,0.150000*%
%ADD11C,0.200000*%
%ADD12C,0.120000*%
G04 APERTURE END LIST*
D10*
X154336761Y-47378952D02*
X154241523Y-47331333D01*
X154193904Y-47283714D01*
X154146285Y-47188476D01*
X154146285Y-47140857D01*
X154193904Y-47045619D01*
X154241523Y-46998000D01*
X154336761Y-46950380D01*
X154527238Y-46950380D01*
X154622476Y-46998000D01*
X154670095Y-47045619D01*
X154717714Y-47140857D01*
X154717714Y-47188476D01*
X154670095Y-47283714D01*
X154622476Y-47331333D01*
X154527238Y-47378952D01*
X154336761Y-47378952D01*
X154241523Y-47426571D01*
X154193904Y-47474190D01*
X154146285Y-47569428D01*
X154146285Y-47759904D01*
X154193904Y-47855142D01*
X154241523Y-47902761D01*
X154336761Y-47950380D01*
X154527238Y-47950380D01*
X154622476Y-47902761D01*
X154670095Y-47855142D01*
X154717714Y-47759904D01*
X154717714Y-47569428D01*
X154670095Y-47474190D01*
X154622476Y-47426571D01*
X154527238Y-47378952D01*
X153130285Y-36504619D02*
X153177904Y-36457000D01*
X153273142Y-36409380D01*
X153511238Y-36409380D01*
X153606476Y-36457000D01*
X153654095Y-36504619D01*
X153701714Y-36599857D01*
X153701714Y-36695095D01*
X153654095Y-36837952D01*
X153082666Y-37409380D01*
X153701714Y-37409380D01*
X149018666Y-45680380D02*
X149685333Y-45680380D01*
X149256761Y-46680380D01*
X149590095Y-43140380D02*
X149113904Y-43140380D01*
X149066285Y-43616571D01*
X149113904Y-43568952D01*
X149209142Y-43521333D01*
X149447238Y-43521333D01*
X149542476Y-43568952D01*
X149590095Y-43616571D01*
X149637714Y-43711809D01*
X149637714Y-43949904D01*
X149590095Y-44045142D01*
X149542476Y-44092761D01*
X149447238Y-44140380D01*
X149209142Y-44140380D01*
X149113904Y-44092761D01*
X149066285Y-44045142D01*
X149018666Y-40727380D02*
X149637714Y-40727380D01*
X149304380Y-41108333D01*
X149447238Y-41108333D01*
X149542476Y-41155952D01*
X149590095Y-41203571D01*
X149637714Y-41298809D01*
X149637714Y-41536904D01*
X149590095Y-41632142D01*
X149542476Y-41679761D01*
X149447238Y-41727380D01*
X149161523Y-41727380D01*
X149066285Y-41679761D01*
X149018666Y-41632142D01*
X149637714Y-38933380D02*
X149066285Y-38933380D01*
X149352000Y-38933380D02*
X149352000Y-37933380D01*
X149256761Y-38076238D01*
X149161523Y-38171476D01*
X149066285Y-38219095D01*
X154686000Y-99060000D02*
X155321000Y-98933000D01*
X155194000Y-99568000D02*
X154686000Y-99060000D01*
X155321000Y-98933000D02*
X155194000Y-99568000D01*
X153924000Y-100330000D02*
X155321000Y-98933000D01*
X154051000Y-109728000D02*
X153924000Y-100330000D01*
X64613404Y-77224380D02*
X64041976Y-77224380D01*
X64327690Y-77224380D02*
X64327690Y-76224380D01*
X64232452Y-76367238D01*
X64137214Y-76462476D01*
X64041976Y-76510095D01*
X65041976Y-76843428D02*
X65803880Y-76843428D01*
X66232452Y-76319619D02*
X66280071Y-76272000D01*
X66375309Y-76224380D01*
X66613404Y-76224380D01*
X66708642Y-76272000D01*
X66756261Y-76319619D01*
X66803880Y-76414857D01*
X66803880Y-76510095D01*
X66756261Y-76652952D01*
X66184833Y-77224380D01*
X66803880Y-77224380D01*
X68708642Y-76176761D02*
X67851500Y-77462476D01*
X70375309Y-77224380D02*
X70041976Y-76748190D01*
X69803880Y-77224380D02*
X69803880Y-76224380D01*
X70184833Y-76224380D01*
X70280071Y-76272000D01*
X70327690Y-76319619D01*
X70375309Y-76414857D01*
X70375309Y-76557714D01*
X70327690Y-76652952D01*
X70280071Y-76700571D01*
X70184833Y-76748190D01*
X69803880Y-76748190D01*
X70994357Y-76224380D02*
X71184833Y-76224380D01*
X71280071Y-76272000D01*
X71375309Y-76367238D01*
X71422928Y-76557714D01*
X71422928Y-76891047D01*
X71375309Y-77081523D01*
X71280071Y-77176761D01*
X71184833Y-77224380D01*
X70994357Y-77224380D01*
X70899119Y-77176761D01*
X70803880Y-77081523D01*
X70756261Y-76891047D01*
X70756261Y-76557714D01*
X70803880Y-76367238D01*
X70899119Y-76272000D01*
X70994357Y-76224380D01*
X71851500Y-77224380D02*
X71851500Y-76224380D01*
X72184833Y-76938666D01*
X72518166Y-76224380D01*
X72518166Y-77224380D01*
X73708642Y-77176761D02*
X73851500Y-77224380D01*
X74089595Y-77224380D01*
X74184833Y-77176761D01*
X74232452Y-77129142D01*
X74280071Y-77033904D01*
X74280071Y-76938666D01*
X74232452Y-76843428D01*
X74184833Y-76795809D01*
X74089595Y-76748190D01*
X73899119Y-76700571D01*
X73803880Y-76652952D01*
X73756261Y-76605333D01*
X73708642Y-76510095D01*
X73708642Y-76414857D01*
X73756261Y-76319619D01*
X73803880Y-76272000D01*
X73899119Y-76224380D01*
X74137214Y-76224380D01*
X74280071Y-76272000D01*
X74708642Y-76700571D02*
X75041976Y-76700571D01*
X75184833Y-77224380D02*
X74708642Y-77224380D01*
X74708642Y-76224380D01*
X75184833Y-76224380D01*
X76089595Y-77224380D02*
X75613404Y-77224380D01*
X75613404Y-76224380D01*
X63994357Y-77874380D02*
X64613404Y-77874380D01*
X64280071Y-78255333D01*
X64422928Y-78255333D01*
X64518166Y-78302952D01*
X64565785Y-78350571D01*
X64613404Y-78445809D01*
X64613404Y-78683904D01*
X64565785Y-78779142D01*
X64518166Y-78826761D01*
X64422928Y-78874380D01*
X64137214Y-78874380D01*
X64041976Y-78826761D01*
X63994357Y-78779142D01*
X66518166Y-77826761D02*
X65661023Y-79112476D01*
X67899119Y-77874380D02*
X67899119Y-78588666D01*
X67851500Y-78731523D01*
X67756261Y-78826761D01*
X67613404Y-78874380D01*
X67518166Y-78874380D01*
X68565785Y-77874380D02*
X68756261Y-77874380D01*
X68851500Y-77922000D01*
X68946738Y-78017238D01*
X68994357Y-78207714D01*
X68994357Y-78541047D01*
X68946738Y-78731523D01*
X68851500Y-78826761D01*
X68756261Y-78874380D01*
X68565785Y-78874380D01*
X68470547Y-78826761D01*
X68375309Y-78731523D01*
X68327690Y-78541047D01*
X68327690Y-78207714D01*
X68375309Y-78017238D01*
X68470547Y-77922000D01*
X68565785Y-77874380D01*
X69613404Y-78398190D02*
X69613404Y-78874380D01*
X69280071Y-77874380D02*
X69613404Y-78398190D01*
X69946738Y-77874380D01*
X71232452Y-77874380D02*
X71422928Y-77874380D01*
X71518166Y-77922000D01*
X71613404Y-78017238D01*
X71661023Y-78207714D01*
X71661023Y-78541047D01*
X71613404Y-78731523D01*
X71518166Y-78826761D01*
X71422928Y-78874380D01*
X71232452Y-78874380D01*
X71137214Y-78826761D01*
X71041976Y-78731523D01*
X70994357Y-78541047D01*
X70994357Y-78207714D01*
X71041976Y-78017238D01*
X71137214Y-77922000D01*
X71232452Y-77874380D01*
X72089595Y-78874380D02*
X72089595Y-77874380D01*
X72661023Y-78874380D01*
X72661023Y-77874380D01*
X73137214Y-78493428D02*
X73899119Y-78493428D01*
X74565785Y-77874380D02*
X74756261Y-77874380D01*
X74851500Y-77922000D01*
X74946738Y-78017238D01*
X74994357Y-78207714D01*
X74994357Y-78541047D01*
X74946738Y-78731523D01*
X74851500Y-78826761D01*
X74756261Y-78874380D01*
X74565785Y-78874380D01*
X74470547Y-78826761D01*
X74375309Y-78731523D01*
X74327690Y-78541047D01*
X74327690Y-78207714D01*
X74375309Y-78017238D01*
X74470547Y-77922000D01*
X74565785Y-77874380D01*
X75756261Y-78350571D02*
X75422928Y-78350571D01*
X75422928Y-78874380D02*
X75422928Y-77874380D01*
X75899119Y-77874380D01*
X76613404Y-78350571D02*
X76280071Y-78350571D01*
X76280071Y-78874380D02*
X76280071Y-77874380D01*
X76756261Y-77874380D01*
X75485666Y-73112380D02*
X76104714Y-73112380D01*
X75771380Y-73493333D01*
X75914238Y-73493333D01*
X76009476Y-73540952D01*
X76057095Y-73588571D01*
X76104714Y-73683809D01*
X76104714Y-73921904D01*
X76057095Y-74017142D01*
X76009476Y-74064761D01*
X75914238Y-74112380D01*
X75628523Y-74112380D01*
X75533285Y-74064761D01*
X75485666Y-74017142D01*
X75533285Y-70667619D02*
X75580904Y-70620000D01*
X75676142Y-70572380D01*
X75914238Y-70572380D01*
X76009476Y-70620000D01*
X76057095Y-70667619D01*
X76104714Y-70762857D01*
X76104714Y-70858095D01*
X76057095Y-71000952D01*
X75485666Y-71572380D01*
X76104714Y-71572380D01*
X76104714Y-69032380D02*
X75533285Y-69032380D01*
X75819000Y-69032380D02*
X75819000Y-68032380D01*
X75723761Y-68175238D01*
X75628523Y-68270476D01*
X75533285Y-68318095D01*
X146131595Y-110879428D02*
X146893500Y-110879428D01*
X146512547Y-111260380D02*
X146512547Y-110498476D01*
X147322071Y-110355619D02*
X147369690Y-110308000D01*
X147464928Y-110260380D01*
X147703023Y-110260380D01*
X147798261Y-110308000D01*
X147845880Y-110355619D01*
X147893500Y-110450857D01*
X147893500Y-110546095D01*
X147845880Y-110688952D01*
X147274452Y-111260380D01*
X147893500Y-111260380D01*
X148274452Y-110974666D02*
X148750642Y-110974666D01*
X148179214Y-111260380D02*
X148512547Y-110260380D01*
X148845880Y-111260380D01*
X149893500Y-110212761D02*
X149036357Y-111498476D01*
X150226833Y-110879428D02*
X150988738Y-110879428D01*
X150607785Y-111260380D02*
X150607785Y-110498476D01*
X151369690Y-110260380D02*
X151988738Y-110260380D01*
X151655404Y-110641333D01*
X151798261Y-110641333D01*
X151893500Y-110688952D01*
X151941119Y-110736571D01*
X151988738Y-110831809D01*
X151988738Y-111069904D01*
X151941119Y-111165142D01*
X151893500Y-111212761D01*
X151798261Y-111260380D01*
X151512547Y-111260380D01*
X151417309Y-111212761D01*
X151369690Y-111165142D01*
X153464928Y-111641333D02*
X153417309Y-111593714D01*
X153322071Y-111450857D01*
X153274452Y-111355619D01*
X153226833Y-111212761D01*
X153179214Y-110974666D01*
X153179214Y-110784190D01*
X153226833Y-110546095D01*
X153274452Y-110403238D01*
X153322071Y-110308000D01*
X153417309Y-110165142D01*
X153464928Y-110117523D01*
X154369690Y-111260380D02*
X153798261Y-111260380D01*
X154083976Y-111260380D02*
X154083976Y-110260380D01*
X153988738Y-110403238D01*
X153893500Y-110498476D01*
X153798261Y-110546095D01*
X154798261Y-110879428D02*
X155560166Y-110879428D01*
X155988738Y-110355619D02*
X156036357Y-110308000D01*
X156131595Y-110260380D01*
X156369690Y-110260380D01*
X156464928Y-110308000D01*
X156512547Y-110355619D01*
X156560166Y-110450857D01*
X156560166Y-110546095D01*
X156512547Y-110688952D01*
X155941119Y-111260380D01*
X156560166Y-111260380D01*
X156893500Y-111641333D02*
X156941119Y-111593714D01*
X157036357Y-111450857D01*
X157083976Y-111355619D01*
X157131595Y-111212761D01*
X157179214Y-110974666D01*
X157179214Y-110784190D01*
X157131595Y-110546095D01*
X157083976Y-110403238D01*
X157036357Y-110308000D01*
X156941119Y-110165142D01*
X156893500Y-110117523D01*
X146560166Y-112243714D02*
X146560166Y-112910380D01*
X146322071Y-111862761D02*
X146083976Y-112577047D01*
X146703023Y-112577047D01*
X147226833Y-112338952D02*
X147131595Y-112291333D01*
X147083976Y-112243714D01*
X147036357Y-112148476D01*
X147036357Y-112100857D01*
X147083976Y-112005619D01*
X147131595Y-111958000D01*
X147226833Y-111910380D01*
X147417309Y-111910380D01*
X147512547Y-111958000D01*
X147560166Y-112005619D01*
X147607785Y-112100857D01*
X147607785Y-112148476D01*
X147560166Y-112243714D01*
X147512547Y-112291333D01*
X147417309Y-112338952D01*
X147226833Y-112338952D01*
X147131595Y-112386571D01*
X147083976Y-112434190D01*
X147036357Y-112529428D01*
X147036357Y-112719904D01*
X147083976Y-112815142D01*
X147131595Y-112862761D01*
X147226833Y-112910380D01*
X147417309Y-112910380D01*
X147512547Y-112862761D01*
X147560166Y-112815142D01*
X147607785Y-112719904D01*
X147607785Y-112529428D01*
X147560166Y-112434190D01*
X147512547Y-112386571D01*
X147417309Y-112338952D01*
X148036357Y-112910380D02*
X148036357Y-111910380D01*
X148607785Y-112910380D02*
X148179214Y-112338952D01*
X148607785Y-111910380D02*
X148036357Y-112481809D01*
X149750642Y-111862761D02*
X148893500Y-113148476D01*
X150607785Y-112910380D02*
X150036357Y-112910380D01*
X150322071Y-112910380D02*
X150322071Y-111910380D01*
X150226833Y-112053238D01*
X150131595Y-112148476D01*
X150036357Y-112196095D01*
X150988738Y-112005619D02*
X151036357Y-111958000D01*
X151131595Y-111910380D01*
X151369690Y-111910380D01*
X151464928Y-111958000D01*
X151512547Y-112005619D01*
X151560166Y-112100857D01*
X151560166Y-112196095D01*
X151512547Y-112338952D01*
X150941119Y-112910380D01*
X151560166Y-112910380D01*
X152131595Y-112338952D02*
X152036357Y-112291333D01*
X151988738Y-112243714D01*
X151941119Y-112148476D01*
X151941119Y-112100857D01*
X151988738Y-112005619D01*
X152036357Y-111958000D01*
X152131595Y-111910380D01*
X152322071Y-111910380D01*
X152417309Y-111958000D01*
X152464928Y-112005619D01*
X152512547Y-112100857D01*
X152512547Y-112148476D01*
X152464928Y-112243714D01*
X152417309Y-112291333D01*
X152322071Y-112338952D01*
X152131595Y-112338952D01*
X152036357Y-112386571D01*
X151988738Y-112434190D01*
X151941119Y-112529428D01*
X151941119Y-112719904D01*
X151988738Y-112815142D01*
X152036357Y-112862761D01*
X152131595Y-112910380D01*
X152322071Y-112910380D01*
X152417309Y-112862761D01*
X152464928Y-112815142D01*
X152512547Y-112719904D01*
X152512547Y-112529428D01*
X152464928Y-112434190D01*
X152417309Y-112386571D01*
X152322071Y-112338952D01*
X152941119Y-112910380D02*
X152941119Y-111910380D01*
X153512547Y-112910380D02*
X153083976Y-112338952D01*
X153512547Y-111910380D02*
X152941119Y-112481809D01*
X154988738Y-113291333D02*
X154941119Y-113243714D01*
X154845880Y-113100857D01*
X154798261Y-113005619D01*
X154750642Y-112862761D01*
X154703023Y-112624666D01*
X154703023Y-112434190D01*
X154750642Y-112196095D01*
X154798261Y-112053238D01*
X154845880Y-111958000D01*
X154941119Y-111815142D01*
X154988738Y-111767523D01*
X155322071Y-112005619D02*
X155369690Y-111958000D01*
X155464928Y-111910380D01*
X155703023Y-111910380D01*
X155798261Y-111958000D01*
X155845880Y-112005619D01*
X155893500Y-112100857D01*
X155893500Y-112196095D01*
X155845880Y-112338952D01*
X155274452Y-112910380D01*
X155893500Y-112910380D01*
X156322071Y-112529428D02*
X157083976Y-112529428D01*
X157464928Y-111910380D02*
X158083976Y-111910380D01*
X157750642Y-112291333D01*
X157893500Y-112291333D01*
X157988738Y-112338952D01*
X158036357Y-112386571D01*
X158083976Y-112481809D01*
X158083976Y-112719904D01*
X158036357Y-112815142D01*
X157988738Y-112862761D01*
X157893500Y-112910380D01*
X157607785Y-112910380D01*
X157512547Y-112862761D01*
X157464928Y-112815142D01*
X158417309Y-113291333D02*
X158464928Y-113243714D01*
X158560166Y-113100857D01*
X158607785Y-113005619D01*
X158655404Y-112862761D01*
X158703023Y-112624666D01*
X158703023Y-112434190D01*
X158655404Y-112196095D01*
X158607785Y-112053238D01*
X158560166Y-111958000D01*
X158464928Y-111815142D01*
X158417309Y-111767523D01*
D11*
X155622666Y-89114380D02*
X156241714Y-89114380D01*
X155908380Y-89495333D01*
X156051238Y-89495333D01*
X156146476Y-89542952D01*
X156194095Y-89590571D01*
X156241714Y-89685809D01*
X156241714Y-89923904D01*
X156194095Y-90019142D01*
X156146476Y-90066761D01*
X156051238Y-90114380D01*
X155765523Y-90114380D01*
X155670285Y-90066761D01*
X155622666Y-90019142D01*
X155670285Y-91241619D02*
X155717904Y-91194000D01*
X155813142Y-91146380D01*
X156051238Y-91146380D01*
X156146476Y-91194000D01*
X156194095Y-91241619D01*
X156241714Y-91336857D01*
X156241714Y-91432095D01*
X156194095Y-91574952D01*
X155622666Y-92146380D01*
X156241714Y-92146380D01*
X156241714Y-94178380D02*
X155670285Y-94178380D01*
X155956000Y-94178380D02*
X155956000Y-93178380D01*
X155860761Y-93321238D01*
X155765523Y-93416476D01*
X155670285Y-93464095D01*
D12*
X154856000Y-37278000D02*
X154856000Y-47558000D01*
X154856000Y-47558000D02*
X157516000Y-47558000D01*
X157516000Y-47558000D02*
X157516000Y-37278000D01*
X157516000Y-37278000D02*
X154856000Y-37278000D01*
X157516000Y-38228000D02*
X163516000Y-38228000D01*
X163516000Y-38228000D02*
X163516000Y-38988000D01*
X163516000Y-38988000D02*
X157516000Y-38988000D01*
X157516000Y-38288000D02*
X163516000Y-38288000D01*
X157516000Y-38408000D02*
X163516000Y-38408000D01*
X157516000Y-38528000D02*
X163516000Y-38528000D01*
X157516000Y-38648000D02*
X163516000Y-38648000D01*
X157516000Y-38768000D02*
X163516000Y-38768000D01*
X157516000Y-38888000D02*
X163516000Y-38888000D01*
X154458929Y-38228000D02*
X154856000Y-38228000D01*
X154458929Y-38988000D02*
X154856000Y-38988000D01*
X151986000Y-38228000D02*
X152373071Y-38228000D01*
X151986000Y-38988000D02*
X152373071Y-38988000D01*
X154856000Y-39878000D02*
X157516000Y-39878000D01*
X157516000Y-40768000D02*
X163516000Y-40768000D01*
X163516000Y-40768000D02*
X163516000Y-41528000D01*
X163516000Y-41528000D02*
X157516000Y-41528000D01*
X154458929Y-40768000D02*
X154856000Y-40768000D01*
X154458929Y-41528000D02*
X154856000Y-41528000D01*
X151918929Y-40768000D02*
X152373071Y-40768000D01*
X151918929Y-41528000D02*
X152373071Y-41528000D01*
X154856000Y-42418000D02*
X157516000Y-42418000D01*
X157516000Y-43308000D02*
X163516000Y-43308000D01*
X163516000Y-43308000D02*
X163516000Y-44068000D01*
X163516000Y-44068000D02*
X157516000Y-44068000D01*
X154458929Y-43308000D02*
X154856000Y-43308000D01*
X154458929Y-44068000D02*
X154856000Y-44068000D01*
X151918929Y-43308000D02*
X152373071Y-43308000D01*
X151918929Y-44068000D02*
X152373071Y-44068000D01*
X154856000Y-44958000D02*
X157516000Y-44958000D01*
X157516000Y-45848000D02*
X163516000Y-45848000D01*
X163516000Y-45848000D02*
X163516000Y-46608000D01*
X163516000Y-46608000D02*
X157516000Y-46608000D01*
X154458929Y-45848000D02*
X154856000Y-45848000D01*
X154458929Y-46608000D02*
X154856000Y-46608000D01*
X151918929Y-45848000D02*
X152373071Y-45848000D01*
X151918929Y-46608000D02*
X152373071Y-46608000D01*
X149606000Y-38608000D02*
X149606000Y-37338000D01*
X149606000Y-37338000D02*
X150876000Y-37338000D01*
X95845563Y-106910000D02*
X96910000Y-105845563D01*
X91154437Y-106910000D02*
X90090000Y-105845563D01*
X91154437Y-106910000D02*
X92440000Y-106910000D01*
X95845563Y-106910000D02*
X94560000Y-106910000D01*
X96910000Y-105845563D02*
X96910000Y-100090000D01*
X90090000Y-105845563D02*
X90090000Y-100090000D01*
X90090000Y-100090000D02*
X92440000Y-100090000D01*
X96910000Y-100090000D02*
X94560000Y-100090000D01*
X81654437Y-100090000D02*
X80590000Y-101154437D01*
X86345563Y-100090000D02*
X87410000Y-101154437D01*
X86345563Y-100090000D02*
X85060000Y-100090000D01*
X81654437Y-100090000D02*
X82940000Y-100090000D01*
X80590000Y-101154437D02*
X80590000Y-106910000D01*
X87410000Y-101154437D02*
X87410000Y-106910000D01*
X87410000Y-106910000D02*
X85060000Y-106910000D01*
X80590000Y-106910000D02*
X82940000Y-106910000D01*
X156857000Y-36817000D02*
X158057000Y-36817000D01*
X156857000Y-35617000D02*
X156857000Y-36817000D01*
X161357000Y-27317000D02*
X161357000Y-28517000D01*
X157157000Y-27317000D02*
X161357000Y-27317000D01*
X157157000Y-28517000D02*
X157157000Y-27317000D01*
X161357000Y-36517000D02*
X161357000Y-35317000D01*
X157157000Y-36517000D02*
X161357000Y-36517000D01*
X157157000Y-35317000D02*
X157157000Y-36517000D01*
X125170000Y-58380000D02*
X125170000Y-63440000D01*
X125170000Y-63440000D02*
X160850000Y-63440000D01*
X160850000Y-63440000D02*
X160850000Y-51320000D01*
X160850000Y-51320000D02*
X125170000Y-51320000D01*
X125170000Y-51320000D02*
X125170000Y-56380000D01*
X125110000Y-66440000D02*
X160910000Y-66440000D01*
X160910000Y-66440000D02*
X160910000Y-48320000D01*
X160910000Y-48320000D02*
X125110000Y-48320000D01*
X125110000Y-48320000D02*
X125110000Y-66440000D01*
X125170000Y-56380000D02*
G75*
G02*
X125170000Y-58380000I0J-1000000D01*
G01*
D10*
X161558000Y-89726000D02*
X161558000Y-87426000D01*
X161558000Y-96026000D02*
X161558000Y-93826000D01*
X156958000Y-96026000D02*
X156958000Y-87426000D01*
D12*
X115800000Y-68294000D02*
X115470000Y-68294000D01*
X115470000Y-68294000D02*
X115470000Y-61754000D01*
X115470000Y-61754000D02*
X115800000Y-61754000D01*
X117880000Y-68294000D02*
X118210000Y-68294000D01*
X118210000Y-68294000D02*
X118210000Y-61754000D01*
X118210000Y-61754000D02*
X117880000Y-61754000D01*
X66530000Y-34055000D02*
X77010000Y-34055000D01*
X77010000Y-34055000D02*
X77010000Y-65025000D01*
X77010000Y-65025000D02*
X66530000Y-65025000D01*
X77904338Y-43750000D02*
X77904338Y-44250000D01*
X77904338Y-44250000D02*
X77471325Y-44000000D01*
X77471325Y-44000000D02*
X77904338Y-43750000D01*
X64136000Y-66390000D02*
X75056000Y-66390000D01*
X64136000Y-75690000D02*
X75056000Y-75690000D01*
X64136000Y-66390000D02*
X64136000Y-75690000D01*
X75056000Y-66390000D02*
X75056000Y-75690000D01*
X63896000Y-66150000D02*
X65279000Y-66150000D01*
X63896000Y-66150000D02*
X63896000Y-67533000D01*
X62276000Y-67690000D02*
X64136000Y-67690000D01*
X62276000Y-69310000D02*
X64136000Y-69310000D01*
X62276000Y-67690000D02*
X62276000Y-69310000D01*
X64136000Y-67690000D02*
X64136000Y-69310000D01*
X62276000Y-70230000D02*
X64136000Y-70230000D01*
X62276000Y-71850000D02*
X64136000Y-71850000D01*
X62276000Y-70230000D02*
X62276000Y-71850000D01*
X64136000Y-70230000D02*
X64136000Y-71850000D01*
X62276000Y-72770000D02*
X64136000Y-72770000D01*
X62276000Y-74390000D02*
X64136000Y-74390000D01*
X62276000Y-72770000D02*
X62276000Y-74390000D01*
X64136000Y-72770000D02*
X64136000Y-74390000D01*
X153257000Y-35584000D02*
X153257000Y-35914000D01*
X153257000Y-35914000D02*
X146717000Y-35914000D01*
X146717000Y-35914000D02*
X146717000Y-35584000D01*
X153257000Y-33504000D02*
X153257000Y-33174000D01*
X153257000Y-33174000D02*
X146717000Y-33174000D01*
X146717000Y-33174000D02*
X146717000Y-33504000D01*
X114432000Y-92690000D02*
X114432000Y-93940000D01*
X114432000Y-93940000D02*
X132332000Y-93940000D01*
X132332000Y-93940000D02*
X132332000Y-89440000D01*
X132332000Y-89440000D02*
X114432000Y-89440000D01*
X114432000Y-89440000D02*
X114432000Y-90690000D01*
X114372000Y-96940000D02*
X132392000Y-96940000D01*
X132392000Y-96940000D02*
X132392000Y-86440000D01*
X132392000Y-86440000D02*
X114372000Y-86440000D01*
X114372000Y-86440000D02*
X114372000Y-96940000D01*
X114432000Y-90690000D02*
G75*
G02*
X114432000Y-92690000I0J-1000000D01*
G01*
X106830000Y-91310000D02*
X106830000Y-90060000D01*
X106830000Y-90060000D02*
X76230000Y-90060000D01*
X76230000Y-90060000D02*
X76230000Y-94560000D01*
X76230000Y-94560000D02*
X106830000Y-94560000D01*
X106830000Y-94560000D02*
X106830000Y-93310000D01*
X106890000Y-87060000D02*
X76170000Y-87060000D01*
X76170000Y-87060000D02*
X76170000Y-97560000D01*
X76170000Y-97560000D02*
X106890000Y-97560000D01*
X106890000Y-97560000D02*
X106890000Y-87060000D01*
X106830000Y-93310000D02*
G75*
G02*
X106830000Y-91310000I0J1000000D01*
G01*
X99810000Y-33670000D02*
X98560000Y-33670000D01*
X98560000Y-33670000D02*
X98560000Y-51570000D01*
X98560000Y-51570000D02*
X103060000Y-51570000D01*
X103060000Y-51570000D02*
X103060000Y-33670000D01*
X103060000Y-33670000D02*
X101810000Y-33670000D01*
X95560000Y-33610000D02*
X95560000Y-51630000D01*
X95560000Y-51630000D02*
X106060000Y-51630000D01*
X106060000Y-51630000D02*
X106060000Y-33610000D01*
X106060000Y-33610000D02*
X95560000Y-33610000D01*
X101810000Y-33670000D02*
G75*
G02*
X99810000Y-33670000I-1000000J0D01*
G01*
X68850000Y-82871000D02*
X67600000Y-82871000D01*
X67600000Y-82871000D02*
X67600000Y-100771000D01*
X67600000Y-100771000D02*
X72100000Y-100771000D01*
X72100000Y-100771000D02*
X72100000Y-82871000D01*
X72100000Y-82871000D02*
X70850000Y-82871000D01*
X64600000Y-82811000D02*
X64600000Y-100831000D01*
X64600000Y-100831000D02*
X75100000Y-100831000D01*
X75100000Y-100831000D02*
X75100000Y-82811000D01*
X75100000Y-82811000D02*
X64600000Y-82811000D01*
X70850000Y-82871000D02*
G75*
G02*
X68850000Y-82871000I-1000000J0D01*
G01*
X123349000Y-33504000D02*
X123349000Y-33174000D01*
X123349000Y-33174000D02*
X129889000Y-33174000D01*
X129889000Y-33174000D02*
X129889000Y-33504000D01*
X123349000Y-35584000D02*
X123349000Y-35914000D01*
X123349000Y-35914000D02*
X129889000Y-35914000D01*
X129889000Y-35914000D02*
X129889000Y-35584000D01*
X136670000Y-92690000D02*
X136670000Y-93940000D01*
X136670000Y-93940000D02*
X154570000Y-93940000D01*
X154570000Y-93940000D02*
X154570000Y-89440000D01*
X154570000Y-89440000D02*
X136670000Y-89440000D01*
X136670000Y-89440000D02*
X136670000Y-90690000D01*
X136610000Y-96940000D02*
X154630000Y-96940000D01*
X154630000Y-96940000D02*
X154630000Y-86440000D01*
X154630000Y-86440000D02*
X136610000Y-86440000D01*
X136610000Y-86440000D02*
X136610000Y-96940000D01*
X136670000Y-90690000D02*
G75*
G02*
X136670000Y-92690000I0J-1000000D01*
G01*
X95000000Y-78500000D02*
X99500000Y-78500000D01*
X93750000Y-74500000D02*
X93750000Y-76000000D01*
X99500000Y-72000000D02*
X95000000Y-72000000D01*
X100750000Y-76000000D02*
X100750000Y-74500000D01*
X79000000Y-78500000D02*
X83500000Y-78500000D01*
X77750000Y-74500000D02*
X77750000Y-76000000D01*
X83500000Y-72000000D02*
X79000000Y-72000000D01*
X84750000Y-76000000D02*
X84750000Y-74500000D01*
X110670000Y-42690000D02*
X110670000Y-43940000D01*
X110670000Y-43940000D02*
X136190000Y-43940000D01*
X136190000Y-43940000D02*
X136190000Y-39440000D01*
X136190000Y-39440000D02*
X110670000Y-39440000D01*
X110670000Y-39440000D02*
X110670000Y-40690000D01*
X110610000Y-46940000D02*
X136250000Y-46940000D01*
X136250000Y-46940000D02*
X136250000Y-36440000D01*
X136250000Y-36440000D02*
X110610000Y-36440000D01*
X110610000Y-36440000D02*
X110610000Y-46940000D01*
X110670000Y-40690000D02*
G75*
G02*
X110670000Y-42690000I0J-1000000D01*
G01*
X102670000Y-81190000D02*
X102670000Y-82440000D01*
X102670000Y-82440000D02*
X123110000Y-82440000D01*
X123110000Y-82440000D02*
X123110000Y-77940000D01*
X123110000Y-77940000D02*
X102670000Y-77940000D01*
X102670000Y-77940000D02*
X102670000Y-79190000D01*
X102610000Y-85440000D02*
X123170000Y-85440000D01*
X123170000Y-85440000D02*
X123170000Y-74940000D01*
X123170000Y-74940000D02*
X102610000Y-74940000D01*
X102610000Y-74940000D02*
X102610000Y-85440000D01*
X102670000Y-79190000D02*
G75*
G02*
X102670000Y-81190000I0J-1000000D01*
G01*
X122670000Y-105190000D02*
X122670000Y-106440000D01*
X122670000Y-106440000D02*
X153270000Y-106440000D01*
X153270000Y-106440000D02*
X153270000Y-101940000D01*
X153270000Y-101940000D02*
X122670000Y-101940000D01*
X122670000Y-101940000D02*
X122670000Y-103190000D01*
X122610000Y-109440000D02*
X153330000Y-109440000D01*
X153330000Y-109440000D02*
X153330000Y-98940000D01*
X153330000Y-98940000D02*
X122610000Y-98940000D01*
X122610000Y-98940000D02*
X122610000Y-109440000D01*
X122670000Y-103190000D02*
G75*
G02*
X122670000Y-105190000I0J-1000000D01*
G01*
X125170000Y-77380000D02*
X125170000Y-82440000D01*
X125170000Y-82440000D02*
X160850000Y-82440000D01*
X160850000Y-82440000D02*
X160850000Y-70320000D01*
X160850000Y-70320000D02*
X125170000Y-70320000D01*
X125170000Y-70320000D02*
X125170000Y-75380000D01*
X125110000Y-85440000D02*
X160910000Y-85440000D01*
X160910000Y-85440000D02*
X160910000Y-67320000D01*
X160910000Y-67320000D02*
X125110000Y-67320000D01*
X125110000Y-67320000D02*
X125110000Y-85440000D01*
X125170000Y-75380000D02*
G75*
G02*
X125170000Y-77380000I0J-1000000D01*
G01*
X78934000Y-62468000D02*
X78934000Y-67528000D01*
X78934000Y-67528000D02*
X114614000Y-67528000D01*
X114614000Y-67528000D02*
X114614000Y-55408000D01*
X114614000Y-55408000D02*
X78934000Y-55408000D01*
X78934000Y-55408000D02*
X78934000Y-60468000D01*
X78874000Y-70528000D02*
X114674000Y-70528000D01*
X114674000Y-70528000D02*
X114674000Y-52408000D01*
X114674000Y-52408000D02*
X78874000Y-52408000D01*
X78874000Y-52408000D02*
X78874000Y-70528000D01*
X78934000Y-60468000D02*
G75*
G02*
X78934000Y-62468000I0J-1000000D01*
G01*
X118975000Y-68294000D02*
X118645000Y-68294000D01*
X118645000Y-68294000D02*
X118645000Y-61754000D01*
X118645000Y-61754000D02*
X118975000Y-61754000D01*
X121055000Y-68294000D02*
X121385000Y-68294000D01*
X121385000Y-68294000D02*
X121385000Y-61754000D01*
X121385000Y-61754000D02*
X121055000Y-61754000D01*
X80296000Y-42775000D02*
X80296000Y-42445000D01*
X80296000Y-42445000D02*
X86836000Y-42445000D01*
X86836000Y-42445000D02*
X86836000Y-42775000D01*
X80296000Y-44855000D02*
X80296000Y-45185000D01*
X80296000Y-45185000D02*
X86836000Y-45185000D01*
X86836000Y-45185000D02*
X86836000Y-44855000D01*
X106712000Y-105640000D02*
X106712000Y-105310000D01*
X106712000Y-105310000D02*
X113252000Y-105310000D01*
X113252000Y-105310000D02*
X113252000Y-105640000D01*
X106712000Y-107720000D02*
X106712000Y-108050000D01*
X106712000Y-108050000D02*
X113252000Y-108050000D01*
X113252000Y-108050000D02*
X113252000Y-107720000D01*
X106712000Y-108942000D02*
X106712000Y-108612000D01*
X106712000Y-108612000D02*
X113252000Y-108612000D01*
X113252000Y-108612000D02*
X113252000Y-108942000D01*
X106712000Y-111022000D02*
X106712000Y-111352000D01*
X106712000Y-111352000D02*
X113252000Y-111352000D01*
X113252000Y-111352000D02*
X113252000Y-111022000D01*
X113252000Y-114324000D02*
X113252000Y-114654000D01*
X113252000Y-114654000D02*
X106712000Y-114654000D01*
X106712000Y-114654000D02*
X106712000Y-114324000D01*
X113252000Y-112244000D02*
X113252000Y-111914000D01*
X113252000Y-111914000D02*
X106712000Y-111914000D01*
X106712000Y-111914000D02*
X106712000Y-112244000D01*
X80296000Y-45950000D02*
X80296000Y-45620000D01*
X80296000Y-45620000D02*
X86836000Y-45620000D01*
X86836000Y-45620000D02*
X86836000Y-45950000D01*
X80296000Y-48030000D02*
X80296000Y-48360000D01*
X80296000Y-48360000D02*
X86836000Y-48360000D01*
X86836000Y-48360000D02*
X86836000Y-48030000D01*
X110268000Y-48871000D02*
X110268000Y-48541000D01*
X110268000Y-48541000D02*
X116808000Y-48541000D01*
X116808000Y-48541000D02*
X116808000Y-48871000D01*
X110268000Y-50951000D02*
X110268000Y-51281000D01*
X110268000Y-51281000D02*
X116808000Y-51281000D01*
X116808000Y-51281000D02*
X116808000Y-50951000D01*
X92861000Y-43720000D02*
X93191000Y-43720000D01*
X93191000Y-43720000D02*
X93191000Y-50260000D01*
X93191000Y-50260000D02*
X92861000Y-50260000D01*
X90781000Y-43720000D02*
X90451000Y-43720000D01*
X90451000Y-43720000D02*
X90451000Y-50260000D01*
X90451000Y-50260000D02*
X90781000Y-50260000D01*
X80296000Y-49252000D02*
X80296000Y-48922000D01*
X80296000Y-48922000D02*
X86836000Y-48922000D01*
X86836000Y-48922000D02*
X86836000Y-49252000D01*
X80296000Y-51332000D02*
X80296000Y-51662000D01*
X80296000Y-51662000D02*
X86836000Y-51662000D01*
X86836000Y-51662000D02*
X86836000Y-51332000D01*
X154492000Y-32330000D02*
X154492000Y-27130000D01*
X123952000Y-32330000D02*
X154492000Y-32330000D01*
X121352000Y-27130000D02*
X154492000Y-27130000D01*
X123952000Y-32330000D02*
X123952000Y-29730000D01*
X123952000Y-29730000D02*
X121352000Y-29730000D01*
X121352000Y-29730000D02*
X121352000Y-27130000D01*
X122682000Y-32330000D02*
X121352000Y-32330000D01*
X121352000Y-32330000D02*
X121352000Y-31000000D01*
X121693000Y-54349000D02*
X121693000Y-49109000D01*
X124433000Y-54349000D02*
X124433000Y-49109000D01*
X121693000Y-54349000D02*
X122008000Y-54349000D01*
X124118000Y-54349000D02*
X124433000Y-54349000D01*
X121693000Y-49109000D02*
X122008000Y-49109000D01*
X124118000Y-49109000D02*
X124433000Y-49109000D01*
X110336000Y-91447000D02*
X110336000Y-96687000D01*
X107596000Y-91447000D02*
X107596000Y-96687000D01*
X110336000Y-91447000D02*
X110021000Y-91447000D01*
X107911000Y-91447000D02*
X107596000Y-91447000D01*
X110336000Y-96687000D02*
X110021000Y-96687000D01*
X107911000Y-96687000D02*
X107596000Y-96687000D01*
X133123000Y-92576000D02*
X133123000Y-87336000D01*
X135863000Y-92576000D02*
X135863000Y-87336000D01*
X133123000Y-92576000D02*
X133438000Y-92576000D01*
X135548000Y-92576000D02*
X135863000Y-92576000D01*
X133123000Y-87336000D02*
X133438000Y-87336000D01*
X135548000Y-87336000D02*
X135863000Y-87336000D01*
X110898000Y-92449000D02*
X110898000Y-87209000D01*
X113638000Y-92449000D02*
X113638000Y-87209000D01*
X110898000Y-92449000D02*
X111213000Y-92449000D01*
X113323000Y-92449000D02*
X113638000Y-92449000D01*
X110898000Y-87209000D02*
X111213000Y-87209000D01*
X113323000Y-87209000D02*
X113638000Y-87209000D01*
X109594000Y-74268000D02*
X104354000Y-74268000D01*
X109594000Y-71528000D02*
X104354000Y-71528000D01*
X109594000Y-74268000D02*
X109594000Y-73953000D01*
X109594000Y-71843000D02*
X109594000Y-71528000D01*
X104354000Y-74268000D02*
X104354000Y-73953000D01*
X104354000Y-71843000D02*
X104354000Y-71528000D01*
X117849000Y-35914000D02*
X112609000Y-35914000D01*
X117849000Y-33174000D02*
X112609000Y-33174000D01*
X117849000Y-35914000D02*
X117849000Y-35599000D01*
X117849000Y-33489000D02*
X117849000Y-33174000D01*
X112609000Y-35914000D02*
X112609000Y-35599000D01*
X112609000Y-33489000D02*
X112609000Y-33174000D01*
X68968000Y-79275000D02*
X74208000Y-79275000D01*
X68968000Y-82015000D02*
X74208000Y-82015000D01*
X68968000Y-79275000D02*
X68968000Y-79590000D01*
X68968000Y-81700000D02*
X68968000Y-82015000D01*
X74208000Y-79275000D02*
X74208000Y-79590000D01*
X74208000Y-81700000D02*
X74208000Y-82015000D01*
X106961000Y-40125000D02*
X106961000Y-34885000D01*
X109701000Y-40125000D02*
X109701000Y-34885000D01*
X106961000Y-40125000D02*
X107276000Y-40125000D01*
X109386000Y-40125000D02*
X109701000Y-40125000D01*
X106961000Y-34885000D02*
X107276000Y-34885000D01*
X109386000Y-34885000D02*
X109701000Y-34885000D01*
X119153000Y-105022000D02*
X119153000Y-99782000D01*
X121893000Y-105022000D02*
X121893000Y-99782000D01*
X119153000Y-105022000D02*
X119468000Y-105022000D01*
X121578000Y-105022000D02*
X121893000Y-105022000D01*
X119153000Y-99782000D02*
X119468000Y-99782000D01*
X121578000Y-99782000D02*
X121893000Y-99782000D01*
X121820000Y-72764000D02*
X121820000Y-67524000D01*
X124560000Y-72764000D02*
X124560000Y-67524000D01*
X121820000Y-72764000D02*
X122135000Y-72764000D01*
X124245000Y-72764000D02*
X124560000Y-72764000D01*
X121820000Y-67524000D02*
X122135000Y-67524000D01*
X124245000Y-67524000D02*
X124560000Y-67524000D01*
X115470000Y-58413000D02*
X115470000Y-53173000D01*
X118210000Y-58413000D02*
X118210000Y-53173000D01*
X115470000Y-58413000D02*
X115785000Y-58413000D01*
X117895000Y-58413000D02*
X118210000Y-58413000D01*
X115470000Y-53173000D02*
X115785000Y-53173000D01*
X117895000Y-53173000D02*
X118210000Y-53173000D01*
X107576000Y-98198000D02*
X112816000Y-98198000D01*
X107576000Y-100938000D02*
X112816000Y-100938000D01*
X107576000Y-98198000D02*
X107576000Y-98513000D01*
X107576000Y-100623000D02*
X107576000Y-100938000D01*
X112816000Y-98198000D02*
X112816000Y-98513000D01*
X112816000Y-100623000D02*
X112816000Y-100938000D01*
X67670000Y-32330000D02*
X67670000Y-31000000D01*
X69000000Y-32330000D02*
X67670000Y-32330000D01*
X67670000Y-29730000D02*
X67670000Y-27130000D01*
X70270000Y-29730000D02*
X67670000Y-29730000D01*
X70270000Y-32330000D02*
X70270000Y-29730000D01*
X67670000Y-27130000D02*
X110970000Y-27130000D01*
X70270000Y-32330000D02*
X110970000Y-32330000D01*
X110970000Y-32330000D02*
X110970000Y-27130000D01*
X142770000Y-37000000D02*
G75*
G03*
X142770000Y-37000000I-2500000J0D01*
G01*
X137710000Y-35455000D02*
X137710000Y-38545000D01*
X143260000Y-36999538D02*
G75*
G02*
X137710000Y-38544830I-2990000J-462D01*
G01*
X143260000Y-37000462D02*
G75*
G03*
X137710000Y-35455170I-2990000J462D01*
G01*
X120750000Y-113940000D02*
X120750000Y-116060000D01*
X120750000Y-116060000D02*
X124870000Y-116060000D01*
X124870000Y-116060000D02*
X124870000Y-113940000D01*
X124870000Y-113940000D02*
X120750000Y-113940000D01*
X119980000Y-115000000D02*
X120750000Y-115000000D01*
X125640000Y-115000000D02*
X124870000Y-115000000D01*
X121410000Y-113940000D02*
X121410000Y-116060000D01*
X137750000Y-116060000D02*
X137750000Y-113940000D01*
X137750000Y-113940000D02*
X133630000Y-113940000D01*
X133630000Y-113940000D02*
X133630000Y-116060000D01*
X133630000Y-116060000D02*
X137750000Y-116060000D01*
X138520000Y-115000000D02*
X137750000Y-115000000D01*
X132860000Y-115000000D02*
X133630000Y-115000000D01*
X137090000Y-116060000D02*
X137090000Y-113940000D01*
X149590000Y-116060000D02*
X149590000Y-113940000D01*
X145360000Y-115000000D02*
X146130000Y-115000000D01*
X151020000Y-115000000D02*
X150250000Y-115000000D01*
X146130000Y-116060000D02*
X150250000Y-116060000D01*
X146130000Y-113940000D02*
X146130000Y-116060000D01*
X150250000Y-113940000D02*
X146130000Y-113940000D01*
X150250000Y-116060000D02*
X150250000Y-113940000D01*
X92770000Y-37000000D02*
G75*
G03*
X92770000Y-37000000I-2500000J0D01*
G01*
X87710000Y-35455000D02*
X87710000Y-38545000D01*
X93260000Y-36999538D02*
G75*
G02*
X87710000Y-38544830I-2990000J-462D01*
G01*
X93260000Y-37000462D02*
G75*
G03*
X87710000Y-35455170I-2990000J462D01*
G01*
X107636000Y-101814000D02*
X112756000Y-101814000D01*
X107636000Y-104434000D02*
X112756000Y-104434000D01*
X107636000Y-101814000D02*
X107636000Y-102128000D01*
X107636000Y-104120000D02*
X107636000Y-104434000D01*
X112756000Y-101814000D02*
X112756000Y-102128000D01*
X112756000Y-104120000D02*
X112756000Y-104434000D01*
X97349000Y-111847000D02*
X102469000Y-111847000D01*
X97349000Y-114467000D02*
X102469000Y-114467000D01*
X97349000Y-111847000D02*
X97349000Y-112161000D01*
X97349000Y-114153000D02*
X97349000Y-114467000D01*
X102469000Y-111847000D02*
X102469000Y-112161000D01*
X102469000Y-114153000D02*
X102469000Y-114467000D01*
X97975000Y-101325000D02*
X97975000Y-107575000D01*
X103025000Y-101325000D02*
X103025000Y-107575000D01*
X97975000Y-101325000D02*
G75*
G02*
X103025000Y-101325000I2525000J0D01*
G01*
X97975000Y-107575000D02*
G75*
G03*
X103025000Y-107575000I2525000J0D01*
G01*
D10*
X155749666Y-38187380D02*
X155749666Y-38901666D01*
X155702047Y-39044523D01*
X155606809Y-39139761D01*
X155463952Y-39187380D01*
X155368714Y-39187380D01*
X156130619Y-38187380D02*
X156797285Y-38187380D01*
X156368714Y-39187380D01*
X90219142Y-108188142D02*
X90171523Y-108235761D01*
X90028666Y-108283380D01*
X89933428Y-108283380D01*
X89790571Y-108235761D01*
X89695333Y-108140523D01*
X89647714Y-108045285D01*
X89600095Y-107854809D01*
X89600095Y-107711952D01*
X89647714Y-107521476D01*
X89695333Y-107426238D01*
X89790571Y-107331000D01*
X89933428Y-107283380D01*
X90028666Y-107283380D01*
X90171523Y-107331000D01*
X90219142Y-107378619D01*
X91171523Y-108283380D02*
X90600095Y-108283380D01*
X90885809Y-108283380D02*
X90885809Y-107283380D01*
X90790571Y-107426238D01*
X90695333Y-107521476D01*
X90600095Y-107569095D01*
X91552476Y-107378619D02*
X91600095Y-107331000D01*
X91695333Y-107283380D01*
X91933428Y-107283380D01*
X92028666Y-107331000D01*
X92076285Y-107378619D01*
X92123904Y-107473857D01*
X92123904Y-107569095D01*
X92076285Y-107711952D01*
X91504857Y-108283380D01*
X92123904Y-108283380D01*
X89536380Y-106476190D02*
X89536380Y-107047619D01*
X89536380Y-106761904D02*
X88536380Y-106761904D01*
X88679238Y-106857142D01*
X88774476Y-106952380D01*
X88822095Y-107047619D01*
X88536380Y-105857142D02*
X88536380Y-105761904D01*
X88584000Y-105666666D01*
X88631619Y-105619047D01*
X88726857Y-105571428D01*
X88917333Y-105523809D01*
X89155428Y-105523809D01*
X89345904Y-105571428D01*
X89441142Y-105619047D01*
X89488761Y-105666666D01*
X89536380Y-105761904D01*
X89536380Y-105857142D01*
X89488761Y-105952380D01*
X89441142Y-106000000D01*
X89345904Y-106047619D01*
X89155428Y-106095238D01*
X88917333Y-106095238D01*
X88726857Y-106047619D01*
X88631619Y-106000000D01*
X88584000Y-105952380D01*
X88536380Y-105857142D01*
X88536380Y-104904761D02*
X88536380Y-104809523D01*
X88584000Y-104714285D01*
X88631619Y-104666666D01*
X88726857Y-104619047D01*
X88917333Y-104571428D01*
X89155428Y-104571428D01*
X89345904Y-104619047D01*
X89441142Y-104666666D01*
X89488761Y-104714285D01*
X89536380Y-104809523D01*
X89536380Y-104904761D01*
X89488761Y-105000000D01*
X89441142Y-105047619D01*
X89345904Y-105095238D01*
X89155428Y-105142857D01*
X88917333Y-105142857D01*
X88726857Y-105095238D01*
X88631619Y-105047619D01*
X88584000Y-105000000D01*
X88536380Y-104904761D01*
X88869714Y-103714285D02*
X89536380Y-103714285D01*
X88869714Y-104142857D02*
X89393523Y-104142857D01*
X89488761Y-104095238D01*
X89536380Y-104000000D01*
X89536380Y-103857142D01*
X89488761Y-103761904D01*
X89441142Y-103714285D01*
X88488761Y-102523809D02*
X89774476Y-103380952D01*
X89536380Y-101666666D02*
X89536380Y-102238095D01*
X89536380Y-101952380D02*
X88536380Y-101952380D01*
X88679238Y-102047619D01*
X88774476Y-102142857D01*
X88822095Y-102238095D01*
X88536380Y-100809523D02*
X88536380Y-101000000D01*
X88584000Y-101095238D01*
X88631619Y-101142857D01*
X88774476Y-101238095D01*
X88964952Y-101285714D01*
X89345904Y-101285714D01*
X89441142Y-101238095D01*
X89488761Y-101190476D01*
X89536380Y-101095238D01*
X89536380Y-100904761D01*
X89488761Y-100809523D01*
X89441142Y-100761904D01*
X89345904Y-100714285D01*
X89107809Y-100714285D01*
X89012571Y-100761904D01*
X88964952Y-100809523D01*
X88917333Y-100904761D01*
X88917333Y-101095238D01*
X88964952Y-101190476D01*
X89012571Y-101238095D01*
X89107809Y-101285714D01*
X88869714Y-100380952D02*
X89536380Y-100142857D01*
X88869714Y-99904761D01*
X80817142Y-108175142D02*
X80769523Y-108222761D01*
X80626666Y-108270380D01*
X80531428Y-108270380D01*
X80388571Y-108222761D01*
X80293333Y-108127523D01*
X80245714Y-108032285D01*
X80198095Y-107841809D01*
X80198095Y-107698952D01*
X80245714Y-107508476D01*
X80293333Y-107413238D01*
X80388571Y-107318000D01*
X80531428Y-107270380D01*
X80626666Y-107270380D01*
X80769523Y-107318000D01*
X80817142Y-107365619D01*
X81769523Y-108270380D02*
X81198095Y-108270380D01*
X81483809Y-108270380D02*
X81483809Y-107270380D01*
X81388571Y-107413238D01*
X81293333Y-107508476D01*
X81198095Y-107556095D01*
X82674285Y-107270380D02*
X82198095Y-107270380D01*
X82150476Y-107746571D01*
X82198095Y-107698952D01*
X82293333Y-107651333D01*
X82531428Y-107651333D01*
X82626666Y-107698952D01*
X82674285Y-107746571D01*
X82721904Y-107841809D01*
X82721904Y-108079904D01*
X82674285Y-108175142D01*
X82626666Y-108222761D01*
X82531428Y-108270380D01*
X82293333Y-108270380D01*
X82198095Y-108222761D01*
X82150476Y-108175142D01*
X80102380Y-106476190D02*
X80102380Y-107047619D01*
X80102380Y-106761904D02*
X79102380Y-106761904D01*
X79245238Y-106857142D01*
X79340476Y-106952380D01*
X79388095Y-107047619D01*
X79102380Y-105857142D02*
X79102380Y-105761904D01*
X79150000Y-105666666D01*
X79197619Y-105619047D01*
X79292857Y-105571428D01*
X79483333Y-105523809D01*
X79721428Y-105523809D01*
X79911904Y-105571428D01*
X80007142Y-105619047D01*
X80054761Y-105666666D01*
X80102380Y-105761904D01*
X80102380Y-105857142D01*
X80054761Y-105952380D01*
X80007142Y-106000000D01*
X79911904Y-106047619D01*
X79721428Y-106095238D01*
X79483333Y-106095238D01*
X79292857Y-106047619D01*
X79197619Y-106000000D01*
X79150000Y-105952380D01*
X79102380Y-105857142D01*
X79102380Y-104904761D02*
X79102380Y-104809523D01*
X79150000Y-104714285D01*
X79197619Y-104666666D01*
X79292857Y-104619047D01*
X79483333Y-104571428D01*
X79721428Y-104571428D01*
X79911904Y-104619047D01*
X80007142Y-104666666D01*
X80054761Y-104714285D01*
X80102380Y-104809523D01*
X80102380Y-104904761D01*
X80054761Y-105000000D01*
X80007142Y-105047619D01*
X79911904Y-105095238D01*
X79721428Y-105142857D01*
X79483333Y-105142857D01*
X79292857Y-105095238D01*
X79197619Y-105047619D01*
X79150000Y-105000000D01*
X79102380Y-104904761D01*
X79435714Y-103714285D02*
X80102380Y-103714285D01*
X79435714Y-104142857D02*
X79959523Y-104142857D01*
X80054761Y-104095238D01*
X80102380Y-104000000D01*
X80102380Y-103857142D01*
X80054761Y-103761904D01*
X80007142Y-103714285D01*
X79054761Y-102523809D02*
X80340476Y-103380952D01*
X80102380Y-101666666D02*
X80102380Y-102238095D01*
X80102380Y-101952380D02*
X79102380Y-101952380D01*
X79245238Y-102047619D01*
X79340476Y-102142857D01*
X79388095Y-102238095D01*
X79102380Y-100809523D02*
X79102380Y-101000000D01*
X79150000Y-101095238D01*
X79197619Y-101142857D01*
X79340476Y-101238095D01*
X79530952Y-101285714D01*
X79911904Y-101285714D01*
X80007142Y-101238095D01*
X80054761Y-101190476D01*
X80102380Y-101095238D01*
X80102380Y-100904761D01*
X80054761Y-100809523D01*
X80007142Y-100761904D01*
X79911904Y-100714285D01*
X79673809Y-100714285D01*
X79578571Y-100761904D01*
X79530952Y-100809523D01*
X79483333Y-100904761D01*
X79483333Y-101095238D01*
X79530952Y-101190476D01*
X79578571Y-101238095D01*
X79673809Y-101285714D01*
X79435714Y-100380952D02*
X80102380Y-100142857D01*
X79435714Y-99904761D01*
X157924666Y-26947761D02*
X158067523Y-26995380D01*
X158305619Y-26995380D01*
X158400857Y-26947761D01*
X158448476Y-26900142D01*
X158496095Y-26804904D01*
X158496095Y-26709666D01*
X158448476Y-26614428D01*
X158400857Y-26566809D01*
X158305619Y-26519190D01*
X158115142Y-26471571D01*
X158019904Y-26423952D01*
X157972285Y-26376333D01*
X157924666Y-26281095D01*
X157924666Y-26185857D01*
X157972285Y-26090619D01*
X158019904Y-26043000D01*
X158115142Y-25995380D01*
X158353238Y-25995380D01*
X158496095Y-26043000D01*
X158829428Y-25995380D02*
X159067523Y-26995380D01*
X159258000Y-26281095D01*
X159448476Y-26995380D01*
X159686571Y-25995380D01*
X160543714Y-25995380D02*
X160067523Y-25995380D01*
X160019904Y-26471571D01*
X160067523Y-26423952D01*
X160162761Y-26376333D01*
X160400857Y-26376333D01*
X160496095Y-26423952D01*
X160543714Y-26471571D01*
X160591333Y-26566809D01*
X160591333Y-26804904D01*
X160543714Y-26900142D01*
X160496095Y-26947761D01*
X160400857Y-26995380D01*
X160162761Y-26995380D01*
X160067523Y-26947761D01*
X160019904Y-26900142D01*
X156122666Y-36464666D02*
X156122666Y-35988476D01*
X156408380Y-36559904D02*
X155408380Y-36226571D01*
X156408380Y-35893238D01*
X155884571Y-35226571D02*
X155932190Y-35083714D01*
X155979809Y-35036095D01*
X156075047Y-34988476D01*
X156217904Y-34988476D01*
X156313142Y-35036095D01*
X156360761Y-35083714D01*
X156408380Y-35178952D01*
X156408380Y-35559904D01*
X155408380Y-35559904D01*
X155408380Y-35226571D01*
X155456000Y-35131333D01*
X155503619Y-35083714D01*
X155598857Y-35036095D01*
X155694095Y-35036095D01*
X155789333Y-35083714D01*
X155836952Y-35131333D01*
X155884571Y-35226571D01*
X155884571Y-35559904D01*
X155884571Y-34226571D02*
X155932190Y-34083714D01*
X155979809Y-34036095D01*
X156075047Y-33988476D01*
X156217904Y-33988476D01*
X156313142Y-34036095D01*
X156360761Y-34083714D01*
X156408380Y-34178952D01*
X156408380Y-34559904D01*
X155408380Y-34559904D01*
X155408380Y-34226571D01*
X155456000Y-34131333D01*
X155503619Y-34083714D01*
X155598857Y-34036095D01*
X155694095Y-34036095D01*
X155789333Y-34083714D01*
X155836952Y-34131333D01*
X155884571Y-34226571D01*
X155884571Y-34559904D01*
X156122666Y-33607523D02*
X156122666Y-33131333D01*
X156408380Y-33702761D02*
X155408380Y-33369428D01*
X156408380Y-33036095D01*
X124658380Y-61428190D02*
X123658380Y-61428190D01*
X124563142Y-60380571D02*
X124610761Y-60428190D01*
X124658380Y-60571047D01*
X124658380Y-60666285D01*
X124610761Y-60809142D01*
X124515523Y-60904380D01*
X124420285Y-60952000D01*
X124229809Y-60999619D01*
X124086952Y-60999619D01*
X123896476Y-60952000D01*
X123801238Y-60904380D01*
X123706000Y-60809142D01*
X123658380Y-60666285D01*
X123658380Y-60571047D01*
X123706000Y-60428190D01*
X123753619Y-60380571D01*
X123753619Y-59999619D02*
X123706000Y-59952000D01*
X123658380Y-59856761D01*
X123658380Y-59618666D01*
X123706000Y-59523428D01*
X123753619Y-59475809D01*
X123848857Y-59428190D01*
X123944095Y-59428190D01*
X124086952Y-59475809D01*
X124658380Y-60047238D01*
X124658380Y-59428190D01*
X149773095Y-56856380D02*
X150011190Y-57856380D01*
X150201666Y-57142095D01*
X150392142Y-57856380D01*
X150630238Y-56856380D01*
X150963571Y-56951619D02*
X151011190Y-56904000D01*
X151106428Y-56856380D01*
X151344523Y-56856380D01*
X151439761Y-56904000D01*
X151487380Y-56951619D01*
X151535000Y-57046857D01*
X151535000Y-57142095D01*
X151487380Y-57284952D01*
X150915952Y-57856380D01*
X151535000Y-57856380D01*
X151868333Y-56856380D02*
X152535000Y-56856380D01*
X152106428Y-57856380D01*
X152915952Y-57332571D02*
X153249285Y-57332571D01*
X153392142Y-57856380D02*
X152915952Y-57856380D01*
X152915952Y-56856380D01*
X153392142Y-56856380D01*
X153773095Y-56951619D02*
X153820714Y-56904000D01*
X153915952Y-56856380D01*
X154154047Y-56856380D01*
X154249285Y-56904000D01*
X154296904Y-56951619D01*
X154344523Y-57046857D01*
X154344523Y-57142095D01*
X154296904Y-57284952D01*
X153725476Y-57856380D01*
X154344523Y-57856380D01*
X155249285Y-56856380D02*
X154773095Y-56856380D01*
X154725476Y-57332571D01*
X154773095Y-57284952D01*
X154868333Y-57237333D01*
X155106428Y-57237333D01*
X155201666Y-57284952D01*
X155249285Y-57332571D01*
X155296904Y-57427809D01*
X155296904Y-57665904D01*
X155249285Y-57761142D01*
X155201666Y-57808761D01*
X155106428Y-57856380D01*
X154868333Y-57856380D01*
X154773095Y-57808761D01*
X154725476Y-57761142D01*
X155630238Y-56856380D02*
X156296904Y-56856380D01*
X155868333Y-57856380D01*
X156734190Y-97750380D02*
X157400857Y-97750380D01*
X156734190Y-98750380D01*
X157400857Y-98750380D01*
X157686571Y-97750380D02*
X158353238Y-98750380D01*
X158353238Y-97750380D02*
X157686571Y-98750380D01*
X158496095Y-98845619D02*
X159258000Y-98845619D01*
X159448476Y-98702761D02*
X159591333Y-98750380D01*
X159829428Y-98750380D01*
X159924666Y-98702761D01*
X159972285Y-98655142D01*
X160019904Y-98559904D01*
X160019904Y-98464666D01*
X159972285Y-98369428D01*
X159924666Y-98321809D01*
X159829428Y-98274190D01*
X159638952Y-98226571D01*
X159543714Y-98178952D01*
X159496095Y-98131333D01*
X159448476Y-98036095D01*
X159448476Y-97940857D01*
X159496095Y-97845619D01*
X159543714Y-97798000D01*
X159638952Y-97750380D01*
X159877047Y-97750380D01*
X160019904Y-97798000D01*
X160448476Y-98226571D02*
X160781809Y-98226571D01*
X160924666Y-98750380D02*
X160448476Y-98750380D01*
X160448476Y-97750380D01*
X160924666Y-97750380D01*
X161829428Y-98750380D02*
X161353238Y-98750380D01*
X161353238Y-97750380D01*
X116197142Y-71064380D02*
X115863809Y-70588190D01*
X115625714Y-71064380D02*
X115625714Y-70064380D01*
X116006666Y-70064380D01*
X116101904Y-70112000D01*
X116149523Y-70159619D01*
X116197142Y-70254857D01*
X116197142Y-70397714D01*
X116149523Y-70492952D01*
X116101904Y-70540571D01*
X116006666Y-70588190D01*
X115625714Y-70588190D01*
X117149523Y-71064380D02*
X116578095Y-71064380D01*
X116863809Y-71064380D02*
X116863809Y-70064380D01*
X116768571Y-70207238D01*
X116673333Y-70302476D01*
X116578095Y-70350095D01*
X118101904Y-71064380D02*
X117530476Y-71064380D01*
X117816190Y-71064380D02*
X117816190Y-70064380D01*
X117720952Y-70207238D01*
X117625714Y-70302476D01*
X117530476Y-70350095D01*
X117292380Y-65460476D02*
X117292380Y-66031904D01*
X117292380Y-65746190D02*
X116292380Y-65746190D01*
X116435238Y-65841428D01*
X116530476Y-65936666D01*
X116578095Y-66031904D01*
X116292380Y-64841428D02*
X116292380Y-64746190D01*
X116340000Y-64650952D01*
X116387619Y-64603333D01*
X116482857Y-64555714D01*
X116673333Y-64508095D01*
X116911428Y-64508095D01*
X117101904Y-64555714D01*
X117197142Y-64603333D01*
X117244761Y-64650952D01*
X117292380Y-64746190D01*
X117292380Y-64841428D01*
X117244761Y-64936666D01*
X117197142Y-64984285D01*
X117101904Y-65031904D01*
X116911428Y-65079523D01*
X116673333Y-65079523D01*
X116482857Y-65031904D01*
X116387619Y-64984285D01*
X116340000Y-64936666D01*
X116292380Y-64841428D01*
X117292380Y-64079523D02*
X116292380Y-64079523D01*
X117292380Y-63508095D02*
X116720952Y-63936666D01*
X116292380Y-63508095D02*
X116863809Y-64079523D01*
X67512380Y-50117333D02*
X68226666Y-50117333D01*
X68369523Y-50164952D01*
X68464761Y-50260190D01*
X68512380Y-50403047D01*
X68512380Y-50498285D01*
X67845714Y-49212571D02*
X68512380Y-49212571D01*
X67464761Y-49450666D02*
X68179047Y-49688761D01*
X68179047Y-49069714D01*
X78811380Y-41536476D02*
X77811380Y-41536476D01*
X78811380Y-40965047D02*
X78239952Y-41393619D01*
X77811380Y-40965047D02*
X78382809Y-41536476D01*
X78287571Y-40536476D02*
X78287571Y-40203142D01*
X78811380Y-40060285D02*
X78811380Y-40536476D01*
X77811380Y-40536476D01*
X77811380Y-40060285D01*
X78811380Y-39631714D02*
X77811380Y-39631714D01*
X78525666Y-39298380D01*
X77811380Y-38965047D01*
X78811380Y-38965047D01*
X78811380Y-38488857D02*
X77811380Y-38488857D01*
X77811380Y-38107904D01*
X77859000Y-38012666D01*
X77906619Y-37965047D01*
X78001857Y-37917428D01*
X78144714Y-37917428D01*
X78239952Y-37965047D01*
X78287571Y-38012666D01*
X78335190Y-38107904D01*
X78335190Y-38488857D01*
X78763761Y-37536476D02*
X78811380Y-37393619D01*
X78811380Y-37155523D01*
X78763761Y-37060285D01*
X78716142Y-37012666D01*
X78620904Y-36965047D01*
X78525666Y-36965047D01*
X78430428Y-37012666D01*
X78382809Y-37060285D01*
X78335190Y-37155523D01*
X78287571Y-37346000D01*
X78239952Y-37441238D01*
X78192333Y-37488857D01*
X78097095Y-37536476D01*
X78001857Y-37536476D01*
X77906619Y-37488857D01*
X77859000Y-37441238D01*
X77811380Y-37346000D01*
X77811380Y-37107904D01*
X77859000Y-36965047D01*
X77811380Y-36679333D02*
X77811380Y-36107904D01*
X78811380Y-36393619D02*
X77811380Y-36393619D01*
X77811380Y-35584095D02*
X77811380Y-35393619D01*
X77859000Y-35298380D01*
X77954238Y-35203142D01*
X78144714Y-35155523D01*
X78478047Y-35155523D01*
X78668523Y-35203142D01*
X78763761Y-35298380D01*
X78811380Y-35393619D01*
X78811380Y-35584095D01*
X78763761Y-35679333D01*
X78668523Y-35774571D01*
X78478047Y-35822190D01*
X78144714Y-35822190D01*
X77954238Y-35774571D01*
X77859000Y-35679333D01*
X77811380Y-35584095D01*
X78811380Y-34726952D02*
X77811380Y-34726952D01*
X78811380Y-34155523D01*
X77811380Y-34155523D01*
X68262666Y-69412761D02*
X68405523Y-69460380D01*
X68643619Y-69460380D01*
X68738857Y-69412761D01*
X68786476Y-69365142D01*
X68834095Y-69269904D01*
X68834095Y-69174666D01*
X68786476Y-69079428D01*
X68738857Y-69031809D01*
X68643619Y-68984190D01*
X68453142Y-68936571D01*
X68357904Y-68888952D01*
X68310285Y-68841333D01*
X68262666Y-68746095D01*
X68262666Y-68650857D01*
X68310285Y-68555619D01*
X68357904Y-68508000D01*
X68453142Y-68460380D01*
X68691238Y-68460380D01*
X68834095Y-68508000D01*
X69167428Y-68460380D02*
X69405523Y-69460380D01*
X69596000Y-68746095D01*
X69786476Y-69460380D01*
X70024571Y-68460380D01*
X70310285Y-68460380D02*
X70929333Y-68460380D01*
X70596000Y-68841333D01*
X70738857Y-68841333D01*
X70834095Y-68888952D01*
X70881714Y-68936571D01*
X70929333Y-69031809D01*
X70929333Y-69269904D01*
X70881714Y-69365142D01*
X70834095Y-69412761D01*
X70738857Y-69460380D01*
X70453142Y-69460380D01*
X70357904Y-69412761D01*
X70310285Y-69365142D01*
X144851380Y-34837666D02*
X144375190Y-35171000D01*
X144851380Y-35409095D02*
X143851380Y-35409095D01*
X143851380Y-35028142D01*
X143899000Y-34932904D01*
X143946619Y-34885285D01*
X144041857Y-34837666D01*
X144184714Y-34837666D01*
X144279952Y-34885285D01*
X144327571Y-34932904D01*
X144375190Y-35028142D01*
X144375190Y-35409095D01*
X143851380Y-34504333D02*
X143851380Y-33885285D01*
X144232333Y-34218619D01*
X144232333Y-34075761D01*
X144279952Y-33980523D01*
X144327571Y-33932904D01*
X144422809Y-33885285D01*
X144660904Y-33885285D01*
X144756142Y-33932904D01*
X144803761Y-33980523D01*
X144851380Y-34075761D01*
X144851380Y-34361476D01*
X144803761Y-34456714D01*
X144756142Y-34504333D01*
X147709095Y-34329714D02*
X147709095Y-34996380D01*
X147471000Y-33948761D02*
X147232904Y-34663047D01*
X147851952Y-34663047D01*
X148137666Y-33996380D02*
X148804333Y-33996380D01*
X148375761Y-34996380D01*
X149375761Y-33996380D02*
X149471000Y-33996380D01*
X149566238Y-34044000D01*
X149613857Y-34091619D01*
X149661476Y-34186857D01*
X149709095Y-34377333D01*
X149709095Y-34615428D01*
X149661476Y-34805904D01*
X149613857Y-34901142D01*
X149566238Y-34948761D01*
X149471000Y-34996380D01*
X149375761Y-34996380D01*
X149280523Y-34948761D01*
X149232904Y-34901142D01*
X149185285Y-34805904D01*
X149137666Y-34615428D01*
X149137666Y-34377333D01*
X149185285Y-34186857D01*
X149232904Y-34091619D01*
X149280523Y-34044000D01*
X149375761Y-33996380D01*
X150709095Y-34996380D02*
X150375761Y-34520190D01*
X150137666Y-34996380D02*
X150137666Y-33996380D01*
X150518619Y-33996380D01*
X150613857Y-34044000D01*
X150661476Y-34091619D01*
X150709095Y-34186857D01*
X150709095Y-34329714D01*
X150661476Y-34424952D01*
X150613857Y-34472571D01*
X150518619Y-34520190D01*
X150137666Y-34520190D01*
X114593809Y-98242380D02*
X114593809Y-97242380D01*
X115641428Y-98147142D02*
X115593809Y-98194761D01*
X115450952Y-98242380D01*
X115355714Y-98242380D01*
X115212857Y-98194761D01*
X115117619Y-98099523D01*
X115070000Y-98004285D01*
X115022380Y-97813809D01*
X115022380Y-97670952D01*
X115070000Y-97480476D01*
X115117619Y-97385238D01*
X115212857Y-97290000D01*
X115355714Y-97242380D01*
X115450952Y-97242380D01*
X115593809Y-97290000D01*
X115641428Y-97337619D01*
X116117619Y-98242380D02*
X116308095Y-98242380D01*
X116403333Y-98194761D01*
X116450952Y-98147142D01*
X116546190Y-98004285D01*
X116593809Y-97813809D01*
X116593809Y-97432857D01*
X116546190Y-97337619D01*
X116498571Y-97290000D01*
X116403333Y-97242380D01*
X116212857Y-97242380D01*
X116117619Y-97290000D01*
X116070000Y-97337619D01*
X116022380Y-97432857D01*
X116022380Y-97670952D01*
X116070000Y-97766190D01*
X116117619Y-97813809D01*
X116212857Y-97861428D01*
X116403333Y-97861428D01*
X116498571Y-97813809D01*
X116546190Y-97766190D01*
X116593809Y-97670952D01*
X123533142Y-91142380D02*
X124199809Y-91142380D01*
X123771238Y-92142380D01*
X125009333Y-91475714D02*
X125009333Y-92142380D01*
X124771238Y-91094761D02*
X124533142Y-91809047D01*
X125152190Y-91809047D01*
X126009333Y-92142380D02*
X125533142Y-92142380D01*
X125533142Y-91142380D01*
X126295047Y-92094761D02*
X126437904Y-92142380D01*
X126676000Y-92142380D01*
X126771238Y-92094761D01*
X126818857Y-92047142D01*
X126866476Y-91951904D01*
X126866476Y-91856666D01*
X126818857Y-91761428D01*
X126771238Y-91713809D01*
X126676000Y-91666190D01*
X126485523Y-91618571D01*
X126390285Y-91570952D01*
X126342666Y-91523333D01*
X126295047Y-91428095D01*
X126295047Y-91332857D01*
X126342666Y-91237619D01*
X126390285Y-91190000D01*
X126485523Y-91142380D01*
X126723619Y-91142380D01*
X126866476Y-91190000D01*
X127485523Y-91142380D02*
X127580761Y-91142380D01*
X127676000Y-91190000D01*
X127723619Y-91237619D01*
X127771238Y-91332857D01*
X127818857Y-91523333D01*
X127818857Y-91761428D01*
X127771238Y-91951904D01*
X127723619Y-92047142D01*
X127676000Y-92094761D01*
X127580761Y-92142380D01*
X127485523Y-92142380D01*
X127390285Y-92094761D01*
X127342666Y-92047142D01*
X127295047Y-91951904D01*
X127247428Y-91761428D01*
X127247428Y-91523333D01*
X127295047Y-91332857D01*
X127342666Y-91237619D01*
X127390285Y-91190000D01*
X127485523Y-91142380D01*
X128437904Y-91142380D02*
X128533142Y-91142380D01*
X128628380Y-91190000D01*
X128676000Y-91237619D01*
X128723619Y-91332857D01*
X128771238Y-91523333D01*
X128771238Y-91761428D01*
X128723619Y-91951904D01*
X128676000Y-92047142D01*
X128628380Y-92094761D01*
X128533142Y-92142380D01*
X128437904Y-92142380D01*
X128342666Y-92094761D01*
X128295047Y-92047142D01*
X128247428Y-91951904D01*
X128199809Y-91761428D01*
X128199809Y-91523333D01*
X128247428Y-91332857D01*
X128295047Y-91237619D01*
X128342666Y-91190000D01*
X128437904Y-91142380D01*
X76271619Y-86685380D02*
X76271619Y-85685380D01*
X77319238Y-86590142D02*
X77271619Y-86637761D01*
X77128761Y-86685380D01*
X77033523Y-86685380D01*
X76890666Y-86637761D01*
X76795428Y-86542523D01*
X76747809Y-86447285D01*
X76700190Y-86256809D01*
X76700190Y-86113952D01*
X76747809Y-85923476D01*
X76795428Y-85828238D01*
X76890666Y-85733000D01*
X77033523Y-85685380D01*
X77128761Y-85685380D01*
X77271619Y-85733000D01*
X77319238Y-85780619D01*
X78271619Y-86685380D02*
X77700190Y-86685380D01*
X77985904Y-86685380D02*
X77985904Y-85685380D01*
X77890666Y-85828238D01*
X77795428Y-85923476D01*
X77700190Y-85971095D01*
X79224000Y-86685380D02*
X78652571Y-86685380D01*
X78938285Y-86685380D02*
X78938285Y-85685380D01*
X78843047Y-85828238D01*
X78747809Y-85923476D01*
X78652571Y-85971095D01*
X95229238Y-91810000D02*
X95134000Y-91762380D01*
X94991142Y-91762380D01*
X94848285Y-91810000D01*
X94753047Y-91905238D01*
X94705428Y-92000476D01*
X94657809Y-92190952D01*
X94657809Y-92333809D01*
X94705428Y-92524285D01*
X94753047Y-92619523D01*
X94848285Y-92714761D01*
X94991142Y-92762380D01*
X95086380Y-92762380D01*
X95229238Y-92714761D01*
X95276857Y-92667142D01*
X95276857Y-92333809D01*
X95086380Y-92333809D01*
X95657809Y-92476666D02*
X96134000Y-92476666D01*
X95562571Y-92762380D02*
X95895904Y-91762380D01*
X96229238Y-92762380D01*
X97038761Y-92762380D02*
X96562571Y-92762380D01*
X96562571Y-91762380D01*
X97324476Y-91857619D02*
X97372095Y-91810000D01*
X97467333Y-91762380D01*
X97705428Y-91762380D01*
X97800666Y-91810000D01*
X97848285Y-91857619D01*
X97895904Y-91952857D01*
X97895904Y-92048095D01*
X97848285Y-92190952D01*
X97276857Y-92762380D01*
X97895904Y-92762380D01*
X98276857Y-91857619D02*
X98324476Y-91810000D01*
X98419714Y-91762380D01*
X98657809Y-91762380D01*
X98753047Y-91810000D01*
X98800666Y-91857619D01*
X98848285Y-91952857D01*
X98848285Y-92048095D01*
X98800666Y-92190952D01*
X98229238Y-92762380D01*
X98848285Y-92762380D01*
X99134000Y-91762380D02*
X99467333Y-92762380D01*
X99800666Y-91762380D01*
X100657809Y-92762380D02*
X100086380Y-92762380D01*
X100372095Y-92762380D02*
X100372095Y-91762380D01*
X100276857Y-91905238D01*
X100181619Y-92000476D01*
X100086380Y-92048095D01*
X101276857Y-91762380D02*
X101372095Y-91762380D01*
X101467333Y-91810000D01*
X101514952Y-91857619D01*
X101562571Y-91952857D01*
X101610190Y-92143333D01*
X101610190Y-92381428D01*
X101562571Y-92571904D01*
X101514952Y-92667142D01*
X101467333Y-92714761D01*
X101372095Y-92762380D01*
X101276857Y-92762380D01*
X101181619Y-92714761D01*
X101134000Y-92667142D01*
X101086380Y-92571904D01*
X101038761Y-92381428D01*
X101038761Y-92143333D01*
X101086380Y-91952857D01*
X101134000Y-91857619D01*
X101181619Y-91810000D01*
X101276857Y-91762380D01*
X95067380Y-35647190D02*
X94067380Y-35647190D01*
X94972142Y-34599571D02*
X95019761Y-34647190D01*
X95067380Y-34790047D01*
X95067380Y-34885285D01*
X95019761Y-35028142D01*
X94924523Y-35123380D01*
X94829285Y-35171000D01*
X94638809Y-35218619D01*
X94495952Y-35218619D01*
X94305476Y-35171000D01*
X94210238Y-35123380D01*
X94115000Y-35028142D01*
X94067380Y-34885285D01*
X94067380Y-34790047D01*
X94115000Y-34647190D01*
X94162619Y-34599571D01*
X94067380Y-33694809D02*
X94067380Y-34171000D01*
X94543571Y-34218619D01*
X94495952Y-34171000D01*
X94448333Y-34075761D01*
X94448333Y-33837666D01*
X94495952Y-33742428D01*
X94543571Y-33694809D01*
X94638809Y-33647190D01*
X94876904Y-33647190D01*
X94972142Y-33694809D01*
X95019761Y-33742428D01*
X95067380Y-33837666D01*
X95067380Y-34075761D01*
X95019761Y-34171000D01*
X94972142Y-34218619D01*
X100544380Y-42012857D02*
X100544380Y-41346190D01*
X101544380Y-41774761D01*
X100877714Y-40536666D02*
X101544380Y-40536666D01*
X100496761Y-40774761D02*
X101211047Y-41012857D01*
X101211047Y-40393809D01*
X101544380Y-39536666D02*
X101544380Y-40012857D01*
X100544380Y-40012857D01*
X101496761Y-39250952D02*
X101544380Y-39108095D01*
X101544380Y-38870000D01*
X101496761Y-38774761D01*
X101449142Y-38727142D01*
X101353904Y-38679523D01*
X101258666Y-38679523D01*
X101163428Y-38727142D01*
X101115809Y-38774761D01*
X101068190Y-38870000D01*
X101020571Y-39060476D01*
X100972952Y-39155714D01*
X100925333Y-39203333D01*
X100830095Y-39250952D01*
X100734857Y-39250952D01*
X100639619Y-39203333D01*
X100592000Y-39155714D01*
X100544380Y-39060476D01*
X100544380Y-38822380D01*
X100592000Y-38679523D01*
X100544380Y-38060476D02*
X100544380Y-37965238D01*
X100592000Y-37870000D01*
X100639619Y-37822380D01*
X100734857Y-37774761D01*
X100925333Y-37727142D01*
X101163428Y-37727142D01*
X101353904Y-37774761D01*
X101449142Y-37822380D01*
X101496761Y-37870000D01*
X101544380Y-37965238D01*
X101544380Y-38060476D01*
X101496761Y-38155714D01*
X101449142Y-38203333D01*
X101353904Y-38250952D01*
X101163428Y-38298571D01*
X100925333Y-38298571D01*
X100734857Y-38250952D01*
X100639619Y-38203333D01*
X100592000Y-38155714D01*
X100544380Y-38060476D01*
X100544380Y-36870000D02*
X100544380Y-37060476D01*
X100592000Y-37155714D01*
X100639619Y-37203333D01*
X100782476Y-37298571D01*
X100972952Y-37346190D01*
X101353904Y-37346190D01*
X101449142Y-37298571D01*
X101496761Y-37250952D01*
X101544380Y-37155714D01*
X101544380Y-36965238D01*
X101496761Y-36870000D01*
X101449142Y-36822380D01*
X101353904Y-36774761D01*
X101115809Y-36774761D01*
X101020571Y-36822380D01*
X100972952Y-36870000D01*
X100925333Y-36965238D01*
X100925333Y-37155714D01*
X100972952Y-37250952D01*
X101020571Y-37298571D01*
X101115809Y-37346190D01*
X72683809Y-102306380D02*
X72683809Y-101306380D01*
X73731428Y-102211142D02*
X73683809Y-102258761D01*
X73540952Y-102306380D01*
X73445714Y-102306380D01*
X73302857Y-102258761D01*
X73207619Y-102163523D01*
X73160000Y-102068285D01*
X73112380Y-101877809D01*
X73112380Y-101734952D01*
X73160000Y-101544476D01*
X73207619Y-101449238D01*
X73302857Y-101354000D01*
X73445714Y-101306380D01*
X73540952Y-101306380D01*
X73683809Y-101354000D01*
X73731428Y-101401619D01*
X74588571Y-101306380D02*
X74398095Y-101306380D01*
X74302857Y-101354000D01*
X74255238Y-101401619D01*
X74160000Y-101544476D01*
X74112380Y-101734952D01*
X74112380Y-102115904D01*
X74160000Y-102211142D01*
X74207619Y-102258761D01*
X74302857Y-102306380D01*
X74493333Y-102306380D01*
X74588571Y-102258761D01*
X74636190Y-102211142D01*
X74683809Y-102115904D01*
X74683809Y-101877809D01*
X74636190Y-101782571D01*
X74588571Y-101734952D01*
X74493333Y-101687333D01*
X74302857Y-101687333D01*
X74207619Y-101734952D01*
X74160000Y-101782571D01*
X74112380Y-101877809D01*
X70651619Y-91495952D02*
X70651619Y-92162619D01*
X69651619Y-91734047D01*
X70318285Y-92972142D02*
X69651619Y-92972142D01*
X70699238Y-92734047D02*
X69984952Y-92495952D01*
X69984952Y-93115000D01*
X69651619Y-93972142D02*
X69651619Y-93495952D01*
X70651619Y-93495952D01*
X69699238Y-94257857D02*
X69651619Y-94400714D01*
X69651619Y-94638809D01*
X69699238Y-94734047D01*
X69746857Y-94781666D01*
X69842095Y-94829285D01*
X69937333Y-94829285D01*
X70032571Y-94781666D01*
X70080190Y-94734047D01*
X70127809Y-94638809D01*
X70175428Y-94448333D01*
X70223047Y-94353095D01*
X70270666Y-94305476D01*
X70365904Y-94257857D01*
X70461142Y-94257857D01*
X70556380Y-94305476D01*
X70604000Y-94353095D01*
X70651619Y-94448333D01*
X70651619Y-94686428D01*
X70604000Y-94829285D01*
X69651619Y-95781666D02*
X69651619Y-95210238D01*
X69651619Y-95495952D02*
X70651619Y-95495952D01*
X70508761Y-95400714D01*
X70413523Y-95305476D01*
X70365904Y-95210238D01*
X70556380Y-96162619D02*
X70604000Y-96210238D01*
X70651619Y-96305476D01*
X70651619Y-96543571D01*
X70604000Y-96638809D01*
X70556380Y-96686428D01*
X70461142Y-96734047D01*
X70365904Y-96734047D01*
X70223047Y-96686428D01*
X69651619Y-96115000D01*
X69651619Y-96734047D01*
X70651619Y-97591190D02*
X70651619Y-97400714D01*
X70604000Y-97305476D01*
X70556380Y-97257857D01*
X70413523Y-97162619D01*
X70223047Y-97115000D01*
X69842095Y-97115000D01*
X69746857Y-97162619D01*
X69699238Y-97210238D01*
X69651619Y-97305476D01*
X69651619Y-97495952D01*
X69699238Y-97591190D01*
X69746857Y-97638809D01*
X69842095Y-97686428D01*
X70080190Y-97686428D01*
X70175428Y-97638809D01*
X70223047Y-97591190D01*
X70270666Y-97495952D01*
X70270666Y-97305476D01*
X70223047Y-97210238D01*
X70175428Y-97162619D01*
X70080190Y-97115000D01*
X121483380Y-34710666D02*
X121007190Y-35044000D01*
X121483380Y-35282095D02*
X120483380Y-35282095D01*
X120483380Y-34901142D01*
X120531000Y-34805904D01*
X120578619Y-34758285D01*
X120673857Y-34710666D01*
X120816714Y-34710666D01*
X120911952Y-34758285D01*
X120959571Y-34805904D01*
X121007190Y-34901142D01*
X121007190Y-35282095D01*
X120483380Y-33805904D02*
X120483380Y-34282095D01*
X120959571Y-34329714D01*
X120911952Y-34282095D01*
X120864333Y-34186857D01*
X120864333Y-33948761D01*
X120911952Y-33853523D01*
X120959571Y-33805904D01*
X121054809Y-33758285D01*
X121292904Y-33758285D01*
X121388142Y-33805904D01*
X121435761Y-33853523D01*
X121483380Y-33948761D01*
X121483380Y-34186857D01*
X121435761Y-34282095D01*
X121388142Y-34329714D01*
X125357095Y-34091619D02*
X125404714Y-34044000D01*
X125499952Y-33996380D01*
X125738047Y-33996380D01*
X125833285Y-34044000D01*
X125880904Y-34091619D01*
X125928523Y-34186857D01*
X125928523Y-34282095D01*
X125880904Y-34424952D01*
X125309476Y-34996380D01*
X125928523Y-34996380D01*
X126357095Y-34996380D02*
X126357095Y-33996380D01*
X126928523Y-34996380D02*
X126499952Y-34424952D01*
X126928523Y-33996380D02*
X126357095Y-34567809D01*
X127309476Y-34091619D02*
X127357095Y-34044000D01*
X127452333Y-33996380D01*
X127690428Y-33996380D01*
X127785666Y-34044000D01*
X127833285Y-34091619D01*
X127880904Y-34186857D01*
X127880904Y-34282095D01*
X127833285Y-34424952D01*
X127261857Y-34996380D01*
X127880904Y-34996380D01*
X136850619Y-98242380D02*
X136850619Y-97242380D01*
X137898238Y-98147142D02*
X137850619Y-98194761D01*
X137707761Y-98242380D01*
X137612523Y-98242380D01*
X137469666Y-98194761D01*
X137374428Y-98099523D01*
X137326809Y-98004285D01*
X137279190Y-97813809D01*
X137279190Y-97670952D01*
X137326809Y-97480476D01*
X137374428Y-97385238D01*
X137469666Y-97290000D01*
X137612523Y-97242380D01*
X137707761Y-97242380D01*
X137850619Y-97290000D01*
X137898238Y-97337619D01*
X138850619Y-98242380D02*
X138279190Y-98242380D01*
X138564904Y-98242380D02*
X138564904Y-97242380D01*
X138469666Y-97385238D01*
X138374428Y-97480476D01*
X138279190Y-97528095D01*
X139469666Y-97242380D02*
X139564904Y-97242380D01*
X139660142Y-97290000D01*
X139707761Y-97337619D01*
X139755380Y-97432857D01*
X139803000Y-97623333D01*
X139803000Y-97861428D01*
X139755380Y-98051904D01*
X139707761Y-98147142D01*
X139660142Y-98194761D01*
X139564904Y-98242380D01*
X139469666Y-98242380D01*
X139374428Y-98194761D01*
X139326809Y-98147142D01*
X139279190Y-98051904D01*
X139231571Y-97861428D01*
X139231571Y-97623333D01*
X139279190Y-97432857D01*
X139326809Y-97337619D01*
X139374428Y-97290000D01*
X139469666Y-97242380D01*
X145517142Y-91142380D02*
X146183809Y-91142380D01*
X145755238Y-92142380D01*
X146993333Y-91475714D02*
X146993333Y-92142380D01*
X146755238Y-91094761D02*
X146517142Y-91809047D01*
X147136190Y-91809047D01*
X147993333Y-92142380D02*
X147517142Y-92142380D01*
X147517142Y-91142380D01*
X148279047Y-92094761D02*
X148421904Y-92142380D01*
X148660000Y-92142380D01*
X148755238Y-92094761D01*
X148802857Y-92047142D01*
X148850476Y-91951904D01*
X148850476Y-91856666D01*
X148802857Y-91761428D01*
X148755238Y-91713809D01*
X148660000Y-91666190D01*
X148469523Y-91618571D01*
X148374285Y-91570952D01*
X148326666Y-91523333D01*
X148279047Y-91428095D01*
X148279047Y-91332857D01*
X148326666Y-91237619D01*
X148374285Y-91190000D01*
X148469523Y-91142380D01*
X148707619Y-91142380D01*
X148850476Y-91190000D01*
X149231428Y-91237619D02*
X149279047Y-91190000D01*
X149374285Y-91142380D01*
X149612380Y-91142380D01*
X149707619Y-91190000D01*
X149755238Y-91237619D01*
X149802857Y-91332857D01*
X149802857Y-91428095D01*
X149755238Y-91570952D01*
X149183809Y-92142380D01*
X149802857Y-92142380D01*
X150136190Y-91142380D02*
X150802857Y-91142380D01*
X150374285Y-92142380D01*
X95916666Y-75690761D02*
X96059523Y-75738380D01*
X96297619Y-75738380D01*
X96392857Y-75690761D01*
X96440476Y-75643142D01*
X96488095Y-75547904D01*
X96488095Y-75452666D01*
X96440476Y-75357428D01*
X96392857Y-75309809D01*
X96297619Y-75262190D01*
X96107142Y-75214571D01*
X96011904Y-75166952D01*
X95964285Y-75119333D01*
X95916666Y-75024095D01*
X95916666Y-74928857D01*
X95964285Y-74833619D01*
X96011904Y-74786000D01*
X96107142Y-74738380D01*
X96345238Y-74738380D01*
X96488095Y-74786000D01*
X96821428Y-74738380D02*
X97059523Y-75738380D01*
X97250000Y-75024095D01*
X97440476Y-75738380D01*
X97678571Y-74738380D01*
X98011904Y-74833619D02*
X98059523Y-74786000D01*
X98154761Y-74738380D01*
X98392857Y-74738380D01*
X98488095Y-74786000D01*
X98535714Y-74833619D01*
X98583333Y-74928857D01*
X98583333Y-75024095D01*
X98535714Y-75166952D01*
X97964285Y-75738380D01*
X98583333Y-75738380D01*
X96313761Y-80208380D02*
X96313761Y-79208380D01*
X96885190Y-80208380D01*
X96885190Y-79208380D01*
X97361380Y-80208380D02*
X97361380Y-79208380D01*
X97694714Y-79922666D01*
X98028047Y-79208380D01*
X98028047Y-80208380D01*
X98504238Y-80208380D02*
X98504238Y-79208380D01*
X79968666Y-75690761D02*
X80111523Y-75738380D01*
X80349619Y-75738380D01*
X80444857Y-75690761D01*
X80492476Y-75643142D01*
X80540095Y-75547904D01*
X80540095Y-75452666D01*
X80492476Y-75357428D01*
X80444857Y-75309809D01*
X80349619Y-75262190D01*
X80159142Y-75214571D01*
X80063904Y-75166952D01*
X80016285Y-75119333D01*
X79968666Y-75024095D01*
X79968666Y-74928857D01*
X80016285Y-74833619D01*
X80063904Y-74786000D01*
X80159142Y-74738380D01*
X80397238Y-74738380D01*
X80540095Y-74786000D01*
X80873428Y-74738380D02*
X81111523Y-75738380D01*
X81302000Y-75024095D01*
X81492476Y-75738380D01*
X81730571Y-74738380D01*
X82635333Y-75738380D02*
X82063904Y-75738380D01*
X82349619Y-75738380D02*
X82349619Y-74738380D01*
X82254380Y-74881238D01*
X82159142Y-74976476D01*
X82063904Y-75024095D01*
X79966619Y-80288380D02*
X79633285Y-79812190D01*
X79395190Y-80288380D02*
X79395190Y-79288380D01*
X79776142Y-79288380D01*
X79871380Y-79336000D01*
X79919000Y-79383619D01*
X79966619Y-79478857D01*
X79966619Y-79621714D01*
X79919000Y-79716952D01*
X79871380Y-79764571D01*
X79776142Y-79812190D01*
X79395190Y-79812190D01*
X80395190Y-79764571D02*
X80728523Y-79764571D01*
X80871380Y-80288380D02*
X80395190Y-80288380D01*
X80395190Y-79288380D01*
X80871380Y-79288380D01*
X81252333Y-80240761D02*
X81395190Y-80288380D01*
X81633285Y-80288380D01*
X81728523Y-80240761D01*
X81776142Y-80193142D01*
X81823761Y-80097904D01*
X81823761Y-80002666D01*
X81776142Y-79907428D01*
X81728523Y-79859809D01*
X81633285Y-79812190D01*
X81442809Y-79764571D01*
X81347571Y-79716952D01*
X81299952Y-79669333D01*
X81252333Y-79574095D01*
X81252333Y-79478857D01*
X81299952Y-79383619D01*
X81347571Y-79336000D01*
X81442809Y-79288380D01*
X81680904Y-79288380D01*
X81823761Y-79336000D01*
X82252333Y-79764571D02*
X82585666Y-79764571D01*
X82728523Y-80288380D02*
X82252333Y-80288380D01*
X82252333Y-79288380D01*
X82728523Y-79288380D01*
X83014238Y-79288380D02*
X83585666Y-79288380D01*
X83299952Y-80288380D02*
X83299952Y-79288380D01*
X110166380Y-46857190D02*
X109166380Y-46857190D01*
X110071142Y-45809571D02*
X110118761Y-45857190D01*
X110166380Y-46000047D01*
X110166380Y-46095285D01*
X110118761Y-46238142D01*
X110023523Y-46333380D01*
X109928285Y-46381000D01*
X109737809Y-46428619D01*
X109594952Y-46428619D01*
X109404476Y-46381000D01*
X109309238Y-46333380D01*
X109214000Y-46238142D01*
X109166380Y-46095285D01*
X109166380Y-46000047D01*
X109214000Y-45857190D01*
X109261619Y-45809571D01*
X109166380Y-45476238D02*
X109166380Y-44809571D01*
X110166380Y-45238142D01*
X126152952Y-41142380D02*
X126819619Y-41142380D01*
X126391047Y-42142380D01*
X127629142Y-41475714D02*
X127629142Y-42142380D01*
X127391047Y-41094761D02*
X127152952Y-41809047D01*
X127772000Y-41809047D01*
X128629142Y-42142380D02*
X128152952Y-42142380D01*
X128152952Y-41142380D01*
X128914857Y-42094761D02*
X129057714Y-42142380D01*
X129295809Y-42142380D01*
X129391047Y-42094761D01*
X129438666Y-42047142D01*
X129486285Y-41951904D01*
X129486285Y-41856666D01*
X129438666Y-41761428D01*
X129391047Y-41713809D01*
X129295809Y-41666190D01*
X129105333Y-41618571D01*
X129010095Y-41570952D01*
X128962476Y-41523333D01*
X128914857Y-41428095D01*
X128914857Y-41332857D01*
X128962476Y-41237619D01*
X129010095Y-41190000D01*
X129105333Y-41142380D01*
X129343428Y-41142380D01*
X129486285Y-41190000D01*
X129819619Y-41142380D02*
X130438666Y-41142380D01*
X130105333Y-41523333D01*
X130248190Y-41523333D01*
X130343428Y-41570952D01*
X130391047Y-41618571D01*
X130438666Y-41713809D01*
X130438666Y-41951904D01*
X130391047Y-42047142D01*
X130343428Y-42094761D01*
X130248190Y-42142380D01*
X129962476Y-42142380D01*
X129867238Y-42094761D01*
X129819619Y-42047142D01*
X130772000Y-41142380D02*
X131438666Y-41142380D01*
X131010095Y-42142380D01*
X132248190Y-41475714D02*
X132248190Y-42142380D01*
X132010095Y-41094761D02*
X131772000Y-41809047D01*
X132391047Y-41809047D01*
X102179380Y-85431190D02*
X101179380Y-85431190D01*
X102084142Y-84383571D02*
X102131761Y-84431190D01*
X102179380Y-84574047D01*
X102179380Y-84669285D01*
X102131761Y-84812142D01*
X102036523Y-84907380D01*
X101941285Y-84955000D01*
X101750809Y-85002619D01*
X101607952Y-85002619D01*
X101417476Y-84955000D01*
X101322238Y-84907380D01*
X101227000Y-84812142D01*
X101179380Y-84669285D01*
X101179380Y-84574047D01*
X101227000Y-84431190D01*
X101274619Y-84383571D01*
X101607952Y-83812142D02*
X101560333Y-83907380D01*
X101512714Y-83955000D01*
X101417476Y-84002619D01*
X101369857Y-84002619D01*
X101274619Y-83955000D01*
X101227000Y-83907380D01*
X101179380Y-83812142D01*
X101179380Y-83621666D01*
X101227000Y-83526428D01*
X101274619Y-83478809D01*
X101369857Y-83431190D01*
X101417476Y-83431190D01*
X101512714Y-83478809D01*
X101560333Y-83526428D01*
X101607952Y-83621666D01*
X101607952Y-83812142D01*
X101655571Y-83907380D01*
X101703190Y-83955000D01*
X101798428Y-84002619D01*
X101988904Y-84002619D01*
X102084142Y-83955000D01*
X102131761Y-83907380D01*
X102179380Y-83812142D01*
X102179380Y-83621666D01*
X102131761Y-83526428D01*
X102084142Y-83478809D01*
X101988904Y-83431190D01*
X101798428Y-83431190D01*
X101703190Y-83478809D01*
X101655571Y-83526428D01*
X101607952Y-83621666D01*
X113326952Y-79642380D02*
X113993619Y-79642380D01*
X113565047Y-80642380D01*
X114803142Y-79975714D02*
X114803142Y-80642380D01*
X114565047Y-79594761D02*
X114326952Y-80309047D01*
X114946000Y-80309047D01*
X115803142Y-80642380D02*
X115326952Y-80642380D01*
X115326952Y-79642380D01*
X116088857Y-80594761D02*
X116231714Y-80642380D01*
X116469809Y-80642380D01*
X116565047Y-80594761D01*
X116612666Y-80547142D01*
X116660285Y-80451904D01*
X116660285Y-80356666D01*
X116612666Y-80261428D01*
X116565047Y-80213809D01*
X116469809Y-80166190D01*
X116279333Y-80118571D01*
X116184095Y-80070952D01*
X116136476Y-80023333D01*
X116088857Y-79928095D01*
X116088857Y-79832857D01*
X116136476Y-79737619D01*
X116184095Y-79690000D01*
X116279333Y-79642380D01*
X116517428Y-79642380D01*
X116660285Y-79690000D01*
X117612666Y-80642380D02*
X117041238Y-80642380D01*
X117326952Y-80642380D02*
X117326952Y-79642380D01*
X117231714Y-79785238D01*
X117136476Y-79880476D01*
X117041238Y-79928095D01*
X117946000Y-79642380D02*
X118612666Y-79642380D01*
X118184095Y-80642380D01*
X119469809Y-79642380D02*
X118993619Y-79642380D01*
X118946000Y-80118571D01*
X118993619Y-80070952D01*
X119088857Y-80023333D01*
X119326952Y-80023333D01*
X119422190Y-80070952D01*
X119469809Y-80118571D01*
X119517428Y-80213809D01*
X119517428Y-80451904D01*
X119469809Y-80547142D01*
X119422190Y-80594761D01*
X119326952Y-80642380D01*
X119088857Y-80642380D01*
X118993619Y-80594761D01*
X118946000Y-80547142D01*
X122721809Y-110688380D02*
X122721809Y-109688380D01*
X123769428Y-110593142D02*
X123721809Y-110640761D01*
X123578952Y-110688380D01*
X123483714Y-110688380D01*
X123340857Y-110640761D01*
X123245619Y-110545523D01*
X123198000Y-110450285D01*
X123150380Y-110259809D01*
X123150380Y-110116952D01*
X123198000Y-109926476D01*
X123245619Y-109831238D01*
X123340857Y-109736000D01*
X123483714Y-109688380D01*
X123578952Y-109688380D01*
X123721809Y-109736000D01*
X123769428Y-109783619D01*
X124626571Y-110021714D02*
X124626571Y-110688380D01*
X124388476Y-109640761D02*
X124150380Y-110355047D01*
X124769428Y-110355047D01*
X143423428Y-103690000D02*
X143328190Y-103642380D01*
X143185333Y-103642380D01*
X143042476Y-103690000D01*
X142947238Y-103785238D01*
X142899619Y-103880476D01*
X142852000Y-104070952D01*
X142852000Y-104213809D01*
X142899619Y-104404285D01*
X142947238Y-104499523D01*
X143042476Y-104594761D01*
X143185333Y-104642380D01*
X143280571Y-104642380D01*
X143423428Y-104594761D01*
X143471047Y-104547142D01*
X143471047Y-104213809D01*
X143280571Y-104213809D01*
X143852000Y-104356666D02*
X144328190Y-104356666D01*
X143756761Y-104642380D02*
X144090095Y-103642380D01*
X144423428Y-104642380D01*
X145232952Y-104642380D02*
X144756761Y-104642380D01*
X144756761Y-103642380D01*
X145518666Y-103737619D02*
X145566285Y-103690000D01*
X145661523Y-103642380D01*
X145899619Y-103642380D01*
X145994857Y-103690000D01*
X146042476Y-103737619D01*
X146090095Y-103832857D01*
X146090095Y-103928095D01*
X146042476Y-104070952D01*
X145471047Y-104642380D01*
X146090095Y-104642380D01*
X146709142Y-103642380D02*
X146804380Y-103642380D01*
X146899619Y-103690000D01*
X146947238Y-103737619D01*
X146994857Y-103832857D01*
X147042476Y-104023333D01*
X147042476Y-104261428D01*
X146994857Y-104451904D01*
X146947238Y-104547142D01*
X146899619Y-104594761D01*
X146804380Y-104642380D01*
X146709142Y-104642380D01*
X146613904Y-104594761D01*
X146566285Y-104547142D01*
X146518666Y-104451904D01*
X146471047Y-104261428D01*
X146471047Y-104023333D01*
X146518666Y-103832857D01*
X146566285Y-103737619D01*
X146613904Y-103690000D01*
X146709142Y-103642380D01*
X147328190Y-103642380D02*
X147661523Y-104642380D01*
X147994857Y-103642380D01*
X148471047Y-104070952D02*
X148375809Y-104023333D01*
X148328190Y-103975714D01*
X148280571Y-103880476D01*
X148280571Y-103832857D01*
X148328190Y-103737619D01*
X148375809Y-103690000D01*
X148471047Y-103642380D01*
X148661523Y-103642380D01*
X148756761Y-103690000D01*
X148804380Y-103737619D01*
X148852000Y-103832857D01*
X148852000Y-103880476D01*
X148804380Y-103975714D01*
X148756761Y-104023333D01*
X148661523Y-104070952D01*
X148471047Y-104070952D01*
X148375809Y-104118571D01*
X148328190Y-104166190D01*
X148280571Y-104261428D01*
X148280571Y-104451904D01*
X148328190Y-104547142D01*
X148375809Y-104594761D01*
X148471047Y-104642380D01*
X148661523Y-104642380D01*
X148756761Y-104594761D01*
X148804380Y-104547142D01*
X148852000Y-104451904D01*
X148852000Y-104261428D01*
X148804380Y-104166190D01*
X148756761Y-104118571D01*
X148661523Y-104070952D01*
X149613904Y-104118571D02*
X149756761Y-104166190D01*
X149804380Y-104213809D01*
X149852000Y-104309047D01*
X149852000Y-104451904D01*
X149804380Y-104547142D01*
X149756761Y-104594761D01*
X149661523Y-104642380D01*
X149280571Y-104642380D01*
X149280571Y-103642380D01*
X149613904Y-103642380D01*
X149709142Y-103690000D01*
X149756761Y-103737619D01*
X149804380Y-103832857D01*
X149804380Y-103928095D01*
X149756761Y-104023333D01*
X149709142Y-104070952D01*
X149613904Y-104118571D01*
X149280571Y-104118571D01*
X124658380Y-80732190D02*
X123658380Y-80732190D01*
X124563142Y-79684571D02*
X124610761Y-79732190D01*
X124658380Y-79875047D01*
X124658380Y-79970285D01*
X124610761Y-80113142D01*
X124515523Y-80208380D01*
X124420285Y-80256000D01*
X124229809Y-80303619D01*
X124086952Y-80303619D01*
X123896476Y-80256000D01*
X123801238Y-80208380D01*
X123706000Y-80113142D01*
X123658380Y-79970285D01*
X123658380Y-79875047D01*
X123706000Y-79732190D01*
X123753619Y-79684571D01*
X123658380Y-79351238D02*
X123658380Y-78732190D01*
X124039333Y-79065523D01*
X124039333Y-78922666D01*
X124086952Y-78827428D01*
X124134571Y-78779809D01*
X124229809Y-78732190D01*
X124467904Y-78732190D01*
X124563142Y-78779809D01*
X124610761Y-78827428D01*
X124658380Y-78922666D01*
X124658380Y-79208380D01*
X124610761Y-79303619D01*
X124563142Y-79351238D01*
X148773142Y-75578380D02*
X148582666Y-75578380D01*
X148487428Y-75626000D01*
X148439809Y-75673619D01*
X148344571Y-75816476D01*
X148296952Y-76006952D01*
X148296952Y-76387904D01*
X148344571Y-76483142D01*
X148392190Y-76530761D01*
X148487428Y-76578380D01*
X148677904Y-76578380D01*
X148773142Y-76530761D01*
X148820761Y-76483142D01*
X148868380Y-76387904D01*
X148868380Y-76149809D01*
X148820761Y-76054571D01*
X148773142Y-76006952D01*
X148677904Y-75959333D01*
X148487428Y-75959333D01*
X148392190Y-76006952D01*
X148344571Y-76054571D01*
X148296952Y-76149809D01*
X149249333Y-75673619D02*
X149296952Y-75626000D01*
X149392190Y-75578380D01*
X149630285Y-75578380D01*
X149725523Y-75626000D01*
X149773142Y-75673619D01*
X149820761Y-75768857D01*
X149820761Y-75864095D01*
X149773142Y-76006952D01*
X149201714Y-76578380D01*
X149820761Y-76578380D01*
X150201714Y-75673619D02*
X150249333Y-75626000D01*
X150344571Y-75578380D01*
X150582666Y-75578380D01*
X150677904Y-75626000D01*
X150725523Y-75673619D01*
X150773142Y-75768857D01*
X150773142Y-75864095D01*
X150725523Y-76006952D01*
X150154095Y-76578380D01*
X150773142Y-76578380D01*
X151630285Y-75911714D02*
X151630285Y-76578380D01*
X151392190Y-75530761D02*
X151154095Y-76245047D01*
X151773142Y-76245047D01*
X152868380Y-75530761D02*
X152011238Y-76816476D01*
X153630285Y-75578380D02*
X153439809Y-75578380D01*
X153344571Y-75626000D01*
X153296952Y-75673619D01*
X153201714Y-75816476D01*
X153154095Y-76006952D01*
X153154095Y-76387904D01*
X153201714Y-76483142D01*
X153249333Y-76530761D01*
X153344571Y-76578380D01*
X153535047Y-76578380D01*
X153630285Y-76530761D01*
X153677904Y-76483142D01*
X153725523Y-76387904D01*
X153725523Y-76149809D01*
X153677904Y-76054571D01*
X153630285Y-76006952D01*
X153535047Y-75959333D01*
X153344571Y-75959333D01*
X153249333Y-76006952D01*
X153201714Y-76054571D01*
X153154095Y-76149809D01*
X154106476Y-75673619D02*
X154154095Y-75626000D01*
X154249333Y-75578380D01*
X154487428Y-75578380D01*
X154582666Y-75626000D01*
X154630285Y-75673619D01*
X154677904Y-75768857D01*
X154677904Y-75864095D01*
X154630285Y-76006952D01*
X154058857Y-76578380D01*
X154677904Y-76578380D01*
X155058857Y-75673619D02*
X155106476Y-75626000D01*
X155201714Y-75578380D01*
X155439809Y-75578380D01*
X155535047Y-75626000D01*
X155582666Y-75673619D01*
X155630285Y-75768857D01*
X155630285Y-75864095D01*
X155582666Y-76006952D01*
X155011238Y-76578380D01*
X155630285Y-76578380D01*
X156535047Y-75578380D02*
X156058857Y-75578380D01*
X156011238Y-76054571D01*
X156058857Y-76006952D01*
X156154095Y-75959333D01*
X156392190Y-75959333D01*
X156487428Y-76006952D01*
X156535047Y-76054571D01*
X156582666Y-76149809D01*
X156582666Y-76387904D01*
X156535047Y-76483142D01*
X156487428Y-76530761D01*
X156392190Y-76578380D01*
X156154095Y-76578380D01*
X156058857Y-76530761D01*
X156011238Y-76483142D01*
X157439809Y-75578380D02*
X157249333Y-75578380D01*
X157154095Y-75626000D01*
X157106476Y-75673619D01*
X157011238Y-75816476D01*
X156963619Y-76006952D01*
X156963619Y-76387904D01*
X157011238Y-76483142D01*
X157058857Y-76530761D01*
X157154095Y-76578380D01*
X157344571Y-76578380D01*
X157439809Y-76530761D01*
X157487428Y-76483142D01*
X157535047Y-76387904D01*
X157535047Y-76149809D01*
X157487428Y-76054571D01*
X157439809Y-76006952D01*
X157344571Y-75959333D01*
X157154095Y-75959333D01*
X157058857Y-76006952D01*
X157011238Y-76054571D01*
X156963619Y-76149809D01*
X78430380Y-67905190D02*
X77430380Y-67905190D01*
X78335142Y-66857571D02*
X78382761Y-66905190D01*
X78430380Y-67048047D01*
X78430380Y-67143285D01*
X78382761Y-67286142D01*
X78287523Y-67381380D01*
X78192285Y-67429000D01*
X78001809Y-67476619D01*
X77858952Y-67476619D01*
X77668476Y-67429000D01*
X77573238Y-67381380D01*
X77478000Y-67286142D01*
X77430380Y-67143285D01*
X77430380Y-67048047D01*
X77478000Y-66905190D01*
X77525619Y-66857571D01*
X78430380Y-65905190D02*
X78430380Y-66476619D01*
X78430380Y-66190904D02*
X77430380Y-66190904D01*
X77573238Y-66286142D01*
X77668476Y-66381380D01*
X77716095Y-66476619D01*
X104100666Y-60412380D02*
X104338761Y-61412380D01*
X104529238Y-60698095D01*
X104719714Y-61412380D01*
X104957809Y-60412380D01*
X105338761Y-61412380D02*
X105338761Y-60412380D01*
X105576857Y-60412380D01*
X105719714Y-60460000D01*
X105814952Y-60555238D01*
X105862571Y-60650476D01*
X105910190Y-60840952D01*
X105910190Y-60983809D01*
X105862571Y-61174285D01*
X105814952Y-61269523D01*
X105719714Y-61364761D01*
X105576857Y-61412380D01*
X105338761Y-61412380D01*
X106862571Y-61412380D02*
X106291142Y-61412380D01*
X106576857Y-61412380D02*
X106576857Y-60412380D01*
X106481619Y-60555238D01*
X106386380Y-60650476D01*
X106291142Y-60698095D01*
X107195904Y-60412380D02*
X107862571Y-60412380D01*
X107434000Y-61412380D01*
X108148285Y-60412380D02*
X108814952Y-60412380D01*
X108386380Y-61412380D01*
X109148285Y-60507619D02*
X109195904Y-60460000D01*
X109291142Y-60412380D01*
X109529238Y-60412380D01*
X109624476Y-60460000D01*
X109672095Y-60507619D01*
X109719714Y-60602857D01*
X109719714Y-60698095D01*
X109672095Y-60840952D01*
X109100666Y-61412380D01*
X109719714Y-61412380D01*
X119245142Y-71064380D02*
X118911809Y-70588190D01*
X118673714Y-71064380D02*
X118673714Y-70064380D01*
X119054666Y-70064380D01*
X119149904Y-70112000D01*
X119197523Y-70159619D01*
X119245142Y-70254857D01*
X119245142Y-70397714D01*
X119197523Y-70492952D01*
X119149904Y-70540571D01*
X119054666Y-70588190D01*
X118673714Y-70588190D01*
X120197523Y-71064380D02*
X119626095Y-71064380D01*
X119911809Y-71064380D02*
X119911809Y-70064380D01*
X119816571Y-70207238D01*
X119721333Y-70302476D01*
X119626095Y-70350095D01*
X120578476Y-70159619D02*
X120626095Y-70112000D01*
X120721333Y-70064380D01*
X120959428Y-70064380D01*
X121054666Y-70112000D01*
X121102285Y-70159619D01*
X121149904Y-70254857D01*
X121149904Y-70350095D01*
X121102285Y-70492952D01*
X120530857Y-71064380D01*
X121149904Y-71064380D01*
X120467380Y-65460476D02*
X120467380Y-66031904D01*
X120467380Y-65746190D02*
X119467380Y-65746190D01*
X119610238Y-65841428D01*
X119705476Y-65936666D01*
X119753095Y-66031904D01*
X119467380Y-64841428D02*
X119467380Y-64746190D01*
X119515000Y-64650952D01*
X119562619Y-64603333D01*
X119657857Y-64555714D01*
X119848333Y-64508095D01*
X120086428Y-64508095D01*
X120276904Y-64555714D01*
X120372142Y-64603333D01*
X120419761Y-64650952D01*
X120467380Y-64746190D01*
X120467380Y-64841428D01*
X120419761Y-64936666D01*
X120372142Y-64984285D01*
X120276904Y-65031904D01*
X120086428Y-65079523D01*
X119848333Y-65079523D01*
X119657857Y-65031904D01*
X119562619Y-64984285D01*
X119515000Y-64936666D01*
X119467380Y-64841428D01*
X120467380Y-64079523D02*
X119467380Y-64079523D01*
X120467380Y-63508095D02*
X119895952Y-63936666D01*
X119467380Y-63508095D02*
X120038809Y-64079523D01*
X89606380Y-44457857D02*
X89130190Y-44791190D01*
X89606380Y-45029285D02*
X88606380Y-45029285D01*
X88606380Y-44648333D01*
X88654000Y-44553095D01*
X88701619Y-44505476D01*
X88796857Y-44457857D01*
X88939714Y-44457857D01*
X89034952Y-44505476D01*
X89082571Y-44553095D01*
X89130190Y-44648333D01*
X89130190Y-45029285D01*
X89606380Y-43505476D02*
X89606380Y-44076904D01*
X89606380Y-43791190D02*
X88606380Y-43791190D01*
X88749238Y-43886428D01*
X88844476Y-43981666D01*
X88892095Y-44076904D01*
X88606380Y-42886428D02*
X88606380Y-42791190D01*
X88654000Y-42695952D01*
X88701619Y-42648333D01*
X88796857Y-42600714D01*
X88987333Y-42553095D01*
X89225428Y-42553095D01*
X89415904Y-42600714D01*
X89511142Y-42648333D01*
X89558761Y-42695952D01*
X89606380Y-42791190D01*
X89606380Y-42886428D01*
X89558761Y-42981666D01*
X89511142Y-43029285D01*
X89415904Y-43076904D01*
X89225428Y-43124523D01*
X88987333Y-43124523D01*
X88796857Y-43076904D01*
X88701619Y-43029285D01*
X88654000Y-42981666D01*
X88606380Y-42886428D01*
X83058095Y-43267380D02*
X82867619Y-43267380D01*
X82772380Y-43315000D01*
X82724761Y-43362619D01*
X82629523Y-43505476D01*
X82581904Y-43695952D01*
X82581904Y-44076904D01*
X82629523Y-44172142D01*
X82677142Y-44219761D01*
X82772380Y-44267380D01*
X82962857Y-44267380D01*
X83058095Y-44219761D01*
X83105714Y-44172142D01*
X83153333Y-44076904D01*
X83153333Y-43838809D01*
X83105714Y-43743571D01*
X83058095Y-43695952D01*
X82962857Y-43648333D01*
X82772380Y-43648333D01*
X82677142Y-43695952D01*
X82629523Y-43743571D01*
X82581904Y-43838809D01*
X83724761Y-43695952D02*
X83629523Y-43648333D01*
X83581904Y-43600714D01*
X83534285Y-43505476D01*
X83534285Y-43457857D01*
X83581904Y-43362619D01*
X83629523Y-43315000D01*
X83724761Y-43267380D01*
X83915238Y-43267380D01*
X84010476Y-43315000D01*
X84058095Y-43362619D01*
X84105714Y-43457857D01*
X84105714Y-43505476D01*
X84058095Y-43600714D01*
X84010476Y-43648333D01*
X83915238Y-43695952D01*
X83724761Y-43695952D01*
X83629523Y-43743571D01*
X83581904Y-43791190D01*
X83534285Y-43886428D01*
X83534285Y-44076904D01*
X83581904Y-44172142D01*
X83629523Y-44219761D01*
X83724761Y-44267380D01*
X83915238Y-44267380D01*
X84010476Y-44219761D01*
X84058095Y-44172142D01*
X84105714Y-44076904D01*
X84105714Y-43886428D01*
X84058095Y-43791190D01*
X84010476Y-43743571D01*
X83915238Y-43695952D01*
X84724761Y-43267380D02*
X84820000Y-43267380D01*
X84915238Y-43315000D01*
X84962857Y-43362619D01*
X85010476Y-43457857D01*
X85058095Y-43648333D01*
X85058095Y-43886428D01*
X85010476Y-44076904D01*
X84962857Y-44172142D01*
X84915238Y-44219761D01*
X84820000Y-44267380D01*
X84724761Y-44267380D01*
X84629523Y-44219761D01*
X84581904Y-44172142D01*
X84534285Y-44076904D01*
X84486666Y-43886428D01*
X84486666Y-43648333D01*
X84534285Y-43457857D01*
X84581904Y-43362619D01*
X84629523Y-43315000D01*
X84724761Y-43267380D01*
X104846380Y-106846666D02*
X104370190Y-107180000D01*
X104846380Y-107418095D02*
X103846380Y-107418095D01*
X103846380Y-107037142D01*
X103894000Y-106941904D01*
X103941619Y-106894285D01*
X104036857Y-106846666D01*
X104179714Y-106846666D01*
X104274952Y-106894285D01*
X104322571Y-106941904D01*
X104370190Y-107037142D01*
X104370190Y-107418095D01*
X104846380Y-106370476D02*
X104846380Y-106180000D01*
X104798761Y-106084761D01*
X104751142Y-106037142D01*
X104608285Y-105941904D01*
X104417809Y-105894285D01*
X104036857Y-105894285D01*
X103941619Y-105941904D01*
X103894000Y-105989523D01*
X103846380Y-106084761D01*
X103846380Y-106275238D01*
X103894000Y-106370476D01*
X103941619Y-106418095D01*
X104036857Y-106465714D01*
X104274952Y-106465714D01*
X104370190Y-106418095D01*
X104417809Y-106370476D01*
X104465428Y-106275238D01*
X104465428Y-106084761D01*
X104417809Y-105989523D01*
X104370190Y-105941904D01*
X104274952Y-105894285D01*
X108997904Y-106481619D02*
X109045523Y-106434000D01*
X109140761Y-106386380D01*
X109378857Y-106386380D01*
X109474095Y-106434000D01*
X109521714Y-106481619D01*
X109569333Y-106576857D01*
X109569333Y-106672095D01*
X109521714Y-106814952D01*
X108950285Y-107386380D01*
X109569333Y-107386380D01*
X109902666Y-106386380D02*
X110569333Y-106386380D01*
X110140761Y-107386380D01*
X111140761Y-106386380D02*
X111236000Y-106386380D01*
X111331238Y-106434000D01*
X111378857Y-106481619D01*
X111426476Y-106576857D01*
X111474095Y-106767333D01*
X111474095Y-107005428D01*
X111426476Y-107195904D01*
X111378857Y-107291142D01*
X111331238Y-107338761D01*
X111236000Y-107386380D01*
X111140761Y-107386380D01*
X111045523Y-107338761D01*
X110997904Y-107291142D01*
X110950285Y-107195904D01*
X110902666Y-107005428D01*
X110902666Y-106767333D01*
X110950285Y-106576857D01*
X110997904Y-106481619D01*
X111045523Y-106434000D01*
X111140761Y-106386380D01*
X104846380Y-110148666D02*
X104370190Y-110482000D01*
X104846380Y-110720095D02*
X103846380Y-110720095D01*
X103846380Y-110339142D01*
X103894000Y-110243904D01*
X103941619Y-110196285D01*
X104036857Y-110148666D01*
X104179714Y-110148666D01*
X104274952Y-110196285D01*
X104322571Y-110243904D01*
X104370190Y-110339142D01*
X104370190Y-110720095D01*
X104274952Y-109577238D02*
X104227333Y-109672476D01*
X104179714Y-109720095D01*
X104084476Y-109767714D01*
X104036857Y-109767714D01*
X103941619Y-109720095D01*
X103894000Y-109672476D01*
X103846380Y-109577238D01*
X103846380Y-109386761D01*
X103894000Y-109291523D01*
X103941619Y-109243904D01*
X104036857Y-109196285D01*
X104084476Y-109196285D01*
X104179714Y-109243904D01*
X104227333Y-109291523D01*
X104274952Y-109386761D01*
X104274952Y-109577238D01*
X104322571Y-109672476D01*
X104370190Y-109720095D01*
X104465428Y-109767714D01*
X104655904Y-109767714D01*
X104751142Y-109720095D01*
X104798761Y-109672476D01*
X104846380Y-109577238D01*
X104846380Y-109386761D01*
X104798761Y-109291523D01*
X104751142Y-109243904D01*
X104655904Y-109196285D01*
X104465428Y-109196285D01*
X104370190Y-109243904D01*
X104322571Y-109291523D01*
X104274952Y-109386761D01*
X108720095Y-109529619D02*
X108767714Y-109482000D01*
X108862952Y-109434380D01*
X109101047Y-109434380D01*
X109196285Y-109482000D01*
X109243904Y-109529619D01*
X109291523Y-109624857D01*
X109291523Y-109720095D01*
X109243904Y-109862952D01*
X108672476Y-110434380D01*
X109291523Y-110434380D01*
X109720095Y-110434380D02*
X109720095Y-109434380D01*
X110291523Y-110434380D02*
X109862952Y-109862952D01*
X110291523Y-109434380D02*
X109720095Y-110005809D01*
X110672476Y-109529619D02*
X110720095Y-109482000D01*
X110815333Y-109434380D01*
X111053428Y-109434380D01*
X111148666Y-109482000D01*
X111196285Y-109529619D01*
X111243904Y-109624857D01*
X111243904Y-109720095D01*
X111196285Y-109862952D01*
X110624857Y-110434380D01*
X111243904Y-110434380D01*
X104846380Y-113450666D02*
X104370190Y-113784000D01*
X104846380Y-114022095D02*
X103846380Y-114022095D01*
X103846380Y-113641142D01*
X103894000Y-113545904D01*
X103941619Y-113498285D01*
X104036857Y-113450666D01*
X104179714Y-113450666D01*
X104274952Y-113498285D01*
X104322571Y-113545904D01*
X104370190Y-113641142D01*
X104370190Y-114022095D01*
X103846380Y-113117333D02*
X103846380Y-112450666D01*
X104846380Y-112879238D01*
X108720095Y-112831619D02*
X108767714Y-112784000D01*
X108862952Y-112736380D01*
X109101047Y-112736380D01*
X109196285Y-112784000D01*
X109243904Y-112831619D01*
X109291523Y-112926857D01*
X109291523Y-113022095D01*
X109243904Y-113164952D01*
X108672476Y-113736380D01*
X109291523Y-113736380D01*
X109720095Y-113736380D02*
X109720095Y-112736380D01*
X110291523Y-113736380D02*
X109862952Y-113164952D01*
X110291523Y-112736380D02*
X109720095Y-113307809D01*
X110672476Y-112831619D02*
X110720095Y-112784000D01*
X110815333Y-112736380D01*
X111053428Y-112736380D01*
X111148666Y-112784000D01*
X111196285Y-112831619D01*
X111243904Y-112926857D01*
X111243904Y-113022095D01*
X111196285Y-113164952D01*
X110624857Y-113736380D01*
X111243904Y-113736380D01*
X89606380Y-47156666D02*
X89130190Y-47490000D01*
X89606380Y-47728095D02*
X88606380Y-47728095D01*
X88606380Y-47347142D01*
X88654000Y-47251904D01*
X88701619Y-47204285D01*
X88796857Y-47156666D01*
X88939714Y-47156666D01*
X89034952Y-47204285D01*
X89082571Y-47251904D01*
X89130190Y-47347142D01*
X89130190Y-47728095D01*
X88606380Y-46299523D02*
X88606380Y-46490000D01*
X88654000Y-46585238D01*
X88701619Y-46632857D01*
X88844476Y-46728095D01*
X89034952Y-46775714D01*
X89415904Y-46775714D01*
X89511142Y-46728095D01*
X89558761Y-46680476D01*
X89606380Y-46585238D01*
X89606380Y-46394761D01*
X89558761Y-46299523D01*
X89511142Y-46251904D01*
X89415904Y-46204285D01*
X89177809Y-46204285D01*
X89082571Y-46251904D01*
X89034952Y-46299523D01*
X88987333Y-46394761D01*
X88987333Y-46585238D01*
X89034952Y-46680476D01*
X89082571Y-46728095D01*
X89177809Y-46775714D01*
X82804095Y-46442380D02*
X82613619Y-46442380D01*
X82518380Y-46490000D01*
X82470761Y-46537619D01*
X82375523Y-46680476D01*
X82327904Y-46870952D01*
X82327904Y-47251904D01*
X82375523Y-47347142D01*
X82423142Y-47394761D01*
X82518380Y-47442380D01*
X82708857Y-47442380D01*
X82804095Y-47394761D01*
X82851714Y-47347142D01*
X82899333Y-47251904D01*
X82899333Y-47013809D01*
X82851714Y-46918571D01*
X82804095Y-46870952D01*
X82708857Y-46823333D01*
X82518380Y-46823333D01*
X82423142Y-46870952D01*
X82375523Y-46918571D01*
X82327904Y-47013809D01*
X83470761Y-46870952D02*
X83375523Y-46823333D01*
X83327904Y-46775714D01*
X83280285Y-46680476D01*
X83280285Y-46632857D01*
X83327904Y-46537619D01*
X83375523Y-46490000D01*
X83470761Y-46442380D01*
X83661238Y-46442380D01*
X83756476Y-46490000D01*
X83804095Y-46537619D01*
X83851714Y-46632857D01*
X83851714Y-46680476D01*
X83804095Y-46775714D01*
X83756476Y-46823333D01*
X83661238Y-46870952D01*
X83470761Y-46870952D01*
X83375523Y-46918571D01*
X83327904Y-46966190D01*
X83280285Y-47061428D01*
X83280285Y-47251904D01*
X83327904Y-47347142D01*
X83375523Y-47394761D01*
X83470761Y-47442380D01*
X83661238Y-47442380D01*
X83756476Y-47394761D01*
X83804095Y-47347142D01*
X83851714Y-47251904D01*
X83851714Y-47061428D01*
X83804095Y-46966190D01*
X83756476Y-46918571D01*
X83661238Y-46870952D01*
X84470761Y-46442380D02*
X84566000Y-46442380D01*
X84661238Y-46490000D01*
X84708857Y-46537619D01*
X84756476Y-46632857D01*
X84804095Y-46823333D01*
X84804095Y-47061428D01*
X84756476Y-47251904D01*
X84708857Y-47347142D01*
X84661238Y-47394761D01*
X84566000Y-47442380D01*
X84470761Y-47442380D01*
X84375523Y-47394761D01*
X84327904Y-47347142D01*
X84280285Y-47251904D01*
X84232666Y-47061428D01*
X84232666Y-46823333D01*
X84280285Y-46632857D01*
X84327904Y-46537619D01*
X84375523Y-46490000D01*
X84470761Y-46442380D01*
X108402380Y-50204666D02*
X107926190Y-50538000D01*
X108402380Y-50776095D02*
X107402380Y-50776095D01*
X107402380Y-50395142D01*
X107450000Y-50299904D01*
X107497619Y-50252285D01*
X107592857Y-50204666D01*
X107735714Y-50204666D01*
X107830952Y-50252285D01*
X107878571Y-50299904D01*
X107926190Y-50395142D01*
X107926190Y-50776095D01*
X107735714Y-49347523D02*
X108402380Y-49347523D01*
X107354761Y-49585619D02*
X108069047Y-49823714D01*
X108069047Y-49204666D01*
X112276095Y-49823714D02*
X112276095Y-50490380D01*
X112038000Y-49442761D02*
X111799904Y-50157047D01*
X112418952Y-50157047D01*
X112704666Y-49490380D02*
X113371333Y-49490380D01*
X112942761Y-50490380D01*
X113942761Y-49490380D02*
X114038000Y-49490380D01*
X114133238Y-49538000D01*
X114180857Y-49585619D01*
X114228476Y-49680857D01*
X114276095Y-49871333D01*
X114276095Y-50109428D01*
X114228476Y-50299904D01*
X114180857Y-50395142D01*
X114133238Y-50442761D01*
X114038000Y-50490380D01*
X113942761Y-50490380D01*
X113847523Y-50442761D01*
X113799904Y-50395142D01*
X113752285Y-50299904D01*
X113704666Y-50109428D01*
X113704666Y-49871333D01*
X113752285Y-49680857D01*
X113799904Y-49585619D01*
X113847523Y-49538000D01*
X113942761Y-49490380D01*
X115276095Y-50490380D02*
X114942761Y-50014190D01*
X114704666Y-50490380D02*
X114704666Y-49490380D01*
X115085619Y-49490380D01*
X115180857Y-49538000D01*
X115228476Y-49585619D01*
X115276095Y-49680857D01*
X115276095Y-49823714D01*
X115228476Y-49918952D01*
X115180857Y-49966571D01*
X115085619Y-50014190D01*
X114704666Y-50014190D01*
X94559380Y-43092666D02*
X94083190Y-43426000D01*
X94559380Y-43664095D02*
X93559380Y-43664095D01*
X93559380Y-43283142D01*
X93607000Y-43187904D01*
X93654619Y-43140285D01*
X93749857Y-43092666D01*
X93892714Y-43092666D01*
X93987952Y-43140285D01*
X94035571Y-43187904D01*
X94083190Y-43283142D01*
X94083190Y-43664095D01*
X93654619Y-42711714D02*
X93607000Y-42664095D01*
X93559380Y-42568857D01*
X93559380Y-42330761D01*
X93607000Y-42235523D01*
X93654619Y-42187904D01*
X93749857Y-42140285D01*
X93845095Y-42140285D01*
X93987952Y-42187904D01*
X94559380Y-42759333D01*
X94559380Y-42140285D01*
X91606714Y-48251904D02*
X92273380Y-48251904D01*
X91225761Y-48490000D02*
X91940047Y-48728095D01*
X91940047Y-48109047D01*
X91273380Y-47823333D02*
X91273380Y-47156666D01*
X92273380Y-47585238D01*
X91273380Y-46585238D02*
X91273380Y-46490000D01*
X91321000Y-46394761D01*
X91368619Y-46347142D01*
X91463857Y-46299523D01*
X91654333Y-46251904D01*
X91892428Y-46251904D01*
X92082904Y-46299523D01*
X92178142Y-46347142D01*
X92225761Y-46394761D01*
X92273380Y-46490000D01*
X92273380Y-46585238D01*
X92225761Y-46680476D01*
X92178142Y-46728095D01*
X92082904Y-46775714D01*
X91892428Y-46823333D01*
X91654333Y-46823333D01*
X91463857Y-46775714D01*
X91368619Y-46728095D01*
X91321000Y-46680476D01*
X91273380Y-46585238D01*
X92273380Y-45251904D02*
X91797190Y-45585238D01*
X92273380Y-45823333D02*
X91273380Y-45823333D01*
X91273380Y-45442380D01*
X91321000Y-45347142D01*
X91368619Y-45299523D01*
X91463857Y-45251904D01*
X91606714Y-45251904D01*
X91701952Y-45299523D01*
X91749571Y-45347142D01*
X91797190Y-45442380D01*
X91797190Y-45823333D01*
X89606380Y-50331666D02*
X89130190Y-50665000D01*
X89606380Y-50903095D02*
X88606380Y-50903095D01*
X88606380Y-50522142D01*
X88654000Y-50426904D01*
X88701619Y-50379285D01*
X88796857Y-50331666D01*
X88939714Y-50331666D01*
X89034952Y-50379285D01*
X89082571Y-50426904D01*
X89130190Y-50522142D01*
X89130190Y-50903095D01*
X89606380Y-49379285D02*
X89606380Y-49950714D01*
X89606380Y-49665000D02*
X88606380Y-49665000D01*
X88749238Y-49760238D01*
X88844476Y-49855476D01*
X88892095Y-49950714D01*
X82431095Y-50077714D02*
X82431095Y-50744380D01*
X82193000Y-49696761D02*
X81954904Y-50411047D01*
X82573952Y-50411047D01*
X82859666Y-49744380D02*
X83526333Y-49744380D01*
X83097761Y-50744380D01*
X84097761Y-49744380D02*
X84193000Y-49744380D01*
X84288238Y-49792000D01*
X84335857Y-49839619D01*
X84383476Y-49934857D01*
X84431095Y-50125333D01*
X84431095Y-50363428D01*
X84383476Y-50553904D01*
X84335857Y-50649142D01*
X84288238Y-50696761D01*
X84193000Y-50744380D01*
X84097761Y-50744380D01*
X84002523Y-50696761D01*
X83954904Y-50649142D01*
X83907285Y-50553904D01*
X83859666Y-50363428D01*
X83859666Y-50125333D01*
X83907285Y-49934857D01*
X83954904Y-49839619D01*
X84002523Y-49792000D01*
X84097761Y-49744380D01*
X85431095Y-50744380D02*
X85097761Y-50268190D01*
X84859666Y-50744380D02*
X84859666Y-49744380D01*
X85240619Y-49744380D01*
X85335857Y-49792000D01*
X85383476Y-49839619D01*
X85431095Y-49934857D01*
X85431095Y-50077714D01*
X85383476Y-50172952D01*
X85335857Y-50220571D01*
X85240619Y-50268190D01*
X84859666Y-50268190D01*
X124884666Y-117812380D02*
X124884666Y-118526666D01*
X124837047Y-118669523D01*
X124741809Y-118764761D01*
X124598952Y-118812380D01*
X124503714Y-118812380D01*
X125884666Y-118812380D02*
X125313238Y-118812380D01*
X125598952Y-118812380D02*
X125598952Y-117812380D01*
X125503714Y-117955238D01*
X125408476Y-118050476D01*
X125313238Y-118098095D01*
X119594380Y-28273333D02*
X120308666Y-28273333D01*
X120451523Y-28320952D01*
X120546761Y-28416190D01*
X120594380Y-28559047D01*
X120594380Y-28654285D01*
X119594380Y-27892380D02*
X119594380Y-27273333D01*
X119975333Y-27606666D01*
X119975333Y-27463809D01*
X120022952Y-27368571D01*
X120070571Y-27320952D01*
X120165809Y-27273333D01*
X120403904Y-27273333D01*
X120499142Y-27320952D01*
X120546761Y-27368571D01*
X120594380Y-27463809D01*
X120594380Y-27749523D01*
X120546761Y-27844761D01*
X120499142Y-27892380D01*
X130238761Y-26614380D02*
X130238761Y-25614380D01*
X130619714Y-25614380D01*
X130714952Y-25662000D01*
X130762571Y-25709619D01*
X130810190Y-25804857D01*
X130810190Y-25947714D01*
X130762571Y-26042952D01*
X130714952Y-26090571D01*
X130619714Y-26138190D01*
X130238761Y-26138190D01*
X131191142Y-26328666D02*
X131667333Y-26328666D01*
X131095904Y-26614380D02*
X131429238Y-25614380D01*
X131762571Y-26614380D01*
X132667333Y-26614380D02*
X132334000Y-26138190D01*
X132095904Y-26614380D02*
X132095904Y-25614380D01*
X132476857Y-25614380D01*
X132572095Y-25662000D01*
X132619714Y-25709619D01*
X132667333Y-25804857D01*
X132667333Y-25947714D01*
X132619714Y-26042952D01*
X132572095Y-26090571D01*
X132476857Y-26138190D01*
X132095904Y-26138190D01*
X133048285Y-26328666D02*
X133524476Y-26328666D01*
X132953047Y-26614380D02*
X133286380Y-25614380D01*
X133619714Y-26614380D01*
X134429238Y-26614380D02*
X133953047Y-26614380D01*
X133953047Y-25614380D01*
X135238761Y-26614380D02*
X134762571Y-26614380D01*
X134762571Y-25614380D01*
X135572095Y-26090571D02*
X135905428Y-26090571D01*
X136048285Y-26614380D02*
X135572095Y-26614380D01*
X135572095Y-25614380D01*
X136048285Y-25614380D01*
X136953047Y-26614380D02*
X136476857Y-26614380D01*
X136476857Y-25614380D01*
X137048285Y-26709619D02*
X137810190Y-26709619D01*
X138619714Y-26519142D02*
X138572095Y-26566761D01*
X138429238Y-26614380D01*
X138334000Y-26614380D01*
X138191142Y-26566761D01*
X138095904Y-26471523D01*
X138048285Y-26376285D01*
X138000666Y-26185809D01*
X138000666Y-26042952D01*
X138048285Y-25852476D01*
X138095904Y-25757238D01*
X138191142Y-25662000D01*
X138334000Y-25614380D01*
X138429238Y-25614380D01*
X138572095Y-25662000D01*
X138619714Y-25709619D01*
X139238761Y-25614380D02*
X139429238Y-25614380D01*
X139524476Y-25662000D01*
X139619714Y-25757238D01*
X139667333Y-25947714D01*
X139667333Y-26281047D01*
X139619714Y-26471523D01*
X139524476Y-26566761D01*
X139429238Y-26614380D01*
X139238761Y-26614380D01*
X139143523Y-26566761D01*
X139048285Y-26471523D01*
X139000666Y-26281047D01*
X139000666Y-25947714D01*
X139048285Y-25757238D01*
X139143523Y-25662000D01*
X139238761Y-25614380D01*
X140095904Y-26614380D02*
X140095904Y-25614380D01*
X140667333Y-26614380D01*
X140667333Y-25614380D01*
X141143523Y-26614380D02*
X141143523Y-25614380D01*
X141714952Y-26614380D01*
X141714952Y-25614380D01*
X142191142Y-26090571D02*
X142524476Y-26090571D01*
X142667333Y-26614380D02*
X142191142Y-26614380D01*
X142191142Y-25614380D01*
X142667333Y-25614380D01*
X143667333Y-26519142D02*
X143619714Y-26566761D01*
X143476857Y-26614380D01*
X143381619Y-26614380D01*
X143238761Y-26566761D01*
X143143523Y-26471523D01*
X143095904Y-26376285D01*
X143048285Y-26185809D01*
X143048285Y-26042952D01*
X143095904Y-25852476D01*
X143143523Y-25757238D01*
X143238761Y-25662000D01*
X143381619Y-25614380D01*
X143476857Y-25614380D01*
X143619714Y-25662000D01*
X143667333Y-25709619D01*
X143953047Y-25614380D02*
X144524476Y-25614380D01*
X144238761Y-26614380D02*
X144238761Y-25614380D01*
X145048285Y-25614380D02*
X145238761Y-25614380D01*
X145334000Y-25662000D01*
X145429238Y-25757238D01*
X145476857Y-25947714D01*
X145476857Y-26281047D01*
X145429238Y-26471523D01*
X145334000Y-26566761D01*
X145238761Y-26614380D01*
X145048285Y-26614380D01*
X144953047Y-26566761D01*
X144857809Y-26471523D01*
X144810190Y-26281047D01*
X144810190Y-25947714D01*
X144857809Y-25757238D01*
X144953047Y-25662000D01*
X145048285Y-25614380D01*
X146476857Y-26614380D02*
X146143523Y-26138190D01*
X145905428Y-26614380D02*
X145905428Y-25614380D01*
X146286380Y-25614380D01*
X146381619Y-25662000D01*
X146429238Y-25709619D01*
X146476857Y-25804857D01*
X146476857Y-25947714D01*
X146429238Y-26042952D01*
X146381619Y-26090571D01*
X146286380Y-26138190D01*
X145905428Y-26138190D01*
X122769333Y-56364142D02*
X122721714Y-56411761D01*
X122578857Y-56459380D01*
X122483619Y-56459380D01*
X122340761Y-56411761D01*
X122245523Y-56316523D01*
X122197904Y-56221285D01*
X122150285Y-56030809D01*
X122150285Y-55887952D01*
X122197904Y-55697476D01*
X122245523Y-55602238D01*
X122340761Y-55507000D01*
X122483619Y-55459380D01*
X122578857Y-55459380D01*
X122721714Y-55507000D01*
X122769333Y-55554619D01*
X123150285Y-55554619D02*
X123197904Y-55507000D01*
X123293142Y-55459380D01*
X123531238Y-55459380D01*
X123626476Y-55507000D01*
X123674095Y-55554619D01*
X123721714Y-55649857D01*
X123721714Y-55745095D01*
X123674095Y-55887952D01*
X123102666Y-56459380D01*
X123721714Y-56459380D01*
X124150380Y-52808047D02*
X124150380Y-53379476D01*
X124150380Y-53093761D02*
X123150380Y-53093761D01*
X123293238Y-53189000D01*
X123388476Y-53284238D01*
X123436095Y-53379476D01*
X123150380Y-52189000D02*
X123150380Y-52093761D01*
X123198000Y-51998523D01*
X123245619Y-51950904D01*
X123340857Y-51903285D01*
X123531333Y-51855666D01*
X123769428Y-51855666D01*
X123959904Y-51903285D01*
X124055142Y-51950904D01*
X124102761Y-51998523D01*
X124150380Y-52093761D01*
X124150380Y-52189000D01*
X124102761Y-52284238D01*
X124055142Y-52331857D01*
X123959904Y-52379476D01*
X123769428Y-52427095D01*
X123531333Y-52427095D01*
X123340857Y-52379476D01*
X123245619Y-52331857D01*
X123198000Y-52284238D01*
X123150380Y-52189000D01*
X123150380Y-51236619D02*
X123150380Y-51141380D01*
X123198000Y-51046142D01*
X123245619Y-50998523D01*
X123340857Y-50950904D01*
X123531333Y-50903285D01*
X123769428Y-50903285D01*
X123959904Y-50950904D01*
X124055142Y-50998523D01*
X124102761Y-51046142D01*
X124150380Y-51141380D01*
X124150380Y-51236619D01*
X124102761Y-51331857D01*
X124055142Y-51379476D01*
X123959904Y-51427095D01*
X123769428Y-51474714D01*
X123531333Y-51474714D01*
X123340857Y-51427095D01*
X123245619Y-51379476D01*
X123198000Y-51331857D01*
X123150380Y-51236619D01*
X123483714Y-50474714D02*
X124150380Y-50474714D01*
X123578952Y-50474714D02*
X123531333Y-50427095D01*
X123483714Y-50331857D01*
X123483714Y-50189000D01*
X123531333Y-50093761D01*
X123626571Y-50046142D01*
X124150380Y-50046142D01*
X108577142Y-90146142D02*
X108529523Y-90193761D01*
X108386666Y-90241380D01*
X108291428Y-90241380D01*
X108148571Y-90193761D01*
X108053333Y-90098523D01*
X108005714Y-90003285D01*
X107958095Y-89812809D01*
X107958095Y-89669952D01*
X108005714Y-89479476D01*
X108053333Y-89384238D01*
X108148571Y-89289000D01*
X108291428Y-89241380D01*
X108386666Y-89241380D01*
X108529523Y-89289000D01*
X108577142Y-89336619D01*
X109529523Y-90241380D02*
X108958095Y-90241380D01*
X109243809Y-90241380D02*
X109243809Y-89241380D01*
X109148571Y-89384238D01*
X109053333Y-89479476D01*
X108958095Y-89527095D01*
X110481904Y-90241380D02*
X109910476Y-90241380D01*
X110196190Y-90241380D02*
X110196190Y-89241380D01*
X110100952Y-89384238D01*
X110005714Y-89479476D01*
X109910476Y-89527095D01*
X110180380Y-94972047D02*
X110180380Y-95543476D01*
X110180380Y-95257761D02*
X109180380Y-95257761D01*
X109323238Y-95353000D01*
X109418476Y-95448238D01*
X109466095Y-95543476D01*
X109180380Y-94353000D02*
X109180380Y-94257761D01*
X109228000Y-94162523D01*
X109275619Y-94114904D01*
X109370857Y-94067285D01*
X109561333Y-94019666D01*
X109799428Y-94019666D01*
X109989904Y-94067285D01*
X110085142Y-94114904D01*
X110132761Y-94162523D01*
X110180380Y-94257761D01*
X110180380Y-94353000D01*
X110132761Y-94448238D01*
X110085142Y-94495857D01*
X109989904Y-94543476D01*
X109799428Y-94591095D01*
X109561333Y-94591095D01*
X109370857Y-94543476D01*
X109275619Y-94495857D01*
X109228000Y-94448238D01*
X109180380Y-94353000D01*
X109180380Y-93400619D02*
X109180380Y-93305380D01*
X109228000Y-93210142D01*
X109275619Y-93162523D01*
X109370857Y-93114904D01*
X109561333Y-93067285D01*
X109799428Y-93067285D01*
X109989904Y-93114904D01*
X110085142Y-93162523D01*
X110132761Y-93210142D01*
X110180380Y-93305380D01*
X110180380Y-93400619D01*
X110132761Y-93495857D01*
X110085142Y-93543476D01*
X109989904Y-93591095D01*
X109799428Y-93638714D01*
X109561333Y-93638714D01*
X109370857Y-93591095D01*
X109275619Y-93543476D01*
X109228000Y-93495857D01*
X109180380Y-93400619D01*
X109513714Y-92638714D02*
X110180380Y-92638714D01*
X109608952Y-92638714D02*
X109561333Y-92591095D01*
X109513714Y-92495857D01*
X109513714Y-92353000D01*
X109561333Y-92257761D01*
X109656571Y-92210142D01*
X110180380Y-92210142D01*
X133850142Y-94591142D02*
X133802523Y-94638761D01*
X133659666Y-94686380D01*
X133564428Y-94686380D01*
X133421571Y-94638761D01*
X133326333Y-94543523D01*
X133278714Y-94448285D01*
X133231095Y-94257809D01*
X133231095Y-94114952D01*
X133278714Y-93924476D01*
X133326333Y-93829238D01*
X133421571Y-93734000D01*
X133564428Y-93686380D01*
X133659666Y-93686380D01*
X133802523Y-93734000D01*
X133850142Y-93781619D01*
X134802523Y-94686380D02*
X134231095Y-94686380D01*
X134516809Y-94686380D02*
X134516809Y-93686380D01*
X134421571Y-93829238D01*
X134326333Y-93924476D01*
X134231095Y-93972095D01*
X135421571Y-93686380D02*
X135516809Y-93686380D01*
X135612047Y-93734000D01*
X135659666Y-93781619D01*
X135707285Y-93876857D01*
X135754904Y-94067333D01*
X135754904Y-94305428D01*
X135707285Y-94495904D01*
X135659666Y-94591142D01*
X135612047Y-94638761D01*
X135516809Y-94686380D01*
X135421571Y-94686380D01*
X135326333Y-94638761D01*
X135278714Y-94591142D01*
X135231095Y-94495904D01*
X135183476Y-94305428D01*
X135183476Y-94067333D01*
X135231095Y-93876857D01*
X135278714Y-93781619D01*
X135326333Y-93734000D01*
X135421571Y-93686380D01*
X135453380Y-91075047D02*
X135453380Y-91646476D01*
X135453380Y-91360761D02*
X134453380Y-91360761D01*
X134596238Y-91456000D01*
X134691476Y-91551238D01*
X134739095Y-91646476D01*
X134453380Y-90456000D02*
X134453380Y-90360761D01*
X134501000Y-90265523D01*
X134548619Y-90217904D01*
X134643857Y-90170285D01*
X134834333Y-90122666D01*
X135072428Y-90122666D01*
X135262904Y-90170285D01*
X135358142Y-90217904D01*
X135405761Y-90265523D01*
X135453380Y-90360761D01*
X135453380Y-90456000D01*
X135405761Y-90551238D01*
X135358142Y-90598857D01*
X135262904Y-90646476D01*
X135072428Y-90694095D01*
X134834333Y-90694095D01*
X134643857Y-90646476D01*
X134548619Y-90598857D01*
X134501000Y-90551238D01*
X134453380Y-90456000D01*
X134453380Y-89503619D02*
X134453380Y-89408380D01*
X134501000Y-89313142D01*
X134548619Y-89265523D01*
X134643857Y-89217904D01*
X134834333Y-89170285D01*
X135072428Y-89170285D01*
X135262904Y-89217904D01*
X135358142Y-89265523D01*
X135405761Y-89313142D01*
X135453380Y-89408380D01*
X135453380Y-89503619D01*
X135405761Y-89598857D01*
X135358142Y-89646476D01*
X135262904Y-89694095D01*
X135072428Y-89741714D01*
X134834333Y-89741714D01*
X134643857Y-89694095D01*
X134548619Y-89646476D01*
X134501000Y-89598857D01*
X134453380Y-89503619D01*
X134786714Y-88741714D02*
X135453380Y-88741714D01*
X134881952Y-88741714D02*
X134834333Y-88694095D01*
X134786714Y-88598857D01*
X134786714Y-88456000D01*
X134834333Y-88360761D01*
X134929571Y-88313142D01*
X135453380Y-88313142D01*
X112101333Y-94464142D02*
X112053714Y-94511761D01*
X111910857Y-94559380D01*
X111815619Y-94559380D01*
X111672761Y-94511761D01*
X111577523Y-94416523D01*
X111529904Y-94321285D01*
X111482285Y-94130809D01*
X111482285Y-93987952D01*
X111529904Y-93797476D01*
X111577523Y-93702238D01*
X111672761Y-93607000D01*
X111815619Y-93559380D01*
X111910857Y-93559380D01*
X112053714Y-93607000D01*
X112101333Y-93654619D01*
X112577523Y-94559380D02*
X112768000Y-94559380D01*
X112863238Y-94511761D01*
X112910857Y-94464142D01*
X113006095Y-94321285D01*
X113053714Y-94130809D01*
X113053714Y-93749857D01*
X113006095Y-93654619D01*
X112958476Y-93607000D01*
X112863238Y-93559380D01*
X112672761Y-93559380D01*
X112577523Y-93607000D01*
X112529904Y-93654619D01*
X112482285Y-93749857D01*
X112482285Y-93987952D01*
X112529904Y-94083190D01*
X112577523Y-94130809D01*
X112672761Y-94178428D01*
X112863238Y-94178428D01*
X112958476Y-94130809D01*
X113006095Y-94083190D01*
X113053714Y-93987952D01*
X113228380Y-90948047D02*
X113228380Y-91519476D01*
X113228380Y-91233761D02*
X112228380Y-91233761D01*
X112371238Y-91329000D01*
X112466476Y-91424238D01*
X112514095Y-91519476D01*
X112228380Y-90329000D02*
X112228380Y-90233761D01*
X112276000Y-90138523D01*
X112323619Y-90090904D01*
X112418857Y-90043285D01*
X112609333Y-89995666D01*
X112847428Y-89995666D01*
X113037904Y-90043285D01*
X113133142Y-90090904D01*
X113180761Y-90138523D01*
X113228380Y-90233761D01*
X113228380Y-90329000D01*
X113180761Y-90424238D01*
X113133142Y-90471857D01*
X113037904Y-90519476D01*
X112847428Y-90567095D01*
X112609333Y-90567095D01*
X112418857Y-90519476D01*
X112323619Y-90471857D01*
X112276000Y-90424238D01*
X112228380Y-90329000D01*
X112228380Y-89376619D02*
X112228380Y-89281380D01*
X112276000Y-89186142D01*
X112323619Y-89138523D01*
X112418857Y-89090904D01*
X112609333Y-89043285D01*
X112847428Y-89043285D01*
X113037904Y-89090904D01*
X113133142Y-89138523D01*
X113180761Y-89186142D01*
X113228380Y-89281380D01*
X113228380Y-89376619D01*
X113180761Y-89471857D01*
X113133142Y-89519476D01*
X113037904Y-89567095D01*
X112847428Y-89614714D01*
X112609333Y-89614714D01*
X112418857Y-89567095D01*
X112323619Y-89519476D01*
X112276000Y-89471857D01*
X112228380Y-89376619D01*
X112561714Y-88614714D02*
X113228380Y-88614714D01*
X112656952Y-88614714D02*
X112609333Y-88567095D01*
X112561714Y-88471857D01*
X112561714Y-88329000D01*
X112609333Y-88233761D01*
X112704571Y-88186142D01*
X113228380Y-88186142D01*
X111609142Y-73064666D02*
X111656761Y-73112285D01*
X111704380Y-73255142D01*
X111704380Y-73350380D01*
X111656761Y-73493238D01*
X111561523Y-73588476D01*
X111466285Y-73636095D01*
X111275809Y-73683714D01*
X111132952Y-73683714D01*
X110942476Y-73636095D01*
X110847238Y-73588476D01*
X110752000Y-73493238D01*
X110704380Y-73350380D01*
X110704380Y-73255142D01*
X110752000Y-73112285D01*
X110799619Y-73064666D01*
X111132952Y-72493238D02*
X111085333Y-72588476D01*
X111037714Y-72636095D01*
X110942476Y-72683714D01*
X110894857Y-72683714D01*
X110799619Y-72636095D01*
X110752000Y-72588476D01*
X110704380Y-72493238D01*
X110704380Y-72302761D01*
X110752000Y-72207523D01*
X110799619Y-72159904D01*
X110894857Y-72112285D01*
X110942476Y-72112285D01*
X111037714Y-72159904D01*
X111085333Y-72207523D01*
X111132952Y-72302761D01*
X111132952Y-72493238D01*
X111180571Y-72588476D01*
X111228190Y-72636095D01*
X111323428Y-72683714D01*
X111513904Y-72683714D01*
X111609142Y-72636095D01*
X111656761Y-72588476D01*
X111704380Y-72493238D01*
X111704380Y-72302761D01*
X111656761Y-72207523D01*
X111609142Y-72159904D01*
X111513904Y-72112285D01*
X111323428Y-72112285D01*
X111228190Y-72159904D01*
X111180571Y-72207523D01*
X111132952Y-72302761D01*
X105814952Y-72842380D02*
X105243523Y-72842380D01*
X105529238Y-72842380D02*
X105529238Y-71842380D01*
X105434000Y-71985238D01*
X105338761Y-72080476D01*
X105243523Y-72128095D01*
X106434000Y-71842380D02*
X106529238Y-71842380D01*
X106624476Y-71890000D01*
X106672095Y-71937619D01*
X106719714Y-72032857D01*
X106767333Y-72223333D01*
X106767333Y-72461428D01*
X106719714Y-72651904D01*
X106672095Y-72747142D01*
X106624476Y-72794761D01*
X106529238Y-72842380D01*
X106434000Y-72842380D01*
X106338761Y-72794761D01*
X106291142Y-72747142D01*
X106243523Y-72651904D01*
X106195904Y-72461428D01*
X106195904Y-72223333D01*
X106243523Y-72032857D01*
X106291142Y-71937619D01*
X106338761Y-71890000D01*
X106434000Y-71842380D01*
X107386380Y-71842380D02*
X107481619Y-71842380D01*
X107576857Y-71890000D01*
X107624476Y-71937619D01*
X107672095Y-72032857D01*
X107719714Y-72223333D01*
X107719714Y-72461428D01*
X107672095Y-72651904D01*
X107624476Y-72747142D01*
X107576857Y-72794761D01*
X107481619Y-72842380D01*
X107386380Y-72842380D01*
X107291142Y-72794761D01*
X107243523Y-72747142D01*
X107195904Y-72651904D01*
X107148285Y-72461428D01*
X107148285Y-72223333D01*
X107195904Y-72032857D01*
X107243523Y-71937619D01*
X107291142Y-71890000D01*
X107386380Y-71842380D01*
X108148285Y-72175714D02*
X108148285Y-72842380D01*
X108148285Y-72270952D02*
X108195904Y-72223333D01*
X108291142Y-72175714D01*
X108434000Y-72175714D01*
X108529238Y-72223333D01*
X108576857Y-72318571D01*
X108576857Y-72842380D01*
X119864142Y-34456666D02*
X119911761Y-34504285D01*
X119959380Y-34647142D01*
X119959380Y-34742380D01*
X119911761Y-34885238D01*
X119816523Y-34980476D01*
X119721285Y-35028095D01*
X119530809Y-35075714D01*
X119387952Y-35075714D01*
X119197476Y-35028095D01*
X119102238Y-34980476D01*
X119007000Y-34885238D01*
X118959380Y-34742380D01*
X118959380Y-34647142D01*
X119007000Y-34504285D01*
X119054619Y-34456666D01*
X118959380Y-34123333D02*
X118959380Y-33456666D01*
X119959380Y-33885238D01*
X114323952Y-34488380D02*
X113752523Y-34488380D01*
X114038238Y-34488380D02*
X114038238Y-33488380D01*
X113943000Y-33631238D01*
X113847761Y-33726476D01*
X113752523Y-33774095D01*
X114943000Y-33488380D02*
X115038238Y-33488380D01*
X115133476Y-33536000D01*
X115181095Y-33583619D01*
X115228714Y-33678857D01*
X115276333Y-33869333D01*
X115276333Y-34107428D01*
X115228714Y-34297904D01*
X115181095Y-34393142D01*
X115133476Y-34440761D01*
X115038238Y-34488380D01*
X114943000Y-34488380D01*
X114847761Y-34440761D01*
X114800142Y-34393142D01*
X114752523Y-34297904D01*
X114704904Y-34107428D01*
X114704904Y-33869333D01*
X114752523Y-33678857D01*
X114800142Y-33583619D01*
X114847761Y-33536000D01*
X114943000Y-33488380D01*
X115895380Y-33488380D02*
X115990619Y-33488380D01*
X116085857Y-33536000D01*
X116133476Y-33583619D01*
X116181095Y-33678857D01*
X116228714Y-33869333D01*
X116228714Y-34107428D01*
X116181095Y-34297904D01*
X116133476Y-34393142D01*
X116085857Y-34440761D01*
X115990619Y-34488380D01*
X115895380Y-34488380D01*
X115800142Y-34440761D01*
X115752523Y-34393142D01*
X115704904Y-34297904D01*
X115657285Y-34107428D01*
X115657285Y-33869333D01*
X115704904Y-33678857D01*
X115752523Y-33583619D01*
X115800142Y-33536000D01*
X115895380Y-33488380D01*
X116657285Y-33821714D02*
X116657285Y-34488380D01*
X116657285Y-33916952D02*
X116704904Y-33869333D01*
X116800142Y-33821714D01*
X116943000Y-33821714D01*
X117038238Y-33869333D01*
X117085857Y-33964571D01*
X117085857Y-34488380D01*
X67667142Y-81700666D02*
X67714761Y-81748285D01*
X67762380Y-81891142D01*
X67762380Y-81986380D01*
X67714761Y-82129238D01*
X67619523Y-82224476D01*
X67524285Y-82272095D01*
X67333809Y-82319714D01*
X67190952Y-82319714D01*
X67000476Y-82272095D01*
X66905238Y-82224476D01*
X66810000Y-82129238D01*
X66762380Y-81986380D01*
X66762380Y-81891142D01*
X66810000Y-81748285D01*
X66857619Y-81700666D01*
X66762380Y-80843523D02*
X66762380Y-81034000D01*
X66810000Y-81129238D01*
X66857619Y-81176857D01*
X67000476Y-81272095D01*
X67190952Y-81319714D01*
X67571904Y-81319714D01*
X67667142Y-81272095D01*
X67714761Y-81224476D01*
X67762380Y-81129238D01*
X67762380Y-80938761D01*
X67714761Y-80843523D01*
X67667142Y-80795904D01*
X67571904Y-80748285D01*
X67333809Y-80748285D01*
X67238571Y-80795904D01*
X67190952Y-80843523D01*
X67143333Y-80938761D01*
X67143333Y-81129238D01*
X67190952Y-81224476D01*
X67238571Y-81272095D01*
X67333809Y-81319714D01*
X70508952Y-81986380D02*
X69937523Y-81986380D01*
X70223238Y-81986380D02*
X70223238Y-80986380D01*
X70128000Y-81129238D01*
X70032761Y-81224476D01*
X69937523Y-81272095D01*
X71128000Y-80986380D02*
X71223238Y-80986380D01*
X71318476Y-81034000D01*
X71366095Y-81081619D01*
X71413714Y-81176857D01*
X71461333Y-81367333D01*
X71461333Y-81605428D01*
X71413714Y-81795904D01*
X71366095Y-81891142D01*
X71318476Y-81938761D01*
X71223238Y-81986380D01*
X71128000Y-81986380D01*
X71032761Y-81938761D01*
X70985142Y-81891142D01*
X70937523Y-81795904D01*
X70889904Y-81605428D01*
X70889904Y-81367333D01*
X70937523Y-81176857D01*
X70985142Y-81081619D01*
X71032761Y-81034000D01*
X71128000Y-80986380D01*
X72080380Y-80986380D02*
X72175619Y-80986380D01*
X72270857Y-81034000D01*
X72318476Y-81081619D01*
X72366095Y-81176857D01*
X72413714Y-81367333D01*
X72413714Y-81605428D01*
X72366095Y-81795904D01*
X72318476Y-81891142D01*
X72270857Y-81938761D01*
X72175619Y-81986380D01*
X72080380Y-81986380D01*
X71985142Y-81938761D01*
X71937523Y-81891142D01*
X71889904Y-81795904D01*
X71842285Y-81605428D01*
X71842285Y-81367333D01*
X71889904Y-81176857D01*
X71937523Y-81081619D01*
X71985142Y-81034000D01*
X72080380Y-80986380D01*
X72842285Y-81319714D02*
X72842285Y-81986380D01*
X72842285Y-81414952D02*
X72889904Y-81367333D01*
X72985142Y-81319714D01*
X73128000Y-81319714D01*
X73223238Y-81367333D01*
X73270857Y-81462571D01*
X73270857Y-81986380D01*
X108164333Y-42140142D02*
X108116714Y-42187761D01*
X107973857Y-42235380D01*
X107878619Y-42235380D01*
X107735761Y-42187761D01*
X107640523Y-42092523D01*
X107592904Y-41997285D01*
X107545285Y-41806809D01*
X107545285Y-41663952D01*
X107592904Y-41473476D01*
X107640523Y-41378238D01*
X107735761Y-41283000D01*
X107878619Y-41235380D01*
X107973857Y-41235380D01*
X108116714Y-41283000D01*
X108164333Y-41330619D01*
X109069095Y-41235380D02*
X108592904Y-41235380D01*
X108545285Y-41711571D01*
X108592904Y-41663952D01*
X108688142Y-41616333D01*
X108926238Y-41616333D01*
X109021476Y-41663952D01*
X109069095Y-41711571D01*
X109116714Y-41806809D01*
X109116714Y-42044904D01*
X109069095Y-42140142D01*
X109021476Y-42187761D01*
X108926238Y-42235380D01*
X108688142Y-42235380D01*
X108592904Y-42187761D01*
X108545285Y-42140142D01*
X108402380Y-38711047D02*
X108402380Y-39282476D01*
X108402380Y-38996761D02*
X107402380Y-38996761D01*
X107545238Y-39092000D01*
X107640476Y-39187238D01*
X107688095Y-39282476D01*
X107402380Y-38092000D02*
X107402380Y-37996761D01*
X107450000Y-37901523D01*
X107497619Y-37853904D01*
X107592857Y-37806285D01*
X107783333Y-37758666D01*
X108021428Y-37758666D01*
X108211904Y-37806285D01*
X108307142Y-37853904D01*
X108354761Y-37901523D01*
X108402380Y-37996761D01*
X108402380Y-38092000D01*
X108354761Y-38187238D01*
X108307142Y-38234857D01*
X108211904Y-38282476D01*
X108021428Y-38330095D01*
X107783333Y-38330095D01*
X107592857Y-38282476D01*
X107497619Y-38234857D01*
X107450000Y-38187238D01*
X107402380Y-38092000D01*
X107402380Y-37139619D02*
X107402380Y-37044380D01*
X107450000Y-36949142D01*
X107497619Y-36901523D01*
X107592857Y-36853904D01*
X107783333Y-36806285D01*
X108021428Y-36806285D01*
X108211904Y-36853904D01*
X108307142Y-36901523D01*
X108354761Y-36949142D01*
X108402380Y-37044380D01*
X108402380Y-37139619D01*
X108354761Y-37234857D01*
X108307142Y-37282476D01*
X108211904Y-37330095D01*
X108021428Y-37377714D01*
X107783333Y-37377714D01*
X107592857Y-37330095D01*
X107497619Y-37282476D01*
X107450000Y-37234857D01*
X107402380Y-37139619D01*
X107735714Y-36377714D02*
X108402380Y-36377714D01*
X107830952Y-36377714D02*
X107783333Y-36330095D01*
X107735714Y-36234857D01*
X107735714Y-36092000D01*
X107783333Y-35996761D01*
X107878571Y-35949142D01*
X108402380Y-35949142D01*
X120356333Y-107037142D02*
X120308714Y-107084761D01*
X120165857Y-107132380D01*
X120070619Y-107132380D01*
X119927761Y-107084761D01*
X119832523Y-106989523D01*
X119784904Y-106894285D01*
X119737285Y-106703809D01*
X119737285Y-106560952D01*
X119784904Y-106370476D01*
X119832523Y-106275238D01*
X119927761Y-106180000D01*
X120070619Y-106132380D01*
X120165857Y-106132380D01*
X120308714Y-106180000D01*
X120356333Y-106227619D01*
X121213476Y-106465714D02*
X121213476Y-107132380D01*
X120975380Y-106084761D02*
X120737285Y-106799047D01*
X121356333Y-106799047D01*
X121483380Y-103481047D02*
X121483380Y-104052476D01*
X121483380Y-103766761D02*
X120483380Y-103766761D01*
X120626238Y-103862000D01*
X120721476Y-103957238D01*
X120769095Y-104052476D01*
X120483380Y-102862000D02*
X120483380Y-102766761D01*
X120531000Y-102671523D01*
X120578619Y-102623904D01*
X120673857Y-102576285D01*
X120864333Y-102528666D01*
X121102428Y-102528666D01*
X121292904Y-102576285D01*
X121388142Y-102623904D01*
X121435761Y-102671523D01*
X121483380Y-102766761D01*
X121483380Y-102862000D01*
X121435761Y-102957238D01*
X121388142Y-103004857D01*
X121292904Y-103052476D01*
X121102428Y-103100095D01*
X120864333Y-103100095D01*
X120673857Y-103052476D01*
X120578619Y-103004857D01*
X120531000Y-102957238D01*
X120483380Y-102862000D01*
X120483380Y-101909619D02*
X120483380Y-101814380D01*
X120531000Y-101719142D01*
X120578619Y-101671523D01*
X120673857Y-101623904D01*
X120864333Y-101576285D01*
X121102428Y-101576285D01*
X121292904Y-101623904D01*
X121388142Y-101671523D01*
X121435761Y-101719142D01*
X121483380Y-101814380D01*
X121483380Y-101909619D01*
X121435761Y-102004857D01*
X121388142Y-102052476D01*
X121292904Y-102100095D01*
X121102428Y-102147714D01*
X120864333Y-102147714D01*
X120673857Y-102100095D01*
X120578619Y-102052476D01*
X120531000Y-102004857D01*
X120483380Y-101909619D01*
X120816714Y-101147714D02*
X121483380Y-101147714D01*
X120911952Y-101147714D02*
X120864333Y-101100095D01*
X120816714Y-101004857D01*
X120816714Y-100862000D01*
X120864333Y-100766761D01*
X120959571Y-100719142D01*
X121483380Y-100719142D01*
X123277333Y-66270142D02*
X123229714Y-66317761D01*
X123086857Y-66365380D01*
X122991619Y-66365380D01*
X122848761Y-66317761D01*
X122753523Y-66222523D01*
X122705904Y-66127285D01*
X122658285Y-65936809D01*
X122658285Y-65793952D01*
X122705904Y-65603476D01*
X122753523Y-65508238D01*
X122848761Y-65413000D01*
X122991619Y-65365380D01*
X123086857Y-65365380D01*
X123229714Y-65413000D01*
X123277333Y-65460619D01*
X123610666Y-65365380D02*
X124229714Y-65365380D01*
X123896380Y-65746333D01*
X124039238Y-65746333D01*
X124134476Y-65793952D01*
X124182095Y-65841571D01*
X124229714Y-65936809D01*
X124229714Y-66174904D01*
X124182095Y-66270142D01*
X124134476Y-66317761D01*
X124039238Y-66365380D01*
X123753523Y-66365380D01*
X123658285Y-66317761D01*
X123610666Y-66270142D01*
X124150380Y-71223047D02*
X124150380Y-71794476D01*
X124150380Y-71508761D02*
X123150380Y-71508761D01*
X123293238Y-71604000D01*
X123388476Y-71699238D01*
X123436095Y-71794476D01*
X123150380Y-70604000D02*
X123150380Y-70508761D01*
X123198000Y-70413523D01*
X123245619Y-70365904D01*
X123340857Y-70318285D01*
X123531333Y-70270666D01*
X123769428Y-70270666D01*
X123959904Y-70318285D01*
X124055142Y-70365904D01*
X124102761Y-70413523D01*
X124150380Y-70508761D01*
X124150380Y-70604000D01*
X124102761Y-70699238D01*
X124055142Y-70746857D01*
X123959904Y-70794476D01*
X123769428Y-70842095D01*
X123531333Y-70842095D01*
X123340857Y-70794476D01*
X123245619Y-70746857D01*
X123198000Y-70699238D01*
X123150380Y-70604000D01*
X123150380Y-69651619D02*
X123150380Y-69556380D01*
X123198000Y-69461142D01*
X123245619Y-69413523D01*
X123340857Y-69365904D01*
X123531333Y-69318285D01*
X123769428Y-69318285D01*
X123959904Y-69365904D01*
X124055142Y-69413523D01*
X124102761Y-69461142D01*
X124150380Y-69556380D01*
X124150380Y-69651619D01*
X124102761Y-69746857D01*
X124055142Y-69794476D01*
X123959904Y-69842095D01*
X123769428Y-69889714D01*
X123531333Y-69889714D01*
X123340857Y-69842095D01*
X123245619Y-69794476D01*
X123198000Y-69746857D01*
X123150380Y-69651619D01*
X123483714Y-68889714D02*
X124150380Y-68889714D01*
X123578952Y-68889714D02*
X123531333Y-68842095D01*
X123483714Y-68746857D01*
X123483714Y-68604000D01*
X123531333Y-68508761D01*
X123626571Y-68461142D01*
X124150380Y-68461142D01*
X119483142Y-53252666D02*
X119530761Y-53300285D01*
X119578380Y-53443142D01*
X119578380Y-53538380D01*
X119530761Y-53681238D01*
X119435523Y-53776476D01*
X119340285Y-53824095D01*
X119149809Y-53871714D01*
X119006952Y-53871714D01*
X118816476Y-53824095D01*
X118721238Y-53776476D01*
X118626000Y-53681238D01*
X118578380Y-53538380D01*
X118578380Y-53443142D01*
X118626000Y-53300285D01*
X118673619Y-53252666D01*
X119578380Y-52300285D02*
X119578380Y-52871714D01*
X119578380Y-52586000D02*
X118578380Y-52586000D01*
X118721238Y-52681238D01*
X118816476Y-52776476D01*
X118864095Y-52871714D01*
X117800380Y-56872047D02*
X117800380Y-57443476D01*
X117800380Y-57157761D02*
X116800380Y-57157761D01*
X116943238Y-57253000D01*
X117038476Y-57348238D01*
X117086095Y-57443476D01*
X116800380Y-56253000D02*
X116800380Y-56157761D01*
X116848000Y-56062523D01*
X116895619Y-56014904D01*
X116990857Y-55967285D01*
X117181333Y-55919666D01*
X117419428Y-55919666D01*
X117609904Y-55967285D01*
X117705142Y-56014904D01*
X117752761Y-56062523D01*
X117800380Y-56157761D01*
X117800380Y-56253000D01*
X117752761Y-56348238D01*
X117705142Y-56395857D01*
X117609904Y-56443476D01*
X117419428Y-56491095D01*
X117181333Y-56491095D01*
X116990857Y-56443476D01*
X116895619Y-56395857D01*
X116848000Y-56348238D01*
X116800380Y-56253000D01*
X116800380Y-55300619D02*
X116800380Y-55205380D01*
X116848000Y-55110142D01*
X116895619Y-55062523D01*
X116990857Y-55014904D01*
X117181333Y-54967285D01*
X117419428Y-54967285D01*
X117609904Y-55014904D01*
X117705142Y-55062523D01*
X117752761Y-55110142D01*
X117800380Y-55205380D01*
X117800380Y-55300619D01*
X117752761Y-55395857D01*
X117705142Y-55443476D01*
X117609904Y-55491095D01*
X117419428Y-55538714D01*
X117181333Y-55538714D01*
X116990857Y-55491095D01*
X116895619Y-55443476D01*
X116848000Y-55395857D01*
X116800380Y-55300619D01*
X117133714Y-54538714D02*
X117800380Y-54538714D01*
X117228952Y-54538714D02*
X117181333Y-54491095D01*
X117133714Y-54395857D01*
X117133714Y-54253000D01*
X117181333Y-54157761D01*
X117276571Y-54110142D01*
X117800380Y-54110142D01*
X105560857Y-98925142D02*
X105513238Y-98877523D01*
X105465619Y-98734666D01*
X105465619Y-98639428D01*
X105513238Y-98496571D01*
X105608476Y-98401333D01*
X105703714Y-98353714D01*
X105894190Y-98306095D01*
X106037047Y-98306095D01*
X106227523Y-98353714D01*
X106322761Y-98401333D01*
X106418000Y-98496571D01*
X106465619Y-98639428D01*
X106465619Y-98734666D01*
X106418000Y-98877523D01*
X106370380Y-98925142D01*
X105465619Y-99877523D02*
X105465619Y-99306095D01*
X105465619Y-99591809D02*
X106465619Y-99591809D01*
X106322761Y-99496571D01*
X106227523Y-99401333D01*
X106179904Y-99306095D01*
X106465619Y-100734666D02*
X106465619Y-100544190D01*
X106418000Y-100448952D01*
X106370380Y-100401333D01*
X106227523Y-100306095D01*
X106037047Y-100258476D01*
X105656095Y-100258476D01*
X105560857Y-100306095D01*
X105513238Y-100353714D01*
X105465619Y-100448952D01*
X105465619Y-100639428D01*
X105513238Y-100734666D01*
X105560857Y-100782285D01*
X105656095Y-100829904D01*
X105894190Y-100829904D01*
X105989428Y-100782285D01*
X106037047Y-100734666D01*
X106084666Y-100639428D01*
X106084666Y-100448952D01*
X106037047Y-100353714D01*
X105989428Y-100306095D01*
X105894190Y-100258476D01*
X108974095Y-99020380D02*
X109593142Y-99020380D01*
X109259809Y-99401333D01*
X109402666Y-99401333D01*
X109497904Y-99448952D01*
X109545523Y-99496571D01*
X109593142Y-99591809D01*
X109593142Y-99829904D01*
X109545523Y-99925142D01*
X109497904Y-99972761D01*
X109402666Y-100020380D01*
X109116952Y-100020380D01*
X109021714Y-99972761D01*
X108974095Y-99925142D01*
X109926476Y-99020380D02*
X110545523Y-99020380D01*
X110212190Y-99401333D01*
X110355047Y-99401333D01*
X110450285Y-99448952D01*
X110497904Y-99496571D01*
X110545523Y-99591809D01*
X110545523Y-99829904D01*
X110497904Y-99925142D01*
X110450285Y-99972761D01*
X110355047Y-100020380D01*
X110069333Y-100020380D01*
X109974095Y-99972761D01*
X109926476Y-99925142D01*
X110974095Y-99353714D02*
X110974095Y-100353714D01*
X110974095Y-99401333D02*
X111069333Y-99353714D01*
X111259809Y-99353714D01*
X111355047Y-99401333D01*
X111402666Y-99448952D01*
X111450285Y-99544190D01*
X111450285Y-99829904D01*
X111402666Y-99925142D01*
X111355047Y-99972761D01*
X111259809Y-100020380D01*
X111069333Y-100020380D01*
X110974095Y-99972761D01*
X65746380Y-28273333D02*
X66460666Y-28273333D01*
X66603523Y-28320952D01*
X66698761Y-28416190D01*
X66746380Y-28559047D01*
X66746380Y-28654285D01*
X65841619Y-27844761D02*
X65794000Y-27797142D01*
X65746380Y-27701904D01*
X65746380Y-27463809D01*
X65794000Y-27368571D01*
X65841619Y-27320952D01*
X65936857Y-27273333D01*
X66032095Y-27273333D01*
X66174952Y-27320952D01*
X66746380Y-27892380D01*
X66746380Y-27273333D01*
X82725333Y-26090571D02*
X82392000Y-26090571D01*
X82392000Y-26614380D02*
X82392000Y-25614380D01*
X82868190Y-25614380D01*
X83249142Y-26614380D02*
X83249142Y-25614380D01*
X83487238Y-25614380D01*
X83630095Y-25662000D01*
X83725333Y-25757238D01*
X83772952Y-25852476D01*
X83820571Y-26042952D01*
X83820571Y-26185809D01*
X83772952Y-26376285D01*
X83725333Y-26471523D01*
X83630095Y-26566761D01*
X83487238Y-26614380D01*
X83249142Y-26614380D01*
X84249142Y-26614380D02*
X84249142Y-25614380D01*
X84487238Y-25614380D01*
X84630095Y-25662000D01*
X84725333Y-25757238D01*
X84772952Y-25852476D01*
X84820571Y-26042952D01*
X84820571Y-26185809D01*
X84772952Y-26376285D01*
X84725333Y-26471523D01*
X84630095Y-26566761D01*
X84487238Y-26614380D01*
X84249142Y-26614380D01*
X85011047Y-26709619D02*
X85772952Y-26709619D01*
X86582476Y-26519142D02*
X86534857Y-26566761D01*
X86392000Y-26614380D01*
X86296761Y-26614380D01*
X86153904Y-26566761D01*
X86058666Y-26471523D01*
X86011047Y-26376285D01*
X85963428Y-26185809D01*
X85963428Y-26042952D01*
X86011047Y-25852476D01*
X86058666Y-25757238D01*
X86153904Y-25662000D01*
X86296761Y-25614380D01*
X86392000Y-25614380D01*
X86534857Y-25662000D01*
X86582476Y-25709619D01*
X87201523Y-25614380D02*
X87392000Y-25614380D01*
X87487238Y-25662000D01*
X87582476Y-25757238D01*
X87630095Y-25947714D01*
X87630095Y-26281047D01*
X87582476Y-26471523D01*
X87487238Y-26566761D01*
X87392000Y-26614380D01*
X87201523Y-26614380D01*
X87106285Y-26566761D01*
X87011047Y-26471523D01*
X86963428Y-26281047D01*
X86963428Y-25947714D01*
X87011047Y-25757238D01*
X87106285Y-25662000D01*
X87201523Y-25614380D01*
X88058666Y-26614380D02*
X88058666Y-25614380D01*
X88630095Y-26614380D01*
X88630095Y-25614380D01*
X89106285Y-26614380D02*
X89106285Y-25614380D01*
X89677714Y-26614380D01*
X89677714Y-25614380D01*
X90153904Y-26090571D02*
X90487238Y-26090571D01*
X90630095Y-26614380D02*
X90153904Y-26614380D01*
X90153904Y-25614380D01*
X90630095Y-25614380D01*
X91630095Y-26519142D02*
X91582476Y-26566761D01*
X91439619Y-26614380D01*
X91344380Y-26614380D01*
X91201523Y-26566761D01*
X91106285Y-26471523D01*
X91058666Y-26376285D01*
X91011047Y-26185809D01*
X91011047Y-26042952D01*
X91058666Y-25852476D01*
X91106285Y-25757238D01*
X91201523Y-25662000D01*
X91344380Y-25614380D01*
X91439619Y-25614380D01*
X91582476Y-25662000D01*
X91630095Y-25709619D01*
X91915809Y-25614380D02*
X92487238Y-25614380D01*
X92201523Y-26614380D02*
X92201523Y-25614380D01*
X93011047Y-25614380D02*
X93201523Y-25614380D01*
X93296761Y-25662000D01*
X93392000Y-25757238D01*
X93439619Y-25947714D01*
X93439619Y-26281047D01*
X93392000Y-26471523D01*
X93296761Y-26566761D01*
X93201523Y-26614380D01*
X93011047Y-26614380D01*
X92915809Y-26566761D01*
X92820571Y-26471523D01*
X92772952Y-26281047D01*
X92772952Y-25947714D01*
X92820571Y-25757238D01*
X92915809Y-25662000D01*
X93011047Y-25614380D01*
X94439619Y-26614380D02*
X94106285Y-26138190D01*
X93868190Y-26614380D02*
X93868190Y-25614380D01*
X94249142Y-25614380D01*
X94344380Y-25662000D01*
X94392000Y-25709619D01*
X94439619Y-25804857D01*
X94439619Y-25947714D01*
X94392000Y-26042952D01*
X94344380Y-26090571D01*
X94249142Y-26138190D01*
X93868190Y-26138190D01*
X139452904Y-33726380D02*
X139452904Y-32726380D01*
X139691000Y-32726380D01*
X139833857Y-32774000D01*
X139929095Y-32869238D01*
X139976714Y-32964476D01*
X140024333Y-33154952D01*
X140024333Y-33297809D01*
X139976714Y-33488285D01*
X139929095Y-33583523D01*
X139833857Y-33678761D01*
X139691000Y-33726380D01*
X139452904Y-33726380D01*
X140976714Y-33726380D02*
X140405285Y-33726380D01*
X140691000Y-33726380D02*
X140691000Y-32726380D01*
X140595761Y-32869238D01*
X140500523Y-32964476D01*
X140405285Y-33012095D01*
X138564047Y-41473380D02*
X138087857Y-41473380D01*
X138087857Y-40473380D01*
X138897380Y-41473380D02*
X138897380Y-40473380D01*
X139135476Y-40473380D01*
X139278333Y-40521000D01*
X139373571Y-40616238D01*
X139421190Y-40711476D01*
X139468809Y-40901952D01*
X139468809Y-41044809D01*
X139421190Y-41235285D01*
X139373571Y-41330523D01*
X139278333Y-41425761D01*
X139135476Y-41473380D01*
X138897380Y-41473380D01*
X139659285Y-41568619D02*
X140421190Y-41568619D01*
X140611666Y-41187666D02*
X141087857Y-41187666D01*
X140516428Y-41473380D02*
X140849761Y-40473380D01*
X141183095Y-41473380D01*
X142087857Y-41378142D02*
X142040238Y-41425761D01*
X141897380Y-41473380D01*
X141802142Y-41473380D01*
X141659285Y-41425761D01*
X141564047Y-41330523D01*
X141516428Y-41235285D01*
X141468809Y-41044809D01*
X141468809Y-40901952D01*
X141516428Y-40711476D01*
X141564047Y-40616238D01*
X141659285Y-40521000D01*
X141802142Y-40473380D01*
X141897380Y-40473380D01*
X142040238Y-40521000D01*
X142087857Y-40568619D01*
X142373571Y-40473380D02*
X142945000Y-40473380D01*
X142659285Y-41473380D02*
X142659285Y-40473380D01*
X118387904Y-113609380D02*
X118387904Y-112609380D01*
X118626000Y-112609380D01*
X118768857Y-112657000D01*
X118864095Y-112752238D01*
X118911714Y-112847476D01*
X118959333Y-113037952D01*
X118959333Y-113180809D01*
X118911714Y-113371285D01*
X118864095Y-113466523D01*
X118768857Y-113561761D01*
X118626000Y-113609380D01*
X118387904Y-113609380D01*
X119816476Y-112942714D02*
X119816476Y-113609380D01*
X119578380Y-112561761D02*
X119340285Y-113276047D01*
X119959333Y-113276047D01*
X120667142Y-117484380D02*
X120095714Y-117484380D01*
X120381428Y-117484380D02*
X120381428Y-116484380D01*
X120286190Y-116627238D01*
X120190952Y-116722476D01*
X120095714Y-116770095D01*
X121095714Y-117484380D02*
X121095714Y-116484380D01*
X121667142Y-117484380D01*
X121667142Y-116484380D01*
X122571904Y-116817714D02*
X122571904Y-117484380D01*
X122333809Y-116436761D02*
X122095714Y-117151047D01*
X122714761Y-117151047D01*
X123619523Y-117484380D02*
X123048095Y-117484380D01*
X123333809Y-117484380D02*
X123333809Y-116484380D01*
X123238571Y-116627238D01*
X123143333Y-116722476D01*
X123048095Y-116770095D01*
X124476666Y-116817714D02*
X124476666Y-117484380D01*
X124238571Y-116436761D02*
X124000476Y-117151047D01*
X124619523Y-117151047D01*
X125143333Y-116912952D02*
X125048095Y-116865333D01*
X125000476Y-116817714D01*
X124952857Y-116722476D01*
X124952857Y-116674857D01*
X125000476Y-116579619D01*
X125048095Y-116532000D01*
X125143333Y-116484380D01*
X125333809Y-116484380D01*
X125429047Y-116532000D01*
X125476666Y-116579619D01*
X125524285Y-116674857D01*
X125524285Y-116722476D01*
X125476666Y-116817714D01*
X125429047Y-116865333D01*
X125333809Y-116912952D01*
X125143333Y-116912952D01*
X125048095Y-116960571D01*
X125000476Y-117008190D01*
X124952857Y-117103428D01*
X124952857Y-117293904D01*
X125000476Y-117389142D01*
X125048095Y-117436761D01*
X125143333Y-117484380D01*
X125333809Y-117484380D01*
X125429047Y-117436761D01*
X125476666Y-117389142D01*
X125524285Y-117293904D01*
X125524285Y-117103428D01*
X125476666Y-117008190D01*
X125429047Y-116960571D01*
X125333809Y-116912952D01*
X131214904Y-113609380D02*
X131214904Y-112609380D01*
X131453000Y-112609380D01*
X131595857Y-112657000D01*
X131691095Y-112752238D01*
X131738714Y-112847476D01*
X131786333Y-113037952D01*
X131786333Y-113180809D01*
X131738714Y-113371285D01*
X131691095Y-113466523D01*
X131595857Y-113561761D01*
X131453000Y-113609380D01*
X131214904Y-113609380D01*
X132119666Y-112609380D02*
X132738714Y-112609380D01*
X132405380Y-112990333D01*
X132548238Y-112990333D01*
X132643476Y-113037952D01*
X132691095Y-113085571D01*
X132738714Y-113180809D01*
X132738714Y-113418904D01*
X132691095Y-113514142D01*
X132643476Y-113561761D01*
X132548238Y-113609380D01*
X132262523Y-113609380D01*
X132167285Y-113561761D01*
X132119666Y-113514142D01*
X133039142Y-117484380D02*
X132467714Y-117484380D01*
X132753428Y-117484380D02*
X132753428Y-116484380D01*
X132658190Y-116627238D01*
X132562952Y-116722476D01*
X132467714Y-116770095D01*
X133467714Y-117484380D02*
X133467714Y-116484380D01*
X134039142Y-117484380D01*
X134039142Y-116484380D01*
X134943904Y-116817714D02*
X134943904Y-117484380D01*
X134705809Y-116436761D02*
X134467714Y-117151047D01*
X135086761Y-117151047D01*
X135991523Y-117484380D02*
X135420095Y-117484380D01*
X135705809Y-117484380D02*
X135705809Y-116484380D01*
X135610571Y-116627238D01*
X135515333Y-116722476D01*
X135420095Y-116770095D01*
X136848666Y-116817714D02*
X136848666Y-117484380D01*
X136610571Y-116436761D02*
X136372476Y-117151047D01*
X136991523Y-117151047D01*
X137515333Y-116912952D02*
X137420095Y-116865333D01*
X137372476Y-116817714D01*
X137324857Y-116722476D01*
X137324857Y-116674857D01*
X137372476Y-116579619D01*
X137420095Y-116532000D01*
X137515333Y-116484380D01*
X137705809Y-116484380D01*
X137801047Y-116532000D01*
X137848666Y-116579619D01*
X137896285Y-116674857D01*
X137896285Y-116722476D01*
X137848666Y-116817714D01*
X137801047Y-116865333D01*
X137705809Y-116912952D01*
X137515333Y-116912952D01*
X137420095Y-116960571D01*
X137372476Y-117008190D01*
X137324857Y-117103428D01*
X137324857Y-117293904D01*
X137372476Y-117389142D01*
X137420095Y-117436761D01*
X137515333Y-117484380D01*
X137705809Y-117484380D01*
X137801047Y-117436761D01*
X137848666Y-117389142D01*
X137896285Y-117293904D01*
X137896285Y-117103428D01*
X137848666Y-117008190D01*
X137801047Y-116960571D01*
X137705809Y-116912952D01*
X143660904Y-113609380D02*
X143660904Y-112609380D01*
X143899000Y-112609380D01*
X144041857Y-112657000D01*
X144137095Y-112752238D01*
X144184714Y-112847476D01*
X144232333Y-113037952D01*
X144232333Y-113180809D01*
X144184714Y-113371285D01*
X144137095Y-113466523D01*
X144041857Y-113561761D01*
X143899000Y-113609380D01*
X143660904Y-113609380D01*
X144613285Y-112704619D02*
X144660904Y-112657000D01*
X144756142Y-112609380D01*
X144994238Y-112609380D01*
X145089476Y-112657000D01*
X145137095Y-112704619D01*
X145184714Y-112799857D01*
X145184714Y-112895095D01*
X145137095Y-113037952D01*
X144565666Y-113609380D01*
X145184714Y-113609380D01*
X146047142Y-117738380D02*
X145475714Y-117738380D01*
X145761428Y-117738380D02*
X145761428Y-116738380D01*
X145666190Y-116881238D01*
X145570952Y-116976476D01*
X145475714Y-117024095D01*
X146475714Y-117738380D02*
X146475714Y-116738380D01*
X147047142Y-117738380D01*
X147047142Y-116738380D01*
X147951904Y-117071714D02*
X147951904Y-117738380D01*
X147713809Y-116690761D02*
X147475714Y-117405047D01*
X148094761Y-117405047D01*
X148999523Y-117738380D02*
X148428095Y-117738380D01*
X148713809Y-117738380D02*
X148713809Y-116738380D01*
X148618571Y-116881238D01*
X148523333Y-116976476D01*
X148428095Y-117024095D01*
X149856666Y-117071714D02*
X149856666Y-117738380D01*
X149618571Y-116690761D02*
X149380476Y-117405047D01*
X149999523Y-117405047D01*
X150523333Y-117166952D02*
X150428095Y-117119333D01*
X150380476Y-117071714D01*
X150332857Y-116976476D01*
X150332857Y-116928857D01*
X150380476Y-116833619D01*
X150428095Y-116786000D01*
X150523333Y-116738380D01*
X150713809Y-116738380D01*
X150809047Y-116786000D01*
X150856666Y-116833619D01*
X150904285Y-116928857D01*
X150904285Y-116976476D01*
X150856666Y-117071714D01*
X150809047Y-117119333D01*
X150713809Y-117166952D01*
X150523333Y-117166952D01*
X150428095Y-117214571D01*
X150380476Y-117262190D01*
X150332857Y-117357428D01*
X150332857Y-117547904D01*
X150380476Y-117643142D01*
X150428095Y-117690761D01*
X150523333Y-117738380D01*
X150713809Y-117738380D01*
X150809047Y-117690761D01*
X150856666Y-117643142D01*
X150904285Y-117547904D01*
X150904285Y-117357428D01*
X150856666Y-117262190D01*
X150809047Y-117214571D01*
X150713809Y-117166952D01*
X89599904Y-33726380D02*
X89599904Y-32726380D01*
X89838000Y-32726380D01*
X89980857Y-32774000D01*
X90076095Y-32869238D01*
X90123714Y-32964476D01*
X90171333Y-33154952D01*
X90171333Y-33297809D01*
X90123714Y-33488285D01*
X90076095Y-33583523D01*
X89980857Y-33678761D01*
X89838000Y-33726380D01*
X89599904Y-33726380D01*
X91076095Y-32726380D02*
X90599904Y-32726380D01*
X90552285Y-33202571D01*
X90599904Y-33154952D01*
X90695142Y-33107333D01*
X90933238Y-33107333D01*
X91028476Y-33154952D01*
X91076095Y-33202571D01*
X91123714Y-33297809D01*
X91123714Y-33535904D01*
X91076095Y-33631142D01*
X91028476Y-33678761D01*
X90933238Y-33726380D01*
X90695142Y-33726380D01*
X90599904Y-33678761D01*
X90552285Y-33631142D01*
X88161142Y-41346380D02*
X87684952Y-41346380D01*
X87684952Y-40346380D01*
X88494476Y-41346380D02*
X88494476Y-40346380D01*
X88732571Y-40346380D01*
X88875428Y-40394000D01*
X88970666Y-40489238D01*
X89018285Y-40584476D01*
X89065904Y-40774952D01*
X89065904Y-40917809D01*
X89018285Y-41108285D01*
X88970666Y-41203523D01*
X88875428Y-41298761D01*
X88732571Y-41346380D01*
X88494476Y-41346380D01*
X89256380Y-41441619D02*
X90018285Y-41441619D01*
X90256380Y-41346380D02*
X90256380Y-40346380D01*
X90637333Y-40346380D01*
X90732571Y-40394000D01*
X90780190Y-40441619D01*
X90827809Y-40536857D01*
X90827809Y-40679714D01*
X90780190Y-40774952D01*
X90732571Y-40822571D01*
X90637333Y-40870190D01*
X90256380Y-40870190D01*
X91161142Y-40346380D02*
X91399238Y-41346380D01*
X91589714Y-40632095D01*
X91780190Y-41346380D01*
X92018285Y-40346380D01*
X92970666Y-41346380D02*
X92637333Y-40870190D01*
X92399238Y-41346380D02*
X92399238Y-40346380D01*
X92780190Y-40346380D01*
X92875428Y-40394000D01*
X92923047Y-40441619D01*
X92970666Y-40536857D01*
X92970666Y-40679714D01*
X92923047Y-40774952D01*
X92875428Y-40822571D01*
X92780190Y-40870190D01*
X92399238Y-40870190D01*
X105560857Y-102481142D02*
X105513238Y-102433523D01*
X105465619Y-102290666D01*
X105465619Y-102195428D01*
X105513238Y-102052571D01*
X105608476Y-101957333D01*
X105703714Y-101909714D01*
X105894190Y-101862095D01*
X106037047Y-101862095D01*
X106227523Y-101909714D01*
X106322761Y-101957333D01*
X106418000Y-102052571D01*
X106465619Y-102195428D01*
X106465619Y-102290666D01*
X106418000Y-102433523D01*
X106370380Y-102481142D01*
X105465619Y-103433523D02*
X105465619Y-102862095D01*
X105465619Y-103147809D02*
X106465619Y-103147809D01*
X106322761Y-103052571D01*
X106227523Y-102957333D01*
X106179904Y-102862095D01*
X106465619Y-103766857D02*
X106465619Y-104385904D01*
X106084666Y-104052571D01*
X106084666Y-104195428D01*
X106037047Y-104290666D01*
X105989428Y-104338285D01*
X105894190Y-104385904D01*
X105656095Y-104385904D01*
X105560857Y-104338285D01*
X105513238Y-104290666D01*
X105465619Y-104195428D01*
X105465619Y-103909714D01*
X105513238Y-103814476D01*
X105560857Y-103766857D01*
X109523714Y-103576380D02*
X109095142Y-103576380D01*
X109309428Y-103576380D02*
X109309428Y-102576380D01*
X109238000Y-102719238D01*
X109166571Y-102814476D01*
X109095142Y-102862095D01*
X109988000Y-102576380D02*
X110059428Y-102576380D01*
X110130857Y-102624000D01*
X110166571Y-102671619D01*
X110202285Y-102766857D01*
X110238000Y-102957333D01*
X110238000Y-103195428D01*
X110202285Y-103385904D01*
X110166571Y-103481142D01*
X110130857Y-103528761D01*
X110059428Y-103576380D01*
X109988000Y-103576380D01*
X109916571Y-103528761D01*
X109880857Y-103481142D01*
X109845142Y-103385904D01*
X109809428Y-103195428D01*
X109809428Y-102957333D01*
X109845142Y-102766857D01*
X109880857Y-102671619D01*
X109916571Y-102624000D01*
X109988000Y-102576380D01*
X110702285Y-102576380D02*
X110773714Y-102576380D01*
X110845142Y-102624000D01*
X110880857Y-102671619D01*
X110916571Y-102766857D01*
X110952285Y-102957333D01*
X110952285Y-103195428D01*
X110916571Y-103385904D01*
X110880857Y-103481142D01*
X110845142Y-103528761D01*
X110773714Y-103576380D01*
X110702285Y-103576380D01*
X110630857Y-103528761D01*
X110595142Y-103481142D01*
X110559428Y-103385904D01*
X110523714Y-103195428D01*
X110523714Y-102957333D01*
X110559428Y-102766857D01*
X110595142Y-102671619D01*
X110630857Y-102624000D01*
X110702285Y-102576380D01*
X111273714Y-102909714D02*
X111273714Y-103909714D01*
X111273714Y-102957333D02*
X111345142Y-102909714D01*
X111488000Y-102909714D01*
X111559428Y-102957333D01*
X111595142Y-103004952D01*
X111630857Y-103100190D01*
X111630857Y-103385904D01*
X111595142Y-103481142D01*
X111559428Y-103528761D01*
X111488000Y-103576380D01*
X111345142Y-103576380D01*
X111273714Y-103528761D01*
X95861142Y-113799857D02*
X95908761Y-113847476D01*
X95956380Y-113990333D01*
X95956380Y-114085571D01*
X95908761Y-114228428D01*
X95813523Y-114323666D01*
X95718285Y-114371285D01*
X95527809Y-114418904D01*
X95384952Y-114418904D01*
X95194476Y-114371285D01*
X95099238Y-114323666D01*
X95004000Y-114228428D01*
X94956380Y-114085571D01*
X94956380Y-113990333D01*
X95004000Y-113847476D01*
X95051619Y-113799857D01*
X95956380Y-112847476D02*
X95956380Y-113418904D01*
X95956380Y-113133190D02*
X94956380Y-113133190D01*
X95099238Y-113228428D01*
X95194476Y-113323666D01*
X95242095Y-113418904D01*
X95289714Y-111990333D02*
X95956380Y-111990333D01*
X94908761Y-112228428D02*
X95623047Y-112466523D01*
X95623047Y-111847476D01*
X98829952Y-114371380D02*
X98258523Y-114371380D01*
X98544238Y-114371380D02*
X98544238Y-113371380D01*
X98449000Y-113514238D01*
X98353761Y-113609476D01*
X98258523Y-113657095D01*
X99449000Y-113371380D02*
X99544238Y-113371380D01*
X99639476Y-113419000D01*
X99687095Y-113466619D01*
X99734714Y-113561857D01*
X99782333Y-113752333D01*
X99782333Y-113990428D01*
X99734714Y-114180904D01*
X99687095Y-114276142D01*
X99639476Y-114323761D01*
X99544238Y-114371380D01*
X99449000Y-114371380D01*
X99353761Y-114323761D01*
X99306142Y-114276142D01*
X99258523Y-114180904D01*
X99210904Y-113990428D01*
X99210904Y-113752333D01*
X99258523Y-113561857D01*
X99306142Y-113466619D01*
X99353761Y-113419000D01*
X99449000Y-113371380D01*
X100401380Y-113371380D02*
X100496619Y-113371380D01*
X100591857Y-113419000D01*
X100639476Y-113466619D01*
X100687095Y-113561857D01*
X100734714Y-113752333D01*
X100734714Y-113990428D01*
X100687095Y-114180904D01*
X100639476Y-114276142D01*
X100591857Y-114323761D01*
X100496619Y-114371380D01*
X100401380Y-114371380D01*
X100306142Y-114323761D01*
X100258523Y-114276142D01*
X100210904Y-114180904D01*
X100163285Y-113990428D01*
X100163285Y-113752333D01*
X100210904Y-113561857D01*
X100258523Y-113466619D01*
X100306142Y-113419000D01*
X100401380Y-113371380D01*
X101163285Y-113704714D02*
X101163285Y-114371380D01*
X101163285Y-113799952D02*
X101210904Y-113752333D01*
X101306142Y-113704714D01*
X101449000Y-113704714D01*
X101544238Y-113752333D01*
X101591857Y-113847571D01*
X101591857Y-114371380D01*
X98952190Y-104762190D02*
X99428380Y-104762190D01*
X98428380Y-105095523D02*
X98952190Y-104762190D01*
X98428380Y-104428857D01*
X99428380Y-103571714D02*
X99428380Y-104143142D01*
X99428380Y-103857428D02*
X98428380Y-103857428D01*
X98571238Y-103952666D01*
X98666476Y-104047904D01*
X98714095Y-104143142D01*
X102158952Y-107476476D02*
X102111333Y-107571714D01*
X102063714Y-107619333D01*
X101968476Y-107666952D01*
X101920857Y-107666952D01*
X101825619Y-107619333D01*
X101778000Y-107571714D01*
X101730380Y-107476476D01*
X101730380Y-107286000D01*
X101778000Y-107190761D01*
X101825619Y-107143142D01*
X101920857Y-107095523D01*
X101968476Y-107095523D01*
X102063714Y-107143142D01*
X102111333Y-107190761D01*
X102158952Y-107286000D01*
X102158952Y-107476476D01*
X102206571Y-107571714D01*
X102254190Y-107619333D01*
X102349428Y-107666952D01*
X102539904Y-107666952D01*
X102635142Y-107619333D01*
X102682761Y-107571714D01*
X102730380Y-107476476D01*
X102730380Y-107286000D01*
X102682761Y-107190761D01*
X102635142Y-107143142D01*
X102539904Y-107095523D01*
X102349428Y-107095523D01*
X102254190Y-107143142D01*
X102206571Y-107190761D01*
X102158952Y-107286000D01*
X102635142Y-106666952D02*
X102682761Y-106619333D01*
X102730380Y-106666952D01*
X102682761Y-106714571D01*
X102635142Y-106666952D01*
X102730380Y-106666952D01*
X101730380Y-106000285D02*
X101730380Y-105905047D01*
X101778000Y-105809809D01*
X101825619Y-105762190D01*
X101920857Y-105714571D01*
X102111333Y-105666952D01*
X102349428Y-105666952D01*
X102539904Y-105714571D01*
X102635142Y-105762190D01*
X102682761Y-105809809D01*
X102730380Y-105905047D01*
X102730380Y-106000285D01*
X102682761Y-106095523D01*
X102635142Y-106143142D01*
X102539904Y-106190761D01*
X102349428Y-106238380D01*
X102111333Y-106238380D01*
X101920857Y-106190761D01*
X101825619Y-106143142D01*
X101778000Y-106095523D01*
X101730380Y-106000285D01*
X101730380Y-105047904D02*
X101730380Y-104952666D01*
X101778000Y-104857428D01*
X101825619Y-104809809D01*
X101920857Y-104762190D01*
X102111333Y-104714571D01*
X102349428Y-104714571D01*
X102539904Y-104762190D01*
X102635142Y-104809809D01*
X102682761Y-104857428D01*
X102730380Y-104952666D01*
X102730380Y-105047904D01*
X102682761Y-105143142D01*
X102635142Y-105190761D01*
X102539904Y-105238380D01*
X102349428Y-105286000D01*
X102111333Y-105286000D01*
X101920857Y-105238380D01*
X101825619Y-105190761D01*
X101778000Y-105143142D01*
X101730380Y-105047904D01*
X101730380Y-104095523D02*
X101730380Y-104000285D01*
X101778000Y-103905047D01*
X101825619Y-103857428D01*
X101920857Y-103809809D01*
X102111333Y-103762190D01*
X102349428Y-103762190D01*
X102539904Y-103809809D01*
X102635142Y-103857428D01*
X102682761Y-103905047D01*
X102730380Y-104000285D01*
X102730380Y-104095523D01*
X102682761Y-104190761D01*
X102635142Y-104238380D01*
X102539904Y-104286000D01*
X102349428Y-104333619D01*
X102111333Y-104333619D01*
X101920857Y-104286000D01*
X101825619Y-104238380D01*
X101778000Y-104190761D01*
X101730380Y-104095523D01*
X102730380Y-103333619D02*
X101730380Y-103333619D01*
X102444666Y-103000285D01*
X101730380Y-102666952D01*
X102730380Y-102666952D01*
X102730380Y-102190761D02*
X101730380Y-102190761D01*
X102730380Y-101762190D02*
X102206571Y-101762190D01*
X102111333Y-101809809D01*
X102063714Y-101905047D01*
X102063714Y-102047904D01*
X102111333Y-102143142D01*
X102158952Y-102190761D01*
X102063714Y-101381238D02*
X102063714Y-100857428D01*
X102730380Y-101381238D01*
X102730380Y-100857428D01*
M02*
