M48
METRIC,TZ
T1C0.400
T2C0.500
T3C0.800
T4C0.900
T5C1.000
T6C1.100
T7C1.300
T8C3.200
T9C3.500
%
G90
G05
T1
X68980Y-55078
X69556Y-49497
X71628Y-102362
X71735Y-91362
X77907Y-85381
X78551Y-54201
X79320Y-86828
X85774Y-102940
X85951Y-106693
X88895Y-84562
X91188Y-92364
X91331Y-118129
X92736Y-65626
X93050Y-108449
X93243Y-115134
X93385Y-118486
X94601Y-118600
X95191Y-85043
X95340Y-93529
X96449Y-94372
X96926Y-85516
X97456Y-74849
X98956Y-67184
X99239Y-93357
X100022Y-84492
X100264Y-117880
X100563Y-29917
X100951Y-118848
X101343Y-81499
X102605Y-37611
X102771Y-62177
X102953Y-79863
X102960Y-92756
X103180Y-108940
X103446Y-107165
X103564Y-63355
X103600Y-74439
X108805Y-86576
X109466Y-101254
X111190Y-90750
X111851Y-117880
X111985Y-79959
X113427Y-114821
X114022Y-94545
X114751Y-42343
X115406Y-71685
X116635Y-30423
X119683Y-92017
X120565Y-78052
X120652Y-85747
X121184Y-90338
X122101Y-117702
X122224Y-101733
X123233Y-118723
X125006Y-114363
X127301Y-80568
X127849Y-104249
X129100Y-103749
X129130Y-98339
X129154Y-32044
X129569Y-90681
X130428Y-113247
X132290Y-71167
X133301Y-98737
X133580Y-95250
X133914Y-103653
X134839Y-97723
X135486Y-89643
X138207Y-63278
X138505Y-79667
X139771Y-71586
X140531Y-39455
X140591Y-105811
X141093Y-70972
X141830Y-93148
X141873Y-81872
X142097Y-62417
X143279Y-89757
X143586Y-33805
X144991Y-71405
X145130Y-90580
X147761Y-82299
X148360Y-55465
X148887Y-92627
X149352Y-29730
X149415Y-53666
X150067Y-97594
X151211Y-53780
X154102Y-98031
X154440Y-62733
X154440Y-70748
X154572Y-99059
X156602Y-62417
X156934Y-111326
X157265Y-99447
X157886Y-111893
X158643Y-42954
T2
X142375Y-44000
X143144Y-42144
X143144Y-45856
X145000Y-41375
X145000Y-46625
X146856Y-42144
X146856Y-45856
X147625Y-44000
X155375Y-106000
X156144Y-104144
X156144Y-107856
X158000Y-103375
X158000Y-108625
X159856Y-104144
X159856Y-107856
X160625Y-106000
X65375Y-106000
X66144Y-104144
X66144Y-107856
X68000Y-103375
X68000Y-108625
X69856Y-104144
X69856Y-107856
X70625Y-106000
X80375Y-37000
X81144Y-35144
X81144Y-38856
X83000Y-34375
X83000Y-39625
X84856Y-35144
X84856Y-38856
X85625Y-37000
T3
X116840Y-53293
X116840Y-58293
X107696Y-99568
X112696Y-99568
X144380Y-115000
X152000Y-115000
X146177Y-34544
X153797Y-34544
X126500Y-49760
X126500Y-65000
X129040Y-49760
X129040Y-65000
X131580Y-49760
X131580Y-65000
X134120Y-49760
X134120Y-65000
X136660Y-49760
X136660Y-65000
X139200Y-49760
X139200Y-65000
X141740Y-49760
X141740Y-65000
X144280Y-49760
X144280Y-65000
X146820Y-49760
X146820Y-65000
X149360Y-49760
X149360Y-65000
X151900Y-49760
X151900Y-65000
X154440Y-49760
X154440Y-65000
X156980Y-49760
X156980Y-65000
X159520Y-49760
X159520Y-65000
X97000Y-35000
X97000Y-37540
X97000Y-40080
X97000Y-42620
X97000Y-45160
X97000Y-47700
X97000Y-50240
X104620Y-35000
X104620Y-37540
X104620Y-40080
X104620Y-42620
X104620Y-45160
X104620Y-47700
X104620Y-50240
X91821Y-43180
X91821Y-50800
X124000Y-100380
X124000Y-108000
X126540Y-100380
X126540Y-108000
X129080Y-100380
X129080Y-108000
X131620Y-100380
X131620Y-108000
X134160Y-100380
X134160Y-108000
X136700Y-100380
X136700Y-108000
X139240Y-100380
X139240Y-108000
X141780Y-100380
X141780Y-108000
X144320Y-100380
X144320Y-108000
X146860Y-100380
X146860Y-108000
X149400Y-100380
X149400Y-108000
X151940Y-100380
X151940Y-108000
X123190Y-67644
X123190Y-72644
X108966Y-91567
X108966Y-96567
X131880Y-115000
X139500Y-115000
X97409Y-113157
X102409Y-113157
X65786Y-68500
X65786Y-71040
X65786Y-73580
X73406Y-68500
X73406Y-71040
X73406Y-73580
X109728Y-49911
X117348Y-49911
X79756Y-50292
X87376Y-50292
X112000Y-37880
X112000Y-45500
X114540Y-37880
X114540Y-45500
X117080Y-37880
X117080Y-45500
X119620Y-37880
X119620Y-45500
X122160Y-37880
X122160Y-45500
X124700Y-37880
X124700Y-45500
X127240Y-37880
X127240Y-45500
X129780Y-37880
X129780Y-45500
X132320Y-37880
X132320Y-45500
X134860Y-37880
X134860Y-45500
X120523Y-99902
X120523Y-104902
X107696Y-103124
X112696Y-103124
X119000Y-115000
X126620Y-115000
X106172Y-113284
X113792Y-113284
X120015Y-61214
X120015Y-68834
X108331Y-35005
X108331Y-40005
X100500Y-102000
X100500Y-106900
X116840Y-61214
X116840Y-68834
X77560Y-88500
X77560Y-96120
X80100Y-88500
X80100Y-96120
X82640Y-88500
X82640Y-96120
X85180Y-88500
X85180Y-96120
X87720Y-88500
X87720Y-96120
X90260Y-88500
X90260Y-96120
X92800Y-88500
X92800Y-96120
X95340Y-88500
X95340Y-96120
X97880Y-88500
X97880Y-96120
X100420Y-88500
X100420Y-96120
X102960Y-88500
X102960Y-96120
X105500Y-88500
X105500Y-96120
X104000Y-76380
X104000Y-84000
X106540Y-76380
X106540Y-84000
X109080Y-76380
X109080Y-84000
X111620Y-76380
X111620Y-84000
X114160Y-76380
X114160Y-84000
X116700Y-76380
X116700Y-84000
X119240Y-76380
X119240Y-84000
X121780Y-76380
X121780Y-84000
X80264Y-53848
X80264Y-69088
X82804Y-53848
X82804Y-69088
X85344Y-53848
X85344Y-69088
X87884Y-53848
X87884Y-69088
X90424Y-53848
X90424Y-69088
X92964Y-53848
X92964Y-69088
X95504Y-53848
X95504Y-69088
X98044Y-53848
X98044Y-69088
X100584Y-53848
X100584Y-69088
X103124Y-53848
X103124Y-69088
X105664Y-53848
X105664Y-69088
X108204Y-53848
X108204Y-69088
X110744Y-53848
X110744Y-69088
X113284Y-53848
X113284Y-69088
X112729Y-34544
X117729Y-34544
X104474Y-72898
X109474Y-72898
X115762Y-87880
X115762Y-95500
X118302Y-87880
X118302Y-95500
X120842Y-87880
X120842Y-95500
X123382Y-87880
X123382Y-95500
X125922Y-87880
X125922Y-95500
X128462Y-87880
X128462Y-95500
X131002Y-87880
X131002Y-95500
X79756Y-46990
X87376Y-46990
X106172Y-106680
X113792Y-106680
X134493Y-87456
X134493Y-92456
X112268Y-87329
X112268Y-92329
X122809Y-34544
X130429Y-34544
X123063Y-49229
X123063Y-54229
X79756Y-43815
X87376Y-43815
X69088Y-80645
X74088Y-80645
X138000Y-87880
X138000Y-95500
X140540Y-87880
X140540Y-95500
X143080Y-87880
X143080Y-95500
X145620Y-87880
X145620Y-95500
X148160Y-87880
X148160Y-95500
X150700Y-87880
X150700Y-95500
X153240Y-87880
X153240Y-95500
X66040Y-84201
X66040Y-86741
X66040Y-89281
X66040Y-91821
X66040Y-94361
X66040Y-96901
X66040Y-99441
X73660Y-84201
X73660Y-86741
X73660Y-89281
X73660Y-91821
X73660Y-94361
X73660Y-96901
X73660Y-99441
X106172Y-109982
X113792Y-109982
X126500Y-68760
X126500Y-84000
X129040Y-68760
X129040Y-84000
X131580Y-68760
X131580Y-84000
X134120Y-68760
X134120Y-84000
X136660Y-68760
X136660Y-84000
X139200Y-68760
X139200Y-84000
X141740Y-68760
X141740Y-84000
X144280Y-68760
X144280Y-84000
X146820Y-68760
X146820Y-84000
X149360Y-68760
X149360Y-84000
X151900Y-68760
X151900Y-84000
X154440Y-68760
X154440Y-84000
X156980Y-68760
X156980Y-84000
X159520Y-68760
X159520Y-84000
T4
X89000Y-37000
X91540Y-37000
X139000Y-37000
X141540Y-37000
X157607Y-29417
X157607Y-31917
X157607Y-34417
X160907Y-29417
X160907Y-31917
X160907Y-34417
T5
X71410Y-45385
X71410Y-48155
X71410Y-50925
X71410Y-53695
X74250Y-44000
X74250Y-46770
X74250Y-49540
X74250Y-52310
X74250Y-55080
X122682Y-28460
X122682Y-31000
X125222Y-28460
X125222Y-31000
X127762Y-28460
X127762Y-31000
X130302Y-28460
X130302Y-31000
X132842Y-28460
X132842Y-31000
X135382Y-28460
X135382Y-31000
X137922Y-28460
X137922Y-31000
X140462Y-28460
X140462Y-31000
X143002Y-28460
X143002Y-31000
X145542Y-28460
X145542Y-31000
X148082Y-28460
X148082Y-31000
X150622Y-28460
X150622Y-31000
X153162Y-28460
X153162Y-31000
X150876Y-38608
X150876Y-41148
X150876Y-43688
X150876Y-46228
X153416Y-38608
X153416Y-41148
X153416Y-43688
X153416Y-46228
X69000Y-28460
X69000Y-31000
X71540Y-28460
X71540Y-31000
X74080Y-28460
X74080Y-31000
X76620Y-28460
X76620Y-31000
X79160Y-28460
X79160Y-31000
X81700Y-28460
X81700Y-31000
X84240Y-28460
X84240Y-31000
X86780Y-28460
X86780Y-31000
X89320Y-28460
X89320Y-31000
X91860Y-28460
X91860Y-31000
X94400Y-28460
X94400Y-31000
X96940Y-28460
X96940Y-31000
X99480Y-28460
X99480Y-31000
X102020Y-28460
X102020Y-31000
X104560Y-28460
X104560Y-31000
X107100Y-28460
X107100Y-31000
X109640Y-28460
X109640Y-31000
T6
X78000Y-73000
X78000Y-77500
X84500Y-73000
X84500Y-77500
X94000Y-73000
X94000Y-77500
X100500Y-73000
X100500Y-77500
X159258Y-89726
X159258Y-91726
X159258Y-93726
T8
X73950Y-37040
X73950Y-62040
T9
X158000Y-106000
X68000Y-106000
X83000Y-37000
X145000Y-44000
T7
G00X159158Y-87626
M15
G01X159358Y-87626
M16
G05
G00X159158Y-95826
M15
G01X159358Y-95826
M16
G05
T0
M30
